<svg xmlns="http://www.w3.org/2000/svg" width="32" height="18" viewBox="0 0 32 18" fill="none">
  <path fill-rule="evenodd" clip-rule="evenodd" d="M0.274348 17.3921C0.12283 17.3921 0 17.2693 0 17.1177V7.32659C0 7.25383 0.0289041 7.18405 0.0803543 7.1326L6.82254 0.390413C6.87399 0.338963 6.94377 0.310059 7.01653 0.310059H7.10305C7.1915 0.310059 7.27452 0.3527 7.32604 0.424592L15.4582 11.7716C15.532 11.8746 15.5256 12.0149 15.4427 12.1108L12.4572 15.564C12.34 15.6995 12.1264 15.6882 12.0243 15.5409L4.61119 4.85631C4.45795 4.63545 4.11144 4.74388 4.11144 5.0127V13.7167C4.11144 13.7895 4.08253 13.8593 4.03108 13.9107L0.63006 17.3117C0.578609 17.3632 0.508828 17.3921 0.436066 17.3921H0.274348Z" fill="white"></path>
  <path fill-rule="evenodd" clip-rule="evenodd" d="M23.4746 3.82757C23.62 3.64825 23.4924 3.38038 23.2615 3.38038H18.8289C18.5844 3.38038 18.462 3.08487 18.6349 2.91204L21.4666 0.0803546C21.518 0.0289044 21.5878 0 21.6606 0H31.1412C31.2927 0 31.4156 0.12283 31.4156 0.274348V13.3456C31.4156 13.4184 31.3867 13.4882 31.3352 13.5396L27.9834 16.8915C27.8105 17.0643 27.515 16.9419 27.515 16.6975V5.13453C27.515 4.87623 27.1906 4.76106 27.0277 4.96153L17.0101 17.2913C16.958 17.3554 16.8798 17.3926 16.7972 17.3926H13.0459C12.8149 17.3926 12.6873 17.1248 12.8328 16.9454L23.4746 3.82757Z" fill="white"></path>
</svg>