<svg width="110" height="16" viewBox="0 0 110 16" fill="none" xmlns="http://www.w3.org/2000/svg">
<path d="M22.3323 10.5381V6.56521C22.3323 6.22352 22.2835 5.95233 22.1859 5.74894C22.0964 5.53742 21.8794 5.43165 21.5377 5.43165H21.4238V5.20386H26.6469V10.5408H25.6245V5.65945H23.3547V10.5408H22.3323V10.5381Z" fill="white"/>
<path d="M28.456 12.6942V6.56266C28.456 6.22096 28.4072 5.94978 28.3095 5.74639C28.2173 5.53486 28.0031 5.4291 27.6614 5.4291H27.4336V5.2013H28.456C28.7434 5.2013 28.9604 5.24198 29.1041 5.32605C29.256 5.41011 29.3617 5.53757 29.4214 5.71113C29.5733 5.55927 29.7766 5.42096 30.0343 5.29079C30.2919 5.1552 30.6173 5.0874 31.0105 5.0874C31.4634 5.0874 31.8431 5.21215 32.1468 5.46164C32.4505 5.71113 32.6756 6.0474 32.8275 6.47317C32.9794 6.89079 33.0553 7.35452 33.0553 7.86978C33.0553 8.38503 32.9766 8.84333 32.8166 9.26639C32.6648 9.68944 32.4316 10.0257 32.1116 10.2779C31.7943 10.5274 31.3875 10.6521 30.8966 10.6521C30.5794 10.6521 30.3055 10.6142 30.0804 10.5383C29.8526 10.4705 29.6519 10.3945 29.4783 10.3105V12.6942H28.456ZM30.5577 10.1966C30.8994 10.1966 31.1705 10.0935 31.3739 9.89011C31.5855 9.67859 31.7373 9.39927 31.8268 9.04944C31.9244 8.69418 31.9733 8.30096 31.9733 7.86978C31.9733 7.43859 31.9272 7.03723 31.8377 6.69011C31.7455 6.343 31.6017 6.06639 31.4065 5.86028C31.2166 5.64876 30.9726 5.543 30.6688 5.543C30.3651 5.543 30.1075 5.61622 29.9204 5.75995C29.7305 5.89554 29.5841 6.05011 29.4783 6.22639V9.86028C29.6519 9.94435 29.8309 10.023 30.0126 10.0989C30.2024 10.1667 30.3841 10.202 30.5577 10.202V10.1966Z" fill="white"/>
<path d="M36.5836 10.6521C36.0547 10.6521 35.6046 10.5274 35.2331 10.2779C34.8615 10.0284 34.5795 9.69215 34.3815 9.26639C34.1836 8.84333 34.0859 8.37689 34.0859 7.86978C34.0859 7.36266 34.1836 6.89079 34.3815 6.47317C34.5795 6.05011 34.8615 5.71384 35.2331 5.46164C35.6046 5.21215 36.0547 5.0874 36.5836 5.0874C37.1124 5.0874 37.5625 5.21215 37.9341 5.46164C38.3056 5.71113 38.5876 6.0474 38.7856 6.47317C38.9836 6.89079 39.0812 7.35452 39.0812 7.86978C39.0812 8.38503 38.9836 8.84333 38.7856 9.26639C38.5876 9.68944 38.3056 10.0257 37.9341 10.2779C37.5625 10.5274 37.1124 10.6521 36.5836 10.6521ZM36.5836 10.1993C36.871 10.1993 37.1205 10.0962 37.332 9.89283C37.5436 9.6813 37.7063 9.40198 37.8202 9.05215C37.9422 8.69689 38.0019 8.30367 38.0019 7.87249C38.0019 7.4413 37.9422 7.03995 37.8202 6.69283C37.7063 6.34571 37.5436 6.0691 37.332 5.863C37.1205 5.65147 36.871 5.54571 36.5836 5.54571C36.2961 5.54571 36.0548 5.65147 35.8351 5.863C35.6236 6.06639 35.4554 6.343 35.3361 6.69283C35.2222 7.03995 35.1653 7.43588 35.1653 7.87249C35.1653 8.3091 35.2222 8.69689 35.3361 9.05215C35.4581 9.39927 35.6236 9.6813 35.8351 9.89283C36.0548 10.0962 36.3042 10.1993 36.5836 10.1993Z" fill="white"/>
<path d="M42.606 10.6521C42.0447 10.6521 41.5809 10.5274 41.2094 10.2779C40.8379 10.0284 40.5613 9.69215 40.3796 9.26639C40.1979 8.84333 40.1084 8.37689 40.1084 7.86978C40.1084 7.36266 40.2006 6.89079 40.3796 6.47317C40.5613 6.05011 40.8379 5.71384 41.2094 5.46164C41.5809 5.21215 42.0447 5.0874 42.606 5.0874C43.0074 5.0874 43.3437 5.11723 43.6176 5.17689C43.8969 5.23656 44.1084 5.33961 44.2521 5.48334C44.3959 5.62706 44.4799 5.80605 44.5016 6.01757C44.5233 6.22096 44.5369 6.53554 44.5369 6.95859H44.3091C44.2792 6.47317 44.1247 6.11791 43.8426 5.89012C43.5715 5.65418 43.2325 5.53757 42.8311 5.53757C42.4515 5.53757 42.1423 5.64334 41.9009 5.85486C41.6596 6.05825 41.4779 6.33486 41.3559 6.68469C41.242 7.03181 41.185 7.42774 41.185 7.86435C41.185 8.30096 41.242 8.68876 41.3559 9.04401C41.4779 9.39113 41.6596 9.67317 41.9009 9.88469C42.1423 10.0881 42.4542 10.1911 42.8311 10.1911C43.2325 10.1911 43.5579 10.1125 43.8074 9.95249C44.0569 9.79249 44.282 9.57011 44.4772 9.28266L44.705 9.4535C44.5396 9.74096 44.3498 9.97147 44.1382 10.145C43.9267 10.3186 43.6908 10.4488 43.4331 10.5301C43.1837 10.606 42.907 10.644 42.6033 10.644L42.606 10.6521Z" fill="white"/>
<path d="M47.4009 10.5381V5.65674H46.8341C46.4924 5.65674 46.2104 5.75437 45.9826 5.95233C45.7548 6.14216 45.6409 6.42148 45.6409 6.79301H45.4131V6.11233C45.4131 5.88454 45.47 5.67843 45.5839 5.4886C45.6978 5.29877 45.9256 5.20386 46.2646 5.20386H50.2944V5.65674H48.4205V10.5381H47.3982H47.4009Z" fill="white"/>
<path d="M51.4386 10.5381V6.56524C51.4386 6.22354 51.3898 5.95236 51.2921 5.74897C51.1999 5.53744 50.9857 5.43168 50.644 5.43168H50.4731V5.20388H51.4386C51.7043 5.20388 51.9077 5.23914 52.0515 5.30693C52.2033 5.37473 52.3091 5.50761 52.3687 5.70558C52.4284 5.90354 52.4609 6.191 52.4609 6.56795V7.36253H53.3125C53.7138 7.36253 54.0799 7.41134 54.4135 7.50897C54.747 7.59846 55.0155 7.75846 55.2189 7.98626C55.4223 8.21405 55.5253 8.53405 55.5253 8.95168C55.5253 9.36931 55.4223 9.68117 55.2189 9.9171C55.0155 10.1449 54.747 10.3076 54.4135 10.4052C54.0799 10.4947 53.7138 10.5408 53.3125 10.5408H51.4386V10.5381ZM53.1986 10.1395C53.5701 10.1395 53.8684 10.05 54.0962 9.86829C54.3294 9.6866 54.4487 9.38016 54.4487 8.94897C54.4487 8.51778 54.3321 8.21134 54.0962 8.02965C53.8684 7.84795 53.5701 7.75846 53.1986 7.75846C53.0847 7.75846 52.9518 7.76931 52.7999 7.79371C52.6562 7.81541 52.5423 7.84253 52.4582 7.87236V10.0283C52.5423 10.0581 52.6562 10.0852 52.7999 10.1069C52.9518 10.1286 53.0847 10.1422 53.1986 10.1422V10.1395ZM57.2853 10.5381C57.0196 10.5381 56.8135 10.5029 56.6616 10.4351C56.5179 10.3673 56.4148 10.2344 56.3552 10.0364C56.2955 9.83846 56.263 9.551 56.263 9.17405V5.20117H57.2853V9.17405C57.2853 9.51575 57.3314 9.78965 57.4209 10.0039C57.5186 10.2073 57.7382 10.3103 58.0799 10.3103H58.2508V10.5381H57.2853Z" fill="white"/>
<path d="M61.1743 10.6521C60.6454 10.6521 60.2007 10.5274 59.8454 10.2779C59.4983 10.0284 59.2326 9.69215 59.0509 9.26639C58.8773 8.84333 58.7905 8.37689 58.7905 7.86978C58.7905 7.36266 58.8827 6.89079 59.0617 6.47317C59.2434 6.05011 59.5037 5.71384 59.8454 5.46164C60.1871 5.21215 60.5912 5.0874 61.0604 5.0874C61.5756 5.0874 61.9987 5.18503 62.3322 5.383C62.6739 5.57283 62.9234 5.85215 63.0807 6.22367C63.2461 6.5952 63.3302 7.04808 63.3302 7.58503L63.3085 8.03791H59.8671C59.8671 8.65893 60 9.17418 60.2658 9.58096C60.537 9.99045 60.9166 10.1938 61.4021 10.1938C61.7736 10.1938 62.08 10.1152 62.3214 9.9552C62.5709 9.7952 62.7932 9.57283 62.9912 9.28537L63.219 9.45622C63.0536 9.74367 62.8637 9.97418 62.6522 10.1477C62.4488 10.3213 62.221 10.4515 61.9715 10.5328C61.7302 10.6088 61.4644 10.6467 61.177 10.6467L61.1743 10.6521ZM59.8671 7.58774H62.2509C62.2509 6.92876 62.1532 6.42706 61.9553 6.07723C61.7573 5.72198 61.459 5.543 61.0576 5.543C60.8298 5.543 60.6265 5.63249 60.4448 5.81418C60.2712 5.98774 60.1302 6.23181 60.0244 6.54096C59.9187 6.84469 59.8644 7.19181 59.8644 7.58503L59.8671 7.58774Z" fill="white"/>
<path d="M5.83309 2.18492H1.81023C0.889983 2.18492 0.0437145 2.17087 0 1.6272C0.0145715 2.55782 0.459563 3.90242 2.80558 3.9316H6.4563C7.68816 3.9316 8.22282 4.54662 8.23739 5.0049C8.23739 3.51655 7.77783 2.18492 5.83309 2.18492ZM8.23739 10.3433V6.44029C8.23739 4.56499 6.38232 4.71523 5.61003 4.71523C6.08529 4.71523 6.129 5.40266 6.129 6.21763V9.66992C6.129 11.4588 7.98407 12.2035 8.94915 12.2035C8.23627 12.1754 8.23627 10.9302 8.23627 10.3433H8.23739ZM2.78988 10.3433V6.49325C2.78988 4.61795 0.934819 4.18885 0.162528 4.18885C0.637784 4.18885 0.681499 4.87628 0.681499 5.69125V9.66992C0.681499 11.4588 2.53656 12.2035 3.50165 12.2035C2.78876 12.1754 2.78876 10.9302 2.78876 10.3433H2.78988Z" fill="white"/>
<path d="M3.07238 0.269384H0.953574C0.468989 0.269384 0.0233937 0.262502 0 0C0.00779792 0.448318 0.242849 1.09622 1.47715 1.10998H3.40101C4.04935 1.10998 4.33119 1.40689 4.33898 1.62712C4.33898 0.9104 4.09613 0.268401 3.07238 0.268401V0.269384Z" fill="white"/>
<path d="M15.5191 8.51381C15.5191 6.39626 14.8528 4.59301 13.5497 4.59301C16.3984 4.59301 17.8981 5.98926 17.8981 8.51381C17.8981 11.0384 15.6251 11.9168 14.3067 11.9168H13.1095C14.4126 11.9168 15.5191 10.7252 15.5191 8.51381ZM12.7163 3.88188V13.6907C12.7163 14.334 12.7163 15.6986 13.4438 15.7291C12.4586 15.7291 10.5645 14.9139 10.5645 12.9535V3.00344C10.5645 2.10916 10.5187 1.3562 10.0337 1.3562C10.8212 1.3562 12.7163 1.82652 12.7163 3.88188Z" fill="white"/>
<path d="M16.552 16.0001C15.6471 16.0001 14.915 15.2878 14.915 14.3828C14.915 13.4779 15.6471 12.7458 16.552 12.7458C17.3989 12.7458 18.1693 13.4779 18.1693 14.3828C18.1693 15.2878 17.4372 16.0001 16.552 16.0001Z" fill="white"/>
<path d="M67.5192 12.7374V6.62279C67.5192 6.28199 67.4752 6.01161 67.3845 5.80883C67.3017 5.59759 67.1023 5.49056 66.7916 5.49056H66.5845V5.26525H67.5218C67.7859 5.26525 67.9827 5.30749 68.1147 5.38917C68.2545 5.47085 68.3503 5.60041 68.4073 5.77503C68.5471 5.62294 68.7335 5.48493 68.9691 5.35537C69.2048 5.22018 69.5025 5.15259 69.865 5.15259C70.2819 5.15259 70.6288 5.27651 70.9059 5.52718C71.1829 5.77503 71.3927 6.11301 71.5299 6.53548C71.6697 6.9495 71.737 7.41422 71.737 7.92963C71.737 8.44505 71.6645 8.8985 71.5195 9.32379C71.3797 9.74626 71.1648 10.0814 70.8748 10.3321C70.5822 10.5799 70.212 10.7067 69.7614 10.7067C69.4689 10.7067 69.2203 10.6701 69.0106 10.594C68.8034 10.5264 68.6196 10.4504 68.4591 10.3687V12.7458H67.5218L67.5192 12.7374ZM69.4456 10.2476C69.7589 10.2476 70.0074 10.1462 70.1964 9.9406C70.3906 9.72936 70.5304 9.45053 70.6133 9.10129C70.7039 8.74641 70.7479 8.35492 70.7479 7.924C70.7479 7.49308 70.7065 7.09314 70.6237 6.74671C70.5408 6.40029 70.4087 6.12427 70.2275 5.92148C70.054 5.71025 69.8288 5.60322 69.5517 5.60322C69.2747 5.60322 69.0391 5.67363 68.8656 5.81727C68.6921 5.95247 68.5575 6.10737 68.4591 6.28199V9.9068C68.6196 9.98848 68.7827 10.0702 68.9484 10.1434C69.1219 10.211 69.2876 10.2448 69.4481 10.2448L69.4456 10.2476Z" fill="white"/>
<path d="M75.3689 10.8475C74.8613 10.8475 74.4401 10.7204 74.0999 10.4634C73.7678 10.2093 73.514 9.86273 73.3412 9.42955C73.1738 8.99637 73.0928 8.51987 73.0928 8.00005C73.0928 7.48023 73.1792 6.99795 73.3547 6.57054C73.5275 6.13736 73.7786 5.7937 74.1026 5.53668C74.4293 5.28254 74.8154 5.15259 75.2636 5.15259C75.755 5.15259 76.16 5.25366 76.4786 5.45582C76.8053 5.64931 77.0429 5.93521 77.1942 6.31641C77.3535 6.69472 77.4318 7.15967 77.4318 7.70837L77.4102 8.17332H74.1215C74.1215 8.80866 74.2484 9.33425 74.5022 9.75299C74.7641 10.1717 75.1259 10.3797 75.5876 10.3797C75.9413 10.3797 76.2356 10.2988 76.4678 10.1371C76.7054 9.97536 76.9187 9.74722 77.1078 9.45265L77.3238 9.62593C77.1645 9.92049 76.9835 10.1573 76.781 10.3335C76.5866 10.5125 76.3679 10.6425 76.1303 10.7291C75.8981 10.8071 75.6443 10.8446 75.3716 10.8446L75.3689 10.8475ZM74.1215 7.71126H76.4003C76.4003 7.03838 76.3058 6.52434 76.1195 6.16624C75.9305 5.80236 75.6443 5.62043 75.2609 5.62043C75.0449 5.62043 74.8478 5.71284 74.675 5.89766C74.5076 6.07671 74.3753 6.32218 74.2727 6.63985C74.1701 6.94885 74.1215 7.30407 74.1215 7.70837V7.71126Z" fill="white"/>
<path d="M78.9424 10.5734V6.53578C78.9424 6.18855 78.8942 5.91306 78.7948 5.70644C78.7039 5.49121 78.4881 5.38216 78.1445 5.38216H77.9741V5.15259H78.9453C79.2122 5.15259 79.4167 5.18702 79.5615 5.2559C79.7148 5.32477 79.8199 5.45965 79.8824 5.66053C79.942 5.8614 79.9732 6.15411 79.9732 6.53865V10.1143H81.7423V5.15259H82.7703V10.1143H84.5394V5.15259H85.5673V10.5763H78.9453L78.9424 10.5734Z" fill="white"/>
<path d="M89.3417 10.8475C88.8024 10.8475 88.3549 10.7204 87.9934 10.4634C87.6405 10.2093 87.3709 9.86273 87.1873 9.42955C87.0094 8.99637 86.9233 8.51987 86.9233 8.00005C86.9233 7.48023 87.0151 6.99795 87.2016 6.57054C87.3852 6.13736 87.652 5.7937 87.9963 5.53668C88.3434 5.28254 88.7536 5.15259 89.2299 5.15259C89.752 5.15259 90.1823 5.25366 90.5208 5.45582C90.8679 5.64931 91.1204 5.93521 91.2811 6.31641C91.4503 6.69472 91.5335 7.15967 91.5335 7.70837L91.5106 8.17332H88.0164C88.0164 8.80866 88.1512 9.33425 88.4209 9.75299C88.6991 10.1717 89.0835 10.3797 89.5741 10.3797C89.9499 10.3797 90.2626 10.2988 90.5093 10.1371C90.7618 9.97536 90.9884 9.74722 91.1892 9.45265L91.4188 9.62593C91.2495 9.92049 91.0573 10.1573 90.8421 10.3335C90.6356 10.5125 90.4032 10.6425 90.1507 10.7291C89.904 10.8071 89.6344 10.8446 89.3446 10.8446L89.3417 10.8475ZM88.0164 7.71126H90.4376C90.4376 7.03838 90.3372 6.52434 90.1364 6.16624C89.9356 5.80236 89.6315 5.62043 89.2241 5.62043C88.9946 5.62043 88.7852 5.71284 88.6016 5.89766C88.4237 6.07671 88.2832 6.32218 88.1741 6.63985C88.0651 6.94885 88.0135 7.30407 88.0135 7.70837L88.0164 7.71126Z" fill="white"/>
<path d="M92.9963 10.5734V6.53578C92.9963 6.18855 92.9504 5.91306 92.856 5.70644C92.7697 5.49121 92.5619 5.38216 92.2381 5.38216H92.0762V5.15259H92.999C93.2527 5.15259 93.4469 5.18702 93.5846 5.2559C93.7303 5.32477 93.8301 5.45965 93.8895 5.66053C93.9461 5.8614 93.9758 6.15411 93.9758 6.53865V7.63488H96.1453V5.15546H97.1221V9.19312C97.1221 9.54036 97.1653 9.81872 97.2517 10.0339C97.3461 10.2406 97.5566 10.3467 97.8804 10.3467H98.0423V10.5763H97.1194C96.8658 10.5763 96.6661 10.5419 96.5231 10.473C96.3855 10.4041 96.2883 10.2693 96.2317 10.0684C96.175 9.8675 96.1453 9.57479 96.1453 9.19025V8.09403H93.9758V10.5734H92.999H92.9963Z" fill="white"/>
<path d="M99.0103 10.5734V6.53578C99.0103 6.18855 98.962 5.91306 98.8627 5.70644C98.7718 5.49121 98.5531 5.38216 98.2124 5.38216H98.042V5.15259H99.0132C99.2801 5.15259 99.4845 5.18702 99.6294 5.2559C99.7827 5.32477 99.8878 5.45965 99.9502 5.66053C100.01 5.8614 100.041 6.15411 100.041 6.53865V9.53749L102.438 5.15259H103.466V10.5763H102.438V6.19142L100.041 10.5763H99.0132L99.0103 10.5734Z" fill="white"/>
<path d="M105.15 10.8475C105.042 10.8475 104.934 10.8357 104.823 10.8121C104.721 10.7885 104.632 10.7619 104.551 10.7295V10.4934C104.804 10.461 105.01 10.3459 105.169 10.1482C105.328 9.95048 105.466 9.74983 105.582 9.54328L106.232 8.29807C105.906 8.2361 105.617 8.07381 105.363 7.8112C105.109 7.55153 104.983 7.19745 104.983 6.75484C104.983 6.34468 105.08 6.02305 105.277 5.7929C105.479 5.55684 105.744 5.38865 106.068 5.29422C106.4 5.1998 106.761 5.15259 107.153 5.15259H109.703V5.38865H109.66C109.355 5.3975 109.161 5.51258 109.074 5.73388C108.988 5.94633 108.945 6.22961 108.945 6.57484V10.7265H107.968V8.35413H107.12L106.47 9.77639C106.302 10.1334 106.119 10.4019 105.917 10.5819C105.714 10.756 105.458 10.8416 105.147 10.8416L105.15 10.8475ZM107.266 7.94103C107.374 7.94103 107.498 7.92923 107.636 7.90562C107.782 7.88201 107.892 7.85546 107.973 7.823V5.68667C107.895 5.65421 107.782 5.62766 107.636 5.60405C107.498 5.58044 107.377 5.56864 107.266 5.56864C106.883 5.56864 106.578 5.66306 106.354 5.85191C106.13 6.03486 106.016 6.33288 106.016 6.75484C106.016 7.17679 106.13 7.47777 106.354 7.66956C106.578 7.85251 106.883 7.94103 107.266 7.94103Z" fill="white"/>
</svg>
