<svg width="114" height="50" viewBox="0 0 114 50" fill="none" xmlns="http://www.w3.org/2000/svg">
<g clip-path="url(#clip0_68_21)">
<path d="M17.8809 6.52433H5.59426C2.78363 6.52433 0.198943 6.47919 0.0654297 4.73267C0.109934 7.72225 1.46903 12.0417 8.63426 12.1354H19.7843C23.5467 12.1354 25.1797 14.1111 25.2242 15.5834C25.2242 10.8021 23.8206 6.52433 17.8809 6.52433ZM25.2242 32.7327V20.1945C25.2242 14.1702 19.5584 14.6528 17.1997 14.6528C18.6512 14.6528 18.7847 16.8611 18.7847 19.4792V30.5695C18.7847 36.316 24.4505 38.7084 27.398 38.7084C25.2207 38.6181 25.2207 34.6181 25.2207 32.7327H25.2242ZM8.58633 32.7327V20.3646C8.58633 14.3403 2.92056 12.9618 0.561826 12.9618C2.01336 12.9618 2.14687 15.1702 2.14687 17.7882V30.5695C2.14687 36.316 7.81264 38.7084 10.7602 38.7084C8.58291 38.6181 8.58291 34.6181 8.58291 32.7327H8.58633Z" fill="#3C1F53"/>
<path d="M9.4418 0.951389H2.93045C1.44126 0.951389 0.0718919 0.927083 0 0C0.023964 1.58333 0.746306 3.87153 4.53946 3.92014H10.4517C12.4441 3.92014 13.3103 4.96875 13.3342 5.74653C13.3342 3.21528 12.5879 0.947917 9.4418 0.947917V0.951389Z" fill="#508BFF"/>
<path d="M48.003 26.4236C48.003 19.9201 45.9147 14.3819 41.8305 14.3819C50.7588 14.3819 55.4592 18.6701 55.4592 26.4236C55.4592 34.177 48.3351 36.8749 44.203 36.8749H40.4509C44.5351 36.8749 48.003 33.2152 48.003 26.4236ZM39.2185 12.1979V42.3229C39.2185 44.2986 39.2185 48.4895 41.4985 48.5833C38.4105 48.5833 32.4743 46.0798 32.4743 40.059V9.49995C32.4743 6.75342 32.3305 4.44092 30.8105 4.44092C33.2788 4.44092 39.2185 5.88536 39.2185 12.1979Z" fill="#3C1F53"/>
<path d="M51.0463 50.0001C48.376 50.0001 46.2158 47.8681 46.2158 45.1598C46.2158 42.4515 48.376 40.2605 51.0463 40.2605C53.5454 40.2605 55.8185 42.4515 55.8185 45.1598C55.8185 47.8681 53.6583 50.0001 51.0463 50.0001Z" fill="#508BFF"/>
<path d="M62.2445 22.1736V17.0868C62.2445 16.6493 62.1829 16.3021 62.0596 16.0417C61.9467 15.7708 61.6728 15.6354 61.2414 15.6354H61.0977V15.3438H67.6912V22.1771H66.4005V15.9271H63.5351V22.1771H62.2445V22.1736Z" fill="#3C1F53"/>
<path d="M69.9752 24.9339V17.0832C69.9752 16.6457 69.9136 16.2985 69.7903 16.0381C69.6739 15.7673 69.4035 15.6318 68.9721 15.6318H68.6846V15.3402H69.9752C70.3381 15.3402 70.612 15.3923 70.7934 15.4999C70.9851 15.6075 71.1186 15.7707 71.1939 15.9929C71.3857 15.7985 71.6424 15.6214 71.9676 15.4548C72.2929 15.2811 72.7037 15.1943 73.2001 15.1943C73.7718 15.1943 74.2511 15.3541 74.6345 15.6735C75.0179 15.9929 75.302 16.4235 75.4938 16.9686C75.6855 17.5034 75.7813 18.0971 75.7813 18.7568C75.7813 19.4166 75.682 20.0034 75.4801 20.545C75.2884 21.0867 74.9939 21.5173 74.59 21.8402C74.1894 22.1596 73.6759 22.3193 73.0563 22.3193C72.6557 22.3193 72.31 22.2707 72.0258 22.1735C71.7383 22.0867 71.4849 21.9895 71.2658 21.8818V24.9339H69.9752ZM72.6284 21.736C73.0597 21.736 73.402 21.6041 73.6588 21.3436C73.9156 21.0832 74.1175 20.7152 74.2305 20.2673C74.3538 19.8124 74.4154 19.3089 74.4154 18.7568C74.4154 18.2048 74.3572 17.6909 74.2442 17.2464C74.1278 16.802 73.9464 16.4478 73.6999 16.1839C73.4602 15.9131 73.1521 15.7777 72.7687 15.7777C72.3853 15.7777 72.0601 15.8714 71.8238 16.0554C71.5842 16.2291 71.3993 16.427 71.2658 16.6527V21.3054C71.4849 21.4131 71.7109 21.5138 71.9402 21.611C72.1799 21.6978 72.4093 21.7429 72.6284 21.7429V21.736Z" fill="#3C1F53"/>
<path d="M80.235 22.3193C79.5674 22.3193 78.9991 22.1596 78.5301 21.8402C78.0611 21.5207 77.7051 21.0902 77.4552 20.545C77.2053 20.0034 77.082 19.4061 77.082 18.7568C77.082 18.1075 77.2053 17.5034 77.4552 16.9686C77.7051 16.427 78.0611 15.9964 78.5301 15.6735C78.9991 15.3541 79.5674 15.1943 80.235 15.1943C80.9026 15.1943 81.4709 15.3541 81.9399 15.6735C82.4089 15.9929 82.7649 16.4235 83.0148 16.9686C83.2647 17.5034 83.388 18.0971 83.388 18.7568C83.388 19.4166 83.2647 20.0034 83.0148 20.545C82.7649 21.0867 82.4089 21.5173 81.9399 21.8402C81.4709 22.1596 80.9026 22.3193 80.235 22.3193ZM80.235 21.7395C80.5979 21.7395 80.9128 21.6075 81.1799 21.3471C81.4469 21.0763 81.6523 20.7186 81.7961 20.2707C81.9501 19.8159 82.0255 19.3124 82.0255 18.7603C82.0255 18.2082 81.9501 17.6943 81.7961 17.2499C81.6523 16.8054 81.4469 16.4513 81.1799 16.1874C80.9128 15.9166 80.5979 15.7811 80.235 15.7811C79.8721 15.7811 79.5674 15.9166 79.2901 16.1874C79.0231 16.4478 78.8109 16.802 78.6602 17.2499C78.5164 17.6943 78.4446 18.2013 78.4446 18.7603C78.4446 19.3193 78.5164 19.8159 78.6602 20.2707C78.8143 20.7152 79.0231 21.0763 79.2901 21.3471C79.5674 21.6075 79.8824 21.7395 80.235 21.7395Z" fill="#3C1F53"/>
<path d="M87.8385 22.3193C87.1299 22.3193 86.5445 22.1596 86.0755 21.8402C85.6064 21.5207 85.2573 21.0902 85.0279 20.545C84.7985 20.0034 84.6855 19.4061 84.6855 18.7568C84.6855 18.1075 84.8019 17.5034 85.0279 16.9686C85.2573 16.427 85.6064 15.9964 86.0755 15.6735C86.5445 15.3541 87.1299 15.1943 87.8385 15.1943C88.3452 15.1943 88.7697 15.2325 89.1155 15.3089C89.4681 15.3853 89.7351 15.5173 89.9165 15.7013C90.098 15.8853 90.2041 16.1145 90.2315 16.3853C90.2589 16.6457 90.276 17.0485 90.276 17.5902H89.9884C89.9508 16.9686 89.7556 16.5138 89.3996 16.2221C89.0573 15.92 88.6293 15.7707 88.1227 15.7707C87.6434 15.7707 87.2531 15.9061 86.9484 16.177C86.6437 16.4374 86.4144 16.7916 86.2603 17.2395C86.1165 17.6839 86.0446 18.1909 86.0446 18.7499C86.0446 19.3089 86.1165 19.8054 86.2603 20.2603C86.4144 20.7048 86.6437 21.0659 86.9484 21.3367C87.2531 21.5971 87.6468 21.7291 88.1227 21.7291C88.6293 21.7291 89.0401 21.6284 89.3551 21.4235C89.6701 21.2186 89.9542 20.9339 90.2007 20.5659L90.4883 20.7846C90.2794 21.1527 90.0398 21.4478 89.7728 21.67C89.5057 21.8923 89.2079 22.0589 88.8827 22.1631C88.5677 22.2603 88.2185 22.3089 87.8351 22.3089V22.3193H87.8385Z" fill="#3C1F53"/>
<path d="M93.8912 22.1736V15.9236H93.1757C92.7444 15.9236 92.3883 16.0486 92.1008 16.3021C91.8132 16.5451 91.6694 16.9028 91.6694 17.3785H91.3818V16.5069C91.3818 16.2153 91.4537 15.9514 91.5975 15.7083C91.7413 15.4653 92.0289 15.3438 92.4568 15.3438H97.544V15.9236H95.1784V22.1736H93.8878H93.8912Z" fill="#3C1F53"/>
<path d="M98.9883 22.1735V17.0867C98.9883 16.6492 98.9266 16.302 98.8034 16.0416C98.687 15.7708 98.4166 15.6353 97.9852 15.6353H97.7695V15.3437H98.9883C99.3238 15.3437 99.5805 15.3888 99.762 15.4756C99.9537 15.5624 100.087 15.7326 100.163 15.986C100.238 16.2395 100.279 16.6076 100.279 17.0902V18.1076H101.354C101.861 18.1076 102.323 18.1701 102.744 18.2951C103.165 18.4096 103.504 18.6145 103.761 18.9062C104.017 19.1978 104.147 19.6076 104.147 20.1423C104.147 20.677 104.017 21.0763 103.761 21.3784C103.504 21.6701 103.165 21.8784 102.744 22.0034C102.323 22.118 101.861 22.177 101.354 22.177H98.9883V22.1735ZM101.21 21.6596C101.679 21.6596 102.056 21.5451 102.343 21.3124C102.638 21.0798 102.788 20.6874 102.788 20.1353C102.788 19.5833 102.641 19.1909 102.343 18.9583C102.056 18.7256 101.679 18.611 101.21 18.611C101.066 18.611 100.899 18.6249 100.707 18.6562C100.525 18.6839 100.382 18.7187 100.275 18.7569V21.5173C100.382 21.5555 100.525 21.5902 100.707 21.618C100.899 21.6458 101.066 21.6631 101.21 21.6631V21.6596ZM106.369 22.1666C106.034 22.1666 105.773 22.1214 105.582 22.0346C105.4 21.9478 105.27 21.7777 105.195 21.5242C105.12 21.2708 105.079 20.9027 105.079 20.4201V15.3333H106.369V20.4201C106.369 20.8576 106.427 21.2083 106.54 21.4826C106.664 21.743 106.941 21.8749 107.372 21.8749H107.588V22.1666H106.369Z" fill="#3C1F53"/>
<path d="M111.279 22.3193C110.611 22.3193 110.05 22.1596 109.601 21.8402C109.163 21.5207 108.828 21.0902 108.598 20.545C108.379 20.0034 108.27 19.4061 108.27 18.7568C108.27 18.1075 108.386 17.5034 108.612 16.9686C108.841 16.427 109.17 15.9964 109.601 15.6735C110.033 15.3541 110.543 15.1943 111.135 15.1943C111.785 15.1943 112.319 15.3193 112.741 15.5728C113.172 15.8159 113.487 16.1735 113.685 16.6492C113.894 17.1249 114 17.7048 114 18.3923L113.973 18.9721H109.629C109.629 19.7673 109.796 20.427 110.132 20.9478C110.474 21.4721 110.953 21.7325 111.566 21.7325C112.035 21.7325 112.422 21.6318 112.727 21.427C113.042 21.2221 113.323 20.9374 113.572 20.5693L113.86 20.7881C113.651 21.1561 113.412 21.4513 113.144 21.6735C112.888 21.8957 112.6 22.0624 112.285 22.1666C111.981 22.2638 111.645 22.3124 111.282 22.3124V22.3193H111.279ZM109.625 18.3957H112.634C112.634 17.552 112.511 16.9096 112.261 16.4617C112.011 16.0068 111.635 15.7777 111.128 15.7777C110.841 15.7777 110.584 15.8923 110.354 16.1249C110.135 16.3471 109.957 16.6596 109.824 17.0554C109.69 17.4443 109.622 17.8888 109.622 18.3923L109.625 18.3957Z" fill="#3C1F53"/>
<path d="M62.2691 35.7325V28.1943C62.2691 27.7742 62.2109 27.4409 62.091 27.1909C61.9815 26.9304 61.7179 26.7985 61.3071 26.7985H61.0332V26.5207H62.2725C62.6217 26.5207 62.8819 26.5728 63.0564 26.6735C63.2413 26.7742 63.368 26.9339 63.4433 27.1492C63.6282 26.9617 63.8746 26.7916 64.1862 26.6318C64.4977 26.4652 64.8914 26.3818 65.3707 26.3818C65.9219 26.3818 66.3806 26.5346 66.7469 26.8436C67.1132 27.1492 67.3905 27.5659 67.5719 28.0867C67.7568 28.5971 67.8458 29.17 67.8458 29.8054C67.8458 30.4409 67.75 30.9999 67.5582 31.5242C67.3734 32.045 67.0892 32.4582 66.7058 32.7673C66.319 33.0728 65.8294 33.2291 65.2337 33.2291C64.8469 33.2291 64.5182 33.1839 64.2409 33.0902C63.9671 33.0068 63.724 32.9131 63.5118 32.8124V35.7429H62.2725V35.7325H62.2691ZM64.8127 32.6631C65.2269 32.6631 65.5555 32.5381 65.8055 32.2846C66.0554 32.0311 66.2471 31.6804 66.3566 31.2499C66.4764 30.8124 66.5346 30.3298 66.5346 29.7985C66.5346 29.2673 66.4799 28.7742 66.3703 28.3471C66.2608 27.92 66.0862 27.5798 65.8465 27.3298C65.6172 27.0693 65.3193 26.9374 64.953 26.9374C64.5867 26.9374 64.2752 27.0242 64.0458 27.2013C63.8164 27.3679 63.6384 27.5589 63.5083 27.7742V32.2429C63.7206 32.3436 63.9363 32.4443 64.1554 32.5346C64.3847 32.6179 64.6038 32.6596 64.8161 32.6596L64.8127 32.6631Z" fill="#3C1F53"/>
<path d="M71.9875 33.2188C71.3439 33.2188 70.8098 33.066 70.3785 32.757C69.9574 32.4514 69.6356 32.0348 69.4165 31.5139C69.2043 30.9931 69.1016 30.4202 69.1016 29.7952C69.1016 29.1702 69.2111 28.5903 69.4336 28.0764C69.6527 27.5556 69.9711 27.1424 70.3819 26.8334C70.7962 26.5278 71.2857 26.3716 71.854 26.3716C72.4771 26.3716 72.9906 26.4931 73.3945 26.7362C73.8088 26.9688 74.11 27.3126 74.3017 27.7709C74.5037 28.2258 74.603 28.7848 74.603 29.4445L74.5756 30.0035H70.4059C70.4059 30.7674 70.5668 31.3994 70.8886 31.9028C71.2207 32.4063 71.6794 32.6563 72.2648 32.6563C72.7133 32.6563 73.0864 32.5591 73.3808 32.3646C73.6821 32.1702 73.9526 31.8959 74.1922 31.5417L74.4661 31.7501C74.2641 32.1042 74.0347 32.3889 73.778 32.6007C73.5315 32.816 73.2542 32.9723 72.9529 33.0764C72.6585 33.1702 72.3367 33.2153 71.9909 33.2153H71.9875V33.2188ZM70.4059 29.4514H73.2953C73.2953 28.6424 73.1754 28.0244 72.9392 27.5938C72.6996 27.1563 72.3367 26.9376 71.8506 26.9376C71.5767 26.9376 71.3268 27.0487 71.1077 27.2709C70.8954 27.4862 70.7277 27.7813 70.5976 28.1633C70.4675 28.5348 70.4059 28.9619 70.4059 29.448V29.4514Z" fill="#3C1F53"/>
<path d="M76.3832 33.0798V28.1944C76.3832 27.7742 76.325 27.4409 76.2052 27.1909C76.0956 26.9305 75.8355 26.7985 75.4212 26.7985H75.2158V26.5208H76.3866C76.7084 26.5208 76.9549 26.5624 77.1295 26.6458C77.3144 26.7291 77.441 26.8923 77.5164 27.1353C77.5882 27.3784 77.6259 27.7326 77.6259 28.1978V32.5242H79.7587V26.5208H80.998V32.5242H83.1308V26.5208H84.3701V33.0833H76.3832V33.0798Z" fill="#3C1F53"/>
<path d="M88.8684 33.2188C88.2248 33.2188 87.6907 33.066 87.2594 32.757C86.8383 32.4514 86.5165 32.0348 86.2974 31.5139C86.0851 30.9931 85.9824 30.4202 85.9824 29.7952C85.9824 29.1702 86.092 28.5903 86.3145 28.0764C86.5336 27.5556 86.852 27.1424 87.2628 26.8334C87.677 26.5278 88.1666 26.3716 88.7349 26.3716C89.3579 26.3716 89.8714 26.4931 90.2754 26.7362C90.6896 26.9688 90.9909 27.3126 91.1826 27.7709C91.3846 28.2258 91.4839 28.7848 91.4839 29.4445L91.4565 30.0035H87.2867C87.2867 30.7674 87.4476 31.3994 87.7694 31.9028C88.1015 32.4063 88.5603 32.6563 89.1457 32.6563C89.5941 32.6563 89.9673 32.5591 90.2617 32.3646C90.563 32.1702 90.8334 31.8959 91.0731 31.5417L91.3469 31.7501C91.1449 32.1042 90.9156 32.3889 90.6588 32.6007C90.4123 32.816 90.135 32.9723 89.8338 33.0764C89.5394 33.1702 89.2176 33.2153 88.8718 33.2153H88.8684V33.2188ZM87.2867 29.4514H90.1761C90.1761 28.6424 90.0563 28.0244 89.8166 27.5938C89.577 27.1563 89.2141 26.9376 88.728 26.9376C88.4541 26.9376 88.2042 27.0487 87.9851 27.2709C87.7729 27.4862 87.6051 27.7813 87.475 28.1633C87.3449 28.5348 87.2833 28.9619 87.2833 29.448L87.2867 29.4514Z" fill="#3C1F53"/>
<path d="M93.2641 33.0798V28.1944C93.2641 27.7742 93.2059 27.4409 93.0861 27.1909C92.9765 26.9305 92.7129 26.7985 92.3021 26.7985H92.0967V26.5208H93.2675C93.5893 26.5208 93.8358 26.5624 94.0104 26.6458C94.1952 26.7291 94.3219 26.8923 94.3972 27.1353C94.4691 27.3784 94.5068 27.7326 94.5068 28.1978V29.5242H97.2592V26.5242H98.4985V31.4096C98.4985 31.8298 98.5533 32.1666 98.6628 32.427C98.7826 32.677 99.0497 32.8055 99.4605 32.8055H99.6659V33.0833H98.4951C98.1733 33.0833 97.9199 33.0416 97.7385 32.9583C97.5639 32.8749 97.4407 32.7117 97.3688 32.4687C97.2969 32.2256 97.2592 31.8714 97.2592 31.4062V30.0798H94.5068V33.0798H93.2641Z" fill="#3C1F53"/>
<path d="M100.871 33.0798V28.1944C100.871 27.7742 100.813 27.4409 100.693 27.1909C100.584 26.9305 100.32 26.7985 99.9095 26.7985H99.7041V26.5208H100.875C101.197 26.5208 101.443 26.5624 101.618 26.6458C101.803 26.7291 101.929 26.8923 102.005 27.1353C102.077 27.3784 102.114 27.7326 102.114 28.1978V31.8263L105.004 26.5208H106.243V33.0833H105.004V27.7777L102.114 33.0833H100.871V33.0798Z" fill="#3C1F53"/>
<path d="M108.218 33.2187C108.081 33.2187 107.944 33.2048 107.804 33.1771C107.674 33.1493 107.561 33.118 107.458 33.0798V32.8021C107.78 32.7639 108.04 32.6284 108.242 32.3958C108.444 32.1632 108.619 31.9271 108.766 31.684L109.591 30.2187C109.177 30.1458 108.81 29.9548 108.488 29.6458C108.167 29.3402 108.006 28.9236 108.006 28.4028C108.006 27.9201 108.129 27.5416 108.379 27.2708C108.636 26.993 108.971 26.7951 109.382 26.684C109.803 26.5729 110.262 26.5173 110.758 26.5173H113.993V26.7951H113.939C113.552 26.8055 113.305 26.9409 113.196 27.2014C113.086 27.4514 113.031 27.7847 113.031 28.1909V33.0764H111.792V30.2847H110.717L109.892 31.9583C109.68 32.3784 109.447 32.6944 109.19 32.9062C108.934 33.1111 108.608 33.2118 108.215 33.2118V33.2187H108.218ZM110.905 29.7986C111.042 29.7986 111.2 29.7847 111.374 29.7569C111.559 29.7291 111.7 29.6979 111.802 29.6597V27.1458C111.703 27.1076 111.559 27.0764 111.374 27.0486C111.2 27.0208 111.046 27.0069 110.905 27.0069C110.419 27.0069 110.032 27.118 109.748 27.3402C109.464 27.5555 109.32 27.9062 109.32 28.4028C109.32 28.8993 109.464 29.2534 109.748 29.4791C110.032 29.6944 110.419 29.7986 110.905 29.7986Z" fill="#3C1F53"/>
</g>
<defs>
<clipPath id="clip0_68_21">
<rect width="114" height="50" fill="white"/>
</clipPath>
</defs>
</svg>
