<svg width="124" height="118" viewBox="0 0 124 118" fill="none" xmlns="http://www.w3.org/2000/svg">
<path fill-rule="evenodd" clip-rule="evenodd" d="M62.1976 24.6139L55.1141 12.3268L62.2371 0L69.3403 12.2872L62.2569 24.5743L62.2173 24.6337L62.1976 24.6139Z" fill="white"/>
<path fill-rule="evenodd" clip-rule="evenodd" d="M63.1458 76.335L56.1218 88.5826H11.1084L53.0945 15.8489L60.1977 28.1162L32.3587 76.335H63.1458Z" fill="white"/>
<path fill-rule="evenodd" clip-rule="evenodd" d="M67.1609 76.335H92.1507L64.2919 28.0767L71.3753 15.8291L113.401 88.5826H60.0973L67.1609 76.335Z" fill="white"/>
<path fill-rule="evenodd" clip-rule="evenodd" d="M86.0575 72.8331H38.4323L62.235 31.6384L86.0575 72.8331Z" fill="white"/>
<path fill-rule="evenodd" clip-rule="evenodd" d="M62.2539 24.5742L62.2152 24.6322L62.196 24.6129L62.2346 24.5549L62.2539 24.5742Z" fill="white"/>
<path d="M3.48518 115.999C2.96024 115.999 2.49484 115.935 2.08895 115.801C1.68307 115.666 1.35295 115.484 1.08777 115.253C0.822595 115.017 0.611535 114.727 0.44377 114.383C0.276004 114.039 0.162349 113.663 0.097408 113.266C0.0324667 112.868 0 112.417 0 111.923V107.691C0 107.164 0.032472 106.697 0.102825 106.289C0.173178 105.881 0.286833 105.505 0.449187 105.156C0.61154 104.807 0.822595 104.522 1.08777 104.296C1.35295 104.071 1.68307 103.894 2.08354 103.77C2.48401 103.641 2.94941 103.582 3.47977 103.582C4.0913 103.582 4.61084 103.663 5.04378 103.824C5.47672 103.985 5.81766 104.221 6.07201 104.533C6.32095 104.844 6.50496 105.209 6.61861 105.628C6.73225 106.047 6.78637 106.531 6.78637 107.089V108.131H4.6379V107.1C4.6379 106.493 4.60543 106.085 4.54049 105.875C4.4106 105.467 4.10213 105.247 3.60424 105.215C3.56636 105.215 3.52307 105.215 3.48518 105.215C3.29577 105.215 3.13342 105.236 2.99271 105.279C2.852 105.322 2.73835 105.392 2.65177 105.489C2.56518 105.585 2.48942 105.687 2.4353 105.795C2.38118 105.902 2.3433 106.042 2.31624 106.214C2.28918 106.386 2.27294 106.547 2.26212 106.692C2.25671 106.837 2.2513 107.025 2.2513 107.25V112.396C2.2513 113.11 2.3433 113.615 2.52189 113.921C2.70048 114.222 3.01977 114.377 3.48518 114.377C3.64213 114.377 3.78283 114.361 3.90189 114.324C4.02094 114.286 4.12378 114.243 4.20496 114.184C4.28614 114.13 4.35648 114.05 4.41059 113.942C4.46471 113.835 4.50802 113.738 4.54049 113.647C4.56755 113.556 4.5946 113.432 4.60543 113.271C4.61625 113.11 4.62707 112.976 4.63248 112.863C4.63248 112.75 4.6379 112.594 4.6379 112.401V111.316H6.78637V112.31C6.78637 112.766 6.7539 113.174 6.68896 113.534C6.62402 113.894 6.51578 114.232 6.35884 114.555C6.20189 114.877 6.00167 115.135 5.75814 115.344C5.51461 115.554 5.19531 115.72 4.81108 115.838C4.43766 115.94 3.99389 115.999 3.48518 115.999Z" fill="white"/>
<path d="M8.33411 115.854V103.711H13.4591V105.274H10.5638V108.76H12.8529V110.322H10.5638V114.329H13.4915V115.86H8.33411V115.854Z" fill="white"/>
<path d="M14.8006 115.854V103.711H17.7987C18.367 103.711 18.8594 103.759 19.2815 103.861C19.7037 103.963 20.0825 104.13 20.4072 104.361C20.7319 104.592 20.9808 104.914 21.1432 105.322C21.3056 105.73 21.3867 106.23 21.3813 106.81C21.3759 108.308 20.7806 109.146 19.59 109.323C21.0241 109.592 21.7385 110.596 21.7439 112.337C21.7493 113.491 21.4571 114.367 20.8726 114.963C20.2881 115.559 19.4331 115.86 18.3128 115.86H14.8006V115.854ZM17.0302 108.663H17.723C18.3832 108.663 18.8324 108.523 19.0813 108.244C19.3248 107.965 19.4493 107.497 19.4493 106.837C19.4493 106.493 19.4114 106.219 19.3303 106.004C19.2491 105.789 19.1138 105.634 18.919 105.526C18.7295 105.419 18.5131 105.349 18.2804 105.311C18.0477 105.279 17.7338 105.258 17.3441 105.258H17.0248V108.663H17.0302ZM17.0302 114.292H17.8474C18.5185 114.292 18.9785 114.136 19.2328 113.83C19.4872 113.523 19.6117 113.013 19.6117 112.304C19.6117 111.574 19.4655 111.042 19.1787 110.709C18.8919 110.382 18.4048 110.215 17.7284 110.215H17.0248V114.292H17.0302Z" fill="white"/>
<path d="M23.1786 115.854V103.711H28.3036V105.274H25.4083V108.76H27.6974V110.322H25.4083V114.329H28.336V115.86H23.1786V115.854Z" fill="white"/>
<path d="M29.6243 115.854V103.711H33.1474C35.2309 103.711 36.2754 104.86 36.2754 107.159C36.2754 108.287 35.9886 109.114 35.4204 109.64C34.8521 110.167 34.0457 110.43 33.0067 110.43H31.854V115.86H29.6243V115.854ZM31.854 108.872H32.5683C33.1961 108.872 33.6236 108.749 33.8455 108.502C34.0674 108.255 34.1756 107.804 34.1756 107.143C34.1756 106.767 34.1594 106.477 34.1323 106.273C34.1053 106.069 34.0349 105.881 33.9267 105.714C33.8185 105.548 33.6561 105.43 33.4451 105.365C33.234 105.301 32.9418 105.268 32.5792 105.268H31.854V108.872Z" fill="white"/>
<path d="M37.4661 115.854V103.711H39.6957V108.786H42.1852V103.711H44.4148V115.854H42.1852V110.36H39.6957V115.854H37.4661Z" fill="white"/>
<path d="M46.281 115.854V103.711H48.5106V108.797H48.9436C49.6038 108.797 50.1612 108.856 50.6266 108.969C51.0866 109.082 51.4871 109.275 51.8226 109.544C52.1582 109.812 52.4071 110.172 52.564 110.629C52.721 111.085 52.8022 111.644 52.8022 112.304C52.8022 112.976 52.7156 113.55 52.5424 114.012C52.3692 114.479 52.1095 114.845 51.7577 115.113C51.4059 115.382 51 115.57 50.54 115.683C50.0746 115.795 49.528 115.854 48.884 115.854H46.281ZM48.5106 114.345H48.9003C49.2358 114.345 49.5118 114.318 49.7283 114.259C49.9502 114.2 50.1341 114.098 50.2911 113.942C50.448 113.792 50.5617 113.577 50.632 113.309C50.7024 113.04 50.7349 112.691 50.7294 112.272C50.724 111.59 50.5887 111.096 50.3182 110.795C50.0476 110.494 49.5659 110.339 48.8732 110.339H48.5106V114.345ZM53.9386 115.854V103.711H56.1683V115.854H53.9386Z" fill="white"/>
<path d="M58.0413 115.855V103.711H59.8922V111.3L63.215 103.711H64.7357V115.855H62.8632V108.121L59.535 115.855H58.0413ZM61.3858 102.674C60.6498 102.674 60.1032 102.486 59.7514 102.105C59.3997 101.724 59.2265 101.208 59.2265 100.553H60.2656C60.2656 100.956 60.3576 101.246 60.5362 101.423C60.7202 101.606 61.0016 101.692 61.3858 101.692C61.77 101.692 62.0514 101.6 62.2354 101.423C62.4194 101.24 62.506 100.95 62.506 100.553H63.5559C63.5559 101.208 63.3773 101.724 63.0256 102.105C62.6738 102.486 62.1272 102.674 61.3858 102.674Z" fill="white"/>
<path d="M70.304 115.854V103.711H72.5337V108.824H72.9666L74.9473 103.711H77.1607L74.8661 109.442L77.3447 115.86H75.088L72.9774 110.204H72.5337V115.86H70.304V115.854Z" fill="white"/>
<path d="M78.3193 117.976V116.408C79.2664 116.483 79.8888 116.381 80.1702 116.102C80.4516 115.822 80.5111 115.318 80.3379 114.576L77.8106 103.706H79.8942L80.8954 108.754L81.4257 112.337L81.8695 108.771L82.7408 103.711H84.8622L82.5459 114.764C82.3836 115.532 82.2429 116.08 82.1292 116.419C82.0156 116.752 81.8099 117.074 81.5123 117.38C81.2146 117.686 80.825 117.874 80.3379 117.939C79.8509 118.003 79.1798 118.019 78.3193 117.976Z" fill="white"/>
<path d="M88.8231 116.021C87.7299 116.021 86.9236 115.72 86.404 115.119C85.8845 114.517 85.6193 113.668 85.6193 112.578V112.149H87.7137C87.7137 112.39 87.7137 112.541 87.7191 112.61C87.7353 113.185 87.8219 113.609 87.9789 113.883C88.1358 114.157 88.4226 114.292 88.8339 114.292C89.0233 114.292 89.1803 114.259 89.3156 114.2C89.4509 114.141 89.5591 114.055 89.6349 113.953C89.716 113.851 89.7756 113.711 89.8134 113.545C89.8513 113.378 89.8838 113.201 89.9 113.029C89.9163 112.857 89.9217 112.643 89.9217 112.39C89.9217 111.74 89.7972 111.246 89.5429 110.908C89.2885 110.57 88.8339 110.376 88.1791 110.333C88.1196 110.328 87.9464 110.328 87.6541 110.328V108.813C87.9193 108.813 88.0817 108.813 88.1358 108.808C88.8069 108.781 89.2723 108.609 89.532 108.298C89.7918 107.986 89.9217 107.513 89.9217 106.874C89.9217 106.348 89.8297 105.945 89.6403 105.671C89.4509 105.397 89.1478 105.258 88.7257 105.258C87.9572 105.258 87.5513 105.8 87.5026 106.885C87.4972 106.944 87.4972 107.116 87.4972 107.406H85.392V106.842C85.392 105.816 85.6843 105.016 86.2742 104.441C86.864 103.867 87.6704 103.582 88.6932 103.582C89.7323 103.582 90.544 103.867 91.1285 104.431C91.713 104.995 92.0052 105.789 92.0052 106.815C92.0052 107.503 91.8537 108.083 91.556 108.555C91.2584 109.028 90.8579 109.334 90.3655 109.474C91.4586 109.85 92.0052 110.817 92.0052 112.374C92.0052 113.534 91.7509 114.431 91.2367 115.076C90.728 115.699 89.9217 116.021 88.8231 116.021Z" fill="white"/>
<path d="M93.5482 115.854V103.711H99.2089V105.354H95.7778V108.797H96.1404C96.8006 108.797 97.3635 108.856 97.8289 108.969C98.2943 109.082 98.6947 109.275 99.0303 109.544C99.3658 109.812 99.6147 110.172 99.7717 110.629C99.9286 111.085 100.01 111.644 100.01 112.304C100.01 112.847 99.9503 113.319 99.8366 113.728C99.723 114.136 99.5552 114.474 99.3442 114.743C99.1331 115.011 98.8571 115.231 98.5324 115.393C98.2077 115.559 97.8451 115.677 97.45 115.747C97.055 115.817 96.6058 115.854 96.0971 115.854H93.5482ZM95.7724 114.345H96.0917C96.4272 114.345 96.7032 114.318 96.9251 114.259C97.1416 114.2 97.331 114.098 97.4879 113.942C97.6449 113.792 97.7585 113.577 97.8289 113.309C97.8992 113.04 97.9317 112.691 97.9263 112.272C97.9209 111.59 97.7856 111.096 97.515 110.795C97.2444 110.494 96.7628 110.339 96.07 110.339H95.7832V114.345H95.7724Z" fill="white"/>
<path d="M100.789 115.854L103.278 103.711H105.605L108.084 115.854H106.011L105.519 113.035H103.403L102.9 115.854H100.789ZM103.63 111.59H105.27L104.453 106.6L103.63 111.59Z" fill="white"/>
<path d="M112.564 115.999C112.039 115.999 111.574 115.935 111.168 115.801C110.762 115.666 110.432 115.484 110.167 115.253C109.902 115.022 109.691 114.727 109.523 114.383C109.355 114.039 109.242 113.663 109.177 113.266C109.112 112.868 109.079 112.417 109.079 111.923V107.691C109.079 107.164 109.112 106.697 109.182 106.289C109.252 105.881 109.366 105.505 109.528 105.156C109.691 104.807 109.902 104.522 110.167 104.296C110.432 104.071 110.762 103.894 111.163 103.77C111.563 103.641 112.029 103.582 112.559 103.582C113.17 103.582 113.69 103.663 114.123 103.824C114.556 103.985 114.897 104.221 115.151 104.533C115.4 104.844 115.584 105.209 115.698 105.628C115.811 106.047 115.866 106.531 115.866 107.089V108.131H113.717V107.1C113.717 106.493 113.685 106.085 113.62 105.875C113.49 105.467 113.181 105.247 112.683 105.215C112.646 105.215 112.602 105.215 112.564 105.215C112.375 105.215 112.213 105.236 112.072 105.279C111.931 105.322 111.818 105.392 111.731 105.489C111.644 105.585 111.569 105.687 111.514 105.795C111.46 105.902 111.422 106.042 111.395 106.214C111.368 106.386 111.352 106.547 111.341 106.692C111.336 106.837 111.33 107.025 111.33 107.25V112.396C111.33 113.11 111.422 113.615 111.601 113.921C111.78 114.222 112.099 114.377 112.564 114.377C112.721 114.377 112.862 114.361 112.981 114.324C113.1 114.286 113.203 114.243 113.284 114.184C113.365 114.125 113.436 114.05 113.49 113.942C113.544 113.835 113.587 113.738 113.62 113.647C113.647 113.556 113.674 113.432 113.685 113.271C113.695 113.11 113.706 112.976 113.712 112.863C113.717 112.75 113.717 112.594 113.717 112.401V111.316H115.866V112.31C115.866 112.766 115.833 113.174 115.768 113.534C115.703 113.894 115.595 114.232 115.438 114.555C115.281 114.872 115.081 115.135 114.837 115.344C114.588 115.554 114.274 115.72 113.89 115.838C113.506 115.956 113.073 115.999 112.564 115.999Z" fill="white"/>
<path d="M120.699 115.999C120.174 115.999 119.709 115.935 119.303 115.801C118.897 115.666 118.567 115.484 118.301 115.253C118.036 115.022 117.825 114.727 117.657 114.383C117.49 114.039 117.376 113.663 117.311 113.266C117.246 112.868 117.214 112.417 117.214 111.923V107.691C117.214 107.164 117.246 106.697 117.317 106.289C117.387 105.881 117.501 105.505 117.663 105.156C117.825 104.807 118.036 104.522 118.301 104.296C118.567 104.071 118.897 103.894 119.297 103.77C119.698 103.641 120.163 103.582 120.693 103.582C121.305 103.582 121.825 103.663 122.257 103.824C122.69 103.985 123.031 104.221 123.286 104.533C123.535 104.844 123.719 105.209 123.832 105.628C123.946 106.047 124 106.531 124 107.089V108.131H121.852V107.1C121.852 106.493 121.819 106.085 121.754 105.875C121.624 105.467 121.316 105.247 120.818 105.215C120.78 105.215 120.737 105.215 120.699 105.215C120.509 105.215 120.347 105.236 120.206 105.279C120.066 105.322 119.952 105.392 119.865 105.489C119.779 105.585 119.703 105.687 119.649 105.795C119.595 105.902 119.557 106.042 119.53 106.214C119.503 106.386 119.487 106.547 119.476 106.692C119.47 106.837 119.465 107.025 119.465 107.25V112.396C119.465 113.11 119.557 113.615 119.736 113.921C119.914 114.222 120.233 114.377 120.699 114.377C120.856 114.377 120.997 114.361 121.116 114.324C121.235 114.286 121.337 114.243 121.419 114.184C121.5 114.125 121.57 114.05 121.624 113.942C121.678 113.835 121.722 113.738 121.754 113.647C121.781 113.556 121.808 113.432 121.819 113.271C121.83 113.11 121.841 112.976 121.846 112.863C121.852 112.75 121.852 112.594 121.852 112.401V111.316H124V112.31C124 112.766 123.968 113.174 123.903 113.534C123.838 113.894 123.729 114.232 123.573 114.555C123.416 114.872 123.215 115.135 122.972 115.344C122.723 115.554 122.409 115.72 122.025 115.838C121.641 115.956 121.208 115.999 120.699 115.999Z" fill="white"/>
</svg>
