<svg xmlns="http://www.w3.org/2000/svg" xmlns:xlink="http://www.w3.org/1999/xlink">

  <symbol id="arrow" viewBox="0 0 12 8" xmlns="http://www.w3.org/2000/svg">
    <path d="M6.00004 4.97618L10.1249 0.85141L11.3034 2.02992L6.00004 7.33326L0.696777 2.02992L1.87529 0.85141L6.00004 4.97618Z"/>
  </symbol>

  <symbol id="exit" viewBox="0 0 17 17" fill="none" xmlns="http://www.w3.org/2000/svg">
    <path d="M1 1L16 16M16 1L1 16" stroke-linecap="round"/>
  </symbol>

  <symbol id="data" viewBox="0 0 19 19" xmlns="http://www.w3.org/2000/svg">
    <path d="M7.12492 0.791748V2.37508H11.8749V0.791748H13.4583V2.37508H16.6249C17.0622 2.37508 17.4166 2.72953 17.4166 3.16675V15.8334C17.4166 16.2707 17.0622 16.6251 16.6249 16.6251H2.37492C1.9377 16.6251 1.58325 16.2707 1.58325 15.8334V3.16675C1.58325 2.72953 1.9377 2.37508 2.37492 2.37508H5.54158V0.791748H7.12492ZM15.8333 8.70841H3.16659V15.0417H15.8333V8.70841ZM5.54158 3.95841H3.16659V7.12508H15.8333V3.95841H13.4583V5.54175H11.8749V3.95841H7.12492V5.54175H5.54158V3.95841Z"/>
  </symbol>

  <symbol id="copy" viewBox="0 0 30 35" fill="none" xmlns="http://www.w3.org/2000/svg">
    <rect x="10" y="15" width="19" height="19" fill="#5B5B5B" stroke-width="2" stroke-linejoin="round"/>
    <rect x="1" y="1" width="19" height="19" fill="#5B5B5B" stroke-width="2" stroke-linejoin="round"/>
  </symbol>

  <symbol id="download" viewBox="0 0 30 35" fill="none" xmlns="http://www.w3.org/2000/svg">
    <path d="M1 27.2V34H29V27.2M15 27.4V1M15 27.4L1 13M15 27.4L29 13" stroke-width="2" stroke-linecap="round"/>
  </symbol>

  <symbol id="decor-5" viewBox="0 0 702 295" xmlns="http://www.w3.org/2000/svg">
    <g clip-path="url(#clip0_25_392)">
    <path fill-rule="evenodd" clip-rule="evenodd" d="M137.784 131.92C140.659 130.488 145.223 122.513 148.694 124.903C153.019 127.881 143.816 133.612 141.096 137.305C145.112 137.324 150.699 136.073 154.043 137.769C156.017 143.467 150.943 142.615 146.571 142.852C144.118 142.985 135.902 142.981 134.144 143.671L121.088 152.558C119.466 153.644 118.407 154.874 115.472 153.93C112.35 147.721 121.933 146.897 125.751 142.093C121.802 141.14 110.381 140.986 110.124 137.014C109.761 131.402 117.66 135.194 125.431 136.109C123.594 133.667 116.402 127.68 121.496 125.733C124.892 124.436 129.01 132.186 131.51 133.867C132.246 130.375 132.146 122.494 135.187 121.609C140.864 119.954 138.065 128.849 137.786 131.92H137.784ZM78.5806 153.208C82.9651 150.333 85.9509 145.53 88.6648 145.838C90.4571 146.042 91.5289 147.524 91.2008 149.144C90.8495 150.881 80.7106 159.186 78.7487 160.876C74.9043 164.191 74.3697 174.758 71.809 180.414C70.3488 183.639 65.1441 182.812 66.827 176.985C67.7253 173.875 69.3016 169.805 69.7377 166.741C64.4318 169.305 56.9574 174.944 54.3557 172.68C50.4443 169.278 58.4996 166.178 61.8287 164.463L64.4523 163.022C64.5452 162.961 64.6574 162.881 64.7476 162.817L65.6458 162.101C62.4466 161.601 58.7074 161.231 56.1727 159.923C54.5458 152.45 63.1535 155.757 68.7014 156.882C67.363 151.658 62.3359 147.851 64.2294 144.893C65.0265 143.648 67.5215 142.368 69.4451 145.741C70.3803 147.38 71.5998 150.087 72.9164 151.248C73.3648 147.513 72.9506 136.857 78.1868 139.307C81.5172 140.867 78.6079 149.69 78.5819 153.208H78.5806ZM171.129 326.536C174.668 326.504 186.565 323.727 187.716 326.675C189.855 332.151 180.404 330.929 173.388 332.247C176.269 335.015 184.688 336.96 179.462 341.506C175.969 341.853 171.244 337.543 168.174 336.096C168.383 338.89 170.568 347.499 168.216 349.066C163.449 352.241 162.987 342.532 162.905 339.754L160.843 342.832C160.265 343.954 159.63 345.144 158.963 346.386C157.946 348.281 156.267 351.606 153.403 349.293C150.272 346.762 157.127 339.099 158.068 335.667C155.004 336.696 149.011 339.75 145.453 339.082C142.325 333.525 146.86 333.762 154.847 330.7C163.964 327.203 160.818 330.337 167.254 322.044C171.138 317.035 175.425 309.567 178.585 313.324C180.503 315.605 177.402 318.387 176.025 320.114C174.441 322.107 172.517 324.487 171.127 326.538L171.129 326.536ZM199.144 155.127C201.876 153.712 206.406 147.402 209.584 148.298C212.574 149.14 211.647 151.955 209.805 153.7C209.042 154.425 205.488 157.586 205.038 157.857C208.282 158.504 218.707 155.012 217.96 160.575C217.39 164.819 207.827 162.721 204.442 164.098C207.31 167.326 217.564 171.411 211.928 175.542C209.498 176.413 200.082 168.048 196.653 165.611C191.649 162.053 170.326 165.789 174.534 158.391C175.413 156.845 176.47 157.005 178.585 157.187C182.068 157.485 185.677 157.782 189.182 158.232C188.784 156.912 184.44 151.773 183.297 150.526C181.461 148.529 177.551 144.442 182.727 142.763C184.845 142.609 188.64 147.958 190.464 150.183C191.843 151.867 191.182 151.856 193.041 152.977C193.062 149.995 191.523 140.292 197.056 142.901C200.452 144.502 197.814 152.291 199.144 155.131V155.127ZM233.536 214.083L238.082 209.278C239.652 207.522 242.346 206.641 243.439 209.28C244.455 211.732 241.947 213.564 240.676 215.081C239.348 216.667 237.809 218.33 236.628 219.971C239.689 220.323 242.609 220.157 245.733 220.3C249.335 220.464 250.858 223.005 248.557 225.34C246.765 226.74 242.342 225.929 239.499 225.879C241.388 230.175 250.631 230.5 247.229 236.973C242.212 237.957 238.894 232.136 234.733 230.123C235.353 237.494 239.503 245.14 231.751 243.31C228.992 237.006 229.343 226.218 226.487 222.874L216.399 211.919C215.211 210.645 213.695 209.542 214.814 207.03C217.554 203.721 220.321 207.709 221.921 209.493C223.53 211.287 226.219 213.833 227.619 215.611C228.384 211.747 226.556 199.94 230.735 199.176C235.66 198.275 233.964 208.208 233.535 214.083H233.536ZM48.9896 243.032C44.5832 244.966 43.8381 236.667 39.5562 231.069C37.5669 236.812 35.9414 246.122 32.4989 245.972C27.0535 245.737 31.926 237.277 33.5912 230.704C31.2096 231.611 30.5439 232.616 28.3742 234.13C26.7814 235.241 23.0368 235.9 22.8262 232.662C22.6444 229.88 25.5729 228.963 27.1355 227.965C28.4726 227.111 31.1974 225.173 32.1599 224.312C27.8834 222.775 21.3811 221.917 20.6497 219.293C18.8314 212.779 31.077 217.862 31.2192 217.897C28.3317 212.623 22.9452 209.595 25.5318 206.323C28.8541 202.12 34.1969 211.75 36.2804 215.192L37.1746 211.83C37.4945 206.757 37.15 201.428 41.2474 202.236C44.3836 202.855 43.413 205.903 43.1368 209.074C41.8394 224.045 40.6554 220.475 46.3168 231.118C47.4871 233.316 48.2322 234.985 49.3314 237.077C50.5783 239.45 51.9892 241.755 48.9923 243.028L48.9896 243.032ZM220.444 282.304C224.417 278.917 232.06 267.27 234.548 273.241C236.057 276.865 228.803 280.451 225.797 285.313C228.866 285.063 237.658 282.334 236.351 287.795C235.505 291.329 227.656 290.168 224.469 291.632C226.532 294.932 232.927 297.716 232.538 300.912C231.704 307.782 223.455 298.598 222.408 297.992C222.562 301.267 226.65 311.252 221.363 311.031C218.22 310.9 218.411 307.979 217.902 305.366C217.398 302.783 216.785 300.264 216.44 297.829C215.169 298.956 213.67 302.04 212.784 303.572C211.47 305.841 210.665 308.458 208.136 308.241C202.215 307.737 208.435 299.538 209.992 296.941C213.513 291.072 214.802 290.872 214.575 283.352C214.458 279.457 213.598 270.972 214.929 267.904C219.265 266.529 219.891 268.013 219.974 272.474C220.029 275.425 220.003 279.367 220.444 282.306V282.304ZM56.494 290.066C57.3348 292.399 58.1278 294.856 58.9877 297.242C59.8258 299.571 61.4623 302.92 60.806 305.624C56.7606 308.503 55.9102 305.925 54.7358 302.387C54.0044 300.189 52.4745 295.144 51.3439 293.777C49.9904 296.451 49.1154 305.58 44.3754 301.906C41.9118 299.997 45.9723 292.54 46.5 289.38C41.1311 290.946 31.5993 296.578 33.5338 288.417C36.0959 286.837 39.4783 286.385 41.7423 284.671C38.3189 283.548 32.6821 282.744 30.3839 280.773C29.42 272.809 39.2281 278.216 44.6981 279.433C42.8196 275.227 37.6121 270.368 38.9136 267.585C39.5794 266.161 41.3554 265.447 43.0356 266.496C44.5012 267.411 50.9283 278.988 53.1171 281.571C55.1296 283.946 69.385 288.699 71.1035 290.85C73.3484 293.655 70.6414 296.692 65.7675 294.344C63.0414 293.03 59.1272 290.883 56.4954 290.064L56.494 290.066ZM106.088 326.827C109.979 330.255 115.363 331.866 118.744 335.729C117.91 344.1 111.003 335.872 103.974 332.612C104.483 335.109 109.353 344.063 103.441 343.462C100.995 343.213 100.591 340.631 99.9384 338.632C99.2808 336.616 98.5152 334.381 97.6429 332.54L95.7603 335.014C93.7957 338.338 92.1907 342.469 89.5152 342.237C83.5735 341.724 89.8487 333.971 91.06 331.632C84.5742 333.562 79.8302 337.942 78.1363 333.684C76.2304 328.888 85.6816 328.783 89.6081 325.661C87.7173 324.23 83.0813 323.337 80.496 322.283C76.3083 320.577 77.6782 315.814 82.2049 316.795C84.875 317.374 88.9778 319.148 91.8352 320.125C100.519 323.092 97.9451 322.535 110.226 319.686C112.615 319.133 117.523 317.228 119.233 319.239C122.026 322.523 117.4 323.898 114.927 324.468C113.427 324.812 107.376 326.008 106.087 326.827H106.088ZM150.66 286.739L159.921 312.705C161.224 316.588 163.734 320.311 161.283 323.826C156.05 324.65 156.175 320.682 154.878 316.398C153.675 312.428 148.641 296.672 146.568 289.06L146.56 289.031L145.123 284.127C144.023 281.901 143.853 278.368 142.513 277.081L142.418 278.131L141.523 289.29L141.515 289.387C140.759 299.678 140.084 309.866 138.507 320.59C133.303 356.02 123.478 396.456 103.19 426.224C101.531 428.658 99.1879 431.243 97.9205 433.409C93.3186 439.689 82.0217 434.271 88.2929 425.848C89.321 423.751 91.9063 420.982 93.5155 418.512C117.187 382.172 126.668 330.524 129.548 285.542L130.294 270.267C130.411 266.781 130.493 263.354 130.541 260C128.515 260.424 127.034 261.093 124.472 261.054C120.186 270.877 111.428 297.637 106.855 310.557C106.085 312.732 104.855 316.994 103.881 318.8C102.286 321.764 97.971 320.87 98.1023 317.526C98.1952 315.206 108.903 289.846 110.578 285.552L120.104 261.775C121.518 258.223 122.923 256.258 118.619 254.73C117.01 257.423 112.974 262.295 110.673 265.014C108.036 268.13 105.165 271.794 102.611 275.173C97.3258 282.156 91.9186 288.451 86.5662 295.593C81.468 302.394 75.8968 309.34 70.4965 315.98C67.367 319.829 67.5434 317.625 71.3729 327.727C72.3928 330.417 76.2167 337.9 74.9644 340.427C73.6396 342.054 71.8678 342.411 70.3967 340.691C69.5039 339.647 65.1304 327.516 64.7011 326.046C60.4123 331.241 61.6783 350.038 53.8294 344.271C53.2347 339.953 58.1428 328.398 59.1627 322.909C55.1706 324.597 47.3135 329.439 42.6952 331.988C38.185 334.478 34.4867 329.624 40.3902 326.578L53.5573 319.152C50.1025 318.558 36.7904 318.924 35.0924 317.174C34.7916 316.866 32.0914 312.072 39.012 312.437L58.2071 313.557C62.7666 313.864 62.1062 312.713 64.5234 309.997L114.102 253.595C113.342 252.38 112.475 252.496 112.969 250.821C113.439 249.226 114.257 249.824 114.496 247.287L87.6079 264.065C86.2681 265.027 84.7082 266.017 83.1893 266.948C81.8864 267.747 79.7481 269.151 78.3372 269.833L77.8272 270.231C76.0185 271.53 73.7217 273.286 71.6832 273.731C70.9354 275.139 65.3027 278.072 63.6334 279.203C62.1377 280.218 60.7801 281.318 59.3937 281.789C56.9479 282.619 56.2288 281.188 55.0981 279.821C55.578 276.109 56.6253 276.479 60.6912 274.027C62.3933 273.001 66.3144 270.353 67.9262 270.241C69.7391 268.243 70.275 268.488 72.9916 266.898C74.7648 265.858 76.4847 264.355 78.4753 264.128L86.7343 258.966C93.268 255.211 106.952 248 112.3 243.984C110.801 242.986 110.258 242.46 109.238 241.136C104.25 241.576 59.7096 252.916 50.905 255.011C47.3053 255.867 33.3138 258.783 31.2794 259.989C30.0175 263.258 25.9542 279.367 24.2836 280.491C22.5965 281.622 20.6606 280.797 20.0084 279.272C19.1827 277.343 23.6369 265.387 24.2563 262.961C20.3284 264.535 9.24339 275.942 5.76669 273.335C4.0427 270.985 4.57452 269.91 6.8153 268.21C8.90159 266.628 10.1526 265.614 11.8123 264.454C14.2117 262.777 20.5417 258.953 22.0401 257.097C16.8148 256.307 3.90324 254.896 0.221464 253.005C-1.50527 245.385 7.04909 248.921 19.467 250.828C18.2735 248.193 9.99398 242.045 7.89401 240.048C5.09406 237.388 7.16945 233.66 10.6667 235.05C13.8604 236.323 24.4025 248.006 28.5327 250.661C30.7284 252.07 41.8968 248.991 45.2613 248.384C52.4431 247.09 105.799 236.449 111.216 236.172C110.745 234.757 111.911 232.949 111.427 232.282C100.446 230.707 86.3994 229.777 75.2529 228.75C69.601 228.228 63.878 227.636 58.1893 227.173C54.1343 226.842 42.9864 227.514 45.4241 221.839C46.9553 218.278 57.369 221.213 61.2968 221.761C78.1977 224.123 98.496 227.294 114.861 228.882L115.703 225.957C110.65 223.167 39.3976 191.804 39.3744 191.799C37.6955 191.392 34.7041 194.156 33.3096 195.116C31.334 196.474 22.7551 203.091 21.4303 203.419C18.1751 204.228 16.391 200.739 18.6673 198.504C22.2042 195.031 27.5047 193.652 30.7954 189.58C26.7226 189.326 22.8112 189.24 18.6823 189.079C15.5447 188.955 8.31509 189.537 10.344 184.832C11.5498 182.035 17.441 183.28 20.7153 183.407C23.1161 183.5 30.5876 184.534 32.7286 183.216C30.5985 181.804 26.981 177.582 24.9549 175.41C23.5084 173.858 17.9728 168.874 18.3597 166.562C18.7452 164.255 21.0324 163.544 23.0476 164.967C26.255 167.234 31.1235 174.227 34.875 177.28C34.6371 173.813 33.46 169.493 32.8133 165.999C32.0682 161.973 29.997 156.307 36.5908 158.086C38.7974 162.954 40.6445 181.364 42.3603 183.476C43.8231 185.276 106.149 215.956 114.246 220.459L114.861 219.364C114.912 219.278 114.994 219.136 115.043 219.053L115.441 218.412C118.313 219.727 120.097 223.209 121.829 217.5C120.171 216.292 120.267 215.866 118.886 214.337L104.752 198.164C103.546 196.671 102.909 196.204 101.898 194.952C95.5567 187.098 88.3448 179.403 81.818 171.737C79.7754 169.335 76.9017 167.608 79.5526 163.707C83.9289 163.028 84.6685 166.033 86.588 168.238L99.5146 184.467C102.033 187.754 105.112 190.732 107.471 194.153C109.446 197.017 110.542 197.805 112.501 200.653C113.565 202.203 121.667 212.66 123.439 213.72C124.072 212.466 124.64 212.112 125.745 211.912L126.829 211.788C124.266 205.704 121.719 199.417 119.254 193.27C116.595 186.65 114.131 180.926 111.61 174.399L100.072 146.156C98.9417 143.392 97.684 139.571 96.1459 137.005C92.3575 136.113 75.8517 134.769 74.397 132.727C73.4004 131.327 74.1837 129.414 75.2501 128.719C76.605 127.838 78.7583 128.51 80.4877 128.784C84.2967 129.385 88.1726 129.996 91.9993 130.424C89.038 126.165 84.3308 122.334 80.5739 118.444C78.8116 116.618 78.1909 115.627 79.5102 112.74C83.7539 111.617 85.9523 115.629 88.9656 118.826C91.4155 121.427 94.6106 125.184 97.3764 127.185C97.5541 123.203 97.4693 119.389 97.5294 115.427C97.5746 112.506 96.4727 105.867 99.2849 104.7C104.241 102.643 103.319 109.766 103.293 112.435C103.272 114.634 102.938 122.482 103.339 124.066C105.999 121.95 114.045 103.051 117.416 110.675C118.599 113.348 109.195 126.009 107.023 129.319C105.339 131.886 103.88 132.834 104.907 135.671C108.109 144.515 111.261 153.232 114.102 161.99C119.863 179.747 127.194 197.176 132.335 214.892L135.552 211.183C136.816 211.517 135.162 211.806 136.182 211.365C136.279 205.729 135.732 199.702 135.559 193.973C135.385 188.218 135.143 182.408 134.898 176.514C134.652 170.587 134.421 165.061 134.224 159.078C134.105 155.475 131.988 142.119 138.354 145.437C141.063 146.849 139.939 158.672 139.953 162.224L139.86 198.136C139.894 202.918 139.482 208.148 139.757 212.939C139.861 214.758 140.688 216.581 142.692 214.079C144.915 211.302 145.537 206.653 146.831 202.436C149.31 194.355 167.11 135.964 166.77 134.431C166.232 132.009 153.47 121.143 152.811 118.529C151.948 115.107 155.527 113.517 158.191 116.301C161.41 119.668 164.573 123.328 167.738 126.607C168.243 120.734 163.276 103.925 169.71 105.449C173.504 106.348 172.707 122.844 173.864 127.26L175.789 125.439C176.286 124.825 176.846 124.09 177.487 123.29L184.608 114.648C185.94 113.033 186.943 110.959 189.105 111.164C191.276 111.366 192.29 113.373 191.268 115.397C189.134 119.622 183.055 124.54 180.571 128.914C184.334 128.233 191.104 125.622 194.878 124.272C198.499 122.977 201.46 125.151 199.454 128.196C198.593 129.503 194.437 130.414 192.505 131.076C187.613 132.758 183.009 134.312 178.101 135.879C174.244 137.11 175.026 137.558 173.529 141.874C169.686 152.958 147.252 212.779 147.586 216.21C151.36 218.114 153.021 216.233 155.242 213.376L187.21 171.82C188.704 169.833 190.819 165.573 193.93 166.738C195.235 167.227 196.065 168.69 195.747 170.197C195.472 171.493 194.038 172.917 193.195 173.908L159.976 213.753C158.49 215.529 155.116 218.558 155.061 221.328C158.986 224.299 161.965 219.833 167.923 216.269C169.266 215.465 169.545 215.132 170.853 214.164L180.511 207.855C184.794 205.338 188.592 202.209 192.845 199.66C197.148 197.08 201.114 193.815 205.441 191.265L217.766 183.057C225.622 178.218 224.84 179.347 224.308 170.26C224.07 166.192 221.663 153.181 227.674 155.494C230.285 156.498 229.529 161.079 229.671 163.466C229.857 166.586 230.058 169.642 230.05 172.631C231.581 171.582 232.649 169.752 233.729 168.126C235.589 165.326 242.281 152.621 245.557 157.985C247.405 161.012 235.836 174.055 234.335 177.588C237.702 176.955 254.815 172.735 256.688 174.691C258.169 176.239 257.099 178.506 255.648 179.21C253.516 180.242 240.972 182.235 238.49 182.615C241.504 185.004 253.18 187.499 255.068 189.763C257.339 192.486 254.86 195.497 249.896 193.534L232.835 186.855C228.066 184.939 229.148 185.828 225.4 187.955L161.315 226.18C156.178 228.719 157.824 229.773 161.559 233.368C169.612 232.859 208.629 224.573 221.071 222.739C225.096 222.146 227.226 225.218 224.743 227.769C221.907 230.682 161.293 235.452 155.06 238.353C156.303 241.996 158.889 241.324 163.502 242.029C175.791 243.906 233.875 253.287 240.255 253.539C245.574 248.53 248.953 241.713 254.416 236.93C261.332 237.753 256.851 242.603 254.766 245.016C252.83 247.259 249.654 250.82 248.164 253.321C253.282 252.772 264.966 247.76 269.135 250.34L269.074 253.992C265.7 255.555 262.381 255.98 258.86 256.782C255.917 257.453 250.586 258.248 248.266 259.534C250.666 261.938 265.929 268.864 266.354 272.011C266.704 274.599 265.263 274.702 264.693 274.932C261.357 276.276 251.34 267.285 247.46 266.221C249.42 269.349 250.938 273.512 252.645 276.703C253.269 277.869 255.083 281.08 255.069 282.374C255.041 285.109 251.985 286.183 250.106 284.297C249.579 283.768 239.948 264.125 239.318 262.357C225.925 258.679 162.735 247.771 154.647 244.403C155.588 247.185 158.141 248.517 155.288 250.679C159.41 252.255 200.331 277.203 208.521 282.064C212.334 284.327 211.98 288.093 208.737 288.513C206.207 288.84 181.799 271.908 179.052 270.197C173.611 266.803 154.741 253.599 149.774 251.303C149.242 255.918 151.733 257.952 154.399 260.923L161.435 269.207C163.421 271.726 166.104 274.905 168.276 277.261C176.455 286.123 187.15 299.708 196.129 309.885C197.417 311.344 202.319 317.806 203.373 318.163C206.92 318.036 213.069 316.666 216.581 316.022C220.131 315.373 227.797 312.63 226.141 319.278C222.509 322.037 213.718 321.344 209.678 323.235C214.095 326.987 230.227 331.124 226.37 336.111C224.335 338.741 218.584 334.634 216.007 333.255C213.677 332.01 207.499 328.365 205.322 327.899C206.486 331.637 207.73 335.355 208.941 339.215C210.841 345.267 212.861 346.962 209.793 350.628C204.942 350.419 205.026 346.038 203.777 342.198C202.788 339.156 201.304 335.068 200.506 332.467C199.607 335.256 197.052 348.893 195.141 350.267C193.232 351.639 191.56 350.422 190.881 348.7C190.521 346.186 193.818 335.626 194.661 332.191C196.965 322.812 197.754 324.612 192.675 318.519C186.92 311.615 181.838 304.231 176.254 297.101L145.872 257.353C144.858 255.858 145.008 254.981 144.047 254.865C141.012 255.34 143.231 264.202 144.261 268.349C146.094 273.623 147.903 278.825 149.776 284.214L150.674 286.732L150.66 286.739Z"/>
    <path fill-rule="evenodd" clip-rule="evenodd" d="M563.769 81.2402L563.051 81.1621L556.392 80.1937C554.438 79.8362 551.891 79.4568 549.917 79.2527C542.491 78.4843 531.961 76.5517 523.622 75.4997C522.427 75.349 517.506 74.3533 516.868 74.619C515.27 76.1339 512.969 79.2938 511.598 81.0334C510.21 82.7921 507.765 87.2122 505.819 83.4413C506.382 80.6677 510.756 77.3844 511.862 74.8464C508.273 74.9135 499.075 79.6061 498.833 75.7038C498.704 73.6451 503.059 73.1958 504.821 72.7795C506.414 72.4042 510.778 71.5645 511.981 70.8879C509.911 69.6264 507.812 68.406 505.673 67.1075C502.314 65.0693 500.681 65.1104 500.61 62.145C502.953 60.252 504.705 62.3244 506.855 63.5996C508.559 64.6091 510.92 65.9035 512.355 66.7856C511.634 65.12 507.248 57.7276 507.575 56.3031C507.903 54.8814 509.178 54.7622 510.198 55.2841C511.393 56.3059 514.175 62.5723 515.187 64.516C517.949 69.8263 516.847 69.3113 521.699 70.0633C527.199 70.9153 532.581 72.2658 538.094 73.2931L564.379 78.5103C564.105 79.4034 563.902 80.317 563.769 81.2402Z"/>
    <path fill-rule="evenodd" clip-rule="evenodd" d="M399.886 71.9653C410.071 76.2484 456.232 96.108 461.485 97.6516C466.981 94.5821 471.233 89.5936 476.801 86.7432C482.409 88.8854 477.648 91.9988 475.4 93.5767C473.312 95.0437 469.912 97.3544 468.143 99.1323C472.536 99.7487 483.354 98.0146 486.296 101.047L485.481 104.088C482.334 104.685 479.47 104.343 476.36 104.274C473.758 104.217 469.136 103.759 466.928 104.347C468.43 106.862 479.739 115.859 479.436 118.578C479.187 120.816 477.961 120.598 477.436 120.671C474.366 121.094 467.875 111.473 464.854 109.768C465.837 112.795 466.234 116.593 466.993 119.621C467.271 120.726 468.116 123.79 467.833 124.871C467.235 127.151 464.457 127.407 463.281 125.435C462.95 124.883 459.012 106.438 458.856 104.828C450.136 99.9021 413.365 83.4353 398.016 75.5334C398.721 74.4075 399.347 73.2159 399.885 71.9681L399.886 71.9653Z"/>
    <path fill-rule="evenodd" clip-rule="evenodd" d="M240.392 120.308C242.768 119.768 245.666 118.067 249.437 116.875C250.928 116.403 251.277 116.143 252.773 115.503L263.621 111.594C268.368 110.134 272.784 107.964 277.51 106.466C282.29 104.949 286.901 102.688 291.697 101.204L305.579 96.0639C314.337 93.1683 313.316 94.086 314.89 85.1212C315.594 81.1079 316.245 67.8915 321.562 71.5309C323.871 73.1115 322.081 77.3919 321.67 79.7492C321.134 82.8283 320.625 85.8485 319.931 88.7551C321.661 88.088 323.122 86.5539 324.546 85.2212C327 82.9256 336.435 72.1075 338.389 78.0836C339.491 81.4558 325.232 91.4767 322.959 94.5695C326.381 94.7311 344.004 94.5764 345.376 96.9131C346.46 98.7608 344.899 100.72 343.324 101.069C341.012 101.582 328.348 100.625 325.845 100.42C328.229 103.441 339.016 108.564 340.331 111.205C341.915 114.378 338.81 116.737 334.433 113.68L319.367 103.24C315.167 100.274 316.015 101.389 311.879 102.593L241.407 124.774C241.182 123.251 240.843 121.757 240.393 120.305L240.392 120.308Z"/>
    <path fill-rule="evenodd" clip-rule="evenodd" d="M426.263 219.049C424.955 218.143 423.47 217.288 422.104 216.333C417.118 212.84 381.074 187.688 379.949 187.583C378.172 187.417 367.907 193.784 365.971 193.658C363.438 193.495 363.14 190.683 365.636 189.468C368.655 187.999 371.86 186.635 374.806 185.186C370.894 183.538 358.286 183.233 360.753 179.15C362.207 176.74 373.329 180.938 376.609 181.121L375.787 179.395C375.477 178.917 375.097 178.369 374.691 177.752L370.349 170.945C369.537 169.672 368.339 168.525 368.957 167.084C369.576 165.636 371.175 165.382 372.335 166.533C374.755 168.936 376.779 174.201 379.223 176.876C379.589 174.139 379.3 168.91 379.211 166.015C379.125 163.242 381.268 161.686 382.91 163.739C383.614 164.62 383.318 167.678 383.345 169.153C383.413 172.887 383.459 176.396 383.446 180.117C383.435 183.04 383.915 182.601 386.54 184.585C392.23 188.887 418.785 209.986 428.37 216.767C427.615 217.471 426.91 218.233 426.262 219.049H426.263Z"/>
    <path fill-rule="evenodd" clip-rule="evenodd" d="M281.918 267.508C285.383 264.562 288.932 261.603 292.421 258.713C296.881 255.016 300.694 251.693 305.115 248.124L324.09 232.199C325.947 230.639 328.589 228.72 330.192 226.893C329.944 223.734 326.905 210.6 328.124 208.969C328.96 207.85 330.632 207.984 331.432 208.64C332.447 209.473 332.46 211.31 332.676 212.719C333.152 215.822 333.637 218.977 334.251 222.052C336.811 218.703 338.611 214.105 340.686 210.232C341.662 208.413 342.275 207.687 344.833 207.998C346.748 211.011 344.191 213.707 342.465 216.834C341.059 219.376 338.944 222.782 338.082 225.422C341.201 224.577 344.128 223.569 347.205 222.637C349.473 221.95 354.33 219.455 355.927 221.348C358.741 224.684 353.008 225.729 350.94 226.368C349.234 226.894 343.088 228.574 341.963 229.276C344.254 230.817 360.846 232.39 355.788 236.886C354.013 238.464 341.908 234.298 338.814 233.431C336.415 232.758 335.321 231.861 333.383 233.358C327.34 238.026 321.382 242.624 315.317 246.991C304.683 254.646 294.528 263.152 283.946 270.718C283.354 269.583 282.673 268.51 281.917 267.506L281.918 267.508Z"/>
    <path fill-rule="evenodd" clip-rule="evenodd" d="M356.372 142.26C373.595 139.408 421.106 130.776 421.121 130.769C422.51 130.253 423.314 126.85 423.846 125.497C424.602 123.584 427.533 114.759 428.318 113.889C430.246 111.751 433.184 113.374 432.634 116.056C431.783 120.224 428.674 123.749 428.284 128.226C431.3 126.449 434.122 124.631 437.134 122.763C439.424 121.343 444.284 117.457 445.093 121.776C445.574 124.342 440.789 126.289 438.402 127.769C436.651 128.857 430.846 131.712 429.955 133.674C432.145 133.655 436.736 134.919 439.216 135.491C440.988 135.899 447.308 136.784 448.139 138.614C448.969 140.438 447.683 142.042 445.569 141.998C442.204 141.927 435.397 139.294 431.27 138.926C433.098 141.276 436.003 143.783 438.133 145.955C440.588 148.459 444.772 151.493 439.235 153.394C435.337 150.993 425.213 138.793 422.982 138.116C421.212 137.579 369.921 144.592 356.504 146.113C356.556 144.832 356.512 143.543 356.371 142.256L356.372 142.26Z"/>
    <path fill-rule="evenodd" clip-rule="evenodd" d="M274.925 238.244C279.476 227.649 292.557 192.506 295.494 184.971C296.84 181.518 302.412 168.332 302.58 165.972C300.615 163.072 289.705 150.556 289.735 148.541C289.767 146.507 291.545 145.381 293.17 145.712C295.222 146.13 302.499 156.603 304.137 158.495C305.082 154.364 302.029 138.741 306.147 137.359C309.057 137.276 309.637 138.326 309.756 141.139C309.868 143.759 309.987 145.366 309.995 147.392C310.005 150.323 309.54 157.714 310.211 160.005C313.834 156.151 322.341 146.317 325.988 144.361C333.225 147.275 325.454 152.309 316.822 161.452C319.664 161.97 329.421 158.647 332.255 158.054C336.032 157.262 337.91 161.094 334.779 163.183C331.918 165.09 316.329 167.124 311.799 169.015C309.392 170.022 305.564 180.974 304.147 184.091C301.565 189.764 285.452 226.972 278.993 240.664L278.818 240.539C277.559 239.665 276.258 238.903 274.926 238.244H274.925Z"/>
    <path fill-rule="evenodd" clip-rule="evenodd" d="M524.029 102.324C522.563 104.204 520.927 106.167 519.78 107.523C517.439 110.289 514.892 113.539 512.625 116.537C507.936 122.734 503.137 128.32 498.388 134.657C493.864 140.692 488.92 146.855 484.128 152.747C481.352 156.163 481.509 154.207 484.906 163.171C485.811 165.558 489.205 172.198 488.093 174.441C486.917 175.884 485.345 176.202 484.041 174.675C483.248 173.749 479.366 162.984 478.985 161.679C475.179 166.289 476.303 182.969 469.338 177.853C468.811 174.022 473.165 163.768 474.07 158.897C470.528 160.396 463.557 164.691 459.458 166.954C455.456 169.163 452.174 164.855 457.413 162.153L469.096 155.563C466.031 155.036 454.219 155.361 452.711 153.809C452.443 153.535 450.048 149.28 456.189 149.605L473.221 150.598C477.266 150.871 476.681 149.85 478.826 147.439L521.21 99.2213C522.066 100.329 523.009 101.368 524.026 102.322L524.029 102.324Z"/>
    </g>
    <defs>
    <clipPath id="clip0_25_392">
    <rect width="702" height="295" fill="white"/>
    </clipPath>
    </defs>
  </symbol>

  <symbol id="tg" viewBox="0 0 40 40" xmlns="http://www.w3.org/2000/svg">
    <g clip-path="url(#clip0_76_690)">
    <path d="M20 40C8.95429 40 0 31.0456 0 20C0 8.9543 8.95429 0 20 0C31.0456 0 40 8.9543 40 20C40 31.0456 31.0456 40 20 40ZM13.7803 22.3416L13.8056 22.3256C14.965 26.1534 15.5448 28.0674 15.5448 28.0674C15.7693 28.6884 16.078 28.7992 16.4526 28.7486C16.827 28.6978 17.0258 28.4952 17.2702 28.2594C17.2702 28.2594 18.0628 27.4944 19.648 25.9646L24.7498 29.7396C25.6794 30.2532 26.3506 29.9882 26.5814 28.8754L29.897 13.2328C30.263 11.7768 29.621 11.1929 28.492 11.6551L9.02597 19.1742C7.69795 19.708 7.70437 20.451 8.78419 20.7822L13.7803 22.3416Z"/>
    </g>
    <defs>
    <clipPath id="clip0_76_690">
    <rect width="40" height="40"/>
    </clipPath>
    </defs>
  </symbol>

  <symbol id="vk" viewBox="0 0 41 40" xmlns="http://www.w3.org/2000/svg">
    <path d="M19.5158 0.0156603C25.2793 -0.184833 30.4337 1.663 34.6531 5.85691C38.0211 9.20396 39.9407 13.2857 40.3702 18.0212C40.8699 23.5527 39.3886 28.5082 35.8246 32.7904C32.2472 37.0891 27.5371 39.272 22.0714 39.9872C16.263 40.1608 11.0936 38.5404 6.81439 34.4946C3.1681 31.0473 1.05094 26.807 0.597586 21.8156C0.0903672 16.2227 1.68833 11.2358 5.35108 6.9701C9.02431 2.69539 13.7314 0.427121 19.5158 0.0156603ZM15.5733 14.8327C15.699 14.8881 15.8007 14.9554 15.9114 14.9764C16.5533 15.0991 16.8959 15.4163 17.0381 16.0267C17.2864 17.095 17.2969 18.1843 17.2116 19.2631C17.1697 19.8032 17.2206 20.3927 16.8017 20.876C16.5772 21.1333 16.2152 21.253 15.9369 20.9732C15.6241 20.659 15.3249 20.3254 15.0661 19.9648C14.8042 19.5997 14.6262 19.1778 14.3673 18.8097C13.6267 17.7579 13.0641 16.6177 12.5928 15.4267C12.3295 14.7609 11.8686 14.4512 11.1295 14.4826C9.8996 14.5365 8.66671 14.535 7.43682 14.5619C6.98346 14.5724 6.75604 14.942 6.94157 15.346C7.28121 16.0881 7.61487 16.8317 7.95451 17.5723C8.16249 18.0272 8.36298 18.488 8.59639 18.9294C8.79239 19.3005 9.04077 19.6431 9.25024 20.0067C10.0747 21.4446 10.9081 22.8764 11.924 24.1916C12.7753 25.2943 13.6761 26.3447 14.8491 27.1317C15.4491 27.5342 16.0805 27.8693 16.7418 28.1506C18.2216 28.782 19.7821 28.782 21.3472 28.7192C21.8335 28.6997 22.1656 28.4035 22.221 27.9875C22.2599 27.6988 22.2599 27.4055 22.2823 27.1152C22.3257 26.5796 22.4634 26.0784 22.7881 25.637C22.9586 25.4051 23.1711 25.2943 23.4628 25.3317C23.8923 25.3871 24.1855 25.6639 24.4623 25.9527C25.0339 26.5512 25.571 27.1826 26.1575 27.7646C26.756 28.3601 27.4443 28.8015 28.345 28.7835C29.5031 28.7596 30.6612 28.7581 31.8193 28.7252C32.0841 28.7177 32.3594 28.6533 32.6093 28.5591C33.1614 28.3496 33.3574 27.8604 33.0357 27.3756C32.5868 26.7008 32.1125 26.0305 31.5709 25.4305C30.8258 24.6046 29.9969 23.855 29.2248 23.053C28.9809 22.7986 28.749 22.4859 28.8627 22.0969C28.9315 21.8635 29.0632 21.6391 29.2068 21.4416C29.934 20.4406 30.6851 19.4546 31.4093 18.4506C32.0571 17.5544 32.7379 16.6656 33.0491 15.5839C33.2646 14.8327 33.1165 14.6068 32.4058 14.5111C32.2666 14.4916 32.1215 14.4991 31.9808 14.5006C30.6148 14.5081 29.2487 14.517 27.8827 14.523C27.3096 14.526 27.0104 14.713 26.8189 15.2532C26.2548 16.8467 25.4379 18.307 24.4638 19.679C24.1406 20.1354 23.7471 20.5483 23.3402 20.9343C23.0424 21.2171 22.6893 21.1483 22.4948 20.7922C22.3616 20.5498 22.2584 20.2625 22.2449 19.9887C22.2075 19.2047 22.221 18.4177 22.221 17.6322C22.221 17.2282 22.2404 16.8242 22.2345 16.4202C22.2285 15.8502 22.2419 15.2771 22.1791 14.713C22.1447 14.4078 21.9113 14.2133 21.5791 14.0966C20.8834 13.8527 20.1652 13.8318 19.45 13.8213C18.6854 13.8093 17.9164 13.8512 17.1548 13.9215C16.5189 13.9799 15.9309 14.1864 15.5733 14.8298V14.8327Z"/>
  </symbol>

  <symbol id="od" viewBox="0 0 41 40" xmlns="http://www.w3.org/2000/svg">
    <path d="M40.9996 21.2563C40.9996 21.2708 40.9996 21.2852 40.9996 21.2996C40.9851 21.2996 40.9707 21.3141 40.9707 21.3141C40.9129 21.6318 40.8407 21.9639 40.783 22.2816C40.7541 22.426 40.783 22.5848 40.7541 22.7292C40.6674 23.1047 40.7252 23.509 40.5664 23.87C40.523 23.9856 40.5664 24.1444 40.5375 24.2744C40.4797 24.5343 40.3786 24.7942 40.3064 25.0542C40.2342 25.3285 40.1765 25.6173 40.0898 25.8773C39.931 26.3538 39.7144 26.8014 39.5989 27.278C39.5411 27.5379 39.3678 27.7256 39.3101 27.9856C39.2667 28.2166 39.1079 28.4188 38.9924 28.6354C38.7758 29.083 38.5591 29.5307 38.3281 29.9639C38.1981 30.2094 38.0249 30.4404 37.866 30.6715C37.6927 30.9458 37.5483 31.2202 37.3606 31.4801C37.0285 31.9278 36.6819 32.361 36.3353 32.8087C36.2487 32.9242 36.1909 33.0397 36.0898 33.1408C35.8877 33.343 35.6855 33.5451 35.4833 33.7329C34.9057 34.2816 34.357 34.8592 33.7505 35.3791C33.2884 35.7834 32.783 36.13 32.2776 36.4765C31.801 36.8087 31.3245 37.1264 30.8335 37.4152C30.4292 37.6462 30.0104 37.8628 29.5772 38.0361C28.783 38.3682 27.9888 38.6859 27.1801 38.9892C26.949 39.0758 26.6891 39.1191 26.4436 39.1913C26.3137 39.2347 26.1837 39.2924 26.0393 39.3357C25.7505 39.4079 25.4472 39.4513 25.1729 39.5523C24.8985 39.639 24.6097 39.5523 24.3353 39.6968C24.162 39.7834 23.931 39.769 23.7288 39.7834C23.4978 39.8123 23.2523 39.8412 23.0212 39.87C22.7902 39.8989 22.5447 39.9278 22.3137 39.9567C22.1981 39.9711 22.0826 39.9856 21.9671 40C21.2884 40 20.6097 40 19.931 40C19.8732 40 19.8155 40 19.7721 40C19.6855 40 19.6133 40 19.5267 40C19.5122 39.9856 19.4833 39.9567 19.4689 39.9567C19.079 39.9134 18.7036 39.8845 18.3137 39.8267C17.5628 39.6968 16.8263 39.5668 16.0898 39.4224C15.7144 39.3502 15.3389 39.2347 14.9779 39.1047C14.2703 38.8592 13.5772 38.5848 12.8841 38.3105C12.6819 38.2383 12.4942 38.1516 12.3064 38.0505C11.6566 37.6895 10.9924 37.343 10.357 36.9675C9.95265 36.7365 9.54832 36.491 9.18731 36.2166C8.55193 35.7256 7.93099 35.1913 7.33893 34.657C6.92016 34.2816 6.51583 33.8773 6.12594 33.4729C5.90933 33.2419 5.70716 32.982 5.51944 32.722C5.14399 32.231 4.76854 31.7256 4.39309 31.2202C4.26312 31.0469 4.11872 30.8881 4.01763 30.7004C3.81547 30.3394 3.62774 29.9639 3.42558 29.5884C3.22341 29.1986 3.0068 28.8231 2.83352 28.4332C2.34254 27.3646 1.90933 26.2671 1.63496 25.1119C1.46168 24.361 1.31727 23.6101 1.18731 22.8592C1.10067 22.3538 1.07179 21.8195 1.01402 21.3141C0.999584 21.2419 0.985144 21.1697 0.970703 21.1119C0.970703 20.3466 0.970703 19.5957 0.970703 18.8303C0.985144 18.8014 1.01402 18.7726 1.01402 18.7437C1.05735 18.296 1.08623 17.8339 1.14399 17.3863C1.24507 16.6931 1.36059 15.9856 1.51944 15.2924C1.85157 13.9061 2.3281 12.5632 2.96348 11.3069C3.35337 10.5415 3.77215 9.79061 4.2198 9.03971C4.46529 8.63538 4.76854 8.25993 5.07179 7.88448C5.54832 7.30686 6.01041 6.7148 6.51583 6.16607C7.23785 5.38628 8.04651 4.72202 8.88406 4.0722C9.82269 3.35018 10.8191 2.74368 11.8588 2.19495C12.2631 1.97834 12.6819 1.80505 13.1007 1.63177C13.3173 1.53069 13.505 1.38628 13.7794 1.32852C14.1404 1.25632 14.4869 1.08303 14.8335 0.967509C15.1945 0.851986 15.5555 0.750903 15.9166 0.6787C16.2776 0.606498 16.5953 0.433213 16.9707 0.418773C17.0862 0.418773 17.1873 0.303249 17.3173 0.288809C17.5339 0.259928 17.7649 0.259928 17.996 0.245487C18.4436 0.202166 18.8913 0.173285 19.3389 0.115523C19.4256 0.101083 19.5122 0.0433213 19.6133 0C19.6566 0 19.6999 0 19.7288 0C19.801 0.0288809 19.8877 0.0722022 19.9599 0.0722022C20.1765 0.0722022 20.3931 0.0288809 20.5953 0.0433213C21.4906 0.0866426 22.3859 0.129964 23.2667 0.202166C23.7577 0.245487 24.2342 0.31769 24.7108 0.404332C25.1729 0.490975 25.6205 0.577617 26.0682 0.707581C26.8046 0.924188 27.5411 1.18412 28.2776 1.41516C28.4653 1.47292 28.6675 1.53069 28.8552 1.60289C29.0429 1.68953 29.2162 1.81949 29.4184 1.90614C30.0393 2.20939 30.6602 2.49819 31.2523 2.87365C31.6999 3.16245 32.1765 3.40794 32.6097 3.72563C33.0285 4.01444 33.4039 4.34657 33.7794 4.69314C34.4292 5.29964 35.1079 5.8917 35.6999 6.55596C36.292 7.20578 36.8407 7.9278 37.3606 8.63538C38.0682 9.60289 38.6458 10.657 39.1368 11.7545C39.6133 12.8087 40.0176 13.9061 40.2631 15.0469C40.4653 15.9567 40.653 16.8664 40.7685 17.7906C40.8696 18.5415 40.8696 19.2924 40.8985 20.0433C40.9129 20.3466 40.8696 20.6643 40.8696 20.9675C40.9274 21.0975 40.9707 21.1841 40.9996 21.2563ZM22.3714 25.704C22.6891 25.6751 22.9779 25.6751 23.2378 25.6173C23.9454 25.4585 24.6675 25.3285 25.3606 25.1119C26.1693 24.8664 26.9202 24.4765 27.6133 24.0144C27.9454 23.7978 28.2487 23.5379 28.5519 23.278C28.7252 23.1336 28.8696 22.9603 29.0285 22.8014C29.2017 22.6426 29.144 22.4116 29.2595 22.2238C29.3462 22.0794 29.3173 21.8339 29.274 21.6462C29.1584 21.1408 28.8841 20.7653 28.4797 20.4332C28.0465 20.0866 27.079 20.1588 26.6891 20.3899C26.2415 20.6643 25.7794 20.9386 25.3173 21.1986C24.8263 21.4874 24.292 21.7184 23.7433 21.8628C23.2667 21.9928 22.7758 22.1372 22.2848 22.1949C21.7072 22.2671 21.1151 22.2816 20.5375 22.2816C20.1476 22.2816 19.7721 22.2238 19.3823 22.1661C19.079 22.1083 18.7758 22.0217 18.4725 21.935C18.1837 21.8484 17.8949 21.7473 17.6061 21.6462C16.9707 21.4296 16.3786 21.1264 15.8299 20.7509C15.3823 20.4477 14.9202 20.2166 14.3714 20.1733C13.6927 20.1155 13.1295 20.491 12.8119 21.1697C12.653 21.5018 12.5519 21.8195 12.6675 22.2094C12.7397 22.426 12.7974 22.6426 12.9274 22.8448C13.2017 23.2347 13.5916 23.509 13.9671 23.7834C14.1693 23.9278 14.3425 24.1444 14.5592 24.1444C14.6602 24.231 14.718 24.3033 14.8046 24.3466C15.2379 24.5632 15.6711 24.7798 16.1187 24.982C16.2487 25.0397 16.4075 25.0542 16.5519 25.0975C16.8552 25.1986 17.144 25.3141 17.4617 25.3863C17.7649 25.4585 18.0682 25.5162 18.3714 25.574C18.5447 25.6029 18.7613 25.704 18.9057 25.6462C19.1656 25.5451 19.2956 25.8051 19.5267 25.7617C19.3967 25.935 19.2667 26.0939 19.1223 26.2383C17.5339 27.8267 15.9599 29.4152 14.3714 31.0036C14.1115 31.2635 13.9382 31.5668 13.9093 31.9422C13.8805 32.2744 13.9382 32.5921 14.0826 32.8809C14.2415 33.1986 14.4581 33.4874 14.7758 33.6462C15.0357 33.7906 15.3101 33.8917 15.5989 33.9495C16.061 34.0361 16.4508 33.8339 16.7685 33.5307C17.2595 33.0686 17.7216 32.5776 18.1981 32.1155C18.4147 31.8989 18.6458 31.7112 18.8624 31.4946C19.4833 30.8736 20.0898 30.2383 20.7108 29.6173C20.8552 29.4729 21.0429 29.444 21.2451 29.6173C21.3606 29.7184 21.4761 29.8339 21.5772 29.9495C22.0249 30.4116 22.4725 30.8736 22.9202 31.3213C23.6566 32.0578 24.3931 32.7798 25.144 33.5018C25.4328 33.7762 25.7649 33.9495 26.1693 33.9639C26.7613 33.9783 27.2667 33.704 27.6422 33.2563C28.2054 32.5921 28.2342 31.6823 27.5989 31.0325C27.0357 30.4549 26.4725 29.8628 25.8949 29.2996C24.8119 28.2166 23.7288 27.1336 22.6602 26.0505C22.5736 25.9206 22.4869 25.8195 22.3714 25.704ZM27.0212 9.74729C26.9924 9.66065 26.9779 9.55957 26.9346 9.48736C26.7902 9.22744 26.6458 8.95307 26.3714 8.79422C26.3425 8.77978 26.3425 8.73646 26.3281 8.70758C26.2415 8.57762 26.1548 8.43321 26.0537 8.31769C25.9382 8.20217 25.7938 8.11552 25.6638 8C25.3895 7.76895 25.144 7.49459 24.8407 7.30686C24.3353 6.97473 23.801 6.67148 23.209 6.48376C22.4147 6.23827 21.6061 6.12274 20.783 6.1083C20.5664 6.1083 20.3642 6.15162 20.1476 6.18051C19.8443 6.22383 19.5411 6.25271 19.2523 6.33935C18.8768 6.44043 18.5158 6.58484 18.1548 6.72924C17.8082 6.87365 17.4761 7.04693 17.1584 7.23466C16.5519 7.59567 16.061 8.08664 15.5989 8.6065C15.4689 8.7509 15.3678 8.93863 15.2667 9.09747C15.1079 9.32852 14.9346 9.54513 14.7902 9.79061C14.2848 10.7292 13.9815 11.7256 13.9382 12.7942C13.9093 13.3574 13.9815 13.935 14.0682 14.4982C14.1981 15.2491 14.4725 15.9422 14.848 16.6065C15.2523 17.2996 15.7433 17.9206 16.3642 18.4404C16.9707 18.9603 17.6205 19.3935 18.3714 19.6823C19.0068 19.9278 19.6422 20.1155 20.3209 20.1588C21.1729 20.2166 22.0104 20.1444 22.848 19.9134C23.44 19.7401 24.0032 19.4946 24.5519 19.1913C25.2162 18.8014 25.7938 18.3105 26.2992 17.7329C26.5592 17.444 26.7613 17.1119 26.9779 16.7942C27.0212 16.7365 26.9779 16.6065 27.0357 16.5632C27.2812 16.3755 27.3678 16.1011 27.4545 15.8412C27.6133 15.3935 27.7577 14.9314 27.8588 14.4693C27.9454 14.0939 27.9888 13.704 27.9743 13.3141C27.9743 12.8664 27.9021 12.4188 27.8588 11.9856C27.7866 11.2635 27.5411 10.5848 27.209 9.93502C27.1801 9.8917 27.0934 9.8195 27.0212 9.74729Z"/>
    <path d="M21.0143 16.6063C19.0793 16.6352 17.5342 15.0612 17.5342 13.1262C17.5342 12.202 17.9096 11.3933 18.545 10.7146C19.0793 10.1514 19.7724 9.80488 20.5233 9.73268C21.4764 9.64604 22.4295 9.83376 23.1948 10.498C23.9457 11.1334 24.3501 11.9565 24.4223 12.9385C24.4945 13.9204 24.1912 14.7868 23.5125 15.5089C22.8483 16.2309 21.9963 16.6063 21.0143 16.6063Z"/>
  </symbol>

  <symbol id="decor-7" viewBox="0 0 612 257" xmlns="http://www.w3.org/2000/svg">
    <g clip-path="url(#clip0_62_310)">
    <path fill-rule="evenodd" clip-rule="evenodd" d="M137.784 131.92C140.659 130.488 145.223 122.513 148.694 124.903C153.019 127.881 143.816 133.612 141.096 137.305C145.112 137.324 150.699 136.073 154.043 137.769C156.017 143.467 150.943 142.615 146.571 142.852C144.118 142.985 135.902 142.981 134.144 143.671L121.088 152.558C119.466 153.644 118.407 154.874 115.472 153.93C112.35 147.721 121.933 146.897 125.751 142.093C121.802 141.14 110.381 140.986 110.124 137.014C109.761 131.403 117.66 135.194 125.431 136.109C123.594 133.667 116.402 127.68 121.496 125.733C124.892 124.436 129.01 132.186 131.51 133.867C132.246 130.375 132.146 122.494 135.187 121.609C140.864 119.954 138.065 128.849 137.786 131.92H137.784ZM78.5806 153.208C82.9651 150.333 85.9509 145.53 88.6648 145.838C90.4571 146.042 91.5289 147.524 91.2008 149.144C90.8495 150.881 80.7106 159.186 78.7487 160.876C74.9043 164.191 74.3697 174.758 71.809 180.414C70.3488 183.639 65.1441 182.812 66.827 176.985C67.7253 173.875 69.3016 169.805 69.7377 166.741C64.4318 169.305 56.9574 174.944 54.3557 172.68C50.4443 169.278 58.4996 166.178 61.8287 164.463L64.4523 163.022C64.5452 162.961 64.6574 162.881 64.7476 162.817L65.6458 162.101C62.4466 161.601 58.7074 161.231 56.1727 159.923C54.5458 152.45 63.1535 155.757 68.7014 156.882C67.363 151.658 62.3359 147.851 64.2294 144.893C65.0265 143.648 67.5215 142.368 69.4451 145.741C70.3803 147.38 71.5998 150.087 72.9164 151.248C73.3648 147.513 72.9506 136.857 78.1868 139.307C81.5172 140.867 78.6079 149.69 78.5819 153.208H78.5806ZM171.129 326.536C174.668 326.504 186.565 323.727 187.716 326.675C189.855 332.151 180.404 330.929 173.388 332.247C176.269 335.015 184.688 336.96 179.462 341.506C175.969 341.853 171.244 337.544 168.174 336.096C168.383 338.89 170.568 347.499 168.216 349.066C163.449 352.241 162.987 342.532 162.905 339.754L160.843 342.832C160.265 343.954 159.63 345.144 158.963 346.386C157.946 348.281 156.267 351.606 153.403 349.293C150.272 346.762 157.127 339.1 158.068 335.667C155.004 336.696 149.011 339.75 145.453 339.082C142.325 333.525 146.86 333.762 154.847 330.7C163.964 327.204 160.818 330.337 167.254 322.044C171.138 317.035 175.425 309.567 178.585 313.324C180.503 315.605 177.402 318.387 176.025 320.114C174.441 322.107 172.517 324.487 171.127 326.538L171.129 326.536ZM199.144 155.127C201.876 153.712 206.406 147.402 209.584 148.298C212.574 149.14 211.647 151.955 209.805 153.7C209.042 154.425 205.488 157.586 205.038 157.857C208.282 158.504 218.707 155.012 217.96 160.575C217.39 164.82 207.827 162.721 204.442 164.098C207.31 167.326 217.564 171.411 211.928 175.542C209.498 176.413 200.082 168.048 196.653 165.611C191.649 162.053 170.326 165.789 174.534 158.391C175.413 156.845 176.47 157.005 178.585 157.187C182.068 157.485 185.677 157.782 189.182 158.233C188.784 156.912 184.44 151.773 183.297 150.527C181.461 148.529 177.551 144.442 182.727 142.763C184.845 142.61 188.64 147.958 190.464 150.183C191.843 151.867 191.182 151.857 193.041 152.977C193.062 149.995 191.523 140.292 197.056 142.901C200.452 144.503 197.814 152.291 199.144 155.132V155.127ZM233.536 214.083L238.082 209.278C239.652 207.522 242.346 206.641 243.439 209.281C244.455 211.732 241.947 213.564 240.676 215.081C239.348 216.667 237.809 218.33 236.628 219.971C239.689 220.323 242.609 220.157 245.733 220.3C249.335 220.464 250.858 223.005 248.557 225.34C246.765 226.74 242.342 225.929 239.499 225.879C241.388 230.176 250.631 230.5 247.229 236.973C242.212 237.957 238.894 232.136 234.733 230.124C235.353 237.494 239.503 245.14 231.751 243.31C228.992 237.006 229.343 226.218 226.487 222.874L216.399 211.919C215.211 210.645 213.695 209.542 214.814 207.03C217.554 203.721 220.321 207.709 221.921 209.493C223.53 211.287 226.219 213.833 227.619 215.611C228.384 211.747 226.556 199.94 230.735 199.176C235.66 198.275 233.964 208.208 233.535 214.083H233.536ZM48.9896 243.032C44.5832 244.966 43.8381 236.667 39.5562 231.069C37.5669 236.812 35.9414 246.122 32.4989 245.972C27.0535 245.737 31.926 237.278 33.5912 230.704C31.2096 231.611 30.5439 232.616 28.3742 234.13C26.7814 235.241 23.0368 235.9 22.8262 232.662C22.6444 229.88 25.5729 228.963 27.1355 227.965C28.4726 227.111 31.1974 225.173 32.1599 224.312C27.8834 222.775 21.3811 221.918 20.6497 219.293C18.8314 212.779 31.077 217.862 31.2192 217.897C28.3317 212.623 22.9452 209.596 25.5318 206.323C28.8541 202.12 34.1969 211.75 36.2804 215.192L37.1746 211.83C37.4945 206.758 37.15 201.428 41.2474 202.236C44.3836 202.855 43.413 205.903 43.1368 209.074C41.8394 224.045 40.6554 220.475 46.3168 231.118C47.4871 233.316 48.2322 234.985 49.3314 237.078C50.5783 239.45 51.9892 241.755 48.9923 243.028L48.9896 243.032ZM220.444 282.304C224.417 278.917 232.06 267.27 234.548 273.241C236.057 276.865 228.803 280.451 225.797 285.313C228.866 285.063 237.658 282.334 236.351 287.795C235.505 291.329 227.656 290.168 224.469 291.632C226.532 294.932 232.927 297.716 232.538 300.912C231.704 307.782 223.455 298.598 222.408 297.992C222.562 301.267 226.65 311.252 221.363 311.031C218.22 310.9 218.411 307.98 217.902 305.366C217.398 302.783 216.785 300.264 216.44 297.829C215.169 298.956 213.67 302.04 212.784 303.572C211.47 305.841 210.665 308.458 208.136 308.241C202.215 307.737 208.435 299.538 209.992 296.941C213.513 291.072 214.802 290.872 214.575 283.352C214.458 279.457 213.598 270.973 214.929 267.904C219.265 266.529 219.891 268.013 219.974 272.474C220.029 275.425 220.003 279.368 220.444 282.306V282.304ZM56.494 290.066C57.3348 292.399 58.1278 294.856 58.9877 297.242C59.8258 299.571 61.4623 302.92 60.806 305.624C56.7606 308.503 55.9102 305.925 54.7358 302.387C54.0044 300.189 52.4745 295.144 51.3439 293.777C49.9904 296.451 49.1154 305.58 44.3754 301.906C41.9118 299.997 45.9723 292.54 46.5 289.38C41.1311 290.946 31.5993 296.578 33.5338 288.417C36.0959 286.837 39.4783 286.385 41.7423 284.671C38.3189 283.548 32.6821 282.744 30.3839 280.773C29.42 272.809 39.2281 278.216 44.6981 279.433C42.8196 275.227 37.6121 270.369 38.9136 267.585C39.5794 266.161 41.3554 265.447 43.0356 266.496C44.5012 267.411 50.9283 278.988 53.1171 281.571C55.1296 283.947 69.385 288.699 71.1035 290.85C73.3484 293.655 70.6414 296.692 65.7675 294.344C63.0414 293.03 59.1272 290.883 56.4954 290.064L56.494 290.066ZM106.088 326.827C109.979 330.255 115.363 331.866 118.744 335.729C117.91 344.1 111.003 335.872 103.974 332.613C104.483 335.11 109.353 344.063 103.441 343.462C100.995 343.213 100.591 340.631 99.9384 338.632C99.2808 336.616 98.5152 334.381 97.6429 332.54L95.7603 335.014C93.7957 338.338 92.1907 342.469 89.5152 342.238C83.5735 341.724 89.8487 333.971 91.06 331.632C84.5742 333.562 79.8302 337.942 78.1363 333.684C76.2304 328.888 85.6816 328.783 89.6081 325.661C87.7173 324.23 83.0813 323.337 80.496 322.284C76.3083 320.577 77.6782 315.814 82.2049 316.795C84.875 317.374 88.9778 319.148 91.8352 320.125C100.519 323.092 97.9451 322.536 110.226 319.687C112.615 319.133 117.523 317.228 119.233 319.239C122.026 322.523 117.4 323.898 114.927 324.468C113.427 324.812 107.376 326.008 106.087 326.827H106.088ZM150.66 286.739L159.921 312.705C161.224 316.588 163.734 320.311 161.283 323.826C156.05 324.65 156.175 320.682 154.878 316.398C153.675 312.428 148.641 296.673 146.568 289.06L146.56 289.031L145.123 284.127C144.023 281.902 143.853 278.368 142.513 277.081L142.418 278.131L141.523 289.29L141.515 289.387C140.759 299.678 140.084 309.866 138.507 320.591C133.303 356.02 123.478 396.456 103.19 426.224C101.531 428.658 99.1879 431.243 97.9205 433.409C93.3186 439.689 82.0217 434.272 88.2929 425.848C89.321 423.751 91.9063 420.983 93.5155 418.512C117.187 382.172 126.668 330.524 129.548 285.542L130.294 270.267C130.411 266.781 130.493 263.354 130.541 260C128.515 260.424 127.034 261.093 124.472 261.054C120.186 270.877 111.428 297.637 106.855 310.557C106.085 312.732 104.855 316.994 103.881 318.8C102.286 321.764 97.971 320.87 98.1023 317.526C98.1952 315.206 108.903 289.846 110.578 285.552L120.104 261.775C121.518 258.223 122.923 256.258 118.619 254.73C117.01 257.423 112.974 262.295 110.673 265.014C108.036 268.13 105.165 271.794 102.611 275.173C97.3258 282.156 91.9186 288.452 86.5662 295.593C81.468 302.394 75.8968 309.34 70.4965 315.98C67.367 319.829 67.5434 317.625 71.3729 327.727C72.3928 330.417 76.2167 337.9 74.9644 340.427C73.6396 342.054 71.8678 342.411 70.3967 340.691C69.5039 339.647 65.1304 327.516 64.7011 326.046C60.4123 331.241 61.6783 350.038 53.8294 344.272C53.2347 339.953 58.1428 328.398 59.1627 322.909C55.1706 324.597 47.3135 329.439 42.6952 331.988C38.185 334.478 34.4867 329.624 40.3902 326.578L53.5573 319.152C50.1025 318.558 36.7904 318.924 35.0924 317.174C34.7916 316.866 32.0914 312.072 39.012 312.437L58.2071 313.557C62.7666 313.864 62.1062 312.713 64.5234 309.997L114.102 253.595C113.342 252.38 112.475 252.496 112.969 250.821C113.439 249.226 114.257 249.824 114.496 247.287L87.6079 264.065C86.2681 265.027 84.7082 266.017 83.1893 266.948C81.8864 267.747 79.7481 269.151 78.3372 269.833L77.8272 270.232C76.0185 271.53 73.7217 273.286 71.6832 273.731C70.9354 275.139 65.3027 278.072 63.6334 279.203C62.1377 280.218 60.7801 281.318 59.3937 281.789C56.9479 282.619 56.2288 281.188 55.0981 279.821C55.578 276.109 56.6253 276.479 60.6912 274.027C62.3933 273.001 66.3144 270.353 67.9262 270.241C69.7391 268.243 70.275 268.488 72.9916 266.898C74.7648 265.858 76.4847 264.355 78.4753 264.128L86.7343 258.966C93.268 255.211 106.952 248 112.3 243.984C110.801 242.987 110.258 242.461 109.238 241.136C104.25 241.576 59.7096 252.916 50.905 255.011C47.3053 255.867 33.3138 258.783 31.2794 259.989C30.0175 263.258 25.9542 279.368 24.2836 280.491C22.5965 281.622 20.6606 280.798 20.0084 279.272C19.1827 277.343 23.6369 265.387 24.2563 262.961C20.3284 264.535 9.24339 275.942 5.76669 273.335C4.0427 270.985 4.57452 269.91 6.8153 268.21C8.90159 266.628 10.1526 265.614 11.8123 264.454C14.2117 262.778 20.5417 258.953 22.0401 257.097C16.8148 256.307 3.90324 254.896 0.221464 253.005C-1.50527 245.385 7.04909 248.921 19.467 250.828C18.2735 248.193 9.99398 242.046 7.89401 240.048C5.09406 237.388 7.16945 233.66 10.6667 235.05C13.8604 236.323 24.4025 248.007 28.5327 250.661C30.7284 252.07 41.8968 248.991 45.2613 248.385C52.4431 247.09 105.799 236.449 111.216 236.172C110.745 234.757 111.911 232.949 111.427 232.282C100.446 230.707 86.3994 229.777 75.2529 228.75C69.601 228.228 63.878 227.636 58.1893 227.173C54.1343 226.842 42.9864 227.514 45.4241 221.839C46.9553 218.278 57.369 221.213 61.2968 221.761C78.1977 224.123 98.496 227.294 114.861 228.883L115.703 225.957C110.65 223.167 39.3976 191.804 39.3744 191.799C37.6955 191.392 34.7041 194.156 33.3096 195.116C31.334 196.474 22.7551 203.091 21.4303 203.419C18.1751 204.228 16.391 200.739 18.6673 198.504C22.2042 195.031 27.5047 193.652 30.7954 189.58C26.7226 189.326 22.8112 189.24 18.6823 189.079C15.5447 188.955 8.31509 189.537 10.344 184.832C11.5498 182.035 17.441 183.281 20.7153 183.407C23.1161 183.5 30.5876 184.534 32.7286 183.216C30.5985 181.804 26.981 177.583 24.9549 175.41C23.5084 173.858 17.9728 168.874 18.3597 166.562C18.7452 164.255 21.0324 163.544 23.0476 164.967C26.255 167.234 31.1235 174.227 34.875 177.28C34.6371 173.813 33.46 169.493 32.8133 165.999C32.0682 161.973 29.997 156.307 36.5908 158.086C38.7974 162.954 40.6445 181.364 42.3603 183.476C43.8231 185.276 106.149 215.957 114.246 220.459L114.861 219.364C114.912 219.278 114.994 219.136 115.043 219.053L115.441 218.412C118.313 219.727 120.097 223.209 121.829 217.5C120.171 216.292 120.267 215.866 118.886 214.338L104.752 198.164C103.546 196.671 102.909 196.204 101.898 194.952C95.5567 187.098 88.3448 179.403 81.818 171.737C79.7754 169.335 76.9017 167.608 79.5526 163.707C83.9289 163.028 84.6685 166.033 86.588 168.238L99.5146 184.467C102.033 187.754 105.112 190.732 107.471 194.153C109.446 197.017 110.542 197.805 112.501 200.653C113.565 202.203 121.667 212.66 123.439 213.72C124.072 212.466 124.64 212.112 125.745 211.912L126.829 211.788C124.266 205.704 121.719 199.417 119.254 193.27C116.595 186.65 114.131 180.926 111.61 174.399L100.072 146.156C98.9417 143.392 97.684 139.572 96.1459 137.005C92.3575 136.113 75.8517 134.769 74.397 132.727C73.4004 131.327 74.1837 129.414 75.2501 128.719C76.605 127.839 78.7583 128.51 80.4877 128.784C84.2967 129.385 88.1726 129.996 91.9993 130.425C89.038 126.165 84.3308 122.334 80.5739 118.444C78.8116 116.618 78.1909 115.628 79.5102 112.74C83.7539 111.617 85.9523 115.629 88.9656 118.826C91.4155 121.427 94.6106 125.184 97.3764 127.185C97.5541 123.203 97.4693 119.389 97.5294 115.428C97.5746 112.506 96.4727 105.867 99.2849 104.7C104.241 102.643 103.319 109.766 103.293 112.435C103.272 114.634 102.938 122.482 103.339 124.066C105.999 121.95 114.045 103.051 117.416 110.675C118.599 113.348 109.195 126.009 107.023 129.319C105.339 131.886 103.88 132.834 104.907 135.671C108.109 144.515 111.261 153.232 114.102 161.99C119.863 179.747 127.194 197.176 132.335 214.892L135.552 211.183C136.816 211.517 135.162 211.806 136.182 211.365C136.279 205.729 135.732 199.702 135.559 193.973C135.385 188.218 135.143 182.408 134.898 176.514C134.652 170.587 134.421 165.061 134.224 159.078C134.105 155.475 131.988 142.119 138.354 145.437C141.063 146.849 139.939 158.672 139.953 162.224L139.86 198.137C139.894 202.918 139.482 208.148 139.757 212.939C139.861 214.758 140.688 216.581 142.692 214.079C144.915 211.302 145.537 206.653 146.831 202.436C149.31 194.355 167.11 135.964 166.77 134.431C166.232 132.009 153.47 121.143 152.811 118.529C151.948 115.107 155.527 113.517 158.191 116.301C161.41 119.668 164.573 123.328 167.738 126.607C168.243 120.734 163.276 103.925 169.71 105.449C173.504 106.348 172.707 122.845 173.864 127.261L175.789 125.439C176.286 124.825 176.846 124.09 177.487 123.29L184.608 114.648C185.94 113.033 186.943 110.96 189.105 111.164C191.276 111.366 192.29 113.373 191.268 115.397C189.134 119.622 183.055 124.54 180.571 128.914C184.334 128.233 191.104 125.622 194.878 124.272C198.499 122.977 201.46 125.151 199.454 128.196C198.593 129.503 194.437 130.414 192.505 131.077C187.613 132.759 183.009 134.312 178.101 135.879C174.244 137.11 175.026 137.558 173.529 141.874C169.686 152.958 147.252 212.779 147.586 216.21C151.36 218.114 153.021 216.233 155.242 213.376L187.21 171.82C188.704 169.833 190.819 165.573 193.93 166.738C195.235 167.227 196.065 168.69 195.747 170.197C195.472 171.493 194.038 172.917 193.195 173.908L159.976 213.753C158.49 215.529 155.116 218.558 155.061 221.329C158.986 224.299 161.965 219.833 167.923 216.269C169.266 215.465 169.545 215.132 170.853 214.164L180.511 207.855C184.794 205.338 188.592 202.209 192.845 199.66C197.148 197.08 201.114 193.815 205.441 191.265L217.766 183.057C225.622 178.218 224.84 179.347 224.308 170.26C224.07 166.192 221.663 153.181 227.674 155.494C230.285 156.498 229.529 161.079 229.671 163.466C229.857 166.586 230.058 169.642 230.05 172.631C231.581 171.582 232.649 169.752 233.729 168.126C235.589 165.326 242.281 152.621 245.557 157.985C247.405 161.012 235.836 174.056 234.335 177.588C237.702 176.955 254.815 172.735 256.688 174.691C258.169 176.239 257.099 178.506 255.648 179.21C253.516 180.243 240.972 182.235 238.49 182.615C241.504 185.004 253.18 187.499 255.068 189.763C257.339 192.486 254.86 195.497 249.896 193.534L232.835 186.856C228.066 184.939 229.148 185.828 225.4 187.955L161.315 226.18C156.178 228.72 157.824 229.773 161.559 233.368C169.612 232.859 208.629 224.573 221.071 222.739C225.096 222.146 227.226 225.219 224.743 227.769C221.907 230.682 161.293 235.452 155.06 238.353C156.303 241.996 158.889 241.324 163.502 242.029C175.791 243.906 233.875 253.287 240.255 253.539C245.574 248.53 248.953 241.713 254.416 236.93C261.332 237.753 256.851 242.603 254.766 245.016C252.83 247.259 249.654 250.82 248.164 253.321C253.282 252.772 264.966 247.76 269.135 250.341L269.074 253.992C265.7 255.555 262.381 255.98 258.86 256.782C255.917 257.453 250.586 258.248 248.266 259.534C250.666 261.938 265.929 268.865 266.354 272.011C266.704 274.6 265.263 274.702 264.693 274.932C261.357 276.276 251.34 267.285 247.46 266.221C249.42 269.349 250.938 273.512 252.645 276.703C253.269 277.869 255.083 281.08 255.069 282.374C255.041 285.109 251.985 286.183 250.106 284.297C249.579 283.768 239.948 264.125 239.318 262.357C225.925 258.679 162.735 247.771 154.647 244.403C155.588 247.185 158.141 248.517 155.288 250.679C159.41 252.255 200.331 277.203 208.521 282.065C212.334 284.327 211.98 288.093 208.737 288.513C206.207 288.841 181.799 271.908 179.052 270.197C173.611 266.803 154.741 253.599 149.774 251.303C149.242 255.918 151.733 257.952 154.399 260.923L161.435 269.207C163.421 271.726 166.104 274.905 168.276 277.261C176.455 286.123 187.15 299.708 196.129 309.885C197.417 311.344 202.319 317.806 203.373 318.163C206.92 318.036 213.069 316.666 216.581 316.023C220.131 315.373 227.797 312.63 226.141 319.278C222.509 322.037 213.718 321.344 209.678 323.235C214.095 326.987 230.227 331.124 226.37 336.111C224.335 338.741 218.584 334.634 216.007 333.255C213.677 332.01 207.499 328.365 205.322 327.899C206.486 331.637 207.73 335.355 208.941 339.215C210.841 345.267 212.861 346.962 209.793 350.628C204.942 350.419 205.026 346.039 203.777 342.198C202.788 339.156 201.304 335.068 200.506 332.467C199.607 335.256 197.052 348.893 195.141 350.267C193.232 351.639 191.56 350.422 190.881 348.7C190.521 346.186 193.818 335.626 194.661 332.191C196.965 322.812 197.754 324.612 192.675 318.52C186.92 311.615 181.838 304.231 176.254 297.101L145.872 257.353C144.858 255.858 145.008 254.981 144.047 254.865C141.012 255.34 143.231 264.202 144.261 268.35C146.094 273.623 147.903 278.825 149.776 284.214L150.674 286.733L150.66 286.739Z" />
    <path fill-rule="evenodd" clip-rule="evenodd" d="M563.769 81.2402L563.051 81.1621L556.392 80.1937C554.438 79.8362 551.891 79.4568 549.917 79.2527C542.491 78.4843 531.961 76.5517 523.622 75.4997C522.427 75.349 517.506 74.3533 516.868 74.619C515.27 76.1339 512.969 79.2938 511.598 81.0334C510.21 82.7921 507.765 87.2122 505.819 83.4413C506.382 80.6677 510.756 77.3844 511.862 74.8464C508.273 74.9135 499.075 79.6061 498.833 75.7038C498.704 73.6451 503.059 73.1958 504.821 72.7795C506.414 72.4042 510.778 71.5645 511.981 70.8879C509.911 69.6264 507.812 68.406 505.673 67.1075C502.314 65.0693 500.681 65.1104 500.61 62.145C502.953 60.252 504.705 62.3244 506.855 63.5996C508.559 64.6091 510.92 65.9035 512.355 66.7856C511.634 65.12 507.248 57.7276 507.575 56.3031C507.903 54.8814 509.178 54.7622 510.198 55.2841C511.393 56.3059 514.175 62.5723 515.187 64.516C517.949 69.8263 516.847 69.3113 521.699 70.0633C527.199 70.9153 532.581 72.2658 538.094 73.2931L564.379 78.5103C564.105 79.4034 563.902 80.317 563.769 81.2402Z" />
    <path fill-rule="evenodd" clip-rule="evenodd" d="M399.886 71.9653C410.071 76.2484 456.232 96.1079 461.485 97.6516C466.981 94.582 471.233 89.5935 476.801 86.7431C482.409 88.8854 477.648 91.9987 475.4 93.5767C473.312 95.0436 469.912 97.3543 468.143 99.1322C472.536 99.7486 483.354 98.0145 486.296 101.047L485.481 104.088C482.334 104.685 479.47 104.343 476.36 104.274C473.758 104.217 469.136 103.759 466.928 104.347C468.43 106.862 479.739 115.859 479.436 118.578C479.187 120.816 477.961 120.598 477.436 120.671C474.366 121.094 467.875 111.473 464.854 109.768C465.837 112.795 466.234 116.593 466.993 119.62C467.271 120.726 468.116 123.79 467.833 124.871C467.235 127.151 464.457 127.407 463.281 125.435C462.95 124.883 459.012 106.438 458.856 104.828C450.136 99.902 413.365 83.4353 398.016 75.5334C398.721 74.4075 399.347 73.2158 399.885 71.968L399.886 71.9653Z" />
    <path fill-rule="evenodd" clip-rule="evenodd" d="M240.392 120.308C242.768 119.768 245.666 118.067 249.437 116.875C250.928 116.403 251.277 116.143 252.773 115.503L263.621 111.594C268.368 110.134 272.784 107.964 277.51 106.466C282.29 104.949 286.901 102.688 291.697 101.204L305.579 96.0639C314.337 93.1684 313.316 94.0861 314.89 85.1213C315.594 81.108 316.245 67.8916 321.562 71.5309C323.871 73.1116 322.081 77.392 321.67 79.7492C321.134 82.8284 320.625 85.8486 319.931 88.7551C321.661 88.0881 323.122 86.554 324.546 85.2213C327 82.9256 336.435 72.1076 338.389 78.0837C339.491 81.4559 325.232 91.4768 322.959 94.5696C326.381 94.7312 344.004 94.5764 345.376 96.9132C346.46 98.7609 344.899 100.72 343.324 101.069C341.012 101.583 328.348 100.625 325.845 100.42C328.229 103.441 339.016 108.564 340.331 111.205C341.915 114.378 338.81 116.737 334.433 113.68L319.367 103.24C315.167 100.274 316.015 101.389 311.879 102.593L241.407 124.775C241.182 123.251 240.843 121.757 240.393 120.305L240.392 120.308Z" />
    <path fill-rule="evenodd" clip-rule="evenodd" d="M426.263 219.049C424.955 218.143 423.47 217.288 422.104 216.333C417.118 212.84 381.074 187.688 379.949 187.583C378.172 187.417 367.907 193.784 365.971 193.658C363.438 193.495 363.14 190.683 365.636 189.468C368.655 187.999 371.86 186.635 374.806 185.186C370.894 183.538 358.286 183.233 360.753 179.15C362.207 176.74 373.329 180.938 376.609 181.121L375.787 179.395C375.477 178.917 375.097 178.369 374.691 177.752L370.349 170.945C369.537 169.672 368.339 168.525 368.957 167.084C369.576 165.636 371.175 165.382 372.335 166.533C374.755 168.936 376.779 174.201 379.223 176.876C379.589 174.139 379.3 168.91 379.211 166.015C379.125 163.242 381.268 161.686 382.91 163.739C383.614 164.62 383.318 167.678 383.345 169.153C383.413 172.887 383.459 176.396 383.446 180.117C383.435 183.04 383.915 182.601 386.54 184.585C392.23 188.887 418.785 209.986 428.37 216.767C427.615 217.471 426.91 218.233 426.262 219.049H426.263Z" />
    <path fill-rule="evenodd" clip-rule="evenodd" d="M281.918 267.508C285.383 264.561 288.932 261.603 292.421 258.713C296.881 255.016 300.694 251.693 305.115 248.124L324.09 232.199C325.947 230.639 328.589 228.72 330.192 226.893C329.944 223.734 326.905 210.6 328.124 208.969C328.96 207.85 330.632 207.984 331.432 208.64C332.447 209.473 332.46 211.31 332.676 212.719C333.152 215.821 333.637 218.977 334.251 222.052C336.811 218.703 338.611 214.105 340.686 210.232C341.662 208.413 342.275 207.687 344.833 207.998C346.748 211.011 344.191 213.707 342.465 216.834C341.059 219.376 338.944 222.782 338.082 225.422C341.201 224.577 344.128 223.569 347.205 222.637C349.473 221.95 354.33 219.455 355.927 221.348C358.741 224.684 353.008 225.729 350.94 226.368C349.234 226.894 343.088 228.574 341.963 229.276C344.254 230.817 360.846 232.39 355.788 236.886C354.013 238.464 341.908 234.298 338.814 233.431C336.415 232.758 335.321 231.861 333.383 233.358C327.34 238.026 321.382 242.624 315.317 246.991C304.683 254.646 294.528 263.152 283.946 270.718C283.354 269.583 282.673 268.51 281.917 267.506L281.918 267.508Z" />
    <path fill-rule="evenodd" clip-rule="evenodd" d="M356.372 142.26C373.595 139.408 421.106 130.776 421.121 130.769C422.51 130.253 423.314 126.85 423.846 125.497C424.602 123.584 427.533 114.759 428.318 113.889C430.246 111.751 433.184 113.374 432.634 116.056C431.783 120.224 428.674 123.749 428.284 128.226C431.3 126.449 434.122 124.631 437.134 122.763C439.424 121.343 444.284 117.457 445.093 121.776C445.574 124.342 440.789 126.289 438.402 127.769C436.651 128.857 430.846 131.711 429.955 133.674C432.145 133.655 436.736 134.919 439.216 135.491C440.988 135.899 447.308 136.784 448.139 138.613C448.969 140.438 447.683 142.042 445.569 141.998C442.204 141.927 435.397 139.294 431.27 138.926C433.098 141.276 436.003 143.783 438.133 145.955C440.588 148.459 444.772 151.493 439.235 153.394C435.337 150.993 425.213 138.793 422.982 138.116C421.212 137.579 369.921 144.592 356.504 146.113C356.556 144.832 356.512 143.543 356.371 142.256L356.372 142.26Z" />
    <path fill-rule="evenodd" clip-rule="evenodd" d="M274.925 238.244C279.476 227.649 292.557 192.506 295.494 184.971C296.84 181.518 302.412 168.332 302.58 165.972C300.615 163.072 289.705 150.556 289.735 148.541C289.767 146.507 291.545 145.381 293.17 145.713C295.222 146.13 302.499 156.603 304.137 158.495C305.082 154.364 302.029 138.741 306.147 137.359C309.057 137.276 309.637 138.326 309.756 141.139C309.868 143.759 309.987 145.366 309.995 147.392C310.005 150.323 309.54 157.714 310.211 160.006C313.834 156.151 322.341 146.317 325.988 144.361C333.225 147.275 325.454 152.309 316.822 161.452C319.664 161.97 329.421 158.647 332.255 158.054C336.032 157.262 337.91 161.094 334.779 163.183C331.918 165.09 316.329 167.124 311.799 169.016C309.392 170.022 305.564 180.975 304.147 184.091C301.565 189.764 285.452 226.972 278.993 240.664L278.818 240.539C277.559 239.666 276.258 238.903 274.926 238.244H274.925Z" />
    <path fill-rule="evenodd" clip-rule="evenodd" d="M524.029 102.324C522.563 104.204 520.927 106.167 519.78 107.523C517.439 110.289 514.892 113.539 512.625 116.537C507.936 122.734 503.137 128.32 498.388 134.657C493.864 140.692 488.92 146.855 484.128 152.747C481.352 156.163 481.509 154.207 484.906 163.171C485.811 165.558 489.205 172.199 488.093 174.441C486.917 175.884 485.345 176.202 484.041 174.675C483.248 173.749 479.366 162.984 478.985 161.679C475.179 166.29 476.303 182.969 469.338 177.853C468.811 174.022 473.165 163.768 474.07 158.897C470.528 160.396 463.557 164.691 459.458 166.954C455.456 169.163 452.174 164.855 457.413 162.153L469.096 155.563C466.031 155.036 454.219 155.361 452.711 153.809C452.443 153.535 450.048 149.28 456.189 149.605L473.221 150.598C477.266 150.871 476.681 149.85 478.826 147.44L521.21 99.2214C522.066 100.329 523.009 101.368 524.026 102.322L524.029 102.324Z" />
    </g>
    <defs>
    <clipPath id="clip0_62_310">
    <rect width="612" height="257" fill="white"/>
    </clipPath>
    </defs>
  </symbol>

  <symbol id="error" xmlns="http://www.w3.org/2000/svg" xmlns:xlink="http://www.w3.org/1999/xlink" viewBox="0 0 50 50">
    <circle cx="25" cy="25" r="25"></circle>
    <polyline style="stroke:#FFFFFF;stroke-width:2;stroke-linecap:round;stroke-miterlimit:10;" points="16,34 25,25 34,16 "></polyline>
    <polyline style="stroke:#FFFFFF;stroke-width:2;stroke-linecap:round;stroke-miterlimit:10;" points="16,16 25,25 34,34"></polyline>
  </symbol>
 
    <symbol id="send" xmlns="http://www.w3.org/2000/svg" xmlns:xlink="http://www.w3.org/1999/xlink" viewBox="0 0 56 56">
    <g><path style="fill:#25AE88;" d="M39,32.707v7H17v-7H0.052C0.024,32.707,0,32.731,0,32.76v19.563c0,1.317,1.067,2.384,2.384,2.384 h51.231c1.317,0,2.384-1.067,2.384-2.384V32.76c0-0.029-0.024-0.052-0.052-0.052H39z"></path><path style="fill:#1A9172;" d="M46,17.707H35H21H10L0.019,32.66c-0.009,0.023,0.008,0.047,0.032,0.047H17v7h22v-7h16.949 c0.025,0,0.041-0.025,0.032-0.047L46,17.707z"></path><path style="fill:#A4E869;" d="M36.707,10l-7.999-7.999C28.707,2,28.707,2,28.706,1.999L28,1.293l-0.706,0.706 C27.293,2,27.293,2,27.292,2.001L19.293,10c-0.391,0.391-0.391,1.023,0,1.414s1.023,0.391,1.414,0L27,5.121v27.586 c0,0.552,0.447,1,1,1s1-0.448,1-1V5.121l6.293,6.293c0.195,0.195,0.451,0.293,0.707,0.293s0.512-0.098,0.707-0.293 C37.098,11.023,37.098,10.391,36.707,10z"></path></g>
  </symbol>

</svg>
