<svg xmlns="http://www.w3.org/2000/svg" xmlns:xlink="http://www.w3.org/1999/xlink">

  <symbol id="arrow" viewBox="0 0 7 5" xmlns="http://www.w3.org/2000/svg">
    <path d="M3.5001 3.13486L6.18135 0.453613L6.94727 1.21953L3.5001 4.6667L0.0529322 1.21953L0.818849 0.453613L3.5001 3.13486Z"/>
  </symbol>

  <symbol id="calendar" viewBox="0 0 11 11" xmlns="http://www.w3.org/2000/svg">
    <path d="M1.4375 10.9166C1.22083 10.9166 1.03125 10.8353 0.86875 10.6728C0.70625 10.5103 0.625 10.3208 0.625 10.1041V1.70825C0.625 1.49159 0.70625 1.302 0.86875 1.1395C1.03125 0.977002 1.22083 0.895752 1.4375 0.895752H2.31771V0.083252H3.19792V0.895752H7.80208V0.083252H8.68229V0.895752H9.5625C9.77917 0.895752 9.96875 0.977002 10.1313 1.1395C10.2937 1.302 10.375 1.49159 10.375 1.70825V10.1041C10.375 10.3208 10.2937 10.5103 10.1313 10.6728C9.96875 10.8353 9.77917 10.9166 9.5625 10.9166H1.4375ZM1.4375 10.1041H9.5625V4.28117H1.4375V10.1041ZM1.4375 3.46867H9.5625V1.70825H1.4375V3.46867ZM5.5 6.58325C5.34653 6.58325 5.21788 6.53134 5.11406 6.42752C5.01024 6.3237 4.95833 6.19506 4.95833 6.04158C4.95833 5.88811 5.01024 5.75947 5.11406 5.65565C5.21788 5.55183 5.34653 5.49992 5.5 5.49992C5.65347 5.49992 5.78212 5.55183 5.88594 5.65565C5.98976 5.75947 6.04167 5.88811 6.04167 6.04158C6.04167 6.19506 5.98976 6.3237 5.88594 6.42752C5.78212 6.53134 5.65347 6.58325 5.5 6.58325ZM3.33333 6.58325C3.17986 6.58325 3.05122 6.53134 2.9474 6.42752C2.84358 6.3237 2.79167 6.19506 2.79167 6.04158C2.79167 5.88811 2.84358 5.75947 2.9474 5.65565C3.05122 5.55183 3.17986 5.49992 3.33333 5.49992C3.48681 5.49992 3.61545 5.55183 3.71927 5.65565C3.82309 5.75947 3.875 5.88811 3.875 6.04158C3.875 6.19506 3.82309 6.3237 3.71927 6.42752C3.61545 6.53134 3.48681 6.58325 3.33333 6.58325ZM7.66667 6.58325C7.51319 6.58325 7.38455 6.53134 7.28073 6.42752C7.17691 6.3237 7.125 6.19506 7.125 6.04158C7.125 5.88811 7.17691 5.75947 7.28073 5.65565C7.38455 5.55183 7.51319 5.49992 7.66667 5.49992C7.82014 5.49992 7.94878 5.55183 8.0526 5.65565C8.15642 5.75947 8.20833 5.88811 8.20833 6.04158C8.20833 6.19506 8.15642 6.3237 8.0526 6.42752C7.94878 6.53134 7.82014 6.58325 7.66667 6.58325ZM5.5 8.74992C5.34653 8.74992 5.21788 8.69801 5.11406 8.59419C5.01024 8.49037 4.95833 8.36172 4.95833 8.20825C4.95833 8.05478 5.01024 7.92613 5.11406 7.82231C5.21788 7.71849 5.34653 7.66658 5.5 7.66658C5.65347 7.66658 5.78212 7.71849 5.88594 7.82231C5.98976 7.92613 6.04167 8.05478 6.04167 8.20825C6.04167 8.36172 5.98976 8.49037 5.88594 8.59419C5.78212 8.69801 5.65347 8.74992 5.5 8.74992ZM3.33333 8.74992C3.17986 8.74992 3.05122 8.69801 2.9474 8.59419C2.84358 8.49037 2.79167 8.36172 2.79167 8.20825C2.79167 8.05478 2.84358 7.92613 2.9474 7.82231C3.05122 7.71849 3.17986 7.66658 3.33333 7.66658C3.48681 7.66658 3.61545 7.71849 3.71927 7.82231C3.82309 7.92613 3.875 8.05478 3.875 8.20825C3.875 8.36172 3.82309 8.49037 3.71927 8.59419C3.61545 8.69801 3.48681 8.74992 3.33333 8.74992ZM7.66667 8.74992C7.51319 8.74992 7.38455 8.69801 7.28073 8.59419C7.17691 8.49037 7.125 8.36172 7.125 8.20825C7.125 8.05478 7.17691 7.92613 7.28073 7.82231C7.38455 7.71849 7.51319 7.66658 7.66667 7.66658C7.82014 7.66658 7.94878 7.71849 8.0526 7.82231C8.15642 7.92613 8.20833 8.05478 8.20833 8.20825C8.20833 8.36172 8.15642 8.49037 8.0526 8.59419C7.94878 8.69801 7.82014 8.74992 7.66667 8.74992Z"/>
  </symbol>

  <symbol id="geo" viewBox="0 0 9 11" xmlns="http://www.w3.org/2000/svg">
    <path d="M4.50008 5.3645C4.76189 5.3645 4.98532 5.27197 5.17039 5.0869C5.35546 4.90183 5.448 4.67839 5.448 4.41658C5.448 4.15478 5.35546 3.93134 5.17039 3.74627C4.98532 3.5612 4.76189 3.46867 4.50008 3.46867C4.23828 3.46867 4.01484 3.5612 3.82977 3.74627C3.6447 3.93134 3.55216 4.15478 3.55216 4.41658C3.55216 4.67839 3.6447 4.90183 3.82977 5.0869C4.01484 5.27197 4.23828 5.3645 4.50008 5.3645ZM4.50008 9.84679C5.70078 8.75443 6.58776 7.76363 7.16102 6.8744C7.73428 5.98516 8.02092 5.202 8.02092 4.52492C8.02092 3.45964 7.68012 2.58846 6.99852 1.91138C6.31692 1.23429 5.48411 0.895752 4.50008 0.895752C3.51605 0.895752 2.68324 1.23429 2.00164 1.91138C1.32005 2.58846 0.979248 3.45964 0.979248 4.52492C0.979248 5.202 1.27265 5.98516 1.85946 6.8744C2.44626 7.76363 3.32647 8.75443 4.50008 9.84679ZM4.50008 10.9166C3.04661 9.67978 1.96102 8.53099 1.24331 7.47023C0.525602 6.40947 0.166748 5.4277 0.166748 4.52492C0.166748 3.17075 0.602338 2.09193 1.47352 1.28846C2.3447 0.484988 3.35355 0.083252 4.50008 0.083252C5.64661 0.083252 6.65546 0.484988 7.52664 1.28846C8.39782 2.09193 8.83342 3.17075 8.83342 4.52492C8.83342 5.4277 8.47456 6.40947 7.75685 7.47023C7.03914 8.53099 5.95355 9.67978 4.50008 10.9166Z"/>
  </symbol>

  <symbol id="mail" viewBox="0 0 11 9" xmlns="http://www.w3.org/2000/svg">
    <path d="M0.895752 8.83342C0.679085 8.83342 0.489502 8.75216 0.327002 8.58966C0.164502 8.42717 0.083252 8.23758 0.083252 8.02092V0.979248C0.083252 0.762581 0.164502 0.572998 0.327002 0.410498C0.489502 0.247998 0.679085 0.166748 0.895752 0.166748H10.1041C10.3208 0.166748 10.5103 0.247998 10.6728 0.410498C10.8353 0.572998 10.9166 0.762581 10.9166 0.979248V8.02092C10.9166 8.23758 10.8353 8.42717 10.6728 8.58966C10.5103 8.75216 10.3208 8.83342 10.1041 8.83342H0.895752ZM5.49992 4.74383L0.895752 1.72404V8.02092H10.1041V1.72404L5.49992 4.74383ZM5.49992 3.93133L10.0499 0.979248H0.96346L5.49992 3.93133ZM0.895752 1.72404V0.979248V8.02092V1.72404Z"/>
  </symbol>

  <symbol id="phone" viewBox="0 0 11 11" xmlns="http://www.w3.org/2000/svg">
    <path d="M9.76562 10.375C8.66424 10.375 7.56962 10.1042 6.48177 9.5625C5.39392 9.02083 4.41667 8.31667 3.55 7.45C2.68333 6.58333 1.97917 5.60608 1.4375 4.51823C0.895833 3.43038 0.625 2.33576 0.625 1.23438C0.625 1.06285 0.683681 0.918403 0.801042 0.801042C0.918403 0.683681 1.06285 0.625 1.23438 0.625H3.13021C3.2566 0.625 3.36719 0.667882 3.46198 0.753646C3.55677 0.83941 3.61771 0.954514 3.64479 1.09896L4.01042 2.80521C4.02847 2.9316 4.02622 3.0467 4.00365 3.15052C3.98108 3.25434 3.93368 3.34236 3.86146 3.41458L2.50729 4.78229C3.01285 5.62188 3.57934 6.35313 4.20677 6.97604C4.8342 7.59896 5.54514 8.12708 6.33958 8.56042L7.62604 7.23333C7.71632 7.13403 7.82014 7.06406 7.9375 7.02344C8.05486 6.98281 8.17222 6.97604 8.28958 7.00313L9.90104 7.35521C10.0365 7.38229 10.1493 7.45 10.2396 7.55833C10.3299 7.66667 10.375 7.79306 10.375 7.9375V9.76562C10.375 9.93715 10.3163 10.0816 10.199 10.199C10.0816 10.3163 9.93715 10.375 9.76562 10.375ZM2.10104 4.0375L3.19792 2.92708L2.88646 1.4375H1.4375C1.4375 1.78958 1.49167 2.17552 1.6 2.59531C1.70833 3.0151 1.87535 3.49583 2.10104 4.0375ZM7.09792 8.95312C7.46806 9.12465 7.86979 9.26458 8.30312 9.37292C8.73646 9.48125 9.15625 9.54445 9.5625 9.5625V8.11354L8.16771 7.82917L7.09792 8.95312Z"/>
  </symbol>

  <symbol id="star" viewBox="0 0 12 11" fill="none" xmlns="http://www.w3.org/2000/svg">
    <path d="M5.04894 0.927049C5.3483 0.00573826 6.6517 0.00573993 6.95106 0.927051L7.5716 2.83688C7.70547 3.2489 8.08943 3.52786 8.52265 3.52786H10.5308C11.4995 3.52786 11.9023 4.76748 11.1186 5.33688L9.49395 6.51722C9.14347 6.77187 8.99681 7.22323 9.13068 7.63525L9.75122 9.54508C10.0506 10.4664 8.9961 11.2325 8.21238 10.6631L6.58778 9.48278C6.2373 9.22813 5.7627 9.22814 5.41221 9.48278L3.78761 10.6631C3.0039 11.2325 1.94942 10.4664 2.24878 9.54508L2.86932 7.63526C3.00319 7.22323 2.85653 6.77186 2.50604 6.51722L0.881445 5.33688C0.0977311 4.76748 0.500508 3.52786 1.46923 3.52786H3.47735C3.91057 3.52786 4.29453 3.2489 4.4284 2.83688L5.04894 0.927049Z" fill="#4A505A"/>
  </symbol>

  <symbol id="filter-icon-1" viewBox="0 0 24 24" fill="none" xmlns="http://www.w3.org/2000/svg">
    <path d="M12.3 24V22H22V2H12.3V0H22C22.5333 0 23 0.2 23.4 0.6C23.8 1 24 1.46667 24 2V22C24 22.5333 23.8 23 23.4 23.4C23 23.8 22.5333 24 22 24H12.3ZM9.7 17.8333L8.26667 16.4L11.6667 13H0V11H11.6L8.2 7.6L9.63333 6.16667L15.5 12.0333L9.7 17.8333Z" fill="#29B297"/>
  </symbol>

  <symbol id="filter-icon-2" viewBox="0 0 24 24" fill="none" xmlns="http://www.w3.org/2000/svg">
    <path d="M2 24C1.46667 24 1 23.8 0.6 23.4C0.2 23 0 22.5333 0 22V2C0 1.46667 0.2 1 0.6 0.6C1 0.2 1.46667 0 2 0H11.7V2H2V22H11.7V24H2ZM18.2 17.8333L16.7667 16.4L20.1667 13H8.5V11H20.1L16.7 7.6L18.1333 6.16667L24 12.0333L18.2 17.8333Z" fill="#29B297"/>
  </symbol>

  <symbol id="filter-icon-3" viewBox="0 0 22 22" fill="none" xmlns="http://www.w3.org/2000/svg">
    <path d="M11 10.9667C9.53337 10.9667 8.33337 10.5 7.40004 9.56667C6.46671 8.63333 6.00004 7.43333 6.00004 5.96667C6.00004 4.5 6.46671 3.3 7.40004 2.36667C8.33337 1.43333 9.53337 0.966667 11 0.966667C12.4667 0.966667 13.6667 1.43333 14.6 2.36667C15.5334 3.3 16 4.5 16 5.96667C16 7.43333 15.5334 8.63333 14.6 9.56667C13.6667 10.5 12.4667 10.9667 11 10.9667ZM0.333374 21.6667V18.5333C0.333374 17.6889 0.544485 16.9667 0.966707 16.3667C1.38893 15.7667 1.93337 15.3111 2.60004 15C4.08893 14.3333 5.51671 13.8333 6.88337 13.5C8.25004 13.1667 9.62226 13 11 13C12.3778 13 13.7445 13.1722 15.1 13.5167C16.4556 13.8611 17.8778 14.3556 19.3667 15C20.0556 15.3111 20.6112 15.7667 21.0334 16.3667C21.4556 16.9667 21.6667 17.6889 21.6667 18.5333V21.6667H0.333374ZM2.33337 19.6667H19.6667V18.5333C19.6667 18.1778 19.5612 17.8389 19.35 17.5167C19.1389 17.1944 18.8778 16.9556 18.5667 16.8C17.1445 16.1111 15.8445 15.6389 14.6667 15.3833C13.4889 15.1278 12.2667 15 11 15C9.73337 15 8.50004 15.1278 7.30004 15.3833C6.10004 15.6389 4.80004 16.1111 3.40004 16.8C3.08893 16.9556 2.83337 17.1944 2.63337 17.5167C2.43337 17.8389 2.33337 18.1778 2.33337 18.5333V19.6667ZM11 8.96667C11.8667 8.96667 12.5834 8.68333 13.15 8.11667C13.7167 7.55 14 6.83333 14 5.96667C14 5.1 13.7167 4.38333 13.15 3.81667C12.5834 3.25 11.8667 2.96667 11 2.96667C10.1334 2.96667 9.41671 3.25 8.85004 3.81667C8.28337 4.38333 8.00004 5.1 8.00004 5.96667C8.00004 6.83333 8.28337 7.55 8.85004 8.11667C9.41671 8.68333 10.1334 8.96667 11 8.96667Z" fill="#29B297"/>
  </symbol>

  <symbol id="filter-icon-search" viewBox="0 0 22 22" xmlns="http://www.w3.org/2000/svg">
    <path d="M16.8313 15.417L21.1143 19.699L19.6993 21.114L15.4173 16.831C13.824 18.1083 11.8423 18.803 9.80029 18.8C4.83229 18.8 0.800293 14.768 0.800293 9.80005C0.800293 4.83205 4.83229 0.800049 9.80029 0.800049C14.7683 0.800049 18.8003 4.83205 18.8003 9.80005C18.8032 11.842 18.1085 13.8238 16.8313 15.417ZM14.8253 14.675C16.0944 13.3699 16.8032 11.6205 16.8003 9.80005C16.8003 5.93205 13.6673 2.80005 9.80029 2.80005C5.93229 2.80005 2.80029 5.93205 2.80029 9.80005C2.80029 13.667 5.93229 16.8 9.80029 16.8C11.6207 16.8029 13.3702 16.0942 14.6753 14.825L14.8253 14.675Z"/>
  </symbol>

  <symbol id="filter-error" viewBox="0 0 154 154" fill="none" xmlns="http://www.w3.org/2000/svg">
    <rect x="0.5" y="0.5" width="153" height="153" rx="76.5" fill="white" stroke="#4A505A"/>
    <line x1="105.922" y1="49.3536" x2="49.3536" y2="105.922" stroke="#4A505A"/>
    <line x1="49.3538" y1="48.6464" x2="105.922" y2="105.215" stroke="#4A505A"/>
  </symbol>

  <symbol id="exit" viewBox="0 0 20 20" xmlns="http://www.w3.org/2000/svg">
    <path fill-rule="evenodd" clip-rule="evenodd" d="M8.57134 10.0001L0 18.5715L1.42857 20L9.9999 11.4286L18.5713 20L19.9998 18.5715L11.4285 10.0001L19.9999 1.42856L18.5713 -1.1444e-05L9.9999 8.57149L1.42847 0L-9.86822e-05 1.42857L8.57134 10.0001Z"/>
  </symbol>

  <svg id="exit-2" width="15" height="15" viewBox="0 0 15 15" xmlns="http://www.w3.org/2000/svg">
    <rect x="0.428955" y="1.13574" width="1" height="19" transform="rotate(-45 0.428955 1.13574)"/>
    <rect x="1.13599" y="14.5713" width="1" height="19" transform="rotate(-135 1.13599 14.5713)"/>
  </svg>

</svg>
