<svg width="612" height="202" viewBox="0 0 612 202" fill="none" xmlns="http://www.w3.org/2000/svg">
<path fill-rule="evenodd" clip-rule="evenodd" d="M137.784 76.9202C140.659 75.4875 145.223 67.513 148.694 69.9032C153.019 72.8809 143.816 78.6118 141.096 82.3046C145.112 82.3238 150.699 81.0732 154.043 82.7689C156.017 88.4669 150.943 87.615 146.571 87.8519C144.118 87.9848 135.902 87.9807 134.143 88.671L121.088 97.5578C119.466 98.6439 118.407 99.8739 115.472 98.9302C112.35 92.7213 121.933 91.8967 125.751 87.0931C121.802 86.1398 110.381 85.9864 110.124 82.0142C109.761 76.4025 117.66 80.1938 125.431 81.1088C123.594 78.6666 116.402 72.6796 121.496 70.7332C124.892 69.4361 129.01 77.186 131.51 78.8666C132.246 75.3752 132.146 67.4938 135.187 66.609C140.864 64.9544 138.065 73.8493 137.786 76.9202H137.784ZM78.5806 98.2084C82.9651 95.3333 85.9509 90.5297 88.6648 90.8379C90.4571 91.042 91.5289 92.524 91.2008 94.1444C90.8495 95.8812 80.7106 104.186 78.7487 105.876C74.9043 109.191 74.3697 119.758 71.809 125.414C70.3488 128.639 65.1441 127.812 66.827 121.985C67.7253 118.875 69.3016 114.805 69.7377 111.741C64.4318 114.305 56.9574 119.944 54.3557 117.68C50.4443 114.278 58.4996 111.178 61.8287 109.463L64.4523 108.022C64.5452 107.961 64.6574 107.881 64.7476 107.817L65.6458 107.101C62.4466 106.601 58.7074 106.231 56.1727 104.923C54.5458 97.4495 63.1535 100.757 68.7014 101.882C67.363 96.6578 62.3359 92.8514 64.2294 89.8928C65.0265 88.6477 67.5215 87.3684 69.4451 90.7407C70.3803 92.3802 71.5998 95.0868 72.9164 96.2483C73.3648 92.5131 72.9506 81.8567 78.1868 84.3071C81.5172 85.8672 78.6079 94.6896 78.5819 98.2084H78.5806ZM171.129 271.536C174.668 271.504 186.565 268.727 187.716 271.675C189.855 277.151 180.404 275.929 173.388 277.247C176.269 280.015 184.688 281.96 179.462 286.506C175.969 286.853 171.244 282.543 168.174 281.096C168.383 283.89 170.568 292.499 168.216 294.066C163.449 297.241 162.987 287.532 162.905 284.754L160.843 287.832C160.265 288.954 159.63 290.144 158.963 291.386C157.946 293.281 156.267 296.606 153.403 294.293C150.272 291.762 157.127 284.099 158.068 280.667C155.004 281.696 149.011 284.75 145.453 284.082C142.325 278.525 146.86 278.762 154.847 275.7C163.964 272.203 160.818 275.337 167.254 267.044C171.138 262.035 175.425 254.567 178.585 258.324C180.503 260.605 177.402 263.387 176.025 265.114C174.441 267.107 172.517 269.487 171.127 271.538L171.129 271.536ZM199.144 100.127C201.876 98.7124 206.406 92.4021 209.584 93.2979C212.574 94.1403 211.647 96.9551 209.805 98.7001C209.042 99.4247 205.488 102.586 205.038 102.857C208.282 103.504 218.707 100.012 217.96 105.575C217.39 109.819 207.827 107.721 204.442 109.098C207.31 112.326 217.564 116.411 211.928 120.542C209.498 121.413 200.082 113.048 196.653 110.611C191.649 107.053 170.326 110.789 174.534 103.391C175.413 101.845 176.47 102.005 178.585 102.187C182.068 102.485 185.677 102.782 189.182 103.232C188.784 101.912 184.44 96.7729 183.297 95.5265C181.461 93.5294 177.551 89.4422 182.727 87.7629C184.845 87.6095 188.64 92.9582 190.464 95.1827C191.843 96.8674 191.182 96.8565 193.041 97.9769C193.062 94.995 191.523 85.2919 197.056 87.9012C200.452 89.5024 197.814 97.2907 199.144 100.131V100.127ZM233.536 159.083L238.082 154.278C239.652 152.522 242.346 151.641 243.439 154.28C244.455 156.732 241.947 158.564 240.676 160.081C239.348 161.667 237.809 163.33 236.628 164.971C239.689 165.323 242.609 165.157 245.733 165.3C249.335 165.464 250.858 168.005 248.557 170.34C246.765 171.74 242.342 170.929 239.499 170.879C241.388 175.175 250.631 175.5 247.229 181.973C242.212 182.957 238.894 177.136 234.733 175.123C235.353 182.494 239.503 190.14 231.751 188.31C228.992 182.006 229.343 171.218 226.487 167.874L216.399 156.919C215.211 155.645 213.695 154.542 214.814 152.03C217.554 148.721 220.321 152.709 221.921 154.493C223.53 156.287 226.219 158.833 227.619 160.611C228.384 156.747 226.556 144.94 230.735 144.176C235.66 143.275 233.964 153.208 233.535 159.083H233.536ZM48.9896 188.032C44.5832 189.966 43.8381 181.667 39.5562 176.069C37.5669 181.812 35.9414 191.122 32.4989 190.972C27.0535 190.737 31.926 182.277 33.5912 175.704C31.2096 176.611 30.5439 177.616 28.3742 179.13C26.7814 180.241 23.0368 180.9 22.8262 177.662C22.6444 174.88 25.5729 173.963 27.1355 172.965C28.4726 172.111 31.1974 170.173 32.1599 169.312C27.8834 167.775 21.3811 166.917 20.6497 164.293C18.8314 157.779 31.077 162.862 31.2192 162.897C28.3317 157.623 22.9452 154.595 25.5318 151.323C28.8541 147.12 34.1969 156.75 36.2804 160.192L37.1746 156.829C37.4945 151.757 37.15 146.428 41.2474 147.236C44.3836 147.855 43.413 150.903 43.1368 154.074C41.8394 169.045 40.6554 165.475 46.3168 176.118C47.4871 178.316 48.2322 179.985 49.3314 182.077C50.5783 184.45 51.9892 186.755 48.9923 188.028L48.9896 188.032ZM220.444 227.304C224.417 223.917 232.06 212.27 234.548 218.241C236.057 221.865 228.803 225.451 225.797 230.313C228.866 230.063 237.658 227.334 236.351 232.795C235.505 236.329 227.656 235.168 224.469 236.632C226.532 239.932 232.927 242.716 232.538 245.912C231.704 252.782 223.455 243.598 222.408 242.992C222.562 246.267 226.65 256.252 221.363 256.031C218.22 255.9 218.411 252.979 217.902 250.366C217.398 247.783 216.785 245.264 216.44 242.829C215.169 243.956 213.67 247.04 212.784 248.572C211.47 250.841 210.665 253.458 208.136 253.241C202.215 252.737 208.435 244.538 209.992 241.941C213.513 236.072 214.802 235.872 214.575 228.352C214.458 224.457 213.598 215.972 214.929 212.904C219.265 211.529 219.891 213.013 219.974 217.474C220.029 220.425 220.003 224.367 220.444 227.306V227.304ZM56.494 235.066C57.3348 237.399 58.1278 239.856 58.9877 242.242C59.8258 244.571 61.4623 247.92 60.806 250.624C56.7606 253.503 55.9102 250.925 54.7358 247.387C54.0044 245.189 52.4745 240.144 51.3439 238.777C49.9904 241.451 49.1154 250.58 44.3754 246.906C41.9118 244.997 45.9723 237.54 46.5 234.38C41.1311 235.946 31.5993 241.578 33.5338 233.417C36.0959 231.837 39.4783 231.385 41.7423 229.671C38.3189 228.548 32.6821 227.744 30.3839 225.773C29.42 217.809 39.2281 223.216 44.6981 224.433C42.8196 220.227 37.6121 215.368 38.9136 212.585C39.5794 211.161 41.3554 210.447 43.0356 211.496C44.5012 212.411 50.9283 223.988 53.1171 226.571C55.1296 228.946 69.385 233.699 71.1035 235.85C73.3484 238.655 70.6414 241.692 65.7675 239.344C63.0414 238.03 59.1272 235.883 56.4954 235.064L56.494 235.066ZM106.088 271.827C109.979 275.255 115.363 276.866 118.744 280.729C117.91 289.1 111.003 280.872 103.974 277.612C104.483 280.109 109.353 289.063 103.441 288.462C100.995 288.213 100.591 285.631 99.9384 283.632C99.2808 281.616 98.5152 279.381 97.6429 277.54L95.7603 280.014C93.7957 283.338 92.1907 287.469 89.5152 287.237C83.5735 286.724 89.8487 278.971 91.06 276.632C84.5742 278.562 79.8302 282.942 78.1363 278.684C76.2304 273.888 85.6816 273.783 89.6081 270.661C87.7173 269.23 83.0813 268.337 80.496 267.283C76.3083 265.577 77.6782 260.814 82.2049 261.795C84.875 262.374 88.9778 264.148 91.8352 265.125C100.519 268.092 97.9451 267.535 110.226 264.686C112.615 264.133 117.523 262.228 119.233 264.239C122.026 267.523 117.4 268.898 114.927 269.468C113.427 269.812 107.376 271.008 106.087 271.827H106.088ZM150.66 231.739L159.921 257.705C161.224 261.588 163.734 265.311 161.283 268.826C156.05 269.65 156.175 265.682 154.878 261.398C153.675 257.428 148.641 241.672 146.568 234.06L146.56 234.031L145.123 229.127C144.023 226.901 143.853 223.368 142.513 222.081L142.418 223.131L141.523 234.29L141.515 234.387C140.759 244.678 140.084 254.866 138.507 265.59C133.303 301.02 123.478 341.456 103.19 371.224C101.531 373.658 99.1879 376.243 97.9205 378.409C93.3186 384.689 82.0217 379.271 88.2929 370.848C89.321 368.751 91.9063 365.982 93.5155 363.512C117.187 327.172 126.668 275.524 129.548 230.542L130.294 215.267C130.411 211.781 130.493 208.354 130.541 205C128.515 205.424 127.034 206.093 124.472 206.054C120.186 215.877 111.428 242.637 106.855 255.557C106.085 257.732 104.855 261.994 103.881 263.8C102.286 266.764 97.971 265.87 98.1023 262.526C98.1952 260.206 108.903 234.846 110.578 230.552L120.104 206.775C121.518 203.223 122.923 201.258 118.619 199.73C117.01 202.423 112.974 207.295 110.673 210.014C108.036 213.13 105.165 216.794 102.611 220.173C97.3258 227.156 91.9186 233.451 86.5662 240.593C81.468 247.394 75.8968 254.34 70.4965 260.98C67.3671 264.829 67.5434 262.625 71.3729 272.727C72.3928 275.417 76.2167 282.9 74.9644 285.427C73.6396 287.054 71.8678 287.411 70.3967 285.691C69.5039 284.647 65.1304 272.516 64.7011 271.046C60.4123 276.241 61.6783 295.038 53.8294 289.271C53.2347 284.953 58.1428 273.398 59.1627 267.909C55.1706 269.597 47.3135 274.439 42.6952 276.988C38.185 279.478 34.4867 274.624 40.3902 271.577L53.5573 264.152C50.1025 263.558 36.7904 263.924 35.0924 262.174C34.7916 261.866 32.0914 257.072 39.012 257.437L58.2071 258.557C62.7666 258.864 62.1062 257.713 64.5234 254.997L114.102 198.595C113.342 197.38 112.475 197.496 112.969 195.821C113.439 194.226 114.257 194.824 114.496 192.287L87.6079 209.065C86.2681 210.027 84.7082 211.017 83.1893 211.948C81.8864 212.747 79.7481 214.151 78.3372 214.833L77.8272 215.231C76.0185 216.53 73.7217 218.286 71.6832 218.731C70.9354 220.139 65.3027 223.072 63.6334 224.203C62.1377 225.218 60.7801 226.318 59.3937 226.789C56.9479 227.619 56.2288 226.188 55.0981 224.821C55.578 221.109 56.6253 221.479 60.6912 219.027C62.3933 218.001 66.3144 215.353 67.9262 215.241C69.7391 213.243 70.275 213.488 72.9916 211.898C74.7648 210.858 76.4847 209.355 78.4753 209.128L86.7343 203.966C93.268 200.211 106.952 193 112.3 188.984C110.801 187.986 110.258 187.46 109.238 186.136C104.25 186.576 59.7096 197.916 50.905 200.011C47.3053 200.867 33.3138 203.783 31.2794 204.989C30.0175 208.258 25.9542 224.367 24.2836 225.491C22.5965 226.622 20.6606 225.797 20.0084 224.272C19.1827 222.343 23.6369 210.387 24.2563 207.961C20.3284 209.535 9.24339 220.942 5.76669 218.335C4.0427 215.985 4.57452 214.91 6.8153 213.21C8.90159 211.628 10.1526 210.614 11.8123 209.454C14.2117 207.777 20.5417 203.953 22.0401 202.097C16.8148 201.307 3.90324 199.896 0.221464 198.005C-1.50527 190.385 7.04909 193.921 19.4671 195.828C18.2735 193.193 9.99398 187.045 7.89401 185.048C5.09406 182.388 7.16945 178.66 10.6667 180.05C13.8604 181.323 24.4025 193.006 28.5327 195.661C30.7284 197.07 41.8968 193.991 45.2613 193.384C52.4431 192.09 105.799 181.449 111.216 181.172C110.745 179.757 111.911 177.949 111.427 177.282C100.446 175.707 86.3994 174.777 75.2529 173.75C69.601 173.228 63.878 172.636 58.1893 172.173C54.1343 171.842 42.9864 172.514 45.4241 166.839C46.9553 163.278 57.369 166.213 61.2968 166.761C78.1977 169.123 98.496 172.294 114.861 173.882L115.703 170.957C110.65 168.167 39.3976 136.804 39.3744 136.799C37.6955 136.392 34.7041 139.156 33.3096 140.116C31.334 141.474 22.7551 148.091 21.4303 148.419C18.1751 149.228 16.391 145.739 18.6673 143.504C22.2042 140.031 27.5047 138.652 30.7954 134.58C26.7226 134.326 22.8112 134.24 18.6823 134.079C15.5447 133.955 8.31509 134.537 10.344 129.832C11.5498 127.035 17.441 128.28 20.7153 128.407C23.1161 128.5 30.5876 129.534 32.7285 128.216C30.5985 126.804 26.981 122.582 24.9549 120.41C23.5084 118.858 17.9728 113.874 18.3597 111.562C18.7452 109.255 21.0324 108.544 23.0476 109.967C26.255 112.234 31.1235 119.227 34.875 122.28C34.6371 118.813 33.46 114.493 32.8133 110.999C32.0682 106.973 29.997 101.307 36.5908 103.086C38.7974 107.954 40.6445 126.364 42.3603 128.476C43.8231 130.276 106.149 160.956 114.246 165.459L114.861 164.364C114.912 164.278 114.994 164.136 115.043 164.053L115.441 163.412C118.313 164.727 120.097 168.209 121.829 162.5C120.171 161.292 120.267 160.866 118.886 159.337L104.752 143.164C103.546 141.671 102.909 141.204 101.898 139.952C95.5566 132.098 88.3448 124.403 81.818 116.737C79.7754 114.335 76.9017 112.608 79.5526 108.707C83.9289 108.028 84.6685 111.033 86.5881 113.238L99.5146 129.467C102.033 132.754 105.112 135.732 107.471 139.153C109.446 142.017 110.542 142.805 112.501 145.653C113.565 147.203 121.667 157.66 123.439 158.72C124.072 157.466 124.64 157.112 125.745 156.912L126.829 156.788C124.266 150.704 121.719 144.417 119.254 138.27C116.595 131.65 114.131 125.926 111.61 119.399L100.072 91.1557C98.9417 88.3916 97.684 84.5715 96.1459 82.0046C92.3575 81.1129 75.8517 79.7692 74.397 77.727C73.4004 76.3271 74.1837 74.4137 75.2501 73.7192C76.605 72.8385 78.7583 73.5096 80.4877 73.7836C84.2967 74.3849 88.1726 74.9958 91.9993 75.4245C89.038 71.1647 84.3308 67.3336 80.5739 63.4436C78.8116 61.6178 78.1909 60.6274 79.5102 57.7401C83.7539 56.6169 85.9523 60.6288 88.9656 63.8257C91.4155 66.4268 94.6106 70.184 97.3764 72.1851C97.5541 68.2034 97.4693 64.3887 97.5294 60.4275C97.5746 57.5059 96.4727 50.8669 99.2849 49.6999C104.241 47.6425 103.319 54.7664 103.293 57.4346C103.272 59.6344 102.938 67.4815 103.339 69.0663C105.999 66.9501 114.045 48.0507 117.416 55.6746C118.599 58.3482 109.195 71.0085 107.023 74.3191C105.339 76.886 103.88 77.8338 104.907 80.6705C108.109 89.5148 111.261 98.2316 114.102 106.99C119.863 124.747 127.194 142.176 132.335 159.892L135.552 156.183C136.816 156.517 135.162 156.806 136.182 156.365C136.279 150.729 135.732 144.702 135.559 138.973C135.385 133.218 135.143 127.408 134.898 121.514C134.652 115.587 134.421 110.061 134.224 104.078C134.105 100.475 131.988 87.1191 138.354 90.4366C141.063 91.8488 139.939 103.672 139.953 107.224L139.86 143.136C139.894 147.918 139.482 153.148 139.757 157.939C139.861 159.758 140.688 161.581 142.692 159.079C144.915 156.302 145.537 151.653 146.831 147.436C149.31 139.355 167.11 80.9636 166.77 79.4309C166.232 77.0093 153.47 66.1433 152.811 63.5285C151.948 60.107 155.527 58.5167 158.191 61.3013C161.41 64.6681 164.573 68.328 167.738 71.6071C168.243 65.7338 163.276 48.9246 169.71 50.4491C173.504 51.3476 172.707 67.8445 173.864 72.2605L175.789 70.4387C176.286 69.8251 176.846 69.0896 177.487 68.2896L184.608 59.6481C185.94 58.0332 186.943 55.9595 189.105 56.1635C191.276 56.3663 192.29 58.3729 191.268 60.3973C189.134 64.6215 183.055 69.5402 180.571 73.9137C184.334 73.233 191.104 70.6223 194.878 69.2717C198.499 67.9773 201.46 70.1511 199.454 73.196C198.593 74.5027 194.437 75.4135 192.505 76.0765C187.613 77.7585 183.009 79.3118 178.101 80.8787C174.244 82.1101 175.026 82.558 173.529 86.874C169.686 97.9577 147.252 157.779 147.586 161.21C151.36 163.114 153.021 161.233 155.242 158.376L187.21 116.82C188.704 114.833 190.819 110.573 193.93 111.738C195.235 112.227 196.065 113.69 195.747 115.197C195.472 116.493 194.038 117.917 193.195 118.908L159.976 158.753C158.49 160.529 155.116 163.558 155.061 166.328C158.986 169.299 161.965 164.833 167.923 161.269C169.266 160.465 169.545 160.132 170.853 159.164L180.511 152.855C184.794 150.338 188.592 147.209 192.845 144.66C197.148 142.08 201.114 138.815 205.441 136.265L217.766 128.057C225.622 123.218 224.84 124.347 224.308 115.26C224.07 111.192 221.663 98.181 227.674 100.494C230.285 101.498 229.529 106.079 229.671 108.466C229.857 111.586 230.058 114.642 230.05 117.631C231.581 116.582 232.649 114.752 233.729 113.126C235.589 110.326 242.281 97.6208 245.557 102.985C247.405 106.012 235.836 119.055 234.335 122.588C237.702 121.955 254.815 117.735 256.688 119.691C258.169 121.239 257.099 123.506 255.648 124.21C253.516 125.242 240.972 127.235 238.49 127.615C241.504 130.004 253.18 132.499 255.068 134.763C257.339 137.486 254.86 140.497 249.896 138.534L232.835 131.855C228.066 129.939 229.148 130.828 225.4 132.955L161.315 171.18C156.178 173.719 157.824 174.773 161.559 178.368C169.612 177.859 208.629 169.573 221.071 167.739C225.096 167.146 227.226 170.218 224.743 172.769C221.907 175.682 161.293 180.452 155.06 183.353C156.303 186.996 158.889 186.324 163.502 187.029C175.791 188.906 233.875 198.287 240.255 198.539C245.574 193.53 248.953 186.713 254.416 181.93C261.332 182.753 256.851 187.603 254.766 190.016C252.83 192.259 249.654 195.82 248.164 198.321C253.282 197.772 264.966 192.76 269.135 195.34L269.074 198.992C265.7 200.555 262.381 200.98 258.86 201.782C255.917 202.453 250.586 203.248 248.266 204.534C250.666 206.938 265.929 213.864 266.354 217.011C266.704 219.6 265.263 219.702 264.693 219.932C261.357 221.276 251.34 212.285 247.46 211.221C249.42 214.349 250.938 218.512 252.645 221.703C253.269 222.869 255.083 226.08 255.069 227.374C255.041 230.109 251.985 231.183 250.106 229.297C249.579 228.768 239.948 209.125 239.318 207.357C225.925 203.679 162.735 192.771 154.647 189.403C155.588 192.185 158.141 193.517 155.288 195.679C159.41 197.255 200.331 222.203 208.521 227.064C212.334 229.327 211.98 233.093 208.737 233.513C206.207 233.84 181.799 216.908 179.052 215.197C173.611 211.803 154.741 198.599 149.774 196.303C149.242 200.918 151.733 202.952 154.399 205.923L161.435 214.207C163.421 216.726 166.104 219.905 168.276 222.261C176.455 231.123 187.15 244.708 196.129 254.885C197.417 256.344 202.319 262.806 203.373 263.163C206.92 263.036 213.069 261.666 216.581 261.022C220.131 260.373 227.797 257.63 226.141 264.278C222.509 267.037 213.718 266.344 209.678 268.235C214.095 271.987 230.227 276.124 226.37 281.111C224.335 283.741 218.584 279.634 216.007 278.255C213.677 277.01 207.499 273.365 205.322 272.899C206.486 276.637 207.73 280.355 208.941 284.215C210.841 290.267 212.861 291.962 209.793 295.628C204.942 295.419 205.026 291.038 203.777 287.198C202.788 284.156 201.304 280.068 200.506 277.467C199.607 280.256 197.052 293.893 195.141 295.267C193.232 296.639 191.56 295.422 190.881 293.7C190.521 291.186 193.818 280.626 194.661 277.191C196.965 267.812 197.754 269.612 192.675 263.519C186.92 256.615 181.838 249.231 176.254 242.101L145.872 202.353C144.858 200.858 145.008 199.981 144.047 199.865C141.012 200.34 143.231 209.202 144.261 213.349C146.094 218.623 147.903 223.825 149.776 229.214L150.674 231.732L150.66 231.739Z" fill="#E3BC65"/>
<path fill-rule="evenodd" clip-rule="evenodd" d="M563.769 26.2402L563.051 26.1621L556.391 25.1937C554.438 24.8362 551.891 24.4568 549.916 24.2527C542.49 23.4843 531.96 21.5517 523.622 20.4997C522.427 20.349 517.505 19.3533 516.868 19.619C515.27 21.1339 512.969 24.2938 511.598 26.0334C510.21 27.7921 507.764 32.2122 505.819 28.4413C506.382 25.6677 510.755 22.3844 511.861 19.8464C508.273 19.9135 499.074 24.6061 498.832 20.7038C498.704 18.6451 503.058 18.1959 504.821 17.7795C506.413 17.4042 510.777 16.5645 511.98 15.8879C509.911 14.6264 507.812 13.406 505.672 12.1075C502.313 10.0693 500.681 10.1104 500.61 7.14498C502.953 5.25203 504.704 7.32441 506.855 8.59962C508.558 9.6091 510.919 10.9035 512.355 11.7856C511.633 10.12 507.247 2.72764 507.574 1.30314C507.902 -0.11863 509.178 -0.237796 510.198 0.284066C511.393 1.30587 514.175 7.57233 515.186 9.51596C517.948 14.8263 516.846 14.3113 521.698 15.0633C527.198 15.9153 532.581 17.2658 538.093 18.2931L564.378 23.5103C564.105 24.4034 563.901 25.317 563.769 26.2402Z" fill="#E3BC65"/>
<path fill-rule="evenodd" clip-rule="evenodd" d="M399.886 16.9653C410.072 21.2484 456.233 41.108 461.485 42.6516C466.981 39.5821 471.233 34.5936 476.802 31.7432C482.41 33.8854 477.648 36.9988 475.4 38.5767C473.313 40.0437 469.913 42.3544 468.143 44.1323C472.536 44.7487 483.355 43.0146 486.297 46.0472L485.482 49.0879C482.335 49.6851 479.47 49.3427 476.36 49.2742C473.758 49.2167 469.136 48.7592 466.928 49.3468C468.431 51.8616 479.74 60.8593 479.436 63.5781C479.187 65.8163 477.961 65.5985 477.436 65.6711C474.367 66.0943 467.876 56.4734 464.854 54.7681C465.837 57.7952 466.235 61.5934 466.994 64.6205C467.271 65.7259 468.116 68.7899 467.833 69.8706C467.236 72.1512 464.458 72.4073 463.282 70.4349C462.951 69.8829 459.012 51.4384 458.856 49.8276C450.137 44.9021 413.365 28.4353 398.016 20.5334C398.722 19.4075 399.348 18.2159 399.885 16.9681L399.886 16.9653Z" fill="#E3BC65"/>
<path fill-rule="evenodd" clip-rule="evenodd" d="M240.392 65.3079C242.768 64.7682 245.667 63.067 249.437 61.8753C250.929 61.4028 251.277 61.1425 252.773 60.5029L263.622 56.5937C268.368 55.1336 272.784 52.964 277.511 51.4655C282.29 49.9492 286.902 47.6878 291.698 46.2044L305.58 41.0639C314.338 38.1683 313.317 39.086 314.89 30.1212C315.594 26.1079 316.245 12.8915 321.562 16.5309C323.871 18.1115 322.082 22.3919 321.67 24.7492C321.134 27.8283 320.626 30.8485 319.931 33.7551C321.662 33.088 323.122 31.5539 324.547 30.2212C327.001 27.9256 336.435 17.1075 338.389 23.0836C339.491 26.4558 325.233 36.4767 322.959 39.5695C326.381 39.7311 344.004 39.5764 345.377 41.9131C346.461 43.7608 344.9 45.7195 343.325 46.0688C341.013 46.5825 328.349 45.625 325.845 45.4196C328.23 48.4412 339.017 53.5639 340.332 56.2047C341.915 59.3783 338.81 61.737 334.434 58.6798L319.368 48.2398C315.168 45.2744 316.015 46.3893 311.88 47.5933L241.408 69.7745C241.182 68.2514 240.843 66.757 240.393 65.3051L240.392 65.3079Z" fill="#E3BC65"/>
<path fill-rule="evenodd" clip-rule="evenodd" d="M426.263 164.049C424.955 163.143 423.47 162.288 422.104 161.333C417.118 157.84 381.074 132.688 379.949 132.583C378.172 132.417 367.907 138.784 365.971 138.658C363.438 138.495 363.14 135.683 365.636 134.468C368.655 132.999 371.86 131.635 374.806 130.186C370.895 128.538 358.287 128.233 360.753 124.15C362.208 121.74 373.329 125.938 376.609 126.121L375.788 124.395C375.477 123.917 375.097 123.369 374.691 122.752L370.349 115.945C369.537 114.672 368.339 113.525 368.957 112.084C369.577 110.636 371.175 110.382 372.335 111.533C374.755 113.936 376.779 119.201 379.223 121.876C379.59 119.139 379.3 113.91 379.211 111.015C379.125 108.242 381.269 106.686 382.911 108.739C383.615 109.62 383.318 112.678 383.345 114.153C383.414 117.887 383.459 121.396 383.446 125.117C383.436 128.04 383.915 127.601 386.54 129.585C392.23 133.887 418.785 154.986 428.37 161.767C427.615 162.471 426.91 163.233 426.262 164.049H426.263Z" fill="#E3BC65"/>
<path fill-rule="evenodd" clip-rule="evenodd" d="M281.918 212.508C285.382 209.562 288.931 206.603 292.42 203.713C296.88 200.016 300.693 196.693 305.115 193.124L324.089 177.199C325.946 175.639 328.589 173.72 330.191 171.893C329.944 168.734 326.904 155.6 328.124 153.969C328.959 152.85 330.631 152.984 331.431 153.64C332.447 154.473 332.459 156.31 332.675 157.719C333.151 160.822 333.636 163.977 334.25 167.052C336.811 163.703 338.61 159.105 340.686 155.232C341.662 153.413 342.274 152.687 344.832 152.998C346.748 156.011 344.191 158.707 342.464 161.834C341.059 164.376 338.944 167.782 338.081 170.422C341.201 169.577 344.128 168.569 347.204 167.637C349.472 166.95 354.33 164.455 355.927 166.348C358.74 169.684 353.008 170.729 350.939 171.368C349.233 171.894 343.088 173.574 341.962 174.276C344.254 175.817 360.846 177.39 355.787 181.886C354.013 183.464 341.908 179.298 338.814 178.431C336.414 177.758 335.321 176.861 333.382 178.358C327.339 183.026 321.381 187.624 315.316 191.991C304.683 199.646 294.527 208.152 283.945 215.718C283.353 214.583 282.673 213.51 281.917 212.506L281.918 212.508Z" fill="#E3BC65"/>
<path fill-rule="evenodd" clip-rule="evenodd" d="M356.373 87.2597C373.595 84.408 421.107 75.776 421.122 75.7692C422.511 75.2528 423.315 71.8504 423.847 70.4971C424.603 68.5836 427.534 59.7586 428.319 58.8888C430.246 56.7507 433.184 58.3738 432.635 61.0557C431.783 65.2237 428.674 68.7494 428.284 73.2256C431.3 71.4491 434.122 69.6315 437.134 67.7632C439.424 66.3428 444.284 62.4569 445.094 66.7756C445.575 69.3425 440.79 71.2888 438.403 72.7695C436.651 73.8571 430.847 76.7115 429.955 78.6744C432.145 78.6552 436.736 79.9194 439.216 80.4906C440.988 80.8988 447.309 81.7836 448.14 83.6136C448.97 85.438 447.683 87.0419 445.57 86.9981C442.205 86.9269 435.398 84.2943 431.27 83.9258C433.098 86.2763 436.003 88.7829 438.134 90.9552C440.589 93.4591 444.773 96.493 439.235 98.3942C435.338 95.993 425.214 83.793 422.983 83.1163C421.212 82.5794 369.922 89.5924 356.504 91.1127C356.556 89.8321 356.512 88.5432 356.372 87.2556L356.373 87.2597Z" fill="#E3BC65"/>
<path fill-rule="evenodd" clip-rule="evenodd" d="M274.925 183.244C279.476 172.649 292.557 137.506 295.494 129.971C296.841 126.518 302.412 113.332 302.58 110.972C300.615 108.072 289.705 95.5558 289.736 93.5409C289.767 91.5069 291.546 90.381 293.17 90.7125C295.222 91.1302 302.499 101.603 304.137 103.495C305.082 99.3636 302.029 83.7406 306.147 82.3586C309.058 82.2764 309.637 83.3256 309.756 86.139C309.868 88.7593 309.987 90.3659 309.996 92.3917C310.005 95.3229 309.54 102.714 310.212 105.005C313.835 101.151 322.341 91.3165 325.989 89.3606C333.225 92.2753 325.454 97.309 316.822 106.452C319.664 106.97 329.422 103.647 332.256 103.054C336.032 102.262 337.91 106.094 334.78 108.183C331.918 110.09 316.33 112.124 311.799 114.015C309.393 115.022 305.565 125.974 304.147 129.091C301.566 134.764 285.452 171.972 278.994 185.664L278.819 185.539C277.56 184.665 276.258 183.903 274.926 183.244H274.925Z" fill="#E3BC65"/>
<path fill-rule="evenodd" clip-rule="evenodd" d="M524.029 47.3237C522.563 49.2043 520.927 51.1671 519.78 52.5232C517.439 55.2886 514.892 58.539 512.625 61.5373C507.936 67.7339 503.137 73.3196 498.388 79.6573C493.864 85.6922 488.92 91.8546 484.128 97.7471C481.351 101.163 481.509 99.2072 484.906 108.171C485.811 110.558 489.204 117.198 488.093 119.441C486.917 120.884 485.345 121.202 484.041 119.675C483.248 118.749 479.366 107.984 478.985 106.679C475.179 111.289 476.302 127.969 469.338 122.853C468.81 119.022 473.165 108.768 474.07 103.897C470.527 105.396 463.556 109.691 459.458 111.954C455.456 114.163 452.173 109.855 457.412 107.153L469.096 100.563C466.031 100.036 454.219 100.361 452.711 98.8086C452.443 98.5347 450.047 94.2803 456.189 94.605L473.221 95.598C477.266 95.8706 476.681 94.8502 478.826 92.4394L521.21 44.2213C522.065 45.3294 523.009 46.3677 524.026 47.3224L524.029 47.3237Z" fill="#E3BC65"/>
</svg>
