<svg width="48" height="77" viewBox="0 0 48 77" fill="none" xmlns="http://www.w3.org/2000/svg">
<g clip-path="url(#clip0_4_358)">
<path d="M0.233138 0.233887H47.7686C47.7686 22.2887 47.7686 44.3439 47.7686 66.3989C47.7686 77.4772 24.0282 64.4676 23.8324 76.7659C23.6177 64.4743 0.00151595 76.6637 0.233138 66.3989V0.233887Z" fill="#5B5B5B" stroke="#F3F3F3" stroke-width="1.80873"/>
<path d="M2.33993 11.0015H45.6612C45.6612 29.3607 45.6612 47.1215 45.6612 65.4812C45.6612 67.53 44.5661 68.9737 42.8481 68.9664L27.9863 68.9041C26.9751 68.8998 24.7374 70.1553 23.9795 71.3586C23.2581 69.644 20.7713 69.0033 19.6811 69.0024L4.70331 68.9902C3.20851 68.9892 2.29544 67.7582 2.33993 65.9557V11.0015Z" fill="#F3F3F3" stroke="#F3F3F3" stroke-width="0.56048"/>
<path d="M7.17614 9.3576H5.41239L4.80325 7.53562C4.65811 7.1056 4.54474 6.8364 4.46442 6.72975C4.38294 6.62143 4.27205 6.56883 4.12922 6.56883V9.3576H2.56494V2.30785H4.12922V5.01445C4.26493 5.00622 4.3712 4.93898 4.44671 4.8126C4.52347 4.68784 4.64148 4.33005 4.80325 3.73585C4.92136 3.2976 5.03937 2.98242 5.15979 2.792C5.27897 2.59998 5.47382 2.46379 5.74411 2.38001C6.01331 2.29632 6.4371 2.25533 7.01323 2.25533V3.74568H6.93416C6.66618 3.74568 6.46778 3.81623 6.33917 3.95744C6.20924 4.09855 6.1042 4.32674 6.02043 4.64192C5.93773 4.9587 5.84807 5.19341 5.7524 5.34937C5.65677 5.50522 5.52569 5.62998 5.36052 5.7219C5.58597 5.82531 5.78315 6.00259 5.95195 6.25373C6.11958 6.50487 6.29897 6.89715 6.48789 7.42898L7.17614 9.3576ZM7.73334 2.30785H11.9314V3.81302H9.30343V4.93407H11.7412V6.37189H9.30343V7.7605H12.0081V9.3576H7.73334V2.30785ZM12.8345 2.30785H14.8957L15.6914 6.59677L16.4835 2.30785H18.5377V9.3576H17.258V3.98207L16.2651 9.3576H15.107L14.1177 3.98207V9.3576H12.8345V2.30785ZM19.534 2.30785H23.7319V3.81302H21.1042V4.93407H23.5421V6.37189H21.1042V7.7605H23.8087V9.3576H19.534V2.30785ZM24.6457 2.30785H27.25C27.8167 2.30785 28.2417 2.49496 28.5237 2.87078C28.806 3.24508 28.9477 3.78017 28.9477 4.47116C28.9477 5.18353 28.7942 5.74001 28.4861 6.14049C28.178 6.54096 27.708 6.74119 27.0765 6.74119H26.2193V9.3576H24.6457V2.30785ZM26.2193 5.3132H26.6031C26.9053 5.3132 27.1167 5.24101 27.2395 5.09491C27.361 4.94881 27.4224 4.76171 27.4224 4.53519C27.4224 4.3136 27.3692 4.12481 27.263 3.97219C27.1581 3.81794 26.9585 3.74076 26.6655 3.74076H26.2193V5.3132ZM29.5697 5.83683C29.5697 4.68621 29.8011 3.78997 30.2616 3.14987C30.7232 2.50808 31.3655 2.18799 32.1884 2.18799C33.0323 2.18799 33.6827 2.50316 34.1397 3.13344C34.5954 3.76211 34.8244 4.64515 34.8244 5.77939C34.8244 6.60332 34.7241 7.27956 34.5245 7.8065C34.325 8.33337 34.0371 8.74375 33.6604 9.0375C33.2825 9.33134 32.814 9.47744 32.2508 9.47744C31.6794 9.47744 31.2061 9.351 30.8307 9.09823C30.4564 8.84385 30.1529 8.4433 29.9193 7.89512C29.6867 7.34691 29.5697 6.6608 29.5697 5.83683ZM31.1375 5.84666C31.1375 6.559 31.2319 7.06951 31.422 7.38137C31.6122 7.69158 31.8719 7.84751 32.1989 7.84751C32.5354 7.84751 32.7961 7.69487 32.9803 7.3912C33.1646 7.08594 33.258 6.53936 33.258 5.75145C33.258 5.08669 33.161 4.60246 32.9686 4.29557C32.7761 3.99022 32.5151 3.83758 32.1845 3.83758C31.8696 3.83758 31.6157 3.9919 31.4243 4.30379C31.2332 4.61398 31.1375 5.12938 31.1375 5.84666ZM35.6709 2.30785H38.6045C39.0932 2.30785 39.4686 2.4769 39.7296 2.81335C39.9916 3.14987 40.1226 3.5668 40.1226 4.06246C40.1226 4.47939 40.0295 4.83725 39.8429 5.13592C39.7178 5.33454 39.5359 5.49208 39.2961 5.60703C39.66 5.7285 39.9279 5.93856 40.1001 6.23399C40.2713 6.53113 40.3575 6.90374 40.3575 7.35183C40.3575 7.71784 40.2961 8.04613 40.1745 8.33828C40.0517 8.63043 39.8854 8.86023 39.6728 9.03098C39.5418 9.136 39.3435 9.21318 39.0779 9.26078C38.725 9.32474 38.4911 9.3576 38.3755 9.3576H35.6709V2.30785ZM37.2517 5.07357H37.9328C38.1772 5.07357 38.3471 5.01445 38.4438 4.89797C38.5395 4.77974 38.5868 4.61066 38.5868 4.39078C38.5868 4.18556 38.5395 4.02468 38.4438 3.90984C38.3471 3.79328 38.1805 3.73585 37.9433 3.73585H37.2517V5.07357ZM37.2517 7.8426H38.0508C38.3212 7.8426 38.5111 7.77696 38.6211 7.64397C38.7319 7.51107 38.7874 7.33209 38.7874 7.10728C38.7874 6.89883 38.7332 6.73138 38.6234 6.605C38.5137 6.47861 38.3223 6.41458 38.0472 6.41458H37.2517V7.8426ZM40.9798 5.83683C40.9798 4.68621 41.2111 3.78997 41.6714 3.14987C42.133 2.50808 42.7753 2.18799 43.5982 2.18799C44.4423 2.18799 45.0928 2.50316 45.5495 3.13344C46.0052 3.76211 46.2342 4.64515 46.2342 5.77939C46.2342 6.60332 46.1339 7.27956 45.9343 7.8065C45.735 8.33337 45.4469 8.74375 45.0702 9.0375C44.6926 9.33134 44.2238 9.47744 43.6606 9.47744C43.0892 9.47744 42.6159 9.351 42.2405 9.09823C41.8661 8.84385 41.5629 8.4433 41.3291 7.89512C41.0965 7.34691 40.9798 6.6608 40.9798 5.83683ZM42.5476 5.84666C42.5476 6.559 42.642 7.06951 42.8318 7.38137C43.0219 7.69158 43.2817 7.84751 43.6087 7.84751C43.9451 7.84751 44.2061 7.69487 44.3904 7.3912C44.5743 7.08594 44.6677 6.53936 44.6677 5.75145C44.6677 5.08669 44.5708 4.60246 44.3786 4.29557C44.1862 3.99022 43.9252 3.83758 43.5946 3.83758C43.2794 3.83758 43.0255 3.9919 42.8344 4.30379C42.643 4.61398 42.5476 5.12938 42.5476 5.84666Z" fill="#F3F3F3" stroke="#F3F3F3" stroke-width="0.216027"/>
<path d="M2.34277 11.0039V36.3021H45.6579C45.6579 27.9146 45.6579 19.5296 45.6579 11.0039H2.34277Z" fill="#F3F3F3" stroke="#F3F3F3" stroke-width="0.567"/>
<path d="M39.1842 44.1191C39.0003 44.9941 38.7467 45.8474 38.4281 46.6748L35.4497 46.7819C35.2908 47.8259 34.5119 49.1314 33.7927 49.6467L35.3845 51.7693C34.3761 52.9214 33.2144 53.9198 31.9342 54.7273L29.952 52.8389C28.9709 53.526 27.4664 53.8352 26.472 53.9806L26.48 56.818C25.6903 56.95 24.8807 57.0188 24.0563 57.0188C23.3566 57.0188 22.6644 56.9681 21.9838 56.87L21.7959 53.8885C20.5598 53.6316 19.3268 53.1729 18.357 52.5468L16.4023 54.8659C15.0461 54.0473 13.8209 53.0104 12.7617 51.8076L14.6846 49.7603L12.9587 46.9053L9.71819 46.7635C9.3954 45.9224 9.136 45.0467 8.94629 44.1429L39.1842 44.1191Z" fill="#5B5B5B" stroke="#F3F3F3" stroke-width="1.00019"/>
<path d="M31.9908 34.6964C33.0543 36.3742 33.6896 38.405 33.6896 40.5927C33.6896 46.3591 29.3668 51.0355 24.0364 51.0355C18.7061 51.0355 14.3833 46.1565 14.3833 40.5927C14.3833 35.0289 18.2493 30.2187 27.7149 30.2187L34.6392 30.1499V32.2802C33.9969 32.3483 32.0295 33.0419 31.4282 33.7658C31.6027 34.0996 31.8214 34.3691 31.9908 34.6964Z" fill="#5B5B5B" stroke="#F3F3F3" stroke-width="2.00038"/>
<path d="M10.8099 40.4746H14.2007L11.3635 43.5982H8.04199L10.8099 40.4746Z" fill="#5B5B5B"/>
<path d="M10.8099 39.8779H14.2007L11.3635 36.7544H8.04199L10.8099 39.8779Z" fill="#5B5B5B"/>
<path d="M9.7718 39.878L6.93465 36.7544L1.29492 36.7192V37.3508H4.1417L4.70156 37.9828H1.29492V38.6144H5.26142L5.8212 39.2462H1.29492V39.878H9.7718Z" fill="#5B5B5B"/>
<path d="M9.7718 40.4395L6.93465 43.5633L1.29492 43.5985V42.9667H4.1417L4.70156 42.3349H1.29492V41.7031H5.26142L5.8212 41.0713H1.29492V40.4395H9.7718Z" fill="#5B5B5B"/>
<path d="M37.4378 40.4746H34.0469L36.884 43.5982H40.2056L37.4378 40.4746Z" fill="#5B5B5B"/>
<path d="M37.4378 39.8779H34.0469L36.884 36.7544H40.2056L37.4378 39.8779Z" fill="#5B5B5B"/>
<path d="M38.4756 39.878L41.3127 36.7544L46.9525 36.7192V37.3508H44.1059L43.546 37.9828H46.9525V38.6144H42.9862L42.4263 39.2462H46.9525V39.878H38.4756Z" fill="#5B5B5B"/>
<path d="M38.4756 40.4395L41.3127 43.5633L46.9525 43.5985V42.9667H44.1059L43.546 42.3349H46.9525V41.7031H42.9862L42.4263 41.0713H46.9525V40.4395H38.4756Z" fill="#5B5B5B"/>
</g>
<defs>
<clipPath id="clip0_4_358">
<rect width="48" height="77" fill="white"/>
</clipPath>
</defs>
</svg>
