<svg width="176" height="58" viewBox="0 0 176 58" fill="none" xmlns="http://www.w3.org/2000/svg">
<g clip-path="url(#clip0_4_332)">
<path d="M89.8038 29.8403H87.3982L83.6157 24.9878V29.8403H81.5278V19.4844H83.6157V24.0558L87.2469 19.4844H89.6525L85.7339 24.5144L89.8038 29.8403Z" fill="#5B5B5B"/>
<path d="M96.3959 19.4844H98.484L95.3065 26.9851C94.4592 28.9971 93.0673 29.9488 91.1308 29.8403V27.9319C91.6956 27.9812 92.1494 27.9072 92.4924 27.71C92.8454 27.5028 93.1379 27.1725 93.3699 26.7188L89.9053 19.4844H91.9932L94.308 24.4848L96.3959 19.4844Z" fill="#5B5B5B"/>
<path d="M104.576 24.4849C105.584 25.0076 106.089 25.8262 106.089 26.9408C106.089 27.8678 105.73 28.6174 105.015 29.1894C104.298 29.7616 103.375 30.0476 102.245 30.0476C100.279 30.0476 98.9625 29.2339 98.2964 27.6065L100.097 26.6153C100.42 27.6213 101.136 28.1242 102.245 28.1242C102.821 28.1242 103.259 28.006 103.562 27.7692C103.864 27.5326 104.016 27.2119 104.016 26.8076C104.016 26.4033 103.864 26.0826 103.562 25.846C103.269 25.6092 102.846 25.4909 102.291 25.4909H100.974V23.6712H101.973C102.498 23.6712 102.906 23.5627 103.199 23.3457C103.492 23.1189 103.638 22.8132 103.638 22.4285C103.638 22.0438 103.511 21.743 103.259 21.526C103.008 21.2993 102.634 21.1858 102.14 21.1858C101.232 21.1858 100.596 21.6198 100.233 22.4877L98.4636 21.4817C99.1793 20.0121 100.405 19.2773 102.14 19.2773C103.188 19.2773 104.046 19.5535 104.712 20.1058C105.377 20.6581 105.711 21.388 105.711 22.2953C105.711 23.2225 105.332 23.9523 104.576 24.4849Z" fill="#5B5B5B"/>
<path d="M111.499 23.4049C112.527 23.4049 113.37 23.7057 114.025 24.3073C114.68 24.8991 115.009 25.6684 115.009 26.6152C115.009 27.572 114.68 28.3511 114.025 28.9527C113.37 29.5445 112.527 29.8403 111.499 29.8403H107.444V19.4844H114.101V21.4373H109.532V23.4049H111.499ZM111.499 27.9319C111.912 27.9319 112.255 27.8185 112.527 27.5916C112.8 27.355 112.936 27.0294 112.936 26.6152C112.936 26.201 112.8 25.8804 112.527 25.6536C112.255 25.4267 111.912 25.3133 111.499 25.3133H109.532V27.9319H111.499Z" fill="#5B5B5B"/>
<path d="M122.88 29.8403L122.245 27.9763H118.024L117.388 29.8403H115.134L118.841 19.4844H121.428L125.15 29.8403H122.88ZM118.689 26.0679H121.595L120.142 21.8367L118.689 26.0679Z" fill="#5B5B5B"/>
<path d="M130.818 30.0476C129.224 30.0476 127.907 29.5297 126.869 28.4941C125.829 27.4586 125.31 26.1813 125.31 24.6624C125.31 23.1337 125.829 21.8564 126.869 20.8307C127.907 19.7952 129.224 19.2773 130.818 19.2773C131.775 19.2773 132.658 19.4993 133.464 19.9431C134.282 20.3771 134.917 20.9689 135.371 21.7184L133.57 22.7392C133.309 22.2757 132.935 21.9157 132.451 21.6592C131.967 21.3929 131.422 21.2598 130.818 21.2598C129.788 21.2598 128.956 21.5754 128.321 22.2066C127.695 22.8378 127.383 23.6564 127.383 24.6624C127.383 25.6586 127.695 26.4723 128.321 27.1034C128.956 27.7347 129.788 28.0503 130.818 28.0503C131.422 28.0503 131.967 27.9221 132.451 27.6657C132.945 27.3993 133.319 27.0394 133.57 26.5857L135.371 27.6065C134.917 28.3561 134.287 28.9528 133.48 29.3966C132.673 29.8306 131.785 30.0476 130.818 30.0476Z" fill="#5B5B5B"/>
<path d="M141.573 30.0476C139.979 30.0476 138.664 29.5297 137.624 28.4941C136.586 27.4586 136.066 26.1813 136.066 24.6624C136.066 23.1337 136.586 21.8564 137.624 20.8307C138.664 19.7952 139.979 19.2773 141.573 19.2773C142.532 19.2773 143.414 19.4993 144.221 19.9431C145.038 20.3771 145.673 20.9689 146.128 21.7184L144.327 22.7392C144.064 22.2757 143.692 21.9157 143.208 21.6592C142.723 21.3929 142.179 21.2598 141.573 21.2598C140.544 21.2598 139.713 21.5754 139.077 22.2066C138.452 22.8378 138.139 23.6564 138.139 24.6624C138.139 25.6586 138.452 26.4723 139.077 27.1034C139.713 27.7347 140.544 28.0503 141.573 28.0503C142.179 28.0503 142.723 27.9221 143.208 27.6657C143.701 27.3993 144.075 27.0394 144.327 26.5857L146.128 27.6065C145.673 28.3561 145.043 28.9528 144.236 29.3966C143.429 29.8306 142.541 30.0476 141.573 30.0476Z" fill="#5B5B5B"/>
<path d="M155.686 29.8403H153.28L149.498 24.9878V29.8403H147.41V19.4844H149.498V24.0558L153.129 19.4844H155.534L151.616 24.5144L155.686 29.8403Z" fill="#5B5B5B"/>
<path d="M162.846 29.8403V23.5233L158.307 29.8403H156.718V19.4844H158.806V25.8164L163.345 19.4844H164.933V29.8403H162.846Z" fill="#5B5B5B"/>
<path d="M168.804 18.5373V16.8804H173.192V18.5373H168.804ZM173.025 29.84V23.523L168.486 29.84H166.898V19.4841H168.986V25.8161L173.525 19.4841H175.113V29.84H173.025Z" fill="#5B5B5B"/>
<path d="M80.6953 43.8832V42.997C81.1916 43.0674 81.562 42.9338 81.8065 42.5961C82.0583 42.2516 82.1841 41.6151 82.1841 40.6867V36.4985H87.1685V43.8832H86.1652V37.4268H83.1875V40.6867C83.1875 41.3478 83.1227 41.9034 82.9933 42.3535C82.871 42.7966 82.6912 43.1307 82.4539 43.3558C82.2237 43.5808 81.9647 43.7355 81.6771 43.8199C81.3966 43.8972 81.0693 43.9183 80.6953 43.8832Z" fill="#5B5B5B"/>
<path d="M93.4851 43.8832V38.3763L89.6011 43.8832H88.792V36.4985H89.7953V42.016L93.6792 36.4985H94.4885V43.8832H93.4851Z" fill="#5B5B5B"/>
<path d="M100.937 36.4985V37.4268H98.7039V43.8832H97.7111V37.4268H95.4888V36.4985H100.937Z" fill="#5B5B5B"/>
<path d="M102.934 42.9549H106.44V43.8832H101.93V36.4985H106.386V37.4268H102.934V39.695H106.116V40.6128H102.934V42.9549Z" fill="#5B5B5B"/>
<path d="M109.043 35.7075V34.9058H111.956V35.7075H109.043ZM112.345 43.8834V38.3765L108.46 43.8834H107.651V36.4988H108.654V42.0162L112.538 36.4988H113.348V43.8834H112.345Z" fill="#5B5B5B"/>
<path d="M119.634 36.4985H120.627V43.8832H119.634V40.5601H115.966V43.8832H114.963V36.4985H115.966V39.6318H119.634V36.4985Z" fill="#5B5B5B"/>
<path d="M122.243 43.8832V36.4985H123.247V39.1359H124.983C125.681 39.1359 126.26 39.3645 126.721 39.8216C127.188 40.2788 127.422 40.8414 127.422 41.5095C127.422 42.1847 127.188 42.7509 126.721 43.208C126.26 43.6581 125.681 43.8832 124.983 43.8832H122.243ZM128.188 43.8832V36.4985H129.191V43.8832H128.188ZM123.247 42.9654H124.983C125.4 42.9654 125.746 42.8282 126.019 42.5539C126.292 42.2797 126.429 41.9315 126.429 41.5095C126.429 41.0876 126.292 40.7395 126.019 40.4652C125.746 40.1909 125.4 40.0537 124.983 40.0537H123.247V42.9654Z" fill="#5B5B5B"/>
<path d="M132.2 35.7075V34.9058H135.113V35.7075H132.2ZM135.501 43.8834V38.3765L131.618 43.8834H130.809V36.4988H131.812V42.0162L135.696 36.4988H136.505V43.8834H135.501Z" fill="#5B5B5B"/>
<path d="M144.486 40.0643C144.874 40.226 145.177 40.4616 145.392 40.771C145.608 41.0805 145.716 41.4462 145.716 41.8682C145.716 42.5012 145.471 43.0181 144.982 43.419C144.501 43.8199 143.86 44.0204 143.062 44.0204C142.335 44.0204 141.749 43.8622 141.304 43.5456C140.865 43.2291 140.556 42.8212 140.376 42.3218L141.228 41.8472C141.45 42.6771 142.062 43.092 143.062 43.092C143.587 43.092 143.993 42.9794 144.281 42.7544C144.569 42.5224 144.713 42.2164 144.713 41.8366C144.713 41.4568 144.576 41.1509 144.302 40.9188C144.037 40.6867 143.663 40.5706 143.18 40.5706H142.296V39.6739H142.932C143.393 39.6739 143.76 39.5649 144.033 39.3469C144.306 39.1218 144.443 38.8299 144.443 38.4713C144.443 38.1196 144.313 37.8348 144.054 37.6168C143.803 37.3917 143.451 37.2792 142.998 37.2792C142.163 37.2792 141.605 37.6414 141.325 38.3658L140.484 37.891C140.937 36.8713 141.774 36.3613 142.998 36.3613C143.724 36.3613 144.31 36.5582 144.756 36.9522C145.209 37.346 145.435 37.8454 145.435 38.4502C145.435 39.1535 145.119 39.6915 144.486 40.0643Z" fill="#5B5B5B"/>
<path d="M151.881 43.8832L151.267 42.2269H147.868L147.253 43.8832H146.185L149.001 36.4985H150.134L152.95 43.8832H151.881ZM148.213 41.3091H150.922L149.562 37.6695L148.213 41.3091Z" fill="#5B5B5B"/>
<path d="M158.156 40.0537C158.501 40.2155 158.774 40.4476 158.975 40.75C159.185 41.0524 159.289 41.4006 159.289 41.7944C159.289 42.3852 159.077 42.881 158.652 43.2819C158.228 43.6827 157.709 43.8832 157.099 43.8832H153.84V36.4985H156.861C157.451 36.4985 157.951 36.6919 158.361 37.0787C158.77 37.4655 158.975 37.9438 158.975 38.5135C158.975 39.1676 158.702 39.6809 158.156 40.0537ZM156.861 37.4164H154.844V39.6739H156.861C157.178 39.6739 157.444 39.5649 157.66 39.3469C157.875 39.1289 157.983 38.8616 157.983 38.5451C157.983 38.2357 157.872 37.9719 157.648 37.7539C157.433 37.5288 157.171 37.4164 156.861 37.4164ZM157.099 42.9654C157.436 42.9654 157.72 42.8493 157.951 42.6173C158.181 42.3852 158.296 42.1003 158.296 41.7627C158.296 41.4321 158.177 41.1509 157.94 40.9188C157.709 40.6867 157.429 40.5706 157.099 40.5706H154.844V42.9654H157.099Z" fill="#5B5B5B"/>
<path d="M166.756 42.9021C166.002 43.6476 165.077 44.0204 163.984 44.0204C162.891 44.0204 161.966 43.6476 161.211 42.9021C160.456 42.1566 160.078 41.2528 160.078 40.1909C160.078 39.1218 160.456 38.2181 161.211 37.4796C161.966 36.7341 162.891 36.3613 163.984 36.3613C165.077 36.3613 166.002 36.7341 166.756 37.4796C167.52 38.2181 167.901 39.1218 167.901 40.1909C167.901 41.2528 167.52 42.1566 166.756 42.9021ZM161.902 42.2375C162.463 42.786 163.157 43.0603 163.984 43.0603C164.812 43.0603 165.502 42.786 166.055 42.2375C166.616 41.6818 166.897 40.9996 166.897 40.1909C166.897 39.375 166.616 38.6928 166.055 38.1442C165.502 37.5886 164.812 37.3108 163.984 37.3108C163.157 37.3108 162.463 37.5886 161.902 38.1442C161.348 38.6928 161.071 39.375 161.071 40.1909C161.071 40.9996 161.348 41.6818 161.902 42.2375Z" fill="#5B5B5B"/>
<path d="M174.304 42.9549H175.113V45.2968H174.109V43.8832H169.125V45.2968H168.123V42.9549H168.78C169.248 42.3852 169.482 41.5201 169.482 40.3596V36.4985H174.304V42.9549ZM169.913 42.9549H173.3V37.4164H170.484V40.3807C170.484 41.499 170.294 42.357 169.913 42.9549Z" fill="#5B5B5B"/>
<path d="M24.6013 57.7648L34.9389 47.6563L45.2765 57.7648L69.8779 33.7309L53.4951 17.7109L48.8763 22.2273L60.6405 33.7307L45.2878 48.743L34.9385 38.6239L24.59 48.743L9.23744 33.7307L21.0017 22.2273L16.3829 17.7109L0 33.7305L24.6013 57.7648Z" fill="#5B5B5B"/>
<path fill-rule="evenodd" clip-rule="evenodd" d="M24.9357 21.8942L18.896 15.9883L34.8089 0.428223L50.7218 15.9883L44.682 21.8942L34.8089 12.2399L24.9357 21.8942ZM24.9357 39.8836L18.896 33.9778L34.8089 18.4177L50.7218 33.9778L44.682 39.8836L34.8089 30.2293L24.9357 39.8836Z" fill="#5B5B5B"/>
</g>
<defs>
<clipPath id="clip0_4_332">
<rect width="176" height="58" fill="white"/>
</clipPath>
</defs>
</svg>
