<svg width="157" height="66" viewBox="0 0 157 66" fill="none" xmlns="http://www.w3.org/2000/svg">
<path d="M0.799006 63V55.7273H5.33381V56.6719H1.89631V58.6605H3.52273C4.0625 58.6605 4.5206 58.7481 4.89702 58.9233C5.2758 59.0985 5.56463 59.3459 5.76349 59.6655C5.96473 59.9851 6.06534 60.3615 6.06534 60.7947C6.06534 61.228 5.96473 61.6103 5.76349 61.9418C5.56463 62.2732 5.2758 62.5324 4.89702 62.7195C4.5206 62.9065 4.0625 63 3.52273 63H0.799006ZM1.89631 62.0767H3.52273C3.83523 62.0767 4.0992 62.0152 4.31463 61.892C4.53243 61.7689 4.69697 61.6091 4.80824 61.4126C4.92188 61.2161 4.97869 61.0054 4.97869 60.7805C4.97869 60.4538 4.85322 60.1733 4.60227 59.9389C4.35133 59.7022 3.99148 59.5838 3.52273 59.5838H1.89631V62.0767ZM6.84659 63L6.84304 62.0803H7.03835C7.18987 62.0803 7.31652 62.0483 7.41832 61.9844C7.52249 61.9181 7.60772 61.8068 7.67401 61.6506C7.74029 61.4943 7.79119 61.2789 7.8267 61.0043C7.86222 60.7273 7.88826 60.3793 7.90483 59.9602L8.00071 57.5455H11.8075V63H10.767V58.4616H8.98438L8.89915 60.3153C8.87784 60.7652 8.83168 61.1581 8.76065 61.4943C8.692 61.8305 8.59138 62.111 8.45881 62.3359C8.32623 62.5585 8.15578 62.7254 7.94744 62.8366C7.73911 62.9455 7.4858 63 7.1875 63H6.84659ZM14.8109 63.1207C14.4653 63.1207 14.1528 63.0568 13.8734 62.929C13.594 62.7988 13.3727 62.6106 13.2093 62.3643C13.0484 62.1181 12.9679 61.8163 12.9679 61.4588C12.9679 61.151 13.027 60.8977 13.1454 60.6989C13.2638 60.5 13.4236 60.3426 13.6248 60.2266C13.8261 60.1106 14.051 60.023 14.2995 59.9638C14.5481 59.9046 14.8014 59.8596 15.0595 59.8288C15.3862 59.791 15.6513 59.7602 15.8549 59.7365C16.0585 59.7105 16.2065 59.669 16.2988 59.6122C16.3912 59.5554 16.4373 59.4631 16.4373 59.3352V59.3104C16.4373 59.0002 16.3497 58.7599 16.1745 58.5895C16.0017 58.419 15.7437 58.3338 15.4004 58.3338C15.0429 58.3338 14.7612 58.4131 14.5552 58.5717C14.3516 58.728 14.2108 58.902 14.1326 59.0938L13.1348 58.8665C13.2531 58.535 13.426 58.2675 13.6532 58.0639C13.8829 57.858 14.1468 57.7088 14.4451 57.6165C14.7434 57.5218 15.0571 57.4744 15.3862 57.4744C15.604 57.4744 15.8348 57.5005 16.0787 57.5526C16.3249 57.6023 16.5545 57.6946 16.7676 57.8295C16.983 57.9645 17.1594 58.1574 17.2967 58.4084C17.434 58.657 17.5027 58.9801 17.5027 59.3778V63H16.4657V62.2543H16.4231C16.3545 62.3916 16.2515 62.5265 16.1142 62.6591C15.9769 62.7917 15.8005 62.9018 15.585 62.9893C15.3696 63.0769 15.1116 63.1207 14.8109 63.1207ZM15.0417 62.2685C15.3353 62.2685 15.5862 62.2105 15.7946 62.0945C16.0053 61.9785 16.1651 61.8269 16.274 61.6399C16.3852 61.4505 16.4409 61.2481 16.4409 61.0327V60.3295C16.403 60.3674 16.3296 60.4029 16.2207 60.4361C16.1142 60.4669 15.9922 60.4941 15.8549 60.5178C15.7176 60.5391 15.5839 60.5592 15.4537 60.5781C15.3234 60.5947 15.2145 60.6089 15.127 60.6207C14.921 60.6468 14.7328 60.6906 14.5623 60.7521C14.3942 60.8137 14.2593 60.9025 14.1575 61.0185C14.0581 61.1321 14.0083 61.2836 14.0083 61.473C14.0083 61.7358 14.1054 61.9347 14.2995 62.0696C14.4937 62.2022 14.7411 62.2685 15.0417 62.2685ZM22.4041 57.5455V58.4616H19.9645V63H18.9169V57.5455H22.4041ZM25.57 63.1101C25.0586 63.1101 24.6123 62.9929 24.2312 62.7585C23.85 62.5241 23.5541 62.1963 23.3434 61.7749C23.1327 61.3535 23.0273 60.861 23.0273 60.2976C23.0273 59.7318 23.1327 59.237 23.3434 58.8132C23.5541 58.3894 23.85 58.0604 24.2312 57.826C24.6123 57.5916 25.0586 57.4744 25.57 57.4744C26.0813 57.4744 26.5276 57.5916 26.9087 57.826C27.2899 58.0604 27.5858 58.3894 27.7965 58.8132C28.0072 59.237 28.1126 59.7318 28.1126 60.2976C28.1126 60.861 28.0072 61.3535 27.7965 61.7749C27.5858 62.1963 27.2899 62.5241 26.9087 62.7585C26.5276 62.9929 26.0813 63.1101 25.57 63.1101ZM25.5735 62.2188C25.9049 62.2188 26.1796 62.1312 26.3974 61.956C26.6152 61.7808 26.7762 61.5476 26.8803 61.2564C26.9869 60.9652 27.0401 60.6444 27.0401 60.294C27.0401 59.946 26.9869 59.6264 26.8803 59.3352C26.7762 59.0417 26.6152 58.8061 26.3974 58.6286C26.1796 58.451 25.9049 58.3622 25.5735 58.3622C25.2397 58.3622 24.9627 58.451 24.7425 58.6286C24.5247 58.8061 24.3626 59.0417 24.256 59.3352C24.1519 59.6264 24.0998 59.946 24.0998 60.294C24.0998 60.6444 24.1519 60.9652 24.256 61.2564C24.3626 61.5476 24.5247 61.7808 24.7425 61.956C24.9627 62.1312 25.2397 62.2188 25.5735 62.2188ZM28.6408 58.4616V57.5455H33.2431V58.4616H31.464V63H30.427V58.4616H28.6408ZM34.3661 63V57.5455H36.6282C37.2437 57.5455 37.7314 57.6768 38.0913 57.9396C38.4511 58.2 38.631 58.554 38.631 59.0014C38.631 59.321 38.5292 59.5743 38.3256 59.7614C38.122 59.9484 37.8522 60.0739 37.516 60.1378C37.7598 60.1662 37.9835 60.2396 38.1871 60.358C38.3907 60.474 38.5541 60.6302 38.6772 60.8267C38.8027 61.0232 38.8654 61.2576 38.8654 61.5298C38.8654 61.8187 38.7908 62.0743 38.6417 62.2969C38.4925 62.517 38.2759 62.6899 37.9918 62.8153C37.7101 62.9384 37.3704 63 36.9727 63H34.3661ZM35.364 62.1122H36.9727C37.2354 62.1122 37.4414 62.0495 37.5906 61.924C37.7397 61.7985 37.8143 61.6281 37.8143 61.4126C37.8143 61.1593 37.7397 60.9605 37.5906 60.8161C37.4414 60.6693 37.2354 60.5959 36.9727 60.5959H35.364V62.1122ZM35.364 59.8182H36.6388C36.8377 59.8182 37.0082 59.7898 37.1502 59.733C37.2946 59.6761 37.4047 59.5956 37.4805 59.4915C37.5586 59.3849 37.5977 59.2595 37.5977 59.1151C37.5977 58.9044 37.5112 58.7398 37.3384 58.6214C37.1656 58.5031 36.9289 58.4439 36.6282 58.4439H35.364V59.8182ZM42.3278 63.1101C41.8164 63.1101 41.3701 62.9929 40.989 62.7585C40.6078 62.5241 40.3119 62.1963 40.1012 61.7749C39.8905 61.3535 39.7852 60.861 39.7852 60.2976C39.7852 59.7318 39.8905 59.237 40.1012 58.8132C40.3119 58.3894 40.6078 58.0604 40.989 57.826C41.3701 57.5916 41.8164 57.4744 42.3278 57.4744C42.8391 57.4744 43.2854 57.5916 43.6665 57.826C44.0477 58.0604 44.3436 58.3894 44.5543 58.8132C44.765 59.237 44.8704 59.7318 44.8704 60.2976C44.8704 60.861 44.765 61.3535 44.5543 61.7749C44.3436 62.1963 44.0477 62.5241 43.6665 62.7585C43.2854 62.9929 42.8391 63.1101 42.3278 63.1101ZM42.3313 62.2188C42.6628 62.2188 42.9374 62.1312 43.1552 61.956C43.373 61.7808 43.534 61.5476 43.6381 61.2564C43.7447 60.9652 43.7979 60.6444 43.7979 60.294C43.7979 59.946 43.7447 59.6264 43.6381 59.3352C43.534 59.0417 43.373 58.8061 43.1552 58.6286C42.9374 58.451 42.6628 58.3622 42.3313 58.3622C41.9975 58.3622 41.7205 58.451 41.5004 58.6286C41.2826 58.8061 41.1204 59.0417 41.0138 59.3352C40.9097 59.6264 40.8576 59.946 40.8576 60.294C40.8576 60.6444 40.9097 60.9652 41.0138 61.2564C41.1204 61.5476 41.2826 61.7808 41.5004 61.956C41.7205 62.1312 41.9975 62.2188 42.3313 62.2188ZM46.0556 65.0455V57.5455H47.0925V58.4297H47.1813C47.2428 58.3161 47.3316 58.1847 47.4476 58.0355C47.5636 57.8864 47.7246 57.7562 47.9306 57.6449C48.1365 57.5312 48.4088 57.4744 48.7473 57.4744C49.1877 57.4744 49.5807 57.5857 49.9263 57.8082C50.272 58.0308 50.543 58.3516 50.7395 58.7706C50.9384 59.1896 51.0378 59.6939 51.0378 60.2834C51.0378 60.8729 50.9396 61.3783 50.7431 61.7997C50.5466 62.2187 50.2767 62.5419 49.9334 62.7692C49.5901 62.9941 49.1983 63.1065 48.758 63.1065C48.4266 63.1065 48.1555 63.0509 47.9448 62.9396C47.7364 62.8284 47.5731 62.6982 47.4547 62.549C47.3364 62.3999 47.2452 62.2673 47.1813 62.1513H47.1174V65.0455H46.0556ZM47.0961 60.2727C47.0961 60.6562 47.1517 60.9924 47.263 61.2812C47.3742 61.5701 47.5352 61.7962 47.7459 61.9595C47.9566 62.1205 48.2147 62.201 48.5201 62.201C48.8373 62.201 49.1025 62.117 49.3155 61.9489C49.5286 61.7784 49.6896 61.5476 49.7985 61.2564C49.9097 60.9652 49.9654 60.6373 49.9654 60.2727C49.9654 59.9129 49.9109 59.5897 49.802 59.3033C49.6955 59.0168 49.5345 58.7907 49.3191 58.625C49.106 58.4593 48.8397 58.3764 48.5201 58.3764C48.2123 58.3764 47.9519 58.4557 47.7388 58.6143C47.5281 58.773 47.3683 58.9943 47.2594 59.2784C47.1505 59.5625 47.0961 59.8939 47.0961 60.2727ZM53.2679 61.5121L55.6721 57.5455H56.8155V63H55.775V59.0298L53.3816 63H52.2275V57.5455H53.2679V61.5121ZM57.5666 58.4616V57.5455H62.1689V58.4616H60.3897V63H59.3528V58.4616H57.5666ZM65.3888 63.1101C64.8514 63.1101 64.3886 62.9953 64.0004 62.7656C63.6145 62.5336 63.3162 62.2081 63.1055 61.7891C62.8971 61.3677 62.793 60.8741 62.793 60.3082C62.793 59.7495 62.8971 59.2571 63.1055 58.831C63.3162 58.4048 63.6097 58.0722 63.9862 57.8331C64.3649 57.594 64.8076 57.4744 65.3143 57.4744C65.622 57.4744 65.9203 57.5253 66.2092 57.6271C66.498 57.7289 66.7572 57.8887 66.9869 58.1065C67.2165 58.3243 67.3976 58.6072 67.5302 58.9553C67.6628 59.3009 67.729 59.7211 67.729 60.2159V60.5923H63.3931V59.7969H66.6886C66.6886 59.5175 66.6317 59.2701 66.5181 59.0547C66.4045 58.8369 66.2447 58.6652 66.0387 58.5398C65.8351 58.4143 65.596 58.3516 65.3214 58.3516C65.0231 58.3516 64.7627 58.425 64.5401 58.5717C64.32 58.7161 64.1495 58.9055 64.0288 59.1399C63.9104 59.3719 63.8512 59.6241 63.8512 59.8963V60.5178C63.8512 60.8823 63.9151 61.1925 64.043 61.4482C64.1732 61.7038 64.3543 61.8991 64.5863 62.0341C64.8183 62.1667 65.0894 62.233 65.3995 62.233C65.6007 62.233 65.7842 62.2045 65.9499 62.1477C66.1156 62.0885 66.2589 62.0009 66.3796 61.8849C66.5004 61.7689 66.5927 61.6257 66.6566 61.4553L67.6616 61.6364C67.5811 61.9323 67.4367 62.1915 67.2283 62.4141C67.0224 62.6342 66.7631 62.8059 66.4506 62.929C66.1405 63.0497 65.7866 63.1101 65.3888 63.1101ZM68.4775 63L68.4739 62.0803H68.6692C68.8207 62.0803 68.9474 62.0483 69.0492 61.9844C69.1533 61.9181 69.2386 61.8068 69.3049 61.6506C69.3712 61.4943 69.4221 61.2789 69.4576 61.0043C69.4931 60.7273 69.5191 60.3793 69.5357 59.9602L69.6316 57.5455H73.4384V63H72.3979V58.4616H70.6152L70.53 60.3153C70.5087 60.7652 70.4625 61.1581 70.3915 61.4943C70.3229 61.8305 70.2222 62.111 70.0897 62.3359C69.9571 62.5585 69.7866 62.7254 69.5783 62.8366C69.37 62.9455 69.1167 63 68.8184 63H68.4775ZM75.6534 59.4205H77.2372C77.9048 59.4205 78.4186 59.5862 78.7784 59.9176C79.1383 60.2491 79.3182 60.6764 79.3182 61.1996C79.3182 61.5405 79.2377 61.8471 79.0767 62.1193C78.9157 62.3916 78.6802 62.607 78.37 62.7656C78.0599 62.9219 77.6823 63 77.2372 63H74.8544V57.5455H75.8949V62.0838H77.2372C77.5426 62.0838 77.7936 62.0045 77.9901 61.8459C78.1866 61.6849 78.2848 61.4801 78.2848 61.2315C78.2848 60.9687 78.1866 60.7545 77.9901 60.5888C77.7936 60.4207 77.5426 60.3366 77.2372 60.3366H75.6534V59.4205ZM84.2054 59.8146V60.7344H81.2509V59.8146H84.2054ZM81.5492 57.5455V63H80.5087V57.5455H81.5492ZM84.9476 57.5455V63H83.9107V57.5455H84.9476ZM87.1671 59.4205H88.7509C89.4185 59.4205 89.9322 59.5862 90.2921 59.9176C90.6519 60.2491 90.8319 60.6764 90.8319 61.1996C90.8319 61.5405 90.7514 61.8471 90.5904 62.1193C90.4294 62.3916 90.1938 62.607 89.8837 62.7656C89.5736 62.9219 89.196 63 88.7509 63H86.3681V57.5455H87.4086V62.0838H88.7509C89.0563 62.0838 89.3072 62.0045 89.5037 61.8459C89.7002 61.6849 89.7985 61.4801 89.7985 61.2315C89.7985 60.9687 89.7002 60.7545 89.5037 60.5888C89.3072 60.4207 89.0563 60.3366 88.7509 60.3366H87.1671V59.4205ZM91.606 63V57.5455H92.6678V63H91.606ZM95.1332 61.5121L97.5373 57.5455H98.6808V63H97.6403V59.0298L95.2468 63H94.0927V57.5455H95.1332V61.5121ZM97.0827 55.6989H97.9563C97.9563 56.099 97.8143 56.4245 97.5302 56.6754C97.2485 56.924 96.8673 57.0483 96.3867 57.0483C95.9085 57.0483 95.5285 56.924 95.2468 56.6754C94.9651 56.4245 94.8242 56.099 94.8242 55.6989H95.6942C95.6942 55.8764 95.7463 56.0339 95.8505 56.1712C95.9547 56.3061 96.1334 56.3736 96.3867 56.3736C96.6353 56.3736 96.8129 56.3061 96.9194 56.1712C97.0283 56.0362 97.0827 55.8788 97.0827 55.6989ZM105.102 64.8572V55.7273H106.164V64.8572H105.102ZM105.102 63.1101C104.716 63.1101 104.365 63.0438 104.047 62.9112C103.73 62.7763 103.457 62.5845 103.227 62.3359C102.997 62.0874 102.82 61.7902 102.694 61.4446C102.571 61.099 102.51 60.7166 102.51 60.2976C102.51 59.8738 102.571 59.4891 102.694 59.1435C102.82 58.7978 102.997 58.5007 103.227 58.2521C103.457 58.0036 103.73 57.8118 104.047 57.6768C104.365 57.5419 104.716 57.4744 105.102 57.4744H105.365V63.1101H105.102ZM105.102 62.2152H105.251V58.3693H105.102C104.846 58.3693 104.624 58.4214 104.434 58.5256C104.245 58.6274 104.088 58.7682 103.962 58.9482C103.837 59.1257 103.742 59.3305 103.678 59.5625C103.617 59.7945 103.586 60.0395 103.586 60.2976C103.586 60.6432 103.641 60.9616 103.753 61.2528C103.864 61.5417 104.032 61.7749 104.257 61.9524C104.482 62.1276 104.764 62.2152 105.102 62.2152ZM106.164 63.1101H105.898V57.4744H106.164C106.55 57.4744 106.901 57.5419 107.219 57.6768C107.536 57.8118 107.808 58.0036 108.035 58.2521C108.265 58.5007 108.441 58.7978 108.564 59.1435C108.69 59.4891 108.753 59.8738 108.753 60.2976C108.753 60.7166 108.69 61.099 108.564 61.4446C108.441 61.7902 108.265 62.0874 108.035 62.3359C107.808 62.5845 107.536 62.7763 107.219 62.9112C106.901 63.0438 106.55 63.1101 106.164 63.1101ZM106.164 62.2152C106.42 62.2152 106.642 62.1655 106.831 62.0661C107.021 61.9643 107.178 61.8246 107.304 61.647C107.429 61.4671 107.523 61.2623 107.584 61.0327C107.646 60.8007 107.677 60.5556 107.677 60.2976C107.677 59.9543 107.621 59.6371 107.51 59.3459C107.401 59.0523 107.234 58.8168 107.009 58.6392C106.784 58.4593 106.502 58.3693 106.164 58.3693H106.011V62.2152H106.164ZM112.23 63.1101C111.719 63.1101 111.272 62.9929 110.891 62.7585C110.51 62.5241 110.214 62.1963 110.004 61.7749C109.793 61.3535 109.688 60.861 109.688 60.2976C109.688 59.7318 109.793 59.237 110.004 58.8132C110.214 58.3894 110.51 58.0604 110.891 57.826C111.272 57.5916 111.719 57.4744 112.23 57.4744C112.741 57.4744 113.188 57.5916 113.569 57.826C113.95 58.0604 114.246 58.3894 114.457 58.8132C114.667 59.237 114.773 59.7318 114.773 60.2976C114.773 60.861 114.667 61.3535 114.457 61.7749C114.246 62.1963 113.95 62.5241 113.569 62.7585C113.188 62.9929 112.741 63.1101 112.23 63.1101ZM112.234 62.2188C112.565 62.2188 112.84 62.1312 113.058 61.956C113.275 61.7808 113.436 61.5476 113.54 61.2564C113.647 60.9652 113.7 60.6444 113.7 60.294C113.7 59.946 113.647 59.6264 113.54 59.3352C113.436 59.0417 113.275 58.8061 113.058 58.6286C112.84 58.451 112.565 58.3622 112.234 58.3622C111.9 58.3622 111.623 58.451 111.403 58.6286C111.185 58.8061 111.023 59.0417 110.916 59.3352C110.812 59.6264 110.76 59.946 110.76 60.294C110.76 60.6444 110.812 60.9652 110.916 61.2564C111.023 61.5476 111.185 61.7808 111.403 61.956C111.623 62.1312 111.9 62.2188 112.234 62.2188ZM119.655 59.8146V60.7344H116.7V59.8146H119.655ZM116.998 57.5455V63H115.958V57.5455H116.998ZM120.397 57.5455V63H119.36V57.5455H120.397ZM121.285 64.5732V62.0803H121.729C121.842 61.9761 121.938 61.8518 122.016 61.7074C122.097 61.563 122.164 61.3913 122.219 61.1925C122.275 60.9936 122.323 60.7616 122.361 60.4964C122.398 60.2289 122.432 59.9235 122.46 59.5803L122.631 57.5455H126.338V62.0803H127.176V64.5732H126.139V63H122.336V64.5732H121.285ZM122.865 62.0803H125.301V58.4545H123.582L123.469 59.5803C123.414 60.1532 123.345 60.6503 123.263 61.0717C123.18 61.4908 123.047 61.8269 122.865 62.0803Z" fill="#57585A"/>
<path fill-rule="evenodd" clip-rule="evenodd" d="M94.1354 10.091C94.5126 9.90306 95.1113 8.85692 95.5667 9.17048C96.134 9.56112 94.9267 10.3129 94.5698 10.7974C95.0968 10.7999 95.8296 10.6358 96.2683 10.8583C96.5273 11.6058 95.8617 11.494 95.2881 11.5251C94.9664 11.5425 93.8885 11.542 93.6578 11.6326L91.9452 12.7984C91.7323 12.9409 91.5935 13.1022 91.2084 12.9784C90.7987 12.1639 92.056 12.0557 92.5568 11.4256C92.0388 11.3005 90.5405 11.2804 90.5068 10.7593C90.4592 10.0231 91.4953 10.5205 92.5148 10.6405C92.2739 10.3201 91.3303 9.5347 91.9986 9.27937C92.4441 9.1092 92.9843 10.1259 93.3124 10.3464C93.4089 9.88833 93.3958 8.85441 93.7946 8.73833C94.5395 8.52127 94.1722 9.68816 94.1356 10.091H94.1354ZM86.3687 12.8837C86.9439 12.5066 87.3356 11.8764 87.6916 11.9168C87.9268 11.9436 88.0674 12.138 88.0243 12.3506C87.9782 12.5784 86.6482 13.6679 86.3908 13.8896C85.8864 14.3245 85.8163 15.7107 85.4804 16.4527C85.2888 16.8758 84.606 16.7673 84.8268 16.0029C84.9447 15.5948 85.1515 15.061 85.2087 14.659C84.5126 14.9954 83.5321 15.7352 83.1908 15.4382C82.6776 14.9918 83.7344 14.5852 84.1711 14.3602L84.5153 14.1712C84.5275 14.1631 84.5422 14.1527 84.554 14.1442L84.6719 14.0503C84.2522 13.9847 83.7616 13.9362 83.4291 13.7645C83.2157 12.7842 84.3449 13.2181 85.0727 13.3656C84.8971 12.6803 84.2377 12.181 84.4861 11.7928C84.5906 11.6295 84.9179 11.4617 85.1703 11.9041C85.293 12.1191 85.4529 12.4742 85.6257 12.6266C85.6845 12.1366 85.6301 10.7386 86.3171 11.0601C86.754 11.2647 86.3723 12.4221 86.3689 12.8837H86.3687ZM98.5098 35.6219C98.974 35.6176 100.535 35.2534 100.686 35.6401C100.966 36.3585 99.7266 36.1982 98.8061 36.371C99.184 36.7342 100.288 36.9893 99.603 37.5857C99.1447 37.6312 98.5249 37.0659 98.1221 36.876C98.1495 37.2425 98.4361 38.3719 98.1276 38.5774C97.5022 38.9939 97.4416 37.7203 97.4309 37.3559L97.1604 37.7597C97.0845 37.9068 97.0013 38.063 96.9138 38.226C96.7803 38.4745 96.5601 38.9107 96.1843 38.6073C95.7736 38.2752 96.6729 37.27 96.7963 36.8197C96.3944 36.9547 95.6083 37.3554 95.1414 37.2677C94.7311 36.5387 95.326 36.5698 96.3737 36.1682C97.5699 35.7094 97.1572 36.1206 98.0014 35.0325C98.5109 34.3754 99.0734 33.3958 99.4878 33.8887C99.7395 34.1878 99.3327 34.5528 99.1521 34.7794C98.9442 35.0408 98.6919 35.3531 98.5095 35.6221L98.5098 35.6219ZM102.185 13.1355C102.543 12.9498 103.138 12.122 103.554 12.2395C103.947 12.35 103.825 12.7193 103.584 12.9482C103.483 13.0433 103.017 13.458 102.958 13.4936C103.384 13.5784 104.751 13.1204 104.653 13.8501C104.579 14.4069 103.324 14.1317 102.88 14.3122C103.256 14.7358 104.601 15.2716 103.862 15.8135C103.543 15.9278 102.308 14.8305 101.858 14.5108C101.202 14.044 98.4044 14.5342 98.9564 13.5637C99.0718 13.3608 99.2104 13.3818 99.4878 13.4057C99.9448 13.4447 100.418 13.4837 100.878 13.5428C100.826 13.3696 100.256 12.6954 100.106 12.5319C99.8652 12.2699 99.3523 11.7337 100.031 11.5134C100.309 11.4933 100.807 12.195 101.046 12.4868C101.227 12.7078 101.14 12.7064 101.384 12.8534C101.387 12.4622 101.185 11.1893 101.911 11.5316C102.357 11.7416 102.01 12.7633 102.185 13.136V13.1355ZM106.697 20.8696L107.293 20.2392C107.499 20.0089 107.853 19.8933 107.996 20.2396C108.129 20.5612 107.8 20.8015 107.633 21.0006C107.459 21.2086 107.257 21.4268 107.102 21.6421C107.504 21.6882 107.887 21.6665 108.297 21.6852C108.769 21.7067 108.969 22.0401 108.667 22.3464C108.432 22.5301 107.852 22.4237 107.479 22.417C107.727 22.9807 108.939 23.0233 108.493 23.8725C107.835 24.0015 107.4 23.2379 106.854 22.9739C106.935 23.9408 107.479 24.9438 106.463 24.7038C106.101 23.8768 106.147 22.4616 105.772 22.0228L104.449 20.5857C104.293 20.4186 104.094 20.2739 104.241 19.9444C104.6 19.5102 104.963 20.0335 105.173 20.2674C105.384 20.5028 105.737 20.8369 105.921 21.0701C106.021 20.5632 105.781 19.0143 106.329 18.914C106.975 18.7958 106.753 20.0989 106.697 20.8696H106.697ZM82.4868 24.6673C81.9088 24.921 81.811 23.8323 81.2493 23.0979C80.9883 23.8513 80.7751 25.0726 80.3235 25.0531C79.6091 25.0222 80.2483 23.9124 80.4668 23.0501C80.1543 23.169 80.067 23.3009 79.7824 23.4995C79.5734 23.6452 79.0822 23.7316 79.0545 23.3069C79.0307 22.9419 79.4149 22.8217 79.6199 22.6907C79.7953 22.5788 80.1527 22.3245 80.279 22.2115C79.718 22.0099 78.865 21.8974 78.769 21.5531C78.5305 20.6985 80.1369 21.3653 80.1556 21.37C79.7768 20.678 79.0701 20.2809 79.4095 19.8516C79.8453 19.3002 80.5462 20.5636 80.8195 21.0151L80.9368 20.574C80.9788 19.9086 80.9336 19.2094 81.4711 19.3155C81.8826 19.3967 81.7552 19.7965 81.719 20.2125C81.5488 22.1764 81.3935 21.7082 82.1362 23.1044C82.2897 23.3927 82.3874 23.6116 82.5316 23.8862C82.6952 24.1974 82.8803 24.4998 82.4872 24.6667L82.4868 24.6673ZM104.979 29.8193C105.5 29.3749 106.503 27.847 106.829 28.6303C107.027 29.1057 106.076 29.5762 105.681 30.214C106.084 30.1812 107.238 29.8232 107.066 30.5396C106.955 31.0032 105.925 30.8509 105.507 31.0429C105.778 31.4758 106.617 31.8411 106.566 32.2603C106.456 33.1616 105.374 31.9568 105.237 31.8772C105.257 32.3069 105.793 33.6168 105.1 33.5879C104.687 33.5706 104.713 33.1875 104.646 32.8447C104.58 32.5058 104.499 32.1753 104.454 31.8559C104.287 32.0037 104.091 32.4084 103.974 32.6093C103.802 32.907 103.696 33.2502 103.365 33.2218C102.588 33.1557 103.404 32.0801 103.608 31.7394C104.07 30.9695 104.239 30.9432 104.209 29.9567C104.194 29.4457 104.081 28.3327 104.256 27.9302C104.824 27.7498 104.907 27.9444 104.918 28.5297C104.925 28.9169 104.921 29.434 104.979 29.8195V29.8193ZM83.4713 30.8376C83.5816 31.1436 83.6856 31.4659 83.7984 31.7789C83.9084 32.0844 84.123 32.5238 84.037 32.8785C83.5063 33.2562 83.3947 32.918 83.2406 32.4539C83.1447 32.1655 82.944 31.5037 82.7957 31.3243C82.6181 31.6751 82.5033 32.8727 81.8815 32.3908C81.5583 32.1403 82.091 31.1621 82.1602 30.7475C81.4559 30.9529 80.2054 31.6918 80.4592 30.6212C80.7953 30.4139 81.2391 30.3546 81.5361 30.1298C81.087 29.9824 80.3475 29.877 80.046 29.6184C79.9196 28.5737 81.2062 29.2829 81.9238 29.4426C81.6774 28.8908 80.9942 28.2535 81.165 27.8884C81.2523 27.7015 81.4853 27.6079 81.7057 27.7455C81.898 27.8655 82.7411 29.3843 83.0283 29.7231C83.2923 30.0347 85.1624 30.6582 85.3878 30.9403C85.6823 31.3083 85.3272 31.7067 84.6878 31.3987C84.3302 31.2264 83.8167 30.9447 83.4715 30.8372L83.4713 30.8376ZM89.9773 35.66C90.4877 36.1098 91.194 36.3211 91.6376 36.8278C91.5282 37.9261 90.6221 36.8467 89.7 36.419C89.7667 36.7466 90.4056 37.9212 89.6301 37.8423C89.3092 37.8096 89.2561 37.4709 89.1706 37.2087C89.0843 36.9442 88.9839 36.651 88.8694 36.4095L88.6225 36.734C88.3647 37.1701 88.1542 37.7121 87.8032 37.6817C87.0237 37.6143 87.847 36.5973 88.0059 36.2904C87.155 36.5435 86.5327 37.1182 86.3104 36.5595C86.0604 35.9304 87.3003 35.9166 87.8154 35.5071C87.5673 35.3193 86.9592 35.2022 86.62 35.064C86.0706 34.8401 86.2504 34.2153 86.8442 34.344C87.1945 34.42 87.7327 34.6527 88.1075 34.7808C89.2468 35.17 88.9091 35.0971 90.5202 34.7233C90.8335 34.6507 91.4774 34.4008 91.7018 34.6645C92.0682 35.0954 91.4613 35.2758 91.1368 35.3506C90.9401 35.3957 90.1463 35.5526 89.9771 35.66H89.9773ZM95.8246 30.4011L97.0395 33.8074C97.2104 34.3169 97.5397 34.8052 97.2181 35.2663C96.5316 35.3745 96.5481 34.8539 96.3779 34.2919C96.22 33.7711 95.5597 31.7042 95.2878 30.7055L95.2867 30.7017L95.0982 30.0584C94.9538 29.7664 94.9316 29.3029 94.7558 29.1341L94.7432 29.2718L94.6259 30.7357L94.6249 30.7484C94.5257 32.0984 94.4371 33.4349 94.2303 34.8419C93.5475 39.4897 92.2587 44.7944 89.5971 48.6996C89.3795 49.0189 89.0721 49.358 88.9059 49.642C88.3022 50.4659 86.8202 49.7553 87.6428 48.6502C87.7777 48.3751 88.1169 48.0119 88.328 47.6878C91.4333 42.9205 92.6771 36.145 93.055 30.2441L93.1528 28.2402C93.1682 27.7829 93.1789 27.3333 93.1852 26.8932C92.9194 26.9489 92.7252 27.0366 92.3891 27.0316C91.8268 28.3201 90.6779 31.8307 90.0779 33.5257C89.9769 33.811 89.8155 34.37 89.6878 34.607C89.4785 34.9959 88.9125 34.8786 88.9297 34.4399C88.9419 34.1355 90.3466 30.8086 90.5663 30.2453L91.816 27.1261C92.0015 26.6602 92.1859 26.4023 91.6213 26.202C91.4102 26.5552 90.8807 27.1944 90.5789 27.5511C90.2329 27.9599 89.8562 28.4405 89.5212 28.8838C88.8278 29.7999 88.1185 30.6257 87.4163 31.5626C86.7475 32.4548 86.0167 33.3659 85.3082 34.2371C84.8977 34.742 84.9208 34.4529 85.4232 35.7781C85.557 36.131 86.0586 37.1126 85.8943 37.4441C85.7205 37.6576 85.4881 37.7045 85.2951 37.4788C85.178 37.3419 84.6043 35.7504 84.5479 35.5576C83.9853 36.2392 84.1514 38.705 83.1217 37.9485C83.0437 37.382 83.6876 35.8661 83.8214 35.1461C83.2977 35.3675 82.2669 36.0027 81.6611 36.3371C81.0694 36.6638 80.5842 36.0269 81.3587 35.6273L83.086 34.6532C82.6328 34.5752 80.8864 34.6232 80.6637 34.3938C80.6242 34.3533 80.27 33.7244 81.1779 33.7722L83.696 33.9192C84.2942 33.9595 84.2075 33.8085 84.5246 33.4522L91.0287 26.053C90.929 25.8936 90.8152 25.9089 90.88 25.6892C90.9417 25.4798 91.0489 25.5583 91.0803 25.2256L87.553 27.4266C87.3772 27.5527 87.1726 27.6826 86.9733 27.8048C86.8024 27.9096 86.5219 28.0937 86.3368 28.1832L86.2699 28.2355C86.0326 28.4059 85.7313 28.6362 85.4639 28.6946C85.3658 28.8793 84.6269 29.264 84.4079 29.4125C84.2116 29.5456 84.0335 29.6899 83.8517 29.7517C83.5308 29.8606 83.4365 29.6728 83.2882 29.4935C83.3511 29.0065 83.4885 29.0551 84.0219 28.7334C84.2452 28.5988 84.7596 28.2515 84.971 28.2368C85.2088 27.9746 85.2792 28.0068 85.6355 27.7981C85.8681 27.6618 86.0938 27.4646 86.3549 27.4348L87.4384 26.7576C88.2955 26.2651 90.0907 25.319 90.7923 24.7922C90.5955 24.6613 90.5243 24.5923 90.3905 24.4186C89.7363 24.4763 83.8931 25.9639 82.7381 26.2388C82.2658 26.3511 80.4304 26.7337 80.1635 26.8918C79.9979 27.3207 79.4649 29.434 79.2457 29.5814C79.0244 29.7298 78.7704 29.6216 78.6849 29.4214C78.5766 29.1684 79.1609 27.6 79.2421 27.2817C78.7269 27.4882 77.2727 28.9846 76.8166 28.6427C76.5904 28.3343 76.6602 28.1933 76.9541 27.9703C77.2278 27.7627 77.3919 27.6298 77.6097 27.4776C77.9244 27.2576 78.7548 26.756 78.9514 26.5125C78.2659 26.4088 76.5721 26.2237 76.0891 25.9756C75.8626 24.976 76.9848 25.4399 78.6139 25.6901C78.4573 25.3443 77.3711 24.5379 77.0956 24.2759C76.7283 23.927 77.0006 23.4379 77.4594 23.6202C77.8783 23.7872 79.2613 25.3199 79.8032 25.6681C80.0912 25.853 81.5563 25.4491 81.9977 25.3695C82.9399 25.1997 89.9395 23.8037 90.6501 23.7674C90.5882 23.5818 90.7412 23.3446 90.6777 23.2571C89.2371 23.0504 87.3944 22.9284 85.9322 22.7937C85.1907 22.7252 84.44 22.6476 83.6937 22.5868C83.1617 22.5434 81.6993 22.6316 82.0191 21.8871C82.2199 21.42 83.5861 21.805 84.1013 21.8769C86.3185 22.1867 88.9814 22.6027 91.1282 22.8111L91.2387 22.4273C90.5758 22.0613 81.2285 17.947 81.2254 17.9462C81.0052 17.8929 80.6128 18.2555 80.4298 18.3814C80.1706 18.5595 79.0452 19.4276 78.8714 19.4707C78.4444 19.5767 78.2103 19.1191 78.5089 18.8258C78.9729 18.3703 79.6683 18.1894 80.1 17.6551C79.5657 17.6219 79.0526 17.6106 78.5109 17.5894C78.0993 17.5732 77.1509 17.6496 77.417 17.0323C77.5752 16.6654 78.3481 16.8288 78.7776 16.8453C79.0926 16.8575 80.0727 16.9932 80.3536 16.8203C80.0742 16.6351 79.5996 16.0813 79.3338 15.7963C79.144 15.5927 78.4178 14.9388 78.4686 14.6355C78.5192 14.3329 78.8192 14.2396 79.0836 14.4263C79.5043 14.7237 80.143 15.641 80.6352 16.0415C80.604 15.5868 80.4495 15.02 80.3647 14.5616C80.267 14.0335 79.9952 13.2902 80.8603 13.5236C81.1497 14.1622 81.392 16.5774 81.6171 16.8545C81.809 17.0906 89.9854 21.1154 91.0475 21.706L91.1282 21.5625C91.1348 21.5511 91.1456 21.5324 91.1521 21.5217L91.2043 21.4376C91.5811 21.6101 91.8151 22.0668 92.0424 21.3179C91.8248 21.1594 91.8374 21.1035 91.6562 20.903L89.8021 18.7812C89.6439 18.5854 89.5603 18.5241 89.4276 18.3599C88.5957 17.3296 87.6497 16.3201 86.7934 15.3144C86.5255 14.9994 86.1485 14.7728 86.4962 14.261C87.0704 14.1719 87.1674 14.5661 87.4192 14.8554L89.115 16.9844C89.4453 17.4156 89.8492 17.8063 90.1588 18.2551C90.4178 18.6308 90.5616 18.7342 90.8187 19.1077C90.9582 19.3111 92.021 20.6829 92.2535 20.822C92.3365 20.6575 92.4111 20.611 92.556 20.5848L92.6983 20.5686C92.362 19.7704 92.0278 18.9457 91.7045 18.1392C91.3556 17.2708 91.0324 16.5199 90.7017 15.6637L89.1882 11.9585C89.0398 11.5959 88.8748 11.0948 88.6731 10.758C88.1761 10.641 86.0107 10.4648 85.8199 10.1969C85.6892 10.0132 85.7919 9.76219 85.9318 9.67109C86.1096 9.55555 86.392 9.64359 86.6189 9.67953C87.1186 9.75841 87.6271 9.83855 88.1291 9.8948C87.7406 9.33597 87.1231 8.83338 86.6302 8.32307C86.399 8.08355 86.3176 7.95363 86.4907 7.57485C87.0474 7.42751 87.3358 7.95381 87.7311 8.3732C88.0525 8.71443 88.4716 9.20731 88.8345 9.46984C88.8578 8.94748 88.8467 8.44705 88.8546 7.9274C88.8605 7.54412 88.7159 6.67318 89.0848 6.52009C89.735 6.25019 89.6141 7.18475 89.6107 7.53478C89.6078 7.82336 89.5641 8.85279 89.6166 9.06069C89.9656 8.78307 91.0211 6.30374 91.4634 7.30388C91.6186 7.65463 90.385 9.31549 90.1 9.74979C89.879 10.0865 89.6876 10.2109 89.8223 10.583C90.2424 11.7432 90.656 12.8868 91.0287 14.0357C91.7845 16.3652 92.7462 18.6517 93.4205 20.9758L93.8425 20.4892C94.0084 20.533 93.7914 20.5709 93.9252 20.5131C93.938 19.7737 93.8662 18.983 93.8434 18.2314C93.8207 17.4765 93.7889 16.7143 93.7568 15.9411C93.7245 15.1636 93.6942 14.4386 93.6684 13.6537C93.6528 13.1811 93.375 11.429 94.2102 11.8642C94.5655 12.0494 94.4181 13.6005 94.4199 14.0664L94.4077 18.7777C94.4122 19.4049 94.3582 20.091 94.3942 20.7195C94.4079 20.9582 94.5164 21.1973 94.7793 20.869C95.0709 20.5048 95.1525 19.895 95.3222 19.3417C95.6474 18.2815 97.9825 10.6215 97.9379 10.4204C97.8674 10.1027 96.1931 8.67723 96.1067 8.33421C95.9935 7.88535 96.4631 7.67673 96.8124 8.04204C97.2348 8.48371 97.6497 8.96384 98.0649 9.39401C98.1312 8.62351 97.4796 6.41838 98.3237 6.61837C98.8214 6.73625 98.7168 8.90041 98.8685 9.47972L99.1211 9.24073C99.1864 9.16023 99.2597 9.06374 99.3438 8.9588L100.278 7.82516C100.453 7.6133 100.584 7.34126 100.868 7.36803C101.153 7.39462 101.286 7.65787 101.152 7.92345C100.872 8.4776 100.074 9.12286 99.7485 9.6966C100.242 9.6073 101.13 9.26481 101.625 9.08764C102.1 8.91784 102.489 9.203 102.226 9.60245C102.113 9.77387 101.567 9.89336 101.314 9.98033C100.672 10.201 100.068 10.4048 99.4244 10.6103C98.9184 10.7719 99.021 10.8306 98.8246 11.3968C98.3204 12.8508 95.3774 20.6985 95.4212 21.1486C95.9164 21.3984 96.1343 21.1517 96.4256 20.7769L100.619 15.3253C100.815 15.0646 101.093 14.5058 101.501 14.6587C101.672 14.7228 101.781 14.9147 101.739 15.1124C101.703 15.2824 101.515 15.4692 101.405 15.5992L97.0467 20.8263C96.8517 21.0593 96.4091 21.4566 96.4019 21.8201C96.9168 22.2099 97.3076 21.6239 98.0893 21.1564C98.2654 21.0509 98.302 21.0072 98.4736 20.8802L99.7406 20.0525C100.302 19.7224 100.801 19.3119 101.359 18.9775C101.923 18.6391 102.443 18.2107 103.011 17.8762L104.628 16.7995C105.658 16.1646 105.556 16.3127 105.486 15.1207C105.455 14.587 105.139 12.8801 105.928 13.1836C106.27 13.3153 106.171 13.9162 106.19 14.2294C106.214 14.6387 106.24 15.0396 106.239 15.4317C106.44 15.294 106.58 15.054 106.722 14.8407C106.966 14.4734 107.844 12.8066 108.274 13.5103C108.516 13.9074 106.998 15.6186 106.802 16.082C107.243 15.999 109.488 15.4453 109.734 15.7019C109.928 15.905 109.788 16.2024 109.597 16.2947C109.318 16.4302 107.672 16.6917 107.347 16.7414C107.742 17.0548 109.274 17.3822 109.521 17.6792C109.819 18.0364 109.494 18.4314 108.843 18.1739L106.605 17.2977C105.979 17.0464 106.121 17.163 105.629 17.442L97.2223 22.4566C96.5484 22.7897 96.7644 22.9279 97.2544 23.3996C98.3108 23.3327 103.429 22.2458 105.061 22.0052C105.589 21.9274 105.869 22.3304 105.543 22.665C105.171 23.0472 97.2194 23.6729 96.4017 24.0535C96.5648 24.5314 96.9041 24.4432 97.5092 24.5357C99.1214 24.7819 106.741 26.0126 107.578 26.0457C108.276 25.3885 108.719 24.4942 109.436 23.8668C110.343 23.9748 109.755 24.611 109.482 24.9276C109.228 25.2218 108.811 25.689 108.616 26.0171C109.287 25.945 110.82 25.2876 111.367 25.6261L111.359 26.1051C110.916 26.3102 110.481 26.3659 110.019 26.4712C109.633 26.5592 108.933 26.6634 108.629 26.8321C108.944 27.1475 110.946 28.0562 111.002 28.4689C111.048 28.8085 110.859 28.822 110.784 28.8522C110.346 29.0285 109.032 27.849 108.523 27.7094C108.78 28.1198 108.98 28.6659 109.204 29.0845C109.285 29.2374 109.523 29.6586 109.522 29.8284C109.518 30.1873 109.117 30.3281 108.871 30.0807C108.801 30.0114 107.538 27.4345 107.455 27.2025C105.698 26.72 97.4086 25.289 96.3476 24.8471C96.471 25.2121 96.806 25.3869 96.4317 25.6705C96.9724 25.8773 102.341 29.1501 103.415 29.7878C103.915 30.0847 103.869 30.5786 103.443 30.6338C103.111 30.6767 99.9095 28.4554 99.5492 28.231C98.8354 27.7857 96.3599 26.0536 95.7083 25.7524C95.6386 26.3578 95.9654 26.6246 96.3151 27.0144L97.238 28.1011C97.4986 28.4315 97.8505 28.8486 98.1355 29.1577C99.2084 30.3202 100.611 32.1024 101.789 33.4375C101.958 33.6288 102.601 34.4766 102.74 34.5235C103.205 34.5068 104.012 34.3271 104.472 34.2426C104.938 34.1575 105.944 33.7976 105.727 34.6698C105.25 35.0316 104.097 34.9407 103.567 35.1889C104.146 35.681 106.263 36.2237 105.757 36.8779C105.49 37.2229 104.735 36.6842 104.397 36.5033C104.091 36.34 103.281 35.8618 102.995 35.8007C103.148 36.2911 103.311 36.7788 103.47 37.2851C103.719 38.0792 103.984 38.3014 103.582 38.7825C102.946 38.755 102.957 38.1803 102.793 37.6765C102.663 37.2774 102.468 36.7412 102.364 36.4C102.246 36.7658 101.911 38.5548 101.66 38.735C101.409 38.9151 101.19 38.7553 101.101 38.5294C101.054 38.1997 101.486 36.8143 101.597 36.3637C101.899 35.1334 102.003 35.3695 101.336 34.5702C100.581 33.6644 99.9147 32.6957 99.1821 31.7604L95.1965 26.5461C95.0634 26.3499 95.0831 26.2349 94.957 26.2196C94.5589 26.2819 94.85 27.4445 94.985 27.9886C95.2255 28.6804 95.4628 29.3629 95.7085 30.0698L95.8264 30.4002L95.8246 30.4011Z" fill="#FBB416"/>
<path d="M14.3254 34.4068C13.7874 34.3719 13.4707 34.2763 13.3752 34.1196C13.2796 33.9631 13.2319 33.798 13.2319 33.6241C13.3187 33.3632 13.4186 33.1109 13.5315 32.8676C13.6443 32.6241 13.7268 32.3632 13.7788 32.085C13.831 31.859 13.883 31.6502 13.935 31.4588C13.9872 31.2675 14.048 31.0588 14.1174 30.8328C14.2562 30.4152 14.4169 29.9024 14.5991 29.2936C14.7814 28.6848 14.9767 28.0762 15.1851 27.4674C15.3935 26.8587 15.5757 26.3544 15.7319 25.9545C15.8708 25.5543 15.988 25.2154 16.0835 24.9371C16.1791 24.6587 16.2788 24.3892 16.383 24.1285C16.4872 23.8676 16.6 23.5546 16.7216 23.1894C16.8084 22.9632 16.8864 22.7415 16.9558 22.524C17.0254 22.3066 17.0991 22.0849 17.1773 21.8588C17.2554 21.6326 17.3336 21.4109 17.4116 21.1935C17.4898 20.976 17.5635 20.7543 17.6329 20.5283C17.8239 20.1281 17.9932 19.7457 18.1408 19.3804C18.2884 19.0151 18.4229 18.6153 18.5444 18.1805C18.614 18.024 18.6095 17.9109 18.5315 17.8412C18.4533 17.7717 18.4142 17.6238 18.4142 17.3977C18.3969 17.1891 18.4533 17.0369 18.5835 16.9412C18.7137 16.8456 18.883 16.8238 19.0912 16.8759C19.3344 16.9282 19.6772 16.9717 20.1198 17.0064C20.5624 17.0412 20.9703 17.0542 21.3435 17.0456C21.7168 17.0369 21.9209 17.0238 21.9555 17.0064C22.0423 16.9717 22.3287 16.9151 22.8148 16.8368C23.3008 16.7586 23.8909 16.6673 24.5853 16.5629C25.2798 16.4585 25.9958 16.3629 26.7336 16.2759C27.4713 16.189 28.1267 16.1106 28.6995 16.0411C28.8905 16.0062 29.0772 16.0062 29.2594 16.0411C29.4417 16.0758 29.6196 16.1106 29.7932 16.1455C30.019 16.1802 30.2446 16.302 30.4704 16.5106C30.6961 16.7194 30.7743 16.9717 30.7047 17.2671C30.6353 17.4585 30.4877 17.5584 30.262 17.5672C30.0364 17.5758 29.7326 17.5454 29.3507 17.4759C29.3161 17.4759 29.2813 17.5454 29.2465 17.6845C29.2119 17.8238 29.1728 17.9889 29.1294 18.1803C29.086 18.3716 29.0209 18.5716 28.9341 18.7804C28.8299 18.9021 28.7128 19.1369 28.5826 19.4848C28.4524 19.8327 28.3178 20.2152 28.1788 20.6327C28.04 21.0501 27.9272 21.4324 27.8404 21.7803C27.7536 22.1282 27.7102 22.3717 27.7102 22.5109C27.4672 22.8935 27.2979 23.3107 27.2023 23.763C27.1068 24.2153 26.9897 24.6411 26.8507 25.0413C26.8333 25.1108 26.7682 25.35 26.6554 25.7588C26.5426 26.1674 26.4081 26.6587 26.2519 27.2326C26.0955 27.8067 25.9393 28.3761 25.783 28.9414C25.6268 29.5067 25.4966 29.9892 25.3924 30.3892C25.2882 30.7893 25.2362 31.0154 25.2362 31.0675C25.2188 31.4153 25.1797 31.772 25.1191 32.137C25.0583 32.5023 25.0192 32.859 25.0018 33.2065C25.0192 33.2762 25.0278 33.3326 25.0278 33.3761C25.0278 33.4196 24.9932 33.4588 24.9238 33.4936C24.7848 33.6153 24.5504 33.6719 24.2205 33.6631C23.8907 33.6544 23.6825 33.5978 23.5957 33.4936C23.5261 33.3544 23.4655 33.2282 23.4133 33.1152C23.3612 33.0022 23.3438 32.876 23.3612 32.7369C23.3959 32.25 23.4567 31.763 23.5435 31.2761C23.6303 30.7891 23.7085 30.3196 23.7779 29.8673C23.8647 29.4152 23.9689 29.0066 24.0903 28.6413C24.2119 28.276 24.2987 28.076 24.3507 28.0412L24.8456 26.189C25.0366 25.6673 25.158 25.2544 25.2102 24.95C25.2622 24.6456 25.3187 24.3455 25.3795 24.05C25.4401 23.7544 25.5574 23.3716 25.731 22.9023C25.9046 22.4674 26.0478 22.0285 26.1606 21.5848C26.2736 21.1414 26.3907 20.7024 26.5123 20.2675C26.6337 19.8501 26.7553 19.4807 26.8767 19.1589C26.9983 18.837 27.0982 18.5544 27.1763 18.3111C27.2545 18.0676 27.2848 17.8588 27.2674 17.6849C26.8855 17.7197 26.534 17.7632 26.213 17.8153C25.8917 17.8676 25.5619 17.9154 25.2235 17.9589C24.885 18.0024 24.4729 18.0588 23.9868 18.1285C23.6916 18.1632 23.301 18.2198 22.8151 18.298C22.3289 18.3763 21.8821 18.4459 21.4741 18.5068C21.0661 18.5677 20.81 18.5981 20.7061 18.5981C20.5845 18.6155 20.4803 18.6503 20.3935 18.7025C20.3067 18.7546 20.2633 18.8243 20.2633 18.9112C20.0029 19.4329 19.7512 19.959 19.5084 20.4894C19.2652 21.0199 19.0527 21.5241 18.8702 22.0024C18.688 22.4807 18.5535 22.9025 18.4667 23.2676C18.4319 23.3373 18.3625 23.5113 18.2583 23.7894C18.1541 24.0677 18.0327 24.3896 17.8937 24.7547C17.7549 25.1198 17.6246 25.4677 17.503 25.7981C17.3816 26.1286 17.2905 26.385 17.2297 26.5676C17.1689 26.7501 17.1472 26.7979 17.1646 26.7109C16.9042 27.5458 16.6915 28.2024 16.5266 28.6807C16.3616 29.159 16.2271 29.5371 16.1229 29.8154C16.0187 30.0937 15.9319 30.3372 15.8625 30.5458C15.7931 30.7546 15.7237 31.0069 15.6541 31.3023C15.5501 31.5807 15.4633 31.8676 15.3939 32.1632C15.3243 32.4588 15.2549 32.7546 15.1854 33.05C15.168 33.1369 15.1463 33.2327 15.1203 33.3369C15.0943 33.4413 15.0552 33.6587 15.0032 33.9892C14.9336 34.1284 14.8513 34.2372 14.7557 34.3153C14.6603 34.3937 14.517 34.424 14.326 34.4068H14.3254Z" fill="#5B5B5B"/>
<path d="M31.2242 33.4153C30.9986 33.4153 30.8207 33.3718 30.6905 33.2849C30.5603 33.1979 30.3996 33.0761 30.2088 32.9196C29.8787 32.5717 29.6445 32.2369 29.5055 31.9153C29.3667 31.5935 29.3233 31.2848 29.3753 30.9894C29.4275 30.8501 29.4492 30.7153 29.4404 30.5849C29.4318 30.4544 29.4275 30.3892 29.4275 30.3892C29.3407 30.3022 29.3147 30.2458 29.3493 30.2196C29.3841 30.1935 29.4187 30.1457 29.4535 30.0762C29.5577 30.0762 29.5923 29.9804 29.5577 29.7892C29.5229 29.65 29.5923 29.3456 29.7659 28.8762C29.9395 28.4065 30.1566 27.9632 30.417 27.5458C30.5212 27.3719 30.6774 27.1413 30.8858 26.8544C31.094 26.5674 31.3241 26.2805 31.5758 25.9935C31.8276 25.7065 32.0577 25.4762 32.2659 25.3022C32.7 24.9369 33.0818 24.6674 33.4116 24.4936C33.7415 24.3197 34.0973 24.1893 34.4791 24.1023C34.861 24.0153 35.1259 23.9718 35.2731 23.9718C35.4207 23.9718 35.6248 24.1109 35.8853 24.3892C36.2845 24.5632 36.5752 24.7718 36.7575 25.0155C36.9397 25.2589 37.0568 25.6154 37.109 26.085C37.161 26.6068 37.1219 27.2023 36.9917 27.872C36.8615 28.5415 36.4492 29.372 35.7551 30.3631C35.321 30.9894 34.9218 31.4544 34.5573 31.7588C34.1927 32.0632 33.7589 32.3632 33.2554 32.6586C32.8908 32.9023 32.561 33.0806 32.2659 33.1936C31.9709 33.3066 31.6237 33.3805 31.2244 33.4153H31.2242ZM33.7239 30.6501C34.1405 30.1806 34.4747 29.7371 34.7263 29.3197C34.9781 28.9023 35.2168 28.372 35.4424 27.7284C35.5119 27.537 35.5553 27.2978 35.5727 27.0109C35.5901 26.7239 35.5858 26.4544 35.5597 26.2023C35.5336 25.9502 35.4685 25.8066 35.3644 25.7718C35.156 25.6501 34.9042 25.6109 34.6094 25.6544C34.3141 25.6979 33.9931 25.8675 33.646 26.1631C33.1078 26.6154 32.6392 27.1762 32.2399 27.8457C31.8407 28.5154 31.4502 29.2762 31.0682 30.1283C30.8078 30.7545 30.7515 31.2544 30.8989 31.6283C31.0465 32.0023 31.3677 32.1327 31.8624 32.0197C32.357 31.9067 32.9776 31.4501 33.7241 30.6501H33.7239Z" fill="#5B5B5B"/>
<path d="M40.8847 33.7283C40.6243 33.7283 40.2988 33.7111 39.9083 33.6762C39.5177 33.6413 39.1836 33.3979 38.9059 32.9456C38.7323 32.65 38.6064 32.3108 38.5284 31.9284C38.4502 31.5457 38.4459 31.2761 38.5153 31.1198C38.7583 29.7806 38.9493 28.859 39.0882 28.3546C39.2272 27.8502 39.3052 27.5634 39.3226 27.4937C39.3574 27.4242 39.4311 27.2545 39.5439 26.985C39.6567 26.7155 39.7218 26.5458 39.7392 26.4763C39.826 26.198 39.852 25.885 39.8174 25.5373C39.8 25.398 39.8131 25.2719 39.8565 25.1588C39.8999 25.0458 39.9736 24.9457 40.0778 24.8588C40.3729 24.6327 40.6073 24.3369 40.7809 23.972C40.8329 23.8502 40.9328 23.6371 41.0804 23.3327C41.228 23.0283 41.3842 22.7239 41.5491 22.4199C41.7141 22.1155 41.84 21.9024 41.9268 21.7805C42.2044 21.4327 42.4605 21.063 42.6948 20.6719C42.9292 20.2805 43.2199 19.9371 43.567 19.6415C43.7928 19.2588 44.0792 18.9066 44.4262 18.5851C44.7735 18.2633 45.1207 17.9632 45.4677 17.6851C45.8148 17.4068 46.0926 17.1633 46.3008 16.9547C46.3876 16.8677 46.6264 16.785 47.017 16.7067C47.4076 16.6285 47.7244 16.5545 47.9672 16.485C48.0714 16.4328 48.271 16.472 48.5662 16.6025C48.8615 16.7329 49.0697 16.8763 49.1913 17.0328C49.4169 17.4156 49.5514 17.7286 49.5948 17.9719C49.6382 18.2155 49.6036 18.4982 49.4906 18.8196C49.3778 19.1415 49.1651 19.6327 48.8527 20.2936C48.5054 20.9894 48.0153 21.6458 47.3814 22.2632C46.7478 22.8808 46.1014 23.4153 45.4416 23.8676C45.1117 24.1634 44.7688 24.4329 44.4131 24.6762C44.0573 24.9197 43.697 25.1371 43.3325 25.3285C43.1069 25.4503 42.8768 25.5633 42.6426 25.6677C42.4082 25.7719 42.1694 25.8677 41.9264 25.9547C41.8048 25.9894 41.692 26.0546 41.5878 26.1504C41.4836 26.2459 41.3968 26.3807 41.3274 26.5546C41.2232 26.7981 41.1669 27.0026 41.1581 27.1677C41.1495 27.3331 41.093 27.4678 40.9889 27.5722C40.9367 27.6243 40.863 27.8288 40.7674 28.1853C40.672 28.5418 40.5678 28.9592 40.455 29.4376C40.3422 29.9157 40.2511 30.3592 40.1817 30.768C40.1121 31.1766 40.0861 31.4506 40.1035 31.5895C40.1209 31.6765 40.1426 31.7677 40.1686 31.8635C40.1946 31.9591 40.2685 32.0331 40.3899 32.0853C40.6503 32.0331 40.8587 31.9417 41.0149 31.8112C41.1712 31.6808 41.3448 31.5025 41.5358 31.2765C41.744 31.0156 41.9393 30.7372 42.1217 30.4418C42.304 30.1461 42.4559 29.8417 42.5775 29.5288C42.6469 29.3375 42.6989 29.1332 42.7337 28.9157C42.7683 28.6983 42.8291 28.5026 42.9159 28.3287C42.9159 27.9285 42.9116 27.6286 42.903 27.4286C42.8942 27.2287 42.8768 27.0635 42.8508 26.9331C42.8248 26.8026 42.7771 26.6504 42.7077 26.4765C42.8465 26.3895 42.929 26.3198 42.955 26.2677C42.981 26.2156 43.0549 26.2068 43.1763 26.2416C43.4021 26.2937 43.6147 26.3807 43.8145 26.5025C44.0141 26.6242 44.2094 26.7809 44.4002 26.9721C44.4698 27.0418 44.5132 27.1113 44.5304 27.1809C44.5478 27.2504 44.5392 27.3287 44.5044 27.4157C44.487 27.6243 44.4653 27.8288 44.4393 28.0288C44.4133 28.2288 44.4002 28.4245 44.4002 28.6158C44.2788 28.8419 44.2006 29.0811 44.166 29.3333C44.1312 29.5854 44.0704 29.8334 43.9836 30.0767C43.8794 30.3028 43.7754 30.529 43.6712 30.755C43.567 30.9811 43.4455 31.1899 43.3065 31.3812C43.0983 31.7638 42.8596 32.103 42.5904 32.3985C42.3214 32.6942 42.0392 32.9637 41.7442 33.207L40.8851 33.7289L40.8847 33.7283ZM42.0825 24.1025C42.2907 24.1371 42.4426 24.1416 42.5382 24.1154C42.6336 24.0893 42.7335 24.0067 42.8377 23.8676C43.6534 23.3284 44.3999 22.7938 45.0769 22.2632C45.754 21.7327 46.3224 21.2197 46.7824 20.7241C47.2424 20.2284 47.5418 19.7894 47.6806 19.4067C47.7674 19.2153 47.8673 19.0327 47.9801 18.8588C48.0929 18.6849 48.1668 18.4849 48.2014 18.2588L48.0972 17.5282C47.6112 17.7543 47.225 17.9631 46.9386 18.1544C46.6522 18.3458 46.2833 18.6674 45.832 19.1195C45.6584 19.2935 45.4025 19.5847 45.064 19.9934C44.7254 20.4021 44.3565 20.8586 43.9574 21.3629C43.5582 21.8673 43.1894 22.3629 42.8508 22.8499C42.5124 23.337 42.2562 23.7542 42.0828 24.1021L42.0825 24.1025Z" fill="#5B5B5B"/>
<path d="M50.8055 32.8936C50.441 33.2067 50.0201 33.3894 49.5427 33.4415C49.0652 33.4938 48.6011 33.4198 48.1496 33.2198C47.6984 33.0198 47.3251 32.7111 47.0301 32.2939C46.7349 31.9111 46.5439 31.4721 46.4571 30.9764C46.3703 30.4806 46.3617 29.833 46.4311 29.0329C46.4833 28.3546 46.7003 27.6721 47.0821 26.985C47.4641 26.2979 47.9283 25.6849 48.4751 25.1459C49.022 24.6066 49.5644 24.2329 50.1026 24.0241C50.363 23.8502 50.5843 23.7675 50.7667 23.7763C50.949 23.7849 51.2311 23.8067 51.6127 23.8415C52.0122 23.8936 52.3117 23.972 52.5111 24.0764C52.7107 24.1806 52.8713 24.3199 52.9929 24.4938C53.2533 24.7547 53.4269 25.0111 53.5137 25.2632C53.6005 25.5155 53.6439 25.7633 53.6439 26.0066C53.5745 26.3893 53.3184 26.8544 52.8759 27.4022C52.4331 27.9501 51.8561 28.3979 51.1443 28.7457C50.7623 28.8674 50.3458 28.9197 49.8944 28.9022C49.4431 28.8848 49.0701 28.7718 48.7748 28.563C48.445 28.4239 48.228 28.4457 48.1238 28.6282C48.0196 28.811 47.9242 29.2501 47.8374 29.9457C47.768 30.6066 47.82 31.089 47.9936 31.3934C48.1672 31.6978 48.4016 31.8761 48.6966 31.9284C49.0439 31.9979 49.3174 32.0457 49.5168 32.0718C49.7164 32.098 49.964 32.024 50.2588 31.85C50.5366 31.6761 50.7102 31.5762 50.7797 31.5499C50.8491 31.5239 50.9056 31.4892 50.949 31.4457C50.9924 31.4022 51.1009 31.2935 51.2745 31.1196C51.3961 30.9978 51.4915 30.9065 51.5609 30.8456C51.6303 30.7847 51.7085 30.7543 51.7953 30.7543C51.8821 30.7543 51.9602 30.7935 52.0297 30.8716C52.0992 30.95 52.1686 31.0066 52.238 31.0413C52.4116 31.0413 52.4507 31.1456 52.3553 31.3543C52.2597 31.5631 52.0731 31.8109 51.7953 32.0978C51.5175 32.3848 51.1877 32.65 50.8058 32.8933L50.8055 32.8936ZM50.7795 27.3632C50.9705 27.2763 51.1701 27.1503 51.3785 26.985C51.5867 26.8197 51.7647 26.6371 51.9123 26.4371C52.0599 26.2371 52.1336 26.0675 52.1336 25.9284C52.1336 25.6848 52.0208 25.4805 51.7952 25.3151C51.5693 25.15 51.2309 25.1283 50.7797 25.2499C50.5886 25.3022 50.3716 25.4283 50.1286 25.6283C49.8856 25.8283 49.6557 26.0501 49.4386 26.2935C49.2216 26.537 49.048 26.7544 48.9178 26.9458C48.7876 27.1372 48.7397 27.2502 48.7745 27.2851C48.8265 27.372 48.9741 27.4373 49.2171 27.4807C49.4603 27.5242 49.7337 27.5372 50.0373 27.5199C50.3411 27.5025 50.5885 27.4502 50.7793 27.3632H50.7795Z" fill="#5B5B5B"/>
<path d="M53.6692 39.6501C53.5998 39.6501 53.513 39.6544 53.4088 39.6632C53.3046 39.6718 53.2092 39.598 53.1224 39.4415C53.053 39.3545 53.0139 39.224 53.0051 39.0501C52.9965 38.8762 53.0356 38.563 53.1224 38.1111C53.2092 37.8153 53.2786 37.524 53.3306 37.2371C53.3828 36.9501 53.4088 36.737 53.4088 36.5979C53.4088 36.5284 53.4305 36.3936 53.4739 36.1936C53.5173 35.9934 53.539 35.8501 53.539 35.7631C53.6258 35.6238 53.6952 35.4326 53.7474 35.189C53.7994 34.9455 53.8254 34.7281 53.8254 34.5369C53.8254 34.3281 53.9296 34.1367 54.138 33.9628C54.138 33.8237 54.1684 33.6498 54.2292 33.441C54.29 33.2324 54.3203 33.0931 54.3203 33.0236C54.3723 32.7801 54.4896 32.3496 54.6718 31.7323C54.854 31.1149 55.0798 30.4149 55.3489 29.6321C55.6181 28.8498 55.8828 28.0843 56.143 27.3366C56.4034 26.589 56.6377 25.9541 56.8461 25.4323C57.0545 24.9452 57.1976 24.5236 57.2758 24.1671C57.3538 23.8104 57.3929 23.5452 57.3929 23.3715C57.3929 23.3019 57.4103 23.2453 57.4451 23.2018C57.4797 23.1584 57.5579 23.0671 57.6794 22.928C57.853 22.7541 58.0049 22.7018 58.1351 22.7715C58.2653 22.841 58.426 22.9454 58.6168 23.0845C58.7558 23.3106 58.8556 23.5019 58.9164 23.6584C58.9772 23.8151 58.9729 24.0847 58.9035 24.467C58.9035 24.7279 58.86 24.9542 58.7732 25.1455C58.6864 25.3367 58.6082 25.4803 58.5388 25.5759C58.4694 25.6717 58.452 25.7108 58.4866 25.6934C59.1985 25.3629 59.8277 25.1845 60.3745 25.1585C60.9213 25.1324 61.3814 25.228 61.7546 25.4454C62.1279 25.6628 62.41 25.9629 62.6008 26.3455C62.7916 26.728 62.8872 27.1715 62.8872 27.6759C62.8872 27.8845 62.8438 28.1325 62.757 28.4193C62.6702 28.7062 62.5617 28.9671 62.4315 29.2018C62.3013 29.4366 62.184 29.6061 62.08 29.7105C62.0104 29.7105 61.941 29.7671 61.8716 29.8801C61.8022 29.9931 61.7327 30.1193 61.6632 30.2584C61.5243 30.4323 61.303 30.628 60.9992 30.8454C60.6954 31.0628 60.3958 31.2368 60.101 31.3672C59.8058 31.4977 59.5888 31.5368 59.4499 31.4845C59.4499 31.4845 59.4282 31.489 59.3848 31.4977C59.3414 31.5063 59.3197 31.5543 59.3197 31.6412C59.3197 31.6759 59.1807 31.7499 58.9031 31.863C58.6253 31.976 58.3041 32.0804 57.9396 32.176C57.5752 32.2718 57.2539 32.3196 56.9763 32.3196C56.6117 32.3196 56.3513 32.25 56.1952 32.1108C56.1606 32.1456 56.1215 32.1977 56.0781 32.2673C56.0347 32.337 56.013 32.3977 56.013 32.45C56.013 32.5544 55.9739 32.7501 55.8957 33.037C55.8177 33.324 55.7266 33.5979 55.6224 33.8586C55.5182 34.1195 55.4227 34.2499 55.3359 34.2499C55.3359 34.2499 55.3185 34.2762 55.2838 34.3283C55.2491 34.3804 55.2664 34.4501 55.3359 34.5371C55.3359 34.5371 55.3315 34.637 55.3228 34.837C55.3142 35.037 55.2664 35.2066 55.1795 35.3458C55.1795 35.4849 55.1535 35.6937 55.1015 35.9719C55.0493 36.2502 54.9887 36.459 54.9191 36.5981C54.9191 36.8069 54.8888 37.0112 54.828 37.2112C54.7672 37.4112 54.7021 37.5113 54.6327 37.5113C54.5633 37.5287 54.5199 37.6374 54.5025 37.8374C54.4853 38.0374 54.4765 38.181 54.4765 38.2679C54.4591 38.7028 54.3723 39.0417 54.2161 39.2851C54.0598 39.5288 53.8776 39.6504 53.6692 39.6504V39.6501ZM56.8199 30.937C56.9587 30.937 57.2452 30.8763 57.679 30.7545C58.113 30.6326 58.56 30.4805 59.02 30.2979C59.4801 30.1153 59.8228 29.9283 60.0484 29.7369C60.4999 29.3369 60.8512 28.8805 61.103 28.3673C61.3547 27.8543 61.333 27.3631 61.0379 26.8935C60.8989 26.6501 60.6473 26.55 60.2829 26.5934C59.9182 26.6369 59.5192 26.7805 59.0851 27.024C58.6511 27.2675 58.2433 27.5718 57.8614 27.937C57.653 28.163 57.462 28.4414 57.2884 28.7716C57.1148 29.1021 56.9716 29.4325 56.8588 29.7628C56.7458 30.0934 56.6807 30.3716 56.6635 30.5976C56.6461 30.8237 56.6981 30.9367 56.8197 30.9367L56.8199 30.937Z" fill="#5B5B5B"/>
<path d="M64.4493 31.5893C64.4319 31.2415 64.4798 30.833 64.5926 30.3633C64.7054 29.8936 64.8485 29.4329 65.0221 28.9808C65.1957 28.5285 65.3521 28.1634 65.491 27.8851C65.5084 27.6765 65.5735 27.4937 65.6863 27.3372C65.7991 27.1807 65.8902 27.0068 65.9598 26.8154C66.0118 26.6589 66.1334 26.4023 66.3242 26.046C66.5152 25.6895 66.7237 25.3285 66.9493 24.9634C67.1749 24.5981 67.3573 24.3371 67.4961 24.1808C67.5309 23.9722 67.6089 23.794 67.7305 23.6461C67.8521 23.4982 67.965 23.346 68.069 23.1895C68.208 23.259 68.3208 23.3111 68.4076 23.346C68.4944 23.3809 68.5986 23.4678 68.72 23.6069C68.8068 23.7287 68.9067 23.8374 69.0195 23.933C69.1324 24.0286 69.2149 24.1722 69.2671 24.3636C69.2671 24.5201 69.2106 24.6723 69.0977 24.8201C68.9849 24.9679 68.8764 25.1114 68.7722 25.2505C68.5986 25.4593 68.4727 25.6201 68.3945 25.7333C68.3165 25.8463 68.2297 25.9768 68.1341 26.1245C68.0387 26.2724 67.8868 26.5029 67.6785 26.8159C67.7653 26.8508 67.8607 26.89 67.965 26.9335C68.069 26.9769 68.1646 26.9987 68.2514 26.9987C68.4076 26.9813 68.5552 26.9987 68.694 27.0508C68.833 27.1029 68.9718 27.1595 69.1107 27.2204C69.2497 27.2813 69.3885 27.3291 69.5275 27.3638C69.7357 27.4335 69.957 27.5726 70.1914 27.7812C70.4259 27.99 70.6386 28.2161 70.8294 28.4597C71.0204 28.7032 71.142 28.9032 71.194 29.0597C71.2462 29.1467 71.3199 29.3077 71.4153 29.5423C71.5109 29.7772 71.5238 29.9903 71.4544 30.1817C71.437 30.2512 71.4198 30.3294 71.4024 30.4163C71.385 30.5033 71.3764 30.5903 71.3764 30.6772C71.116 31.0425 70.9076 31.3295 70.7514 31.5381C70.5952 31.7467 70.326 31.973 69.9443 32.2164C69.3713 32.5469 68.8029 32.7992 68.2386 32.9729C67.6744 33.1469 67.106 33.225 66.5332 33.2076C66.4464 33.2076 66.3639 33.2293 66.2857 33.2728C66.2077 33.3163 66.1251 33.3034 66.0383 33.2338C65.6911 33.2338 65.4307 33.1381 65.2573 32.9467C65.0837 32.7555 64.9014 32.5381 64.7104 32.2946C64.5716 32.1032 64.4848 31.8684 64.45 31.5901L64.4493 31.5893ZM65.9074 31.6677C66.22 31.7024 66.5108 31.6851 66.7796 31.6154C67.0488 31.5459 67.3135 31.4849 67.5738 31.4328C67.8688 31.3807 68.1814 31.2632 68.5111 31.0806C68.8409 30.8981 69.1404 30.6719 69.4093 30.4023C69.6785 30.1326 69.8564 29.8588 69.9432 29.5806C69.9952 29.4415 70.0038 29.285 69.9692 29.1111C69.9344 28.9371 69.8564 28.8153 69.7348 28.7458C69.5612 28.624 69.3876 28.5023 69.214 28.3805C69.0404 28.2586 68.8321 28.2065 68.5889 28.224C68.5369 28.2414 68.4804 28.2369 68.4198 28.2109C68.359 28.1848 68.3025 28.1631 68.2505 28.1456C68.1115 28.1109 67.977 28.0935 67.8468 28.0935C67.7165 28.0935 67.582 28.1109 67.4432 28.1456C67.287 28.1979 67.1394 28.25 67.0004 28.3021C66.8616 28.3544 66.8008 28.4935 66.8182 28.7197C66.8182 28.7544 66.7748 28.8153 66.688 28.9023C66.6532 28.9371 66.5795 29.1111 66.4666 29.4241C66.3538 29.7371 66.2453 30.0676 66.1411 30.4153C66.0369 30.7631 65.9589 31.0154 65.9067 31.1717C65.8893 31.2413 65.885 31.3153 65.8938 31.3935C65.9024 31.4718 65.9067 31.5631 65.9067 31.6675L65.9074 31.6677Z" fill="#5B5B5B"/>
<path d="M2.41843 48.9942C2.15801 48.9942 1.83248 48.977 1.44203 48.9421C1.0514 48.9072 0.717267 48.6638 0.439629 48.2115C0.266016 47.9159 0.14011 47.5767 0.0620914 47.1943C-0.0161065 46.8115 -0.0204109 46.542 0.0489986 46.3857C0.292022 45.0465 0.483033 44.1249 0.621852 43.6205C0.76085 43.1161 0.838869 42.8293 0.856266 42.7596C0.89106 42.6901 0.964774 42.5204 1.07759 42.2509C1.1904 41.9814 1.25551 41.8117 1.2729 41.7422C1.35971 41.4639 1.38572 41.1509 1.3511 40.8032C1.3337 40.6639 1.3468 40.5378 1.3902 40.4247C1.4336 40.3117 1.50732 40.2116 1.61152 40.1247C1.90656 39.8986 2.14097 39.6028 2.31458 39.2379C2.3666 39.1161 2.4665 38.903 2.6141 38.5986C2.76171 38.2942 2.91793 37.9898 3.08275 37.6858C3.24776 37.3814 3.37366 37.1683 3.46047 37.0464C3.73811 36.6986 3.99422 36.3289 4.22846 35.9378C4.46287 35.5464 4.7536 35.203 5.10065 34.9074C5.32646 34.5247 5.61288 34.1725 5.95993 33.851C6.30716 33.5292 6.65439 33.2291 7.00143 32.951C7.34848 32.6727 7.6263 32.4292 7.83453 32.2206C7.92133 32.1336 8.16005 32.0509 8.55068 31.9726C8.94131 31.8944 9.25805 31.8204 9.50089 31.7509C9.6051 31.6987 9.80472 31.7379 10.0999 31.8684C10.3951 31.9988 10.6034 32.1422 10.725 32.2987C10.9506 32.6815 11.0851 32.9945 11.1285 33.2378C11.1719 33.4814 11.1373 33.7641 11.0243 34.0855C10.9115 34.4074 10.6988 34.8986 10.3864 35.5595C10.0391 36.2553 9.54896 36.9117 8.91513 37.5291C8.28147 38.1467 7.63509 38.6812 6.97525 39.1335C6.64542 39.4293 6.30249 39.6988 5.94684 39.9421C5.591 40.1856 5.23068 40.403 4.86624 40.5944C4.64061 40.7162 4.4105 40.8292 4.17627 40.9336C3.94185 41.0378 3.70313 41.1336 3.46011 41.2206C3.33851 41.2552 3.2257 41.3205 3.12149 41.4162C3.01729 41.5118 2.93048 41.6466 2.86107 41.8205C2.75687 42.064 2.70055 42.2685 2.69176 42.4336C2.68315 42.599 2.62666 42.7337 2.52263 42.8381C2.47044 42.8902 2.39673 43.0947 2.30113 43.4512C2.20572 43.8077 2.10151 44.2251 1.9887 44.7035C1.87589 45.1816 1.78478 45.6251 1.71537 46.0339C1.64578 46.4425 1.61977 46.7165 1.63717 46.8554C1.65457 46.9424 1.67627 47.0336 1.70227 47.1294C1.72828 47.225 1.80217 47.299 1.92359 47.3511C2.18402 47.299 2.39242 47.2076 2.54864 47.0771C2.70486 46.9467 2.87847 46.7684 3.06948 46.5424C3.27771 46.2815 3.47302 46.0031 3.65543 45.7077C3.83765 45.412 3.98956 45.1076 4.11116 44.7947C4.18057 44.6034 4.23258 44.3991 4.26738 44.1816C4.30199 43.9642 4.36279 43.7685 4.4496 43.5946C4.4496 43.1944 4.4453 42.8945 4.43669 42.6945C4.4279 42.4946 4.4105 42.3294 4.3845 42.199C4.35849 42.0685 4.31078 41.9163 4.24137 41.7424C4.38019 41.6554 4.46269 41.5857 4.4887 41.5336C4.51471 41.4815 4.5886 41.4727 4.71002 41.5075C4.93583 41.5596 5.14836 41.6466 5.34816 41.7684C5.54778 41.8901 5.74309 42.0468 5.93392 42.238C6.00351 42.3077 6.04692 42.3772 6.06413 42.4468C6.08153 42.5163 6.07292 42.5946 6.03813 42.6816C6.02073 42.8902 5.99903 43.0947 5.97302 43.2947C5.94702 43.4947 5.93392 43.6904 5.93392 43.8817C5.8125 44.1078 5.7343 44.347 5.69969 44.5992C5.6649 44.8513 5.60409 45.0993 5.51729 45.3426C5.41308 45.5686 5.30906 45.7949 5.20485 46.0209C5.10065 46.247 4.97923 46.4558 4.84023 46.6471C4.632 47.0297 4.39328 47.3689 4.12407 47.6643C3.85505 47.9601 3.57292 48.2296 3.27789 48.4729L2.41879 48.9948L2.41843 48.9942ZM3.61615 39.3684C3.82438 39.403 3.97629 39.4075 4.07188 39.3813C4.1673 39.3552 4.2672 39.2726 4.3714 39.1335C5.1871 38.5943 5.93357 38.0597 6.61062 37.5291C7.28768 36.9986 7.85605 36.4856 8.31609 35.99C8.77613 35.4943 9.07547 35.0553 9.21429 34.6726C9.3011 34.4812 9.40099 34.2986 9.51381 34.1247C9.62662 33.9508 9.70051 33.7508 9.73513 33.5247L9.63092 32.7941C9.14488 33.0202 8.75873 33.229 8.47231 33.4203C8.18588 33.6117 7.81695 33.9333 7.3657 34.3854C7.19208 34.5594 6.93615 34.8506 6.59771 35.2593C6.25909 35.668 5.89016 36.1245 5.4911 36.6288C5.09186 37.1332 4.72311 37.6288 4.3845 38.1157C4.04606 38.6029 3.78994 39.0201 3.61651 39.368L3.61615 39.3684Z" fill="#5B5B5B"/>
<path d="M17.156 48.7856C16.6525 48.8726 16.1927 48.842 15.776 48.6943C15.3594 48.5465 15.0253 48.2942 14.7736 47.9379C14.5218 47.5814 14.3959 47.125 14.3959 46.5683C14.3439 46.0465 14.4047 45.4422 14.5783 44.7552C14.7519 44.0681 15.0079 43.377 15.3463 42.6813C15.6849 41.9855 16.0539 41.3856 16.4529 40.8812C16.8001 40.4638 17.1474 40.0812 17.4944 39.7333C17.8416 39.3856 18.1541 39.1508 18.4317 39.029C18.6747 38.9246 18.9048 38.8593 19.1219 38.8333C19.3389 38.8072 19.5168 38.7941 19.6556 38.7941C19.9334 38.8638 20.233 38.9898 20.5538 39.1725C20.875 39.3551 21.0357 39.5508 21.0357 39.7596C21.0357 39.7596 21.0574 39.7813 21.1008 39.8248C21.1442 39.8683 21.1659 39.89 21.1659 39.89C21.27 39.89 21.3611 40.003 21.4393 40.2291C21.5175 40.4553 21.5652 40.7117 21.5826 40.9987C21.5998 41.2856 21.5564 41.5248 21.4524 41.716C21.3828 42.0466 21.2614 42.3336 21.0878 42.5769C20.9141 42.8204 20.7579 42.9422 20.6189 42.9422C20.5495 42.9422 20.4844 42.9465 20.4236 42.9551C20.363 42.9639 20.3325 43.0117 20.3325 43.0987C20.3325 43.1857 20.2848 43.2203 20.1894 43.2031C20.0938 43.1857 19.9941 43.1291 19.8899 43.0335C19.7856 42.9379 19.7075 42.8204 19.6554 42.6813C19.6554 42.5943 19.6902 42.4464 19.7596 42.2376C19.8291 42.029 19.8985 41.7593 19.9679 41.429C20.0721 40.9421 20.0635 40.6248 19.9419 40.4771C19.8204 40.3292 19.586 40.3249 19.2388 40.4639C18.8048 40.7074 18.3926 41.0467 18.002 41.4813C17.6114 41.9162 17.2514 42.4768 16.9214 43.1639C16.5916 43.8509 16.2965 44.7074 16.0363 45.7335C15.9321 46.1334 15.893 46.4811 15.919 46.7769C15.9452 47.0725 15.9841 47.229 16.0363 47.2464C16.2793 47.316 16.6091 47.3291 17.0256 47.2856C17.4422 47.2421 17.746 47.1683 17.9369 47.0639C18.2147 46.9246 18.5271 46.7377 18.8742 46.5029C19.2214 46.268 19.5252 46.0551 19.7855 45.8637C19.8723 45.8114 19.9765 45.7245 20.0979 45.6028C20.2195 45.481 20.3497 45.3854 20.4885 45.3159C20.6275 45.1071 20.749 44.9852 20.8532 44.9506C20.9574 44.9157 21.1136 44.8983 21.322 44.8983C21.4608 44.9331 21.591 44.9852 21.7126 45.055C21.834 45.1245 21.9165 45.194 21.9599 45.2636C22.0033 45.3331 21.973 45.394 21.8688 45.4463C21.7994 45.4463 21.7603 45.4681 21.7515 45.5115C21.7429 45.555 21.7386 45.5768 21.7386 45.5768C21.7732 45.6463 21.6995 45.7897 21.5173 46.0071C21.3349 46.2245 21.105 46.4637 20.8272 46.7246C20.5493 46.9855 20.2846 47.2073 20.033 47.39C19.7813 47.5726 19.6034 47.6638 19.4992 47.6638C19.3256 47.6638 19.2388 47.7161 19.2388 47.8205C19.2388 47.8552 19.1129 47.9422 18.8613 48.0814C18.6095 48.2205 18.323 48.3596 18.002 48.4988C17.6808 48.6379 17.3986 48.7335 17.1558 48.7858L17.156 48.7856Z" fill="#5B5B5B"/>
<path d="M27.962 48.6812C27.8058 48.6117 27.6539 48.5333 27.5063 48.4463C27.3587 48.3594 27.2416 48.2289 27.1548 48.055C27.0159 47.8464 26.942 47.5941 26.9334 47.2987C26.9247 47.0029 26.9291 46.6464 26.9464 46.2292C26.9464 46.1595 26.9811 46.0118 27.0506 45.7855C27.12 45.5595 27.2025 45.3115 27.2979 45.0422C27.3935 44.7726 27.476 44.5378 27.5454 44.3378C27.6148 44.1378 27.6496 44.0291 27.6496 44.0117C27.476 44.0463 27.3284 44.1072 27.2068 44.1942C27.0854 44.2812 26.9638 44.3682 26.8423 44.4551C26.6687 44.6291 26.4343 44.803 26.1391 44.9769C25.8441 45.1509 25.5748 45.2813 25.332 45.3683C25.1584 45.4378 24.9197 45.4075 24.6158 45.277C24.312 45.1466 24.0907 44.9595 23.9519 44.716C23.8997 44.5944 23.8606 44.4769 23.8346 44.3638C23.8086 44.2508 23.7869 44.1333 23.7695 44.0117C23.7001 43.4376 23.7955 42.8812 24.0559 42.342C24.2643 41.8897 24.4813 41.4421 24.707 40.9986C24.9328 40.555 25.1498 40.116 25.358 39.6812C25.4448 39.5421 25.5316 39.4073 25.6184 39.2769C25.7052 39.1464 25.766 39.0115 25.8008 38.8724C25.818 38.8203 25.8702 38.742 25.957 38.6376C26.0439 38.5332 26.1393 38.481 26.2435 38.481C26.4345 38.4985 26.6124 38.5377 26.7774 38.5984C26.9422 38.6593 27.0855 38.7854 27.207 38.9768C27.3112 39.0985 27.3632 39.2334 27.3632 39.3811C27.3632 39.529 27.2938 39.6898 27.1549 39.8637C26.8251 40.316 26.5256 40.7942 26.2567 41.2986C25.9875 41.8029 25.7314 42.3073 25.4886 42.8117C25.4192 42.9508 25.3584 43.1161 25.3064 43.3073C25.2543 43.4986 25.2456 43.6814 25.2803 43.8553C25.5408 43.8553 25.8966 43.6943 26.3479 43.3725C26.7993 43.0509 27.2764 42.6812 27.78 42.264C28.2834 41.8464 28.7259 41.4815 29.1079 41.1683C29.5072 40.8378 29.8542 40.4378 30.1494 39.9683C30.2362 39.8292 30.3402 39.7205 30.4618 39.6422C30.5833 39.564 30.7483 39.516 30.9567 39.4988C31.0087 39.516 31.0781 39.5509 31.1649 39.603C31.2517 39.6553 31.3473 39.6988 31.4513 39.7335C31.5381 39.9423 31.6206 40.1076 31.6988 40.2292C31.7769 40.3511 31.8074 40.4727 31.79 40.5945C31.7726 40.7164 31.6511 40.8989 31.4253 41.1424C31.3385 41.1598 31.1909 41.3032 30.9827 41.5729C30.7743 41.8425 30.5661 42.1382 30.3576 42.4599C30.1494 42.7815 29.993 43.0467 29.889 43.2553C29.8368 43.3423 29.7717 43.4336 29.6937 43.5294C29.6155 43.625 29.5418 43.7337 29.4722 43.8555L28.4829 46.2554C28.4655 46.4119 28.4395 46.5815 28.4047 46.7641C28.3701 46.9467 28.3875 47.0902 28.4569 47.1946C28.5957 47.1946 28.7173 47.1772 28.8213 47.1423C28.9255 47.1077 29.0123 47.1512 29.0817 47.2728C29.1685 47.5511 29.2164 47.7468 29.225 47.8598C29.2336 47.973 29.1079 48.1774 28.8475 48.4729C28.6045 48.7338 28.3093 48.8036 27.9622 48.6817L27.962 48.6812Z" fill="#5B5B5B"/>
<path d="M32.3365 48.1333C32.2671 47.9943 32.1803 47.8855 32.0761 47.8072C31.9719 47.7289 31.9199 47.655 31.9199 47.5855C31.9199 47.5159 31.9156 47.4419 31.9068 47.3637C31.8982 47.2854 31.8591 47.2115 31.7897 47.1418C31.7029 47.0376 31.7115 46.7984 31.8157 46.4245C31.9199 46.0504 32.0935 45.5897 32.3365 45.0418C32.5796 44.4939 32.866 43.9157 33.1958 43.3069C33.3346 43.1678 33.4734 42.9853 33.6124 42.7591C33.7513 42.533 33.8555 42.3851 33.9249 42.3156C33.9249 42.246 33.9509 42.1808 34.0031 42.1199C34.0551 42.059 34.1159 42.0286 34.1853 42.0286V41.8721C34.1853 41.7851 34.2678 41.6373 34.4326 41.4285C34.5976 41.2199 34.8016 40.9893 35.0448 40.7372C35.2878 40.4849 35.5394 40.2415 35.7997 40.0066C36.0601 39.7717 36.2771 39.6021 36.4507 39.4979C36.8153 39.2544 37.1927 39.1065 37.5833 39.0543C37.9739 39.0021 38.3083 39.0891 38.5857 39.3152C38.6379 39.3675 38.7247 39.4544 38.8461 39.5761C38.9677 39.6979 39.111 39.8327 39.2759 39.9805C39.4409 40.1284 39.61 40.2806 39.7836 40.4371L40.7471 41.2978L40.2783 42.6022C40.0526 43.2979 39.9962 43.9065 40.109 44.4284C40.222 44.9502 40.3911 45.4023 40.6169 45.7848C40.7037 45.9762 40.8816 46.1587 41.1506 46.3327C41.4199 46.5066 41.6758 46.611 41.9188 46.6459C42.0576 46.6631 42.1878 46.7154 42.3094 46.8024C42.4309 46.8894 42.4917 47.0284 42.4917 47.2198C42.4917 47.3937 42.4569 47.5328 42.3875 47.6372C42.3181 47.7416 42.1965 47.8111 42.0228 47.846C41.45 47.9155 40.9162 47.7765 40.4216 47.4286C39.9267 47.0807 39.4712 46.5068 39.0545 45.7068C38.9851 45.6024 38.894 45.4068 38.781 45.1198C38.6682 44.8326 38.6031 44.6458 38.5857 44.5588C38.5163 44.6458 38.3861 44.8066 38.1951 45.0414C38.0043 45.2763 37.8567 45.4459 37.7524 45.5501C36.5199 46.8024 35.4569 47.6415 34.5627 48.0676C33.6688 48.4936 32.9266 48.5153 32.3365 48.1328V48.1333ZM33.2738 46.6725C33.2738 46.7941 33.4605 46.7898 33.8338 46.6594C34.207 46.5289 34.6105 46.2897 35.0446 45.9419C35.6348 45.4375 36.2292 44.8812 36.8282 44.2724C37.4271 43.6636 37.9087 43.0985 38.2733 42.5767L38.8461 41.6376C38.6725 41.2375 38.486 40.9636 38.2864 40.8159C38.0866 40.668 37.9175 40.5942 37.7785 40.5942C37.5528 40.5942 37.2187 40.803 36.7761 41.2204C36.3334 41.6378 35.8605 42.1941 35.357 42.8899C34.8536 43.5856 34.3763 44.3507 33.9249 45.1856C33.7513 45.5334 33.5994 45.8682 33.4691 46.1898C33.3389 46.5115 33.2738 46.6725 33.2738 46.6725Z" fill="#5B5B5B"/>
<path d="M46.3708 48.7856C45.8674 48.8726 45.4075 48.842 44.9909 48.6943C44.5742 48.5465 44.2401 48.2942 43.9885 47.9379C43.7367 47.5814 43.6108 47.125 43.6108 46.5683C43.5587 46.0465 43.6195 45.4422 43.7932 44.7552C43.9668 44.0681 44.2227 43.377 44.5611 42.6813C44.8998 41.9855 45.2687 41.3856 45.6678 40.8812C46.015 40.4638 46.3622 40.0812 46.7093 39.7333C47.0565 39.3856 47.3689 39.1508 47.6466 39.029C47.8896 38.9246 48.1197 38.8593 48.3367 38.8333C48.5537 38.8072 48.7316 38.7941 48.8705 38.7941C49.1483 38.8638 49.4478 38.9898 49.7687 39.1725C50.0899 39.3551 50.2506 39.5508 50.2506 39.7596C50.2506 39.7596 50.2723 39.7813 50.3157 39.8248C50.3591 39.8683 50.3808 39.89 50.3808 39.89C50.4848 39.89 50.5759 40.003 50.6541 40.2291C50.7323 40.4553 50.78 40.7117 50.7974 40.9987C50.8146 41.2856 50.7712 41.5248 50.6672 41.716C50.5976 42.0466 50.4762 42.3336 50.3026 42.5769C50.129 42.8204 49.9728 42.9422 49.8338 42.9422C49.7644 42.9422 49.6993 42.9465 49.6385 42.9551C49.5778 42.9639 49.5473 43.0117 49.5473 43.0987C49.5473 43.1857 49.4996 43.2203 49.4042 43.2031C49.3086 43.1857 49.2089 43.1291 49.1047 43.0335C49.0005 42.9379 48.9223 42.8204 48.8703 42.6813C48.8703 42.5943 48.9051 42.4464 48.9745 42.2376C49.0439 42.029 49.1133 41.7593 49.1827 41.429C49.2869 40.9421 49.2783 40.6248 49.1567 40.4771C49.0353 40.3292 48.8009 40.3249 48.4536 40.4639C48.0196 40.7074 47.6075 41.0467 47.2168 41.4813C46.8262 41.9162 46.4662 42.4768 46.1362 43.1639C45.8064 43.8509 45.5114 44.7074 45.2511 45.7335C45.1469 46.1334 45.1078 46.4811 45.1338 46.7769C45.16 47.0725 45.1989 47.229 45.2511 47.2464C45.4941 47.316 45.824 47.3291 46.2404 47.2856C46.6571 47.2421 46.9609 47.1683 47.1517 47.0639C47.4295 46.9246 47.742 46.7377 48.089 46.5029C48.4362 46.268 48.7401 46.0551 49.0003 45.8637C49.0871 45.8114 49.1913 45.7245 49.3127 45.6028C49.4343 45.481 49.5646 45.3854 49.7034 45.3159C49.8424 45.1071 49.9638 44.9852 50.068 44.9506C50.1722 44.9157 50.3284 44.8983 50.5368 44.8983C50.6756 44.9331 50.8059 44.9852 50.9275 45.055C51.0489 45.1245 51.1314 45.194 51.1748 45.2636C51.2182 45.3331 51.1879 45.394 51.0837 45.4463C51.0143 45.4463 50.9752 45.4681 50.9664 45.5115C50.9578 45.555 50.9535 45.5768 50.9535 45.5768C50.9881 45.6463 50.9144 45.7897 50.7321 46.0071C50.5497 46.2245 50.3198 46.4637 50.042 46.7246C49.7642 46.9855 49.4995 47.2073 49.2478 47.39C48.9962 47.5726 48.8183 47.6638 48.7141 47.6638C48.5405 47.6638 48.4536 47.7161 48.4536 47.8205C48.4536 47.8552 48.3277 47.9422 48.0761 48.0814C47.8243 48.2205 47.5379 48.3596 47.2168 48.4988C46.8956 48.6379 46.6135 48.7335 46.3706 48.7858L46.3708 48.7856Z" fill="#5B5B5B"/>
<path d="M53.6097 47.7941C53.4187 47.6725 53.2451 47.5115 53.0889 47.3115C52.9327 47.1115 52.8545 46.8549 52.8545 46.542C52.8545 46.3681 52.8893 46.0723 52.9587 45.6551C53.0281 45.2377 53.1237 44.7682 53.2451 44.2465C53.3667 43.7247 53.4881 43.2378 53.6097 42.7857C53.7834 42.4725 53.931 42.1595 54.0524 41.8465C54.174 41.5334 54.2348 41.3421 54.2348 41.2725C54.2694 41.0639 54.3173 40.8203 54.3779 40.5421C54.4387 40.2638 54.5038 40.0115 54.5732 39.7856C54.6426 39.5594 54.6948 39.4291 54.7294 39.3943C54.8163 39.3073 54.9205 39.2507 55.0421 39.2246C55.1635 39.1986 55.2894 39.216 55.4196 39.2769C55.5498 39.3377 55.6497 39.4552 55.7191 39.6291C55.9101 39.8377 56.0055 40.0857 56.0055 40.3725C56.0055 40.6594 55.9101 41.0812 55.7191 41.6377C55.5629 41.9855 55.4067 42.3941 55.2503 42.8637C55.0941 43.3334 54.9596 43.7635 54.8467 44.1549C54.7339 44.5463 54.6688 44.8115 54.6514 44.9506L54.1306 45.1071C54.4258 44.8287 54.7034 44.5375 54.9637 44.2332C55.2241 43.9288 55.4151 43.6897 55.5367 43.5157C55.8317 43.1158 56.0879 42.7808 56.3047 42.5115C56.5217 42.2419 56.8038 41.9158 57.1509 41.5333C57.4981 41.1333 57.841 40.8853 58.1793 40.7899C58.5179 40.6943 58.7826 40.6463 58.9735 40.6463C59.3553 40.716 59.6634 40.9117 59.8977 41.2334C60.1321 41.5552 60.284 42.029 60.3534 42.6552C60.3534 42.8987 60.3317 43.1857 60.2883 43.5159C60.2449 43.8464 60.2232 44.0117 60.2232 44.0117C60.2232 44.0117 60.3665 43.8289 60.6529 43.4638C60.9394 43.0985 61.3257 42.6987 61.8116 42.2639C62.1414 42.0202 62.4626 41.8768 62.7749 41.8333C63.0875 41.7899 63.3651 41.8986 63.6081 42.1595C64.0594 42.4029 64.3544 42.7726 64.4932 43.2681C64.6322 43.7637 64.6669 44.3941 64.5974 45.1594C64.5454 45.6116 64.5366 45.9464 64.5714 46.1638C64.6062 46.3812 64.6582 46.5942 64.7277 46.803C64.8667 46.8725 64.8927 47.0161 64.8058 47.2335C64.719 47.4509 64.6148 47.5596 64.4932 47.5596C64.3196 47.5596 64.1243 47.5248 63.9073 47.4552C63.6903 47.3857 63.4994 47.2682 63.3344 47.103C63.1696 46.9377 63.0871 46.7072 63.0871 46.4116V44.7942C63.0871 44.4115 63.074 44.0985 63.048 43.8552C63.022 43.6115 62.9743 43.4638 62.9047 43.4115C62.7139 43.3071 62.4361 43.4203 62.0716 43.7508C61.707 44.0812 61.3165 44.5245 60.8999 45.0812C60.4833 45.6377 60.0928 46.2116 59.7282 46.803C59.3984 47.3422 59.1944 47.6507 59.1162 47.7289C59.0382 47.8072 58.9035 47.7855 58.7127 47.6637C58.3307 47.542 58.092 47.3724 57.9965 47.155C57.9009 46.9375 57.888 46.6897 57.9574 46.4116C58.0442 46.1158 58.1528 45.7158 58.283 45.2116C58.4132 44.7073 58.5391 44.216 58.6605 43.7377C58.7821 43.2593 58.8601 42.9161 58.8949 42.7073C58.8255 42.5683 58.7082 42.5203 58.5434 42.5638C58.3784 42.6072 58.2091 42.6899 58.0355 42.8117C57.8272 42.9508 57.5754 43.2117 57.2806 43.5943C56.9853 43.9768 56.6815 44.4203 56.3693 44.9247C56.1609 45.2551 55.9438 45.5813 55.7182 45.9029C55.4926 46.2245 55.2842 46.5072 55.0932 46.7505C54.9022 46.9941 54.7373 47.1767 54.5983 47.2985C54.3553 47.6811 54.1905 47.8899 54.1037 47.9246C54.0169 47.9594 53.8519 47.9159 53.6088 47.7941H53.6097Z" fill="#5B5B5B"/>
<path d="M65.9522 46.855C65.9348 46.5071 65.9827 46.0987 66.0955 45.629C66.2083 45.1593 66.3514 44.6986 66.5251 44.2465C66.6987 43.7942 66.8551 43.4291 66.9939 43.1508C67.0113 42.9421 67.0764 42.7594 67.1892 42.6029C67.302 42.4464 67.3931 42.2724 67.4627 42.0811C67.5147 41.9246 67.6363 41.668 67.8272 41.3117C68.0182 40.9552 68.2266 40.5942 68.4522 40.229C68.6778 39.8637 68.8602 39.6028 68.9991 39.4465C69.0338 39.2379 69.1119 39.0596 69.2335 38.9118C69.3551 38.7639 69.4679 38.6117 69.5719 38.4552C69.7109 38.5247 69.8237 38.5768 69.9105 38.6117C69.9973 38.6465 70.1015 38.7335 70.223 38.8726C70.3098 38.9944 70.4097 39.1031 70.5225 39.1987C70.6353 39.2943 70.7178 39.4379 70.77 39.6292C70.77 39.7858 70.7135 39.938 70.6007 40.0858C70.4879 40.2335 70.3794 40.3771 70.2751 40.5162C70.1015 40.725 69.9756 40.8858 69.8974 40.999C69.8194 41.112 69.7326 41.2425 69.637 41.3902C69.5416 41.5381 69.3897 41.7686 69.1815 42.0816C69.2683 42.1165 69.3637 42.1557 69.4679 42.1991C69.5719 42.2426 69.6675 42.2644 69.7543 42.2644C69.9105 42.2469 70.0581 42.2644 70.197 42.3165C70.3359 42.3686 70.4748 42.4252 70.6136 42.4861C70.7526 42.547 70.8914 42.5948 71.0304 42.6295C71.2386 42.6992 71.46 42.8383 71.6944 43.0469C71.9288 43.2557 72.1415 43.4817 72.3323 43.7254C72.5233 43.9689 72.6449 44.1689 72.6969 44.3254C72.7491 44.4124 72.8229 44.5733 72.9183 44.808C73.0139 45.0429 73.0268 45.256 72.9574 45.4473C72.94 45.5169 72.9228 45.5951 72.9054 45.682C72.888 45.769 72.8794 45.856 72.8794 45.9429C72.6189 46.3082 72.4105 46.5952 72.2543 46.8038C72.0981 47.0124 71.8289 47.2387 71.4472 47.4821C70.8742 47.8126 70.3058 48.0649 69.7416 48.2386C69.1773 48.4126 68.609 48.4907 68.0361 48.4733C67.9493 48.4733 67.8668 48.495 67.7886 48.5385C67.7106 48.582 67.6281 48.5691 67.5413 48.4995C67.194 48.4995 66.9336 48.4038 66.7602 48.2124C66.5866 48.0212 66.4044 47.8038 66.2133 47.5603C66.0745 47.3689 65.9877 47.1341 65.9529 46.8557L65.9522 46.855ZM67.4103 46.9334C67.723 46.968 68.0137 46.9508 68.2825 46.8811C68.5517 46.8115 68.8165 46.7506 69.0767 46.6985C69.3717 46.6464 69.6844 46.5289 70.014 46.3463C70.3438 46.1638 70.6434 45.9375 70.9122 45.668C71.1814 45.3983 71.3593 45.1245 71.4461 44.8463C71.4982 44.7072 71.5068 44.5507 71.4722 44.3768C71.4374 44.2028 71.3593 44.081 71.2377 44.0115C71.0641 43.8896 70.8905 43.768 70.7169 43.6462C70.5433 43.5243 70.3351 43.4722 70.0918 43.4897C70.0398 43.5071 69.9833 43.5026 69.9227 43.4765C69.8619 43.4505 69.8054 43.4287 69.7534 43.4113C69.6144 43.3766 69.4799 43.3592 69.3497 43.3592C69.2195 43.3592 69.085 43.3766 68.9461 43.4113C68.7899 43.4636 68.6423 43.5157 68.5033 43.5678C68.3645 43.6201 68.3037 43.7592 68.3211 43.9854C68.3211 44.0201 68.2777 44.081 68.1909 44.168C68.1561 44.2028 68.0824 44.3768 67.9696 44.6898C67.8568 45.0028 67.7482 45.3332 67.644 45.6809C67.5398 46.0288 67.4618 46.2811 67.4096 46.4374C67.3922 46.507 67.3879 46.581 67.3967 46.6592C67.4053 46.7375 67.4096 46.8288 67.4096 46.9332L67.4103 46.9334Z" fill="#5B5B5B"/>
<path d="M79.1014 48.1594C78.7369 48.4724 78.316 48.6552 77.8386 48.7073C77.3611 48.7596 76.897 48.6855 76.4455 48.4855C75.9943 48.2855 75.621 47.9768 75.326 47.5596C75.0308 47.1769 74.8398 46.7379 74.753 46.2421C74.6662 45.7464 74.6576 45.0988 74.727 44.2986C74.7792 43.6203 74.9962 42.9379 75.378 42.2507C75.76 41.5636 76.2242 40.9507 76.771 40.4116C77.3179 39.8724 77.8603 39.4986 78.3985 39.2898C78.6589 39.1159 78.8802 39.0332 79.0626 39.042C79.2449 39.0507 79.527 39.0724 79.9086 39.1073C80.3081 39.1594 80.6076 39.2377 80.807 39.3421C81.0066 39.4463 81.1672 39.5856 81.2888 39.7595C81.5492 40.0204 81.7228 40.2769 81.8096 40.529C81.8964 40.7812 81.9398 41.029 81.9398 41.2723C81.8704 41.6551 81.6143 42.1201 81.1718 42.668C80.729 43.2158 80.152 43.6636 79.4402 44.0115C79.0582 44.1331 78.6417 44.1854 78.1903 44.168C77.739 44.1506 77.366 44.0375 77.0707 43.8287C76.7409 43.6897 76.5239 43.7114 76.4197 43.894C76.3155 44.0767 76.2201 44.5159 76.1333 45.2114C76.0639 45.8723 76.1159 46.3548 76.2895 46.6592C76.4631 46.9636 76.6975 47.1418 76.9925 47.1941C77.3398 47.2637 77.6133 47.3114 77.8127 47.3375C78.0123 47.3637 78.2599 47.2897 78.5547 47.1158C78.8325 46.9418 79.0061 46.8419 79.0756 46.8157C79.145 46.7896 79.2015 46.755 79.2449 46.7115C79.2883 46.668 79.3968 46.5593 79.5704 46.3853C79.692 46.2635 79.7874 46.1722 79.8568 46.1113C79.9262 46.0504 80.0044 46.02 80.0912 46.02C80.178 46.02 80.256 46.0592 80.3256 46.1374C80.395 46.2157 80.4645 46.2723 80.5339 46.307C80.7075 46.307 80.7466 46.4114 80.6512 46.62C80.5556 46.8288 80.369 47.0766 80.0912 47.3636C79.8134 47.6505 79.4836 47.9157 79.1017 48.159L79.1014 48.1594ZM79.0754 42.629C79.2664 42.542 79.466 42.416 79.6744 42.2507C79.8826 42.0854 80.0606 41.9029 80.2082 41.7029C80.3558 41.5029 80.4295 41.3332 80.4295 41.1942C80.4295 40.9505 80.3167 40.7462 80.0911 40.5809C79.8652 40.4158 79.5268 40.394 79.0756 40.5157C78.8845 40.568 78.6675 40.6941 78.4245 40.8941C78.1815 41.0941 77.9515 41.3158 77.7345 41.5593C77.5175 41.8028 77.3439 42.0202 77.2137 42.2116C77.0835 42.4029 77.0356 42.5159 77.0704 42.5508C77.1224 42.6378 77.27 42.703 77.513 42.7465C77.7562 42.79 78.0296 42.8029 78.3332 42.7857C78.637 42.7682 78.8844 42.7159 79.0752 42.629H79.0754Z" fill="#5B5B5B"/>
<path fill-rule="evenodd" clip-rule="evenodd" d="M150.019 3.44234L149.925 3.4321L149.051 3.30506C148.795 3.25816 148.461 3.20839 148.202 3.18162C147.228 3.08081 145.846 2.82727 144.752 2.68927C144.596 2.66951 143.95 2.53888 143.866 2.57373C143.657 2.77247 143.355 3.18701 143.175 3.41521C142.993 3.64593 142.672 4.22578 142.417 3.7311C142.491 3.36724 143.064 2.93652 143.21 2.60356C142.739 2.61237 141.532 3.22798 141.5 2.71605C141.484 2.44598 142.055 2.38704 142.286 2.33241C142.495 2.28318 143.067 2.17303 143.225 2.08427C142.954 1.91877 142.678 1.75867 142.398 1.58833C141.957 1.32095 141.743 1.32634 141.734 0.93732C142.041 0.688992 142.271 0.960859 142.553 1.12815C142.776 1.26058 143.086 1.43038 143.274 1.5461C143.18 1.3276 142.604 0.357828 142.647 0.170953C142.69 -0.0155626 142.858 -0.0311955 142.991 0.0372655C143.148 0.171312 143.513 0.993383 143.646 1.24836C144.008 1.94501 143.864 1.87745 144.5 1.97609C145.222 2.08786 145.928 2.26503 146.651 2.3998L150.099 3.08423C150.063 3.20138 150.036 3.32124 150.019 3.44234Z" fill="#FBB416"/>
<path fill-rule="evenodd" clip-rule="evenodd" d="M128.52 2.22546C129.856 2.78735 135.912 5.39264 136.601 5.59514C137.322 5.19246 137.879 4.53804 138.61 4.16411C139.346 4.44514 138.721 4.85357 138.426 5.06057C138.152 5.25302 137.706 5.55615 137.474 5.78939C138.05 5.87025 139.47 5.64276 139.856 6.04059L139.749 6.4395C139.336 6.51784 138.96 6.47292 138.552 6.46393C138.211 6.45639 137.604 6.39637 137.315 6.47346C137.512 6.80336 138.995 7.98373 138.956 8.34041C138.923 8.63402 138.762 8.60545 138.693 8.61497C138.291 8.6705 137.439 7.40837 137.043 7.18466C137.172 7.58177 137.224 8.08004 137.323 8.47715C137.36 8.62216 137.471 9.02412 137.433 9.1659C137.355 9.46508 136.991 9.49868 136.836 9.23993C136.793 9.16751 136.276 6.74784 136.256 6.53653C135.112 5.89037 130.288 3.73017 128.274 2.69355C128.367 2.54585 128.449 2.38952 128.52 2.22582L128.52 2.22546Z" fill="#FBB416"/>
<path fill-rule="evenodd" clip-rule="evenodd" d="M107.597 8.56739C107.909 8.49659 108.289 8.27342 108.784 8.11709C108.979 8.0551 109.025 8.02096 109.221 7.93705L110.645 7.42422C111.267 7.23267 111.847 6.94805 112.467 6.75147C113.094 6.55255 113.699 6.25589 114.328 6.06129L116.149 5.38692C117.298 5.00706 117.164 5.12745 117.37 3.9514C117.463 3.42491 117.548 1.69111 118.246 2.16854C118.548 2.3759 118.314 2.93742 118.26 3.24666C118.189 3.6506 118.123 4.04681 118.032 4.42811C118.259 4.3406 118.45 4.13935 118.637 3.96451C118.959 3.66336 120.197 2.24419 120.453 3.02816C120.598 3.47055 118.727 4.78515 118.429 5.19088C118.878 5.21208 121.19 5.19178 121.37 5.49833C121.512 5.74073 121.307 5.99768 121.1 6.0435C120.797 6.11088 119.136 5.98528 118.807 5.95833C119.12 6.35472 120.535 7.02675 120.708 7.37319C120.916 7.78952 120.508 8.09895 119.934 7.69788L117.958 6.3283C117.407 5.93928 117.518 6.08555 116.975 6.24349L107.73 9.15335C107.701 8.95354 107.656 8.7575 107.597 8.56703L107.597 8.56739Z" fill="#FBB416"/>
<path fill-rule="evenodd" clip-rule="evenodd" d="M131.98 21.5209C131.808 21.402 131.613 21.2898 131.434 21.1646C130.78 20.7064 126.052 17.4068 125.904 17.393C125.671 17.3712 124.324 18.2064 124.07 18.1899C123.738 18.1685 123.699 17.7996 124.026 17.6402C124.422 17.4476 124.843 17.2686 125.229 17.0785C124.716 16.8623 123.062 16.8223 123.386 16.2866C123.577 15.9705 125.036 16.5213 125.466 16.5452L125.358 16.3188C125.317 16.2561 125.268 16.1842 125.214 16.1033L124.645 15.2103C124.538 15.0434 124.381 14.8928 124.462 14.7037C124.543 14.5138 124.753 14.4806 124.905 14.6315C125.223 14.9467 125.488 15.6374 125.809 15.9883C125.857 15.6293 125.819 14.9433 125.807 14.5636C125.796 14.1997 126.077 13.9956 126.293 14.265C126.385 14.3805 126.346 14.7817 126.35 14.9753C126.359 15.4651 126.365 15.9254 126.363 16.4135C126.361 16.7969 126.424 16.7394 126.769 16.9996C127.515 17.564 130.999 20.3319 132.256 21.2216C132.157 21.3139 132.065 21.4138 131.98 21.5209H131.98Z" fill="#FBB416"/>
<path fill-rule="evenodd" clip-rule="evenodd" d="M113.045 27.8779C113.499 27.4914 113.965 27.1033 114.422 26.7241C115.007 26.2391 115.508 25.8032 116.088 25.335L118.577 23.2459C118.82 23.0412 119.167 22.7895 119.377 22.5498C119.345 22.1354 118.946 20.4124 119.106 20.1984C119.216 20.0516 119.435 20.0692 119.54 20.1553C119.673 20.2645 119.675 20.5055 119.703 20.6904C119.766 21.0974 119.829 21.5114 119.91 21.9148C120.246 21.4754 120.482 20.8722 120.754 20.3641C120.882 20.1255 120.963 20.0302 121.298 20.071C121.549 20.4663 121.214 20.8199 120.987 21.2302C120.803 21.5637 120.526 22.0106 120.412 22.3568C120.822 22.2459 121.206 22.1137 121.609 21.9915C121.907 21.9013 122.544 21.5741 122.754 21.8224C123.123 22.26 122.371 22.3971 122.099 22.481C121.875 22.55 121.069 22.7703 120.922 22.8625C121.222 23.0646 123.399 23.2709 122.735 23.8608C122.502 24.0678 120.914 23.5212 120.509 23.4074C120.194 23.3192 120.05 23.2015 119.796 23.3979C119.003 24.0103 118.222 24.6135 117.426 25.1864C116.031 26.1906 114.699 27.3065 113.311 28.2991C113.233 28.1501 113.144 28.0094 113.044 27.8777L113.045 27.8779Z" fill="#FBB416"/>
<path fill-rule="evenodd" clip-rule="evenodd" d="M122.811 11.4476C125.071 11.0735 131.303 9.94112 131.305 9.94022C131.488 9.87248 131.593 9.42613 131.663 9.2486C131.762 8.99758 132.147 7.83985 132.249 7.72575C132.502 7.44526 132.888 7.65819 132.816 8.01001C132.704 8.5568 132.296 9.01932 132.245 9.60654C132.641 9.37348 133.011 9.13504 133.406 8.88994C133.706 8.70361 134.344 8.19383 134.45 8.76039C134.513 9.09712 133.886 9.35246 133.572 9.5467C133.343 9.68937 132.581 10.0638 132.464 10.3213C132.751 10.3188 133.354 10.4847 133.679 10.5596C133.912 10.6131 134.741 10.7292 134.85 10.9693C134.959 11.2086 134.79 11.419 134.513 11.4133C134.071 11.404 133.178 11.0586 132.637 11.0103C132.876 11.3186 133.258 11.6474 133.537 11.9324C133.859 12.2609 134.408 12.6589 133.682 12.9083C133.17 12.5933 131.842 10.9928 131.549 10.9041C131.317 10.8336 124.589 11.7536 122.828 11.9531C122.835 11.7851 122.83 11.616 122.811 11.4471L122.811 11.4476Z" fill="#FBB416"/>
<path fill-rule="evenodd" clip-rule="evenodd" d="M112.127 24.0389C112.725 22.649 114.441 18.0387 114.826 17.0503C115.002 16.5973 115.733 14.8674 115.755 14.5578C115.498 14.1774 114.066 12.5354 114.07 12.2711C114.074 12.0043 114.308 11.8566 114.521 11.9001C114.79 11.9549 115.745 13.3288 115.96 13.5769C116.084 13.035 115.683 10.9854 116.223 10.8041C116.605 10.7934 116.681 10.931 116.697 11.3001C116.712 11.6438 116.727 11.8546 116.728 12.1204C116.729 12.5049 116.668 13.4745 116.757 13.7751C117.232 13.2695 118.348 11.9793 118.826 11.7227C119.776 12.1051 118.756 12.7654 117.624 13.9648C117.997 14.0328 119.277 13.5968 119.648 13.519C120.144 13.4152 120.39 13.9179 119.98 14.192C119.604 14.4421 117.559 14.7089 116.965 14.9571C116.649 15.0892 116.147 16.5259 115.961 16.9347C115.622 17.679 113.508 22.5602 112.661 24.3564L112.638 24.34C112.473 24.2254 112.302 24.1253 112.128 24.0389H112.127Z" fill="#FBB416"/>
<path fill-rule="evenodd" clip-rule="evenodd" d="M144.806 6.20848C144.614 6.45519 144.399 6.71268 144.249 6.89057C143.942 7.25336 143.608 7.67976 143.31 8.07309C142.695 8.886 142.066 9.61877 141.443 10.4502C140.849 11.2419 140.201 12.0503 139.572 12.8233C139.208 13.2715 139.228 13.0149 139.674 14.1907C139.793 14.5039 140.238 15.3751 140.092 15.6692C139.938 15.8586 139.732 15.9003 139.56 15.6999C139.456 15.5785 138.947 14.1663 138.897 13.9951C138.398 14.5999 138.545 16.7879 137.632 16.1168C137.562 15.6142 138.134 14.2691 138.252 13.6301C137.788 13.8267 136.873 14.3902 136.335 14.687C135.811 14.9769 135.38 14.4118 136.067 14.0572L137.6 13.1928C137.198 13.1236 135.648 13.1662 135.45 12.9626C135.415 12.9266 135.101 12.3685 135.907 12.4111L138.141 12.5414C138.672 12.5771 138.595 12.4433 138.876 12.127L144.436 5.80148C144.549 5.94685 144.673 6.08305 144.806 6.2083L144.806 6.20848Z" fill="#FBB416"/>
</svg>
