<svg width="207" height="54" viewBox="0 0 207 54" fill="none" xmlns="http://www.w3.org/2000/svg">
<g clip-path="url(#clip0_4_268)">
<path fill-rule="evenodd" clip-rule="evenodd" d="M102.546 28.0115C107.577 28.0115 109.795 24.9799 109.795 20.1349C109.795 15.2899 107.795 11.3311 102.346 11.3311C97.3051 11.3311 95.0462 14.3399 95.0462 19.2077C95.0462 24.0754 97.0733 28.0115 102.546 28.0115ZM149.514 28.0115C154.545 28.0115 156.763 24.9799 156.763 20.1349C156.763 15.2899 154.764 11.3311 149.314 11.3311C144.274 11.3311 142.015 14.3399 142.015 19.2077C142.015 24.0754 144.042 28.0115 149.514 28.0115ZM166.108 11.5584C166.267 11.9538 166.326 12.3947 166.326 12.8083V20.7848H167.453C170.549 20.7848 172.367 19.3577 172.367 16.1716C172.367 12.9855 170.549 11.5584 167.453 11.5584H166.108ZM181.929 20.2621V26.907C181.929 27.2252 181.893 27.5297 181.798 27.8069H183.084C185.67 27.8069 187.824 26.9297 187.824 24.0482C187.824 21.1666 185.679 20.2621 183.084 20.2621H181.934H181.929ZM115.517 12.1719V11.6538C115.517 11.6038 115.517 11.4493 115.485 11.4084C115.408 11.2902 114.681 11.2811 114.567 11.2811H113.035V10.1994H117.794L125.062 24.8117C125.084 24.8617 125.116 24.9163 125.144 24.9799C125.171 24.9163 125.198 24.8572 125.221 24.8117L132.488 10.1994H137.32V11.2811H135.961C135.743 11.2811 135.047 11.2857 134.906 11.5084C134.838 11.6174 134.834 11.8311 134.834 11.9538C134.834 12.1765 134.856 12.3992 134.856 12.6219L135.506 26.6389C135.547 27.8433 135.593 28.0069 136.833 28.0069H137.865V29.0886H129.807V28.0069H131.238C131.457 28.0069 132.347 28.0024 132.475 27.7524C132.516 27.6751 132.516 27.5433 132.516 27.4615V27.0434L131.984 14.2672L124.73 28.9432L124.548 29.3659H123.907L123.725 28.9432L116.735 14.8672L116.09 26.9934C116.09 27.1934 116.063 27.3888 116.063 27.5842C116.063 27.6479 116.062 27.7706 116.099 27.8297C116.212 28.0296 117.208 28.0342 117.39 28.0342H118.799V29.1159H112.622V28.0069H113.504C113.758 28.0069 114.308 28.0069 114.508 27.8069C114.726 27.5933 114.763 26.907 114.781 26.6343L115.508 12.1719H115.517ZM197.36 19.8849V26.907C197.36 27.2252 197.287 27.5297 197.155 27.8069H201.823C204.064 27.8069 205.305 27.1524 205.509 24.8117L205.718 22.412H206.995L206.455 30.1158L205.377 29.9977L205.436 29.0796C205.236 29.1114 205.037 29.1159 204.855 29.1159H191.933V28.0342H193.315C193.465 28.0342 194.16 28.0387 194.274 27.9251C194.374 27.8251 194.369 27.2615 194.369 27.1297V12.2083C194.369 12.0765 194.369 11.5175 194.274 11.4175C194.165 11.3038 193.465 11.3084 193.315 11.3084H191.933V10.2267H203.373C203.546 10.2267 203.746 10.2312 203.941 10.263L203.859 9.34492L204.968 9.23584L205.536 16.9352H204.168L204.046 14.7763C203.9 12.2628 202.591 11.5447 200.21 11.5447H197.146C197.278 11.822 197.351 12.1265 197.351 12.4446V18.5896H198.028C199.719 18.5896 200.582 18.2396 200.582 16.3579V15.049H201.691V23.9573H200.582V22.1483C200.582 20.2667 199.719 19.894 198.028 19.894H197.351L197.36 19.8849ZM59.9083 10.2267H66.1078V11.3084H64.6807C64.8079 11.5129 64.917 11.7311 65.0124 11.922L68.9712 20.144C68.9848 20.1758 69.003 20.2076 69.0166 20.244L72.4527 12.2765C72.5163 12.0947 72.5981 11.8492 72.5981 11.6584C72.5981 11.6174 72.5981 11.572 72.58 11.5356C72.4891 11.3266 71.8482 11.3084 71.6755 11.3084H69.9938V10.2267H82.4245V11.3084H81.7428C81.5928 11.3084 80.8974 11.3038 80.7883 11.4175C80.6883 11.5175 80.6929 12.081 80.6929 12.2083V17.4215C81.0883 17.4124 81.5973 17.3715 81.7246 17.2215L86.0833 12.2356C86.2015 12.0901 86.4606 11.7538 86.4606 11.5584C86.4606 11.3447 85.5879 11.3084 85.4606 11.3084H84.7789V10.2267H91.7328V11.3084H90.9511C89.5739 11.3084 88.1513 11.8402 87.2378 12.8901L83.2427 17.4806C85.9697 18.2396 87.4105 20.0394 87.9877 22.8846C88.1922 23.8936 88.274 24.9117 88.4513 25.9207C88.5467 26.4707 88.724 27.3206 89.1785 27.6933C89.4058 27.8797 89.683 27.9342 89.9739 27.9342C90.3329 27.9342 90.7465 27.7115 91.0283 27.5115L91.701 27.0343L92.41 27.8615L91.6874 28.3796C90.9647 28.9614 90.1148 29.3932 89.1694 29.3932C85.7697 29.3932 85.4697 25.8617 84.938 23.3073C84.3971 20.703 83.6335 18.5441 80.5929 18.5078V26.907C80.5929 27.0843 80.5838 27.7751 80.7247 27.9115C80.8565 28.0387 81.4974 28.0342 81.6701 28.0342H83.0518V29.1159H75.0025L75.3615 28.0342H76.6478C76.8069 28.0342 77.425 28.0433 77.5477 27.9206C77.6795 27.7933 77.675 27.0797 77.675 26.907V12.2083C77.675 12.0765 77.675 11.5129 77.5795 11.4129C77.4704 11.3038 76.7932 11.3084 76.6478 11.3084H75.2388V11.2811H74.9843C74.8025 11.2811 74.5752 11.2948 74.4253 11.4084C74.1707 11.5993 73.9207 12.2992 73.798 12.6037L67.9531 25.998C67.2259 27.666 65.8169 29.3159 63.8489 29.3159C62.4536 29.3159 62.0172 28.1205 62.0172 26.907V26.3889L62.5263 26.4843C62.949 26.5616 63.5535 26.6525 63.9762 26.6525C65.5078 26.6525 66.3669 26.2525 66.9986 24.8663L67.2213 24.3981C67.285 24.2527 67.3077 24.08 67.3077 23.9209C67.3077 23.7255 67.2531 23.5437 67.1577 23.371V23.3619L62.0263 12.6083C61.8945 12.3219 61.6082 11.6038 61.3446 11.422C61.1855 11.3129 60.9446 11.3038 60.7628 11.3038H58.9266C57.8858 11.3038 57.8994 11.4356 57.8994 12.431V26.907C57.8994 27.9024 57.8858 28.0342 58.9266 28.0342H60.3356V29.1159H52.6817V28.0342H53.8634C54.8861 28.0342 54.8906 27.8933 54.8906 26.907V11.5356H49.2775V17.226C49.2775 19.9985 48.9275 22.921 47.9776 25.539C47.4276 27.057 46.4868 28.9341 45.1687 29.934L44.8642 30.1658L42.6689 27.866L43.0371 27.5751C45.9687 25.2572 47.714 21.5529 47.714 17.826V12.7355C47.714 12.4856 47.7276 11.6902 47.5367 11.4947C47.3185 11.2766 46.2732 11.3038 45.9868 11.3038H44.9551V10.2221H59.9129L59.9083 10.2267ZM181.934 18.9804H183.611C186.184 18.9804 189.57 19.7395 190.715 22.3574C190.951 22.8937 191.06 23.4619 191.06 24.0482C191.06 24.6345 190.947 25.2026 190.715 25.7389C189.57 28.3569 186.184 29.1159 183.611 29.1159H176.507V28.0069H177.889C178.039 28.0069 178.734 28.016 178.848 27.8978C178.948 27.7978 178.943 27.2343 178.943 27.107V12.1856C178.943 12.0629 178.943 11.5038 178.852 11.4084C178.748 11.2993 178.034 11.3084 177.889 11.3084H176.507V10.2267H184.388V11.3084H183.007C182.843 11.3084 182.161 11.3038 182.034 11.4311C181.925 11.5447 181.929 12.0901 181.929 12.2356V18.9804H181.934ZM166.326 22.0938V27.1343C166.326 27.2706 166.326 27.816 166.426 27.9206C166.544 28.0433 167.244 28.0342 167.403 28.0342H168.508V29.1159H160.904V28.0342H162.286C162.436 28.0342 163.131 28.0387 163.24 27.9251C163.34 27.8251 163.336 27.2615 163.336 27.1297V12.2083C163.336 12.0765 163.336 11.5175 163.24 11.4175C163.131 11.3038 162.431 11.3084 162.286 11.3084H160.904V10.2267H168.281C170.767 10.2267 173.471 11.0266 174.839 13.2628C175.38 14.1445 175.635 15.1444 175.635 16.1761C175.635 17.2079 175.394 18.1578 174.871 19.0259C173.512 21.2893 170.78 22.1029 168.281 22.1029H166.326V22.0938ZM149.414 29.3204C143.528 29.3204 138.751 25.8753 138.751 19.6577C138.751 13.44 143.546 10.0221 149.414 10.0221C155.282 10.0221 160.027 13.4809 160.027 19.6577C160.027 25.8344 155.305 29.3204 149.414 29.3204ZM102.446 29.3204C96.5597 29.3204 91.7828 25.8753 91.7828 19.6577C91.7828 13.44 96.5778 10.0221 102.446 10.0221C108.313 10.0221 113.058 13.4809 113.058 19.6577C113.058 25.8344 108.336 29.3204 102.446 29.3204Z" fill="#5B5B5B"/>
<path d="M99.6095 36.7515H44.0508V37.4378H99.6095V36.7515Z" fill="#5B5B5B"/>
<path fill-rule="evenodd" clip-rule="evenodd" d="M103.223 35.8016C103.668 35.0471 104.464 34.7062 105.268 34.7062C106.641 34.7062 107.627 35.7107 107.777 36.9787H104.273V37.5241H107.777C107.645 38.9104 106.514 39.8376 105.232 39.8376C104.509 39.8376 103.682 39.4785 103.205 38.7104H102.491C103.05 39.7558 104.059 40.383 105.232 40.383C107 40.383 108.395 39.0922 108.395 37.2605C108.395 35.8652 107.391 34.1699 105.282 34.1699C104.023 34.1699 103.018 34.7698 102.514 35.8106H103.228L103.223 35.8016ZM109.332 34.2699V40.2739H109.931V34.2699H109.332ZM110.345 37.1969L112.722 40.2739H113.468L111.059 37.1333L113.372 34.2699H112.658L110.345 37.1969ZM116.635 34.1608C114.849 34.1608 113.454 35.4834 113.454 37.2832C113.454 39.0831 114.867 40.3739 116.635 40.3739C118.403 40.3739 119.817 39.0331 119.817 37.2333C119.817 35.4334 118.431 34.1562 116.635 34.1562V34.1608ZM116.645 39.833C115.199 39.833 114.058 38.7922 114.058 37.2832C114.058 35.7743 115.176 34.7017 116.645 34.7017C118.113 34.7017 119.217 35.7425 119.217 37.2333C119.217 38.724 118.103 39.8285 116.645 39.8285V39.833ZM120.408 37.5605V38.1059H122.617V37.5605H120.408ZM126.38 34.1608C124.594 34.1608 123.198 35.4834 123.198 37.2832C123.198 39.0831 124.612 40.3739 126.38 40.3739C128.148 40.3739 129.562 39.0331 129.562 37.2333C129.562 35.4334 128.175 34.1562 126.38 34.1562V34.1608ZM126.389 39.833C124.944 39.833 123.803 38.7922 123.803 37.2832C123.803 35.7743 124.921 34.7017 126.389 34.7017C127.857 34.7017 128.962 35.7425 128.962 37.2333C128.962 38.724 127.848 39.8285 126.389 39.8285V39.833ZM131.339 40.2693H131.939V34.8107H133.311V34.2653H129.971V34.8107H131.343V40.2693H131.339ZM133.966 40.2693H137.261V39.7239H134.566V37.515H137.17V36.9696H134.566V34.8016H137.261V34.2562H133.966V40.2603V40.2693ZM140.847 34.2653H140.279L137.788 40.2693H138.447L140.565 35.0198L142.665 40.2693H143.324L140.851 34.2653H140.847ZM143.997 34.2653V40.2693H145.978C147.115 40.2693 147.887 39.5558 147.887 38.5104C147.887 37.4651 147.196 36.7515 145.978 36.7515H144.601V34.2699H144.001L143.997 34.2653ZM144.597 37.2923H145.983C147.028 37.2923 147.283 38.0468 147.283 38.5104C147.283 38.974 147.033 39.7285 145.983 39.7285H144.597V37.2923Z" fill="#5B5B5B"/>
<path fill-rule="evenodd" clip-rule="evenodd" d="M21.1162 7.82695C21.1162 7.72241 21.1162 7.51334 21.1162 7.38608C21.1162 7.25882 21.1162 7.21791 21.0571 7.1361C20.9981 7.05429 20.8753 6.93157 20.7526 6.84522C20.6299 6.75886 20.5072 6.70887 20.4072 6.67251C20.3072 6.64069 20.2254 6.62706 20.08 6.62251C19.9345 6.61797 19.7209 6.61797 19.5891 6.61797C19.4573 6.61797 19.4118 6.61797 19.3846 6.61797C19.3618 6.61797 19.3618 6.61342 19.3618 6.60433C19.3618 6.59979 19.3618 6.5907 19.3618 6.52252C19.3618 6.45434 19.3618 6.32254 19.3618 6.25436C19.3618 6.18619 19.3618 6.18164 19.3618 6.18164C19.3618 6.18164 19.3709 6.18164 20.2618 6.18164H23.9887C25.0477 6.18164 25.3977 6.18164 25.6658 6.19982C25.934 6.218 26.1294 6.25891 26.343 6.34072C26.5567 6.41798 26.793 6.5407 27.0384 6.73159C27.2839 6.92248 27.5475 7.1861 27.7384 7.4588C27.9293 7.7315 28.052 8.00875 28.1656 8.31327C28.2792 8.61779 28.3838 8.94503 28.4338 9.32227C28.4838 9.69497 28.4792 10.1177 28.4656 10.4585C28.4519 10.804 28.4292 11.0721 28.3747 11.3585C28.3201 11.6448 28.2292 11.9448 28.1247 12.2402C28.0202 12.5356 27.9065 12.8265 27.752 13.1583C27.5975 13.4901 27.402 13.8582 27.1566 14.2673C26.9112 14.6763 26.6112 15.1218 26.2385 15.549C25.8658 15.9762 25.4204 16.3807 24.9704 16.708C24.5159 17.0352 24.0569 17.2852 23.5706 17.4943C23.0842 17.7034 22.5706 17.8806 21.7707 18.1124C20.9708 18.3442 19.88 18.6396 18.9164 18.8896C17.9529 19.1396 17.1211 19.3487 16.6803 19.4668C16.2439 19.5805 16.1985 19.5986 16.1667 19.6214C16.1348 19.6395 16.1076 19.6623 15.9076 20.2622C15.7076 20.8622 15.3304 22.0484 15.1258 22.6847C14.9259 23.321 14.8986 23.4165 14.894 23.4665C14.894 23.5165 14.9122 23.5256 14.9986 23.4483C15.0895 23.3665 15.2486 23.1983 15.4622 23.0211C15.6713 22.8438 15.9349 22.662 16.2076 22.5075C16.4803 22.3575 16.7621 22.2348 17.112 22.1121C17.4575 21.9893 17.8665 21.8575 18.2619 21.7666C18.6528 21.6712 19.03 21.6121 19.4164 21.5757C19.8027 21.5394 20.2027 21.5257 20.489 21.5212C20.7754 21.5167 20.9435 21.5167 21.0571 21.5167C21.1708 21.5167 21.2344 21.5167 21.2662 21.5076C21.298 21.4985 21.298 21.4803 21.298 21.0622C21.298 20.644 21.298 19.8395 21.298 19.4259C21.298 19.0123 21.3071 18.9987 21.3162 18.9942C21.3253 18.9942 21.3435 18.9942 21.4617 18.976C21.5798 18.9532 21.798 18.9032 22.0252 18.8442C22.2525 18.7851 22.4888 18.7124 22.657 18.6487C22.8252 18.5851 22.9206 18.5351 22.9752 18.4987C23.0297 18.4624 23.0433 18.4442 23.0524 18.4442C23.0615 18.4442 23.0615 18.4624 23.0615 18.9669C23.0615 19.4668 23.0615 20.4531 23.0615 20.9531C23.0615 21.453 23.0615 21.4758 23.0661 21.4848C23.0706 21.4939 23.0797 21.4985 23.7705 21.4985C24.4568 21.4985 25.8249 21.4985 26.9248 21.4985C28.0247 21.4985 28.8565 21.4985 29.3564 21.4667C29.8564 21.4348 30.0245 21.3667 30.2518 21.2258C30.479 21.0803 30.7608 20.8576 30.9972 20.5849C31.2335 20.3077 31.4244 19.9804 31.5835 19.6986C31.7426 19.4168 31.8698 19.185 31.9516 19.0214C32.0335 18.8578 32.0653 18.7624 32.0925 18.6987C32.1198 18.6396 32.138 18.6124 32.1607 18.5987C32.1834 18.5851 32.2062 18.5851 32.2607 18.5851C32.3152 18.5851 32.4016 18.5851 32.4471 18.5896C32.4925 18.5942 32.4925 18.6033 32.4743 18.6624C32.4561 18.7169 32.4198 18.8214 32.1789 19.5623C31.938 20.3031 31.488 21.6848 31.2608 22.3802C31.0335 23.0756 31.0245 23.0847 30.9654 23.0938C30.9063 23.1029 30.8017 23.1074 28.9792 23.112C27.1566 23.112 23.616 23.112 21.6025 23.112C19.5891 23.112 19.1119 23.112 18.6392 23.1302C18.1665 23.1483 17.6983 23.1801 17.2757 23.2347C16.853 23.2847 16.4757 23.3529 16.1212 23.4892C15.7667 23.6256 15.4304 23.8255 15.1622 24.0801C14.894 24.33 14.6986 24.63 14.5441 24.9527C14.3895 25.2754 14.2759 25.6208 14.1759 25.8981C14.0759 26.1753 13.9941 26.389 13.9396 26.498C13.885 26.6071 13.8623 26.6071 13.8305 26.6026C13.7987 26.598 13.7532 26.5798 13.6851 26.5617C13.6169 26.5435 13.526 26.5208 13.4851 26.498C13.4442 26.4753 13.4533 26.4571 13.4669 26.4299C13.4805 26.4026 13.4987 26.3617 13.5987 26.1163C13.6942 25.8663 13.8714 25.4118 14.085 24.7891C14.2986 24.1664 14.5532 23.3801 14.7668 22.7211C14.9759 22.0621 15.144 21.5348 15.2758 21.1076C15.4076 20.6804 15.4985 20.3531 15.5622 20.1486C15.6213 19.9395 15.6531 19.8486 15.6622 19.8077C15.6713 19.7623 15.6576 19.7668 15.5804 19.7804C15.5031 19.7941 15.3622 19.8168 15.0668 19.935C14.7713 20.0577 14.3214 20.2759 13.9669 20.5213C13.6078 20.7667 13.3396 21.0394 13.1215 21.3212C12.9033 21.603 12.7306 21.903 12.6079 22.1802C12.4852 22.4575 12.4124 22.7211 12.3534 22.9893C12.2988 23.262 12.2579 23.5392 12.2488 23.8255C12.2397 24.1119 12.2625 24.4073 12.3306 24.7164C12.3988 25.03 12.5079 25.3618 12.6488 25.7027C12.7942 26.0435 12.9715 26.389 13.1942 26.6798C13.4169 26.9662 13.6896 27.1934 13.9714 27.3843C14.2532 27.5752 14.5441 27.7297 14.8304 27.8616C15.1213 27.9934 15.4122 28.107 15.7712 28.1752C16.1303 28.2433 16.5666 28.2661 16.9757 28.2206C17.3893 28.1752 17.7802 28.0615 18.1438 27.9161C18.5028 27.7707 18.8346 27.5934 19.1255 27.4025C19.4209 27.2116 19.6754 27.0071 19.9072 26.7889C20.139 26.5662 20.339 26.3253 20.4481 26.1935C20.5572 26.0617 20.5754 26.039 20.5845 26.0254C20.5935 26.0117 20.5981 26.0026 20.6117 25.9981C20.6254 25.9981 20.6481 25.9981 20.7435 25.9981C20.8435 25.9981 21.0162 25.9981 21.1026 25.9981C21.1889 25.9981 21.1799 25.9981 21.1753 26.0072C21.1708 26.0117 21.1662 26.0254 21.0935 26.1253C21.0208 26.2253 20.8799 26.4162 20.7072 26.6253C20.5345 26.8389 20.3345 27.0707 20.0845 27.3071C19.8345 27.5434 19.5391 27.7797 19.2573 27.9934C18.971 28.2024 18.6983 28.3842 18.4119 28.5342C18.1256 28.6842 17.8347 28.8024 17.5575 28.8887C17.2802 28.9751 17.0166 29.0342 16.7348 29.0569C16.453 29.0842 16.1485 29.0796 15.8485 29.0524C15.5485 29.0251 15.2577 28.9751 14.894 28.8206C14.5304 28.666 14.0987 28.4024 13.7714 28.1706C13.4487 27.9388 13.2306 27.7388 13.0442 27.507C12.8579 27.2752 12.6988 27.0071 12.5443 26.6935C12.3897 26.3799 12.2397 26.0254 12.1261 25.6799C12.0125 25.3345 11.9398 25.0073 11.8898 24.6709C11.8398 24.3346 11.8125 23.9892 11.8125 23.7074C11.8125 23.4256 11.8307 23.2029 11.867 22.9483C11.9034 22.6893 11.9534 22.3984 12.0534 22.0621C12.1488 21.7257 12.2943 21.3485 12.4579 21.0076C12.6215 20.6667 12.8033 20.3668 13.0169 20.0804C13.2306 19.7941 13.4805 19.5305 13.7578 19.3032C14.035 19.0805 14.335 18.8987 14.6941 18.7214C15.0531 18.5442 15.4622 18.3715 15.6894 18.276C15.9167 18.1851 15.953 18.1715 15.994 18.1624C16.0349 18.1488 16.0758 18.1397 16.1076 18.1124C16.1394 18.0851 16.1621 18.0442 16.2167 17.8488C16.2667 17.6534 16.353 17.3034 16.4303 16.9898C16.5075 16.6807 16.5803 16.4126 16.703 16.0126C16.8302 15.6126 17.0075 15.0854 17.2166 14.5173C17.4256 13.9491 17.6711 13.3446 17.8938 12.8356C18.1165 12.3311 18.3165 11.922 18.5665 11.4448C18.821 10.9676 19.1255 10.4176 19.4436 9.94949C19.7618 9.47681 20.0981 9.08593 20.3436 8.81777C20.589 8.54961 20.739 8.40417 20.8435 8.30873C20.9481 8.21783 21.0026 8.17692 21.0481 8.14056C21.089 8.10874 21.1162 8.08147 21.1299 8.06784C21.1435 8.0542 21.1435 8.04511 21.139 8.03602C21.139 8.02693 21.139 8.00875 21.139 7.99966C21.139 7.98603 21.139 7.97239 21.139 7.96785C21.139 7.95876 21.139 7.95876 21.139 7.84968M24.1932 7.23155C24.3387 7.22246 24.6159 7.19519 24.9159 7.23155C25.2159 7.26336 25.534 7.35426 25.8476 7.49062C26.1612 7.62242 26.4658 7.79968 26.7248 8.04057C26.9839 8.27691 27.1975 8.57688 27.3748 8.86322C27.552 9.14956 27.6884 9.41772 27.7793 9.73133C27.8702 10.0449 27.9111 10.3995 27.9065 10.7631C27.902 11.1267 27.852 11.5039 27.7566 11.8721C27.6611 12.2357 27.5248 12.5947 27.3248 12.9492C27.1293 13.3037 26.8748 13.6583 26.6248 13.981C26.3749 14.3037 26.1294 14.5945 25.784 14.8718C25.4386 15.149 24.9932 15.4172 24.675 15.6035C24.3569 15.7853 24.1614 15.8853 23.966 15.9808C23.766 16.0762 23.566 16.1671 23.4388 16.2217C23.3115 16.2762 23.2615 16.2989 23.2206 16.2989C23.1751 16.2989 23.1388 16.2853 23.1251 16.258C23.107 16.2353 23.1115 16.1989 23.1115 14.9627C23.1115 13.7264 23.1115 11.2903 23.1115 9.97676C23.1115 8.66324 23.1115 8.47689 23.1115 8.37236C23.1115 8.26782 23.107 8.24964 23.0933 8.23601C23.0842 8.22237 23.0615 8.21782 22.9433 8.27691C22.8252 8.336 22.6025 8.45871 22.3752 8.59961C22.148 8.74051 21.9162 8.89504 21.748 9.0223C21.5798 9.14956 21.4707 9.24955 21.4071 9.31773C21.3435 9.3859 21.3253 9.42226 21.3117 9.45408C21.298 9.4859 21.2935 9.50862 21.2889 10.6449C21.2889 11.7811 21.2889 14.0264 21.2889 15.2081C21.2889 16.3898 21.2889 16.508 21.2889 16.5898C21.2889 16.6716 21.2889 16.708 21.2753 16.7398C21.2617 16.7716 21.2344 16.7898 20.8799 16.8898C20.5254 16.9852 19.8482 17.1625 19.1528 17.3398C18.4574 17.517 17.7529 17.6988 17.3484 17.7988C16.9439 17.9033 16.8393 17.9261 16.7848 17.9215C16.7303 17.9215 16.7166 17.8897 16.7166 17.8443C16.7166 17.7988 16.7257 17.7306 16.8212 17.3443C16.9166 16.958 17.1029 16.2535 17.3711 15.4354C17.6438 14.6218 17.9983 13.6946 18.3301 12.9447C18.6619 12.1947 18.9664 11.6175 19.2846 11.1085C19.6027 10.5994 19.9254 10.1586 20.2527 9.76769C20.5754 9.37681 20.9026 9.03593 21.248 8.73142C21.598 8.4269 21.9707 8.15874 22.3252 7.94512C22.6843 7.7315 23.0297 7.56788 23.2842 7.46789C23.5387 7.36335 23.7115 7.3179 23.816 7.29063C23.9251 7.26336 23.9705 7.25427 24.0023 7.24973C24.0342 7.24973 24.0523 7.24518 24.2023 7.23155H24.1932ZM19.3709 25.3936C19.3709 25.3618 19.3709 25.3163 19.3709 25.2663C19.3709 25.2163 19.3709 25.1663 19.3755 25.1436C19.38 25.1209 19.3937 25.1209 19.5164 25.1254C19.6391 25.1254 19.88 25.1254 20.0572 25.13C20.2345 25.13 20.3572 25.13 20.4754 25.1027C20.5935 25.0754 20.7163 25.0163 20.8253 24.9254C20.9344 24.8345 21.0299 24.7118 21.098 24.6118C21.1662 24.5119 21.2026 24.4346 21.2208 24.3391C21.2389 24.2437 21.2389 24.1346 21.2344 24.0392C21.2344 23.9437 21.2344 23.8619 21.2344 23.8119C21.2344 23.7619 21.2344 23.7483 21.2344 23.7392C21.2344 23.7301 21.2344 23.7301 21.248 23.7256C21.2571 23.7256 21.2799 23.7256 21.5844 23.7256C21.8934 23.7256 22.4888 23.7256 22.7888 23.7256C23.0888 23.7256 23.0933 23.7256 23.0979 23.7346C23.0979 23.7392 23.0979 23.7483 23.0979 23.7846C23.0979 23.821 23.0979 23.8892 23.107 23.9619C23.1115 24.0346 23.1251 24.1119 23.1706 24.2119C23.216 24.3119 23.3024 24.43 23.3933 24.5028C23.4887 24.5755 23.5887 24.6073 23.7024 24.6255C23.816 24.6437 23.9342 24.6527 24.5523 24.6573C25.1704 24.6573 26.284 24.6573 27.1702 24.6573H30.7063C31.079 24.6573 31.3426 24.6573 31.538 24.6391C31.7289 24.6209 31.8517 24.5846 32.0016 24.5209C32.1516 24.4573 32.3243 24.3619 32.5107 24.2301C32.697 24.0937 32.897 23.921 33.0652 23.7301C33.2333 23.5392 33.3697 23.3347 33.5061 23.112C33.6424 22.8938 33.7742 22.6575 33.856 22.5029C33.9378 22.3484 33.9651 22.2666 33.9969 22.1575C34.0333 22.0439 34.0742 21.8984 34.0969 21.8212C34.1242 21.7394 34.1287 21.7212 34.1424 21.7166C34.1515 21.7076 34.1696 21.7166 34.2287 21.7166C34.2878 21.7166 34.3923 21.7166 34.4469 21.7166C34.5014 21.7166 34.5105 21.7166 34.5151 21.7257C34.5151 21.7348 34.5151 21.7485 34.506 21.7848C34.4923 21.8212 34.4651 21.8757 34.4469 21.9257C34.4287 21.9757 34.4196 22.0257 34.2833 22.4257C34.1469 22.8256 33.8878 23.571 33.7106 24.1073C33.5379 24.6437 33.4515 24.9709 33.4015 25.1572C33.3561 25.3436 33.347 25.3936 33.3379 25.4209C33.3288 25.4481 33.3242 25.4527 33.3106 25.4572C33.297 25.4572 33.2697 25.4572 31.2699 25.4572H19.3982C19.3982 25.4572 19.3846 25.4572 19.3846 25.4481C19.3846 25.439 19.3755 25.4209 19.3755 25.389L19.3709 25.3936Z" fill="#5B5B5B"/>
<path fill-rule="evenodd" clip-rule="evenodd" d="M22.9156 1.50483C22.5975 1.36393 22.0248 1.09578 21.4249 0.868524C20.8249 0.645816 20.2068 0.464014 19.5841 0.318572C18.9615 0.17313 18.3388 0.0685939 17.7343 0.0231434C17.1298 -0.0223072 16.5435 -0.00412697 16.0072 0.0367785C15.4708 0.0822291 14.98 0.15495 14.3437 0.318572C13.7028 0.486739 12.9165 0.745807 12.2166 1.13214C11.5167 1.51392 10.9076 2.02297 10.494 2.47747C10.0804 2.93198 9.86225 3.34103 9.69863 3.75009C9.53501 4.15914 9.43047 4.57274 9.42138 4.99998C9.41229 5.42721 9.50319 5.86808 9.64409 6.23169C9.78499 6.59529 9.97588 6.88163 10.2122 7.12706C10.4531 7.3725 10.7394 7.57702 11.0531 7.6952C11.3667 7.81791 11.7075 7.85882 12.0621 7.83155C12.4166 7.80428 12.7847 7.70883 13.1211 7.54066C13.4574 7.3725 13.7574 7.1407 13.9573 6.868C14.1528 6.59984 14.2437 6.29532 14.2528 5.99535C14.2619 5.69537 14.1937 5.39994 13.9983 5.18633C13.8028 4.97271 13.4847 4.8409 13.1892 4.81363C12.8938 4.78636 12.6302 4.86817 12.3984 5.02725C12.1666 5.18633 11.9757 5.42267 11.903 5.65901C11.8303 5.8999 11.8848 6.14079 11.9712 6.33168C12.0621 6.52712 12.1848 6.66801 12.2939 6.74983C12.3984 6.83164 12.4893 6.84527 12.3984 6.85891C12.3075 6.87254 12.0393 6.88163 11.8394 6.87709C11.6394 6.87254 11.5076 6.84982 11.3076 6.74073C11.1076 6.6362 10.8394 6.44531 10.6667 6.16351C10.494 5.88172 10.4122 5.51357 10.4167 5.1227C10.4213 4.73182 10.5122 4.32277 10.644 3.98643C10.7758 3.6501 10.9485 3.39103 11.2439 3.09106C11.5394 2.79108 11.9484 2.45929 12.3848 2.19113C12.8211 1.92752 13.2756 1.73208 13.7937 1.56392C14.3073 1.39575 14.8845 1.25485 15.539 1.1685C16.1935 1.08214 16.9298 1.05033 17.5661 1.05942C18.2024 1.06851 18.7478 1.12759 19.316 1.23667C19.8886 1.34575 20.484 1.51392 20.9386 1.66391C21.3931 1.80935 21.6976 1.93661 21.8657 2.01842C22.0339 2.10023 22.0566 2.14114 22.0203 2.18204C21.9839 2.2275 21.8794 2.27295 21.2658 2.65928C20.6522 3.04106 19.525 3.76372 18.3388 4.55456C17.1525 5.34995 15.8981 6.21351 14.9663 6.82709C14.0346 7.44067 13.4165 7.79973 12.8756 8.09062C12.3348 8.38604 11.8666 8.61784 11.5348 8.75874C11.203 8.89964 11.0076 8.94963 10.8758 8.97236C10.744 8.99508 10.6804 8.99508 10.6395 8.97236C10.5986 8.94963 10.5758 8.90418 10.4395 8.63602C10.2986 8.36786 10.0441 7.877 9.67591 7.36795C9.30776 6.85891 8.82598 6.33168 8.2533 5.87717C7.68063 5.42721 7.01705 5.04997 6.29893 4.75C5.58081 4.45003 4.80815 4.22277 4.07185 4.07279C3.3401 3.91826 2.6447 3.84099 2.04476 3.78645C1.44481 3.73191 0.935764 3.70464 0.603975 3.69555C0.276731 3.68646 0.126744 3.70009 0.0585685 3.71827C-0.00960738 3.73645 -0.000517258 3.75463 0.0722036 3.86372C0.144924 3.9728 0.276731 4.16823 0.535799 4.55456C0.794867 4.94089 1.1812 5.51357 1.56298 6.0408C1.94477 6.56802 2.31746 7.0498 2.74924 7.50885C3.18102 7.97244 3.67643 8.41786 4.16275 8.7951C4.64907 9.17234 5.1263 9.4814 5.62626 9.73593C6.12622 9.99045 6.65344 10.1859 7.13522 10.3086C7.61699 10.4313 8.04877 10.4768 8.47147 10.4904C8.89415 10.5086 9.29867 10.4995 9.57137 10.4722C9.84407 10.4495 9.98497 10.4086 10.0622 10.404C10.1395 10.3995 10.1486 10.4268 10.185 10.604C10.2213 10.7813 10.2895 11.1085 10.344 11.7676C10.3986 12.4266 10.4395 13.422 10.4486 14.3128C10.4577 15.2036 10.4304 15.999 10.394 16.9035C10.3577 17.8079 10.3031 18.826 10.2622 19.7941C10.2213 20.7622 10.1895 21.6758 10.1668 22.5257C10.144 23.3756 10.1304 24.1528 10.1304 24.871C10.1304 25.5891 10.144 26.2436 10.1531 26.5981C10.1622 26.9526 10.1713 27.0117 10.1622 27.0526C10.1577 27.0935 10.135 27.1162 9.88952 27.1208C9.64409 27.1208 9.16686 27.1071 8.67599 27.1344C8.18513 27.1617 7.67608 27.2344 7.16703 27.3844C6.65799 27.5344 6.15349 27.7662 5.64899 28.1616C5.14448 28.5525 4.64453 29.107 4.29456 29.7205C3.94459 30.3341 3.74006 31.0113 3.69007 31.7385C3.64007 32.4657 3.74006 33.2384 3.92641 33.8656C4.1173 34.4928 4.39455 34.9792 4.78997 35.4064C5.18539 35.8336 5.70353 36.2109 6.38074 36.5336C7.05795 36.8608 7.89424 37.1381 8.64872 37.2608C9.4032 37.3835 10.0759 37.3562 10.6622 37.2699C11.2485 37.1835 11.753 37.0381 12.1166 36.8426C12.4802 36.6472 12.7075 36.4018 12.812 36.1063C12.9165 35.8064 12.9074 35.4564 12.7711 35.1791C12.6393 34.9019 12.3848 34.7019 12.1075 34.5974C11.8348 34.4883 11.5394 34.4747 11.2939 34.5156C11.044 34.5565 10.844 34.6565 10.694 34.811C10.5486 34.961 10.4577 35.1655 10.4304 35.3473C10.4031 35.5291 10.444 35.6836 10.5167 35.8336C10.5895 35.9836 10.6985 36.1245 10.7985 36.2063C10.894 36.2881 10.9803 36.3109 10.9667 36.329C10.9531 36.3472 10.844 36.3654 10.6304 36.4018C10.4167 36.4381 10.1031 36.4927 9.72135 36.4881C9.34412 36.4836 8.8987 36.4199 8.49874 36.3336C8.09423 36.2472 7.73062 36.1427 7.2943 35.9518C6.85797 35.7609 6.35347 35.4837 5.91714 35.111C5.48082 34.7383 5.11721 34.2747 4.88996 33.8247C4.66271 33.3748 4.57181 32.9384 4.55363 32.4567C4.53545 31.9749 4.58544 31.4477 4.71725 30.9704C4.84906 30.4977 5.06267 30.0796 5.38537 29.6933C5.70807 29.3115 6.13531 28.9661 6.58527 28.7297C7.03523 28.4934 7.51246 28.3707 7.9306 28.2752C8.35329 28.1798 8.7169 28.1207 9.08959 28.0889C9.45774 28.057 9.83044 28.057 10.0259 28.0661C10.2259 28.0752 10.2486 28.0934 10.2713 28.1889C10.294 28.2843 10.3077 28.457 10.3713 28.8297C10.4349 29.2024 10.5486 29.7796 10.7167 30.3296C10.8849 30.8795 11.1076 31.4022 11.4076 31.9203C11.7075 32.4385 12.0848 32.9566 12.4711 33.3611C12.8574 33.7656 13.2483 34.0611 13.6119 34.2747C13.9755 34.4928 14.3073 34.6337 14.6482 34.7474C14.9936 34.861 15.3481 34.9428 15.789 34.9837C16.2299 35.0246 16.7616 35.0155 17.3525 34.9746C17.9434 34.9337 18.5978 34.8564 19.1251 34.761C19.6523 34.6656 20.0523 34.5565 20.3113 34.4838C20.5704 34.411 20.6886 34.3747 20.8522 34.4383C21.0158 34.5019 21.2203 34.6565 21.5203 34.8701C21.8203 35.0837 22.2157 35.3519 22.4111 35.4928C22.6066 35.6382 22.6066 35.6564 22.3066 35.8654C22.0066 36.0745 21.4021 36.479 20.7022 36.9335C20.0023 37.388 19.2114 37.888 18.6933 38.2016C18.1752 38.5152 17.9297 38.6425 17.7797 38.697C17.6298 38.7516 17.5707 38.7288 17.2616 38.5607C16.9525 38.388 16.389 38.0698 15.8526 37.8107C15.3163 37.5517 14.8027 37.3608 14.2891 37.279C13.7755 37.2017 13.262 37.2335 12.8711 37.4153C12.4757 37.5926 12.1984 37.9153 12.0348 38.2198C11.553 39.097 12.0984 40.3423 12.9393 40.7423C13.271 40.9014 13.6937 40.9468 14.1391 40.9377C14.58 40.9286 15.0391 40.8605 15.4799 40.7559C15.9254 40.6514 16.3526 40.5105 16.6571 40.3832C16.9616 40.256 17.1389 40.1423 17.2752 40.0742C17.4116 40.006 17.507 39.9787 17.6979 40.0378C17.8888 40.0969 18.1661 40.2378 18.7206 40.5968C19.2705 40.9559 20.0932 41.5331 20.6977 41.9785C21.3022 42.424 21.6885 42.733 21.9612 42.9648C22.2339 43.2012 22.3975 43.3602 22.4521 43.4557C22.5066 43.5511 22.4611 43.5784 22.293 43.7966C22.1248 44.0147 21.8339 44.4147 21.5976 44.8101C21.3612 45.2055 21.1794 45.5919 20.984 46.06C20.784 46.5281 20.5704 47.0781 20.4886 47.7462C20.4068 48.4098 20.4568 49.187 20.5886 49.8324C20.7204 50.4778 20.9386 50.9959 21.2113 51.4777C21.4885 51.964 21.8203 52.4185 22.1339 52.7821C22.443 53.1457 22.7338 53.4184 22.9156 53.5684C23.0884 53.7093 23.1702 53.7321 23.2247 53.7321C23.2793 53.7321 23.3611 53.7093 23.5338 53.5684C23.7156 53.423 24.0019 53.1457 24.3155 52.7821C24.6246 52.4185 24.9609 51.964 25.2382 51.4777C25.5154 50.9914 25.729 50.4778 25.8608 49.8324C25.9927 49.187 26.0426 48.4098 25.9608 47.7462C25.879 47.0826 25.6609 46.5327 25.4654 46.06C25.2654 45.5919 25.0882 45.2055 24.8518 44.8101C24.6155 44.4147 24.3246 44.0102 24.1565 43.7966C23.9883 43.5784 23.9383 43.5511 23.9974 43.4557C24.0519 43.3602 24.2155 43.2012 24.4882 42.9648C24.7609 42.7285 25.1473 42.4194 25.7518 41.9785C26.3563 41.5331 27.1789 40.9605 27.7289 40.5968C28.2788 40.2378 28.5606 40.0969 28.7515 40.0378C28.9424 39.9787 29.0378 40.006 29.1742 40.0742C29.3105 40.1423 29.4878 40.256 29.7923 40.3832C30.0968 40.5105 30.5241 40.6514 30.9695 40.7559C31.4149 40.8605 31.8694 40.9286 32.3103 40.9377C32.7512 40.9468 33.1784 40.9014 33.5056 40.7423C34.3419 40.3423 34.8873 39.097 34.4101 38.2198C34.2419 37.9153 33.9647 37.5926 33.5738 37.4153C33.1784 37.2381 32.6648 37.2017 32.1558 37.279C31.6422 37.3562 31.1286 37.5517 30.5922 37.8107C30.0559 38.0698 29.4923 38.3925 29.1833 38.5607C28.8742 38.7334 28.8151 38.7516 28.6651 38.697C28.5152 38.6425 28.2697 38.5198 27.7516 38.2016C27.2335 37.888 26.4381 37.3835 25.7427 36.9335C25.0427 36.479 24.4428 36.0791 24.1383 35.8654C23.8383 35.6564 23.8383 35.6336 24.0337 35.4928C24.2292 35.3473 24.6246 35.0837 24.9246 34.8701C25.2245 34.6565 25.4291 34.4974 25.5927 34.4383C25.7563 34.3792 25.8745 34.411 26.1335 34.4838C26.3926 34.5565 26.7926 34.6656 27.3198 34.761C27.847 34.8564 28.5015 34.9337 29.0924 34.9746C29.6832 35.0155 30.2105 35.0246 30.6559 34.9837C31.0968 34.9428 31.4513 34.861 31.7967 34.7474C32.1421 34.6337 32.4739 34.4928 32.833 34.2747C33.1966 34.0565 33.5874 33.7656 33.9738 33.3611C34.3601 32.9566 34.7373 32.443 35.0373 31.9203C35.3373 31.4022 35.56 30.8795 35.7282 30.3296C35.8963 29.7796 36.01 29.2024 36.0736 28.8297C36.1372 28.457 36.1554 28.2843 36.1736 28.1889C36.1963 28.0934 36.219 28.0752 36.419 28.0661C36.619 28.057 36.9871 28.057 37.3553 28.0889C37.7234 28.1207 38.0916 28.1798 38.5143 28.2752C38.937 28.3707 39.4097 28.4934 39.8596 28.7297C40.3096 28.9661 40.7414 29.3115 41.0595 29.6933C41.3822 30.075 41.5913 30.4932 41.7231 30.9704C41.8549 31.4431 41.9049 31.9749 41.8867 32.4567C41.8685 32.9384 41.7776 33.3748 41.5504 33.8247C41.3231 34.2747 40.9595 34.7383 40.5232 35.111C40.0869 35.4837 39.5824 35.7609 39.146 35.9518C38.7097 36.1427 38.3461 36.2518 37.9416 36.3336C37.5371 36.4199 37.0962 36.4836 36.719 36.4881C36.3417 36.4927 36.0236 36.4381 35.81 36.4018C35.5964 36.3654 35.4873 36.3518 35.4736 36.329C35.46 36.3109 35.5464 36.2881 35.6418 36.2063C35.7373 36.1245 35.8463 35.9836 35.9236 35.8336C35.9963 35.6836 36.0372 35.5246 36.01 35.3473C35.9827 35.1655 35.8918 34.9655 35.7463 34.811C35.6009 34.661 35.3964 34.561 35.1464 34.5156C34.8964 34.4747 34.6055 34.4883 34.3328 34.5974C34.0601 34.7065 33.8056 34.9064 33.6693 35.1791C33.5329 35.4519 33.5238 35.8064 33.6283 36.1063C33.7329 36.4063 33.9601 36.6472 34.3237 36.8426C34.6873 37.0381 35.1918 37.1835 35.7782 37.2699C36.3645 37.3562 37.0371 37.388 37.7916 37.2608C38.5461 37.1381 39.3824 36.8608 40.0596 36.5336C40.7368 36.2063 41.2504 35.8336 41.6504 35.4064C42.0458 34.9792 42.323 34.4928 42.5139 33.8656C42.7048 33.2384 42.8003 32.4657 42.7503 31.7385C42.7003 31.0113 42.4958 30.3341 42.1458 29.7205C41.7958 29.107 41.2959 28.557 40.7914 28.1616C40.2869 27.7707 39.7824 27.5389 39.2733 27.3844C38.7643 27.2344 38.2552 27.1617 37.7643 27.1344C37.2735 27.1071 36.8008 27.1253 36.5508 27.1208C36.3054 27.1208 36.2872 27.0935 36.2781 27.0526C36.2736 27.0117 36.2781 26.9526 36.2872 26.5981C36.2963 26.2436 36.3099 25.5891 36.3099 24.871C36.3099 24.1528 36.2963 23.3711 36.2736 22.5257C36.2508 21.6758 36.219 20.7622 36.1781 19.7941C36.1372 18.826 36.0827 17.8079 36.0463 16.9035C36.0054 15.999 35.9827 15.2036 35.9918 14.3128C36.0009 13.422 36.0418 12.4266 36.0963 11.7676C36.1509 11.1085 36.219 10.7813 36.2554 10.604C36.2963 10.4268 36.3054 10.3995 36.3781 10.404C36.4554 10.4086 36.5963 10.4495 36.869 10.4722C37.1417 10.495 37.5507 10.504 37.9689 10.4904C38.3916 10.4722 38.8233 10.4268 39.3051 10.3086C39.7869 10.1859 40.3096 9.99045 40.8141 9.73593C41.314 9.4814 41.7913 9.17234 42.2776 8.7951C42.7639 8.41786 43.2548 7.97244 43.6911 7.50885C44.1229 7.04525 44.5001 6.56802 44.8774 6.0408C45.2591 5.51357 45.6455 4.94089 45.9045 4.55456C46.1636 4.16823 46.2954 3.9728 46.3681 3.86372C46.4409 3.75463 46.4499 3.73645 46.3818 3.71827C46.3136 3.70009 46.1636 3.691 45.8364 3.69555C45.5091 3.70464 45.0001 3.73191 44.3956 3.78645C43.7956 3.84099 43.1002 3.9228 42.3685 4.07279C41.6367 4.22732 40.8595 4.45003 40.1414 4.75C39.4233 5.04997 38.7597 5.42267 38.187 5.87717C37.6144 6.32714 37.1326 6.85891 36.7644 7.36795C36.3963 7.877 36.1372 8.36786 36.0009 8.63602C35.86 8.90418 35.8418 8.94963 35.8009 8.97236C35.76 8.99508 35.6963 8.99508 35.5645 8.97236C35.4327 8.94963 35.2373 8.89964 34.9055 8.75874C34.5737 8.61784 34.1056 8.38604 33.5647 8.09062C33.0239 7.79519 32.4057 7.43613 31.474 6.82709C30.5423 6.21351 29.2878 5.3454 28.1016 4.55456C26.9153 3.76372 25.7881 3.04106 25.1745 2.65928C24.561 2.27749 24.4564 2.2275 24.4201 2.18204C24.3792 2.13659 24.4064 2.10023 24.5746 2.01842C24.7382 1.93661 25.0473 1.80935 25.5018 1.66391C25.9563 1.51847 26.5562 1.3503 27.1244 1.23667C27.6925 1.12759 28.2379 1.06851 28.8742 1.05942C29.5105 1.05033 30.2468 1.08214 30.9013 1.1685C31.5558 1.25485 32.1285 1.39575 32.6466 1.56392C33.1648 1.73208 33.6193 1.92298 34.0556 2.19113C34.4919 2.45475 34.9055 2.79108 35.1964 3.09106C35.4918 3.39103 35.6645 3.6501 35.7963 3.98643C35.9281 4.32277 36.019 4.73182 36.0236 5.1227C36.0281 5.51357 35.9463 5.88172 35.7736 6.16351C35.6009 6.44531 35.3327 6.6362 35.1328 6.74073C34.9328 6.84527 34.801 6.868 34.601 6.87709C34.401 6.88163 34.1328 6.87709 34.0419 6.85891C33.951 6.84527 34.0419 6.83164 34.1465 6.74983C34.251 6.66801 34.3783 6.52257 34.4692 6.33168C34.5555 6.13624 34.6101 5.89535 34.5374 5.65901C34.4646 5.42267 34.2737 5.18633 34.0419 5.02725C33.8102 4.86817 33.542 4.78636 33.2511 4.81363C32.9557 4.8409 32.6375 4.97271 32.4421 5.18633C32.2467 5.39994 32.1739 5.69537 32.1876 5.99535C32.1967 6.29532 32.2876 6.59984 32.483 6.868C32.6784 7.13615 32.9829 7.3725 33.3193 7.54066C33.6556 7.70883 34.0238 7.80428 34.3783 7.83155C34.7328 7.85882 35.0737 7.81791 35.3873 7.6952C35.7009 7.57248 35.9872 7.36795 36.2281 7.12706C36.4645 6.88163 36.6554 6.59529 36.7962 6.23169C36.9371 5.86808 37.028 5.42721 37.019 4.99998C37.0099 4.57274 36.9053 4.15914 36.7417 3.75009C36.5781 3.34103 36.3599 2.93652 35.9463 2.47747C35.5327 2.02297 34.9237 1.51392 34.2238 1.13214C33.5238 0.750352 32.733 0.486739 32.0967 0.318572C31.4558 0.150405 30.9695 0.077684 30.4332 0.0367785C29.8969 -0.00867202 29.3105 -0.0223072 28.7061 0.0231434C28.1016 0.0685939 27.4789 0.17313 26.8562 0.318572C26.2335 0.464014 25.6109 0.641271 25.0155 0.868524C24.4155 1.09123 23.8428 1.35939 23.5247 1.50483C23.3838 1.56846 23.2929 1.60937 23.2338 1.63209C23.1747 1.60482 23.0838 1.56846 22.9429 1.50483M23.2338 52.5185C23.1111 52.4049 22.9293 52.2413 22.6929 51.9459C22.4157 51.5959 22.0612 51.0641 21.8157 50.5596C21.5703 50.0506 21.4385 49.5688 21.384 49.1188C21.3294 48.6689 21.3476 48.2553 21.4385 47.7826C21.534 47.3144 21.6976 46.7918 21.9294 46.2963C22.1566 45.8009 22.4475 45.3283 22.6929 44.9737C22.9338 44.6192 23.1293 44.3738 23.2338 44.1965C23.3429 44.3738 23.5383 44.6192 23.7792 44.9737C24.0246 45.3328 24.311 45.8009 24.5428 46.2963C24.77 46.7918 24.9382 47.3144 25.0336 47.7826C25.1291 48.2507 25.1473 48.6689 25.0882 49.1188C25.0336 49.5688 24.8973 50.0506 24.6564 50.5596C24.411 51.0687 24.0565 51.6004 23.7792 51.9459C23.5429 52.2413 23.3611 52.4049 23.2338 52.5185ZM23.2338 42.7239C23.1293 42.6421 22.9747 42.533 22.7338 42.3558C22.3521 42.0785 21.7658 41.6331 21.3385 41.3286C20.9113 41.0241 20.6477 40.8559 20.2477 40.5968C19.8477 40.3378 19.3205 39.9787 19.0205 39.7742C18.7251 39.5697 18.6615 39.5197 18.6388 39.4742C18.616 39.4288 18.6297 39.3833 18.8115 39.2515C18.9933 39.1152 19.3432 38.8925 19.8068 38.6016C20.2704 38.3107 20.8522 37.9516 21.3976 37.5835C21.943 37.2153 22.4566 36.8381 22.752 36.6154C23.0475 36.3881 23.1247 36.3154 23.2065 36.2472L23.2293 36.2291L23.252 36.2472C23.3338 36.3154 23.4111 36.3881 23.7065 36.6154C24.0019 36.8426 24.5155 37.2199 25.0609 37.5835C25.6063 37.9516 26.1881 38.3107 26.6517 38.6016C27.1153 38.8925 27.4653 39.1197 27.6471 39.2515C27.8289 39.3879 27.847 39.4288 27.8243 39.4742C27.8016 39.5197 27.738 39.5697 27.4425 39.7742C27.1471 39.9787 26.6153 40.3332 26.2154 40.5968C25.8154 40.8559 25.5518 41.0241 25.1245 41.3286C24.6973 41.6331 24.111 42.0785 23.7292 42.3558C23.4929 42.5285 23.3338 42.6376 23.2293 42.7239H23.2338ZM23.2338 34.9973C23.1793 34.9564 23.1202 34.911 23.052 34.861C22.7202 34.6156 22.1748 34.2247 21.4976 33.7293C20.8204 33.2339 20.0068 32.6339 19.266 32.1067C18.5251 31.5749 17.857 31.1159 17.1207 30.6159C16.3844 30.116 15.5754 29.5842 14.8073 29.1251C14.0392 28.6661 13.3165 28.2843 12.7438 28.0025C12.1711 27.7253 11.7575 27.548 11.5257 27.4253C11.2939 27.3026 11.2439 27.2298 11.2212 27.1662C11.1985 27.1026 11.1985 27.0344 11.1803 26.4435C11.1621 25.8572 11.1258 24.7437 11.144 23.4574C11.1621 22.1712 11.2258 20.7168 11.303 19.2942C11.3758 17.8716 11.4576 16.4808 11.4894 15.3491C11.5212 14.2173 11.4985 13.3492 11.4576 12.6402C11.4121 11.9312 11.3394 11.3858 11.2803 11.004C11.2167 10.6177 11.1667 10.395 11.1485 10.2586C11.1258 10.1223 11.1394 10.0768 11.1803 10.045C11.2258 10.0132 11.3076 9.99045 11.6257 9.84501C11.9484 9.69957 12.5075 9.43141 13.1074 9.12234C13.7074 8.81328 14.3437 8.46786 15.0436 8.03153C15.7436 7.59975 16.498 7.07707 17.2252 6.57711C17.9525 6.07261 18.6478 5.58629 19.3205 5.11361C19.9932 4.63637 20.6477 4.17278 21.2431 3.77281C21.8385 3.37285 22.3793 3.03651 22.7293 2.83199C22.9884 2.67746 23.1384 2.5911 23.2383 2.52292C23.3383 2.5911 23.4883 2.67291 23.7474 2.83199C24.0974 3.04106 24.6382 3.37739 25.2336 3.77281C25.829 4.17278 26.479 4.63637 27.1562 5.11361C27.8289 5.59084 28.5242 6.07716 29.2515 6.57711C29.9787 7.08161 30.7377 7.59975 31.4331 8.03153C32.133 8.46331 32.7693 8.81328 33.3693 9.12234C33.9692 9.43141 34.5283 9.69957 34.851 9.84501C35.1737 9.99045 35.2509 10.0132 35.2964 10.045C35.3418 10.0768 35.3509 10.1223 35.3282 10.2586C35.3055 10.395 35.2555 10.6177 35.1964 11.004C35.1373 11.3903 35.0646 11.9357 35.0191 12.6402C34.9737 13.3492 34.9555 14.2173 34.9873 15.3491C35.0191 16.4808 35.0964 17.867 35.1737 19.2942C35.2464 20.7168 35.3146 22.1757 35.3327 23.4574C35.3509 24.7437 35.3146 25.8527 35.2964 26.4435C35.2782 27.0299 35.2782 27.098 35.2555 27.1662C35.2327 27.2344 35.1828 27.3026 34.951 27.4253C34.7192 27.548 34.301 27.7207 33.7329 28.0025C33.1602 28.2798 32.4375 28.6661 31.6694 29.1251C30.9013 29.5842 30.0923 30.1205 29.356 30.6159C28.6197 31.1159 27.9516 31.5749 27.2107 32.1067C26.4699 32.6385 25.6563 33.2384 24.9791 33.7293C24.3019 34.2247 23.7565 34.6156 23.4247 34.861C23.3565 34.911 23.2974 34.9564 23.2429 34.9973H23.2338ZM40.4777 21.1713C40.0051 21.1713 39.6233 21.5531 39.6233 22.0258C39.6233 22.4984 40.0051 22.8802 40.4777 22.8802C40.9504 22.8802 41.3322 22.4984 41.3322 22.0258C41.3322 21.5531 40.9504 21.1713 40.4777 21.1713ZM38.687 23.512C37.9961 23.512 37.4326 24.071 37.4326 24.7664C37.4326 25.4618 37.9916 26.0209 38.687 26.0209C39.3824 26.0209 39.9414 25.4618 39.9414 24.7664C39.9414 24.071 39.3824 23.512 38.687 23.512ZM27.6607 42.583C26.9517 42.583 26.379 43.1557 26.379 43.8647C26.379 44.5738 26.9517 45.1465 27.6607 45.1465C28.3697 45.1465 28.9424 44.5738 28.9424 43.8647C28.9424 43.1557 28.3697 42.583 27.6607 42.583ZM29.8878 39.3333C30.015 39.2424 30.2877 39.0743 30.6377 38.8879C30.9877 38.7016 31.4104 38.5016 31.7512 38.3789C32.0921 38.2561 32.3512 38.2062 32.6103 38.2107C32.8648 38.2107 33.1193 38.2607 33.2966 38.3698C33.4738 38.4743 33.5784 38.6379 33.6102 38.8288C33.642 39.0197 33.6011 39.247 33.4738 39.4379C33.3511 39.6333 33.142 39.7924 32.8602 39.8878C32.5784 39.9833 32.2194 40.006 31.8194 39.9651C31.4195 39.9242 30.974 39.8151 30.6422 39.7242C30.3059 39.6333 30.0832 39.5606 29.9559 39.5151C29.8332 39.4697 29.8105 39.4606 29.7878 39.447C29.7696 39.4333 29.7514 39.4242 29.8787 39.3333H29.8878ZM34.6737 28.5615C34.2419 28.7479 33.3875 29.166 32.433 29.7387C31.4785 30.3114 30.4241 31.0431 29.5605 31.634C28.697 32.2203 28.0197 32.6657 27.5607 32.9748C27.1016 33.2793 26.8608 33.4475 26.8653 33.5747C26.8744 33.702 27.1335 33.7838 27.6471 33.852C28.1652 33.9202 28.9424 33.9702 29.5378 33.9883C30.1332 34.0065 30.5513 33.9883 31.0513 33.852C31.5558 33.7202 32.1421 33.4748 32.6421 33.1293C33.142 32.7839 33.5511 32.3339 33.8829 31.8931C34.2147 31.4522 34.4646 31.0204 34.6373 30.5477C34.8101 30.075 34.9101 29.5615 34.9691 29.2297C35.0328 28.8979 35.06 28.7433 35.0782 28.6434C35.0964 28.5434 35.1055 28.4979 35.1055 28.457C35.1055 28.4161 35.1009 28.3752 34.6692 28.5661L34.6737 28.5615ZM44.032 4.8C43.5229 4.87726 42.5185 5.03179 41.5776 5.3045C40.6368 5.5772 39.7642 5.96808 39.0415 6.44076C38.3188 6.91345 37.7507 7.45885 37.3826 7.93154C37.0144 8.40423 36.8508 8.79964 36.769 9.02235C36.6872 9.24506 36.6872 9.2996 36.8917 9.32687C37.0962 9.35869 37.5007 9.36778 37.9734 9.35414C38.4461 9.34051 38.9779 9.2996 39.5915 9.09962C40.2005 8.89964 40.8913 8.53603 41.4913 8.11334C42.0912 7.69065 42.6094 7.21342 43.0502 6.73619C43.4957 6.25896 43.8638 5.78173 44.1047 5.46812C44.3456 5.15451 44.4592 4.99998 44.5274 4.90908C44.5956 4.81363 44.6228 4.78182 44.6274 4.75455C44.6365 4.73182 44.6274 4.71364 44.6137 4.7091C44.6001 4.70001 44.5819 4.70001 44.5683 4.7091C44.5547 4.7091 44.541 4.71819 44.032 4.8ZM5.96259 21.1758C6.43528 21.1758 6.81706 21.5576 6.81706 22.0303C6.81706 22.503 6.43528 22.8848 5.96259 22.8848C5.48991 22.8848 5.10812 22.503 5.10812 22.0303C5.10812 21.5576 5.48991 21.1758 5.96259 21.1758ZM7.75335 23.5165C8.44419 23.5165 9.00778 24.0756 9.00778 24.771C9.00778 25.4664 8.44874 26.0254 7.75335 26.0254C7.05795 26.0254 6.49891 25.4664 6.49891 24.771C6.49891 24.0756 7.05795 23.5165 7.75335 23.5165ZM18.7796 42.5876C19.4887 42.5876 20.0614 43.1603 20.0614 43.8693C20.0614 44.5783 19.4887 45.151 18.7796 45.151C18.0706 45.151 17.4979 44.5783 17.4979 43.8693C17.4979 43.1603 18.0706 42.5876 18.7796 42.5876ZM16.5526 39.3379C16.4253 39.247 16.1526 39.0788 15.8026 38.8925C15.4527 38.7061 15.03 38.5061 14.6891 38.3834C14.3482 38.2607 14.0892 38.2107 13.8301 38.2152C13.5756 38.2152 13.321 38.2652 13.1438 38.3743C12.9665 38.4789 12.862 38.6425 12.8302 38.8334C12.7984 39.0243 12.8393 39.2515 12.9665 39.4424C13.0892 39.6378 13.2983 39.7969 13.5801 39.8924C13.8619 39.9878 14.221 40.0105 14.6209 39.9696C15.0209 39.9287 15.4663 39.8196 15.7981 39.7287C16.1344 39.6378 16.3571 39.5651 16.4844 39.5197C16.6071 39.4742 16.6298 39.4651 16.6526 39.4515C16.6707 39.4379 16.6889 39.4288 16.5617 39.3379H16.5526ZM11.7666 28.5661C12.1984 28.7524 13.0529 29.1706 14.0073 29.7433C14.9618 30.3159 16.0163 31.0477 16.8798 31.6385C17.7434 32.2249 18.4206 32.6703 18.8796 32.9793C19.3387 33.2839 19.5796 33.452 19.575 33.5793C19.5659 33.7065 19.3069 33.7884 18.7933 33.8565C18.2751 33.9247 17.4979 33.9747 16.9025 33.9929C16.3071 34.0111 15.889 33.9929 15.389 33.8565C14.8845 33.7247 14.2982 33.4793 13.7983 33.1339C13.2983 32.7884 12.8893 32.3385 12.5575 31.8976C12.2257 31.4567 11.9757 31.025 11.803 30.5523C11.6303 30.0796 11.5303 29.566 11.4712 29.2342C11.4076 28.9024 11.3803 28.7479 11.3621 28.6479C11.3439 28.5479 11.3349 28.5025 11.3349 28.4616C11.3349 28.4206 11.3394 28.3797 11.7712 28.5706L11.7666 28.5661ZM2.38109 4.8C2.89014 4.87726 3.8946 5.03179 4.83542 5.3045C5.77625 5.5772 6.6489 5.96808 7.37156 6.44076C8.09423 6.91345 8.66236 7.45885 9.03051 7.93154C9.39866 8.40423 9.56228 8.79964 9.64409 9.02235C9.7259 9.24506 9.7259 9.2996 9.52137 9.32687C9.31685 9.35869 8.91234 9.36778 8.43965 9.35414C7.96696 9.34051 7.43519 9.2996 6.82161 9.09962C6.21257 8.89964 5.52172 8.53603 4.92178 8.11334C4.32183 7.69065 3.80369 7.21342 3.36282 6.73619C2.91741 6.25896 2.54926 5.78173 2.30837 5.46812C2.06748 5.15451 1.95386 4.99998 1.88568 4.90908C1.8175 4.81363 1.79023 4.78182 1.78114 4.75455C1.77205 4.73182 1.78114 4.71364 1.79478 4.7091C1.80841 4.70001 1.82659 4.70001 1.84023 4.7091C1.85387 4.7091 1.8675 4.71819 2.37655 4.8H2.38109Z" fill="#5B5B5B"/>
<path d="M206.314 36.7515H150.755V37.4378H206.314V36.7515Z" fill="#5B5B5B"/>
</g>
<defs>
<clipPath id="clip0_4_268">
<rect width="207" height="53.7498" fill="white"/>
</clipPath>
</defs>
</svg>
