<svg width="280" height="45" viewBox="0 0 280 45" fill="none" xmlns="http://www.w3.org/2000/svg">
<path d="M16.7032 6.25568H5.22303C2.59714 6.25568 0.18319 6.20962 0.0541992 4.60645C0.100267 7.36132 1.36254 11.3416 8.06084 11.4245H18.4814C22.001 11.4245 23.5213 13.2488 23.5673 14.6032C23.5673 10.1991 22.2498 6.25568 16.7032 6.25568ZM23.5673 30.4046V18.8507C23.5673 13.3041 18.2695 13.7464 16.0675 13.7464C17.4219 13.7464 17.5509 15.7826 17.5509 18.1965V28.4144C17.5509 33.7123 22.8487 35.9143 25.5944 35.9143C23.5581 35.8222 23.5581 32.1367 23.5673 30.4046ZM8.02397 30.4046V19.0073C8.02397 13.4607 2.72616 12.1893 0.524103 12.1893C1.8785 12.1893 2.00748 14.2255 2.00748 16.6394V28.4144C2.00748 33.7123 7.30532 35.9143 10.051 35.9143C8.01477 35.8222 8.01476 32.1367 8.02397 30.4046Z" fill="#5B5B5B"/>
<path d="M8.81744 0.875291H2.73645C1.34519 0.875291 0.0644953 0.856867 0 0C0.0184272 1.45575 0.700241 3.56567 4.23827 3.61174H9.76644C11.6276 3.61174 12.4384 4.57917 12.4568 5.29783C12.4568 2.95757 11.7566 0.875291 8.81744 0.875291Z" fill="#5B5B5B"/>
<path d="M44.8527 24.591C44.8527 18.6021 42.8994 13.4978 39.085 13.4978C47.4233 13.4978 51.8182 17.4504 51.8182 24.591C51.8182 31.7316 45.166 34.2192 41.3055 34.2192H37.8043C41.6095 34.2192 44.8527 30.847 44.8527 24.591ZM36.6434 11.4892V39.2406C36.6434 41.0649 36.6434 44.9254 38.7717 45.0084C35.8879 45.0084 30.3413 42.705 30.3413 37.1584V9.01077C30.3413 6.47702 30.2031 4.34868 28.7842 4.34868C31.0968 4.33947 36.6434 5.67544 36.6434 11.4892Z" fill="#5B5B5B"/>
<path d="M48.3447 45.0081C46.2348 45.0081 44.5303 43.3496 44.5303 41.2397C44.5303 39.1298 46.2348 37.4253 48.3447 37.4253C50.3164 37.4253 52.1131 39.1298 52.1131 41.2397C52.1131 43.3496 50.4086 45.0081 48.3447 45.0081Z" fill="#5B5B5B"/>
<path d="M63.6751 25.954V16.2612C63.6751 15.4228 63.5553 14.7686 63.3158 14.2711C63.0946 13.7551 62.5695 13.4971 61.731 13.4971H61.4546V12.9443H74.2062V25.9724H71.7094V14.0592H66.172V25.9724L63.6751 25.954Z" fill="#5B5B5B"/>
<path d="M78.6199 31.2144V16.2515C78.6199 15.4131 78.5002 14.7589 78.2606 14.2614C78.0395 13.7454 77.5143 13.4874 76.6759 13.4874H76.123V12.9346H78.6199C79.3202 12.9346 79.8546 13.036 80.2047 13.2387C80.5732 13.4414 80.8312 13.7546 80.9786 14.1785C81.3472 13.8099 81.8447 13.469 82.4712 13.1557C83.0977 12.8241 83.8901 12.6582 84.8576 12.6582C85.9632 12.6582 86.8938 12.9623 87.6308 13.5704C88.3679 14.1785 88.9208 14.9985 89.2893 16.0396C89.6579 17.0623 89.8421 18.1864 89.8421 19.4486C89.8421 20.7109 89.6486 21.8258 89.2617 22.8577C88.8931 23.8896 88.3219 24.7096 87.5387 25.3269C86.7648 25.935 85.7697 26.2391 84.5719 26.2391C83.798 26.2391 83.1254 26.1469 82.5818 25.9627C82.029 25.7968 81.5314 25.6126 81.1168 25.4099V31.2237H78.6199V31.2144ZM83.7519 25.115C84.5904 25.115 85.2445 24.8663 85.7421 24.3687C86.258 23.8528 86.6266 23.171 86.8477 22.3141C87.0872 21.448 87.207 20.4898 87.207 19.4302C87.207 18.3707 87.0965 17.394 86.8753 16.5464C86.6542 15.6987 86.2949 15.0261 85.825 14.5194C85.3643 14.0034 84.7654 13.7454 84.0283 13.7454C83.2912 13.7454 82.6555 13.9205 82.204 14.2706C81.7434 14.6023 81.384 14.98 81.126 15.4131V24.2858C81.5499 24.4885 81.9829 24.682 82.4344 24.8662C82.8951 25.0321 83.3373 25.115 83.7611 25.115H83.7519Z" fill="#5B5B5B"/>
<path d="M98.4656 26.2308C97.1757 26.2308 96.0793 25.9267 95.1671 25.3186C94.2642 24.7105 93.5732 23.8905 93.0849 22.8494C92.6058 21.8175 92.3662 20.675 92.3662 19.4403C92.3662 18.2057 92.6058 17.054 93.0849 16.0313C93.564 14.9994 94.255 14.1794 95.1671 13.5621C96.0701 12.954 97.1757 12.6499 98.4656 12.6499C99.7555 12.6499 100.852 12.954 101.764 13.5621C102.676 14.1702 103.358 14.9902 103.846 16.0313C104.325 17.054 104.565 18.1781 104.565 19.4403C104.565 20.7026 104.325 21.8175 103.846 22.8494C103.367 23.8813 102.676 24.7013 101.764 25.3186C100.852 25.9267 99.7555 26.2308 98.4656 26.2308ZM98.4656 25.1251C99.1659 25.1251 99.774 24.8764 100.29 24.3788C100.806 23.8629 101.202 23.1811 101.478 22.3242C101.773 21.4581 101.921 20.4999 101.921 19.4403C101.921 18.3808 101.773 17.4041 101.478 16.5565C101.202 15.7088 100.806 15.0362 100.29 14.5295C99.774 14.0135 99.1659 13.7555 98.4656 13.7555C97.7654 13.7555 97.1757 14.0135 96.6413 14.5295C96.1254 15.027 95.7108 15.6996 95.4251 16.5565C95.1487 17.4041 95.0105 18.3716 95.0105 19.4403C95.0105 20.5091 95.1487 21.4489 95.4251 22.3242C95.72 23.1719 96.1254 23.8629 96.6413 24.3788C97.1757 24.8764 97.7838 25.1251 98.4656 25.1251Z" fill="#5B5B5B"/>
<path d="M113.162 26.2308C111.789 26.2308 110.656 25.9267 109.753 25.3186C108.85 24.7105 108.168 23.8905 107.726 22.8494C107.284 21.8175 107.062 20.675 107.062 19.4403C107.062 18.2057 107.284 17.054 107.726 16.0313C108.168 14.9994 108.841 14.1794 109.753 13.5621C110.656 12.954 111.789 12.6499 113.162 12.6499C114.139 12.6499 114.959 12.7236 115.631 12.871C116.313 13.0185 116.829 13.2672 117.179 13.6173C117.529 13.9675 117.732 14.4005 117.787 14.9257C117.842 15.4232 117.87 16.1879 117.87 17.2199H117.317C117.244 16.0313 116.866 15.1652 116.175 14.6124C115.511 14.0319 114.682 13.7555 113.706 13.7555C112.775 13.7555 112.029 14.0135 111.439 14.5295C110.849 15.027 110.407 15.6996 110.112 16.5565C109.836 17.4041 109.698 18.3716 109.698 19.4403C109.698 20.5091 109.836 21.4489 110.112 22.3242C110.407 23.1719 110.849 23.8629 111.439 24.3788C112.029 24.8764 112.793 25.1251 113.706 25.1251C114.682 25.1251 115.484 24.9317 116.092 24.5447C116.7 24.1577 117.253 23.6141 117.723 22.9139L118.275 23.3285C117.87 24.0287 117.409 24.5908 116.893 25.0146C116.377 25.4384 115.797 25.7517 115.171 25.9544C114.562 26.1386 113.89 26.2308 113.143 26.2308H113.162Z" fill="#5B5B5B"/>
<path d="M124.863 25.954V14.0407H123.481C122.642 14.0407 121.961 14.2803 121.399 14.7594C120.846 15.2201 120.56 15.9019 120.56 16.8141H120.007V15.1556C120.007 14.6028 120.146 14.096 120.422 13.6354C120.698 13.1747 121.26 12.9443 122.08 12.9443H131.921V14.05H127.351V25.9632H124.863V25.954Z" fill="#5B5B5B"/>
<path d="M134.721 25.9543V16.2616C134.721 15.4232 134.601 14.769 134.361 14.2715C134.14 13.7555 133.615 13.4975 132.776 13.4975H132.362V12.9447H134.721C135.365 12.9447 135.863 13.0276 136.213 13.1935C136.582 13.3593 136.84 13.6818 136.987 14.1701C137.134 14.6492 137.208 15.3587 137.208 16.2708V18.2057H139.29C140.267 18.2057 141.161 18.3254 141.981 18.565C142.792 18.7861 143.446 19.1731 143.943 19.7259C144.441 20.2787 144.69 21.0619 144.69 22.0846C144.69 23.1073 144.441 23.8628 143.943 24.4433C143.446 24.9961 142.792 25.3923 141.981 25.6318C141.17 25.853 140.276 25.9635 139.29 25.9635L134.721 25.9543ZM139.014 24.9777C139.917 24.9777 140.645 24.7566 141.207 24.3143C141.778 23.872 142.064 23.1257 142.064 22.0662C142.064 21.0066 141.778 20.2695 141.207 19.8181C140.654 19.3758 139.926 19.1547 139.014 19.1547C138.738 19.1547 138.415 19.1823 138.037 19.2376C137.687 19.2929 137.411 19.3574 137.199 19.4311V24.6921C137.402 24.7658 137.678 24.8303 138.037 24.8855C138.415 24.95 138.738 24.9869 139.014 24.9777ZM148.992 25.9543C148.347 25.9543 147.841 25.8714 147.472 25.7056C147.122 25.5397 146.873 25.2172 146.726 24.7289C146.578 24.2498 146.505 23.5404 146.505 22.6282V12.9263H149.002V22.619C149.002 23.4574 149.112 24.1208 149.333 24.646C149.573 25.1435 150.107 25.3923 150.946 25.3923H151.36V25.9451C151.351 25.9543 148.992 25.9543 148.992 25.9543Z" fill="#5B5B5B"/>
<path d="M158.483 26.2308C157.193 26.2308 156.106 25.9267 155.24 25.3186C154.392 24.7105 153.747 23.8905 153.305 22.8494C152.881 21.8175 152.669 20.675 152.669 19.4403C152.669 18.2057 152.89 17.054 153.332 16.0313C153.775 14.9994 154.41 14.1794 155.249 13.5621C156.087 12.954 157.073 12.6499 158.216 12.6499C159.478 12.6499 160.51 12.8895 161.321 13.3686C162.159 13.8292 162.767 14.511 163.145 15.4232C163.55 16.3261 163.753 17.4318 163.753 18.7493L163.698 19.855H155.295C155.295 21.3752 155.617 22.6283 156.271 23.6233C156.935 24.6184 157.856 25.1159 159.045 25.1159C159.948 25.1159 160.703 24.9224 161.293 24.5355C161.901 24.1485 162.445 23.6049 162.924 22.9047L163.477 23.3193C163.071 24.0195 162.61 24.5815 162.094 25.0054C161.597 25.4292 161.044 25.7424 160.436 25.9451C159.846 26.1294 159.201 26.2216 158.501 26.2216L158.483 26.2308ZM155.295 18.7493H161.118C161.118 17.1369 160.878 15.9207 160.399 15.0639C159.92 14.1978 159.192 13.7555 158.206 13.7555C157.654 13.7555 157.156 13.9767 156.714 14.4189C156.29 14.8427 155.949 15.4416 155.691 16.1972C155.424 16.9342 155.286 17.7819 155.295 18.7493Z" fill="#5B5B5B"/>
<path d="M175.058 31.3539V16.3173C175.058 15.4789 174.939 14.8155 174.699 14.3179C174.478 13.802 173.944 13.5348 173.114 13.5348H172.562V12.982H175.068C175.777 12.982 176.302 13.0833 176.652 13.286C177.03 13.4887 177.279 13.802 177.436 14.235C177.813 13.8573 178.311 13.5256 178.937 13.2031C179.564 12.8714 180.365 12.7056 181.333 12.7056C182.448 12.7056 183.378 13.0096 184.115 13.6269C184.852 14.235 185.415 15.0643 185.783 16.1054C186.161 17.1189 186.336 18.2614 186.336 19.5329C186.336 20.8043 186.142 21.9192 185.755 22.9603C185.378 24.0015 184.806 24.8215 184.032 25.4388C183.249 26.0469 182.263 26.3602 181.056 26.3602C180.273 26.3602 179.61 26.268 179.048 26.0837C178.495 25.9179 178.007 25.7336 177.574 25.5309V31.3724H175.068L175.058 31.3539ZM180.209 25.2269C181.047 25.2269 181.711 24.9781 182.217 24.4714C182.733 23.9554 183.111 23.2644 183.332 22.4075C183.572 21.5322 183.692 20.574 183.692 19.5144C183.692 18.4549 183.581 17.469 183.36 16.6214C183.139 15.7737 182.789 15.0919 182.3 14.5944C181.84 14.0784 181.232 13.8112 180.494 13.8112C179.757 13.8112 179.122 13.9863 178.661 14.3364C178.2 14.6681 177.841 15.0458 177.574 15.4789V24.3884C178.007 24.5911 178.44 24.7938 178.882 24.9689C179.343 25.144 179.785 25.2269 180.209 25.2269Z" fill="#5B5B5B"/>
<path d="M194.721 26.3411C193.422 26.3411 192.335 26.0371 191.469 25.4198C190.621 24.8117 189.967 23.9824 189.525 22.9413C189.092 21.9001 188.889 20.7577 188.889 19.5138C188.889 18.27 189.11 17.1091 189.562 16.0864C190.004 15.0452 190.649 14.2252 191.478 13.6079C192.317 12.9998 193.302 12.6865 194.454 12.6865C195.716 12.6865 196.748 12.9261 197.568 13.4144C198.407 13.8751 199.015 14.5661 199.402 15.4783C199.807 16.3812 200.01 17.496 200.01 18.8136L199.955 19.9284H191.524C191.524 21.4487 191.847 22.7109 192.501 23.7152C193.174 24.7195 194.104 25.2171 195.283 25.2171C196.186 25.2171 196.942 25.0236 197.541 24.6366C198.149 24.2496 198.702 23.706 199.181 22.9966L199.734 23.4112C199.328 24.1206 198.858 24.6827 198.342 25.1065C197.845 25.5395 197.283 25.8436 196.675 26.0555C196.076 26.2398 195.422 26.3319 194.721 26.3411ZM191.524 18.8136H197.366C197.366 17.2012 197.126 15.9666 196.647 15.1097C196.159 14.2344 195.431 13.8014 194.445 13.8014C193.892 13.8014 193.385 14.0225 192.943 14.4648C192.51 14.8978 192.178 15.4783 191.911 16.243C191.644 16.9893 191.524 17.8369 191.524 18.8136Z" fill="#5B5B5B"/>
<path d="M203.611 26.0556V16.3168C203.611 15.4783 203.491 14.815 203.252 14.3174C203.031 13.8015 202.506 13.5343 201.667 13.5343H201.252V12.9814H203.62C204.275 12.9814 204.772 13.0644 205.122 13.2302C205.5 13.3961 205.749 13.7185 205.905 14.2069C206.053 14.6952 206.126 15.3954 206.126 16.326V24.9499H210.438V12.9814H212.945V24.9499H217.256V12.9814H219.763V26.0648L203.611 26.0556Z" fill="#5B5B5B"/>
<path d="M228.858 26.3411C227.559 26.3411 226.471 26.0371 225.605 25.4198C224.758 24.8117 224.103 23.9824 223.661 22.9413C223.228 21.9001 223.025 20.7577 223.025 19.5138C223.025 18.27 223.246 17.1091 223.698 16.0864C224.14 15.0452 224.785 14.2252 225.614 13.6079C226.453 12.9998 227.439 12.6865 228.59 12.6865C229.853 12.6865 230.885 12.9261 231.705 13.4144C232.543 13.8751 233.151 14.5661 233.538 15.4783C233.944 16.3812 234.146 17.496 234.146 18.8136L234.091 19.9284H225.66C225.66 21.4487 225.983 22.7109 226.637 23.7152C227.31 24.7195 228.24 25.2171 229.42 25.2171C230.323 25.2171 231.078 25.0236 231.677 24.6366C232.285 24.2496 232.838 23.706 233.317 22.9966L233.87 23.4112C233.464 24.1206 232.995 24.6827 232.479 25.1065C231.981 25.5395 231.419 25.8436 230.811 26.0555C230.221 26.2398 229.567 26.3319 228.858 26.3411ZM225.66 18.8136H231.502C231.502 17.2012 231.262 15.9666 230.774 15.1097C230.286 14.2344 229.558 13.8014 228.572 13.8014C228.019 13.8014 227.512 14.0225 227.07 14.4648C226.637 14.8978 226.305 15.4783 226.038 16.243C225.78 16.9893 225.651 17.8369 225.66 18.8136Z" fill="#5B5B5B"/>
<path d="M237.747 26.0556V16.3168C237.747 15.4783 237.628 14.815 237.388 14.3174C237.167 13.8015 236.633 13.5343 235.803 13.5343H235.389V12.9814H237.757C238.411 12.9814 238.908 13.0644 239.258 13.2302C239.636 13.3961 239.885 13.7185 240.042 14.2069C240.189 14.6952 240.263 15.3954 240.263 16.326V18.9703H245.828V12.9907H248.334V22.7295C248.334 23.5679 248.444 24.2405 248.666 24.7564C248.905 25.254 249.449 25.512 250.278 25.512H250.692V26.0648H248.325C247.67 26.0648 247.164 25.9819 246.795 25.816C246.445 25.6502 246.196 25.3277 246.049 24.8394C245.901 24.351 245.828 23.6508 245.828 22.7202V20.0759H240.263V26.0556H237.747Z" fill="#5B5B5B"/>
<path d="M253.134 26.0556V16.3168C253.134 15.4783 253.014 14.815 252.775 14.3174C252.554 13.8015 252.019 13.5343 251.19 13.5343H250.775V12.9814H253.143C253.797 12.9814 254.295 13.0644 254.645 13.2302C255.023 13.3961 255.272 13.7185 255.428 14.2069C255.576 14.6952 255.649 15.3954 255.649 16.326V23.5587L261.491 12.9814H263.997V26.0648H261.491V15.4876L255.649 26.0648L253.134 26.0556Z" fill="#5B5B5B"/>
<path d="M267.997 26.3412C267.721 26.3412 267.444 26.3135 267.159 26.2583C266.892 26.203 266.67 26.1385 266.458 26.0648V25.512C267.113 25.4383 267.638 25.1619 268.043 24.7012C268.449 24.2405 268.808 23.7706 269.103 23.2823L270.77 20.3615C269.932 20.2141 269.195 19.8364 268.541 19.2191C267.887 18.611 267.564 17.7817 267.564 16.7406C267.564 15.7824 267.813 15.0269 268.32 14.4833C268.836 13.9305 269.517 13.5343 270.347 13.3131C271.194 13.092 272.125 12.9814 273.129 12.9814H279.671V13.5343H279.56C278.777 13.5527 278.28 13.8291 278.058 14.3451C277.837 14.8426 277.727 15.506 277.727 16.3168V26.0556H275.221V20.4905H273.046L271.379 23.8259C270.945 24.6643 270.476 25.2908 269.96 25.7147C269.444 26.1201 268.78 26.3228 267.988 26.3228L267.997 26.3412ZM273.424 19.5139C273.7 19.5139 274.023 19.4863 274.373 19.431C274.751 19.3757 275.027 19.3112 275.239 19.2375V14.2253C275.036 14.1516 274.751 14.0871 274.373 14.0318C274.023 13.9765 273.71 13.9489 273.424 13.9489C272.438 13.9489 271.655 14.17 271.084 14.6123C270.512 15.0453 270.218 15.7363 270.218 16.7314C270.218 17.7172 270.512 18.4267 271.084 18.8782C271.655 19.3112 272.438 19.5139 273.424 19.5139Z" fill="#5B5B5B"/>
<path d="M67.6753 44.7323L65.3166 41.5904H64.5703V44.7323H63.5107V37.7207H64.5703V40.6783H64.9204L67.574 37.7207H68.8639L66.0629 40.8626L68.9744 44.7323H67.6753Z" fill="#5B5B5B"/>
<path d="M76.9988 41.2309C76.9988 41.9773 76.8606 42.6222 76.5842 43.1566C76.3077 43.691 75.9392 44.1056 75.4601 44.3912C74.981 44.6769 74.4466 44.8243 73.8385 44.8243C73.2304 44.8243 72.6868 44.6769 72.2169 44.3912C71.7378 44.1056 71.3693 43.691 71.0928 43.1474C70.8164 42.613 70.6782 41.9681 70.6782 41.2218C70.6782 40.4754 70.8164 39.8305 71.0928 39.2961C71.3693 38.7617 71.7378 38.3471 72.2169 38.0615C72.696 37.7758 73.2304 37.6284 73.8385 37.6284C74.4466 37.6284 74.981 37.7758 75.4601 38.0615C75.9392 38.3471 76.3077 38.7617 76.5842 39.2961C76.8606 39.8397 76.9988 40.4846 76.9988 41.2309ZM75.9484 41.2309C75.9484 40.6597 75.8563 40.1806 75.672 39.7844C75.4877 39.3975 75.239 39.0934 74.9165 38.8907C74.594 38.688 74.2347 38.5866 73.8385 38.5866C73.4331 38.5866 73.0738 38.688 72.7605 38.8907C72.4472 39.0934 72.1893 39.3882 72.0142 39.7844C71.8299 40.1714 71.7378 40.6597 71.7378 41.2309C71.7378 41.8022 71.8299 42.2813 72.0142 42.6775C72.1985 43.0645 72.4472 43.3685 72.7605 43.5712C73.0738 43.7739 73.4423 43.8753 73.8385 43.8753C74.2439 43.8753 74.6032 43.7739 74.9165 43.5712C75.239 43.3685 75.4877 43.0737 75.672 42.6775C75.8563 42.2813 75.9484 41.8022 75.9484 41.2309Z" fill="#5B5B5B"/>
<path d="M79.2744 44.7323V37.7207H80.334V40.7704H83.8259V37.7207H84.8855V44.7323H83.8259V41.6734H80.334V44.7323H79.2744Z" fill="#5B5B5B"/>
<path d="M93.2154 40.0057H92.1466C92.1097 39.7754 92.0268 39.5727 91.9163 39.4068C91.8057 39.2318 91.6675 39.0843 91.5017 38.9646C91.3358 38.8448 91.1608 38.7527 90.9581 38.6882C90.7554 38.6237 90.5434 38.596 90.3223 38.596C89.9169 38.596 89.5576 38.6974 89.2351 38.9001C88.9126 39.1028 88.6639 39.3976 88.4796 39.7938C88.2953 40.19 88.2032 40.6691 88.2032 41.2311C88.2032 41.8024 88.2953 42.2815 88.4796 42.6777C88.6639 43.0738 88.9126 43.3687 89.2351 43.5714C89.5576 43.7741 89.9169 43.8754 90.3131 43.8754C90.5342 43.8754 90.7461 43.8478 90.9488 43.7833C91.1515 43.7188 91.3266 43.6359 91.4924 43.5161C91.6583 43.3963 91.7965 43.2489 91.9071 43.0831C92.0176 42.9172 92.1005 42.7145 92.1374 42.4934H93.2062C93.1509 42.8343 93.0403 43.1568 92.8745 43.4424C92.7086 43.728 92.5059 43.9768 92.248 44.1887C91.99 44.4006 91.7043 44.5572 91.3727 44.677C91.0502 44.7876 90.6908 44.8521 90.3039 44.8521C89.6958 44.8521 89.1522 44.7047 88.6823 44.419C88.2124 44.1334 87.8346 43.7188 87.5582 43.1752C87.2818 42.6316 87.1528 41.9959 87.1528 41.2496C87.1528 40.5033 87.291 39.8583 87.5674 39.3239C87.8438 38.7895 88.2124 38.3749 88.6915 38.0893C89.1706 37.8036 89.705 37.6562 90.3131 37.6562C90.6816 37.6562 91.0318 37.7115 91.3542 37.8129C91.6767 37.9142 91.9716 38.0708 92.2295 38.2735C92.4875 38.4762 92.6994 38.725 92.8653 39.0198C93.0403 39.2963 93.1509 39.628 93.2154 40.0057Z" fill="#5B5B5B"/>
<path d="M96.0342 44.7323H94.9102L97.4347 37.7207H98.6601L101.185 44.7323H100.061L98.0796 38.9922H98.0244L96.0342 44.7323ZM96.2277 41.9866H99.8671V42.8803H96.2277V41.9866Z" fill="#5B5B5B"/>
<path d="M102.622 44.7323V43.8109L102.825 43.8017C103.101 43.7925 103.322 43.7003 103.479 43.5161C103.636 43.3318 103.755 43.037 103.829 42.6316C103.903 42.2262 103.949 41.6826 103.976 41.01L104.096 37.7207H108.528V44.7323H107.487V38.6236H105.091L104.981 41.2956C104.953 42.0419 104.879 42.6777 104.75 43.1844C104.631 43.6911 104.428 44.0781 104.133 44.3361C103.838 44.5941 103.433 44.7231 102.898 44.7231H102.622V44.7323Z" fill="#5B5B5B"/>
<path d="M110.702 38.6329V37.7207H116.129V38.6329H113.945V44.7323H112.895V38.6329H110.702Z" fill="#5B5B5B"/>
<path d="M118.286 37.7207H119.336V42.8711H119.4L122.966 37.7207H123.943V44.7323H122.883V39.5911H122.819L119.262 44.7323H118.286V37.7207Z" fill="#5B5B5B"/>
<path d="M126.44 44.7323V37.7207H127.5V40.7704H130.991V37.7207H132.051V44.7323H130.991V41.6734H127.5V44.7323H126.44Z" fill="#5B5B5B"/>
<path d="M138.933 37.7207V38.6329H135.616V44.7323H134.557V37.7207H138.933Z" fill="#5B5B5B"/>
<path d="M147.179 41.2309C147.179 41.9773 147.041 42.6222 146.765 43.1566C146.488 43.691 146.12 44.1056 145.641 44.3912C145.162 44.6769 144.627 44.8243 144.019 44.8243C143.411 44.8243 142.867 44.6769 142.398 44.3912C141.918 44.1056 141.55 43.691 141.273 43.1474C140.997 42.613 140.859 41.9681 140.859 41.2218C140.859 40.4754 140.997 39.8305 141.273 39.2961C141.55 38.7617 141.918 38.3471 142.398 38.0615C142.877 37.7758 143.411 37.6284 144.019 37.6284C144.627 37.6284 145.162 37.7758 145.641 38.0615C146.12 38.3471 146.488 38.7617 146.765 39.2961C147.041 39.8397 147.179 40.4846 147.179 41.2309ZM146.129 41.2309C146.129 40.6597 146.037 40.1806 145.853 39.7844C145.668 39.3975 145.42 39.0934 145.097 38.8907C144.775 38.688 144.415 38.5866 144.019 38.5866C143.614 38.5866 143.254 38.688 142.941 38.8907C142.628 39.0934 142.37 39.3882 142.195 39.7844C142.011 40.1714 141.918 40.6597 141.918 41.2309C141.918 41.8022 142.011 42.2813 142.195 42.6775C142.379 43.0645 142.628 43.3685 142.941 43.5712C143.254 43.7739 143.623 43.8753 144.019 43.8753C144.425 43.8753 144.784 43.7739 145.097 43.5712C145.42 43.3685 145.668 43.0737 145.853 42.6775C146.037 42.2813 146.129 41.8022 146.129 41.2309Z" fill="#5B5B5B"/>
<path d="M149.455 44.7323V37.7207H152.026C152.523 37.7207 152.938 37.8036 153.26 37.9695C153.583 38.1353 153.832 38.3565 153.988 38.6329C154.154 38.9093 154.228 39.2225 154.228 39.5726C154.228 39.8675 154.172 40.107 154.071 40.3097C153.961 40.5124 153.822 40.6691 153.638 40.7889C153.454 40.9086 153.26 40.9916 153.048 41.0468V41.1113C153.279 41.1205 153.509 41.1942 153.73 41.3325C153.951 41.4707 154.136 41.6641 154.283 41.9221C154.43 42.1801 154.504 42.4841 154.504 42.8435C154.504 43.2028 154.421 43.5253 154.255 43.8109C154.09 44.0965 153.832 44.3177 153.481 44.4835C153.131 44.6493 152.689 44.7323 152.145 44.7323H149.455ZM150.515 40.7612H151.934C152.173 40.7612 152.385 40.7151 152.579 40.623C152.772 40.5309 152.919 40.4019 153.03 40.236C153.141 40.0702 153.196 39.8767 153.196 39.6463C153.196 39.3607 153.094 39.112 152.892 38.9185C152.689 38.725 152.376 38.6236 151.961 38.6236H150.515V40.7612ZM150.515 43.8293H152.044C152.551 43.8293 152.91 43.728 153.131 43.5345C153.352 43.341 153.463 43.0923 153.463 42.7974C153.463 42.5763 153.408 42.3736 153.297 42.1893C153.187 42.005 153.03 41.8576 152.818 41.747C152.615 41.6365 152.367 41.5812 152.081 41.5812H150.515V43.8293Z" fill="#5B5B5B"/>
<path d="M157.315 44.7323H156.191L158.715 37.7207H159.941L162.465 44.7323H161.341L159.36 38.9922H159.305L157.315 44.7323ZM157.508 41.9866H161.148V42.8803H157.508V41.9866Z" fill="#5B5B5B"/>
<path d="M165.938 41.5721H167.108L165.404 44.7324H164.206L165.938 41.5721ZM169.403 44.7324H168.343V38.633H167.016C166.666 38.633 166.39 38.6882 166.169 38.7896C165.947 38.8909 165.791 39.0384 165.689 39.2411C165.588 39.4345 165.542 39.6649 165.542 39.9321C165.542 40.1993 165.588 40.4204 165.689 40.6047C165.791 40.789 165.947 40.9364 166.159 41.0285C166.371 41.1206 166.657 41.1759 166.998 41.1759H168.794V42.0881H166.896C166.353 42.0881 165.901 41.9959 165.542 41.8209C165.183 41.6366 164.915 41.3878 164.731 41.0654C164.547 40.7429 164.464 40.3651 164.464 39.9321C164.464 39.499 164.556 39.1213 164.731 38.7896C164.906 38.4579 165.173 38.1999 165.542 38.0157C165.901 37.8314 166.353 37.7393 166.887 37.7393H169.384V44.7324H169.403Z" fill="#5B5B5B"/>
<path d="M179.583 44.7323L177.224 41.5904H176.478V44.7323H175.418V37.7207H176.478V40.6783H176.828L179.482 37.7207H180.772L177.971 40.8626L180.882 44.7323H179.583Z" fill="#5B5B5B"/>
<path d="M188.908 41.2309C188.908 41.9773 188.77 42.6222 188.493 43.1566C188.217 43.691 187.848 44.1056 187.369 44.3912C186.89 44.6769 186.356 44.8243 185.748 44.8243C185.14 44.8243 184.596 44.6769 184.126 44.3912C183.647 44.1056 183.278 43.691 183.002 43.1474C182.726 42.6038 182.587 41.9681 182.587 41.2218C182.587 40.4754 182.726 39.8305 183.002 39.2961C183.278 38.7617 183.647 38.3471 184.126 38.0615C184.605 37.7758 185.14 37.6284 185.748 37.6284C186.356 37.6284 186.89 37.7758 187.369 38.0615C187.848 38.3471 188.217 38.7617 188.493 39.2961C188.77 39.8397 188.908 40.4846 188.908 41.2309ZM187.858 41.2309C187.858 40.6597 187.765 40.1806 187.581 39.7844C187.397 39.3975 187.148 39.0934 186.826 38.8907C186.503 38.688 186.144 38.5866 185.748 38.5866C185.342 38.5866 184.983 38.688 184.67 38.8907C184.356 39.0934 184.098 39.3882 183.923 39.7844C183.739 40.1714 183.647 40.6597 183.647 41.2309C183.647 41.8022 183.739 42.2813 183.923 42.6775C184.108 43.0645 184.356 43.3685 184.67 43.5712C184.983 43.7739 185.352 43.8753 185.748 43.8753C186.153 43.8753 186.512 43.7739 186.826 43.5712C187.148 43.3685 187.397 43.0737 187.581 42.6775C187.765 42.2813 187.858 41.8022 187.858 41.2309Z" fill="#5B5B5B"/>
<path d="M191.184 37.7207H192.464L194.694 43.166H194.777L197.007 37.7207H198.287V44.7323H197.283V39.6556H197.219L195.155 44.7138H194.316L192.252 39.6463H192.188V44.7231H191.184V37.7207Z" fill="#5B5B5B"/>
<path d="M206.275 37.7207V44.7323H205.224V38.6236H201.926V44.7323H200.875V37.7207H206.275Z" fill="#5B5B5B"/>
<path d="M209.444 44.7323H208.32L210.845 37.7207H212.07L214.595 44.7323H213.471L211.49 38.9922H211.434L209.444 44.7323ZM209.638 41.9866H213.277V42.8803H209.638V41.9866Z" fill="#5B5B5B"/>
<path d="M216.567 44.7323V37.7207H217.627V40.7704H221.119V37.7207H222.178V44.7323H221.119V41.6734H217.627V44.7323H216.567Z" fill="#5B5B5B"/>
<path d="M224.685 37.7207H225.735V42.8711H225.799L229.365 37.7207H230.342V44.7323H229.282V39.5911H229.218L225.661 44.7323H224.685V37.7207Z" fill="#5B5B5B"/>
<path d="M234.35 41.5721H235.52L233.815 44.7324H232.618L234.35 41.5721ZM237.814 44.7324H236.755V38.633H235.428C235.078 38.633 234.801 38.6882 234.58 38.7896C234.359 38.8909 234.202 39.0384 234.101 39.2411C234 39.4345 233.954 39.6649 233.954 39.9321C233.954 40.1993 234 40.4204 234.101 40.6047C234.202 40.789 234.359 40.9364 234.571 41.0285C234.783 41.1298 235.069 41.1759 235.409 41.1759H237.206V42.0881H235.308C234.764 42.0881 234.313 41.9959 233.954 41.8209C233.594 41.6366 233.327 41.3878 233.143 41.0654C232.959 40.7429 232.876 40.3651 232.876 39.9321C232.876 39.499 232.968 39.1213 233.143 38.7896C233.318 38.4579 233.594 38.1999 233.954 38.0157C234.313 37.8314 234.764 37.7393 235.308 37.7393H237.805V44.7324H237.814Z" fill="#5B5B5B"/>
</svg>
