<svg width="246" height="37" viewBox="0 0 246 37" fill="none" xmlns="http://www.w3.org/2000/svg">
<path d="M8.58441 21.4895C13.4899 21.4895 15.4965 18.6678 16.1655 17.8446L13.713 16.1984C13.044 17.0215 11.3717 18.6672 8.58491 18.6672C5.12863 18.6672 2.89933 16.0806 2.89933 12.7887C2.89933 9.49674 5.24072 6.91011 8.58491 6.91011C11.9291 6.91011 13.1556 9.02654 13.6019 10.555L16.5008 10.202C15.9433 7.73322 13.9367 4.08838 8.58541 4.08838C3.2341 4.08838 0 8.32177 0 12.7892C0 17.2566 3.00992 21.4895 8.58441 21.4895Z" fill="#5B5B5B"/>
<path d="M17.7705 20.548H20.0003L29.1422 9.37892V20.548H32.041V4.08838H29.8112L20.6693 15.2575V4.08838H17.7705V20.548Z" fill="#5B5B5B"/>
<path d="M33.3086 20.5486H42.4505C46.0178 20.5486 47.8018 17.8446 47.8018 15.1402C47.8018 12.4358 45.7951 10.3904 42.4505 10.0848H36.2074V6.91011H46.6869V4.08838H33.3086V20.5486ZM36.2074 17.7268V12.7887H42.3394C43.5658 12.906 44.9034 13.494 44.9034 15.2575C44.9034 17.021 43.6769 17.7263 42.3394 17.7263H36.2074V17.7268Z" fill="#5B5B5B"/>
<path d="M57.6547 21.4895C62.5602 21.4895 64.5668 18.6678 65.2358 17.8446L62.7828 16.1984C62.1138 17.0215 60.4414 18.6672 57.6547 18.6672C54.1984 18.6672 51.9691 16.0806 51.9691 12.7887C51.9691 9.49674 54.3105 6.91011 57.6547 6.91011C60.9989 6.91011 62.2254 9.02654 62.6717 10.555L65.5706 10.202C65.0131 7.73322 63.0065 4.08838 57.6552 4.08838C52.3039 4.08838 49.0708 8.32071 49.0708 12.7887C49.0708 17.2566 52.0807 21.489 57.6552 21.489L57.6547 21.4895Z" fill="#5B5B5B"/>
<path d="M71.5432 20.548H74.4421V6.91011H80.0166V4.08838H65.9688V6.91011H71.5432V20.548Z" fill="#5B5B5B"/>
<path d="M81.2827 20.548H84.1806V14.6695H90.4241C93.7688 14.3638 95.7754 12.2007 95.7754 9.49621V4.08838H81.2822V20.548H81.2827ZM84.1806 11.8477V6.90958H92.8766V9.37839C92.8766 11.1419 91.539 11.7299 90.312 11.8472H84.1806V11.8477Z" fill="#5B5B5B"/>
<path d="M105.631 21.489C111.205 21.489 114.215 17.2566 114.215 12.7887C114.215 8.32071 111.205 4.08838 105.631 4.08838C100.056 4.08838 97.0464 8.32071 97.0464 12.7887C97.0464 17.2566 100.056 21.489 105.631 21.489ZM105.631 18.6672C102.287 18.6672 99.9452 16.0806 99.9452 12.7887C99.9452 9.49674 102.287 6.91011 105.631 6.91011C108.975 6.91011 111.316 9.49674 111.316 12.7887C111.316 16.0806 108.975 18.6672 105.631 18.6672Z" fill="#5B5B5B"/>
<path d="M119.053 2.35153H126.857V0H119.053V2.35153ZM115.486 20.5747H117.716L126.857 9.40559V20.5747H129.756V4.11504H127.526L118.385 15.2841V4.11504H115.486V20.5747Z" fill="#5B5B5B"/>
<path d="M131.024 20.7433H133.925L135.264 8.84716L139.282 17.8882H142.853L146.871 8.84716L148.21 20.7433H151.112L149.215 4.08838H146.09L141.068 15.3896L136.045 4.08838H132.921L131.024 20.7433Z" fill="#5B5B5B"/>
<path d="M152.38 20.7433H155.393L157.11 15.8131L165.069 15.751L166.775 20.7433H169.789L164.432 4.08838H157.736L152.379 20.7433H152.38ZM158.003 12.8391L159.857 6.94354H162.312L164.209 12.8916L158.003 12.8391Z" fill="#5B5B5B"/>
<path d="M174.629 2.37913H182.441V0H174.629V2.37913ZM171.059 20.8183H173.29L182.442 9.51703V20.8183H185.343V4.16387H183.111L173.96 15.4651V4.16387H171.059V20.8183H171.059Z" fill="#5B5B5B"/>
<path d="M186.61 20.7428H189.511V11.7018H197.769V20.7428H200.671V4.08838H197.769V8.84716H189.511V4.08838H186.61V20.7428Z" fill="#5B5B5B"/>
<path d="M201.937 20.7428H204.168L213.32 9.44155V20.7428H216.221V4.08838H213.989L204.838 15.3896V4.08838H201.937V20.7428H201.937Z" fill="#5B5B5B"/>
<path d="M217.494 20.7428H220.395V11.7018H228.654V20.7428H231.555V4.08838H228.654V8.84716H220.395V4.08838H217.494V20.7428Z" fill="#5B5B5B"/>
<path d="M232.824 20.7428H235.726V6.94354H245.356V4.08838H232.824V20.7428Z" fill="#5B5B5B"/>
<path d="M16.0845 35.2917V29.0303H17.1538V31.6809H19.889V29.0303H20.9614V35.2917H19.889V32.632H17.1538V35.2917H16.0845Z" fill="#5B5B5B"/>
<path d="M24.911 35.2917H23.7695L25.8477 29.0303H27.1678L29.2489 35.2917H28.1075L26.5308 30.3142H26.4847L24.911 35.2917ZM24.9485 32.8369H28.0615V33.7482H24.9485V32.8369Z" fill="#5B5B5B"/>
<path d="M31.6734 36.8027V34.3659H32.0682C32.2008 34.254 32.3249 34.0958 32.44 33.892C32.5551 33.6882 32.6531 33.409 32.7342 33.0544C32.8148 32.6999 32.8708 32.2413 32.9013 31.6787L33.057 29.0312H36.83V34.3665H37.487V36.7968H36.4607V35.2927H32.6992V36.8032H31.6729L31.6734 36.8027ZM33.3137 34.3659H35.8042V29.9818H34.0197L33.9277 31.6787C33.9026 32.1049 33.8621 32.486 33.8066 32.822C33.751 33.1585 33.6805 33.4541 33.5964 33.7099C33.5118 33.9657 33.4178 34.1844 33.3137 34.3659Z" fill="#5B5B5B"/>
<path d="M40.3833 35.2917V29.0303H44.2229V29.9809H41.4527V31.6809H44.0237V32.6315H41.4527V34.3405H44.2459V35.2911H40.3833V35.2917Z" fill="#5B5B5B"/>
<path d="M46.9902 35.2917L48.8637 32.002L47.0968 29.0303H48.4084L49.8035 31.6751H52.1874L53.5595 29.0303H54.8651L53.1242 31.9988L54.9747 35.2917H53.7091L52.34 32.7265H49.6394L48.2442 35.2917H46.9902ZM51.5069 29.0303V35.2917H50.4575V29.0303H51.5069Z" fill="#5B5B5B"/>
<path d="M57.8145 35.2917V29.0303H58.8838V31.6809H61.619V29.0303H62.6914V35.2917H61.619V32.632H58.8838V35.2917H57.8145Z" fill="#5B5B5B"/>
<path d="M71.1558 32.1612C71.1558 32.8358 71.0372 33.4133 70.8 33.8931C70.5628 34.3729 70.2401 34.7407 69.8317 34.9955C69.4234 35.2502 68.9605 35.3776 68.4436 35.3776C67.9267 35.3776 67.4638 35.2497 67.0555 34.9939C66.6472 34.7381 66.3244 34.3702 66.0872 33.8904C65.85 33.4106 65.7314 32.8342 65.7314 32.1617C65.7314 31.4893 65.85 30.9097 66.0872 30.4299C66.3244 29.95 66.6472 29.5828 67.0555 29.3275C67.4638 29.0727 67.9262 28.9453 68.4436 28.9453C68.961 28.9453 69.4229 29.0727 69.8317 29.3275C70.2401 29.5822 70.5628 29.9495 70.8 30.4299C71.0372 30.9097 71.1558 31.4871 71.1558 32.1617V32.1612ZM70.0804 32.1612C70.0804 31.6862 70.0109 31.2854 69.8713 30.958C69.7322 30.631 69.5395 30.3831 69.2933 30.2149C69.0471 30.0466 68.7639 29.9628 68.4431 29.9628C68.1224 29.9628 67.8386 30.0466 67.5929 30.2149C67.3467 30.3831 67.1541 30.6305 67.015 30.958C66.8759 31.2849 66.8058 31.6862 66.8058 32.1612C66.8058 32.6362 66.8754 33.037 67.015 33.3644C67.1541 33.6914 67.3467 33.9393 67.5929 34.1075C67.8391 34.2758 68.1224 34.3596 68.4431 34.3596C68.7639 34.3596 69.0476 34.2758 69.2933 34.1075C69.539 33.9393 69.7317 33.6919 69.8713 33.3644C70.0104 33.0375 70.0804 32.6362 70.0804 32.1612Z" fill="#5B5B5B"/>
<path d="M79.2544 31.1428H78.1766C78.146 30.9554 78.089 30.7888 78.0064 30.6428C77.9239 30.4969 77.8208 30.3732 77.6982 30.2713C77.5751 30.1694 77.4355 30.0924 77.2788 30.0404C77.1222 29.9884 76.9536 29.9624 76.7729 29.9624C76.4522 29.9624 76.1675 30.0473 75.9198 30.2177C75.6721 30.3881 75.4779 30.6365 75.3373 30.9634C75.1972 31.2903 75.1271 31.6895 75.1271 32.1603C75.1271 32.6311 75.1977 33.0424 75.3388 33.3693C75.4799 33.6963 75.6741 33.9431 75.9212 34.1092C76.1679 34.2754 76.4512 34.3582 76.7699 34.3582C76.9466 34.3582 77.1122 34.3332 77.2673 34.2833C77.422 34.2334 77.5616 34.1596 77.6852 34.0615C77.8093 33.9638 77.9139 33.8433 77.9994 33.7005C78.085 33.5578 78.144 33.3948 78.1766 33.2112L79.2544 33.2175C79.2139 33.5153 79.1273 33.7945 78.9937 34.0551C78.8601 34.3162 78.686 34.546 78.4708 34.7445C78.2556 34.9431 78.0039 35.098 77.7157 35.2095C77.4275 35.3204 77.1077 35.3762 76.7559 35.3762C76.237 35.3762 75.7741 35.2488 75.3668 34.994C74.9595 34.7392 74.6387 34.3714 74.404 33.8906C74.1693 33.4097 74.0522 32.8327 74.0522 32.1603C74.0522 31.4878 74.1703 30.9082 74.4065 30.4284C74.6427 29.9486 74.965 29.5813 75.3723 29.326C75.7796 29.0712 76.241 28.9438 76.7559 28.9438C77.0847 28.9438 77.3899 28.9927 77.6727 29.0903C77.9554 29.188 78.2071 29.3313 78.4278 29.5197C78.6489 29.7081 78.8306 29.9385 78.9742 30.2108C79.1173 30.4831 79.2109 30.793 79.2554 31.1417L79.2544 31.1428Z" fill="#5B5B5B"/>
<path d="M82.0054 29.9818V29.0312H86.7152V29.9818H84.8907V35.2927H83.8298V29.9818H82.0054Z" fill="#5B5B5B"/>
<path d="M90.3737 31.4484H91.8724C92.3238 31.4484 92.7116 31.5264 93.0353 31.6825C93.3591 31.8385 93.6073 32.0583 93.7804 32.3412C93.9536 32.6241 94.0396 32.9579 94.0396 33.3411C94.0396 33.7243 93.9531 34.0651 93.7804 34.3575C93.6073 34.65 93.3591 34.8787 93.0353 35.0438C92.7116 35.2089 92.3238 35.2917 91.8724 35.2917H89.6616V29.0303H90.734V34.3623H91.8724C92.1106 34.3623 92.3123 34.3145 92.4779 34.2185C92.643 34.1229 92.7686 33.9961 92.8542 33.8395C92.9398 33.6824 92.9823 33.5126 92.9823 33.3289C92.9823 33.0641 92.8867 32.838 92.6956 32.6517C92.5044 32.4654 92.2302 32.372 91.8724 32.372H90.3737V31.4484Z" fill="#5B5B5B"/>
<path d="M104.692 35.2917L102.749 32.5556H102.225V35.2917H101.155V29.0303H102.225V31.6045H102.493L104.591 29.0303H105.908L103.576 31.8858L106.009 35.2917H104.692H104.692Z" fill="#5B5B5B"/>
<path d="M109.522 35.2917H108.38L110.459 29.0303H111.779L113.86 35.2917H112.718L111.142 30.3142H111.096L109.522 35.2917ZM109.559 32.8369H112.672V33.7482H109.559V32.8369Z" fill="#5B5B5B"/>
<path d="M116.843 29.0303H117.889V31.0726C117.889 31.3375 117.933 31.5477 118.02 31.7027C118.108 31.8576 118.238 31.9686 118.411 32.036C118.584 32.1034 118.799 32.1368 119.056 32.1368C119.171 32.1368 119.296 32.132 119.429 32.123C119.563 32.114 119.698 32.1007 119.834 32.0832C119.971 32.0657 120.101 32.0445 120.226 32.019C120.351 31.9935 120.462 31.9654 120.56 31.9351V32.8587C120.462 32.891 120.353 32.9208 120.232 32.9473C120.11 32.9738 119.983 32.9961 119.848 33.0147C119.714 33.0333 119.579 33.0471 119.445 33.0577C119.31 33.0678 119.181 33.0731 119.056 33.0731C118.604 33.0731 118.212 33.0041 117.881 32.8666C117.55 32.7292 117.294 32.5137 117.113 32.2202C116.932 31.9266 116.842 31.5445 116.842 31.0737V29.0313L116.843 29.0303ZM120.385 29.0303H121.437V35.2917H120.385V29.0303Z" fill="#5B5B5B"/>
<path d="M124.764 35.2917V29.0303H128.604V29.9809H125.834V31.6809H128.405V32.6315H125.834V34.3405H128.627V35.2911H124.764V35.2917Z" fill="#5B5B5B"/>
<path d="M136.783 31.1428H135.705C135.674 30.9554 135.617 30.7888 135.535 30.6428C135.452 30.4969 135.349 30.3732 135.227 30.2713C135.103 30.1694 134.964 30.0924 134.807 30.0404C134.651 29.9884 134.482 29.9624 134.301 29.9624C133.981 29.9624 133.696 30.0473 133.448 30.2177C133.2 30.3881 133.006 30.6365 132.866 30.9634C132.725 31.2903 132.655 31.6895 132.655 32.1603C132.655 32.6311 132.726 33.0424 132.867 33.3693C133.008 33.6963 133.202 33.9431 133.45 34.1092C133.696 34.2754 133.98 34.3582 134.298 34.3582C134.475 34.3582 134.641 34.3332 134.796 34.2833C134.95 34.2334 135.09 34.1596 135.214 34.0615C135.338 33.9638 135.442 33.8433 135.528 33.7005C135.613 33.5578 135.672 33.3948 135.705 33.2112L136.783 33.2175C136.742 33.5153 136.656 33.7945 136.522 34.0551C136.388 34.3162 136.214 34.546 135.999 34.7445C135.783 34.9431 135.532 35.098 135.244 35.2095C134.955 35.3204 134.636 35.3762 134.284 35.3762C133.765 35.3762 133.302 35.2488 132.895 34.994C132.487 34.7392 132.167 34.3714 131.932 33.8906C131.697 33.4097 131.58 32.8327 131.58 32.1603C131.58 31.4878 131.698 30.9082 131.935 30.4284C132.171 29.9486 132.493 29.5813 132.901 29.326C133.308 29.0712 133.769 28.9438 134.284 28.9438C134.613 28.9438 134.918 28.9927 135.201 29.0903C135.483 29.188 135.735 29.3313 135.956 29.5197C136.177 29.7081 136.359 29.9385 136.503 30.2108C136.646 30.4831 136.739 30.793 136.784 31.1417L136.783 31.1428Z" fill="#5B5B5B"/>
<path d="M139.53 29.9818V29.0312H144.24V29.9818H142.415V35.2927H141.354V29.9818H139.53Z" fill="#5B5B5B"/>
<path d="M147.177 35.2917V29.0303H149.437C149.863 29.0303 150.219 29.1009 150.502 29.2426C150.785 29.3843 150.998 29.5775 151.139 29.8222C151.28 30.0669 151.351 30.3439 151.351 30.6539C151.351 30.9086 151.305 31.1263 151.213 31.3067C151.12 31.4872 150.996 31.6331 150.841 31.7457C150.685 31.8576 150.511 31.9383 150.319 31.9871V32.0482C150.528 32.0604 150.73 32.1283 150.923 32.2515C151.116 32.3746 151.274 32.5487 151.397 32.7727C151.52 32.9967 151.582 33.2679 151.582 33.5858C151.582 33.9037 151.508 34.201 151.36 34.4584C151.211 34.7163 150.989 34.9196 150.691 35.0682C150.393 35.2168 150.019 35.2911 149.567 35.2911H147.177V35.2917ZM148.247 31.6931H149.304C149.489 31.6931 149.655 31.657 149.803 31.5843C149.951 31.5121 150.068 31.4092 150.154 31.2754C150.239 31.1416 150.282 30.9835 150.282 30.7998C150.282 30.5573 150.202 30.3577 150.041 30.2006C149.88 30.0435 149.643 29.9649 149.327 29.9649H148.247V31.6926V31.6931ZM148.247 34.3437H149.397C149.785 34.3437 150.065 34.2646 150.237 34.107C150.409 33.9488 150.494 33.7456 150.494 33.4972C150.494 33.3119 150.451 33.1442 150.365 32.994C150.278 32.8443 150.155 32.726 149.996 32.6395C149.836 32.5529 149.646 32.5094 149.425 32.5094H148.246V34.3437H148.247Z" fill="#5B5B5B"/>
<path d="M159.817 32.1612C159.817 32.8358 159.699 33.4133 159.462 33.8931C159.224 34.3729 158.902 34.7407 158.493 34.9955C158.085 35.2502 157.622 35.3776 157.105 35.3776C156.588 35.3776 156.126 35.2497 155.717 34.9939C155.309 34.7381 154.986 34.3702 154.749 33.8904C154.512 33.4106 154.393 32.8342 154.393 32.1617C154.393 31.4893 154.512 30.9097 154.749 30.4299C154.986 29.95 155.309 29.5828 155.717 29.3275C156.125 29.0727 156.588 28.9453 157.105 28.9453C157.622 28.9453 158.085 29.0727 158.493 29.3275C158.902 29.5822 159.224 29.9495 159.462 30.4299C159.699 30.9102 159.817 31.4871 159.817 32.1617V32.1612ZM158.742 32.1612C158.742 31.6862 158.673 31.2854 158.533 30.958C158.394 30.631 158.201 30.3831 157.955 30.2149C157.709 30.0466 157.426 29.9628 157.105 29.9628C156.784 29.9628 156.5 30.0466 156.255 30.2149C156.008 30.3831 155.816 30.6305 155.677 30.958C155.537 31.2849 155.467 31.6862 155.467 32.1612C155.467 32.6362 155.537 33.037 155.677 33.3644C155.816 33.6914 156.008 33.9393 156.255 34.1075C156.5 34.2758 156.784 34.3596 157.105 34.3596C157.426 34.3596 157.709 34.2758 157.955 34.1075C158.201 33.9393 158.393 33.6919 158.533 33.3644C158.672 33.0375 158.742 32.6362 158.742 32.1612Z" fill="#5B5B5B"/>
<path d="M166.906 35.2917V29.0303H169.12C169.573 29.0303 169.954 29.12 170.262 29.2994C170.571 29.4788 170.804 29.725 170.963 30.0377C171.122 30.3508 171.201 30.7059 171.201 31.1034C171.201 31.501 171.121 31.8619 170.962 32.1734C170.802 32.4855 170.567 32.7302 170.255 32.9086C169.944 33.0869 169.561 33.1761 169.106 33.1761H167.638V32.2435H168.961C169.227 32.2435 169.444 32.1947 169.613 32.097C169.782 31.9994 169.908 31.8645 169.989 31.6936C170.071 31.5222 170.112 31.3258 170.112 31.1034C170.112 30.881 170.071 30.6857 169.989 30.5164C169.908 30.3471 169.782 30.2155 169.611 30.1205C169.441 30.0255 169.223 29.9782 168.956 29.9782H167.976V35.2917H166.907H166.906Z" fill="#5B5B5B"/>
<path d="M174.155 35.2917V29.0303H177.994V29.9809H175.224V31.6809H177.795V32.6315H175.224V34.3405H178.017V35.2911H174.155V35.2917Z" fill="#5B5B5B"/>
<path d="M183.178 35.3776C182.763 35.3776 182.394 35.3022 182.073 35.1515C181.751 35.0008 181.497 34.7906 181.31 34.5215C181.123 34.2524 181.025 33.9419 181.013 33.5889H182.097C182.107 33.7583 182.16 33.9053 182.256 34.0305C182.352 34.1558 182.479 34.2535 182.639 34.3225C182.799 34.392 182.977 34.4265 183.175 34.4265C183.386 34.4265 183.574 34.3872 183.737 34.3087C183.9 34.2301 184.028 34.1208 184.12 33.9801C184.212 33.8395 184.258 33.6776 184.256 33.4939C184.258 33.3045 184.212 33.1373 184.118 32.9924C184.024 32.8475 183.887 32.7344 183.71 32.6532C183.532 32.5715 183.319 32.5311 183.068 32.5311H182.546V31.657H183.068C183.274 31.657 183.454 31.6193 183.609 31.5439C183.763 31.4686 183.885 31.3619 183.974 31.2244C184.062 31.0869 184.105 30.9272 184.103 30.7457C184.105 30.5684 184.068 30.4139 183.992 30.2823C183.916 30.1507 183.809 30.0482 183.672 29.975C183.535 29.9017 183.374 29.8651 183.189 29.8651C183.005 29.8651 182.842 29.8996 182.688 29.9692C182.534 30.0387 182.41 30.1369 182.316 30.2643C182.222 30.3916 182.172 30.5429 182.167 30.7181H181.138C181.145 30.3678 181.241 30.0594 181.425 29.7935C181.608 29.5276 181.853 29.3195 182.161 29.1698C182.468 29.0201 182.814 28.9453 183.196 28.9453C183.578 28.9453 183.933 29.0233 184.224 29.1794C184.515 29.3354 184.74 29.5445 184.9 29.8078C185.059 30.0705 185.139 30.3614 185.139 30.6793C185.141 31.0317 185.043 31.3274 184.846 31.5662C184.649 31.8045 184.391 31.9606 184.072 32.0338V32.0826C184.487 32.1437 184.806 32.3061 185.028 32.5704C185.25 32.8342 185.36 33.1622 185.358 33.5534C185.358 33.9037 185.265 34.2174 185.077 34.4934C184.89 34.7694 184.632 34.9859 184.304 35.143C183.977 35.3001 183.601 35.3787 183.179 35.3787L183.178 35.3776Z" fill="#5B5B5B"/>
<path d="M188.963 35.3776V34.4238H189.3C189.452 34.4238 189.577 34.4004 189.675 34.3537C189.773 34.307 189.852 34.2396 189.913 34.152C189.973 34.0645 190.024 33.9626 190.064 33.8463L190.141 33.6356L188.032 29.0312H189.15L190.62 32.382L191.891 29.0312H192.992L190.957 34.1372C190.863 34.3574 190.754 34.5618 190.631 34.7502C190.508 34.9386 190.349 35.0904 190.151 35.2056C189.954 35.3208 189.699 35.3781 189.383 35.3781H188.962L188.963 35.3776Z" fill="#5B5B5B"/>
<path d="M195.402 35.2917V34.3501L195.569 34.3411C195.796 34.3267 195.976 34.2402 196.11 34.081C196.244 33.9223 196.343 33.6665 196.407 33.3135C196.471 32.9611 196.514 32.4882 196.535 31.8948L196.633 29.0303H200.501V35.2917H199.455V29.9628H197.63L197.538 32.2467C197.511 32.9314 197.44 33.4993 197.326 33.9494C197.212 34.4 197.026 34.736 196.767 34.9584C196.509 35.1807 196.15 35.2917 195.691 35.2917H195.403H195.402Z" fill="#5B5B5B"/>
<path d="M204.417 31.4484H205.915C206.367 31.4484 206.755 31.5264 207.078 31.6825C207.402 31.8385 207.65 32.0583 207.823 32.3412C207.997 32.6241 208.083 32.9579 208.083 33.3411C208.083 33.7243 207.996 34.0651 207.823 34.3575C207.65 34.65 207.402 34.8787 207.078 35.0438C206.755 35.2089 206.367 35.2917 205.915 35.2917H203.705V29.0303H204.777V34.3623H205.915C206.154 34.3623 206.355 34.3145 206.521 34.2185C206.686 34.1229 206.812 33.9961 206.897 33.8395C206.983 33.6824 207.025 33.5126 207.025 33.3289C207.025 33.0641 206.93 32.838 206.739 32.6517C206.547 32.4654 206.273 32.372 205.916 32.372H204.417V31.4484H204.417Z" fill="#5B5B5B"/>
<path d="M210.576 29.9818V29.0312H215.286V29.9818H213.461V35.2927H212.401V29.9818H210.576Z" fill="#5B5B5B"/>
<path d="M218.262 35.2917H217.12L219.198 29.0303H220.518L222.6 35.2917H221.458L219.881 30.3142H219.835L218.262 35.2917ZM218.299 32.8369H221.412V33.7482H218.299V32.8369Z" fill="#5B5B5B"/>
<path d="M224.433 29.9818V29.0312H229.143V29.9818H227.318V35.2927H226.258V29.9818H224.433Z" fill="#5B5B5B"/>
</svg>
