<svg width="243" height="43" viewBox="0 0 243 43" fill="none" xmlns="http://www.w3.org/2000/svg">
<g clip-path="url(#clip0_4_277)">
<path fill-rule="evenodd" clip-rule="evenodd" d="M22.779 11.4439L19.6143 5.73333L22.7935 0L25.9583 5.71058L22.8008 11.4212L22.779 11.4439Z" fill="#5B5B5B"/>
<path fill-rule="evenodd" clip-rule="evenodd" d="M23.1934 35.4692L20.0578 41.1571H0L18.7119 7.36377L21.8766 13.0668L9.47235 35.4692H23.1934Z" fill="#5B5B5B"/>
<path fill-rule="evenodd" clip-rule="evenodd" d="M24.9832 35.4695H36.1143L23.7027 13.0443L26.8602 7.35645L45.5866 41.1573H21.833L24.9832 35.4695Z" fill="#5B5B5B"/>
<path fill-rule="evenodd" clip-rule="evenodd" d="M33.4006 33.8389H12.1787L22.786 14.7051L33.4006 33.8389Z" fill="#5B5B5B"/>
<path d="M22.7788 11.4427L22.7996 11.4209L22.7927 11.4136L22.7788 11.4427Z" fill="#5B5B5B"/>
<path d="M141.714 27.4227V7.83383H144.559V20.074L149.659 7.83383H151.994V27.4227H149.113V14.9474L144.006 27.4227H141.714ZM146.85 6.17298C145.715 6.17298 144.879 5.86963 144.34 5.24776C143.802 4.63348 143.533 3.79926 143.533 2.74512H145.133C145.133 3.38974 145.272 3.85993 145.555 4.14812C145.832 4.4363 146.268 4.58797 146.858 4.58797C147.447 4.58797 147.883 4.44388 148.16 4.14812C148.436 3.85993 148.582 3.38974 148.582 2.74512H150.19C150.19 3.79926 149.921 4.63348 149.382 5.24776C148.844 5.86205 148 6.17298 146.858 6.17298H146.85ZM123.664 27.4227V7.83383H127.091V16.0319H127.76C128.771 16.0319 129.637 16.1229 130.343 16.3125C131.056 16.4945 131.667 16.8054 132.176 17.2377C132.693 17.67 133.071 18.2539 133.318 18.9896C133.566 19.7252 133.69 20.6277 133.69 21.697C133.69 22.7663 133.559 23.6991 133.297 24.4575C133.027 25.2083 132.635 25.7998 132.096 26.2321C131.558 26.6643 130.939 26.9677 130.227 27.1497C129.514 27.3317 128.67 27.4303 127.687 27.4303H123.679L123.664 27.4227ZM127.091 24.9883H127.695C128.211 24.9883 128.633 24.9428 128.968 24.8442C129.303 24.7532 129.594 24.5788 129.834 24.3361C130.074 24.0934 130.248 23.7522 130.357 23.3123C130.467 22.8725 130.51 22.3188 130.503 21.6439C130.503 20.5442 130.285 19.7479 129.87 19.255C129.455 18.7696 128.713 18.527 127.651 18.527H127.098V24.9883H127.091ZM135.421 7.83383H138.848V27.4227H135.421V7.83383ZM110.125 27.4227V7.83383H113.552V16.0167H117.371V7.83383H120.791V27.4227H117.371V18.5649H113.552V27.4227H110.125ZM98.0918 27.4227V7.83383H103.497C106.698 7.83383 108.306 9.69186 108.306 13.4003C108.306 15.2204 107.87 16.5552 106.989 17.397C106.109 18.2464 104.88 18.671 103.286 18.671H101.518V27.4227H98.0991H98.0918ZM101.511 16.1608H102.61C103.577 16.1608 104.232 15.9636 104.567 15.5617C104.909 15.1673 105.076 14.4317 105.076 13.37C105.076 12.7633 105.054 12.2931 105.011 11.967C104.967 11.6333 104.858 11.3375 104.69 11.0645C104.523 10.7915 104.276 10.6019 103.948 10.5033C103.621 10.4047 103.177 10.3516 102.617 10.3516H101.504V16.1608H101.511ZM88.1975 27.4227V7.83383H96.062V10.3516H91.6169V15.9712H95.1308V18.489H91.6169V24.9504H96.113V27.4227H88.1902H88.1975ZM75.3349 27.4227V7.83383H79.9329C80.8059 7.83383 81.5625 7.91725 82.21 8.07651C82.8575 8.23577 83.4322 8.50879 83.9415 8.88039C84.4435 9.252 84.8218 9.77528 85.0764 10.4351C85.3311 11.0949 85.4548 11.8987 85.4475 12.8315C85.4402 15.2508 84.5235 16.6007 82.6974 16.8813C84.8946 17.3135 86.0004 18.9365 86.0077 21.7349C86.0149 23.5929 85.5712 25.0035 84.669 25.9742C83.7669 26.9374 82.4574 27.4227 80.7331 27.4227H75.3349ZM78.7615 15.8195H79.8237C80.835 15.8195 81.5334 15.592 81.9117 15.1446C82.29 14.6971 82.4792 13.9388 82.4792 12.877C82.4792 12.3234 82.4137 11.876 82.29 11.5347C82.1663 11.1934 81.9554 10.9356 81.6644 10.7612C81.3733 10.5867 81.046 10.473 80.6822 10.4199C80.3257 10.3668 79.8455 10.3365 79.249 10.3365H78.7615V15.8195ZM78.7615 24.9049H80.0202C81.046 24.9049 81.7589 24.6546 82.1445 24.1617C82.5301 23.6688 82.7265 22.8497 82.7265 21.7046C82.7265 20.5594 82.5083 19.6645 82.0645 19.1337C81.6207 18.6028 80.8786 18.3374 79.8383 18.3374H78.7615V24.9049ZM65.4115 27.4227V7.83383H73.276V10.3516H68.8308V15.9712H72.3448V18.489H68.8308V24.9504H73.3269V27.4227H65.4042H65.4115ZM57.9689 27.6578C57.1614 27.6578 56.4484 27.5516 55.83 27.3393C55.2116 27.127 54.6951 26.8312 54.2949 26.452C53.8875 26.0728 53.5601 25.6026 53.3128 25.049C53.0581 24.4878 52.8835 23.8887 52.7817 23.2441C52.6798 22.5994 52.6289 21.879 52.6289 21.0751V14.2497C52.6289 13.4003 52.6798 12.6419 52.789 11.9897C52.8908 11.33 53.0727 10.7232 53.3201 10.162C53.5674 9.60085 53.8948 9.13824 54.3022 8.77422C54.7096 8.4102 55.2189 8.1296 55.83 7.92484C56.4484 7.72007 57.1614 7.6139 57.9762 7.6139C58.9147 7.6139 59.715 7.74283 60.377 8.00067C61.0391 8.25852 61.5702 8.64529 61.9558 9.14582C62.3413 9.64635 62.6178 10.2379 62.7924 10.9128C62.967 11.5878 63.0543 12.3689 63.0543 13.2714V14.9474H59.7586V13.279C59.7586 12.3007 59.7077 11.6485 59.6131 11.3072C59.4167 10.6474 58.9365 10.291 58.1726 10.2455H57.9908C57.707 10.2455 57.4524 10.2834 57.2341 10.3516C57.0159 10.4199 56.8413 10.5337 56.703 10.6853C56.5648 10.837 56.4557 11.0038 56.3757 11.1783C56.2956 11.3527 56.2302 11.5802 56.1865 11.8608C56.1428 12.1414 56.121 12.3993 56.1065 12.6344C56.0919 12.8695 56.0919 13.1728 56.0919 13.5292V21.8259C56.0919 22.9786 56.2301 23.7977 56.5066 24.283C56.7831 24.7684 57.2778 25.0187 57.9835 25.0187C58.2236 25.0187 58.4345 24.9883 58.6237 24.9277C58.8056 24.867 58.9656 24.7912 59.0893 24.7001C59.213 24.6091 59.3221 24.4802 59.4094 24.3134C59.4967 24.1465 59.5622 23.9873 59.6059 23.8432C59.6495 23.6991 59.6859 23.4943 59.7077 23.2365C59.7295 22.9786 59.7441 22.7587 59.7514 22.5767C59.7514 22.3947 59.7514 22.1444 59.7514 21.8335V20.0892H63.047V21.697C63.047 22.4326 62.9961 23.0848 62.9015 23.6688C62.807 24.2527 62.6323 24.7987 62.3995 25.3144C62.1595 25.8225 61.8539 26.2548 61.4756 26.5885C61.0973 26.9298 60.6171 27.1952 60.0278 27.3848C59.4385 27.582 58.7547 27.673 57.9762 27.673L57.9689 27.6578Z" fill="#5B5B5B"/>
<path d="M237.922 27.6582C237.114 27.6582 236.401 27.552 235.783 27.3397C235.165 27.1273 234.648 26.8315 234.248 26.4524C233.84 26.0732 233.513 25.603 233.266 25.0494C233.011 24.4882 232.836 23.889 232.735 23.2444C232.633 22.5998 232.582 21.8793 232.582 21.0755V14.2501C232.582 13.4007 232.633 12.6423 232.742 11.9901C232.844 11.3303 233.026 10.7236 233.273 10.1624C233.52 9.60121 233.848 9.1386 234.255 8.77458C234.663 8.41055 235.172 8.12995 235.783 7.92519C236.401 7.72043 237.114 7.61426 237.929 7.61426C238.868 7.61426 239.668 7.74318 240.33 8.00103C240.992 8.25888 241.523 8.64565 241.901 9.14618C242.287 9.64671 242.563 10.2382 242.738 10.9132C242.913 11.5882 243 12.3693 243 13.2718V14.9478H239.704V13.2793C239.704 12.301 239.653 11.6488 239.559 11.3076C239.362 10.6478 238.882 10.2913 238.118 10.2458H237.936C237.653 10.2458 237.398 10.2837 237.18 10.352C236.962 10.4203 236.787 10.534 236.649 10.6857C236.51 10.8374 236.401 11.0042 236.321 11.1786C236.241 11.3531 236.176 11.5806 236.132 11.8612C236.088 12.1418 236.067 12.3996 236.052 12.6347C236.038 12.8698 236.038 13.1732 236.038 13.5296V21.8263C236.038 22.979 236.176 23.798 236.452 24.2834C236.729 24.7688 237.223 25.019 237.929 25.019C238.169 25.019 238.387 24.9887 238.569 24.928C238.751 24.8673 238.911 24.7915 239.035 24.7005C239.159 24.6095 239.268 24.4806 239.355 24.3137C239.442 24.1469 239.508 23.9876 239.551 23.8435C239.595 23.6994 239.632 23.4947 239.653 23.2368C239.675 22.979 239.69 22.7591 239.697 22.577C239.697 22.395 239.697 22.1448 239.697 21.8338V20.0896H242.993V21.6973C242.993 22.433 242.942 23.0852 242.847 23.6691C242.745 24.2531 242.578 24.7991 242.345 25.3148C242.105 25.8229 241.8 26.2552 241.421 26.5889C241.043 26.9301 240.563 27.1956 239.973 27.3852C239.384 27.5823 238.7 27.6733 237.922 27.6733M225.43 27.6733C224.623 27.6733 223.91 27.5672 223.291 27.3548C222.673 27.1425 222.156 26.8467 221.756 26.4675C221.349 26.0883 221.021 25.6181 220.774 25.0645C220.519 24.5033 220.345 23.9042 220.243 23.2596C220.141 22.615 220.09 21.8945 220.09 21.0906V14.2652C220.09 13.4158 220.141 12.6575 220.25 12.0053C220.359 11.3455 220.534 10.7388 220.781 10.1776C221.029 9.61637 221.356 9.15376 221.764 8.78974C222.171 8.42572 222.68 8.14512 223.291 7.94036C223.91 7.7356 224.623 7.62943 225.438 7.62943C226.376 7.62943 227.176 7.75835 227.838 8.0162C228.5 8.27405 229.032 8.66082 229.417 9.16135C229.803 9.66188 230.079 10.2534 230.254 10.9284C230.428 11.6033 230.516 12.3845 230.516 13.2869V14.9629H227.22V13.2945C227.22 12.3162 227.169 11.664 227.074 11.3227C226.878 10.6629 226.398 10.3065 225.634 10.261H225.452C225.168 10.261 224.914 10.2989 224.695 10.3672C224.477 10.4354 224.303 10.5492 224.164 10.7009C224.026 10.8525 223.917 11.0194 223.837 11.1938C223.757 11.3682 223.691 11.5957 223.648 11.8763C223.604 12.1569 223.582 12.4148 223.568 12.6499C223.553 12.885 223.553 13.1883 223.553 13.5448V21.8414C223.553 22.9942 223.691 23.8132 223.968 24.2986C224.244 24.7839 224.739 25.0342 225.445 25.0342C225.685 25.0342 225.896 25.0039 226.085 24.9432C226.267 24.8825 226.427 24.8067 226.551 24.7157C226.674 24.6247 226.783 24.4957 226.871 24.3289C226.958 24.1621 227.024 24.0028 227.067 23.8587C227.111 23.7146 227.147 23.5098 227.169 23.252C227.191 22.9942 227.205 22.7742 227.205 22.5922C227.205 22.4102 227.205 22.1599 227.205 21.849V20.1047H230.501V21.7125C230.501 22.4481 230.45 23.1003 230.356 23.6843C230.261 24.2682 230.086 24.8143 229.854 25.33C229.614 25.8381 229.308 26.2703 228.93 26.604C228.551 26.9453 228.071 27.2107 227.482 27.4003C226.893 27.5975 226.209 27.6885 225.43 27.6885V27.6733ZM207.344 27.4382L211.164 7.84936H214.736L218.541 27.4382H215.354L214.597 22.888H211.345L210.574 27.4382H207.344ZM211.709 20.5673H214.226L212.968 12.521L211.709 20.5673ZM196.227 27.4382V7.83419H204.921V10.4809H199.654V16.0322H200.207C201.218 16.0322 202.084 16.1233 202.797 16.3128C203.51 16.4949 204.128 16.8058 204.638 17.2381C205.154 17.6703 205.533 18.2543 205.773 18.9899C206.02 19.7255 206.144 20.628 206.144 21.6973C206.144 22.5695 206.056 23.3354 205.874 23.9952C205.7 24.655 205.445 25.201 205.118 25.6333C204.79 26.0656 204.376 26.4144 203.874 26.6874C203.372 26.9529 202.819 27.1501 202.215 27.2638C201.611 27.3776 200.92 27.4382 200.142 27.4382H196.227ZM199.654 25.0039H200.142C200.658 25.0039 201.08 24.9583 201.415 24.8598C201.749 24.7688 202.04 24.5943 202.28 24.3516C202.521 24.109 202.695 23.7677 202.804 23.3278C202.906 22.888 202.957 22.3344 202.95 21.6594C202.943 20.5598 202.732 19.7635 202.317 19.2705C201.902 18.7852 201.16 18.5425 200.098 18.5425H199.654V25.0039ZM188.981 27.7113C187.301 27.7113 186.064 27.2259 185.264 26.2552C184.463 25.2845 184.063 23.9194 184.063 22.1524V21.4546H187.279C187.279 21.8414 187.279 22.0917 187.294 22.1979C187.315 23.1307 187.446 23.8132 187.686 24.2455C187.926 24.6853 188.37 24.9053 189.003 24.9053C189.294 24.9053 189.542 24.8522 189.745 24.7536C189.949 24.655 190.116 24.5261 190.24 24.3592C190.364 24.1924 190.451 23.9725 190.516 23.6994C190.582 23.4264 190.626 23.1458 190.647 22.8652C190.669 22.5846 190.684 22.2434 190.684 21.8338C190.684 20.7873 190.487 19.991 190.102 19.4449C189.709 18.8989 189.018 18.588 188.014 18.5197C187.919 18.5121 187.657 18.5046 187.206 18.5046V16.0626C187.614 16.0626 187.861 16.0626 187.941 16.0474C188.967 16.0019 189.68 15.7213 190.08 15.2208C190.48 14.7127 190.684 13.9543 190.684 12.9305C190.684 12.0811 190.538 11.4365 190.255 10.989C189.971 10.5416 189.498 10.3217 188.85 10.3217C187.672 10.3217 187.046 11.1938 186.966 12.9457C186.966 13.0367 186.959 13.3173 186.959 13.7799H183.729V12.8698C183.729 11.2166 184.18 9.92731 185.082 9.00209C185.984 8.07687 187.221 7.61426 188.792 7.61426C190.364 7.61426 191.63 8.06928 192.532 8.97934C193.434 9.88939 193.878 11.171 193.878 12.8243C193.878 13.9315 193.645 14.8719 193.186 15.6303C192.728 16.3887 192.117 16.8816 191.36 17.1091C193.041 17.7158 193.878 19.2781 193.878 21.7883C193.878 23.6539 193.485 25.11 192.699 26.149C191.913 27.188 190.676 27.7037 188.981 27.7037V27.7113ZM172.852 30.8661V28.3407C174.307 28.4621 175.26 28.2952 175.697 27.8478C176.133 27.4003 176.221 26.5813 175.959 25.383L172.081 7.84936H175.275L176.817 15.9867L177.632 21.7656L178.309 16.0095L179.647 7.84936H182.899L179.342 25.6788C179.094 26.915 178.876 27.8023 178.701 28.3407C178.527 28.8792 178.207 29.3949 177.756 29.8878C177.305 30.3807 176.701 30.6841 175.951 30.7903C175.202 30.904 174.169 30.9268 172.845 30.8585L172.852 30.8661ZM160.542 27.4382V7.83419H163.969V16.0778H164.638L167.672 7.83419H171.07L167.549 17.0712L171.353 27.4231H167.883L164.646 18.3074H163.969V27.4231H160.542V27.4382Z" fill="#5B5B5B"/>
<path d="M216.794 40.2774C216.896 40.2774 216.984 40.2546 217.049 40.2091C217.115 40.1636 217.166 40.0878 217.195 39.9816C217.224 39.883 217.246 39.7844 217.253 39.6934C217.26 39.6024 217.267 39.4735 217.267 39.3294V37.2742C217.267 37.1529 217.267 37.0543 217.267 36.9784C217.267 36.9026 217.253 36.8116 217.231 36.7206C217.216 36.6296 217.187 36.5537 217.158 36.5007C217.122 36.4476 217.078 36.4021 217.02 36.3641C216.962 36.3262 216.889 36.3111 216.802 36.3111C216.7 36.3111 216.613 36.3338 216.547 36.3869C216.482 36.4324 216.431 36.5082 216.402 36.6144C216.373 36.713 216.351 36.8116 216.343 36.9102C216.336 37.0012 216.329 37.1225 216.329 37.2742V39.3294C216.329 39.4507 216.329 39.5417 216.329 39.6252C216.329 39.701 216.343 39.7844 216.358 39.8754C216.373 39.9664 216.402 40.0423 216.438 40.0878C216.474 40.1409 216.518 40.1864 216.576 40.2243C216.634 40.2622 216.707 40.2774 216.794 40.2774ZM216.794 41.2253C216.212 41.2253 215.776 41.0509 215.485 40.7097C215.201 40.3684 215.056 39.8754 215.056 39.2384V37.3652C215.056 36.7282 215.201 36.2352 215.485 35.894C215.769 35.5527 216.205 35.3783 216.794 35.3783C217.384 35.3783 217.82 35.5527 218.111 35.894C218.402 36.2352 218.548 36.7282 218.548 37.3652V39.2384C218.548 39.8754 218.402 40.3684 218.111 40.7097C217.82 41.0509 217.384 41.2253 216.794 41.2253ZM210.851 41.1343V35.4617H212.582C212.91 35.4617 213.179 35.4996 213.404 35.5679C213.63 35.6361 213.804 35.7347 213.921 35.8712C214.044 36.0001 214.124 36.1442 214.175 36.3035C214.226 36.4552 214.255 36.6372 214.255 36.8495C214.255 37.1756 214.205 37.441 214.081 37.6382C213.957 37.8354 213.761 37.9719 213.484 38.0553C213.819 38.1312 214.059 38.298 214.19 38.5483C214.321 38.7985 214.386 39.1171 214.386 39.5038C214.386 40.0574 214.248 40.467 213.979 40.74C213.703 41.013 213.237 41.1495 212.568 41.1495H210.851V41.1343ZM212.117 40.2622H212.393C212.48 40.2622 212.56 40.2622 212.619 40.247C212.677 40.247 212.742 40.2243 212.815 40.1864C212.888 40.156 212.939 40.1105 212.99 40.0574C213.033 39.9968 213.07 39.9209 213.091 39.8148C213.12 39.7086 213.135 39.5873 213.135 39.4356C213.135 39.2839 213.135 39.1701 213.113 39.064C213.099 38.9578 213.077 38.8744 213.04 38.8137C213.004 38.753 212.968 38.7 212.939 38.662C212.902 38.6241 212.851 38.5938 212.793 38.5786C212.728 38.5634 212.669 38.5483 212.626 38.5483C212.582 38.5483 212.509 38.5483 212.422 38.5483H212.117V40.2622ZM212.117 37.7065H212.531C212.72 37.7065 212.859 37.6534 212.946 37.5396C213.033 37.4259 213.077 37.2439 213.077 36.9784C213.077 36.7358 213.026 36.5613 212.924 36.4552C212.822 36.349 212.655 36.2883 212.429 36.2883H212.117V37.6989V37.7065ZM207.948 41.1343V36.4096H206.973V35.4541H210.225V36.4096H209.228V41.1343H207.941H207.948ZM204.834 41.2253C204.216 41.2253 203.772 41.0433 203.503 40.6869C203.233 40.3229 203.095 39.8072 203.095 39.1171V37.4714C203.095 36.7888 203.233 36.2656 203.503 35.9091C203.772 35.5527 204.216 35.3707 204.834 35.3707C205.416 35.3707 205.831 35.5148 206.093 35.7954C206.355 36.0835 206.486 36.5234 206.486 37.1225V37.5851H205.285V37.0998C205.285 36.8116 205.249 36.6144 205.183 36.5007C205.118 36.3869 205.001 36.3262 204.841 36.3262C204.659 36.3262 204.536 36.3945 204.478 36.531C204.412 36.6675 204.383 36.9102 204.383 37.2818V39.3522C204.383 39.7162 204.419 39.9589 204.485 40.0802C204.558 40.2091 204.674 40.2698 204.841 40.2698C205.009 40.2698 205.132 40.2091 205.191 40.0878C205.249 39.9664 205.285 39.7768 205.285 39.5266V38.9199H206.486V39.4583C206.486 40.0423 206.355 40.4897 206.085 40.7855C205.816 41.0813 205.401 41.2329 204.834 41.2329V41.2253ZM200.643 41.2253C200.025 41.2253 199.574 41.0433 199.305 40.6869C199.028 40.3305 198.897 39.7996 198.897 39.1019V37.4941C198.897 36.7964 199.036 36.2656 199.312 35.9091C199.589 35.5527 200.032 35.3707 200.643 35.3707C200.971 35.3707 201.24 35.4238 201.466 35.5223C201.691 35.6209 201.858 35.7726 201.982 35.9774C202.106 36.1821 202.193 36.4097 202.244 36.6751C202.295 36.9405 202.324 37.259 202.324 37.6306V38.3738H200.171V39.2232C200.171 39.3446 200.171 39.4356 200.171 39.4962C200.171 39.5645 200.171 39.6403 200.185 39.7313C200.192 39.8223 200.207 39.8982 200.229 39.9437C200.251 39.9968 200.272 40.0499 200.309 40.1029C200.345 40.156 200.389 40.194 200.44 40.2167C200.498 40.2395 200.556 40.2546 200.636 40.2546C200.811 40.2546 200.927 40.194 200.993 40.065C201.058 39.9361 201.095 39.7541 201.095 39.519V39.1929H202.317V39.4204C202.317 40.0119 202.179 40.4594 201.895 40.7703C201.611 41.0813 201.196 41.2405 200.643 41.2405V41.2253ZM200.171 37.6913H201.095V37.1529C201.095 36.8647 201.058 36.6599 200.993 36.531C200.92 36.4096 200.804 36.3414 200.629 36.3414C200.454 36.3414 200.331 36.4097 200.265 36.5537C200.2 36.6978 200.171 36.9481 200.171 37.3197V37.6913ZM197.282 42.6359L197.188 41.1343H192.153V35.4617H193.383V40.247H194.183V35.4617H195.405V40.247H196.249V35.4617H197.479V40.247H198.214V42.6359H197.29H197.282ZM189.469 41.2253C188.879 41.2253 188.457 41.0433 188.196 40.6945C187.934 40.3456 187.81 39.8148 187.81 39.1171V36.1821C187.81 35.765 187.825 35.4086 187.861 35.1052C187.89 34.8019 187.934 34.5516 187.992 34.3544C188.05 34.1573 188.13 33.9904 188.232 33.8539C188.334 33.725 188.443 33.6188 188.552 33.5506C188.661 33.4823 188.807 33.4141 188.974 33.361C189.149 33.3003 189.316 33.2548 189.476 33.2245C189.636 33.1865 189.84 33.1335 190.087 33.0652C190.334 32.997 190.567 32.9135 190.786 32.8149L190.975 33.8615C190.756 33.9677 190.538 34.0511 190.32 34.1118C190.102 34.1724 189.927 34.2104 189.811 34.2255C189.687 34.2407 189.571 34.2634 189.454 34.3014C189.345 34.3393 189.258 34.4 189.207 34.4834C189.156 34.5592 189.112 34.6881 189.083 34.855C189.054 35.0218 189.039 35.2493 189.039 35.5451V36.0684C189.345 35.8864 189.658 35.7954 189.971 35.7954C190.385 35.7954 190.706 35.9546 190.931 36.2731C191.157 36.5917 191.266 37.1149 191.266 37.843V39.0716C191.266 39.4204 191.237 39.7162 191.178 39.974C191.12 40.2319 191.04 40.4366 190.938 40.5959C190.836 40.7552 190.713 40.8841 190.553 40.9751C190.4 41.0661 190.233 41.1343 190.065 41.1647C189.891 41.2026 189.694 41.2178 189.469 41.2178V41.2253ZM189.556 40.3001C189.738 40.3001 189.854 40.2243 189.92 40.0726C189.985 39.9209 190.014 39.6328 190.014 39.2156V37.5017C190.014 37.1908 189.985 36.9709 189.927 36.8419C189.869 36.713 189.767 36.6523 189.622 36.6523C189.418 36.6523 189.236 36.7964 189.076 37.077V39.1171C189.076 39.5873 189.105 39.8982 189.17 40.0574C189.229 40.2167 189.36 40.2925 189.563 40.2925L189.556 40.3001ZM185.213 40.285C185.315 40.285 185.402 40.2622 185.467 40.2167C185.533 40.1712 185.584 40.0954 185.613 39.9892C185.642 39.8906 185.664 39.792 185.671 39.701C185.678 39.61 185.686 39.4811 185.686 39.337V37.2818C185.686 37.1604 185.686 37.0619 185.686 36.986C185.686 36.9102 185.671 36.8192 185.649 36.7282C185.635 36.6372 185.606 36.5613 185.576 36.5082C185.54 36.4552 185.496 36.4096 185.438 36.3717C185.38 36.3338 185.307 36.3186 185.22 36.3186C185.118 36.3186 185.031 36.3414 184.965 36.3945C184.9 36.44 184.849 36.5158 184.82 36.622C184.791 36.7206 184.769 36.8192 184.762 36.9178C184.754 37.0088 184.747 37.1301 184.747 37.2818V39.337C184.747 39.4583 184.747 39.5493 184.747 39.6328C184.747 39.7086 184.762 39.792 184.776 39.883C184.791 39.974 184.82 40.0499 184.856 40.0954C184.885 40.1485 184.936 40.194 184.994 40.2319C185.053 40.2698 185.125 40.285 185.213 40.285ZM185.213 41.2329C184.631 41.2329 184.194 41.0585 183.903 40.7172C183.619 40.376 183.474 39.883 183.474 39.246V37.3728C183.474 36.7358 183.619 36.2428 183.903 35.9015C184.187 35.5603 184.623 35.3858 185.213 35.3858C185.802 35.3858 186.239 35.5603 186.53 35.9015C186.821 36.2428 186.966 36.7358 186.966 37.3728V39.246C186.966 39.883 186.821 40.376 186.53 40.7172C186.239 41.0585 185.802 41.2329 185.213 41.2329ZM178.723 41.2329C178.105 41.2329 177.654 41.0509 177.385 40.6945C177.108 40.338 176.977 39.8072 176.977 39.1095V37.5017C176.977 36.804 177.115 36.2731 177.392 35.9167C177.668 35.5603 178.112 35.3783 178.723 35.3783C179.051 35.3783 179.32 35.4313 179.545 35.5299C179.771 35.6285 179.938 35.7802 180.062 35.985C180.186 36.1897 180.273 36.4172 180.324 36.6827C180.375 36.9481 180.404 37.2666 180.404 37.6382V38.3814H178.25V39.2308C178.25 39.3522 178.25 39.4432 178.25 39.5038C178.25 39.5721 178.25 39.6479 178.265 39.7389C178.272 39.8299 178.287 39.9058 178.309 39.9513C178.33 40.0044 178.352 40.0574 178.389 40.1105C178.425 40.1636 178.469 40.2015 178.52 40.2243C178.578 40.247 178.636 40.2622 178.716 40.2622C178.891 40.2622 179.007 40.2015 179.072 40.0726C179.138 39.9437 179.174 39.7617 179.174 39.5266V39.2005H180.397V39.428C180.397 40.0195 180.258 40.467 179.975 40.7779C179.691 41.0888 179.276 41.2481 178.723 41.2481V41.2329ZM178.25 37.6989H179.174V37.1604C179.174 36.8723 179.138 36.6675 179.072 36.5386C179 36.4172 178.883 36.349 178.709 36.349C178.534 36.349 178.41 36.4172 178.345 36.5613C178.279 36.7054 178.25 36.9557 178.25 37.3273V37.6989ZM174.438 40.285C174.54 40.285 174.627 40.2622 174.693 40.2167C174.758 40.1712 174.809 40.0954 174.838 39.9892C174.867 39.8906 174.889 39.792 174.896 39.701C174.904 39.61 174.911 39.4811 174.911 39.337V37.2818C174.911 37.1604 174.911 37.0619 174.911 36.986C174.911 36.9102 174.896 36.8192 174.875 36.7282C174.86 36.6372 174.831 36.5613 174.802 36.5082C174.765 36.4552 174.722 36.4096 174.664 36.3717C174.605 36.3338 174.533 36.3186 174.445 36.3186C174.344 36.3186 174.256 36.3414 174.191 36.3945C174.125 36.44 174.074 36.5158 174.045 36.622C174.016 36.7206 173.994 36.8192 173.987 36.9178C173.98 37.0088 173.972 37.1301 173.972 37.2818V39.337C173.972 39.4583 173.972 39.5493 173.972 39.6328C173.972 39.7086 173.987 39.792 174.002 39.883C174.016 39.974 174.045 40.0499 174.082 40.0954C174.111 40.1485 174.162 40.194 174.22 40.2319C174.278 40.2698 174.351 40.285 174.438 40.285ZM174.438 41.2329C173.856 41.2329 173.42 41.0585 173.129 40.7172C172.845 40.376 172.699 39.883 172.699 39.246V37.3728C172.699 36.7358 172.845 36.2428 173.129 35.9015C173.412 35.5603 173.849 35.3858 174.438 35.3858C175.027 35.3858 175.464 35.5603 175.755 35.9015C176.046 36.2428 176.191 36.7358 176.191 37.3728V39.246C176.191 39.883 176.046 40.376 175.755 40.7172C175.464 41.0585 175.027 41.2329 174.438 41.2329ZM168.181 41.1419V35.4693H169.469V37.7596H170.531V35.4693H171.819V41.1419H170.531V38.6999H169.469V41.1419H168.181ZM163.693 43.0151V35.4693H164.98V35.9091C165.315 35.5603 165.686 35.3858 166.079 35.3858C166.275 35.3858 166.443 35.4389 166.595 35.5223C166.741 35.6134 166.857 35.7271 166.945 35.856C167.032 35.985 167.097 36.1442 167.148 36.3262C167.199 36.5082 167.236 36.6751 167.257 36.8268C167.279 36.986 167.287 37.1377 167.287 37.297V39.155C167.287 39.4432 167.265 39.7086 167.214 39.9513C167.17 40.194 167.097 40.4139 166.996 40.6111C166.894 40.8082 166.763 40.9599 166.595 41.0737C166.421 41.1798 166.224 41.2405 165.992 41.2405C165.657 41.2405 165.315 41.0661 164.973 40.7248V43.0151H163.685H163.693ZM165.548 40.2698C165.642 40.2698 165.722 40.2395 165.788 40.1864C165.853 40.1257 165.897 40.0499 165.926 39.9437C165.955 39.8375 165.977 39.7238 165.984 39.61C165.999 39.4962 165.999 39.3597 165.999 39.2005V37.2439C165.999 37.1149 165.999 36.9936 165.977 36.895C165.962 36.7888 165.941 36.6902 165.904 36.5992C165.868 36.5082 165.817 36.4324 165.751 36.3869C165.686 36.3414 165.606 36.3111 165.511 36.3186C165.344 36.3186 165.162 36.3945 164.98 36.5462V40.1029C165.162 40.2243 165.351 40.285 165.548 40.285V40.2698ZM161.139 41.2329C160.521 41.2329 160.07 41.0509 159.8 40.6945C159.524 40.338 159.393 39.8072 159.393 39.1095V37.5017C159.393 36.804 159.531 36.2731 159.808 35.9167C160.084 35.5603 160.528 35.3783 161.139 35.3783C161.466 35.3783 161.736 35.4313 161.961 35.5299C162.187 35.6285 162.354 35.7802 162.478 35.985C162.601 36.1897 162.689 36.4172 162.74 36.6827C162.79 36.9481 162.82 37.2666 162.82 37.6382V38.3814H160.666V39.2308C160.666 39.3522 160.666 39.4432 160.666 39.5038C160.666 39.5721 160.666 39.6479 160.681 39.7389C160.688 39.8299 160.702 39.9058 160.724 39.9513C160.746 40.0044 160.768 40.0574 160.804 40.1105C160.841 40.1636 160.884 40.2015 160.935 40.2243C160.993 40.247 161.052 40.2622 161.132 40.2622C161.306 40.2622 161.423 40.2015 161.488 40.0726C161.554 39.9437 161.59 39.7617 161.59 39.5266V39.2005H162.812V39.428C162.812 40.0195 162.674 40.467 162.39 40.7779C162.107 41.0888 161.692 41.2481 161.139 41.2481V41.2329ZM160.666 37.6989H161.59V37.1604C161.59 36.8723 161.554 36.6675 161.488 36.5386C161.415 36.4172 161.299 36.349 161.124 36.349C160.95 36.349 160.826 36.4172 160.761 36.5613C160.695 36.7054 160.666 36.9557 160.666 37.3273V37.6989ZM154.868 41.1419V35.4693H156.155V37.7596H157.218V35.4693H158.505V41.1419H157.218V38.6999H156.155V41.1419H154.868ZM152.234 40.285C152.336 40.285 152.423 40.2622 152.489 40.2167C152.554 40.1712 152.605 40.0954 152.634 39.9892C152.663 39.8906 152.685 39.792 152.692 39.701C152.7 39.61 152.707 39.4811 152.707 39.337V37.2818C152.707 37.1604 152.707 37.0619 152.707 36.986C152.707 36.9102 152.692 36.8192 152.671 36.7282C152.656 36.6372 152.627 36.5613 152.598 36.5082C152.561 36.4552 152.518 36.4096 152.46 36.3717C152.401 36.3338 152.329 36.3186 152.241 36.3186C152.14 36.3186 152.052 36.3414 151.987 36.3945C151.921 36.44 151.87 36.5158 151.841 36.622C151.812 36.7206 151.79 36.8192 151.783 36.9178C151.776 37.0088 151.768 37.1301 151.768 37.2818V39.337C151.768 39.4583 151.768 39.5493 151.768 39.6328C151.768 39.7086 151.783 39.792 151.798 39.883C151.812 39.974 151.841 40.0499 151.878 40.0954C151.914 40.1485 151.958 40.194 152.016 40.2319C152.074 40.2698 152.147 40.285 152.234 40.285ZM152.234 41.2329C151.652 41.2329 151.216 41.0585 150.925 40.7172C150.641 40.376 150.495 39.883 150.495 39.246V37.3728C150.495 36.7358 150.641 36.2428 150.925 35.9015C151.208 35.5603 151.645 35.3858 152.234 35.3858C152.823 35.3858 153.26 35.5603 153.551 35.9015C153.842 36.2428 153.987 36.7358 153.987 37.3728V39.246C153.987 39.883 153.842 40.376 153.551 40.7172C153.26 41.0585 152.823 41.2329 152.234 41.2329ZM146.043 41.1419V35.4693H147.09V38.8592L148.611 35.4693H149.615V41.1419H148.567V37.7368L147.069 41.1419H146.043ZM144.501 42.6435L144.406 41.1419H141.067V35.4693H142.354V40.2546H143.409V35.4693H144.69V40.2546H145.424V42.6435H144.501ZM136.723 41.1419V35.4693H138.011V37.7747H138.251L139.153 35.4693H140.514L139.422 38.1843L140.528 41.1419H139.175L138.258 38.5634H138.018V41.1419H136.731H136.723ZM131.507 41.1419L133.057 33.1941H134.504L136.047 41.1419H134.752L134.446 39.2991H133.129L132.817 41.1419H131.507ZM133.275 38.3511H134.293L133.784 35.0901L133.275 38.3511ZM127.935 41.1419L130.088 33.1941H130.983L128.83 41.1419H127.935ZM120.958 41.1419L121.904 38.7682C121.431 38.5559 121.198 38.0402 121.198 37.2135C121.198 36.6144 121.365 36.1746 121.693 35.894C122.027 35.6134 122.566 35.4693 123.315 35.4693H124.806V41.1419H123.519V39.0033C123.424 39.0033 123.279 39.0033 123.09 38.9957L122.333 41.1419H120.951H120.958ZM123.461 38.2298H123.519V36.2276H123.468C123.075 36.2276 122.791 36.3035 122.617 36.4552C122.442 36.6068 122.355 36.8571 122.355 37.2059C122.355 37.5548 122.442 37.8126 122.609 37.9719C122.777 38.1388 123.06 38.2222 123.461 38.2222V38.2298ZM116.789 41.1419V35.4693H117.837V38.8592L119.357 35.4693H120.361V41.1419H119.314V37.7368L117.815 41.1419H116.789ZM112.169 41.1419V35.4693H113.457V37.7596H114.519V35.4693H115.807V41.1419H114.519V38.6999H113.457V41.1419H112.169ZM108.954 41.2329C108.612 41.2329 108.328 41.0888 108.11 40.8158C107.892 40.5428 107.782 40.2243 107.782 39.883C107.782 39.5417 107.833 39.2687 107.942 39.0185C108.044 38.7758 108.219 38.5634 108.459 38.389C108.699 38.2146 108.896 38.0857 109.048 38.0098C109.208 37.9264 109.448 37.8278 109.769 37.6913C109.863 37.6534 109.929 37.6231 109.972 37.6079V37.1301C109.972 36.8723 109.943 36.6903 109.885 36.5689C109.827 36.4476 109.71 36.3945 109.536 36.3945C109.252 36.3945 109.107 36.5992 109.099 37.0164L109.085 37.3728L107.848 37.3273C107.848 37.3273 107.848 37.2742 107.848 37.2211C107.848 37.168 107.848 37.1377 107.848 37.1225C107.892 36.531 108.059 36.0911 108.357 35.8105C108.655 35.5299 109.085 35.3934 109.638 35.3934C110.191 35.3934 110.569 35.5451 110.831 35.8485C111.093 36.1518 111.216 36.5841 111.216 37.1377V39.7313C111.216 40.1636 111.253 40.6414 111.318 41.1571H110.154C110.081 40.7855 110.038 40.5049 110.023 40.3229C109.943 40.5883 109.819 40.8082 109.638 40.9827C109.456 41.1571 109.23 41.2481 108.946 41.2481L108.954 41.2329ZM109.448 40.194C109.543 40.194 109.645 40.156 109.739 40.0802C109.834 40.0044 109.914 39.9209 109.972 39.8451V38.2828C109.332 38.6544 109.019 39.064 109.019 39.5342C109.019 39.7389 109.056 39.8982 109.128 40.0195C109.201 40.1409 109.31 40.2015 109.448 40.2015V40.194ZM103.417 41.1419V35.4693H106.917V41.1419H105.636V36.4324H104.705V41.1419H103.417ZM98.15 41.1419L98.1937 35.4693H99.1395L100.296 38.5483L101.453 35.4693H102.399L102.442 41.1419H101.409V38.025L100.493 40.4442H100.114L99.1977 38.0326V41.1419H98.1573H98.15ZM95.5382 40.285C95.6401 40.285 95.7274 40.2622 95.7929 40.2167C95.8583 40.1712 95.9093 40.0954 95.9384 39.9892C95.9675 39.8906 95.9893 39.792 95.9966 39.701C96.0038 39.61 96.0111 39.4811 96.0111 39.337V37.2818C96.0111 37.1604 96.0111 37.0619 96.0111 36.986C96.0111 36.9102 95.9966 36.8192 95.9747 36.7282C95.9602 36.6372 95.9311 36.5613 95.902 36.5082C95.8656 36.4552 95.822 36.4096 95.7638 36.3717C95.7056 36.3338 95.6328 36.3186 95.5455 36.3186C95.4436 36.3186 95.3563 36.3414 95.2909 36.3945C95.2254 36.44 95.1745 36.5158 95.1454 36.622C95.1163 36.7206 95.0944 36.8192 95.0872 36.9178C95.0799 37.0088 95.0726 37.1301 95.0726 37.2818V39.337C95.0726 39.4583 95.0726 39.5493 95.0726 39.6328C95.0726 39.7086 95.0872 39.792 95.1017 39.883C95.1163 39.974 95.1454 40.0499 95.1817 40.0954C95.2181 40.1485 95.2618 40.194 95.32 40.2319C95.3782 40.2698 95.4509 40.285 95.5382 40.285ZM95.5382 41.2329C94.9562 41.2329 94.5197 41.0585 94.2287 40.7172C93.945 40.376 93.7994 39.883 93.7994 39.246V37.3728C93.7994 36.7358 93.945 36.2428 94.2287 35.9015C94.5124 35.5603 94.9489 35.3858 95.5382 35.3858C96.1275 35.3858 96.564 35.5603 96.855 35.9015C97.146 36.2428 97.2915 36.7358 97.2915 37.3728V39.246C97.2915 39.883 97.146 40.376 96.855 40.7172C96.564 41.0585 96.1275 41.2329 95.5382 41.2329ZM89.5725 41.1419V35.4693H90.8602V37.7747H91.1003L92.0025 35.4693H93.3629L92.2716 38.1843L93.3775 41.1419H92.0243L91.1076 38.5634H90.8675V41.1419H89.5798H89.5725ZM82.4428 41.1419L83.3886 38.7682C82.9157 38.5559 82.6829 38.0402 82.6829 37.2135C82.6829 36.6144 82.8502 36.1746 83.1776 35.894C83.5123 35.6134 84.0506 35.4693 84.8 35.4693H86.2914V41.1419H85.0037V39.0033C84.9091 39.0033 84.7636 39.0033 84.5744 38.9957L83.8178 41.1419H82.4355H82.4428ZM84.9455 38.2298H85.0037V36.2276H84.9528C84.5599 36.2276 84.2762 36.3035 84.1016 36.4552C83.927 36.6068 83.8396 36.8571 83.8396 37.2059C83.8396 37.5548 83.927 37.8126 84.0943 37.9719C84.2616 38.1388 84.5453 38.2222 84.9455 38.2222V38.2298ZM79.6127 41.2329C79.2708 41.2329 78.9871 41.0888 78.7688 40.8158C78.5506 40.5428 78.4414 40.2243 78.4414 39.883C78.4414 39.5417 78.4924 39.2687 78.6015 39.0185C78.7033 38.7758 78.8779 38.5634 79.118 38.389C79.3581 38.2146 79.5545 38.0857 79.7073 38.0098C79.8674 37.9264 80.1075 37.8278 80.4276 37.6913C80.5221 37.6534 80.5876 37.6231 80.6313 37.6079V37.1301C80.6313 36.8723 80.6022 36.6903 80.544 36.5689C80.4858 36.4476 80.3694 36.3945 80.1948 36.3945C79.911 36.3945 79.7655 36.5992 79.7582 37.0164L79.7437 37.3728L78.5069 37.3273C78.5069 37.3273 78.5069 37.2742 78.5069 37.2211C78.5069 37.168 78.5069 37.1377 78.5069 37.1225C78.5506 36.531 78.7179 36.0911 79.0162 35.8105C79.3145 35.5299 79.7437 35.3934 80.2966 35.3934C80.8495 35.3934 81.2278 35.5451 81.4898 35.8485C81.7517 36.1518 81.8753 36.5841 81.8753 37.1377V39.7313C81.8753 40.1636 81.9117 40.6414 81.9772 41.1571H80.8132C80.7404 40.7855 80.6968 40.5049 80.6822 40.3229C80.6022 40.5883 80.4785 40.8082 80.2966 40.9827C80.1147 41.1571 79.8892 41.2481 79.6055 41.2481L79.6127 41.2329ZM80.1075 40.194C80.202 40.194 80.3039 40.156 80.3985 40.0802C80.493 40.0044 80.5731 39.9209 80.6313 39.8451V38.2828C79.9911 38.6544 79.6782 39.064 79.6782 39.5342C79.6782 39.7389 79.7146 39.8982 79.7873 40.0195C79.8601 40.1409 79.9692 40.2015 80.1075 40.2015V40.194ZM73.9453 41.1419V35.4693H75.2331V37.7596H76.2952V35.4693H77.583V41.1419H76.2952V38.6999H75.2331V41.1419H73.9453ZM69.6893 41.1419V35.4693H70.977V37.7975H71.0643C71.3772 37.7975 71.6464 37.8202 71.8719 37.843C72.0902 37.8733 72.2939 37.9264 72.483 37.9947C72.6649 38.0705 72.8104 38.1615 72.9195 38.2904C73.0287 38.4194 73.1087 38.5786 73.1669 38.7758C73.2251 38.973 73.2542 39.2081 73.2542 39.4811C73.2542 40.1029 73.0869 40.5352 72.7449 40.7855C72.403 41.0282 71.821 41.1495 70.9989 41.1495H69.6893V41.1419ZM70.977 40.3684H70.9989C71.4208 40.3684 71.7118 40.3077 71.8646 40.1864C72.0247 40.0726 72.0974 39.8299 72.0974 39.4735C72.0974 39.1171 72.0247 38.8971 71.8719 38.7758C71.7191 38.6544 71.4427 38.5862 71.028 38.5862H70.977V40.376V40.3684ZM64.4148 41.1723V40.2167C64.5166 40.2167 64.6112 40.2167 64.684 40.2091C64.7567 40.2015 64.8295 40.1712 64.8949 40.1333C64.9604 40.0954 65.0114 40.0499 65.055 40.0044C65.0987 39.9589 65.135 39.883 65.1714 39.792C65.2078 39.6934 65.2296 39.6024 65.2514 39.5114C65.2733 39.428 65.2878 39.2991 65.3096 39.1398C65.3242 38.9806 65.3387 38.8289 65.346 38.6924C65.3533 38.5559 65.3678 38.3738 65.3751 38.1388L65.5424 35.4768H68.7072V41.1495H67.4267V36.44H66.6483L66.5391 38.2146C66.5173 38.6317 66.4882 38.9881 66.4518 39.2763C66.4155 39.5721 66.3718 39.8299 66.3063 40.065C66.2481 40.2925 66.1754 40.4821 66.0881 40.6186C66.0081 40.7627 65.8989 40.8765 65.7753 40.9675C65.6516 41.0585 65.5061 41.1192 65.346 41.1571C65.186 41.195 64.9968 41.2102 64.7785 41.2102C64.633 41.2102 64.5094 41.2102 64.4148 41.195V41.1723ZM62.2177 40.285C62.3195 40.285 62.4068 40.2622 62.4723 40.2167C62.5378 40.1712 62.5887 40.0954 62.6178 39.9892C62.6469 39.8906 62.6687 39.792 62.676 39.701C62.6833 39.61 62.6906 39.4811 62.6906 39.337V37.2818C62.6906 37.1604 62.6906 37.0619 62.6906 36.986C62.6906 36.9102 62.676 36.8192 62.6542 36.7282C62.6396 36.6372 62.6105 36.5613 62.5814 36.5082C62.545 36.4552 62.5014 36.4096 62.4432 36.3717C62.385 36.3338 62.3122 36.3186 62.2249 36.3186C62.1231 36.3186 62.0358 36.3414 61.9703 36.3945C61.9048 36.44 61.8539 36.5158 61.8248 36.622C61.7957 36.7206 61.7739 36.8192 61.7666 36.9178C61.7593 37.0088 61.752 37.1301 61.752 37.2818V39.337C61.752 39.4583 61.752 39.5493 61.752 39.6328C61.752 39.7086 61.7666 39.792 61.7811 39.883C61.7957 39.974 61.8248 40.0499 61.8612 40.0954C61.8976 40.1485 61.9412 40.194 61.9994 40.2319C62.0576 40.2698 62.1304 40.285 62.2177 40.285ZM62.2177 41.2329C61.6356 41.2329 61.1991 41.0585 60.9081 40.7172C60.6244 40.376 60.4789 39.883 60.4789 39.246V37.3728C60.4789 36.7358 60.6244 36.2428 60.9081 35.9015C61.1919 35.5603 61.6284 35.3858 62.2177 35.3858C62.807 35.3858 63.2435 35.5603 63.5345 35.9015C63.8255 36.2428 63.971 36.7358 63.971 37.3728V39.246C63.971 39.883 63.8255 40.376 63.5345 40.7172C63.2435 41.0585 62.807 41.2329 62.2177 41.2329ZM57.6124 41.1419V35.4693H60.0569V36.3945H58.9002V41.1419H57.6124ZM52.9417 42.5298V41.5059C53.531 41.5514 53.9166 41.4832 54.0985 41.3088C54.2731 41.1268 54.3095 40.7931 54.2004 40.3077L52.6289 33.1941H53.9239L54.5496 36.4931L54.8842 38.8365L55.1607 36.5007L55.6991 33.1865H57.0159L55.5754 40.4139C55.4735 40.9144 55.3862 41.2784 55.3135 41.4984C55.2407 41.7183 55.1098 41.9231 54.9279 42.1278C54.746 42.325 54.4986 42.4463 54.1931 42.4918C53.8875 42.5373 53.4728 42.5449 52.9345 42.5222L52.9417 42.5298Z" fill="#5B5B5B"/>
</g>
<defs>
<clipPath id="clip0_4_277">
<rect width="243" height="43" fill="white"/>
</clipPath>
</defs>
</svg>
