<svg width="233" height="42" viewBox="0 0 233 42" fill="none" xmlns="http://www.w3.org/2000/svg">
<path d="M152.194 17.0708L151.824 24.171C151.761 25.4615 151.628 26.3986 151.423 26.9822C151.218 27.5659 150.861 27.8577 150.352 27.8577C150.216 27.8577 150.095 27.8497 149.99 27.8336C149.891 27.8175 149.78 27.7881 149.66 27.7453V28.8296C149.807 28.8831 149.946 28.9206 150.077 28.942C150.208 28.9634 150.339 28.9741 150.47 28.9741C151.384 28.9795 152.003 28.5913 152.328 27.8095C152.659 27.0277 152.863 25.8792 152.942 24.3638L153.265 18.1069H158.114V28.7653H159.318V17.0708H152.194Z" fill="#5B5B5B"/>
<path d="M161.683 23.2393C161.683 25.092 162.121 26.5164 162.998 27.5123C163.879 28.5029 165.013 28.9982 166.398 28.9982C167.784 28.9982 168.914 28.5029 169.791 27.5123C170.672 26.5164 171.113 25.092 171.113 23.2393V22.5968C171.113 20.7441 170.672 19.3224 169.791 18.3318C168.914 17.3359 167.784 16.8379 166.398 16.8379C165.013 16.8379 163.879 17.3359 162.998 18.3318C162.121 19.3224 161.683 20.7441 161.683 22.5968V23.2393ZM162.895 23.2393V22.5888C162.895 21.0841 163.216 19.9275 163.856 19.119C164.496 18.3104 165.343 17.9061 166.398 17.9061C167.448 17.9061 168.293 18.3104 168.933 19.119C169.573 19.9275 169.893 21.0841 169.893 22.5888V23.2393C169.893 24.7493 169.573 25.9086 168.933 26.7172C168.293 27.5257 167.448 27.93 166.398 27.93C165.343 27.93 164.496 27.5257 163.856 26.7172C163.216 25.9086 162.895 24.7493 162.895 23.2393Z" fill="#5B5B5B"/>
<path d="M173.478 28.7653H174.683V18.1069H180.122V17.0708H173.478V28.7653Z" fill="#5B5B5B"/>
<path d="M190.508 28.7653V17.0708H189.178L183.613 26.2513C183.513 26.4173 183.419 26.5779 183.329 26.7332C183.24 26.8832 183.164 27.0304 183.101 27.175H183.038C183.043 27.0143 183.049 26.8457 183.054 26.669C183.059 26.4923 183.062 26.3263 183.062 26.171V17.0708H181.857V28.7653H183.18L188.753 19.5848C188.853 19.4188 188.947 19.2582 189.036 19.1029C189.131 18.9423 189.209 18.795 189.272 18.6611H189.335C189.325 18.8218 189.317 19.0038 189.312 19.2073C189.307 19.4054 189.304 19.5821 189.304 19.7374V28.7653H190.508Z" fill="#5B5B5B"/>
<path d="M192.881 23.2393C192.881 25.1027 193.317 26.5298 194.188 27.5204C195.064 28.5056 196.174 28.9982 197.518 28.9982C198.845 28.9982 199.858 28.6261 200.556 27.8818C201.254 27.1321 201.65 26.2112 201.745 25.1188L201.752 25.0144H200.548L200.54 25.1108C200.477 25.8872 200.204 26.5512 199.722 27.1027C199.239 27.6542 198.504 27.93 197.518 27.93C196.51 27.93 195.686 27.5257 195.046 26.7172C194.411 25.9086 194.094 24.7493 194.094 23.2393V22.5888C194.094 21.0466 194.411 19.882 195.046 19.0949C195.686 18.3024 196.51 17.9061 197.518 17.9061C198.525 17.9061 199.27 18.1819 199.753 18.7334C200.241 19.2796 200.506 19.9436 200.548 20.7253V20.8217H201.752V20.7253C201.695 19.6223 201.306 18.6986 200.587 17.9543C199.869 17.21 198.845 16.8379 197.518 16.8379C196.185 16.8379 195.077 17.3359 194.196 18.3318C193.319 19.3224 192.881 20.7441 192.881 22.5968V23.2393Z" fill="#5B5B5B"/>
<path d="M202.599 18.1069H206.337V28.7653H207.542V18.1069H211.281V17.0708H202.599V18.1069Z" fill="#5B5B5B"/>
<path d="M221.596 28.7653V17.0708H220.266L214.701 26.2513C214.601 26.4173 214.507 26.5779 214.417 26.7332C214.328 26.8832 214.252 27.0304 214.189 27.175H214.126C214.131 27.0143 214.137 26.8457 214.142 26.669C214.147 26.4923 214.15 26.3263 214.15 26.171V17.0708H212.945V28.7653H214.268L219.841 19.5848C219.941 19.4188 220.035 19.2582 220.124 19.1029C220.219 18.9423 220.297 18.795 220.36 18.6611H220.423C220.413 18.8218 220.405 19.0038 220.4 19.2073C220.394 19.4054 220.392 19.5821 220.392 19.7374V28.7653H221.596Z" fill="#5B5B5B"/>
<path d="M231.424 28.7653H232.911L227.504 22.3076L226.433 22.7735L231.424 28.7653ZM224.993 22.2113V23.2474H227.291L232.51 17.0708H231.148L226.819 22.2113H224.993ZM224.394 28.7653H225.599V17.0708H224.394V28.7653Z" fill="#5B5B5B"/>
<path d="M57.2568 34.5219H59.0759V39.2881H59.8991V34.5219H61.7181V33.8512H57.2568V34.5219Z" fill="#5B5B5B"/>
<path d="M62.7825 41.4018H63.6057V38.6224C63.7852 38.8528 64.0224 39.0391 64.3171 39.1813C64.6118 39.3202 64.9641 39.3897 65.374 39.3897C66.0887 39.3897 66.6561 39.1322 67.0762 38.6173C67.4962 38.0991 67.7062 37.4436 67.7062 36.6509V36.4883C67.7062 35.6956 67.4962 35.0419 67.0762 34.527C66.6561 34.0087 66.0887 33.7495 65.374 33.7495C64.9641 33.7495 64.6016 33.8325 64.2866 33.9985C63.9749 34.1611 63.7395 34.3576 63.5803 34.5879H63.565L63.5295 33.8512H62.7825V41.4018ZM63.6057 37.7383V35.4009C63.7243 35.1536 63.919 34.9335 64.19 34.7404C64.4644 34.5439 64.7947 34.4457 65.1809 34.4457C65.7635 34.4457 66.1903 34.6421 66.4613 35.0351C66.7323 35.4246 66.8678 35.9091 66.8678 36.4883V36.6509C66.8678 37.2302 66.7323 37.7163 66.4613 38.1092C66.1903 38.4988 65.7635 38.6936 65.1809 38.6936C64.7947 38.6936 64.4644 38.597 64.19 38.4039C63.919 38.2075 63.7243 37.9856 63.6057 37.7383Z" fill="#5B5B5B"/>
<path d="M68.7198 37.723C68.7198 38.2684 68.8994 38.6834 69.2584 38.9679C69.6209 39.2491 70.068 39.3897 70.5999 39.3897C71.0877 39.3897 71.4874 39.2982 71.799 39.1153C72.1107 38.9324 72.336 38.7274 72.4748 38.5005C72.4884 38.6461 72.5155 38.7918 72.5561 38.9375C72.5968 39.0797 72.6442 39.1966 72.6984 39.2881H73.486V39.2068C73.4216 39.0577 73.3708 38.8866 73.3336 38.6936C73.2963 38.4971 73.2777 38.2888 73.2777 38.0686V35.5381C73.2777 34.9284 73.0964 34.4694 72.734 34.1611C72.3749 33.8529 71.8651 33.6987 71.2045 33.6987C70.544 33.6987 70.0206 33.8596 69.6344 34.1814C69.2483 34.4999 69.0552 34.881 69.0552 35.3247V35.3501H69.8631V35.3247C69.8631 35.0673 69.963 34.8437 70.1629 34.654C70.3661 34.4643 70.7049 34.3694 71.1791 34.3694C71.65 34.3694 71.9803 34.4778 72.17 34.6946C72.363 34.9114 72.4596 35.1926 72.4596 35.5381V35.9954H71.0775C70.3898 35.9954 69.8241 36.1479 69.3804 36.4527C68.94 36.7542 68.7198 37.1777 68.7198 37.723ZM69.5379 37.6824C69.5379 37.3504 69.6768 37.0879 69.9546 36.8948C70.2323 36.6983 70.6422 36.6001 71.1842 36.6001H72.4596V37.4385C72.4596 37.7468 72.2885 38.0381 71.9464 38.3125C71.6076 38.5835 71.2232 38.719 70.793 38.719C70.3627 38.719 70.046 38.6292 69.8428 38.4497C69.6395 38.2701 69.5379 38.0144 69.5379 37.6824Z" fill="#5B5B5B"/>
<path d="M74.901 33.8512V39.2881H75.7242V36.8592H78.4934V39.2881H79.3115V33.8512H78.4934V36.1936H75.7242V33.8512H74.901Z" fill="#5B5B5B"/>
<path d="M80.6249 36.6509C80.6249 37.4707 80.8501 38.1414 81.3007 38.6631C81.7546 39.1813 82.3796 39.4405 83.1756 39.4405C83.9107 39.4405 84.468 39.2474 84.8474 38.8612C85.2268 38.4717 85.4165 38.033 85.4165 37.5452V37.5198H84.6238V37.5452C84.6238 37.867 84.5086 38.1482 84.2783 38.3887C84.0479 38.6292 83.6804 38.7494 83.1756 38.7494C82.5862 38.7494 82.1526 38.5479 81.8749 38.1448C81.6005 37.7417 81.4633 37.2437 81.4633 36.6509V36.4883C81.4633 35.8989 81.6005 35.4026 81.8749 34.9995C82.1526 34.593 82.5862 34.3898 83.1756 34.3898C83.6804 34.3898 84.0479 34.51 84.2783 34.7505C84.5086 34.991 84.6238 35.2722 84.6238 35.594V35.6194H85.4165V35.594C85.4165 35.1096 85.2268 34.6726 84.8474 34.2831C84.468 33.8935 83.9107 33.6987 83.1756 33.6987C82.3796 33.6987 81.7546 33.9596 81.3007 34.4812C80.8501 34.9995 80.6249 35.6685 80.6249 36.4883V36.6509Z" fill="#5B5B5B"/>
<path d="M86.5723 33.8512V39.2881H87.3955V34.5219H90.1139V39.2881H90.932V33.8512H86.5723Z" fill="#5B5B5B"/>
<path d="M92.2454 36.6509C92.2454 37.4707 92.4808 38.1414 92.9517 38.6631C93.4225 39.1813 94.056 39.4405 94.852 39.4405C95.6447 39.4405 96.2765 39.1813 96.7473 38.6631C97.2182 38.1414 97.4536 37.4707 97.4536 36.6509V36.4883C97.4536 35.6685 97.2182 34.9995 96.7473 34.4812C96.2765 33.9596 95.643 33.6987 94.847 33.6987C94.0543 33.6987 93.4225 33.9596 92.9517 34.4812C92.4808 34.9995 92.2454 35.6685 92.2454 36.4883V36.6509ZM93.0838 36.4883C93.0838 35.8989 93.2311 35.4026 93.5259 34.9995C93.8206 34.5964 94.2609 34.3949 94.847 34.3949C95.433 34.3949 95.8734 34.5964 96.1681 34.9995C96.4662 35.4026 96.6152 35.8989 96.6152 36.4883V36.6509C96.6152 37.2403 96.4662 37.7366 96.1681 38.1397C95.8734 38.5428 95.433 38.7444 94.847 38.7444C94.2609 38.7444 93.8206 38.5428 93.5259 38.1397C93.2311 37.7366 93.0838 37.2403 93.0838 36.6509V36.4883Z" fill="#5B5B5B"/>
<path d="M98.7619 41.4018H99.5851V38.6224C99.7646 38.8528 100.002 39.0391 100.296 39.1813C100.591 39.3202 100.943 39.3897 101.353 39.3897C102.068 39.3897 102.636 39.1322 103.056 38.6173C103.476 38.0991 103.686 37.4436 103.686 36.6509V36.4883C103.686 35.6956 103.476 35.0419 103.056 34.527C102.636 34.0087 102.068 33.7495 101.353 33.7495C100.943 33.7495 100.581 33.8325 100.266 33.9985C99.9543 34.1611 99.7189 34.3576 99.5597 34.5879H99.5444L99.5089 33.8512H98.7619V41.4018ZM99.5851 37.7383V35.4009C99.7036 35.1536 99.8984 34.9335 100.169 34.7404C100.444 34.5439 100.774 34.4457 101.16 34.4457C101.743 34.4457 102.17 34.6421 102.441 35.0351C102.712 35.4246 102.847 35.9091 102.847 36.4883V36.6509C102.847 37.2302 102.712 37.7163 102.441 38.1092C102.17 38.4988 101.743 38.6936 101.16 38.6936C100.774 38.6936 100.444 38.597 100.169 38.4039C99.8984 38.2075 99.7036 37.9856 99.5851 37.7383Z" fill="#5B5B5B"/>
<path d="M104.43 34.5219H106.249V39.2881H107.072V34.5219H108.891V33.8512H104.43V34.5219Z" fill="#5B5B5B"/>
<path d="M109.956 33.8512V39.2881H110.779V36.8592H113.548V39.2881H114.366V33.8512H113.548V36.1936H110.779V33.8512H109.956Z" fill="#5B5B5B"/>
<path d="M115.71 37.723C115.71 38.2684 115.89 38.6834 116.249 38.9679C116.611 39.2491 117.058 39.3897 117.59 39.3897C118.078 39.3897 118.478 39.2982 118.789 39.1153C119.101 38.9324 119.326 38.7274 119.465 38.5005C119.479 38.6461 119.506 38.7918 119.546 38.9375C119.587 39.0797 119.634 39.1966 119.689 39.2881H120.476V39.2068C120.412 39.0577 120.361 38.8866 120.324 38.6936C120.286 38.4971 120.268 38.2888 120.268 38.0686V35.5381C120.268 34.9284 120.087 34.4694 119.724 34.1611C119.365 33.8529 118.855 33.6987 118.195 33.6987C117.534 33.6987 117.011 33.8596 116.625 34.1814C116.238 34.4999 116.045 34.881 116.045 35.3247V35.3501H116.853V35.3247C116.853 35.0673 116.953 34.8437 117.153 34.654C117.356 34.4643 117.695 34.3694 118.169 34.3694C118.64 34.3694 118.97 34.4778 119.16 34.6946C119.353 34.9114 119.45 35.1926 119.45 35.5381V35.9954H118.068C117.38 35.9954 116.814 36.1479 116.371 36.4527C115.93 36.7542 115.71 37.1777 115.71 37.723ZM116.528 37.6824C116.528 37.3504 116.667 37.0879 116.945 36.8948C117.222 36.6983 117.632 36.6001 118.174 36.6001H119.45V37.4385C119.45 37.7468 119.279 38.0381 118.937 38.3125C118.598 38.5835 118.213 38.719 117.783 38.719C117.353 38.719 117.036 38.6292 116.833 38.4497C116.63 38.2701 116.528 38.0144 116.528 37.6824Z" fill="#5B5B5B"/>
<path d="M122.455 39.2881L123.964 37.0676L123.136 36.9812L121.535 39.2881H122.455ZM125.158 39.2881H125.976V33.8512H123.756C123.095 33.8512 122.589 34.0087 122.237 34.3237C121.884 34.6388 121.708 35.0588 121.708 35.5839C121.708 36.0818 121.874 36.4798 122.206 36.7779C122.542 37.076 123.023 37.2319 123.649 37.2454L123.746 37.2911H125.158V39.2881ZM123.756 36.6204C123.309 36.6204 122.994 36.5239 122.811 36.3308C122.628 36.1377 122.536 35.8887 122.536 35.5839C122.536 35.2756 122.628 35.0215 122.811 34.8217C122.994 34.6218 123.309 34.5219 123.756 34.5219H125.158V36.6204H123.756Z" fill="#5B5B5B"/>
<path d="M133.796 39.2881H134.823L132.18 36.2292L131.652 36.7627L133.796 39.2881ZM130.656 36.1936V36.8592H132.074L134.609 33.8512H133.659L131.703 36.1936H130.656ZM131.063 33.8512H130.244V39.2881H131.063V33.8512Z" fill="#5B5B5B"/>
<path d="M135.333 36.6509C135.333 37.4707 135.569 38.1414 136.039 38.6631C136.51 39.1813 137.144 39.4405 137.94 39.4405C138.732 39.4405 139.364 39.1813 139.835 38.6631C140.306 38.1414 140.541 37.4707 140.541 36.6509V36.4883C140.541 35.6685 140.306 34.9995 139.835 34.4812C139.364 33.9596 138.731 33.6987 137.935 33.6987C137.142 33.6987 136.51 33.9596 136.039 34.4812C135.569 34.9995 135.333 35.6685 135.333 36.4883V36.6509ZM136.172 36.4883C136.172 35.8989 136.319 35.4026 136.614 34.9995C136.908 34.5964 137.349 34.3949 137.935 34.3949C138.521 34.3949 138.961 34.5964 139.256 34.9995C139.554 35.4026 139.703 35.8989 139.703 36.4883V36.6509C139.703 37.2403 139.554 37.7366 139.256 38.1397C138.961 38.5428 138.521 38.7444 137.935 38.7444C137.349 38.7444 136.908 38.5428 136.614 38.1397C136.319 37.7366 136.172 37.2403 136.172 36.6509V36.4883Z" fill="#5B5B5B"/>
<path d="M141.85 39.2881H142.617V35.4365C142.62 35.2807 142.619 35.1536 142.612 35.0554C142.605 34.9538 142.597 34.8623 142.586 34.781H142.637C142.658 34.8623 142.685 34.9555 142.719 35.0605C142.752 35.1621 142.8 35.2891 142.861 35.4416L144.517 39.2881H145.269L146.921 35.4467C146.989 35.2875 147.038 35.157 147.068 35.0554C147.102 34.9538 147.129 34.8623 147.149 34.781H147.195C147.188 34.8623 147.182 34.9538 147.175 35.0554C147.168 35.1536 147.165 35.2875 147.165 35.4568V39.2881H147.962V33.8512H146.855L145.168 37.7789C145.097 37.9415 145.046 38.0686 145.015 38.16C144.985 38.2515 144.959 38.3379 144.939 38.4192H144.893C144.873 38.3379 144.846 38.2515 144.812 38.16C144.778 38.0652 144.726 37.9365 144.655 37.7739L142.978 33.8512H141.85V39.2881Z" fill="#5B5B5B"/>
<path d="M149.586 33.8512V39.2881H150.409V34.5219H153.127V39.2881H153.945V33.8512H149.586Z" fill="#5B5B5B"/>
<path d="M155.289 37.723C155.289 38.2684 155.469 38.6834 155.828 38.9679C156.19 39.2491 156.638 39.3897 157.169 39.3897C157.657 39.3897 158.057 39.2982 158.369 39.1153C158.68 38.9324 158.905 38.7274 159.044 38.5005C159.058 38.6461 159.085 38.7918 159.126 38.9375C159.166 39.0797 159.214 39.1966 159.268 39.2881H160.055V39.2068C159.991 39.0577 159.94 38.8866 159.903 38.6936C159.866 38.4971 159.847 38.2888 159.847 38.0686V35.5381C159.847 34.9284 159.666 34.4694 159.303 34.1611C158.944 33.8529 158.435 33.6987 157.774 33.6987C157.113 33.6987 156.59 33.8596 156.204 34.1814C155.818 34.4999 155.625 34.881 155.625 35.3247V35.3501H156.433V35.3247C156.433 35.0673 156.533 34.8437 156.732 34.654C156.936 34.4643 157.274 34.3694 157.749 34.3694C158.219 34.3694 158.55 34.4778 158.739 34.6946C158.933 34.9114 159.029 35.1926 159.029 35.5381V35.9954H157.647C156.959 35.9954 156.394 36.1479 155.95 36.4527C155.509 36.7542 155.289 37.1777 155.289 37.723ZM156.107 37.6824C156.107 37.3504 156.246 37.0879 156.524 36.8948C156.802 36.6983 157.212 36.6001 157.754 36.6001H159.029V37.4385C159.029 37.7468 158.858 38.0381 158.516 38.3125C158.177 38.5835 157.793 38.719 157.362 38.719C156.932 38.719 156.615 38.6292 156.412 38.4497C156.209 38.2701 156.107 38.0144 156.107 37.6824Z" fill="#5B5B5B"/>
<path d="M161.47 33.8512V39.2881H162.294V36.8592H165.063V39.2881H165.881V33.8512H165.063V36.1936H162.294V33.8512H161.47Z" fill="#5B5B5B"/>
<path d="M167.509 39.2881H168.358L170.792 35.5635C170.863 35.4585 170.927 35.3535 170.985 35.2485C171.043 35.1435 171.093 35.0486 171.137 34.964H171.193C171.186 35.0656 171.181 35.1824 171.178 35.3146C171.175 35.4433 171.173 35.5601 171.173 35.6652V39.2881H171.991V33.8512H171.142L168.709 37.5808C168.641 37.6858 168.576 37.7891 168.515 37.8907C168.458 37.9923 168.405 38.0872 168.358 38.1753H168.317C168.321 38.0703 168.322 37.9534 168.322 37.8247C168.326 37.6959 168.327 37.5808 168.327 37.4791V33.8512H167.509V39.2881Z" fill="#5B5B5B"/>
<path d="M174.173 39.2881L175.682 37.0676L174.854 36.9812L173.254 39.2881H174.173ZM176.876 39.2881H177.695V33.8512H175.474C174.814 33.8512 174.307 34.0087 173.955 34.3237C173.603 34.6388 173.426 35.0588 173.426 35.5839C173.426 36.0818 173.592 36.4798 173.924 36.7779C174.26 37.076 174.741 37.2319 175.367 37.2454L175.464 37.2911H176.876V39.2881ZM175.474 36.6204C175.027 36.6204 174.712 36.5239 174.529 36.3308C174.346 36.1377 174.255 35.8887 174.255 35.5839C174.255 35.2756 174.346 35.0215 174.529 34.8217C174.712 34.6218 175.027 34.5219 175.474 34.5219H176.876V36.6204H175.474Z" fill="#5B5B5B"/>
<path fill-rule="evenodd" clip-rule="evenodd" d="M53.4579 10.1256L48.2076 4.87524L46.2028 6.88001L51.4601 12.1373V32.8076L47.8149 39.288H41.3345V10.1263L44.9778 6.48294V6.48038L51.4582 0H80.6199V6.48038L74.1395 10.1256H53.4579Z" fill="#5B5B5B"/>
<path fill-rule="evenodd" clip-rule="evenodd" d="M27.1578 10.1256L32.4081 4.87531L34.4128 6.88008L29.16 12.1328V32.8076L32.8053 39.288H39.2856V10.1263L35.6423 6.48294V6.48038L29.1619 0H0.000213623V6.48038L6.48059 10.1256H27.1578Z" fill="#5B5B5B"/>
<path fill-rule="evenodd" clip-rule="evenodd" d="M102.871 18.7908V28.9977H106.915V25.4408H119.136V28.9977H123.21V16.8374H104.825L102.871 18.7908ZM79.9497 16.8374H98.3265L100.288 18.7988V25.4408H83.993V28.9977H79.9497V16.8374ZM77.3654 16.8374H57.0576V19.9981H65.1746V28.9977H69.2484V19.9981H77.3654V16.8374ZM96.2142 22.2531L96.2142 20.0285H83.993L83.993 22.2531H96.2142ZM119.136 20.0285V22.495H106.915V20.0285H119.136ZM140.538 22.4008L146.131 18.9351V16.8374H142.088L139.686 18.3574L138.075 19.3607L138.014 19.4215L136.464 20.3943L135.674 20.8807L134.883 21.3975L133.941 22.0055L133.272 22.4008L131.691 23.4344L130.08 24.4376L129.867 24.5592V16.8374H125.793V28.9977H129.867L132.329 27.4777L133.941 26.4745H133.971L135.613 25.4408L136.038 25.1672L136.464 25.4408L138.014 26.4137L138.075 26.4745L139.686 27.4777L142.088 28.9977H146.131V26.9001L139.717 22.9176L140.538 22.4008Z" fill="#5B5B5B"/>
</svg>
