<svg xmlns="http://www.w3.org/2000/svg" xmlns:xlink="http://www.w3.org/1999/xlink">

  <symbol id="arrow" viewBox="0 0 12 8" xmlns="http://www.w3.org/2000/svg">
    <path d="M5.99959 3.02369L1.87481 7.14852L0.696289 5.97002L5.99959 0.666687L11.3029 5.97002L10.1244 7.14852L5.99959 3.02369Z"/>
  </symbol>

  <symbol id="download" viewBox="0 0 24 24" xmlns="http://www.w3.org/2000/svg">
    <path d="M16 2L21 7V21.0082C21 21.556 20.5551 22 20.0066 22H3.9934C3.44476 22 3 21.5447 3 21.0082V2.9918C3 2.44405 3.44495 2 3.9934 2H16ZM13 12V8H11V12H8L12 16L16 12H13Z"/>
  </symbol>

  <symbol id="hh" viewBox="0 0 24 24" xmlns="http://www.w3.org/2000/svg">
    <g clip-path="url(#clip0_204_322)">
    <path fill-rule="evenodd" clip-rule="evenodd" d="M12 0C5.3724 0 0 5.3724 0 12C0 18.6276 5.3724 24 12 24C18.6276 24 24 18.6276 24 12C24 5.3724 18.6276 0 12 0ZM11.5344 17.1612H9.6036V13.23C9.6036 12.45 9.5688 11.9556 9.4956 11.7456C9.4224 11.5344 9.2928 11.3676 9.108 11.2464C8.922 11.1204 8.6904 11.0592 8.4108 11.0592C8.0916 11.0592 7.8036 11.1396 7.554 11.298C7.2996 11.4576 7.116 11.6976 6.9996 12.0168C6.882 12.3372 6.8232 12.8088 6.8256 13.4352L6.8232 17.1624H4.8948V6.5844H6.8256V10.6668C7.4472 9.9264 8.1912 9.5532 9.0552 9.5532C9.5004 9.5532 9.8988 9.6384 10.2564 9.8064C10.6152 9.9744 10.8828 10.1892 11.064 10.4496C11.2464 10.7136 11.3688 11.0016 11.4348 11.3196C11.5008 11.6364 11.5344 12.1284 11.5344 12.7968V17.1612ZM19.1376 17.1612H17.2092V13.23C17.2092 12.45 17.1732 11.9556 17.0988 11.7456C17.0256 11.5344 16.8972 11.3676 16.71 11.2464C16.5264 11.1204 16.2924 11.0592 16.0128 11.0592C15.6936 11.0592 15.4068 11.1396 15.156 11.298C14.904 11.4576 14.7204 11.6976 14.6028 12.0168C14.4876 12.3372 14.4288 12.8088 14.4288 13.4352V17.1624H12.5004V6.5844H14.4288V10.6668C15.0504 9.9264 15.7944 9.5532 16.6584 9.5532C17.1012 9.5532 17.5032 9.6384 17.8608 9.8064C18.2172 9.9744 18.486 10.1892 18.666 10.4496C18.8484 10.7136 18.972 11.0016 19.0368 11.3196C19.1028 11.6364 19.1364 12.1284 19.1364 12.7968V17.1612H19.1376Z"/>
    </g>
    <defs>
    <clipPath id="clip0_204_322">
    <rect width="24" height="24" fill="white"/>
    </clipPath>
    </defs>
  </symbol>

  <symbol id="play" viewBox="0 0 12 12" xmlns="http://www.w3.org/2000/svg">
    <path d="M11.0328 5.09204C11.8073 5.44954 11.8073 6.55046 11.0328 6.90796L1.41906 11.3451C0.756439 11.6509 4.65554e-07 11.1669 4.97455e-07 10.4371L8.85357e-07 1.56291C9.17258e-07 0.833118 0.756438 0.349125 1.41906 0.654949L11.0328 5.09204Z"/>
  </symbol>

  <symbol id="vacancy" viewBox="0 0 24 24" xmlns="http://www.w3.org/2000/svg">
    <path d="M14 14.252V22H4C4 17.5817 7.58172 14 12 14C12.6906 14 13.3608 14.0875 14 14.252ZM12 13C8.685 13 6 10.315 6 7C6 3.685 8.685 1 12 1C15.315 1 18 3.685 18 7C18 10.315 15.315 13 12 13ZM18 17V14H20V17H23V19H20V22H18V19H15V17H18Z"/>
  </symbol>

  <symbol id="youtube" viewBox="0 0 57 57" fill="none" xmlns="http://www.w3.org/2000/svg">
    <circle cx="28.5" cy="28.5" r="14.5" fill="white"/>
    <path d="M29.0793 9.5C30.3478 9.50698 33.5215 9.53767 36.8935 9.67273L38.0891 9.72486C41.4841 9.8856 44.8763 10.1602 46.5588 10.6293C48.8029 11.2598 50.5668 13.0993 51.163 15.4311C52.1122 19.134 52.231 26.3611 52.2457 28.11L52.2479 28.4725V28.4979C52.2479 28.4979 52.2479 28.5067 52.2479 28.5235L52.2457 28.8859C52.231 30.6349 52.1122 37.862 51.163 41.5649C50.5585 43.9052 48.7946 45.7449 46.5588 46.3667C44.8763 46.8357 41.4841 47.1103 38.0891 47.2711L36.8935 47.3231C33.5215 47.4582 30.3478 47.4888 29.0793 47.496L28.5226 47.4979H28.4979C28.4979 47.4979 28.4895 47.4979 28.4732 47.4979L27.9169 47.496C25.2322 47.4812 14.0071 47.3599 10.437 46.3667C8.1928 45.7361 6.42893 43.8967 5.83269 41.5649C4.88347 37.862 4.76482 30.6349 4.75 28.8859V28.11C4.76482 26.3611 4.88347 19.134 5.83269 15.4311C6.4372 13.0907 8.20106 11.2511 10.437 10.6293C14.0071 9.63592 25.2322 9.51477 27.9169 9.5H29.0793ZM23.7479 20.1855V36.8104L37.9979 28.4979L23.7479 20.1855Z" fill="#FF0000"/>
  </symbol>

  <symbol id="arrow-icon" viewBox="0 0 24 24" xmlns="http://www.w3.org/2000/svg">
    <path d="M7.8284 10.9999L13.1924 5.63589L11.7782 4.22168L4 11.9999L11.7782 19.778L13.1924 18.3638L7.8284 12.9999H20V10.9999H7.8284Z"/>
  </symbol> 

  <svg id="developer" viewBox="0 0 40 22" fill="none" xmlns="http://www.w3.org/2000/svg">
    <path fill-rule="evenodd" clip-rule="evenodd" d="M0.349314 21.9997C0.156393 21.9997 0 21.8444 0 21.6527V9.26782C0 9.17579 0.0368022 9.08752 0.102311 9.02244L8.6868 0.494219C8.75231 0.429139 8.84116 0.392578 8.93381 0.392578H9.04396C9.15658 0.392578 9.26229 0.446516 9.32789 0.537452L19.6821 14.8903C19.7762 15.0207 19.768 15.1981 19.6624 15.3194L15.8612 19.6873C15.7119 19.8588 15.44 19.8444 15.3099 19.6582L5.8712 6.14315C5.67609 5.86378 5.23489 6.00094 5.23489 6.34097V17.3507C5.23489 17.4428 5.19809 17.531 5.13258 17.5961L0.802224 21.8981C0.736715 21.9632 0.647865 21.9997 0.555222 21.9997H0.349314Z" fill="white"/>
    <path fill-rule="evenodd" clip-rule="evenodd" d="M29.8893 4.84151C30.0745 4.61468 29.9121 4.27586 29.618 4.27586H23.9742C23.663 4.27586 23.5071 3.90207 23.7272 3.68345L27.3326 0.101641C27.3981 0.0365613 27.487 0 27.5796 0H39.6509C39.8438 0 40.0002 0.155368 40.0002 0.347024V16.8809C40.0002 16.973 39.9634 17.0612 39.8979 17.1263L35.6301 21.3661C35.4101 21.5847 35.0338 21.4299 35.0338 21.1207V6.49469C35.0338 6.16796 34.6208 6.02228 34.4134 6.27586L21.6585 21.8718C21.5922 21.9529 21.4926 22 21.3874 22H16.611C16.3169 22 16.1545 21.6612 16.3397 21.4343L29.8893 4.84151Z" fill="white"/>
  </svg>

</svg>
