<svg width="160" height="25" viewBox="0 0 160 25" fill="none" xmlns="http://www.w3.org/2000/svg">
<g clip-path="url(#clip0_193_311)">
<path fill-rule="evenodd" clip-rule="evenodd" d="M35.4939 24.7988V0H55.678V4.72692H41.6936V9.07513H55.678V13.8021H41.6936V20.0649H55.678V24.7918H35.4939V24.7988ZM84.6076 0L74.1509 24.7988H67.6566L57.796 0H64.2552L70.9879 16.8037L78.3097 0H84.6076ZM110.465 24.7988H102.87L95.962 15.7026H93.7318V24.7988H87.5391V0H97.512C98.8865 0 100.086 0.0841589 101.11 0.25949C102.134 0.434821 103.073 0.792496 103.943 1.33252C104.834 1.90059 105.535 2.61594 106.061 3.48558C106.587 4.35522 106.847 5.46331 106.847 6.80985C106.847 8.71044 106.419 10.2463 105.563 11.4316C104.708 12.6168 103.564 13.5566 102.134 14.2509L110.479 24.7918L110.465 24.7988ZM100.436 6.85193C100.436 6.22776 100.317 5.69475 100.079 5.2459C99.8403 4.79705 99.4406 4.44639 98.8866 4.20794C98.5008 4.03962 98.066 3.93443 97.5891 3.89235C97.1122 3.85027 96.5161 3.82221 95.8077 3.82221H93.7248V10.4988H95.5062C96.3758 10.4988 97.1052 10.4427 97.7153 10.3375C98.3185 10.2323 98.8304 10.0079 99.2583 9.66424C99.658 9.35566 99.9526 8.98396 100.149 8.54914C100.345 8.11432 100.443 7.54624 100.443 6.85193H100.436ZM112.317 24.7988L120.698 0H127.494L135.867 24.7988H129.457L127.907 19.7353H120.116L118.566 24.7988H112.324H112.317ZM126.54 15.2398L124.008 7.06233L121.476 15.2398H126.54ZM160 24.7988H139.072V20.149L152.405 4.72692H139.072V0H160V4.72692L146.682 20.0649H160V24.7918V24.7988Z" fill="black"/>
<path d="M26.5381 0H0V6.52231H26.5381V0Z" fill="black"/>
<path d="M26.5381 9.13818H0V15.6605H26.5381V9.13818Z" fill="black"/>
<path d="M26.5381 18.2766H0V24.7989H26.5381V18.2766Z" fill="black"/>
</g>
<defs>
<clipPath id="clip0_193_311">
<rect width="160" height="24.7988" fill="white"/>
</clipPath>
</defs>
</svg>
