<svg width="160" height="33" viewBox="0 0 160 33" fill="none" xmlns="http://www.w3.org/2000/svg">
<g clip-path="url(#clip0_194_324)">
<path d="M31.7001 0.857666L20.0555 11.5581L8.40481 0.857666L0 32.7429H3.76427L10.4289 7.45439L20.0555 16.2788L29.6699 7.44822L36.353 32.7429L40.1111 32.7491L31.7001 0.857666Z" fill="black"/>
<path d="M20.0555 18.161L11.373 10.3362L5.72046 32.7429H9.46622L13.4588 16.8898L20.0555 22.8571L26.6399 16.9145L30.6325 32.7429H34.3845L28.7257 10.3301L20.0555 18.161Z" fill="black"/>
<path d="M26.6955 23.5297L25.8501 19.6235L16.5505 27.7198L17.6551 22.6164L14.2425 19.5557L11.4163 32.743H15.4644L19.6791 29.2811L23.5668 32.7491L28.6208 32.743L22.3203 27.1151L26.6955 23.5297Z" fill="black"/>
<path d="M47.6828 1.9563H49.7439L51.0398 6.30681L52.3357 1.9563H54.3968L55.4705 9.0899H53.4958L52.9466 4.95537L51.7063 9.0899H50.3795L49.1391 4.95537L48.5899 9.0899H46.6152L47.689 1.9563H47.6828Z" fill="black"/>
<path d="M58.5684 1.9563H61.0738L63.6903 9.0899H61.4811L61.0738 7.85571H58.5684L58.1611 9.0899H55.9519L58.5684 1.9563ZM58.9757 6.28829H60.6603L59.8211 3.65948L58.9818 6.28829H58.9757Z" fill="black"/>
<path d="M64.4121 1.9563H68.8305V3.66565H66.4732V9.0899H64.4121V1.9563Z" fill="black"/>
<path d="M69.6453 1.9563H71.7064V4.52341H74.2118V1.9563H76.2728V9.0899H74.2118V6.23893H71.7064V9.0899H69.6453V1.9563Z" fill="black"/>
<path d="M79.6235 1.9563V6.23276L82.4745 1.9563H84.4924V9.0899H82.5053V4.80727L79.6544 9.08373H77.6365V1.9563H79.6235Z" fill="black"/>
<path d="M86.9115 3.66565H85.2947V1.9563H90.5955V3.66565H88.9787V9.0899H86.9176V3.66565H86.9115Z" fill="black"/>
<path d="M91.0273 5.52288C91.0273 3.61606 92.2924 1.75244 94.9829 1.75244C97.6734 1.75244 98.9385 3.61606 98.9385 5.52288C98.9385 7.4297 97.6796 9.29332 94.9829 9.29332C92.2862 9.29332 91.0273 7.4297 91.0273 5.52288ZM96.8095 5.52288C96.8095 4.14676 95.9394 3.46796 94.9829 3.46796C94.0264 3.46796 93.1501 4.15293 93.1501 5.52288C93.1501 6.89283 94.0202 7.5778 94.9829 7.5778C95.9456 7.5778 96.8095 6.89283 96.8095 5.52288Z" fill="black"/>
<path d="M99.9507 1.9563H104.369V3.66565H102.012V9.0899H99.9507V1.9563Z" fill="black"/>
<path d="M104.844 5.52288C104.844 3.61606 106.103 1.75244 108.8 1.75244C111.497 1.75244 112.755 3.61606 112.755 5.52288C112.755 7.4297 111.497 9.29332 108.8 9.29332C106.103 9.29332 104.844 7.4297 104.844 5.52288ZM110.626 5.52288C110.626 4.14676 109.756 3.46796 108.794 3.46796C107.831 3.46796 106.961 4.15293 106.961 5.52288C106.961 6.89283 107.837 7.5778 108.794 7.5778C109.75 7.5778 110.626 6.89283 110.626 5.52288Z" fill="black"/>
<path d="M113.767 1.9563H116.871C118.963 1.9563 119.556 3.36327 119.556 4.33828C119.556 5.31329 118.957 6.7326 116.871 6.7326H115.828V9.08373H113.767V1.9563ZM115.828 5.16519H116.415C117.328 5.16519 117.427 4.64683 117.427 4.33828C117.427 3.98037 117.303 3.52372 116.415 3.52372H115.828V5.16519Z" fill="black"/>
<path d="M126.011 8.76262C125.35 9.20076 124.653 9.29332 124.024 9.29332C121.839 9.29332 120.259 7.80613 120.259 5.52288C120.259 3.23964 121.993 1.75244 123.993 1.75244C124.647 1.75244 125.393 1.91289 126.011 2.32017V4.38743C125.634 3.96164 125.054 3.52967 124.264 3.52967C123.129 3.52967 122.382 4.40594 122.382 5.57842C122.382 6.65833 123.086 7.50375 124.264 7.50375C125.029 7.50375 125.634 7.10881 126.011 6.73239V8.76262Z" fill="black"/>
<path d="M127.195 1.9563H129.256V4.9492L131.478 1.9563H133.897L131.102 5.41202L133.971 9.0899H131.392L129.256 6.02294V9.0899H127.195V1.9563Z" fill="black"/>
<path d="M136.68 1.9563V6.23276L139.531 1.9563H141.549V9.0899H139.562V4.80727L136.711 9.08373H134.693V1.9563H136.68Z" fill="black"/>
<path d="M144.906 1.95619V6.23264L147.757 1.95619H149.775V9.08979H147.788V4.80716L144.937 9.08362H142.919V1.95619H144.906ZM148.559 0.425794C148.158 1.25887 147.22 1.56742 146.35 1.56742C145.48 1.56742 144.542 1.25887 144.141 0.425794L145.319 0C145.511 0.487504 145.974 0.598581 146.35 0.598581C146.726 0.598581 147.189 0.487504 147.381 0L148.559 0.425794Z" fill="black"/>
<path d="M47.6828 13.7734H49.7439L51.0398 18.1239L52.3357 13.7734H54.3968L55.4705 20.907H53.4958L52.9466 16.7725L51.7063 20.907H50.3795L49.1391 16.7725L48.5899 20.907H46.6152L47.689 13.7734H47.6828Z" fill="black"/>
<path d="M56.353 13.7735H60.7714V15.4829H58.4141V16.4825H60.5493V18.05H58.4141V19.1916H60.7714V20.9009H56.353V13.7673V13.7735Z" fill="black"/>
<path d="M63.067 15.4828H61.4502V13.7734H66.751V15.4828H65.1342V20.9009H63.0731V15.4828H63.067Z" fill="black"/>
<path d="M68.9663 13.7734H71.4717L74.0882 20.907H71.879L71.4717 19.6729H68.9663L68.559 20.907H66.3499L68.9663 13.7734ZM69.3736 18.1054H71.0583L70.219 15.4766L69.3798 18.1054H69.3736Z" fill="black"/>
<path d="M81.5489 13.7734V20.907H79.4878V15.489H78.013V18.3029C78.013 19.3334 77.9081 21.0058 75.341 21.0058C75.0386 21.0058 74.8041 20.9934 74.4771 20.9132V19.2039C74.6375 19.2471 74.7794 19.2779 74.9275 19.2779C75.8347 19.2779 75.9457 18.7287 75.9457 17.7167V13.7858H81.5428L81.5489 13.7734Z" fill="black"/>
<path d="M89.3737 13.7734V20.907H87.3126V15.489H85.8377V18.3029C85.8377 19.3334 85.7328 21.0058 83.1657 21.0058C82.8633 21.0058 82.6288 20.9934 82.3018 20.9132V19.2039C82.4622 19.2471 82.6041 19.2779 82.7522 19.2779C83.6594 19.2779 83.7704 18.7287 83.7704 17.7167V13.7858H89.3675L89.3737 13.7734Z" fill="black"/>
<path d="M92.5578 13.7734L93.9956 16.7663L95.1743 13.7734H97.4143L94.1005 20.907H91.8914L92.891 18.9385L90.1265 13.7734H92.5578Z" fill="black"/>
<path d="M98.1301 13.7735H101.234C103.326 13.7735 103.918 15.1805 103.918 16.1555C103.918 17.1305 103.32 18.5498 101.234 18.5498H100.191V20.9009H98.1301V13.7673V13.7735ZM100.191 16.9824H100.777C101.691 16.9824 101.789 16.464 101.789 16.1555C101.789 15.7976 101.666 15.3409 100.777 15.3409H100.191V16.9824Z" fill="black"/>
<path d="M104.813 13.7735H109.232V15.4829H106.874V20.9009H104.813V13.7673V13.7735Z" fill="black"/>
<path d="M112.04 13.7734V18.0499L114.891 13.7734H116.908V20.907H114.921V16.6306L112.07 20.907H110.052V13.7734H112.04Z" fill="black"/>
<path d="M121.888 18.1239C121.129 18.2289 120.975 18.2289 120.512 18.2289C118.019 18.2289 117.914 17.0255 117.914 15.8469V13.7796H119.975V15.563C119.975 16.1122 119.963 16.6306 121.111 16.6306C121.277 16.6306 121.487 16.5997 121.888 16.5565V13.7734H123.949V20.907H121.888V18.1239Z" fill="black"/>
<path d="M125.313 13.7735H129.732V15.4829H127.374V16.4825H129.509V18.05H127.374V19.1916H129.732V20.9009H125.313V13.7673V13.7735Z" fill="black"/>
<path d="M136.236 20.58C135.575 21.0181 134.878 21.1107 134.249 21.1107C132.058 21.1107 130.484 19.6235 130.484 17.3403C130.484 15.057 132.218 13.5698 134.218 13.5698C134.872 13.5698 135.619 13.7303 136.236 14.1376V16.2048C135.859 15.779 135.279 15.3471 134.489 15.3471C133.354 15.3471 132.607 16.2233 132.607 17.3958C132.607 18.4757 133.311 19.3211 134.489 19.3211C135.255 19.3211 135.859 18.9262 136.236 18.5498V20.58Z" fill="black"/>
<path d="M137.421 13.7734H139.482V16.7663L141.703 13.7734H144.122L141.327 17.2292L144.196 20.907H141.617L139.482 17.8401V20.907H137.421V13.7734Z" fill="black"/>
<path d="M146.905 13.7734V18.0499L149.756 13.7734H151.774V20.907H149.787V16.6306L146.936 20.907H144.918V13.7734H146.905Z" fill="black"/>
<path d="M155.125 13.7736V18.05L157.976 13.7736H159.994V20.9072H158.007V16.6307L155.156 20.9072H153.138V13.7736H155.125ZM158.778 12.2432C158.377 13.0763 157.439 13.3848 156.569 13.3848C155.699 13.3848 154.761 13.0763 154.36 12.2432L155.538 11.8174C155.73 12.3049 156.193 12.416 156.569 12.416C156.945 12.416 157.408 12.3049 157.6 11.8174L158.778 12.2432Z" fill="black"/>
<path d="M47.1274 25.5908H49.1885V28.5837L51.4101 25.5908H53.8291L51.0336 29.0465L53.9031 32.7244H51.3237L49.1885 29.6575V32.7244H47.1274V25.5908Z" fill="black"/>
<path d="M53.7612 29.1576C53.7612 27.2508 55.0263 25.3872 57.7168 25.3872C60.4073 25.3872 61.6724 27.2508 61.6724 29.1576C61.6724 31.0645 60.4073 32.9281 57.7168 32.9281C55.0263 32.9281 53.7612 31.0645 53.7612 29.1576ZM59.5434 29.1576C59.5434 27.7815 58.6733 27.1027 57.7106 27.1027C56.748 27.1027 55.8779 27.7877 55.8779 29.1576C55.8779 30.5276 56.748 31.2126 57.7106 31.2126C58.6733 31.2126 59.5434 30.5276 59.5434 29.1576Z" fill="black"/>
<path d="M63.1843 25.5908H65.2454L66.5413 29.9413L67.8372 25.5908H69.8982L70.972 32.7244H68.9973L68.4481 28.5899L67.2077 32.7244H65.881L64.6406 28.5899L64.0914 32.7244H62.1167L63.1904 25.5908H63.1843Z" fill="black"/>
<path d="M71.8542 25.5909H77.2908V27.3002H73.9153V28.3678H75.0014C75.5568 28.3678 77.8956 28.3555 77.8956 30.5091C77.8956 32.6628 75.5383 32.7183 75.0014 32.7183H71.8542V25.5847V25.5909ZM74.7978 31.299C75.4396 31.299 75.8283 31.1139 75.8283 30.5461C75.8283 29.9784 75.4519 29.7995 74.7978 29.7995H73.9153V31.299H74.7978Z" fill="black"/>
<path d="M80.8454 25.5908V29.8673L83.6964 25.5908H85.7143V32.7244H83.7273V28.448L80.8763 32.7244H78.8584V25.5908H80.8454Z" fill="black"/>
<path d="M87.0842 25.5908H89.1453V28.1579H91.6507V25.5908H93.7118V32.7244H91.6507V29.8734H89.1453V32.7244H87.0842V25.5908Z" fill="black"/>
<path d="M97.0503 25.5908H99.5557L102.172 32.7244H99.963L99.5557 31.4902H97.0503L96.643 32.7244H94.4338L97.0503 25.5908ZM97.4638 29.9228H99.1484L98.3092 27.294L97.4699 29.9228H97.4638Z" fill="black"/>
<path d="M103.4 27.3002H101.777V25.5908H107.078V27.3002H105.461V32.7182H103.4V27.3002Z" fill="black"/>
</g>
<defs>
<clipPath id="clip0_194_324">
<rect width="160" height="32.9219" fill="white"/>
</clipPath>
</defs>
</svg>
