<svg width="100" height="100" viewBox="0 0 100 100" fill="none" xmlns="http://www.w3.org/2000/svg">
<path fill-rule="evenodd" clip-rule="evenodd" d="M45.0693 2.0551C62.8556 2.40253 77.1743 16.8614 77.1743 34.6462C77.1743 36.9109 76.9418 39.1205 76.5003 41.2539L70.6739 38.5062C70.8595 37.2456 70.9576 35.9555 70.9576 34.6441C70.9576 20.0603 59.0723 8.23267 44.4189 8.23267C43.9902 8.23267 43.5637 8.24326 43.1393 8.26445L45.0715 2.05298L45.0693 2.0551Z" fill="black"/>
<path fill-rule="evenodd" clip-rule="evenodd" d="M18.198 13.5944C32.9495 3.69882 53.0199 7.33842 63.295 21.8862C64.6023 23.7378 65.69 25.6805 66.5622 27.6782L60.207 28.765C59.6311 27.6274 58.9658 26.5173 58.2087 25.4432C49.7826 13.5118 33.2247 10.6369 21.2349 19.022C20.883 19.2677 20.5418 19.5198 20.207 19.7783L18.198 13.5923V13.5944Z" fill="black"/>
<path fill-rule="evenodd" clip-rule="evenodd" d="M2.41846 40.4465C8.04866 23.6531 26.1826 14.3571 43.2417 19.6512C45.4127 20.3249 47.4643 21.2041 49.3816 22.2591L45.0118 26.977C43.858 26.4241 42.6509 25.9475 41.3927 25.5576C27.4025 21.2147 12.5187 28.9833 8.15529 42.9061C8.02733 43.3129 7.91217 43.7217 7.80553 44.1306L2.42272 40.4465H2.41846Z" fill="black"/>
<path fill-rule="evenodd" clip-rule="evenodd" d="M5.97359 70.4851C0.460685 53.6536 9.4818 35.445 26.3596 29.6043C28.5093 28.8607 30.6825 28.3544 32.8535 28.0684L32.1604 34.4472C30.9021 34.6866 29.6481 35.0192 28.4027 35.4492C14.5618 40.2392 7.24038 55.2954 12.0538 69.07C12.1945 69.4725 12.3459 69.8708 12.5038 70.2627L5.97359 70.4873V70.4851Z" fill="black"/>
<path fill-rule="evenodd" clip-rule="evenodd" d="M26.8842 92.5811C12.3672 82.3466 8.69267 62.3775 18.7332 47.6687C20.0128 45.796 21.4523 44.0969 23.0241 42.5801L26.2934 48.1115C25.4276 49.05 24.6193 50.0626 23.8771 51.1473C15.6408 63.2101 18.7929 79.6391 30.9128 87.8357C31.2668 88.0751 31.6272 88.3038 31.9876 88.5242L26.8821 92.5811H26.8842Z" fill="black"/>
<path fill-rule="evenodd" clip-rule="evenodd" d="M56.336 97.9744C38.5476 98.1693 23.7918 84.149 23.248 66.3747C23.1776 64.1122 23.3439 61.8962 23.7193 59.748L29.6289 62.3178C29.4817 63.5847 29.4241 64.8748 29.4646 66.1862C29.9125 80.7637 42.1539 92.2227 56.801 91.7778C57.2296 91.7651 57.6562 91.7396 58.0784 91.7079L56.3382 97.9744H56.336Z" fill="black"/>
<path fill-rule="evenodd" clip-rule="evenodd" d="M83.0369 85.4438C68.6522 95.8605 48.4645 92.9455 37.669 78.7748C36.2935 76.9698 35.1376 75.0695 34.1949 73.1035L40.5076 71.79C41.1239 72.9065 41.8298 73.9912 42.6253 75.0377C51.4779 86.6599 68.1297 88.9394 79.8059 80.1285C80.1472 79.87 80.4799 79.6052 80.8062 79.3341L83.0369 85.4459V85.4438Z" fill="black"/>
<path fill-rule="evenodd" clip-rule="evenodd" d="M97.5901 59.3778C92.0985 76.2157 74.0371 85.6558 56.9353 80.4951C54.7579 79.8384 52.6999 78.9761 50.7762 77.9359L55.1077 73.1841C56.2657 73.7265 57.477 74.1947 58.7396 74.5739C72.7639 78.8045 87.5858 70.9194 91.8362 56.9627C91.962 56.5538 92.075 56.145 92.1774 55.7361L97.5879 59.3778H97.5901Z" fill="black"/>
<path fill-rule="evenodd" clip-rule="evenodd" d="M94.2055 30.2502C99.5116 47.1475 90.2687 65.2438 73.3205 70.8811C71.1622 71.5993 68.9827 72.0802 66.8074 72.3387L67.5794 65.9683C68.8398 65.7437 70.1002 65.4281 71.3499 65.0129C85.2484 60.3903 92.7532 45.4251 88.1104 31.5934C87.9739 31.1887 87.8289 30.7905 87.6732 30.3964L94.2055 30.2502Z" fill="black"/>
<path fill-rule="evenodd" clip-rule="evenodd" d="M74.6021 8.49316C88.7288 19.251 91.6655 39.3408 81.0875 53.6725C79.7397 55.4965 78.2383 57.1426 76.6132 58.6022L73.5508 52.9543C74.4507 52.0476 75.2953 51.0667 76.0779 50.0096C84.7536 38.2561 82.2114 21.7233 70.4008 13.0903C70.0553 12.8382 69.7056 12.5946 69.3516 12.3616L74.6043 8.49316H74.6021Z" fill="black"/>
<path fill-rule="evenodd" clip-rule="evenodd" d="M32.6871 44.3701V55.6639H35.2506V46.4632H39.3005V55.6639H41.8639V44.3701H32.6871Z" fill="black"/>
<path fill-rule="evenodd" clip-rule="evenodd" d="M53.8921 55.6639H56.3895L55.7816 44.3701H52.4078L51.2092 48.1241C50.8211 49.3804 50.433 50.8718 50.1301 52.1789H50.0619C49.8081 50.8549 49.4711 49.4482 49.1001 48.1411L47.9868 44.3701H44.5618L43.8367 55.6639H46.2146L46.4342 51.3739C46.5025 49.9651 46.5686 48.2237 46.6198 46.6984H46.6539C46.9418 48.1728 47.3108 49.7829 47.684 51.1218L48.8974 55.4796H50.9043L52.2884 51.071C52.7277 49.7469 53.199 48.1389 53.5701 46.6962H53.6042C53.6042 48.3381 53.6554 49.9799 53.7066 51.3379L53.8921 55.6618V55.6639Z" fill="black"/>
<path fill-rule="evenodd" clip-rule="evenodd" d="M67.3214 55.6639L63.9476 49.8825L67.153 44.3701H64.2184L63.2566 46.4314C62.9708 47.086 62.7512 47.5881 62.4803 48.3084H62.4462C62.1754 47.6708 61.9237 47.1178 61.5867 46.4314L60.5908 44.3701H57.6392L60.8105 49.9503L57.5198 55.6639H60.4543L61.382 53.6195C61.7531 52.8314 62.041 52.2446 62.2756 51.5921H62.3097C62.6296 52.2446 62.9005 52.8314 63.3227 53.6195L64.3507 55.6639H67.3193H67.3214Z" fill="black"/>
</svg>
