<svg width="160" height="61" viewBox="0 0 160 61" fill="none" xmlns="http://www.w3.org/2000/svg">
<g clip-path="url(#clip0_176_92)">
<mask id="mask0_176_92" style="mask-type:luminance" maskUnits="userSpaceOnUse" x="31" y="33" width="21" height="14">
<path d="M40.465 34.6475C40.2114 34.8991 31.7052 43.2501 31.1083 43.8495C32.2663 44.678 37.2377 47.7577 43.8851 45.4868C44.3907 45.3045 45.283 45.0786 45.8051 44.8289L46.3353 44.2623C47.943 42.4015 50.0517 39.893 51.238 34.6475C47.6692 33.1418 42.9594 32.6006 40.465 34.6475Z" fill="white"/>
</mask>
<g mask="url(#mask0_176_92)">
<path d="M58.7583 41.3167L39.6625 57.6702L23.5879 39.0412L42.6842 22.6877L58.7583 41.3167Z" fill="black"/>
</g>
<mask id="mask1_176_92" style="mask-type:luminance" maskUnits="userSpaceOnUse" x="17" y="9" width="34" height="17">
<path d="M40.4649 23.9829C42.8432 26.355 48.3644 26.5551 50.9393 24.5663C50.3188 21.9 47.8475 17.2148 45.1936 14.9543L44.4575 14.2804C42.4584 12.6108 40.7829 11.5283 38.2114 10.4931L36.8496 10.0165C36.8496 10.0165 34.6869 9.46078 34.6845 9.46078C33.2724 9.17071 31.6703 9.04419 30.2197 9.04419C28.7747 9.04419 27.3231 9.19368 25.9092 9.49124C25.9092 9.49124 23.6467 10.0986 23.6448 10.0995L22.3588 10.5601C20.4542 11.3263 18.7548 12.4491 17.1583 13.7185C24.9459 11.4092 30.477 15.9308 30.565 16.0039C30.564 16.0063 40.1959 23.7153 40.4649 23.9829Z" fill="white"/>
</mask>
<g mask="url(#mask1_176_92)">
<path d="M35.7715 -7.6936L59.6807 18.6946L32.3246 43.2955L8.41541 16.9069L35.7715 -7.6936Z" fill="black"/>
</g>
<mask id="mask2_176_92" style="mask-type:luminance" maskUnits="userSpaceOnUse" x="14" y="31" width="30" height="21">
<path d="M15.5426 45.3804C17.5253 47.3041 19.8179 48.8078 22.3664 49.8336L23.6557 50.2924L25.9186 50.9048C27.3331 51.1996 28.786 51.3505 30.2357 51.3505C31.6831 51.3505 33.1337 51.2535 34.5463 50.9587C34.5463 50.9587 36.8577 50.3809 36.8596 50.3786L38.3888 49.8336C40.2928 49.066 42.1993 47.9475 43.7957 46.6714C36.0063 48.9826 29.985 44.4657 29.9196 44.4146L29.9065 44.4038C29.9065 44.4038 17.1965 31.743 16.5257 31.0767C15.9114 31.9314 14.0619 34.8593 14.0619 39.0256C14.0619 40.4113 14.2689 41.9352 14.7971 43.5552C14.9904 44.1302 15.2312 44.7131 15.5111 45.3059L15.5426 45.3804Z" fill="white"/>
</mask>
<g mask="url(#mask2_176_92)">
<path d="M30.9178 66.0281L3.97656 42.5701L26.9379 16.397L53.8791 39.8559L30.9178 66.0281Z" fill="black"/>
</g>
<mask id="mask3_176_92" style="mask-type:luminance" maskUnits="userSpaceOnUse" x="8" y="14" width="22" height="30">
<path d="M14.989 15.5653C13.0534 17.5438 11.5477 19.832 10.5204 22.3681L10.0548 23.6488L9.44233 25.9065C9.14552 27.3095 8.99829 28.7547 8.99829 30.1999C8.99829 31.6451 9.14552 33.094 9.44233 34.4998L10.0548 36.7552L10.5204 38.0369C11.2914 39.9404 12.4151 41.6353 13.6959 43.2197C13.2251 41.6484 13.0078 40.1564 13.0078 38.7965C13.0078 33.4459 15.9142 29.9403 15.9537 29.893L15.9688 29.8747C15.9688 29.8747 28.6797 17.2139 29.3505 16.5475C28.1891 15.7204 23.2182 12.637 16.5624 14.9102C16.0652 15.0915 15.5492 15.3038 15.0323 15.5508L14.989 15.5653Z" fill="white"/>
</mask>
<g mask="url(#mask3_176_92)">
<path d="M-6.3501 27.7691L19.2802 2.49902L44.6992 28.0868L19.069 53.3565L-6.3501 27.7691Z" fill="black"/>
</g>
<path d="M47.8136 14.9912C51.3833 19.0657 53.555 24.3863 53.555 30.198C53.555 36.0134 51.3833 41.3321 47.8136 45.4019C47.0831 46.2524 46.3004 47.0256 45.4528 47.7543C45.0746 48.0608 44.6936 48.3677 44.3159 48.6733C44.0563 48.8626 43.7966 49.0514 43.5111 49.2408C42.1202 50.207 40.6094 51.029 39.0007 51.6888C36.3069 52.7717 33.3543 53.3622 30.2851 53.3622C27.166 53.3622 24.1641 52.7478 21.4251 51.6166C19.8903 50.9577 18.4015 50.1588 17.0295 49.1939C16.7736 49.0046 16.5121 48.8162 16.2533 48.6283L16.227 48.6044C15.8267 48.2979 15.449 47.9952 15.0704 47.6601C14.218 46.9333 13.417 46.1325 12.6855 45.2838C9.1869 41.2398 7.06409 35.9422 7.06409 30.198C7.06409 24.4285 9.1869 19.1618 12.6855 15.0863C13.4175 14.2386 14.2185 13.4406 15.0704 12.7124C15.449 12.3801 15.8267 12.0741 16.227 11.7686C16.227 11.7686 16.2533 11.7686 16.2533 11.7456C16.5125 11.5535 16.7736 11.3693 17.0295 11.1828C18.4015 10.2601 19.8903 9.43728 21.4251 8.80419C24.1641 7.67485 27.166 7.03707 30.2851 7.03707C33.3543 7.03707 36.3078 7.6486 39.0007 8.72968C40.6094 9.37027 42.1202 10.1931 43.5111 11.1557C43.7962 11.3225 44.0563 11.5348 44.3159 11.7269C44.6936 12.0071 45.0746 12.307 45.4528 12.6182L47.8136 14.9912ZM55.1407 28.525C55.1407 28.4829 55.1407 28.4318 55.1407 28.3849C56.2479 26.01 58.3275 25.9632 60.6187 28.1258C60.6187 24.5044 59.8388 21.6314 58.0885 20.0076C55.6139 17.8183 53.0245 19.2443 50.9087 16.2672C50.6589 13.6707 52.4544 12.5694 55.5386 13.2981C53.6976 10.1936 51.5701 8.09472 49.2563 7.55676C48.736 7.44054 48.2652 7.41196 47.8136 7.46397C46.9411 7.50615 46.1847 7.76669 45.4528 7.98131C45.0746 8.09472 44.6936 8.21374 44.3159 8.28872C44.0563 8.33183 43.7966 8.37682 43.5111 8.37682C42.8197 8.42509 42.0567 8.30512 41.1588 7.88712C39.6733 5.77746 40.6202 3.99722 43.5111 3.07968C43.584 3.06328 43.6367 3.04032 43.6795 3.00939C43.6358 2.98924 43.584 2.963 43.5111 2.94613C41.9321 2.04594 40.3958 1.41098 39.0007 1.10591C37.6521 0.823342 36.424 0.801318 35.3421 1.12981C32.8378 1.97752 32.2946 4.04876 30.2851 5.01035C29.858 5.22731 29.3194 5.38851 28.6788 5.46021C28.6303 5.46021 28.5833 5.46021 28.5372 5.46021C26.1519 4.35242 26.1044 2.28305 28.2743 0C25.4901 0 23.1255 0.473293 21.4256 1.45971C20.9308 1.76524 20.482 2.1181 20.101 2.51923C18.1189 4.78213 19.1316 7.12939 17.0304 9.13081C16.8432 9.32106 16.6132 9.49257 16.3695 9.67439C16.3338 9.67439 16.2896 9.67439 16.2543 9.67439H16.2279C15.8041 9.69923 15.4269 9.67439 15.0713 9.60504C13.3925 9.20297 12.781 7.55676 13.3925 5.06236C13.162 5.20154 12.924 5.34353 12.6865 5.48458C9.94655 7.20343 8.07822 9.15471 7.58292 11.2723C6.9211 14.5254 9.49593 16.054 7.89196 19.4172C5.74046 20.9467 3.898 19.9584 2.99676 16.927C1.18064 20.0789 0.420515 22.9706 1.10914 25.2317C2.1689 28.3156 5.05465 28.3849 5.47799 31.891C5.47799 31.9435 5.47799 31.9829 5.47799 32.0358C4.3933 34.4103 2.29073 34.4787 0 32.317C0 35.9173 0.801049 38.8133 2.54896 40.438C5.02502 42.5997 7.61537 41.1784 9.73442 44.1564C9.98136 46.7492 8.18735 47.8495 5.09981 47.1198C6.94697 50.2511 9.07119 52.3682 11.3854 52.8893C11.8567 52.9854 12.2834 53.0065 12.6855 53.0065C13.5604 52.9587 14.314 52.7244 15.0704 52.4891C15.449 52.3678 15.8267 52.2525 16.227 52.1545H16.2533C16.5125 52.1124 16.7736 52.0608 17.0295 52.0426C17.7816 51.9971 18.577 52.1105 19.5088 52.5463C20.9872 54.6724 20.0121 56.476 17.0295 57.3861C17.0295 57.3861 17.0083 57.4062 16.9834 57.4062C17.0083 57.4343 17.0295 57.4343 17.0295 57.4498C18.5902 58.3242 20.0573 58.9325 21.4251 59.2666C22.864 59.596 24.1641 59.6218 25.3222 59.2666C27.8011 58.4433 28.3509 56.3954 30.2851 55.4292C30.7545 55.193 31.2983 55.0299 31.9855 54.9385C32.0344 54.9385 32.0777 54.9385 32.1257 54.9385C34.5147 56.0416 34.5641 58.1162 32.3886 60.3969C35.0547 60.3969 37.3266 59.9742 39.0016 59.0581C39.5938 58.7249 40.1145 58.3467 40.5633 57.8767C42.52 55.641 41.5553 53.3387 43.5121 51.3598C43.7519 51.1246 44.0121 50.9113 44.3169 50.6981C44.2952 50.722 44.2722 50.722 44.2722 50.722C44.2722 50.6981 44.2952 50.6981 44.3169 50.678C44.3169 50.678 44.3413 50.655 44.363 50.655C44.3484 50.6672 44.3352 50.6827 44.3169 50.6981C44.7186 50.678 45.1033 50.6981 45.4538 50.7459C47.221 51.0782 47.8851 52.7492 47.2699 55.3167C47.458 55.2188 47.6481 55.1007 47.8136 54.9807C50.6509 53.2408 52.5644 51.2417 53.063 49.0772C53.723 45.8035 51.1434 44.3007 52.7295 40.93C52.7295 40.9572 52.7032 40.982 52.7032 41.0012C54.8542 39.4965 56.6934 40.4858 57.5951 43.497C59.4136 40.3658 60.1723 37.4712 59.4822 35.2121C58.4441 32.1286 55.5396 32.0349 55.1407 28.525Z" fill="black"/>
<path d="M82.8627 25.6113C82.4398 24.0649 81.5932 21.078 77.1834 21.078C74.6081 21.078 70.7275 22.9055 70.7275 30.1099C70.7275 34.6788 72.6678 38.931 77.1834 38.931C80.1468 38.931 82.2282 37.139 82.8627 34.0106H88.1892C87.1309 39.5636 83.4973 43.4296 77.0771 43.4296C70.2689 43.4296 65.4005 38.826 65.4005 30.0396C65.4005 21.1131 70.5507 16.5793 77.1477 16.5793C84.8025 16.5793 87.907 21.8512 88.1892 25.6113H82.8627Z" fill="black"/>
<path d="M94.1522 17.2471L101.066 31.5157L106.393 17.2471H112.425L103.007 38.8255C101.278 42.7613 99.4787 43.4291 96.9744 43.4291C95.9161 43.4291 94.258 43.2533 93.6936 43.1128V38.579C94.1522 38.7899 95.1042 39.0007 95.775 39.0007C97.2209 39.0007 97.6447 38.6141 98.5267 36.9974L88.1196 17.2466L94.1522 17.2471Z" fill="black"/>
<path d="M129.535 27.1225C128.618 22.4482 125.689 21.078 123.503 21.078C119.093 21.078 118.211 24.0653 117.788 25.6113H112.462C112.744 21.8512 115.848 16.5793 123.503 16.5793C130.1 16.5793 135.321 21.1126 135.321 30.0396C135.321 38.826 130.382 43.4296 123.574 43.4296C117.154 43.4296 113.52 39.5636 112.462 34.0106H117.788C118.423 37.139 120.54 38.931 123.467 38.931C127.524 38.931 129.358 35.4867 129.747 31.5157H122.339V27.1225H129.535Z" fill="black"/>
<path d="M142.941 27.6145L152.712 17.2471H159.627L149.185 27.6848L160.227 42.7618H153.347L145.446 31.5508L142.941 34.1165V42.7618H137.614V17.2471H142.941V27.6145Z" fill="black"/>
</g>
<defs>
<clipPath id="clip0_176_92">
<rect width="160" height="60.3974" fill="white"/>
</clipPath>
</defs>
</svg>
