<svg xmlns="http://www.w3.org/2000/svg" xmlns:xlink="http://www.w3.org/1999/xlink">

  <symbol id="arrow" viewBox="0 0 29 29" fill="none" xmlns="http://www.w3.org/2000/svg">
    <path d="M28.5 4.20812V28.5H21.2431V14.0972V12.6488L20.3495 13.7888L8.98518 28.2881L3.69661 23.9264L4.21809 23.2691L4.21841 23.2687L8.0448 18.4354L15.6976 8.76869L16.3391 7.95833H15.3056H0.5V0.5H24.7661L28.5 4.20812Z" fill="white" stroke="white"/>
  </symbol>

  <symbol id="arrow2" viewBox="0 0 20 20" fill="none" xmlns="http://www.w3.org/2000/svg">
    <path d="M19.5 2.96674V19.5H14.8056V9.72222V8.27376L13.912 9.41378L6.17268 19.2881L2.76558 16.4781L3.03059 16.1441L3.03091 16.1437L5.6698 12.8104L10.9476 6.14369L11.5891 5.33333H10.5556H0.5V0.5H17.0161L19.5 2.96674Z" stroke="white"/>
  </symbol>

  <symbol id="arrow-v" viewBox="0 0 14 8" fill="none" xmlns="http://www.w3.org/2000/svg">
    <path d="M6.9997 5.1714L11.9495 0.22168L13.3637 1.63589L6.9997 7.9999L0.635738 1.63589L2.04996 0.22168L6.9997 5.1714Z" fill="#0072BC"/>
  </symbol>

  <symbol id="arrow-i" width="16" height="16" viewBox="0 0 16 16" fill="none" xmlns="http://www.w3.org/2000/svg">
    <path d="M12.1716 6.9999L6.8076 1.63589L8.2218 0.22168L16 7.9999L8.2218 15.778L6.8076 14.3638L12.1716 8.9999H0V6.9999H12.1716Z" fill="#0072BC"/>
  </symbol>

  <symbol id="download" viewBox="0 0 20 20" fill="none" xmlns="http://www.w3.org/2000/svg">
    <g clip-path="url(#clip0_132_133)">
    <path d="M10.8333 10.0001H13.3333L10 13.3334L6.66667 10.0001H9.16667V6.66675H10.8333V10.0001ZM12.5 3.33341H4.16667V16.6667H15.8333V6.66675H12.5V3.33341ZM2.5 2.49325C2.5 2.03679 2.87291 1.66675 3.33208 1.66675H13.3333L17.4998 5.83342L17.5 17.4938C17.5 17.9575 17.1292 18.3334 16.6722 18.3334H3.32783C2.87063 18.3334 2.5 17.954 2.5 17.5069V2.49325Z" fill="#0072BC"/>
    </g>
    <defs>
    <clipPath id="clip0_132_133">
    <rect width="20" height="20" fill="white"/>
    </clipPath>
    </defs>
  </symbol>

  <symbol id="data" viewBox="0 0 13 13" fill="none" xmlns="http://www.w3.org/2000/svg">
    <path d="M4.87501 0.541504V1.62484H8.12501V0.541504H9.20834V1.62484H11.375C11.6742 1.62484 11.9167 1.86735 11.9167 2.1665V10.8332C11.9167 11.1323 11.6742 11.3748 11.375 11.3748H1.62501C1.32586 11.3748 1.08334 11.1323 1.08334 10.8332V2.1665C1.08334 1.86735 1.32586 1.62484 1.62501 1.62484H3.79168V0.541504H4.87501ZM10.8333 5.95817H2.16668V10.2915H10.8333V5.95817ZM3.79168 2.70817H2.16668V4.87484H10.8333V2.70817H9.20834V3.7915H8.12501V2.70817H4.87501V3.7915H3.79168V2.70817Z" fill="#7C7C7C"/>
  </symbol>

  <symbol id="link" viewBox="0 0 13 13" fill="none" xmlns="http://www.w3.org/2000/svg">
    <g clip-path="url(#clip0_206_556)">
    <path d="M7.04167 6.50016H8.66667L6.5 8.66683L4.33333 6.50016H5.95833V4.3335H7.04167V6.50016ZM8.125 2.16683H2.70833V10.8335H10.2917V4.3335H8.125V2.16683ZM1.625 1.62072C1.625 1.32402 1.86739 1.0835 2.16585 1.0835H8.66667L11.3748 3.79183L11.375 11.3711C11.375 11.6725 11.134 11.9168 10.8369 11.9168H2.16309C1.86591 11.9168 1.625 11.6702 1.625 11.3796V1.62072Z" fill="#7C7C7C"/>
    </g>
    <defs>
    <clipPath id="clip0_206_556">
    <rect width="13" height="13" fill="white"/>
    </clipPath>
    </defs>
  </symbol>

  <symbol id="name" viewBox="0 0 13 13" fill="none" xmlns="http://www.w3.org/2000/svg">
    <path d="M10.8333 11.9168H2.16667C1.86751 11.9168 1.625 11.6743 1.625 11.3752V1.62516C1.625 1.32601 1.86751 1.0835 2.16667 1.0835H10.8333C11.1325 1.0835 11.375 1.32601 11.375 1.62516V11.3752C11.375 11.6743 11.1325 11.9168 10.8333 11.9168ZM10.2917 10.8335V2.16683H2.70833V10.8335H10.2917ZM3.79167 3.25016H5.95833V5.41683H3.79167V3.25016ZM3.79167 6.50016H9.20833V7.5835H3.79167V6.50016ZM3.79167 8.66683H9.20833V9.75016H3.79167V8.66683ZM7.04167 3.79183H9.20833V4.87516H7.04167V3.79183Z" fill="#7C7C7C"/>
  </symbol>

  <symbol id="search" viewBox="0 0 16 16" xmlns="http://www.w3.org/2000/svg">
    <path d="M12.0206 11.078L14.8758 13.9332L13.933 14.876L11.0778 12.0208C10.0512 12.8422 8.74931 13.3335 7.33331 13.3335C4.02131 13.3335 1.33331 10.6455 1.33331 7.3335C1.33331 4.0215 4.02131 1.3335 7.33331 1.3335C10.6453 1.3335 13.3333 4.0215 13.3333 7.3335C13.3333 8.7495 12.842 10.0514 12.0206 11.078ZM10.6831 10.5834C11.4983 9.74323 12 8.59723 12 7.3335C12 4.75516 9.91165 2.66683 7.33331 2.66683C4.75498 2.66683 2.66665 4.75516 2.66665 7.3335C2.66665 9.91183 4.75498 12.0002 7.33331 12.0002C8.59705 12.0002 9.74305 11.4985 10.5832 10.6833L10.6831 10.5834Z"/>
  </symbol>

  <symbol id="status" viewBox="0 0 13 13" fill="none" xmlns="http://www.w3.org/2000/svg">
    <path d="M6.50016 11.9168C3.50862 11.9168 1.0835 9.49168 1.0835 6.50016C1.0835 3.50862 3.50862 1.0835 6.50016 1.0835C9.49168 1.0835 11.9168 3.50862 11.9168 6.50016C11.9168 9.49168 9.49168 11.9168 6.50016 11.9168ZM6.50016 10.8335C8.89341 10.8335 10.8335 8.89341 10.8335 6.50016C10.8335 4.10693 8.89341 2.16683 6.50016 2.16683C4.10693 2.16683 2.16683 4.10693 2.16683 6.50016C2.16683 8.89341 4.10693 10.8335 6.50016 10.8335ZM5.9585 8.12516H7.04183V9.2085H5.9585V8.12516ZM7.04183 7.23417V7.5835H5.9585V6.771C5.9585 6.47183 6.201 6.22933 6.50016 6.22933C6.94888 6.22933 7.31266 5.86555 7.31266 5.41683C7.31266 4.9681 6.94888 4.60433 6.50016 4.60433C6.10599 4.60433 5.77736 4.88504 5.70326 5.25745L4.64079 5.04495C4.81361 4.17597 5.58041 3.521 6.50016 3.521C7.5472 3.521 8.396 4.36979 8.396 5.41683C8.396 6.27564 7.82492 7.0011 7.04183 7.23417Z" fill="#7C7C7C"/>
  </symbol>

  <symbol id="podrobno" viewBox="0 0 13 13" fill="none" xmlns="http://www.w3.org/2000/svg">
    <path d="M6.5 11.9168C3.50846 11.9168 1.08334 9.49168 1.08334 6.50016C1.08334 3.50862 3.50846 1.0835 6.5 1.0835C9.49152 1.0835 11.9167 3.50862 11.9167 6.50016C11.9167 9.49168 9.49152 11.9168 6.5 11.9168ZM6.5 10.8335C8.89325 10.8335 10.8333 8.89341 10.8333 6.50016C10.8333 4.10693 8.89325 2.16683 6.5 2.16683C4.10677 2.16683 2.16667 4.10693 2.16667 6.50016C2.16667 8.89341 4.10677 10.8335 6.5 10.8335ZM5.95834 3.79183H7.04167V4.87516H5.95834V3.79183ZM5.95834 5.9585H7.04167V9.2085H5.95834V5.9585Z" fill="#7C7C7C"/>
  </symbol>

  <symbol id="otkrita" viewBox="0 0 13 13" fill="none" xmlns="http://www.w3.org/2000/svg">
    <path d="M4.87516 0.541504V1.62484H8.12516V0.541504H9.2085V1.62484H11.3752C11.6743 1.62484 11.9168 1.86735 11.9168 2.1665V10.8332C11.9168 11.1323 11.6743 11.3748 11.3752 11.3748H1.62516C1.32601 11.3748 1.0835 11.1323 1.0835 10.8332V2.1665C1.0835 1.86735 1.32601 1.62484 1.62516 1.62484H3.79183V0.541504H4.87516ZM10.8335 5.95817H2.16683V10.2915H10.8335V5.95817ZM3.79183 2.70817H2.16683V4.87484H10.8335V2.70817H9.2085V3.7915H8.12516V2.70817H4.87516V3.7915H3.79183V2.70817Z" fill="#7C7C7C"/>
  </symbol>

  <symbol id="nomer" viewBox="0 0 13 13" fill="none" xmlns="http://www.w3.org/2000/svg">
    <path d="M4.21632 7.58333L4.44405 5.41667H2.1665V4.33333H4.55791L4.84257 1.625H5.93185L5.6472 4.33333H7.80791L8.09255 1.625H9.18185L8.8972 4.33333H10.8332V5.41667H8.78334L8.55562 7.58333H10.8332V8.66667H8.44177L8.15712 11.375H7.06783L7.35247 8.66667H5.19176L4.9071 11.375H3.8178L4.10246 8.66667H2.1665V7.58333H4.21632ZM5.30562 7.58333H7.46633L7.69405 5.41667H5.53334L5.30562 7.58333Z" fill="#7C7C7C"/>
  </symbol>

  <symbol id="nazvanie" viewBox="0 0 13 13" fill="none" xmlns="http://www.w3.org/2000/svg">
    <path d="M10.8333 11.9168H2.16667C1.86751 11.9168 1.625 11.6743 1.625 11.3752V1.62516C1.625 1.32601 1.86751 1.0835 2.16667 1.0835H10.8333C11.1325 1.0835 11.375 1.32601 11.375 1.62516V11.3752C11.375 11.6743 11.1325 11.9168 10.8333 11.9168ZM10.2917 10.8335V2.16683H2.70833V10.8335H10.2917ZM3.79167 3.25016H5.95833V5.41683H3.79167V3.25016ZM3.79167 6.50016H9.20833V7.5835H3.79167V6.50016ZM3.79167 8.66683H9.20833V9.75016H3.79167V8.66683ZM7.04167 3.79183H9.20833V4.87516H7.04167V3.79183Z" fill="#7C7C7C"/>
  </symbol>

  <symbol id="dsjt" viewBox="0 0 105 50" fill="none" xmlns="http://www.w3.org/2000/svg">
    <path d="M21.6116 38.375V30.8H22.1866C22.57 30.6833 22.92 30.4833 23.2366 30.2C23.57 29.9 23.87 29.5 24.1366 29C24.4033 28.5 24.645 27.875 24.8616 27.125C25.0783 26.375 25.2616 25.4833 25.4116 24.45C25.5616 23.4 25.6866 22.1917 25.7866 20.825L26.3366 13.75H35.7616V30.8H38.0366V38.375H35.0866L34.8616 34H24.9366L24.6866 38.375H21.6116ZM26.4116 30.8H31.5866V16.925H29.7116L29.4866 21.275C29.4033 22.7083 29.2783 23.925 29.1116 24.925C28.9616 25.925 28.7783 26.7583 28.5616 27.425C28.3616 28.075 28.145 28.6083 27.9116 29.025C27.6783 29.4417 27.4283 29.7833 27.1616 30.05C26.9116 30.3167 26.6616 30.5667 26.4116 30.8ZM45.0456 34.3C43.5123 34.3 42.2956 34.025 41.3956 33.475C40.5123 32.9083 39.8873 32.125 39.5206 31.125C39.1539 30.1083 38.9706 28.9167 38.9706 27.55V20.25C38.9706 18.85 39.1539 17.65 39.5206 16.65C39.8873 15.6333 40.5123 14.85 41.3956 14.3C42.2956 13.75 43.5123 13.475 45.0456 13.475C46.5456 13.475 47.7123 13.725 48.5456 14.225C49.3956 14.7083 49.9956 15.3917 50.3456 16.275C50.6956 17.1583 50.8706 18.175 50.8706 19.325V21.075H46.4956V19.05C46.4956 18.65 46.4706 18.2667 46.4206 17.9C46.3873 17.5333 46.2706 17.2333 46.0706 17C45.8706 16.75 45.5289 16.625 45.0456 16.625C44.5789 16.625 44.2289 16.75 43.9956 17C43.7789 17.25 43.6373 17.5667 43.5706 17.95C43.5206 18.3167 43.4956 18.7083 43.4956 19.125V28.65C43.4956 29.1 43.5289 29.5167 43.5956 29.9C43.6789 30.2667 43.8289 30.5667 44.0456 30.8C44.2789 31.0167 44.6123 31.125 45.0456 31.125C45.5123 31.125 45.8456 31.0083 46.0456 30.775C46.2456 30.525 46.3706 30.2083 46.4206 29.825C46.4706 29.4417 46.4956 29.05 46.4956 28.65V26.525H50.8706V28.275C50.8706 29.425 50.6956 30.4583 50.3456 31.375C50.0123 32.275 49.4206 32.9917 48.5706 33.525C47.7373 34.0417 46.5623 34.3 45.0456 34.3ZM51.2325 34L55.4825 23.825L51.3325 13.75H55.5075L59.0325 23.225H59.2325V13.75H62.7825V23.225H63.0075L66.5325 13.75H70.7075L66.5575 23.825L70.8075 34H66.8075L63.0075 24.175H62.7825V34H59.2325V24.175H59.0325L55.2325 34H51.2325ZM73.5306 34V17.075H70.4806V13.75H81.0556V17.075H78.0306V34H73.5306Z" fill="#0072BC"/>
    <path d="M102.5 25C102.5 30.3821 97.831 36.0002 88.5483 40.4205C79.452 44.7521 66.7099 47.5 52.5 47.5C38.2901 47.5 25.548 44.7521 16.4517 40.4205C7.16902 36.0002 2.5 30.3821 2.5 25C2.5 19.6179 7.16902 13.9998 16.4517 9.57948C25.548 5.24793 38.2901 2.5 52.5 2.5C66.7099 2.5 79.452 5.24793 88.5483 9.57948C97.831 13.9998 102.5 19.6179 102.5 25Z" stroke="#0072BC" stroke-width="5"/>
  </symbol>

  <symbol id="arrow-fill" viewBox="0 0 14 13" fill="none" xmlns="http://www.w3.org/2000/svg">
    <path d="M11.0037 3.41421L2.39712 12.0208L0.98291 10.6066L9.5895 2H2.00373V0H13.0037V11H11.0037V3.41421Z" fill="#0072BC"/>
  </symbol>

  <symbol id="warning" viewBox="0 0 24 24" fill="none" xmlns="http://www.w3.org/2000/svg">
    <path d="M12 22C6.47715 22 2 17.5228 2 12C2 6.47715 6.47715 2 12 2C17.5228 2 22 6.47715 22 12C22 17.5228 17.5228 22 12 22ZM12 20C16.4183 20 20 16.4183 20 12C20 7.58172 16.4183 4 12 4C7.58172 4 4 7.58172 4 12C4 16.4183 7.58172 20 12 20ZM11 15H13V17H11V15ZM11 7H13V13H11V7Z" fill="#0072BC"/>
  </symbol>

</svg>
