<svg width="64" height="56" viewBox="0 0 64 56" fill="none" xmlns="http://www.w3.org/2000/svg">
<path fill-rule="evenodd" clip-rule="evenodd" d="M56.5 5.99294H7.5C5.01472 5.99294 3 8.00292 3 10.4824V48.5176C3 50.9971 5.01472 53.0071 7.5 53.0071H56.5C58.9853 53.0071 61 50.9971 61 48.5176V10.4824C61 8.00292 58.9853 5.99294 56.5 5.99294ZM7.5 3C3.35786 3 0 6.34996 0 10.4824V48.5176C0 52.65 3.35786 56 7.5 56H56.5C60.6421 56 64 52.65 64 48.5176V10.4824C64 6.34996 60.6421 3 56.5 3H7.5Z" fill="#BD897E"/>
<path d="M2 13H63V16H2V13Z" fill="#BD897E"/>
<path d="M7 23.5C7 22.6716 7.68007 22 8.51899 22H15.481C16.3199 22 17 22.6716 17 23.5C17 24.3284 16.3199 25 15.481 25H8.51899C7.68007 25 7 24.3284 7 23.5Z" fill="#BD897E"/>
<path d="M27 23.5C27 22.6716 27.6801 22 28.519 22H35.481C36.3199 22 37 22.6716 37 23.5C37 24.3284 36.3199 25 35.481 25H28.519C27.6801 25 27 24.3284 27 23.5Z" fill="#BD897E"/>
<path d="M47 23.5C47 22.6716 47.6801 22 48.519 22H55.481C56.3199 22 57 22.6716 57 23.5C57 24.3284 56.3199 25 55.481 25H48.519C47.6801 25 47 24.3284 47 23.5Z" fill="#BD897E"/>
<path d="M7 32.5C7 31.6716 7.68007 31 8.51899 31H15.481C16.3199 31 17 31.6716 17 32.5C17 33.3284 16.3199 34 15.481 34H8.51899C7.68007 34 7 33.3284 7 32.5Z" fill="#BD897E"/>
<path d="M27 32.5C27 31.6716 27.6801 31 28.519 31H35.481C36.3199 31 37 31.6716 37 32.5C37 33.3284 36.3199 34 35.481 34H28.519C27.6801 34 27 33.3284 27 32.5Z" fill="#BD897E"/>
<path d="M47 32.5C47 31.6716 47.6801 31 48.519 31H55.481C56.3199 31 57 31.6716 57 32.5C57 33.3284 56.3199 34 55.481 34H48.519C47.6801 34 47 33.3284 47 32.5Z" fill="#BD897E"/>
<path d="M7 41.5C7 40.6716 7.68007 40 8.51899 40H15.481C16.3199 40 17 40.6716 17 41.5C17 42.3284 16.3199 43 15.481 43H8.51899C7.68007 43 7 42.3284 7 41.5Z" fill="#BD897E"/>
<path d="M27 41.5C27 40.6716 27.6801 40 28.519 40H35.481C36.3199 40 37 40.6716 37 41.5C37 42.3284 36.3199 43 35.481 43H28.519C27.6801 43 27 42.3284 27 41.5Z" fill="#BD897E"/>
<path d="M47 41.5C47 40.6716 47.6801 40 48.519 40H55.481C56.3199 40 57 40.6716 57 41.5C57 42.3284 56.3199 43 55.481 43H48.519C47.6801 43 47 42.3284 47 41.5Z" fill="#BD897E"/>
<path d="M14 1.43284C14 0.641502 14.8954 0 16 0C17.1046 0 18 0.641502 18 1.43284V6.56716C18 7.3585 17.1046 8 16 8C14.8954 8 14 7.3585 14 6.56716V1.43284Z" fill="#BD897E"/>
<path d="M46 1.43284C46 0.641502 46.8954 0 48 0C49.1046 0 50 0.641502 50 1.43284V6.56716C50 7.3585 49.1046 8 48 8C46.8954 8 46 7.3585 46 6.56716V1.43284Z" fill="#BD897E"/>
</svg>
