<svg width="64" height="47" viewBox="0 0 64 47" fill="none" xmlns="http://www.w3.org/2000/svg">
<path fill-rule="evenodd" clip-rule="evenodd" d="M56.5 3.01449H7.5C5.01472 3.01449 3 5.03894 3 7.53623V38.686C3 41.1833 5.01472 43.2077 7.5 43.2077H56.5C58.9853 43.2077 61 41.1833 61 38.686V7.53623C61 5.03894 58.9853 3.01449 56.5 3.01449ZM7.5 0C3.35786 0 0 3.37409 0 7.53623V38.686C0 42.8481 3.35786 46.2222 7.5 46.2222H56.5C60.6421 46.2222 64 42.8481 64 38.686V7.53623C64 3.37409 60.6421 0 56.5 0H7.5Z" fill="#BD897E"/>
<path d="M1 8H63V12H1V8Z" fill="#BD897E"/>
<path d="M43.8516 36.1481C43.8516 35.1663 44.5179 34.3704 45.3399 34.3704H53.0299C53.8519 34.3704 54.5182 35.1663 54.5182 36.1481C54.5182 37.13 53.8519 37.9259 53.0299 37.9259H45.3399C44.5179 37.9259 43.8516 37.13 43.8516 36.1481Z" fill="#BD897E"/>
<path d="M11.8516 29.037C11.8516 28.0552 12.5141 27.2592 13.3313 27.2592H53.0385C53.8557 27.2592 54.5182 28.0552 54.5182 29.037C54.5182 30.0189 53.8557 30.8148 53.0385 30.8148H13.3313C12.5141 30.8148 11.8516 30.0189 11.8516 29.037Z" fill="#BD897E"/>
</svg>
