<svg width="64" height="53" viewBox="0 0 64 53" fill="none" xmlns="http://www.w3.org/2000/svg">
<path fill-rule="evenodd" clip-rule="evenodd" d="M56.2312 2.99294H7.76879C5.11271 2.99294 2.95954 5.17042 2.95954 7.85647V45.1435C2.95954 47.8296 5.11271 50.0071 7.76879 50.0071H56.2312C58.8873 50.0071 61.0405 47.8296 61.0405 45.1435V7.85647C61.0405 5.17042 58.8873 2.99294 56.2312 2.99294ZM7.76879 0C3.4782 0 0 3.51746 0 7.85647V45.1435C0 49.4825 3.47821 53 7.76879 53H56.2312C60.5218 53 64 49.4825 64 45.1435V7.85647C64 3.51746 60.5218 0 56.2312 0H7.76879Z" fill="#BD897E"/>
<path fill-rule="evenodd" clip-rule="evenodd" d="M60.0149 20.9353H46.6443C43.5188 20.9353 40.9851 23.4267 40.9851 26.5C40.9851 29.5733 43.5188 32.0647 46.6443 32.0647H60.0149V20.9353ZM46.6443 18C41.8702 18 38 21.8056 38 26.5C38 31.1944 41.8702 35 46.6443 35H63V18H46.6443Z" fill="#BD897E"/>
<path d="M44 27C44 25.8954 44.8488 25 45.8958 25H49.1042C50.1512 25 51 25.8954 51 27C51 28.1046 50.1512 29 49.1042 29H45.8958C44.8488 29 44 28.1046 44 27Z" fill="#BD897E"/>
</svg>
