<svg width="57" height="56" viewBox="0 0 57 56" fill="none" xmlns="http://www.w3.org/2000/svg">
<path fill-rule="evenodd" clip-rule="evenodd" d="M14.385 52.7392L49.1208 34.4539L22.6551 14.3656L14.385 52.7392ZM11.6786 53.0943C11.2955 54.8719 13.1617 56.2885 14.7708 55.4414L50.9139 36.4153C52.3012 35.685 52.46 33.7609 51.2112 32.813L23.6733 11.9109C22.4245 10.963 20.614 11.6334 20.2837 13.166L11.6786 53.0943Z" fill="#BD897E"/>
<path d="M39.1123 41.5404L18.3048 25.7466L19.8591 23.6988L40.6666 39.4926L39.1123 41.5404Z" fill="#BD897E"/>
<path d="M30.4774 2.65711C31.1792 2.76457 31.6609 3.42056 31.5535 4.1223L30.5977 10.3636C30.4903 11.0653 29.8343 11.5471 29.1325 11.4396C28.4308 11.3321 27.949 10.6761 28.0565 9.97441L29.0122 3.73315C29.1197 3.03141 29.7757 2.54965 30.4774 2.65711Z" fill="#BD897E"/>
<path d="M55.503 10.7069C55.9749 11.2373 55.9275 12.0498 55.3971 12.5217L46.7833 20.186C46.253 20.6579 45.4405 20.6105 44.9686 20.0802C44.4966 19.5498 44.544 18.7373 45.0744 18.2654L53.6882 10.6011C54.2185 10.1292 55.031 10.1766 55.503 10.7069Z" fill="#BD897E"/>
<path d="M26.2783 48.2678L15.5877 40.1532L17.1421 38.1054L27.8327 46.22L26.2783 48.2678Z" fill="#BD897E"/>
<path fill-rule="evenodd" clip-rule="evenodd" d="M48.8652 3.91126C48.7111 5.08034 48.3096 6.502 47.3152 7.59807C46.0273 9.01777 44.3491 9.24691 43.1291 9.40998C43.0806 9.41646 43.0324 9.42286 42.9847 9.42921C41.7369 9.59531 40.7548 9.72602 39.7795 10.3409C39.2735 10.6599 38.946 11.2839 38.8505 12.2591C38.7562 13.222 38.9268 14.2426 39.1113 14.8566L39.0957 14.8801C38.4593 15.8361 37.2288 16.1978 36.1763 15.7384L-nan -nanL36.1763 15.7384C35.9043 14.833 35.659 13.4051 35.8005 11.9604C35.9408 10.528 36.5008 8.78518 38.1451 7.74848C39.7059 6.76443 41.3037 6.55697 42.4726 6.40521C42.5585 6.39406 42.642 6.38321 42.7231 6.37238C44.0045 6.20111 44.5914 6.03951 45.0454 5.53897C45.4447 5.09886 45.7115 4.38596 45.8268 3.51091C45.9395 2.65624 45.8821 1.8353 45.8045 1.38544L-nan -nanL45.8045 1.38544C46.2837 0.117633 47.9536 -0.174013 48.8245 0.864472L-nan -nanL48.8245 0.864472C48.9495 1.58906 49.0219 2.72181 48.8652 3.91126Z" fill="#BD897E"/>
</svg>
