<svg width="156" height="156" viewBox="0 0 156 156" fill="none" xmlns="http://www.w3.org/2000/svg">
<circle cx="78" cy="78" r="78" fill="#29B297"/>
<g clip-path="url(#clip0_298_327)">
<path d="M64.2503 21.0333L64.2182 20.3342C64.8033 20.5161 65.8913 20.9085 67.1541 20.6659C69.0947 20.2914 69.6905 19.4604 69.4122 18.0123C69.1482 16.6426 68.3313 16.1326 66.7367 16.4393L65.4275 16.6926L65.374 16.4072L66.6832 16.154C67.9924 15.9008 68.5382 15.2052 68.2707 13.8213C68.021 12.5373 67.1862 12.0451 65.5524 12.359C64.4786 12.5659 63.7366 13.2364 63.3371 13.5574L63.123 12.9083C63.5975 12.6515 64.4786 12.3019 65.556 12.0915C67.6678 11.6849 68.8093 12.2199 69.0912 13.6644C69.3444 14.9734 68.6096 15.7545 67.65 16.0934C68.9199 15.9757 69.9758 16.4643 70.2505 17.8839C70.5573 19.4639 69.694 20.4376 67.2825 20.9049C65.9127 21.1688 64.8782 21.126 64.2575 21.0262L64.2503 21.0333Z" fill="white"/>
<path d="M77.3352 17.1277L73.4504 17.3096C73.1257 18.7363 73.0722 19.4711 73.0401 19.8598L72.0234 19.9062C72.4765 18.8255 72.8082 17.866 73.1828 16.7389L74.7132 12.0416C74.6989 11.7134 74.649 11.5137 74.6525 11.264C74.9308 11.2497 75.4659 11.1392 75.6514 11.0393C75.976 12.0202 76.3542 12.869 76.7644 13.8214L78.0807 16.8602C78.491 17.8125 78.8691 18.6507 79.3792 19.5567L78.3875 19.603C77.9345 18.5402 77.592 17.7376 77.3387 17.1206L77.3352 17.1277ZM77.221 16.8567C76.372 14.9056 75.8512 13.7215 75.0449 11.8811L74.3065 14.1566C73.9427 15.2837 73.75 15.9864 73.4718 17.0314L77.2174 16.8531L77.221 16.8567Z" fill="white"/>
<path d="M81.8505 19.7385L80.873 19.6493C81.0478 18.7041 81.2048 16.9885 81.2904 16.022L81.4153 14.6416C81.5045 13.6751 81.6579 11.9595 81.6579 11L82.6353 11.0892C82.4605 12.0344 82.3035 13.75 82.2179 14.7165L82.1715 15.2194L83.8589 15.3086C85.3036 13.8605 85.8566 12.8119 86.7484 11.4637L87.7508 11.5564L84.4118 15.1945C85.35 16.985 86.1527 18.4224 87.2657 20.2307L86.1384 20.1273L83.841 15.6475L82.1501 15.4941C82.011 17.0349 81.9147 18.2405 81.8541 19.7385H81.8505Z" fill="white"/>
<path d="M94.2367 19.1964L90.4553 18.294C89.749 19.5744 89.4922 20.2628 89.353 20.6302L88.3613 20.3948C89.0962 19.4853 89.6848 18.6542 90.3555 17.6769L93.1308 13.5895C93.2057 13.272 93.2164 13.0651 93.2878 12.8262C93.5553 12.8904 94.1047 12.9296 94.308 12.8868C94.3473 13.9176 94.4757 14.8414 94.6041 15.8686L95.0251 19.15C95.1535 20.1772 95.2855 21.0903 95.5245 22.1032L94.5577 21.8714C94.4186 20.7265 94.3152 19.8598 94.2403 19.1964H94.2367ZM94.2046 18.9039C93.9335 16.7959 93.7587 15.5119 93.4983 13.5217L92.1569 15.5048C91.497 16.4856 91.1153 17.1063 90.5552 18.0336L94.2046 18.9039Z" fill="white"/>
<path d="M96.9795 22.2851L97.3291 21.6788C97.7251 22.1496 98.4278 23.0663 99.6229 23.5406C101.46 24.2718 102.409 23.8937 102.955 22.5241C103.472 21.2258 103.058 20.3591 101.553 19.7563L100.315 19.2641L100.422 18.9966L101.66 19.4888C102.898 19.981 103.732 19.6921 104.257 18.3831C104.742 17.1669 104.3 16.3002 102.759 15.6867C101.742 15.2801 100.754 15.4441 100.247 15.4976L100.418 14.8342C100.957 14.8735 101.888 15.0554 102.905 15.4584C104.902 16.2538 105.577 17.3238 105.031 18.6899C104.539 19.9275 103.497 20.1915 102.505 19.9596C103.64 20.5481 104.264 21.529 103.729 22.8737C103.133 24.3717 101.881 24.7248 99.6015 23.8153C98.303 23.2981 97.4575 22.7024 96.9866 22.2851H96.9795Z" fill="white"/>
<path d="M110.09 26.0517L106.722 24.1078C105.68 25.135 105.238 25.7236 104.999 26.0339L104.114 25.5238C105.077 24.8604 105.877 24.2291 106.8 23.4836L110.625 20.3556C110.789 20.0738 110.856 19.8777 110.992 19.6672C111.231 19.8063 111.745 19.9989 111.952 20.0168C111.695 21.0155 111.556 21.9392 111.388 22.9593L110.856 26.2265C110.689 27.2465 110.557 28.1596 110.493 29.1976L109.633 28.7018C109.826 27.564 109.972 26.7044 110.09 26.0446V26.0517ZM110.139 25.7628C110.478 23.662 110.678 22.3851 110.996 20.402L109.144 21.9214C108.231 22.674 107.689 23.1591 106.89 23.8903L110.139 25.7628Z" fill="white"/>
<path d="M115.79 22.3386L121.119 26.3548L120.677 27.0467C120.177 26.3084 119.874 25.7484 119.1 25.1635L118.619 24.7997L115.747 28.6089C115.162 29.3829 114.124 30.7597 113.621 31.5765L112.836 30.9844C113.482 30.2746 114.52 28.8978 115.105 28.1239L117.976 24.3146L117.495 23.9508C116.71 23.3587 116.089 23.2232 115.251 22.9557L115.793 22.3386H115.79Z" fill="white"/>
<path d="M121.241 31.3875L120.955 31.6728C121.43 32.0188 122.107 32.6216 122.489 33.0032C124.266 34.7688 124.49 35.9886 123.26 37.2263C122.018 38.4746 120.798 38.257 119.022 36.4915C118.529 36.0029 117.655 35.0291 117.103 34.2801C117.83 33.6738 119.018 32.4754 119.692 31.7977L120.67 30.8168C121.355 30.1285 122.568 28.9051 123.181 28.1667L123.877 28.8587C123.138 29.4757 121.926 30.6991 121.241 31.3839V31.3875ZM122.243 33.1281C121.833 32.7215 121.173 32.2043 120.716 31.9118L117.923 34.7224C118.219 35.1754 118.744 35.8245 119.157 36.2311C120.566 37.6329 121.59 37.7292 122.675 36.6377C123.759 35.5463 123.656 34.5262 122.247 33.1245L122.243 33.1281Z" fill="white"/>
<path d="M128.525 46.5248L127.94 47.0491C127.426 46.6853 126.859 46.0825 126.445 45.4797C125.047 43.4502 125.553 41.6169 128.054 39.8942C130.551 38.175 132.445 38.3498 133.847 40.3828C134.261 40.9856 134.622 41.7275 134.782 42.3374L134.083 42.6977C134.044 42.0664 134.04 41.1533 133.619 40.5398C132.527 38.9562 130.854 38.9918 128.532 40.5897C126.21 42.1876 125.582 43.7392 126.674 45.3228C127.094 45.9327 127.968 46.2501 128.525 46.5248Z" fill="white"/>
<path d="M136.331 44.5273L139.342 50.4802L138.639 50.9047C138.518 50.0201 138.493 49.3852 138.054 48.5221L137.783 47.9835L133.523 50.1343C132.66 50.573 131.119 51.3505 130.306 51.8606L129.863 50.9831C130.755 50.63 132.296 49.8525 133.159 49.4173L137.419 47.2666L137.148 46.728C136.705 45.8506 136.21 45.4547 135.575 44.8448L136.334 44.5309L136.331 44.5273Z" fill="white"/>
<path d="M133.08 58.9549C132.285 56.6079 133.291 54.9886 136.141 54.0256C139.013 53.0519 140.807 53.7581 141.592 56.0729C142.384 58.4091 141.378 60.0249 138.528 60.9915C135.656 61.9652 133.865 61.2697 133.08 58.9584V58.9549ZM133.369 58.9477C133.954 60.6776 135.413 61.1769 138.035 60.2888C140.504 59.4542 141.967 58.0418 141.299 56.0729C140.711 54.3324 139.252 53.8295 136.641 54.714C134.161 55.5522 132.702 56.9789 133.369 58.9442V58.9477Z" fill="white"/>
<path d="M134.815 64.5403C134.772 64.28 134.751 63.9911 134.747 63.6594L135.453 63.6201C135.428 63.9304 135.436 64.2086 135.475 64.444C135.646 65.4998 136.456 65.8529 138.136 65.5783C138.917 65.4499 143.091 64.6901 143.726 64.5118L144.686 70.3862C143.726 70.454 142.024 70.7322 141.068 70.8891L139.702 71.1138C138.746 71.2708 137.044 71.549 136.113 71.7879L135.953 70.8071C136.912 70.7393 138.614 70.4611 139.57 70.3042L144.279 69.5338L143.54 65.0147L137.665 65.9742C135.839 66.2738 135.032 65.8565 134.815 64.5403Z" fill="white"/>
<path d="M144.91 74.7626C143.612 74.6841 142.567 74.6984 141.257 74.7198L137.23 74.784L144.439 79.2888C144.643 79.3102 144.828 79.3066 144.982 79.2923L144.996 80.2232C144.414 80.1448 143.762 80.1555 143.169 80.1626L139.959 80.2125C138.65 80.2339 137.604 80.2518 136.31 80.3588L136.295 79.4136C137.594 79.4814 138.639 79.4635 139.945 79.4421L143.972 79.3779L136.788 74.8874C136.573 74.866 136.384 74.8696 136.22 74.8874L136.206 73.9565C137.166 74.0278 138.889 74.0029 139.855 73.985L141.24 73.9636C142.549 73.9422 143.594 73.9244 144.889 73.8174L144.903 74.7626H144.91Z" fill="white"/>
<path d="M135.974 83.5938L136.109 82.6201C137.044 82.8377 138.753 83.0767 139.712 83.2122L141.082 83.4048C142.042 83.5403 143.75 83.7757 144.71 83.8221L144.575 84.7958C143.64 84.5783 141.931 84.3393 140.972 84.2037L140.472 84.1324L140.301 85.8123C141.678 87.3246 142.702 87.9239 144.004 88.8833L143.865 89.882L140.39 86.3723C138.556 87.2212 137.083 87.956 135.225 88.9832L135.382 87.8632L139.966 85.7838L140.201 84.1003C138.667 83.8863 137.468 83.7329 135.977 83.601L135.974 83.5938Z" fill="white"/>
<path d="M134.529 93.0955L135.153 93.4129C134.704 93.8338 133.826 94.5828 133.412 95.799C132.777 97.6716 133.206 98.5989 134.6 99.0733C135.924 99.5227 136.769 99.0662 137.29 97.5289L137.718 96.2663L137.993 96.359L137.565 97.6216C137.137 98.8843 137.468 99.7011 138.806 100.154C140.048 100.575 140.89 100.09 141.421 98.5169C141.774 97.479 141.56 96.5053 141.478 95.9988L142.149 96.1343C142.138 96.6765 142.006 97.6145 141.653 98.6524C140.961 100.689 139.93 101.417 138.535 100.946C137.272 100.518 136.955 99.4942 137.137 98.4919C136.609 99.6547 135.663 100.332 134.29 99.8651C132.763 99.3479 132.346 98.1139 133.134 95.7919C133.584 94.4687 134.133 93.5912 134.525 93.1026L134.529 93.0955Z" fill="white"/>
<path d="M131.44 106.396L133.209 102.933C132.132 101.945 131.522 101.534 131.197 101.313L131.661 100.404C132.374 101.331 133.045 102.098 133.837 102.983L137.158 106.638C137.451 106.788 137.647 106.845 137.864 106.97C137.74 107.216 137.572 107.741 137.565 107.947C136.552 107.741 135.624 107.651 134.597 107.534L131.308 107.17C130.277 107.056 129.36 106.967 128.318 106.959L128.771 106.075C129.92 106.207 130.783 106.31 131.447 106.396H131.44ZM131.732 106.432C133.848 106.663 135.135 106.795 137.133 107.009L135.521 105.24C134.722 104.366 134.208 103.849 133.437 103.09L131.732 106.432Z" fill="white"/>
<path d="M126.935 109.007L127.498 108.204C128.229 108.825 129.642 109.817 130.438 110.373L131.572 111.168C132.368 111.725 133.777 112.713 134.611 113.191L134.048 113.993C133.316 113.373 131.904 112.385 131.108 111.828L130.694 111.539L129.778 112.955C130.316 114.931 130.951 115.93 131.675 117.374L131.098 118.198L129.599 113.49C127.58 113.412 125.932 113.394 123.81 113.462L124.459 112.534L129.489 112.77L130.463 111.379C129.196 110.491 128.197 109.806 126.927 109.01L126.935 109.007Z" fill="white"/>
<path d="M121.241 120.021L123.902 117.185C123.142 115.937 122.671 115.373 122.421 115.07L123.121 114.328C123.545 115.42 123.977 116.34 124.491 117.41L126.659 121.847C126.898 122.072 127.07 122.182 127.244 122.364C127.055 122.568 126.749 123.02 126.684 123.217C125.771 122.739 124.904 122.393 123.948 121.993L120.891 120.727C119.935 120.331 119.079 119.992 118.08 119.693L118.761 118.969C119.824 119.415 120.631 119.757 121.244 120.021H121.241ZM121.512 120.139C123.477 120.948 124.676 121.437 126.535 122.2L125.479 120.053C124.954 118.994 124.608 118.352 124.08 117.406L121.512 120.139Z" fill="white"/>
<path d="M117.192 120.873L117.546 121.476C116.943 121.587 115.798 121.744 114.792 122.546C113.247 123.78 113.108 124.793 114.025 125.942C114.895 127.033 115.855 127.104 117.125 126.091L118.166 125.26L118.348 125.485L117.307 126.316C116.265 127.147 116.104 128.018 116.982 129.116C117.799 130.14 118.769 130.186 120.068 129.148C120.924 128.463 121.27 127.529 121.477 127.058L121.969 127.532C121.669 127.982 121.049 128.702 120.193 129.384C118.512 130.725 117.25 130.782 116.333 129.63C115.502 128.588 115.787 127.554 116.479 126.808C115.409 127.504 114.246 127.561 113.343 126.43C112.337 125.171 112.651 123.909 114.571 122.379C115.662 121.508 116.597 121.066 117.192 120.866V120.873Z" fill="white"/>
<path d="M107.418 130.407L110.774 128.442C110.4 127.029 110.104 126.355 109.95 125.992L110.832 125.474C110.931 126.641 111.085 127.647 111.274 128.816L112.098 133.685C112.262 133.967 112.398 134.124 112.515 134.345C112.276 134.484 111.855 134.833 111.734 135.005C110.992 134.288 110.261 133.71 109.455 133.057L106.879 130.978C106.073 130.325 105.349 129.758 104.475 129.191L105.331 128.688C106.226 129.419 106.9 129.972 107.414 130.4L107.418 130.407ZM107.646 130.596C109.301 131.93 110.314 132.736 111.884 133.992L111.477 131.634C111.277 130.468 111.121 129.758 110.881 128.702L107.646 130.6V130.596Z" fill="white"/>
<path d="M107.831 137.191L101.706 139.83L101.324 139.103C102.212 139.035 102.847 139.049 103.739 138.664L104.296 138.425L102.409 134.045C102.023 133.157 101.342 131.573 100.882 130.728L101.784 130.339C102.08 131.252 102.765 132.836 103.147 133.724L105.034 138.104L105.587 137.865C106.49 137.476 106.914 137.006 107.563 136.41L107.831 137.187V137.191Z" fill="white"/>
<path d="M97.2655 137.444L97.1585 137.056C96.6234 137.295 95.7637 137.583 95.2428 137.726C92.8278 138.39 91.6577 137.983 91.1939 136.296C90.7266 134.598 91.5221 133.649 93.9372 132.982C94.6043 132.8 95.8849 132.522 96.8089 132.415C96.973 133.35 97.4225 134.973 97.6757 135.896L98.0432 137.23C98.3 138.165 98.7566 139.827 99.0991 140.726L98.1537 140.986C97.9861 140.041 97.5259 138.379 97.2691 137.444H97.2655ZM95.2571 137.448C95.8136 137.295 96.5877 136.977 97.0693 136.727L96.0169 132.907C95.4783 132.94 94.6542 133.075 94.0942 133.228C92.1785 133.756 91.5863 134.598 91.993 136.078C92.3997 137.559 93.3379 137.979 95.2571 137.452V137.448Z" fill="white"/>
<path d="M80.4991 136.239L80.335 135.468C80.9057 135.208 81.7119 135.015 82.4397 134.955C84.8976 134.751 86.2353 136.107 86.485 139.131C86.7347 142.156 85.636 143.711 83.1781 143.914C82.4504 143.975 81.6228 143.914 81.0163 143.75L81.052 142.966C81.6192 143.247 82.4147 143.7 83.1531 143.64C85.0724 143.483 85.875 142.013 85.6431 139.203C85.4112 136.392 84.3803 135.076 82.4611 135.233C81.7191 135.294 81.0128 135.896 80.4991 136.242V136.239Z" fill="white"/>
<path d="M78.3769 144L71.7167 143.661L71.6953 142.841C72.5229 143.173 73.0866 143.465 74.0533 143.515L74.6562 143.547L74.8988 138.785C74.9487 137.819 75.0379 136.096 74.9986 135.137L75.9797 135.187C75.8441 136.139 75.7549 137.858 75.705 138.828L75.4624 143.59L76.0653 143.622C77.0463 143.672 77.6385 143.437 78.4803 143.19L78.3769 144.004V144Z" fill="white"/>
<path d="M67.4469 134.027C69.8798 134.498 70.7859 136.174 70.2152 139.128C69.6373 142.106 68.1354 143.315 65.7382 142.848C63.316 142.377 62.4099 140.704 62.9842 137.751C63.5621 134.773 65.0533 133.564 67.4505 134.027H67.4469ZM67.3078 134.281C65.517 133.935 64.3576 134.951 63.8297 137.669C63.3338 140.226 63.8368 142.195 65.8773 142.591C67.6824 142.941 68.8418 141.92 69.3662 139.217C69.8656 136.649 69.3483 134.676 67.3114 134.281H67.3078Z" fill="white"/>
<path d="M61.7385 132.772C61.9847 132.865 62.2487 132.989 62.5376 133.15L62.2201 133.785C61.9633 133.61 61.7171 133.478 61.4924 133.392C60.49 133.018 59.7837 133.549 59.1915 135.14C58.9168 135.882 57.5077 139.884 57.3508 140.522L51.7715 138.447C52.1889 137.58 52.7882 135.964 53.1271 135.058L53.6086 133.76C53.9475 132.85 54.5469 131.235 54.8001 130.311L55.7312 130.657C55.3138 131.523 54.7145 133.139 54.3756 134.045L52.7133 138.514L57.0083 140.112L59.0845 134.534C59.7302 132.8 60.49 132.305 61.7421 132.768L61.7385 132.772Z" fill="white"/>
<path d="M47.7155 136.431C48.4433 135.354 48.9569 134.445 49.6026 133.307L51.5896 129.804L44.0519 133.735C43.9306 133.899 43.8379 134.063 43.7736 134.199L42.9639 133.739C43.3277 133.278 43.6488 132.708 43.9413 132.194L45.5252 129.401C46.1709 128.264 46.6846 127.354 47.2482 126.181L48.0687 126.644C47.3517 127.729 46.838 128.638 46.1923 129.776L44.2053 133.278L51.718 129.362C51.8465 129.187 51.9392 129.023 52.007 128.877L52.8168 129.337C52.2674 130.125 51.4184 131.627 50.9404 132.469L50.259 133.674C49.6133 134.812 49.0996 135.722 48.536 136.892L47.7155 136.428V136.431Z" fill="white"/>
<path d="M44.6161 124.322L45.3937 124.925C44.7373 125.628 43.6814 126.99 43.0857 127.757L42.2367 128.852C41.6409 129.619 40.585 130.981 40.0677 131.791L39.2901 131.188C39.9465 130.486 41.0024 129.123 41.5981 128.356L41.9049 127.957L40.5315 126.972C38.5338 127.415 37.5028 128.003 36.026 128.656L35.2305 128.039L40.0035 126.769C40.1783 124.754 40.2746 123.11 40.3139 120.987L41.2093 121.683L40.7313 126.694L42.0761 127.736C43.025 126.512 43.7563 125.549 44.6125 124.319L44.6161 124.322Z" fill="white"/>
<path d="M37.0923 118.341L36.5073 118.726C36.3646 118.13 36.1506 116.993 35.298 116.033C33.9888 114.553 32.9685 114.464 31.8662 115.441C30.821 116.368 30.796 117.328 31.8734 118.544L32.7581 119.543L32.5405 119.735L31.6558 118.737C30.7711 117.738 29.8971 117.624 28.8412 118.558C27.8601 119.425 27.8637 120.399 28.966 121.64C29.6937 122.46 30.6462 122.76 31.1242 122.938L30.6748 123.456C30.211 123.177 29.4619 122.596 28.7341 121.779C27.3072 120.167 27.1859 118.911 28.2882 117.938C29.2871 117.053 30.3323 117.285 31.1135 117.938C30.3644 116.903 30.2467 115.744 31.3311 114.788C32.5369 113.722 33.814 113.968 35.4407 115.805C36.3682 116.85 36.8569 117.763 37.0888 118.348L37.0923 118.341Z" fill="white"/>
<path d="M27.0718 109.074L29.2086 112.324C30.5998 111.874 31.2598 111.55 31.6129 111.375L32.173 112.227C31.0136 112.388 30.0184 112.591 28.8554 112.841L24.036 113.915C23.7613 114.093 23.615 114.236 23.3974 114.364C23.244 114.132 22.873 113.729 22.6982 113.619C23.376 112.841 23.9147 112.081 24.5247 111.243L26.4689 108.564C27.0789 107.726 27.6069 106.974 28.1277 106.071L28.6735 106.902C27.9886 107.833 27.4713 108.536 27.0718 109.071V109.074ZM26.897 109.31C25.6484 111.033 24.8957 112.085 23.7221 113.715L26.0586 113.191C27.2109 112.93 27.9136 112.738 28.9553 112.445L26.897 109.31Z" fill="white"/>
<path d="M27.0289 103.867L27.4499 104.755C26.5474 105.083 24.9884 105.822 24.1144 106.236L22.8623 106.828C21.9848 107.241 20.4294 107.98 19.6018 108.468L19.1809 107.58C20.0834 107.252 21.6423 106.514 22.5163 106.1L22.9729 105.886L22.1952 104.388C20.2118 103.878 19.031 103.935 17.415 103.853L16.9834 102.943L21.8135 103.971C22.8802 102.255 23.7113 100.832 24.7031 98.9558L25.1882 99.9795L22.4949 104.231L23.2226 105.768C24.621 105.105 25.709 104.577 27.0289 103.871V103.867Z" fill="white"/>
<path d="M20.2792 93.4628L21.4172 97.1794C22.8798 97.1401 23.6039 97.0117 23.9892 96.944L24.2888 97.9177C23.1295 97.7465 22.1164 97.6609 20.932 97.5753L16.002 97.2543C15.6881 97.3506 15.5061 97.4469 15.2636 97.5075C15.1815 97.2436 14.9389 96.7514 14.7998 96.598C15.6702 96.0416 16.4015 95.4638 17.222 94.8289L19.8404 92.803C20.6609 92.1717 21.3779 91.5939 22.1342 90.877L22.4267 91.8293C21.5099 92.5319 20.8143 93.0598 20.2792 93.4593V93.4628ZM20.0437 93.6412C18.3635 94.9466 17.3433 95.7455 15.7594 96.9796L18.1495 97.1294C19.3303 97.2008 20.058 97.215 21.1425 97.2257L20.0437 93.6412Z" fill="white"/>
<path d="M21.553 89.536L20.8538 89.5431C21.0571 88.9653 21.4923 87.8917 21.2961 86.622C20.9965 84.671 20.1867 84.0432 18.7312 84.2679C17.3507 84.4819 16.812 85.2773 17.0582 86.8823L17.2615 88.202L16.9761 88.2448L16.7728 86.9251C16.5694 85.6055 15.8952 85.0348 14.504 85.2488C13.209 85.4485 12.6882 86.2689 12.9415 87.9096C13.1092 88.9903 13.7477 89.7571 14.0545 90.1709L13.3945 90.3599C13.1555 89.8748 12.838 88.9796 12.6704 87.8989C12.3422 85.7731 12.9201 84.6531 14.3756 84.4284C15.6955 84.2251 16.4482 84.9884 16.7514 85.9586C16.6836 84.6817 17.2116 83.6473 18.6421 83.4262C20.2331 83.1801 21.1748 84.0789 21.5494 86.5043C21.7635 87.8846 21.6778 88.9154 21.5565 89.5324L21.553 89.536Z" fill="white"/>
<path d="M18.1319 76.3462L18.1925 80.234C19.6087 80.6013 20.34 80.6762 20.7289 80.7226L20.7467 81.7427C19.6801 81.2576 18.7312 80.8938 17.6182 80.4836L12.97 78.8073C12.6418 78.8108 12.442 78.8536 12.1887 78.8465C12.1852 78.5683 12.0888 78.0297 11.9961 77.8443C12.9842 77.5518 13.8475 77.1987 14.8107 76.817L17.8893 75.5972C18.8525 75.2156 19.7015 74.8625 20.6254 74.3845L20.6397 75.3796C19.5624 75.8005 18.749 76.1144 18.1247 76.3498L18.1319 76.3462ZM17.8572 76.4497C15.8809 77.2379 14.6787 77.723 12.8166 78.4684L15.0711 79.2745C16.1841 79.674 16.8797 79.888 17.9178 80.1983L17.8572 76.4497Z" fill="white"/>
<path d="M12.043 73.3145L12.785 66.6875L13.6055 66.716C13.2237 67.5221 12.8956 68.0678 12.7885 69.0308L12.7208 69.6301L17.4617 70.1615C18.4249 70.2685 20.1372 70.4611 21.1004 70.4789L20.9898 71.4527C20.048 71.2601 18.3357 71.0674 17.3725 70.9604L12.6316 70.429L12.5638 71.0282C12.4532 72.0055 12.653 72.6083 12.8492 73.4643L12.043 73.3109V73.3145Z" fill="white"/>
<path d="M17.0584 64.0089L17.4473 64.1087C17.5043 63.5274 17.6791 62.6357 17.8111 62.1114C18.4283 59.686 19.3629 58.8692 21.0574 59.3008C22.7661 59.7359 23.1978 60.8951 22.5806 63.3241C22.4094 63.9946 22.0134 65.243 21.6531 66.1025C20.7613 65.7851 19.1239 65.3678 18.1964 65.1324L16.8551 64.79C15.9169 64.551 14.2438 64.1266 13.2949 63.9768L13.5375 63.0245C14.4436 63.3455 16.1131 63.7699 17.0549 64.0089H17.0584ZM18.0501 62.2612C17.9075 62.8211 17.8004 63.6522 17.779 64.1908L21.621 65.1681C21.86 64.683 22.1526 63.9019 22.2952 63.3383C22.784 61.4123 22.3452 60.4814 20.8576 60.1033C19.3701 59.7252 18.5389 60.3316 18.0501 62.2576V62.2612Z" fill="white"/>
<path d="M26.4121 50.0379L27.1612 50.2769C27.1041 50.9046 26.8723 51.6964 26.5655 52.3598C25.5238 54.5962 23.6831 55.0848 20.9327 53.8044C18.1823 52.5239 17.3761 50.8012 18.4177 48.5648C18.7245 47.905 19.1847 47.2166 19.6306 46.7708L20.2942 47.1916C19.7698 47.5447 18.9814 48.012 18.6675 48.6825C17.8541 50.4267 18.7317 51.8498 21.2859 53.0411C23.8401 54.2324 25.4953 53.9898 26.3086 52.2457C26.6226 51.5716 26.4513 50.6585 26.405 50.0414L26.4121 50.0379Z" fill="white"/>
<path d="M20.7256 44.3419L24.3357 38.7314L25.0563 39.1202C24.3571 39.6731 23.822 40.0155 23.2976 40.8323L22.9694 41.3387L26.9826 43.9175C27.7996 44.4418 29.2479 45.3727 30.1005 45.8185L29.5689 46.646C28.8127 46.054 27.3608 45.123 26.5474 44.5987L22.5342 42.02L22.206 42.5265C21.6745 43.3504 21.5853 43.9817 21.3784 44.8377L20.7256 44.3419Z" fill="white"/>
<path d="M34.8167 39.8228C33.1971 41.6989 31.2922 41.6525 29.0162 39.6908C26.7189 37.7113 26.4192 35.8066 28.0138 33.9555C29.6262 32.0865 31.5276 32.1329 33.8071 34.0982C36.1045 36.0777 36.4148 37.9752 34.8202 39.8228H34.8167ZM34.6633 39.5767C35.8548 38.1964 35.548 36.6841 33.4504 34.8757C31.4777 33.1744 29.5192 32.6323 28.1636 34.2052C26.965 35.5962 27.2718 37.1085 29.3587 38.9097C31.3421 40.6182 33.3077 41.1532 34.6633 39.5803V39.5767Z" fill="white"/>
<path d="M38.7436 35.4963C38.5403 35.6639 38.3012 35.8315 38.0194 36.0027L37.627 35.4142C37.9088 35.2787 38.1443 35.1289 38.3262 34.9755C39.1467 34.2907 39.0361 33.4133 37.9481 32.1079C37.438 31.4979 34.6626 28.295 34.1846 27.842L38.7507 24.0256C39.2965 24.8175 40.4024 26.1371 41.0231 26.8826L41.9114 27.9455C42.5321 28.6874 43.6379 30.0106 44.3193 30.6883L43.5559 31.3267C43.0101 30.5385 41.9042 29.2152 41.2835 28.4698L38.2228 24.8103L34.709 27.7493L38.526 32.3147C39.7139 33.7343 39.7638 34.6402 38.7436 35.4963Z" fill="white"/>
<path d="M42.5116 21.5006C43.0895 22.6669 43.6246 23.5621 44.2952 24.6857L46.3607 28.1454L46.6711 19.6494C46.589 19.464 46.4927 19.2999 46.4035 19.1786L47.2026 18.7007C47.4238 19.2428 47.7591 19.8064 48.0623 20.3128L49.7069 23.0699C50.3775 24.1935 50.9126 25.0923 51.6546 26.1587L50.8448 26.6438C50.2562 25.4846 49.7211 24.5894 49.0505 23.4623L46.985 20.0025L46.6711 28.47C46.7603 28.6661 46.8566 28.8302 46.9493 28.9622L46.1502 29.4401C45.7364 28.5734 44.8517 27.0932 44.3559 26.2622L43.646 25.0744C42.9753 23.9509 42.4402 23.0521 41.6982 21.9856L42.508 21.5006H42.5116Z" fill="white"/>
<path d="M54.5684 24.7962L53.6623 25.1707C53.3769 24.254 52.7169 22.6597 52.3459 21.7645L51.8144 20.4876C51.4434 19.5923 50.7835 18.0016 50.334 17.1491L51.2401 16.7746C51.5255 17.6912 52.1854 19.2856 52.5564 20.1808L52.7491 20.6445L54.283 19.9419C54.8894 17.9873 54.8894 16.8031 55.0535 15.1945L55.9846 14.8093L54.7218 19.5852C56.3841 20.7337 57.7647 21.6325 59.5912 22.7168L58.5459 23.1519L54.4293 20.2557L52.8596 20.9049C53.4518 22.3351 53.9263 23.4444 54.5719 24.7998L54.5684 24.7962Z" fill="white"/>
</g>
<g clip-path="url(#clip1_298_327)">
<path d="M36.9054 76.8924L36.4171 76.7853C36.6508 76.4153 37.1226 75.7371 37.1887 74.821C37.2891 73.4129 36.8259 72.8482 35.7753 72.7725C34.7815 72.7014 34.2786 73.1707 34.1955 74.3276L34.1281 75.2777L33.9214 75.2619L33.9887 74.3118C34.056 73.3617 33.677 72.8565 32.6728 72.7853C31.7407 72.7202 31.2468 73.2051 31.1613 74.3904C31.1055 75.1695 31.431 75.8054 31.5786 76.1404L31.0911 76.1681C31.0017 75.7933 30.9234 75.1207 30.9774 74.3385C31.0873 72.8063 31.6674 72.1176 32.7162 72.1902C33.6661 72.2574 34.0692 72.9089 34.1256 73.6336C34.2792 72.7356 34.8115 72.0974 35.8417 72.1703C36.9886 72.2508 37.5008 73.0264 37.3774 74.7766C37.3062 75.7705 37.0854 76.4764 36.9018 76.8862L36.9054 76.8924Z" fill="white"/>
<path d="M36.6299 67.1426L36.0373 69.8566C36.9616 70.3443 37.4586 70.5171 37.7209 70.6111L37.565 71.3211C36.9031 70.8087 36.3024 70.4025 35.5941 69.9357L32.636 68.0114C32.407 67.9606 32.2599 67.9581 32.0883 67.9095C32.1299 67.7149 32.1526 67.3252 32.118 67.1788C32.8547 67.1361 33.5103 67.0322 34.2432 66.9252L36.5832 66.5788C37.3161 66.4718 37.9643 66.3659 38.6837 66.1814L38.5323 66.8742C37.7152 66.9903 37.0982 67.0782 36.6257 67.1389L36.6299 67.1426ZM36.4218 67.1713C34.9188 67.3964 34.0055 67.5368 32.5866 67.7528L34.0201 68.683C34.7305 69.1424 35.1797 69.4052 35.8493 69.7904L36.4187 67.1731L36.4218 67.1713Z" fill="white"/>
<path d="M39.2664 64.5097L39.0242 65.1676C38.4044 64.8723 37.2498 64.4468 36.5987 64.2091L35.6694 63.8677C35.019 63.6275 33.8637 63.2045 33.2017 63.0271L33.4439 62.3692C34.0638 62.6646 35.2184 63.09 35.8695 63.3278L36.2079 63.4528L36.5814 62.3051C35.8493 61.0406 35.2281 60.4652 34.4627 59.6006L34.712 58.9262L36.6048 61.9025C38.0136 61.5862 39.1537 61.2981 40.6072 60.8645L40.3274 61.6232L36.8118 62.38L36.3934 63.5183C37.4308 63.8991 38.2448 64.1885 39.2671 64.5073L39.2664 64.5097Z" fill="white"/>
<path d="M41.1824 55.864L39.8608 58.3061C40.6137 59.0301 41.0411 59.3346 41.2689 59.4985L40.9231 60.1392C40.4314 59.464 39.9669 58.9043 39.4166 58.2609L37.1095 55.5904C36.9044 55.48 36.7636 55.4344 36.6119 55.341C36.7057 55.1683 36.8343 54.7965 36.8424 54.6483C37.5608 54.8118 38.2219 54.894 38.9544 54.9953L41.2962 55.3115C42.0287 55.4128 42.6831 55.4905 43.4261 55.5129L43.0874 56.137C42.2718 56.0213 41.6547 55.9325 41.1831 55.8615L41.1824 55.864ZM40.9747 55.832C39.4702 55.6294 38.552 55.5126 37.1307 55.3244L38.251 56.6164C38.8057 57.2531 39.1633 57.6312 39.6996 58.189L40.9747 55.832Z" fill="white"/>
<path d="M43.8204 54.5423L43.4667 54.189C43.8647 54.0028 44.6271 53.6874 45.1753 52.9506C46.0194 51.8182 45.934 51.0936 45.0899 50.4638C44.2898 49.8669 43.6153 49.9922 42.9211 50.9194L42.3527 51.6825L42.1879 51.5592L42.7564 50.7961C43.3248 50.0331 43.2798 49.4037 42.4736 48.7999C41.7241 48.2403 41.0444 48.3853 40.3362 49.3352C39.8677 49.9614 39.7982 50.6735 39.7415 51.0329L39.3154 50.7921C39.4421 50.4277 39.7397 49.819 40.2058 49.192C41.1238 47.9608 41.9867 47.6934 42.8283 48.3225C43.5913 48.891 43.5808 49.6585 43.2375 50.2998C43.8533 49.626 44.6454 49.3766 45.4742 49.9944C46.3976 50.6823 46.4098 51.6115 45.3609 53.0161C44.764 53.8164 44.1967 54.2896 43.8217 54.5373L43.8204 54.5423Z" fill="white"/>
<path d="M48.8426 46.1934L46.8789 48.1575C47.395 49.0661 47.7193 49.4801 47.8892 49.7024L47.3737 50.2185C47.0941 49.4313 46.8062 48.7632 46.4627 47.988L45.0115 44.7712C44.8475 44.6059 44.7246 44.5229 44.6045 44.3904C44.7447 44.2513 44.9725 43.9324 45.0231 43.793C45.6646 44.1548 46.2763 44.4216 46.9491 44.7259L49.105 45.6966C49.7778 46.0008 50.3834 46.2607 51.0876 46.4969L50.5866 46.9984C49.8372 46.6552 49.2712 46.3953 48.8377 46.1921L48.8426 46.1934ZM48.6525 46.1056C47.2657 45.4834 46.4216 45.1095 45.1121 44.5238L45.8182 46.0821C46.1686 46.8513 46.403 47.3151 46.7597 48.0016L48.6525 46.1056Z" fill="white"/>
<path d="M47.3351 41.5739L51.0913 38.6393L51.487 39.0724C50.8852 39.2805 50.4428 39.3861 49.8961 39.8121L49.5561 40.0771L51.6534 42.7626C52.0792 43.3094 52.8372 44.2801 53.3078 44.7782L52.7542 45.2102C52.3838 44.6335 51.6259 43.6627 51.2 43.116L49.1027 40.4305L48.7627 40.6955C48.2091 41.1275 48.0008 41.5307 47.6613 42.0596L47.3358 41.5714L47.3351 41.5739Z" fill="white"/>
<path d="M54.5858 39.486L54.7299 39.7356C55.0563 39.4722 55.5975 39.116 55.9314 38.9232C57.4779 38.0239 58.3611 38.0944 58.9875 39.1723C59.6193 40.2596 59.2436 41.0611 57.6971 41.9605C57.2689 42.2098 56.4355 42.6328 55.8165 42.8758C55.5327 42.2616 54.9255 41.2204 54.5826 40.63L54.0865 39.7743C53.7382 39.1745 53.1184 38.1115 52.7224 37.5516L53.3284 37.1996C53.6176 37.8232 54.2375 38.8862 54.5833 39.4853L54.5858 39.486ZM55.972 39.1161C55.6156 39.324 55.1368 39.6837 54.8506 39.9447L56.2734 42.3915C56.6406 42.2709 57.1855 42.0291 57.5425 41.8188C58.7701 41.1057 59.0258 40.4172 58.4733 39.4672C57.9208 38.5172 57.1978 38.4 55.9702 39.113L55.972 39.1161Z" fill="white"/>
<path d="M66.3764 37.2585L66.63 37.7591C66.284 38.0462 65.7633 38.3261 65.2709 38.5002C63.6121 39.0898 62.4409 38.4014 61.7146 36.3576C60.9901 34.3169 61.4609 33.0423 63.1228 32.4508C63.6151 32.2768 64.1936 32.1653 64.6441 32.1673L64.7634 32.7163C64.3206 32.6267 63.6899 32.4604 63.1888 32.6374C61.8944 33.0978 61.6097 34.2587 62.2828 36.1564C62.956 38.054 63.9104 38.7741 65.2048 38.3137C65.7034 38.136 66.084 37.5917 66.3764 37.2585Z" fill="white"/>
<path d="M66.4408 31.5041L71.1046 30.5273L71.2675 31.0906C70.6348 31.0108 70.1921 30.9106 69.5155 31.0538L69.0938 31.1413L69.7902 34.4776C69.9333 35.1543 70.1849 36.3613 70.3864 37.0168L69.6993 37.1598C69.6205 36.4792 69.369 35.2722 69.2283 34.5961L68.5319 31.2598L68.1101 31.3473C67.423 31.4903 67.0582 31.7592 66.52 32.0845L66.4439 31.5022L66.4408 31.5041Z" fill="white"/>
<path d="M75.7945 36.4134C74.0282 36.5284 73.097 35.5349 72.9595 33.3903C72.8186 31.229 73.6375 30.1216 75.3797 30.008C77.138 29.8935 78.0668 30.8863 78.2067 33.0315C78.3477 35.1929 77.5367 36.2998 75.797 36.414L75.7945 36.4134ZM75.843 36.2127C77.1447 36.1288 77.759 35.2145 77.6309 33.2413C77.5115 31.3838 76.8074 30.1136 75.3256 30.2099C74.0159 30.2942 73.3992 31.2079 73.5268 33.173C73.6467 35.0386 74.3613 36.309 75.8406 36.212L75.843 36.2127Z" fill="white"/>
<path d="M79.9687 36.2498C79.7812 36.2312 79.5779 36.1926 79.3484 36.1337L79.4519 35.6391C79.6613 35.7137 79.8546 35.7602 80.0243 35.7767C80.7844 35.8537 81.1777 35.3603 81.2988 34.1503C81.3547 33.5875 81.6021 30.5674 81.5964 30.0963L85.8269 30.5203C85.6962 31.1949 85.5736 32.4203 85.5051 33.1089L85.4076 34.0931C85.3391 34.7818 85.2165 36.0072 85.2092 36.6938L84.5028 36.6232C84.6335 35.9486 84.7561 34.7232 84.8246 34.0345L85.1636 30.6433L81.9091 30.3173L81.4849 34.5484C81.354 35.8639 80.917 36.343 79.9687 36.2498Z" fill="white"/>
<path d="M88.8882 31.1744C88.594 32.0558 88.4107 32.7796 88.1834 33.6868L87.4831 36.4774L91.924 32.336C91.9764 32.1997 92.0082 32.0711 92.0267 31.9626L92.6716 32.1248C92.51 32.5115 92.3967 32.9639 92.2922 33.3738L91.7331 35.5982C91.5058 36.5054 91.3249 37.2298 91.1593 38.1431L90.5045 37.9782C90.7913 37.0948 90.9723 36.3704 91.1989 35.4656L91.8991 32.675L87.4727 36.8018C87.4184 36.9455 87.3859 37.0766 87.3678 37.1931L86.7229 37.0308C86.9495 36.382 87.2509 35.1885 87.4173 34.5183L87.6584 33.5593C87.8857 32.6521 88.0666 31.9277 88.2322 31.0144L88.8869 31.1793L88.8882 31.1744Z" fill="white"/>
<path d="M93.3289 38.9725L92.6821 38.6989C93.005 38.0943 93.4858 36.9595 93.7567 36.3225L94.1428 35.413C94.4137 34.776 94.8921 33.6406 95.1014 32.9871L95.7482 33.2606C95.4253 33.8652 94.9445 35 94.6736 35.637L94.5321 35.9684L95.6595 36.3971C96.9574 35.7266 97.5601 35.131 98.4628 34.4101L99.1262 34.6907L96.0623 36.4391C96.309 37.8611 96.5436 39.0135 96.9087 40.4857L96.165 40.1703L95.5778 36.6232L94.4598 36.1495C94.0286 37.1683 93.7012 37.9669 93.3344 38.9713L93.3289 38.9725Z" fill="white"/>
<path d="M99.6181 41.7258L99.9525 41.3538C100.16 41.7417 100.514 42.4856 101.277 42.996C102.452 43.7803 103.17 43.6564 103.756 42.7817C104.31 41.9517 104.152 41.284 103.187 40.6404L102.395 40.1116L102.51 39.9393L103.302 40.4681C104.094 40.9968 104.719 40.9189 105.279 40.0797C105.799 39.301 105.62 38.6305 104.633 37.9729C103.982 37.5374 103.27 37.5051 102.906 37.468L103.123 37.0304C103.495 37.138 104.118 37.4025 104.769 37.838C106.046 38.692 106.358 39.5378 105.775 40.4131C105.246 41.2053 104.481 41.2351 103.823 40.9243C104.528 41.5035 104.821 42.281 104.245 43.1422C103.605 44.1 102.677 44.1599 101.221 43.1867C100.391 42.6319 99.8869 42.0907 99.6223 41.7296L99.6181 41.7258Z" fill="white"/>
<path d="M108.223 46.3162L106.161 44.4552C105.28 45.0158 104.884 45.3609 104.671 45.544L104.13 45.0559C104.901 44.7351 105.554 44.4141 106.311 44.0312L109.448 42.4157C109.605 42.2415 109.681 42.1167 109.807 41.9897C109.954 42.1213 110.284 42.3339 110.426 42.3771C110.096 43.0378 109.863 43.6613 109.592 44.3484L108.733 46.5504C108.463 47.2406 108.232 47.8566 108.035 48.574L107.508 48.0979C107.812 47.3298 108.043 46.7533 108.224 46.3113L108.223 46.3162ZM108.302 46.121C108.853 44.7043 109.182 43.8402 109.699 42.5015L108.18 43.2869C107.43 43.6767 106.978 43.9355 106.311 44.3267L108.302 46.121Z" fill="white"/>
<path d="M109.191 49.9073L108.741 49.3701C109.305 48.9803 110.25 48.1889 110.781 47.7429L111.54 47.1073C112.071 46.6613 113.013 45.8718 113.497 45.3842L113.946 45.9214C113.383 46.3112 112.44 47.1032 111.909 47.5492L111.633 47.7813L112.441 48.6757C113.904 48.6693 114.71 48.4158 115.841 48.1832L116.302 48.7343L112.777 48.8976C112.35 50.2762 112.033 51.41 111.687 52.887L111.167 52.2676L112.259 48.8407L111.48 47.9117C110.633 48.6212 109.976 49.1838 109.192 49.9129L109.191 49.9073Z" fill="white"/>
<path d="M115.738 55.8717L114.274 53.5114C113.272 53.8049 112.796 54.0256 112.541 54.1418L112.158 53.5222C112.99 53.4311 113.705 53.3034 114.538 53.1468L118 52.4707C118.199 52.3473 118.307 52.2496 118.465 52.1626C118.57 52.3307 118.826 52.6261 118.95 52.7066C118.451 53.2484 118.052 53.7825 117.6 54.3683L116.161 56.2435C115.711 56.8299 115.319 57.358 114.928 57.9917L114.554 57.3878C115.058 56.7367 115.444 56.2438 115.739 55.8692L115.738 55.8717ZM115.87 55.7064C116.792 54.4999 117.35 53.7633 118.221 52.6221L116.544 52.9537C115.716 53.1196 115.209 53.2397 114.46 53.4292L115.87 55.7064Z" fill="white"/>
<path d="M115.578 58.8229L116.059 58.6907C116.024 59.1271 115.92 59.9462 116.288 60.7886C116.854 62.0825 117.527 62.3657 118.489 61.9455C119.403 61.5467 119.63 60.8978 119.166 59.8344L118.785 58.962L118.973 58.8781L119.354 59.7504C119.735 60.6227 120.306 60.8943 121.226 60.492C122.083 60.1176 122.295 59.4567 121.819 58.3689C121.504 57.6516 120.924 57.2401 120.637 57.0103L121.055 56.7584C121.31 57.0482 121.692 57.6097 122.004 58.3263C122.619 59.7335 122.425 60.6153 121.46 61.0349C120.588 61.4158 119.927 61.0277 119.541 60.4124C119.823 61.2793 119.647 62.0923 118.7 62.5059C117.646 62.9672 116.833 62.5172 116.132 60.9102C115.733 59.9962 115.601 59.2696 115.573 58.8216L115.578 58.8229Z" fill="white"/>
<path d="M120.349 67.3291L119.613 64.6498C118.57 64.6471 118.05 64.7268 117.771 64.7653L117.577 64.0618C118.4 64.2085 119.122 64.2886 119.964 64.3744L123.476 64.706C123.7 64.6448 123.834 64.5803 124.008 64.54C124.06 64.7306 124.223 65.0856 124.319 65.201C123.687 65.5804 123.153 65.9781 122.554 66.4137L120.643 67.8063C120.044 68.2419 119.518 68.6367 118.966 69.1348L118.777 68.4512C119.447 67.9686 119.953 67.6056 120.343 67.3303L120.349 67.3291ZM120.521 67.2066C121.748 66.3112 122.491 65.7612 123.648 64.9103L121.946 64.7551C121.104 64.6773 120.585 64.6544 119.813 64.6241L120.524 67.2072L120.521 67.2066Z" fill="white"/>
<path d="M125.106 68.2978L125.794 73.0118L125.222 73.1406C125.339 72.5152 125.467 72.0797 125.366 71.3932L125.304 70.9651L121.933 71.4574C121.249 71.559 120.03 71.7363 119.362 71.8976L119.261 71.203C119.945 71.1675 121.165 70.9877 121.848 70.8885L125.219 70.3963L125.156 69.9706C125.055 69.276 124.808 68.8961 124.517 68.338L125.103 68.2972L125.106 68.2978Z" fill="white"/>
<path d="M123.327 75.6349L123.039 75.6368C123.105 76.0502 123.145 76.6968 123.147 77.0825C123.158 78.8714 122.662 79.6035 121.412 79.6116C120.154 79.6202 119.647 78.8959 119.633 77.1063C119.631 76.6124 119.676 75.6774 119.773 75.0202C120.448 75.0797 121.65 75.0696 122.335 75.0657L123.323 75.0588C124.015 75.0543 125.246 75.0465 125.93 74.9764L125.935 75.6768C125.251 75.6177 124.02 75.628 123.327 75.6324L123.327 75.6349ZM122.958 77.0212C122.955 76.6089 122.879 76.0161 122.796 75.6377L119.966 75.6576C119.888 76.0352 119.829 76.6288 119.832 77.0435C119.842 78.4628 120.313 79.027 121.41 79.0201C122.506 79.0131 122.97 78.4436 122.96 77.0219L122.958 77.0212Z" fill="white"/>
<path d="M119.396 86.9799L118.834 86.9507C118.76 86.5087 118.776 85.9169 118.869 85.4036C119.183 83.6702 120.365 82.9978 122.498 83.3847C124.631 83.7715 125.501 84.8171 125.187 86.5505C125.094 87.0638 124.899 87.6236 124.674 88.0117L124.139 87.842C124.438 87.5027 124.898 87.0376 124.993 86.5169C125.239 85.1638 124.374 84.3383 122.392 83.9787C120.41 83.6191 119.311 84.0871 119.065 85.4402C118.969 85.9634 119.254 86.5622 119.398 86.9805L119.396 86.9799Z" fill="white"/>
<path d="M124.358 89.879L122.893 94.4115L122.323 94.2746C122.705 93.7649 123.011 93.4301 123.224 92.7723L123.358 92.3623L120.117 91.3147C119.46 91.1015 118.288 90.7215 117.619 90.5712L117.834 89.9036C118.466 90.1732 119.636 90.5525 120.296 90.7664L123.536 91.814L123.67 91.404C123.886 90.7364 123.833 90.2843 123.819 89.6579L124.361 89.8796L124.358 89.879Z" fill="white"/>
<path d="M115.456 95.5766C116.231 93.985 117.555 93.6698 119.487 94.6095C121.435 95.5589 121.992 96.8186 121.226 98.3862C120.454 99.9703 119.132 100.286 117.2 99.344C115.253 98.3947 114.694 97.1423 115.457 95.5741L115.456 95.5766ZM115.605 95.7194C115.036 96.891 115.523 97.8788 117.3 98.7455C118.973 99.5604 120.424 99.5773 121.075 98.2427C121.65 97.0619 121.16 96.0734 119.392 95.2118C117.712 94.3925 116.256 94.3847 115.606 95.7169L115.605 95.7194Z" fill="white"/>
<path d="M113.536 99.2823C113.645 99.1296 113.78 98.9706 113.944 98.8009L114.324 99.1373C114.156 99.2822 114.019 99.4277 113.918 99.5669C113.475 100.189 113.711 100.775 114.699 101.477C115.16 101.804 117.661 103.516 118.072 103.743L115.608 107.208C115.088 106.76 114.084 106.048 113.521 105.646L112.714 105.074C112.15 104.672 111.146 103.96 110.555 103.614L110.966 103.036C111.487 103.484 112.491 104.196 113.053 104.598L115.829 106.571L117.726 103.903L114.261 101.439C113.184 100.673 112.983 100.057 113.534 99.2792L113.536 99.2823Z" fill="white"/>
<path d="M113.468 109.634C112.859 108.933 112.326 108.41 111.661 107.754L109.611 105.736L110.93 111.663C111.021 111.777 111.117 111.872 111.198 111.941L110.731 112.415C110.481 112.078 110.147 111.751 109.846 111.455L108.212 109.846C107.547 109.19 107.014 108.667 106.309 108.061L106.78 107.581C107.396 108.276 107.928 108.799 108.594 109.455L110.643 111.473L109.33 105.566C109.233 105.445 109.137 105.35 109.049 105.277L109.516 104.803C109.958 105.328 110.837 106.191 111.33 106.676L112.036 107.369C112.701 108.025 113.234 108.548 113.937 109.153L113.465 109.633L113.468 109.634Z" fill="white"/>
<path d="M104.54 109.534L105.1 109.109C105.463 109.692 106.208 110.672 106.627 111.225L107.225 112.013C107.644 112.566 108.389 113.547 108.852 114.053L108.292 114.478C107.929 113.895 107.184 112.915 106.765 112.362L106.546 112.077L105.613 112.842C105.549 114.302 105.765 115.123 105.942 116.262L105.369 116.697L105.375 113.169C104.017 112.676 102.901 112.305 101.444 111.886L102.089 111.397L105.458 112.653L106.425 111.918C105.757 111.037 105.228 110.354 104.537 109.536L104.54 109.534Z" fill="white"/>
<path d="M99.0223 113.619L99.18 114.094C98.7426 114.083 97.918 114.02 97.0984 114.431C95.8352 115.06 95.585 115.748 96.0555 116.689C96.5021 117.582 97.1595 117.776 98.1978 117.258L99.0504 116.832L99.143 117.018L98.2904 117.444C97.4378 117.869 97.1975 118.451 97.647 119.353C98.0637 120.19 98.7362 120.367 99.7963 119.836C100.497 119.486 100.88 118.884 101.091 118.587L101.365 118.993C101.087 119.261 100.547 119.671 99.8494 120.022C98.4733 120.708 97.5847 120.56 97.1166 119.619C96.691 118.767 97.0442 118.088 97.639 117.67C96.7868 117.996 95.9653 117.863 95.5062 116.938C94.9934 115.909 95.3993 115.073 96.9673 114.29C97.8598 113.843 98.5802 113.675 99.0266 113.623L99.0223 113.619Z" fill="white"/>
<path d="M90.7761 118.82L93.413 117.946C93.3601 116.903 93.2582 116.388 93.2029 116.112L93.8946 115.883C93.791 116.713 93.7472 117.437 93.7045 118.286L93.5543 121.809C93.6265 122.032 93.6979 122.159 93.7463 122.333C93.558 122.396 93.2113 122.577 93.1027 122.677C92.6915 122.066 92.2669 121.554 91.8014 120.978L90.3127 119.142C89.8472 118.566 89.4256 118.062 88.8993 117.536L89.5735 117.313C90.0892 117.958 90.4784 118.445 90.7736 118.819L90.7761 118.82ZM90.9062 118.984C91.864 120.164 92.4508 120.878 93.3584 121.989L93.4286 120.28C93.462 119.437 93.459 118.916 93.4498 118.144L90.9062 118.984Z" fill="white"/>
<path d="M87.1754 117.887L87.866 117.761C87.9255 118.444 88.1467 119.656 88.2706 120.335L88.4476 121.309C88.5709 121.991 88.7927 123.2 88.9769 123.862L88.2863 123.988C88.2267 123.305 88.0055 122.093 87.8817 121.413L87.8184 121.058L86.6411 121.318C85.9225 122.592 85.7436 123.417 85.3882 124.517L84.6809 124.647L86.2826 121.504C85.2961 120.451 84.4679 119.615 83.3568 118.584L84.1528 118.438L86.5882 121.082L87.7834 120.864C87.5842 119.777 87.4211 118.929 87.1779 117.887L87.1754 117.887Z" fill="white"/>
<path d="M78.7492 120.62L81.5238 120.522C81.7672 119.506 81.8125 118.982 81.8369 118.704L82.5641 118.677C82.2317 119.445 81.9853 120.128 81.7073 120.93L80.5744 124.272C80.5828 124.506 80.6156 124.65 80.6126 124.828C80.4153 124.836 80.0309 124.912 79.8994 124.98C79.6764 124.277 79.4129 123.665 79.1266 122.982L78.2129 120.801C77.929 120.118 77.6629 119.516 77.3081 118.862L78.0192 118.836C78.3345 119.599 78.5701 120.176 78.7468 120.619L78.7492 120.62ZM78.8288 120.815C79.4188 122.216 79.7814 123.068 80.3401 124.388L80.8853 122.767C81.1528 121.966 81.2972 121.466 81.5051 120.72L78.8288 120.815Z" fill="white"/>
<path d="M76.2752 119.015L76.1508 119.499C75.7898 119.252 75.1295 118.753 74.2172 118.654C72.8157 118.5 72.2329 118.943 72.1188 119.988C72.0113 120.98 72.4604 121.499 73.6133 121.626L74.5614 121.73L74.5382 121.935L73.5901 121.831C72.642 121.727 72.1236 122.087 72.0141 123.086C71.9125 124.017 72.3822 124.528 73.561 124.656C74.3377 124.74 74.9848 124.442 75.327 124.306L75.3354 124.797C74.9565 124.872 74.2801 124.925 73.5035 124.841C71.9762 124.675 71.3103 124.069 71.4243 123.023C71.5281 122.075 72.1939 121.697 72.9193 121.667C72.0257 121.478 71.4097 120.922 71.5216 119.894C71.6459 118.751 72.4402 118.268 74.1828 118.457C75.1747 118.565 75.8701 118.815 76.2734 119.012L76.2752 119.015Z" fill="white"/>
<path d="M66.5425 118.937L69.236 119.614C69.7513 118.705 69.9382 118.214 70.0421 117.955L70.7492 118.131C70.2173 118.777 69.7909 119.365 69.3021 120.057L67.2862 122.954C67.228 123.181 67.2206 123.327 67.1688 123.5C66.9762 123.451 66.5868 123.418 66.4417 123.448C66.4226 122.712 66.3386 122.051 66.2533 121.316L65.9809 118.966C65.8956 118.231 65.8089 117.58 65.65 116.854L66.3392 117.028C66.4304 117.85 66.4966 118.469 66.5436 118.943L66.5425 118.937ZM66.5631 119.146C66.7416 120.655 66.854 121.574 67.0241 122.997L67.997 121.591C68.4784 120.896 68.7546 120.456 69.1606 119.797L66.5631 119.146Z" fill="white"/>
<path d="M63.3252 122.578L58.8901 120.841L59.0615 120.28C59.5471 120.693 59.8629 121.02 60.5075 121.272L60.9084 121.429L62.1516 118.257C62.4035 117.612 62.8529 116.466 63.0433 115.805L63.6946 116.061C63.3876 116.675 62.9382 117.821 62.6863 118.466L61.4432 121.639L61.8441 121.796C62.4979 122.053 62.9507 122.027 63.5776 122.05L63.3227 122.578L63.3252 122.578Z" fill="white"/>
<path d="M57.8326 117.397L57.9734 117.148C57.5828 117.001 56.9999 116.715 56.6625 116.527C55.1032 115.653 54.7125 114.857 55.3235 113.768C55.9396 112.669 56.8192 112.586 58.381 113.461C58.812 113.703 59.6001 114.207 60.1265 114.614C59.7426 115.171 59.152 116.224 58.8181 116.82L58.3339 117.682C57.9956 118.285 57.3934 119.361 57.1147 119.988L56.5024 119.645C56.8914 119.079 57.4929 118.005 57.8319 117.4L57.8326 117.397ZM56.8101 116.39C57.1701 116.592 57.7237 116.82 58.0913 116.934L59.4758 114.464C59.1853 114.209 58.7005 113.863 58.3381 113.66C57.0995 112.967 56.3761 113.098 55.8403 114.054C55.3044 115.011 55.5691 115.696 56.8076 116.389L56.8101 116.39Z" fill="white"/>
<path d="M49.9225 108.361L50.2258 107.888C50.6484 108.044 51.1518 108.35 51.5528 108.685C52.9032 109.817 52.9001 111.177 51.5082 112.838C50.1162 114.499 48.7786 114.737 47.4282 113.604C47.0297 113.271 46.6398 112.826 46.4146 112.436L46.8277 112.056C46.9743 112.483 47.151 113.113 47.5556 113.454C48.6086 114.338 49.7527 113.995 51.0468 112.453C52.3409 110.911 52.4796 109.724 51.4266 108.841C51.0195 108.499 50.3579 108.449 49.9236 108.367L49.9225 108.361Z" fill="white"/>
<path d="M44.9412 111.231L41.7377 107.703L42.1392 107.278C42.3913 107.863 42.5287 108.295 42.9953 108.808L43.284 109.128L45.8051 106.836C46.3179 106.369 47.228 105.542 47.6932 105.036L48.1658 105.556C47.6175 105.968 46.7068 106.798 46.1947 107.262L43.6736 109.554L43.9624 109.874C44.4325 110.393 44.8516 110.572 45.404 110.873L44.9412 111.231Z" fill="white"/>
<path d="M44.428 100.674C45.423 102.138 45.0389 103.444 43.2647 104.652C41.4742 105.871 40.1047 105.725 39.1223 104.283C38.1309 102.825 38.5144 101.522 40.2917 100.312C42.0822 99.0931 43.4488 99.2298 44.4287 100.672L44.428 100.674ZM44.2299 100.734C43.4978 99.6571 42.3977 99.5892 40.7622 100.702C39.2237 101.749 38.4876 103 39.3222 104.226C40.0604 105.31 41.1605 105.378 42.789 104.271C44.3345 103.218 45.067 101.961 44.2323 100.735L44.2299 100.734Z" fill="white"/>
<path d="M42.1691 97.1643C42.2471 97.3356 42.3186 97.5315 42.3846 97.7576L41.906 97.9195C41.8646 97.7 41.8048 97.5099 41.7326 97.356C41.4118 96.6633 40.786 96.5774 39.6842 97.0868C39.1691 97.326 36.4461 98.6487 36.0452 98.8948L34.2563 95.0388C34.9035 94.8086 36.0184 94.2896 36.6475 93.9992L37.5451 93.5828C38.1717 93.2917 39.2891 92.7733 39.8826 92.4285L40.182 93.0733C39.5372 93.3041 38.4198 93.8225 37.7907 94.1129L34.7 95.5481L36.0782 98.5158L39.9337 96.7263C41.1328 96.1691 41.7671 96.3021 42.1691 97.1643Z" fill="white"/>
<path d="M33.2091 91.9777C34.1206 91.7946 34.8372 91.5909 35.7364 91.3359L38.5053 90.5504L32.7009 88.7656C32.5577 88.788 32.4267 88.8241 32.3266 88.8632L32.1445 88.2235C32.5595 88.1712 33.0103 88.044 33.4158 87.9284L35.6221 87.3035C36.5212 87.0485 37.2403 86.8454 38.1132 86.5307L38.2982 87.179C37.3896 87.3708 36.673 87.5745 35.7714 87.8289L33.0025 88.6143L38.7866 90.3963C38.9384 90.371 39.0694 90.3349 39.1776 90.2953L39.3596 90.935C38.6852 91.0603 37.5003 91.397 36.8353 91.5855L35.8846 91.8557C34.9854 92.1107 34.2664 92.3137 33.3934 92.6285L33.2084 91.9802L33.2091 91.9777Z" fill="white"/>
<path d="M37.7123 84.268L37.8032 84.9624C37.118 84.9899 35.896 85.1505 35.2097 85.2409L34.2304 85.3716C33.5442 85.462 32.3246 85.6233 31.6534 85.7758L31.5625 85.0814C32.2477 85.054 33.4697 84.8934 34.156 84.8029L34.5115 84.7557L34.3103 83.5675C33.0739 82.7878 32.2569 82.5688 31.1773 82.1582L31.0837 81.4446L34.1453 83.1988C35.245 82.2642 36.1204 81.4779 37.2062 80.4182L37.3132 81.2198L34.5539 83.5246L34.7116 84.7276C35.8079 84.5834 36.6609 84.4611 37.7154 84.2662L37.7123 84.268Z" fill="white"/>
</g>
<defs>
<clipPath id="clip0_298_327">
<rect width="133" height="133" fill="white" transform="translate(12 11)"/>
</clipPath>
<clipPath id="clip1_298_327">
<rect width="95" height="95" fill="white" transform="translate(20.3242 111.088) rotate(-75)"/>
</clipPath>
</defs>
</svg>
