<svg width="22" height="22" viewBox="0 0 22 22" fill="none" xmlns="http://www.w3.org/2000/svg">
<path d="M16.8313 15.417L21.1143 19.699L19.6993 21.114L15.4173 16.831C13.824 18.1083 11.8423 18.803 9.80029 18.8C4.83229 18.8 0.800293 14.768 0.800293 9.80005C0.800293 4.83205 4.83229 0.800049 9.80029 0.800049C14.7683 0.800049 18.8003 4.83205 18.8003 9.80005C18.8032 11.842 18.1085 13.8238 16.8313 15.417ZM14.8253 14.675C16.0944 13.3699 16.8032 11.6205 16.8003 9.80005C16.8003 5.93205 13.6673 2.80005 9.80029 2.80005C5.93229 2.80005 2.80029 5.93205 2.80029 9.80005C2.80029 13.667 5.93229 16.8 9.80029 16.8C11.6207 16.8029 13.3702 16.0942 14.6753 14.825L14.8253 14.675Z" fill="white"/>
</svg>
