<svg width="30" height="24" viewBox="0 0 30 24" fill="none" xmlns="http://www.w3.org/2000/svg">
<path d="M22.5977 14.5713H24.7626C24.8245 14.5713 24.9688 14.5493 25.0306 14.5493C25.443 14.4614 25.7935 14.0658 25.7935 13.5164C25.7935 12.9889 25.443 12.5933 25.0306 12.4834C24.9688 12.4614 24.8451 12.4614 24.7626 12.4614H22.5977V14.5713Z" fill="#646464"/>
<path d="M24.5154 0C22.4535 0 20.7628 1.78022 20.7628 4V8.15385H26.0618C26.1855 8.15385 26.3298 8.15385 26.4329 8.17583C27.6288 8.24176 28.5154 8.9011 28.5154 10.044C28.5154 10.9451 27.9174 11.7143 26.804 11.8681V11.9121C28.0205 12 28.9484 12.7253 28.9484 13.8462C28.9484 15.0549 27.9174 15.8462 26.5566 15.8462H20.7422V23.978H26.2473C28.3092 23.978 29.9999 22.1978 29.9999 19.978V0H24.5154Z" fill="#646464"/>
<path d="M25.5255 10.3079C25.5255 9.78038 25.175 9.42873 24.7626 9.3628C24.7214 9.3628 24.6183 9.34082 24.5564 9.34082H22.5977V11.2749H24.5564C24.6183 11.2749 24.742 11.2749 24.7626 11.2529C25.175 11.187 25.5255 10.8353 25.5255 10.3079Z" fill="#646464"/>
<path d="M3.7732 0C1.71134 0 0.0206186 1.78022 0.0206186 4V13.8681C1.07216 14.4176 2.16495 14.7692 3.25773 14.7692C4.5567 14.7692 5.25773 13.9341 5.25773 12.7912V8.13187H8.47423V12.7692C8.47423 14.5714 7.42268 16.044 3.85567 16.044C1.69072 16.044 0 15.5385 0 15.5385V23.956H5.50515C7.56701 23.956 9.25773 22.1758 9.25773 19.956V0H3.7732Z" fill="#707070"/>
<path d="M14.1442 0C12.0823 0 10.3916 1.78022 10.3916 4V9.23077C11.3401 8.37363 12.9895 7.82418 15.6493 7.95604C17.072 8.02198 18.5978 8.43956 18.5978 8.43956V10.1319C17.8349 9.71429 16.9277 9.34066 15.7524 9.25275C13.7318 9.0989 12.5153 10.1538 12.5153 12C12.5153 13.8681 13.7318 14.9231 15.7524 14.7473C16.9277 14.6593 17.8349 14.2637 18.5978 13.8681V15.5604C18.5978 15.5604 17.0926 15.978 15.6493 16.044C12.9895 16.1758 11.3401 15.6264 10.3916 14.7692V24H15.8968C17.9586 24 19.6493 22.2198 19.6493 20V0H14.1442Z" fill="#6D6D6D"/>
</svg>
