<svg width="130" height="60" viewBox="0 0 130 60" fill="none" xmlns="http://www.w3.org/2000/svg">
<path fill-rule="evenodd" clip-rule="evenodd" d="M63.1661 6.1107C63.1661 6.02599 63.1661 5.86504 63.1661 5.76762C63.1661 5.6702 63.1661 5.63631 63.119 5.57278C63.072 5.50925 62.9737 5.41183 62.8753 5.34406C62.777 5.27629 62.6829 5.23393 62.6017 5.20852C62.5204 5.18311 62.4563 5.17464 62.3409 5.16616C62.2254 5.16193 62.0587 5.16193 61.9561 5.16193C61.8535 5.16193 61.815 5.16193 61.7979 5.16193C61.7808 5.16193 61.7808 5.15769 61.7808 5.15346C61.7808 5.14922 61.7808 5.14499 61.7808 5.08992C61.7808 5.03486 61.7808 4.93321 61.7808 4.87815C61.7808 4.82308 61.7808 4.82308 61.7808 4.81885C61.7808 4.81885 61.7893 4.81885 62.4905 4.81885H65.4321C66.2701 4.81885 66.5437 4.81885 66.7532 4.83579C66.967 4.85273 67.1209 4.88238 67.2877 4.94591C67.4587 5.00945 67.6425 5.10263 67.8392 5.25088C68.0359 5.39912 68.2411 5.60666 68.3908 5.81844C68.5404 6.03022 68.6387 6.25047 68.7285 6.48766C68.8183 6.72486 68.8996 6.98323 68.9423 7.27548C68.9808 7.56774 68.9765 7.89388 68.968 8.16495C68.9594 8.4318 68.938 8.64357 68.8953 8.86806C68.8525 9.08831 68.7798 9.3255 68.6986 9.55422C68.6174 9.78718 68.5276 10.0117 68.4036 10.2743C68.2796 10.5326 68.1257 10.8249 67.9333 11.1426C67.7366 11.4602 67.5015 11.8118 67.2064 12.1422C66.9114 12.4768 66.5608 12.7944 66.206 13.0486C65.8468 13.3027 65.4834 13.4975 65.1029 13.6627C64.7181 13.8279 64.3162 13.9635 63.6834 14.1456C63.0506 14.3277 62.1912 14.5564 61.4345 14.7555C60.6734 14.9503 60.015 15.1155 59.6729 15.2045C59.3266 15.2934 59.2924 15.3104 59.2668 15.3231C59.2411 15.34 59.2197 15.3527 59.0615 15.8229C58.9033 16.293 58.6041 17.2164 58.4459 17.7162C58.2877 18.216 58.2663 18.288 58.262 18.3303C58.262 18.3727 58.2748 18.3769 58.3475 18.3134C58.4202 18.2499 58.5442 18.1186 58.7109 17.9788C58.8777 17.839 59.0829 17.695 59.2967 17.5764C59.5105 17.4578 59.7371 17.3646 60.0107 17.2672C60.2843 17.1698 60.605 17.0681 60.9171 16.9961C61.225 16.9241 61.5242 16.8775 61.8278 16.8479C62.1357 16.8182 62.4478 16.8098 62.6744 16.8055C62.901 16.8013 63.0335 16.8013 63.1233 16.8013C63.2131 16.8013 63.2644 16.8013 63.2858 16.7928C63.3114 16.7844 63.3114 16.7716 63.3114 16.4455C63.3114 16.1194 63.3114 15.4883 63.3114 15.1664C63.3114 14.8445 63.3157 14.8318 63.3242 14.8318C63.3328 14.8318 63.3456 14.8318 63.4397 14.8148C63.5338 14.7979 63.7048 14.7597 63.8843 14.7089C64.0639 14.6623 64.252 14.603 64.3846 14.5564C64.5171 14.5098 64.5941 14.4675 64.6368 14.4421C64.6796 14.4124 64.6881 14.3997 64.6967 14.3997C64.7053 14.3997 64.7052 14.4167 64.7052 14.8063C64.7052 15.196 64.7052 15.9669 64.7052 16.3566C64.7052 16.7462 64.7052 16.7632 64.7052 16.7716C64.7052 16.7801 64.7181 16.7801 65.2611 16.7801C65.8041 16.7801 66.8815 16.7801 67.7494 16.7801C68.6174 16.7801 69.2758 16.7801 69.6691 16.7547C70.0625 16.7293 70.195 16.6785 70.3746 16.5641C70.5542 16.4497 70.7765 16.2761 70.9646 16.0601C71.1528 15.8441 71.3024 15.5857 71.4264 15.3697C71.5504 15.1494 71.653 14.9673 71.7171 14.8402C71.7813 14.7132 71.8069 14.6369 71.8283 14.5861C71.8497 14.5395 71.8625 14.5183 71.8796 14.5098C71.8967 14.5014 71.9138 14.5014 71.9566 14.5014C71.9993 14.5014 72.0677 14.5014 72.1019 14.5014C72.1361 14.5014 72.1361 14.5141 72.1233 14.5564C72.1105 14.5988 72.0805 14.6793 71.8924 15.2595C71.7 15.8398 71.3494 16.9157 71.1656 17.462C70.986 18.0042 70.9775 18.0127 70.9304 18.0169C70.8834 18.0211 70.8022 18.0296 69.3613 18.0296C67.9205 18.0296 65.1285 18.0296 63.5423 18.0296C61.9561 18.0296 61.5756 18.0296 61.2036 18.0423C60.8316 18.055 60.4596 18.0847 60.1261 18.1228C59.7927 18.1609 59.4934 18.216 59.2155 18.3219C58.9333 18.4278 58.6682 18.5845 58.4587 18.7835C58.2492 18.9784 58.0953 19.2156 57.9713 19.4655C57.8473 19.7154 57.7618 19.9864 57.6805 20.2067C57.6036 20.4227 57.5352 20.5921 57.4967 20.6768C57.4539 20.7616 57.4368 20.7658 57.4112 20.7573C57.3855 20.7531 57.347 20.7404 57.2957 20.7234C57.2444 20.7065 57.1718 20.6896 57.1375 20.6726C57.1033 20.6557 57.1119 20.643 57.1247 20.6175C57.1375 20.5964 57.1504 20.5667 57.2273 20.3719C57.3043 20.1771 57.4411 19.8213 57.6121 19.3342C57.7832 18.8471 57.9841 18.2329 58.1466 17.7204C58.3133 17.2079 58.4459 16.7928 58.5485 16.4582C58.6511 16.1236 58.7238 15.8695 58.7751 15.7085C58.8221 15.5476 58.8478 15.4756 58.852 15.4417C58.8563 15.4078 58.852 15.412 58.7879 15.4205C58.728 15.429 58.6169 15.4501 58.3817 15.5433C58.1509 15.6365 57.796 15.8102 57.5138 16.0008C57.2316 16.1914 57.0221 16.4032 56.8468 16.6276C56.6758 16.8479 56.539 17.0808 56.4406 17.3011C56.3423 17.5171 56.2867 17.7247 56.2397 17.9364C56.1969 18.1482 56.1627 18.3685 56.1585 18.5929C56.1542 18.8174 56.1713 19.0462 56.2226 19.2918C56.2739 19.5375 56.3594 19.7958 56.4748 20.0627C56.5903 20.3295 56.7271 20.6006 56.9067 20.8251C57.082 21.0496 57.2957 21.2275 57.5181 21.3757C57.7404 21.524 57.967 21.6468 58.1979 21.7484C58.4288 21.8543 58.6554 21.939 58.9418 21.9941C59.2283 22.0449 59.5661 22.0661 59.891 22.028C60.2159 21.9941 60.528 21.9052 60.8102 21.7908C61.0967 21.6764 61.3532 21.5409 61.5841 21.3884C61.815 21.2402 62.0202 21.0792 62.1998 20.9056C62.3794 20.7319 62.5418 20.5413 62.6273 20.4397C62.7128 20.338 62.7257 20.3168 62.7342 20.3084C62.7428 20.2956 62.7471 20.2914 62.7556 20.2872C62.7642 20.2872 62.7813 20.2872 62.8625 20.2872C62.9395 20.2872 63.0763 20.2872 63.1447 20.2872C63.2131 20.2872 63.2088 20.2872 63.2045 20.2956C63.2045 20.2999 63.196 20.3084 63.1404 20.3888C63.0848 20.4651 62.9737 20.6133 62.8368 20.7785C62.7 20.9437 62.5418 21.1258 62.3452 21.3122C62.1485 21.4986 61.9176 21.6849 61.691 21.8459C61.4644 22.0111 61.2506 22.1508 61.024 22.2652C60.8017 22.3838 60.5665 22.4727 60.3485 22.5405C60.1304 22.6083 59.9209 22.6506 59.6986 22.6718C59.4763 22.693 59.2326 22.6887 58.9974 22.6676C58.7623 22.6464 58.5314 22.6083 58.2449 22.4854C57.9584 22.3626 57.6164 22.1593 57.3599 21.9772C57.1033 21.795 56.9323 21.6383 56.787 21.4562C56.6373 21.2741 56.5133 21.0665 56.3936 20.8209C56.2739 20.5752 56.1542 20.2999 56.0644 20.0288C55.9746 19.762 55.919 19.5036 55.8763 19.241C55.8378 18.9784 55.8164 18.7115 55.8164 18.4871C55.8164 18.2668 55.8292 18.0931 55.8592 17.8941C55.8891 17.695 55.9276 17.462 56.0045 17.1994C56.0815 16.9368 56.1927 16.6403 56.3252 16.3735C56.4535 16.1067 56.5988 15.8737 56.7656 15.6492C56.9366 15.429 57.129 15.2172 57.347 15.0435C57.5651 14.8699 57.8045 14.7259 58.0867 14.5903C58.3689 14.4505 58.6938 14.315 58.8734 14.243C59.053 14.171 59.0829 14.1625 59.1128 14.1541C59.1428 14.1456 59.177 14.1371 59.2026 14.1159C59.2283 14.0948 59.2454 14.0651 59.2881 13.9126C59.3309 13.7602 59.395 13.4848 59.4549 13.2434C59.5147 13.002 59.5746 12.7944 59.6729 12.481C59.7713 12.1718 59.9124 11.7567 60.0791 11.312C60.2459 10.8673 60.4383 10.3929 60.6136 9.99896C60.7889 9.60505 60.947 9.28738 61.1437 8.91465C61.3447 8.54192 61.5841 8.11413 61.8364 7.74563C62.0886 7.37714 62.3537 7.07217 62.5461 6.8604C62.7385 6.64862 62.8582 6.53426 62.9437 6.46225C63.025 6.39025 63.072 6.35636 63.1019 6.33095C63.1361 6.30554 63.1575 6.28436 63.1661 6.27589C63.1746 6.26318 63.1746 6.25894 63.1746 6.25047C63.1746 6.242 63.1746 6.22929 63.1746 6.22082C63.1746 6.21235 63.1746 6.19965 63.1746 6.19541C63.1746 6.19117 63.1746 6.18694 63.1746 6.10646M65.586 5.62361C65.7014 5.61514 65.9195 5.59819 66.1547 5.62361C66.3898 5.64902 66.6421 5.72103 66.89 5.82692C67.138 5.9328 67.3775 6.06834 67.5827 6.25471C67.7879 6.44107 67.9547 6.67403 68.0958 6.89852C68.2326 7.123 68.3437 7.33478 68.4164 7.57621C68.4891 7.82187 68.519 8.09718 68.5148 8.3852C68.5148 8.66899 68.472 8.96548 68.395 9.2535C68.3181 9.54152 68.2112 9.81683 68.0573 10.0921C67.9033 10.3675 67.7024 10.647 67.5057 10.8969C67.3091 11.1468 67.1167 11.3755 66.843 11.5915C66.5694 11.8075 66.2188 12.0193 65.9665 12.1633C65.7143 12.3073 65.5604 12.3836 65.4064 12.4598C65.2482 12.5361 65.09 12.6038 64.9917 12.6462C64.8934 12.6885 64.8506 12.7055 64.8164 12.7097C64.7822 12.7097 64.7523 12.697 64.7395 12.6801C64.7266 12.6589 64.7266 12.6335 64.7309 11.6678C64.7309 10.7021 64.7309 8.79605 64.7309 7.77104C64.7309 6.74604 64.7309 6.59779 64.7309 6.51731C64.7309 6.43684 64.7309 6.4199 64.7181 6.41142C64.7095 6.40295 64.6924 6.39872 64.5984 6.44531C64.5043 6.4919 64.329 6.58508 64.1494 6.69521C63.9699 6.80533 63.786 6.92816 63.6535 7.02558C63.5209 7.123 63.4354 7.20348 63.3841 7.2543C63.3328 7.30513 63.32 7.33478 63.3072 7.36019C63.2986 7.38561 63.29 7.40255 63.29 8.28779C63.29 9.17302 63.29 10.9308 63.29 11.8541C63.29 12.7775 63.29 12.8707 63.29 12.9342C63.29 12.9977 63.29 13.0274 63.2815 13.0528C63.2687 13.0782 63.2473 13.0952 62.9694 13.1714C62.6915 13.2476 62.1528 13.3832 61.6055 13.523C61.0582 13.6627 60.4981 13.8025 60.1817 13.883C59.8611 13.9635 59.7798 13.9804 59.7371 13.9804C59.6943 13.9804 59.6858 13.955 59.6858 13.9169C59.6858 13.8787 59.69 13.8279 59.767 13.5272C59.844 13.2265 59.9893 12.6716 60.2031 12.0363C60.4169 11.3967 60.6991 10.6767 60.9599 10.0879C61.2207 9.49916 61.4644 9.05019 61.7124 8.65205C61.9604 8.2539 62.2169 7.91082 62.4734 7.60586C62.7299 7.3009 62.9865 7.03405 63.2601 6.79686C63.5338 6.55967 63.8288 6.34789 64.1109 6.1827C64.3931 6.01328 64.6668 5.89045 64.8677 5.80997C65.0687 5.7295 65.2012 5.69138 65.2867 5.6702C65.3722 5.64902 65.4064 5.64478 65.4321 5.64055C65.4577 5.64055 65.4706 5.64055 65.5903 5.62784L65.586 5.62361ZM61.7808 19.817C61.7808 19.7916 61.7808 19.7577 61.7808 19.7196C61.7808 19.6815 61.7808 19.6391 61.7851 19.6222C61.7893 19.6052 61.7979 19.6052 61.8962 19.6095C61.9946 19.6095 62.1827 19.6095 62.3238 19.6095C62.4649 19.6095 62.5589 19.6095 62.653 19.5883C62.747 19.5671 62.8411 19.5205 62.9309 19.4485C63.0164 19.3765 63.0934 19.2833 63.1447 19.2029C63.196 19.1266 63.2259 19.0631 63.2387 18.9911C63.2516 18.9191 63.2516 18.8301 63.2516 18.7539C63.2516 18.6777 63.2516 18.6141 63.2516 18.576C63.2516 18.5379 63.2516 18.5252 63.2516 18.5209C63.2516 18.5125 63.2516 18.5125 63.2644 18.5125C63.2729 18.5125 63.2858 18.5125 63.5295 18.5125C63.7732 18.5125 64.2435 18.5125 64.4786 18.5125C64.7138 18.5125 64.7181 18.5125 64.7224 18.5167C64.7224 18.5167 64.7224 18.5252 64.7224 18.5548C64.7224 18.5845 64.7223 18.6353 64.7309 18.6946C64.7395 18.7539 64.7437 18.8132 64.7822 18.8894C64.8207 18.9657 64.8848 19.0589 64.9575 19.1182C65.0302 19.1775 65.1114 19.1986 65.2012 19.2113C65.291 19.224 65.3851 19.2325 65.8725 19.2368C66.3599 19.2368 67.2406 19.2368 67.9376 19.2368H70.7252C71.0202 19.2368 71.2297 19.2368 71.3794 19.224C71.5333 19.2113 71.6273 19.1817 71.7471 19.1309C71.8625 19.08 71.9993 19.008 72.149 18.9021C72.2986 18.7963 72.4525 18.6607 72.5851 18.5082C72.7176 18.36 72.8245 18.199 72.9314 18.0254C73.0383 17.8517 73.1452 17.6696 73.2093 17.5468C73.2734 17.4239 73.2948 17.3646 73.3205 17.2757C73.3461 17.1867 73.3803 17.0766 73.4017 17.0131C73.4231 16.9495 73.4273 16.9368 73.4359 16.9284C73.4444 16.9241 73.4573 16.9284 73.5043 16.9284C73.5513 16.9284 73.6326 16.9284 73.6753 16.9284C73.7181 16.9284 73.7266 16.9284 73.7266 16.9368C73.7266 16.9411 73.7266 16.9538 73.7181 16.9834C73.7053 17.0131 73.6839 17.0554 73.6711 17.0935C73.6582 17.1359 73.6497 17.174 73.5428 17.4832C73.4359 17.7924 73.2307 18.3769 73.0939 18.7963C72.957 19.2156 72.8886 19.4697 72.8501 19.6137C72.8117 19.762 72.8074 19.7958 72.7988 19.817C72.7946 19.8382 72.786 19.8424 72.7775 19.8467C72.7646 19.8467 72.7475 19.8467 71.1656 19.8467H61.8022C61.8022 19.8467 61.7936 19.8467 61.7893 19.8382C61.7893 19.8297 61.7851 19.817 61.7808 19.7916V19.817Z" fill="white"/>
<path fill-rule="evenodd" clip-rule="evenodd" d="M64.586 1.17201C64.3338 1.06189 63.8848 0.850107 63.4103 0.676448C62.94 0.502789 62.4483 0.35878 61.9566 0.248655C61.4649 0.13853 60.9732 0.0538183 60.4986 0.0199336C60.024 -0.013951 59.5623 -0.00124425 59.139 0.0326404C58.7157 0.066525 58.3309 0.125823 57.8264 0.25289C57.3219 0.384193 56.6977 0.587501 56.1461 0.888227C55.5946 1.18895 55.1114 1.58286 54.7865 1.93865C54.4616 2.29444 54.2863 2.61211 54.158 2.93401C54.0297 3.25591 53.9442 3.57782 53.9399 3.90819C53.9357 4.2428 54.0041 4.58589 54.1152 4.87391C54.2264 5.15769 54.3761 5.38217 54.5642 5.57278C54.7523 5.76338 54.9789 5.92433 55.2269 6.01751C55.4749 6.11493 55.7442 6.14458 56.0221 6.1234C56.3 6.10222 56.5908 6.02598 56.8559 5.89468C57.1209 5.76338 57.3604 5.58125 57.5143 5.36947C57.6682 5.15769 57.7409 4.9205 57.7495 4.68754C57.758 4.45458 57.7024 4.22163 57.5485 4.0522C57.3946 3.88278 57.1423 3.78113 56.9114 3.75995C56.6806 3.73877 56.4668 3.8023 56.2872 3.92514C56.1034 4.04797 55.9537 4.23433 55.8981 4.4207C55.8426 4.60706 55.881 4.79767 55.9537 4.94591C56.0221 5.09839 56.1248 5.20852 56.206 5.27205C56.2915 5.33558 56.3599 5.34829 56.2872 5.35676C56.2145 5.36523 56.005 5.3737 55.8468 5.36947C55.6886 5.36523 55.586 5.34829 55.4278 5.26358C55.2696 5.17887 55.0601 5.03062 54.9233 4.81461C54.7865 4.59436 54.7224 4.30634 54.7266 4.00138C54.7266 3.69641 54.8036 3.37875 54.9062 3.11614C55.0088 2.85353 55.1456 2.65023 55.3808 2.41727C55.6117 2.18431 55.9366 1.92171 56.2829 1.71416C56.625 1.50662 56.9884 1.35838 57.3946 1.22707C57.8008 1.09577 58.254 0.985645 58.7713 0.917876C59.2886 0.850107 59.8658 0.824693 60.3704 0.833165C60.8749 0.841636 61.3024 0.883991 61.7514 0.972939C62.2003 1.06189 62.6749 1.18895 63.0297 1.30331C63.3889 1.41767 63.6283 1.51509 63.7609 1.57863C63.8934 1.64216 63.9105 1.67181 63.8806 1.70569C63.8506 1.73958 63.7694 1.7777 63.2863 2.07842C62.8031 2.37915 61.9138 2.93825 60.9775 3.56088C60.0411 4.17927 59.0535 4.85696 58.3181 5.33558C57.5827 5.8142 57.0953 6.09375 56.6677 6.32247C56.2402 6.55119 55.8725 6.73332 55.6117 6.84345C55.3509 6.95357 55.1927 6.99169 55.0901 7.00864C54.9875 7.02558 54.9361 7.02558 54.9019 7.00864C54.8677 6.99169 54.8549 6.95781 54.7437 6.74603C54.6326 6.53849 54.4316 6.15305 54.1409 5.75491C53.8502 5.35676 53.4696 4.94168 53.0207 4.59012C52.5675 4.23857 52.0459 3.94631 51.4772 3.70912C50.9086 3.47617 50.3015 3.29827 49.72 3.17967C49.1428 3.06108 48.5955 2.99754 48.1209 2.95519C47.6464 2.91283 47.2445 2.89166 46.9836 2.88318C46.7228 2.87471 46.6074 2.88318 46.5518 2.90013C46.4962 2.91283 46.5048 2.92978 46.5604 3.01025C46.616 3.09496 46.7186 3.24744 46.9238 3.54817C47.129 3.8489 47.4326 4.29787 47.7319 4.70872C48.0312 5.11957 48.3262 5.49654 48.6682 5.85656C49.0103 6.21658 49.3993 6.5639 49.7798 6.86039C50.1646 7.15688 50.5409 7.39831 50.9342 7.59315C51.3276 7.79222 51.7423 7.9447 52.1228 8.03788C52.5034 8.13106 52.8454 8.16918 53.1789 8.18189C53.5124 8.1946 53.8331 8.18613 54.0468 8.16918C54.2649 8.15224 54.3761 8.11836 54.4359 8.11836C54.4958 8.11836 54.5043 8.1353 54.5342 8.27507C54.5642 8.41485 54.6198 8.66898 54.6625 9.18149C54.7053 9.69823 54.7395 10.4733 54.7437 11.1722C54.7523 11.8711 54.7309 12.4895 54.701 13.1968C54.6711 13.9042 54.6283 14.7004 54.5984 15.4586C54.5642 16.2125 54.5385 16.9284 54.5214 17.5933C54.5043 18.2541 54.4915 18.864 54.4915 19.4273C54.4915 19.9907 54.5 20.499 54.5086 20.7785C54.5171 21.058 54.5214 21.1004 54.5171 21.1343C54.5129 21.1639 54.4958 21.1851 54.3034 21.1851C54.111 21.1851 53.7347 21.1766 53.3456 21.1978C52.9566 21.219 52.5547 21.2741 52.157 21.3927C51.7551 21.5113 51.3575 21.6934 50.9599 21.9983C50.5623 22.3033 50.1689 22.7353 49.891 23.214C49.6131 23.6926 49.4549 24.222 49.4122 24.7896C49.3694 25.3572 49.4506 25.9628 49.6003 26.4542C49.7499 26.9455 49.968 27.3225 50.2801 27.6571C50.5922 27.9917 50.9984 28.2839 51.5328 28.5381C52.0673 28.7922 52.73 29.0082 53.3243 29.1056C53.9186 29.2031 54.4487 29.1819 54.9105 29.1099C55.3722 29.0421 55.7699 28.9277 56.0563 28.7753C56.3428 28.6228 56.5224 28.4322 56.6036 28.1992C56.6891 27.9663 56.6763 27.691 56.5737 27.4749C56.4668 27.2589 56.2658 27.1022 56.0521 27.0175C55.834 26.9328 55.6031 26.9201 55.4107 26.954C55.2141 26.9879 55.0559 27.0641 54.9404 27.1827C54.825 27.3013 54.7523 27.458 54.7352 27.602C54.7138 27.7418 54.7437 27.8646 54.8036 27.9832C54.8635 28.1018 54.949 28.2119 55.0259 28.2755C55.1029 28.339 55.167 28.3559 55.1585 28.3729C55.1499 28.3898 55.0601 28.4025 54.8934 28.4279C54.7266 28.4576 54.4744 28.5 54.1794 28.4957C53.8801 28.4957 53.5338 28.4407 53.2131 28.3729C52.8967 28.3051 52.606 28.2246 52.2639 28.0722C51.9219 27.9239 51.52 27.7037 51.1779 27.4156C50.8359 27.1276 50.5494 26.7634 50.3699 26.4118C50.1903 26.0603 50.1176 25.7214 50.1048 25.3444C50.0877 24.9675 50.1304 24.5566 50.2331 24.1839C50.3357 23.8154 50.5067 23.485 50.7589 23.1885C51.0112 22.8921 51.349 22.621 51.7081 22.4346C52.063 22.2525 52.4392 22.1508 52.7684 22.0788C53.1019 22.0068 53.3884 21.956 53.6834 21.9348C53.9742 21.9094 54.2649 21.9094 54.4231 21.9179C54.5813 21.9263 54.5984 21.939 54.6155 22.0153C54.6326 22.0915 54.6454 22.2228 54.6967 22.5151C54.748 22.8073 54.8378 23.2563 54.9704 23.6883C55.1029 24.1161 55.2782 24.527 55.5133 24.9336C55.7485 25.3402 56.0478 25.7426 56.3514 26.0603C56.6549 26.3779 56.967 26.6067 57.2535 26.7761C57.54 26.9455 57.8008 27.0556 58.0744 27.1446C58.3438 27.2335 58.6259 27.2971 58.9723 27.3267C59.3186 27.3563 59.7376 27.3521 60.2036 27.3182C60.6696 27.2843 61.187 27.225 61.6017 27.153C62.0164 27.081 62.3328 26.9963 62.5381 26.937C62.7433 26.882 62.8373 26.8523 62.9656 26.8989C63.0939 26.9455 63.2563 27.0683 63.4915 27.2378C63.7267 27.4029 64.0388 27.6147 64.1927 27.7248C64.3466 27.835 64.3466 27.8519 64.1115 28.0171C63.872 28.1823 63.3974 28.4957 62.8459 28.8515C62.2944 29.2073 61.6701 29.597 61.2597 29.8426C60.8492 30.0883 60.6568 30.1857 60.5371 30.2281C60.4174 30.2704 60.3704 30.2535 60.1267 30.1222C59.8829 29.9866 59.4383 29.7367 59.015 29.5334C58.5917 29.3301 58.1856 29.1819 57.7837 29.1184C57.3775 29.0548 56.9756 29.0845 56.6635 29.2242C56.3513 29.364 56.1333 29.6139 56.0008 29.8511C55.6202 30.5373 56.0521 31.5072 56.7148 31.8206C56.9756 31.9435 57.3091 31.9816 57.6597 31.9731C58.006 31.9647 58.3694 31.9138 58.72 31.8291C59.0706 31.7486 59.4084 31.6385 59.6478 31.5369C59.8872 31.4394 60.0283 31.3505 60.1352 31.2954C60.2421 31.2404 60.319 31.2192 60.4687 31.2658C60.6183 31.3124 60.8407 31.4225 61.2725 31.7021C61.7086 31.9816 62.3542 32.4348 62.8331 32.7821C63.3119 33.1294 63.6155 33.3709 63.8293 33.553C64.0473 33.7351 64.1713 33.8622 64.2183 33.9384C64.2611 34.0147 64.2226 34.0359 64.0901 34.2053C63.9575 34.3747 63.7267 34.6881 63.5428 34.9973C63.359 35.3065 63.2136 35.6073 63.0597 35.9757C62.9015 36.3442 62.7347 36.772 62.6663 37.293C62.6022 37.814 62.6407 38.4197 62.7433 38.9237C62.8502 39.4277 63.0169 39.8301 63.235 40.2113C63.453 40.5883 63.7181 40.9441 63.9618 41.2321C64.2055 41.5159 64.4321 41.7319 64.5775 41.8463C64.7143 41.9564 64.7784 41.9733 64.8212 41.9733C64.8639 41.9733 64.9281 41.9564 65.0649 41.8463C65.2103 41.7319 65.4369 41.5159 65.6806 41.2321C65.9243 40.9483 66.1894 40.5925 66.4074 40.2113C66.6255 39.8301 66.7965 39.4277 66.8991 38.9237C67.006 38.4197 67.0445 37.8098 66.9761 37.293C66.9119 36.772 66.7409 36.3442 66.5827 35.9757C66.4245 35.6073 66.2834 35.3065 66.0996 34.9973C65.9157 34.6881 65.6849 34.3747 65.5523 34.2053C65.4198 34.0359 65.3813 34.0147 65.424 33.9384C65.4668 33.8622 65.5951 33.7394 65.8131 33.553C66.0312 33.3709 66.3347 33.1252 66.8093 32.7821C67.2839 32.4348 67.9338 31.9858 68.3699 31.7021C68.806 31.4225 69.024 31.3124 69.1737 31.2658C69.3233 31.2192 69.4003 31.2404 69.5072 31.2954C69.6141 31.3505 69.7552 31.4394 69.9946 31.5369C70.234 31.6385 70.5718 31.7486 70.9224 31.8291C71.273 31.9096 71.6321 31.9647 71.9827 31.9731C72.329 31.9816 72.6668 31.9435 72.9276 31.8206C73.5903 31.5072 74.0179 30.5373 73.6416 29.8511C73.5091 29.6139 73.291 29.364 72.9789 29.2242C72.6668 29.0845 72.2649 29.0548 71.8587 29.1184C71.4526 29.1819 71.0507 29.3301 70.6274 29.5334C70.2041 29.7367 69.7594 29.9866 69.5157 30.1222C69.272 30.2577 69.225 30.2704 69.1053 30.2281C68.9856 30.1857 68.7932 30.0883 68.3827 29.8426C67.9723 29.597 67.348 29.2031 66.7965 28.8515C66.2449 28.4957 65.7704 28.1823 65.5309 28.0171C65.2915 27.8519 65.2915 27.835 65.4497 27.7248C65.6036 27.6147 65.9157 27.4029 66.1509 27.2378C66.386 27.0726 66.5485 26.9497 66.6768 26.8989C66.805 26.8523 66.8991 26.8777 67.1043 26.937C67.3096 26.9921 67.6259 27.081 68.0407 27.153C68.4554 27.225 68.9727 27.2886 69.4388 27.3182C69.9048 27.3521 70.3238 27.3563 70.6701 27.3267C71.0207 27.2971 71.2986 27.2293 71.568 27.1446C71.8374 27.0556 72.1024 26.9455 72.3889 26.7761C72.6754 26.6067 72.9832 26.3779 73.291 26.0603C73.5946 25.7426 73.8939 25.3402 74.129 24.9336C74.3642 24.527 74.5395 24.1204 74.672 23.6883C74.8046 23.2605 74.8944 22.8073 74.9457 22.5151C74.997 22.2228 75.0098 22.0873 75.0269 22.0153C75.044 21.939 75.0654 21.9263 75.2193 21.9179C75.3775 21.9094 75.6682 21.9094 75.959 21.9348C76.2497 21.9602 76.5404 22.0068 76.8739 22.0788C77.2074 22.1508 77.5794 22.2482 77.9343 22.4346C78.2891 22.6167 78.6269 22.8878 78.8834 23.1885C79.1357 23.485 79.3024 23.8154 79.4093 24.1839C79.5119 24.5524 79.5547 24.9675 79.5376 25.3444C79.5205 25.7214 79.4521 26.0603 79.2725 26.4118C79.0929 26.7634 78.8065 27.1276 78.4644 27.4156C78.1224 27.7037 77.7205 27.9239 77.3784 28.0722C77.0364 28.2204 76.7499 28.3051 76.4293 28.3729C76.1129 28.4407 75.7623 28.4915 75.463 28.4957C75.1637 28.4957 74.9157 28.4576 74.749 28.4279C74.5822 28.3983 74.4967 28.3856 74.4839 28.3729C74.4754 28.3559 74.5395 28.339 74.6165 28.2755C74.6934 28.2119 74.7789 28.1018 74.8388 27.9832C74.8986 27.8646 74.9286 27.7418 74.9072 27.602C74.8858 27.4622 74.8174 27.3013 74.702 27.1827C74.5865 27.0641 74.424 26.9879 74.2317 26.954C74.035 26.9201 73.8041 26.9328 73.5903 27.0175C73.3723 27.1022 73.1713 27.2589 73.0687 27.4749C72.9618 27.691 72.9533 27.9663 73.0388 28.1992C73.1243 28.4322 73.2996 28.6228 73.586 28.7753C73.8725 28.9277 74.2701 29.0421 74.7319 29.1099C75.1936 29.1776 75.7238 29.1988 76.3181 29.1056C76.9124 29.0082 77.5751 28.7922 78.1096 28.5381C78.644 28.2839 79.0502 27.9917 79.3623 27.6571C79.6744 27.3225 79.8925 26.9455 80.0421 26.4542C80.1918 25.9628 80.2687 25.3572 80.2302 24.7896C80.1875 24.222 80.0293 23.6926 79.7514 23.214C79.4735 22.7353 79.0801 22.3033 78.6825 21.9983C78.2849 21.6934 77.8872 21.5113 77.4853 21.3927C77.0834 21.2741 76.6815 21.219 76.2967 21.1978C75.9077 21.1766 75.5357 21.1893 75.339 21.1851C75.1466 21.1851 75.1295 21.1639 75.1252 21.1343C75.121 21.1046 75.1252 21.058 75.1338 20.7785C75.1423 20.499 75.1509 19.9907 75.1509 19.4273C75.1509 18.864 75.1423 18.2583 75.121 17.5933C75.1039 16.9326 75.0782 16.2168 75.044 15.4586C75.0098 14.7047 74.9713 13.9084 74.9414 13.1968C74.9115 12.4895 74.8901 11.8711 74.8986 11.1722C74.9072 10.4733 74.9371 9.69823 74.9799 9.18149C75.0226 8.66475 75.0782 8.41061 75.1081 8.27507C75.1381 8.1353 75.1466 8.11412 75.2065 8.11836C75.2663 8.11836 75.3775 8.15224 75.5955 8.16918C75.8136 8.18613 76.13 8.1946 76.4635 8.18189C76.797 8.16918 77.139 8.13106 77.5153 8.03788C77.8958 7.9447 78.3105 7.78798 78.7039 7.59315C79.0972 7.39407 79.4777 7.15265 79.8583 6.86039C80.2431 6.5639 80.6279 6.21658 80.9742 5.85656C81.3162 5.49654 81.6112 5.11957 81.9105 4.70872C82.2098 4.29787 82.5176 3.8489 82.7186 3.54817C82.9238 3.24744 83.0264 3.09496 83.082 3.01025C83.1376 2.92554 83.1461 2.9086 83.0906 2.90013C83.035 2.88742 82.9195 2.87895 82.6587 2.88318C82.3979 2.88742 81.996 2.91283 81.5214 2.95519C81.0469 2.99754 80.4996 3.06108 79.9224 3.17967C79.3452 3.29827 78.7338 3.47617 78.1652 3.70912C77.5965 3.94208 77.0749 4.23433 76.6217 4.59012C76.1685 4.94168 75.7922 5.35676 75.5015 5.75491C75.2107 6.15305 75.0055 6.53425 74.8986 6.74603C74.7875 6.95357 74.7746 6.99169 74.7404 7.00864C74.7062 7.02558 74.6549 7.02558 74.5523 7.00864C74.4497 6.98746 74.2958 6.95357 74.0307 6.84345C73.7699 6.73332 73.4022 6.55119 72.9746 6.32247C72.5471 6.09375 72.0597 5.8142 71.3243 5.33558C70.5889 4.85696 69.6012 4.17927 68.6649 3.56088C67.7286 2.94248 66.8392 2.37915 66.3561 2.07842C65.873 1.7777 65.7917 1.73958 65.7575 1.70569C65.7276 1.67181 65.749 1.64216 65.8773 1.57863C66.0098 1.51509 66.2492 1.41767 66.6084 1.30331C66.9675 1.18895 67.4378 1.05765 67.8868 0.972939C68.3357 0.883991 68.7632 0.841636 69.2677 0.833165C69.7723 0.824693 70.3495 0.850107 70.8668 0.917876C71.3841 0.985645 71.8374 1.09577 72.2435 1.22707C72.6497 1.35838 73.0131 1.51086 73.3552 1.71416C73.6972 1.92171 74.0222 2.18431 74.253 2.41727C74.4839 2.65023 74.6207 2.85353 74.7276 3.11614C74.8302 3.37875 74.9029 3.69641 74.9072 4.00138C74.9072 4.30634 74.8473 4.59436 74.7105 4.81461C74.5737 5.03486 74.3642 5.1831 74.206 5.26358C74.0478 5.34829 73.9452 5.36523 73.787 5.36947C73.6288 5.3737 73.4193 5.36947 73.3466 5.35676C73.2739 5.34829 73.3466 5.33558 73.4279 5.27205C73.5134 5.20852 73.6117 5.09416 73.6801 4.94591C73.7485 4.79343 73.7913 4.60706 73.7357 4.4207C73.6801 4.23433 73.5262 4.0522 73.3466 3.92514C73.1628 3.8023 72.9533 3.73877 72.7224 3.75995C72.4915 3.78113 72.2393 3.88278 72.0853 4.0522C71.9314 4.22163 71.8758 4.45035 71.8844 4.68754C71.8929 4.9205 71.9613 5.15769 72.1195 5.36947C72.2735 5.58125 72.5129 5.76338 72.778 5.89468C73.0431 6.02598 73.3338 6.09799 73.6117 6.1234C73.8896 6.14458 74.1632 6.11069 74.4069 6.01751C74.6549 5.92009 74.8815 5.76338 75.0697 5.57278C75.2578 5.38217 75.4074 5.15769 75.5186 4.87391C75.6298 4.59012 75.7024 4.2428 75.6939 3.90819C75.6896 3.57358 75.6041 3.25168 75.4758 2.93401C75.3476 2.61211 75.1765 2.29867 74.8473 1.93865C74.5224 1.58286 74.0393 1.18472 73.4877 0.888227C72.9362 0.587501 72.3119 0.384193 71.8074 0.25289C71.3029 0.121588 70.9181 0.066525 70.4948 0.0326404C70.0716 -0.00124425 69.6098 -0.013951 69.1352 0.0199336C68.6606 0.0538183 68.1689 0.13853 67.6772 0.248655C67.1856 0.35878 66.6939 0.502789 66.2236 0.676448C65.7533 0.850107 65.3001 1.06189 65.0478 1.17201C64.9366 1.22284 64.864 1.25249 64.8169 1.27366C64.7699 1.25249 64.6972 1.22284 64.586 1.17201ZM64.8169 41.0373C64.7186 40.9483 64.5775 40.8213 64.3894 40.5883C64.1713 40.3172 63.8891 39.9021 63.6967 39.504C63.5043 39.1058 63.4017 38.7289 63.3547 38.3773C63.3119 38.0258 63.3248 37.6996 63.3974 37.3354C63.4701 36.9669 63.6027 36.5603 63.7822 36.1748C63.9618 35.7851 64.1927 35.4209 64.3851 35.1413C64.5732 34.866 64.7271 34.6754 64.8126 34.5357C64.8982 34.6754 65.0521 34.866 65.2402 35.1413C65.4326 35.4209 65.6592 35.7894 65.843 36.1748C66.0226 36.5645 66.1552 36.9711 66.2278 37.3354C66.3005 37.7039 66.3176 38.0258 66.2706 38.3773C66.2278 38.7289 66.121 39.1058 65.9286 39.504C65.7362 39.9021 65.4582 40.3172 65.2359 40.5883C65.0478 40.8213 64.9067 40.9483 64.8084 41.0373H64.8169ZM64.8169 33.3836C64.7357 33.32 64.6117 33.2311 64.4236 33.0956C64.1243 32.8795 63.6625 32.528 63.3248 32.2908C62.987 32.0536 62.7775 31.9223 62.4654 31.719C62.1533 31.5157 61.7343 31.2361 61.4991 31.0794C61.2639 30.9227 61.2169 30.8804 61.1955 30.8465C61.1784 30.8083 61.1913 30.7745 61.3324 30.6686C61.4777 30.5627 61.7514 30.389 62.1148 30.1603C62.4825 29.9316 62.94 29.652 63.3718 29.364C63.8036 29.076 64.2055 28.7837 64.4407 28.6058C64.6715 28.428 64.7357 28.3729 64.7998 28.3178L64.8169 28.3009L64.834 28.3178C64.8982 28.3687 64.958 28.428 65.1932 28.6058C65.424 28.7837 65.8302 29.076 66.262 29.364C66.6939 29.652 67.1514 29.9316 67.5148 30.1603C67.8825 30.389 68.1561 30.5627 68.2972 30.6686C68.4426 30.7745 68.4554 30.8083 68.434 30.8465C68.4169 30.8846 68.3656 30.9227 68.1305 31.0794C67.8953 31.2361 67.4763 31.5157 67.1642 31.719C66.8521 31.9223 66.6383 32.0536 66.3048 32.2908C65.967 32.528 65.5053 32.8753 65.206 33.0956C65.0179 33.2311 64.8939 33.3158 64.8126 33.3836H64.8169ZM64.8169 27.3479C64.7742 27.3182 64.7271 27.2801 64.6758 27.242C64.415 27.0514 63.9832 26.7464 63.4487 26.361C62.9143 25.9756 62.273 25.5054 61.6872 25.0903C61.1057 24.6752 60.5756 24.3152 59.9941 23.9255C59.4126 23.5359 58.7756 23.1165 58.1685 22.7607C57.5613 22.4007 56.9927 22.1 56.5395 21.884C56.0905 21.668 55.7613 21.5282 55.5775 21.435C55.3936 21.3376 55.3551 21.2825 55.338 21.2317C55.3209 21.1809 55.3209 21.1301 55.3038 20.6684C55.291 20.2067 55.2611 19.3384 55.2739 18.3346C55.2867 17.3307 55.3381 16.1914 55.3979 15.0816C55.4578 13.9677 55.5219 12.8834 55.5433 12.0024C55.5689 11.1214 55.5518 10.4395 55.5176 9.88459C55.4834 9.32973 55.4278 8.90618 55.3765 8.60545C55.3295 8.30472 55.2867 8.12683 55.2696 8.02094C55.2525 7.91505 55.2611 7.88117 55.2953 7.85152C55.3295 7.8261 55.3936 7.80916 55.6459 7.6948C55.8981 7.58044 56.3428 7.3729 56.8131 7.13147C57.2877 6.89004 57.7879 6.61896 58.3395 6.28012C58.891 5.94127 59.4896 5.53466 60.0625 5.14075C60.6354 4.74684 61.187 4.36564 61.7172 3.99714C62.2473 3.62441 62.7604 3.26439 63.2307 2.95095C63.701 2.63752 64.1286 2.37491 64.4022 2.21396C64.6074 2.09113 64.7271 2.0276 64.8041 1.97254C64.8811 2.0276 65.0008 2.09113 65.206 2.21396C65.4796 2.37491 65.9072 2.63752 66.3775 2.95095C66.8478 3.26439 67.3609 3.62441 67.891 3.99714C68.4212 4.36987 68.9727 4.75107 69.5457 5.14075C70.1186 5.53466 70.7172 5.94127 71.2687 6.28012C71.8202 6.61896 72.3248 6.89004 72.7951 7.13147C73.2697 7.3729 73.71 7.58044 73.9623 7.6948C74.2146 7.80916 74.2787 7.8261 74.3129 7.85152C74.3471 7.87693 74.3556 7.91505 74.3385 8.02094C74.3214 8.12683 74.283 8.30472 74.2317 8.60545C74.1846 8.90618 74.129 9.33397 74.0906 9.88459C74.0564 10.4395 74.0393 11.1171 74.0649 12.0024C74.0906 12.8834 74.1547 13.9719 74.2103 15.0816C74.2701 16.1956 74.3214 17.3307 74.3343 18.3346C74.3471 19.3384 74.3172 20.2067 74.3043 20.6684C74.2915 21.1301 74.2915 21.1766 74.2701 21.2317C74.253 21.2825 74.2145 21.3418 74.0307 21.435C73.8469 21.5324 73.5176 21.668 73.0687 21.884C72.6198 22.1 72.0469 22.4007 71.4397 22.7607C70.8326 23.1208 70.1955 23.5401 69.6141 23.9255C69.0326 24.3152 68.5067 24.6752 67.921 25.0903C67.3352 25.5054 66.6982 25.9756 66.1594 26.361C65.625 26.7464 65.1932 27.0514 64.9324 27.242C64.8768 27.2801 64.8297 27.3182 64.787 27.3479H64.8169ZM78.4174 16.5429C78.0454 16.5429 77.7419 16.8436 77.7419 17.2121C77.7419 17.5806 78.0454 17.8814 78.4174 17.8814C78.7894 17.8814 79.0929 17.5806 79.0929 17.2121C79.0929 16.8436 78.7894 16.5429 78.4174 16.5429ZM77.0065 18.3727C76.4592 18.3727 76.0188 18.809 76.0188 19.3511C76.0188 19.8933 76.4592 20.3295 77.0065 20.3295C77.5537 20.3295 77.9941 19.8933 77.9941 19.3511C77.9941 18.809 77.5537 18.3727 77.0065 18.3727ZM68.31 33.2777C67.7499 33.2777 67.301 33.7267 67.301 34.2773C67.301 34.8279 67.7542 35.2769 68.31 35.2769C68.8659 35.2769 69.3191 34.8279 69.3191 34.2773C69.3191 33.7267 68.8659 33.2777 68.31 33.2777ZM70.0673 30.7363C70.1699 30.6643 70.3837 30.533 70.6573 30.389C70.9309 30.245 71.2644 30.0883 71.5338 29.9909C71.8031 29.8935 72.0084 29.8553 72.2093 29.8596C72.4103 29.8596 72.6112 29.8977 72.7523 29.9824C72.8934 30.0629 72.9746 30.19 73.0003 30.3424C73.026 30.4949 72.9917 30.6686 72.8934 30.8211C72.7951 30.9735 72.6326 31.1006 72.4103 31.1726C72.1879 31.2446 71.9058 31.2658 71.5894 31.2361C71.273 31.2023 70.9224 31.1175 70.6616 31.0498C70.3965 30.9778 70.2212 30.9227 70.1229 30.8846C70.0245 30.8507 70.0074 30.8422 69.9903 30.8295C69.9732 30.8211 69.9604 30.8126 70.063 30.7406L70.0673 30.7363ZM73.8426 22.3202C73.5048 22.4685 72.8293 22.7946 72.0768 23.2394C71.3243 23.6883 70.4906 24.2601 69.8107 24.7176C69.1267 25.1793 68.5922 25.5266 68.2331 25.7638C67.8696 26.0052 67.6815 26.1323 67.6858 26.2339C67.6901 26.3313 67.8953 26.3991 68.3058 26.4499C68.7119 26.5008 69.3276 26.5431 69.7979 26.5558C70.2682 26.5685 70.5974 26.5558 70.9951 26.4499C71.3927 26.3483 71.8587 26.1534 72.2521 25.8824C72.6454 25.6113 72.9704 25.2597 73.2312 24.9167C73.492 24.5736 73.6887 24.2347 73.8255 23.8662C73.9623 23.4977 74.0393 23.0954 74.0906 22.837C74.1376 22.5744 74.1632 22.4558 74.1761 22.3753C74.1889 22.2991 74.1974 22.261 74.1974 22.2313C74.1974 22.1974 74.1932 22.1678 73.8554 22.316L73.8426 22.3202ZM81.2478 3.75148C80.8459 3.81501 80.0549 3.93361 79.311 4.14539C78.5713 4.35717 77.8787 4.66636 77.31 5.03486C76.7414 5.40335 76.2882 5.83115 76.0017 6.19964C75.711 6.56814 75.5827 6.87733 75.5186 7.05523C75.4545 7.22889 75.4545 7.27124 75.6127 7.29242C75.7708 7.31783 76.0915 7.32207 76.4635 7.3136C76.8355 7.30089 77.2587 7.27124 77.7376 7.11453C78.2207 6.95781 78.7595 6.67403 79.234 6.34365C79.7086 6.01328 80.1148 5.64054 80.4654 5.26781C80.816 4.89508 81.1067 4.52235 81.2991 4.27669C81.4915 4.03103 81.577 3.91243 81.6326 3.84042C81.6882 3.76842 81.7053 3.73877 81.7138 3.72183C81.7181 3.70065 81.7138 3.69218 81.701 3.68371C81.6925 3.67947 81.6754 3.67947 81.6668 3.68371C81.654 3.68371 81.6454 3.69218 81.2435 3.75571L81.2478 3.75148ZM51.2164 16.5472C51.5884 16.5472 51.892 16.8479 51.892 17.2164C51.892 17.5849 51.5884 17.8856 51.2164 17.8856C50.8445 17.8856 50.5409 17.5849 50.5409 17.2164C50.5409 16.8479 50.8445 16.5472 51.2164 16.5472ZM52.6274 18.3769C53.1746 18.3769 53.615 18.8132 53.615 19.3553C53.615 19.8975 53.1746 20.3338 52.6274 20.3338C52.0801 20.3338 51.6397 19.8975 51.6397 19.3553C51.6397 18.8132 52.0801 18.3769 52.6274 18.3769ZM61.3238 33.2819C61.8839 33.2819 62.3328 33.7309 62.3328 34.2815C62.3328 34.8321 61.8796 35.2811 61.3238 35.2811C60.768 35.2811 60.3148 34.8321 60.3148 34.2815C60.3148 33.7309 60.768 33.2819 61.3238 33.2819ZM59.5666 30.7406C59.4639 30.6686 59.2502 30.5373 58.9765 30.3933C58.7029 30.2492 58.3694 30.0925 58.0958 29.9951C57.8264 29.8977 57.6212 29.8596 57.4202 29.8638C57.2193 29.8638 57.0183 29.9019 56.8772 29.9866C56.7361 30.0671 56.6549 30.1942 56.6293 30.3467C56.6036 30.4992 56.6378 30.6728 56.7361 30.8253C56.8345 30.9778 56.997 31.1048 57.2193 31.1768C57.4416 31.2488 57.7238 31.27 58.0402 31.2404C58.3566 31.2065 58.7072 31.1218 58.968 31.054C59.2331 30.982 59.4084 30.9269 59.5067 30.8888C59.605 30.8549 59.6221 30.8465 59.6392 30.8338C59.6563 30.8253 59.6692 30.8168 59.5666 30.7448V30.7406ZM55.7913 22.3245C56.129 22.4727 56.8046 22.7989 57.5571 23.2436C58.3095 23.6926 59.1433 24.2644 59.8231 24.7218C60.5072 25.1835 61.0416 25.5308 61.4008 25.768C61.7642 26.0094 61.9523 26.1365 61.948 26.2382C61.9438 26.3356 61.7385 26.4033 61.3281 26.4542C60.9219 26.505 60.3062 26.5474 59.8359 26.5601C59.3656 26.5728 59.0364 26.5601 58.6388 26.4542C58.2411 26.3525 57.7751 26.1577 57.3818 25.8866C56.9884 25.6155 56.6635 25.264 56.4027 24.9209C56.1418 24.5778 55.9452 24.239 55.8084 23.8705C55.6715 23.502 55.5946 23.0996 55.5475 22.8412C55.4962 22.5786 55.4749 22.46 55.462 22.3795C55.4492 22.3033 55.4407 22.2652 55.4407 22.2355C55.4407 22.2017 55.4449 22.172 55.787 22.3202L55.7913 22.3245ZM48.386 3.74724C48.7879 3.81078 49.5832 3.92937 50.3228 4.14115C51.0625 4.35293 51.7551 4.66213 52.3238 5.03062C52.8924 5.39912 53.3456 5.82691 53.6321 6.19541C53.9228 6.5639 54.0511 6.8731 54.1152 7.05099C54.1794 7.22465 54.1794 7.26701 54.0212 7.28818C53.863 7.3136 53.5423 7.31783 53.1704 7.30936C52.7984 7.29666 52.3751 7.26701 51.8962 7.11029C51.4131 6.95357 50.8744 6.66979 50.3998 6.33942C49.9252 6.00904 49.519 5.63631 49.1684 5.26358C48.8179 4.89085 48.5271 4.51812 48.3347 4.27245C48.1423 4.02679 48.0568 3.90819 48.0012 3.83619C47.9456 3.76418 47.9285 3.73454 47.92 3.71759C47.9157 3.69641 47.92 3.68794 47.9328 3.67947C47.9414 3.67524 47.9585 3.67524 47.967 3.67947C47.9798 3.67947 47.9884 3.68794 48.3903 3.75148L48.386 3.74724Z" fill="white"/>
<path fill-rule="evenodd" clip-rule="evenodd" d="M47.2361 50.3384C51.2038 50.3384 52.9525 47.9707 52.9525 44.1841C52.9525 40.3975 51.3749 37.3055 47.0779 37.3055C43.1017 37.3055 41.3231 39.6563 41.3231 43.4598C41.3231 47.2634 42.9221 50.3384 47.2361 50.3384ZM84.288 50.3384C88.2557 50.3384 90.0043 47.9707 90.0043 44.1841C90.0043 40.3975 88.4267 37.3055 84.1298 37.3055C80.1535 37.3055 78.3749 39.6563 78.3749 43.4598C78.3749 47.2634 79.9739 50.3384 84.288 50.3384ZM97.3797 37.4834C97.5036 37.7926 97.5507 38.1357 97.5507 38.4618V44.6924H98.44C100.881 44.6924 102.318 43.5784 102.318 41.0879C102.318 38.5974 100.886 37.4834 98.44 37.4834H97.3797ZM109.86 44.2857V49.4786C109.86 49.7285 109.834 49.9657 109.753 50.1817H110.766C112.806 50.1817 114.503 49.4955 114.503 47.2422C114.503 44.9889 112.81 44.2857 110.766 44.2857H109.86ZM57.4718 37.962V37.5596C57.4718 37.5215 57.4718 37.4029 57.4461 37.3648C57.3863 37.2716 56.8134 37.2632 56.7193 37.2632H55.5093V36.416H59.2632L64.9967 47.8352C65.0138 47.8733 65.0395 47.9199 65.0609 47.9665C65.0822 47.9156 65.1036 47.8733 65.1207 47.8352L70.8542 36.416H74.668V37.2632H73.5991C73.4281 37.2632 72.8808 37.2674 72.7697 37.4411C72.7141 37.5258 72.7141 37.6952 72.7141 37.7884C72.7141 37.962 72.7312 38.1357 72.7355 38.3093L73.2485 49.2626C73.2827 50.2028 73.3169 50.3299 74.296 50.3299H75.1084V51.177H68.7549V50.3299H69.8837C70.0547 50.3299 70.7559 50.3257 70.8585 50.1308C70.8884 50.0715 70.8927 49.9699 70.8927 49.9021V49.576L70.4737 39.5927L64.753 51.0627L64.6077 51.393H64.1031L63.9578 51.0627L58.4466 40.0629L57.9378 49.5379C57.9378 49.6946 57.9164 49.8471 57.9164 49.9995C57.9164 50.0504 57.9164 50.1478 57.9421 50.1901C58.0319 50.3469 58.8186 50.3511 58.9639 50.3511H60.0756V51.1982H55.2057V50.3342H55.8984C56.0993 50.3342 56.5312 50.3342 56.6894 50.1774C56.8604 50.008 56.8903 49.4743 56.9074 49.2626L57.4803 37.962H57.4718ZM122.028 43.9893V49.4743C122.028 49.7242 121.968 49.9614 121.866 50.1774H125.547C127.313 50.1774 128.292 49.6649 128.454 47.8352L128.621 45.963H129.63L129.202 51.9818L128.352 51.8886L128.399 51.1728C128.24 51.1982 128.082 51.2024 127.937 51.2024H117.744V50.3553H118.834C118.95 50.3553 119.501 50.3596 119.591 50.2706C119.668 50.1901 119.664 49.7539 119.664 49.6522V37.9874C119.664 37.8858 119.664 37.4453 119.591 37.369C119.506 37.2801 118.954 37.2843 118.834 37.2843H117.744V36.4372H126.77C126.907 36.4372 127.065 36.4415 127.219 36.4669L127.154 35.7468L128.031 35.6621L128.48 41.6766H127.402L127.304 39.9866C127.189 38.0213 126.158 37.4622 124.277 37.4622H121.861C121.964 37.6782 122.024 37.9197 122.024 38.1653V42.9642H122.558C123.892 42.9642 124.576 42.6889 124.576 41.2234V40.2026H125.449V47.1659H124.576V45.7513C124.576 44.2815 123.892 43.9893 122.558 43.9893H122.024H122.028ZM13.6048 36.4415H18.496V37.2886H17.3715C17.4741 37.4495 17.5554 37.6189 17.6323 37.7672L20.7577 44.1926C20.7706 44.218 20.7834 44.2434 20.7919 44.2688L23.5026 38.0425C23.5539 37.9027 23.6181 37.7079 23.6181 37.5596C23.6181 37.53 23.6181 37.4919 23.601 37.4622C23.5283 37.297 23.0238 37.2843 22.887 37.2843H21.5573V36.4372H31.3611V37.2843H30.8266C30.7112 37.2843 30.1596 37.2801 30.0699 37.369C29.9929 37.4495 29.9972 37.8858 29.9972 37.9874V42.0621C30.3093 42.0536 30.7112 42.0239 30.8095 41.9054L34.2471 38.0086C34.3411 37.8943 34.5421 37.6317 34.5421 37.4792C34.5421 37.3097 33.8537 37.2843 33.7511 37.2843H33.2167V36.4372H38.7022V37.2843H38.0865C37.0005 37.2843 35.8803 37.6994 35.1577 38.5211L32.0067 42.1087C34.1573 42.7016 35.2946 44.1079 35.7478 46.3315C35.9102 47.1193 35.9744 47.9156 36.1155 48.7035C36.1924 49.1312 36.3292 49.7962 36.6927 50.0885C36.8722 50.2325 37.0903 50.2791 37.3169 50.2791C37.5991 50.2791 37.9283 50.1054 38.1506 49.9487L38.6808 49.576L39.2409 50.224L38.6722 50.6264C38.1036 51.0796 37.4323 51.4185 36.6884 51.4185C34.0076 51.4185 33.7682 48.6569 33.3492 46.6619C32.9216 44.6288 32.3188 42.9388 29.9245 42.9092V49.4743C29.9245 49.6141 29.9202 50.1563 30.0271 50.2621C30.134 50.3638 30.6342 50.3553 30.771 50.3553H31.8613V51.2024H25.5121L25.7986 50.3553H26.8119C26.9359 50.3553 27.4276 50.3596 27.5216 50.2664C27.6285 50.1647 27.62 49.6056 27.62 49.4743V37.9874C27.62 37.8858 27.62 37.4453 27.5473 37.3648C27.4618 37.2801 26.9273 37.2843 26.8119 37.2843H25.7003V37.2632H25.4993C25.3539 37.2632 25.1744 37.2759 25.0589 37.3648C24.858 37.5131 24.6613 38.0637 24.563 38.2966L19.9539 48.767C19.381 50.0715 18.2694 51.3592 16.7174 51.3592C15.6143 51.3592 15.2722 50.4231 15.2722 49.4743V49.072L15.6741 49.1482C16.0076 49.2117 16.4865 49.2795 16.82 49.2795C18.0299 49.2795 18.7055 48.9661 19.2057 47.8818L19.381 47.5175C19.428 47.4031 19.4494 47.2676 19.4494 47.1448C19.4494 46.9923 19.4067 46.8525 19.334 46.717V46.7085L15.285 38.3051C15.1824 38.0806 14.9558 37.5215 14.7463 37.3775C14.6223 37.2928 14.4299 37.2843 14.2846 37.2843H12.8352C12.0143 37.2843 12.0271 37.386 12.0271 38.1653V49.4743C12.0271 50.2537 12.0185 50.3553 12.8352 50.3553H13.9468V51.2024H7.90975V50.3553H8.84181C9.64989 50.3553 9.64989 50.2452 9.64989 49.4743V37.458H5.21188V41.9054C5.21188 44.074 4.93397 46.3569 4.18575 48.4027C3.74965 49.5887 3.00998 51.0584 1.97102 51.8378L1.73159 52.0199L0 50.224L0.290737 49.9953C2.6038 48.1867 3.98053 45.2896 3.98053 42.3755V38.3941C3.98053 38.1992 3.99335 37.5766 3.83943 37.4241C3.66841 37.2547 2.84323 37.2759 2.61663 37.2759H1.80428V36.4287H13.6048V36.4415ZM109.856 43.2819H111.181C113.212 43.2819 115.88 43.8749 116.786 45.9207C116.97 46.34 117.06 46.7847 117.06 47.2422C117.06 47.6996 116.97 48.1444 116.786 48.5637C115.884 50.6095 113.212 51.2024 111.181 51.2024H105.58V50.3384H106.67C106.786 50.3384 107.337 50.3426 107.427 50.2537C107.504 50.1732 107.5 49.7369 107.5 49.6353V37.9705C107.5 37.8731 107.5 37.4368 107.431 37.3648C107.35 37.2801 106.786 37.2886 106.675 37.2886H105.584V36.4415H111.801V37.2886H110.711C110.583 37.2886 110.044 37.2843 109.945 37.3818C109.86 37.4707 109.86 37.8985 109.86 38.0086V43.2819H109.856ZM97.5464 45.7174V49.6565C97.5464 49.7623 97.5464 50.1901 97.6276 50.2706C97.7217 50.3638 98.2732 50.3596 98.3972 50.3596H99.2694V51.2067H93.2709V50.3596H94.3611C94.4766 50.3596 95.0281 50.3638 95.1179 50.2749C95.1949 50.1944 95.1906 49.7581 95.1906 49.6565V37.9917C95.1906 37.89 95.1906 37.4495 95.1179 37.3733C95.0324 37.2843 94.4808 37.2886 94.3611 37.2886H93.2709V36.4415H99.0899C101.048 36.4415 103.182 37.0683 104.263 38.8134C104.691 39.5038 104.888 40.2831 104.888 41.0921C104.888 41.9011 104.695 42.6423 104.285 43.3158C103.211 45.082 101.061 45.7174 99.0856 45.7174H97.5421H97.5464ZM84.2067 51.3634C79.5635 51.3634 75.7967 48.6738 75.7967 43.8156C75.7967 38.9574 79.5806 36.2847 84.2067 36.2847C88.8329 36.2847 92.5782 38.987 92.5782 43.8156C92.5782 48.6442 88.8542 51.3634 84.2067 51.3634ZM47.1592 51.3634C42.516 51.3634 38.7492 48.6738 38.7492 43.8156C38.7492 38.9574 42.5331 36.2847 47.1592 36.2847C51.7853 36.2847 55.5307 38.987 55.5307 43.8156C55.5307 48.6442 51.8067 51.3634 47.1592 51.3634Z" fill="white"/>
<path d="M44.9195 57.166H1.09521V57.6997H44.9195V57.166Z" fill="white"/>
<path fill-rule="evenodd" clip-rule="evenodd" d="M47.7699 56.425C48.1205 55.8362 48.749 55.5694 49.3818 55.5694C50.4635 55.5694 51.246 56.3572 51.3614 57.3441H48.5951V57.7677H51.3614C51.2588 58.852 50.3652 59.5763 49.3519 59.5763C48.7833 59.5763 48.1291 59.2967 47.7528 58.6953H47.1885C47.6289 59.5127 48.4241 59.9998 49.3519 59.9998C50.7457 59.9998 51.8488 58.9917 51.8488 57.5601C51.8488 56.4716 51.0536 55.1458 49.3904 55.1458C48.3985 55.1458 47.6032 55.616 47.2099 56.425H47.7742H47.7699ZM52.5885 55.2263V59.9193H53.0631V55.2263H52.5885ZM53.388 57.5135L55.265 59.9151H55.855L53.9524 57.4627L55.778 55.2263H55.2137L53.388 57.5135ZM58.3476 55.1416C56.941 55.1416 55.8379 56.1751 55.8379 57.5813C55.8379 58.9875 56.9495 59.9956 58.3476 59.9956C59.7457 59.9956 60.8574 58.9494 60.8574 57.5432C60.8574 56.137 59.7628 55.1416 58.3476 55.1416ZM58.3519 59.572C57.2146 59.572 56.3125 58.7588 56.3125 57.5813C56.3125 56.4038 57.1975 55.5652 58.3519 55.5652C59.5063 55.5652 60.3828 56.3784 60.3828 57.5432C60.3828 58.708 59.5063 59.572 58.3519 59.572ZM61.3234 57.7973V58.2209H63.0635V57.7973H61.3234ZM66.035 55.1416C64.6284 55.1416 63.5253 56.1751 63.5253 57.5813C63.5253 58.9875 64.6369 59.9956 66.035 59.9956C67.4331 59.9956 68.5448 58.9494 68.5448 57.5432C68.5448 56.137 67.4502 55.1416 66.035 55.1416ZM66.0436 59.572C64.9063 59.572 63.9999 58.7588 63.9999 57.5813C63.9999 56.4038 64.8849 55.5652 66.0436 55.5652C67.2023 55.5652 68.0745 56.3784 68.0745 57.5432C68.0745 58.708 67.198 59.572 66.0436 59.572ZM69.9472 59.9151H70.4217V55.6499H71.5035V55.2263H68.8655V55.6499H69.9472V59.9151ZM72.0208 59.9151H74.6203V59.4915H72.4954V57.7677H74.5476V57.3441H72.4954V55.6499H74.6203V55.2263H72.0208V59.9193V59.9151ZM77.4465 55.2221H76.9975L75.0308 59.9151H75.5481L77.2198 55.8151L78.8788 59.9151H79.3961L77.4422 55.2221H77.4465ZM79.9305 55.2221V59.9151H81.4911C82.389 59.9151 82.9961 59.356 82.9961 58.5385C82.9961 57.7211 82.4531 57.162 81.4911 57.162H80.4051V55.2221H79.9305ZM80.4051 57.5855H81.4997C82.3248 57.5855 82.5258 58.1743 82.5258 58.5385C82.5258 58.9028 82.3291 59.4915 81.4997 59.4915H80.4051V57.5898V57.5855Z" fill="white"/>
<path d="M129.087 57.166H85.2632V57.6997H129.087V57.166Z" fill="white"/>
</svg>
