<svg width="415" height="108" viewBox="0 0 415 108" fill="none" xmlns="http://www.w3.org/2000/svg">
<path fill-rule="evenodd" clip-rule="evenodd" d="M205.587 56.2777C215.674 56.2777 220.12 50.1999 220.12 40.4865C220.12 30.773 216.111 22.8364 205.186 22.8364C195.08 22.8364 190.552 28.8686 190.552 38.6276C190.552 48.3866 194.616 56.2777 205.587 56.2777ZM299.751 56.2777C309.838 56.2777 314.284 50.1999 314.284 40.4865C314.284 30.773 310.275 22.8364 299.35 22.8364C289.244 22.8364 284.716 28.8686 284.716 38.6276C284.716 48.3866 288.78 56.2777 299.751 56.2777ZM333.019 23.292C333.338 24.0848 333.456 24.9686 333.456 25.7978V41.7895H335.716C341.921 41.7895 345.566 38.9283 345.566 32.5408C345.566 26.1532 341.921 23.292 335.716 23.292H333.019ZM364.738 40.7416V54.0635C364.738 54.7013 364.665 55.3118 364.474 55.8676H367.052C372.237 55.8676 376.556 54.109 376.556 48.332C376.556 42.5549 372.255 40.7416 367.052 40.7416H364.747H364.738ZM231.592 24.5221V23.4834C231.592 23.3831 231.592 23.0733 231.529 22.9913C231.374 22.7544 229.916 22.7362 229.688 22.7362H226.617V20.5675H236.158L250.728 49.8628C250.773 49.963 250.837 50.0724 250.892 50.1999C250.946 50.0724 251.001 49.9539 251.047 49.8628L265.617 20.5675H275.303V22.7362H272.578C272.141 22.7362 270.747 22.7453 270.464 23.1918C270.328 23.4105 270.319 23.8387 270.319 24.0848C270.319 24.5312 270.364 24.9777 270.364 25.4242L271.667 53.5258C271.749 55.9405 271.84 56.2686 274.328 56.2686H276.396V58.4373H260.241V56.2686H263.111C263.548 56.2686 265.334 56.2595 265.59 55.7583C265.672 55.6034 265.672 55.3391 265.672 55.1751V54.3368L264.605 28.7228L250.063 58.1457L249.698 58.9931H248.413L248.049 58.1457L234.034 29.9256L232.741 54.2366C232.741 54.6375 232.686 55.0293 232.686 55.4212C232.686 55.5487 232.686 55.7948 232.759 55.9132C232.987 56.3141 234.982 56.3233 235.347 56.3233H238.171V58.4919H225.788V56.2686H227.556C228.066 56.2686 229.169 56.2686 229.57 55.8676C230.007 55.4394 230.08 54.0635 230.116 53.5167L231.574 24.5221H231.592ZM395.673 39.9853V54.0635C395.673 54.7013 395.528 55.3118 395.263 55.8676H404.621C409.114 55.8676 411.601 54.5555 412.011 49.8628L412.43 45.0516H414.991L413.907 60.4966L411.747 60.2597L411.866 58.419C411.465 58.4828 411.064 58.4919 410.699 58.4919H384.794V56.3233H387.564C387.864 56.3233 389.258 56.3324 389.486 56.1046C389.687 55.9041 389.678 54.7742 389.678 54.5099V24.595C389.678 24.3308 389.678 23.21 389.486 23.0095C389.268 22.7817 387.864 22.7908 387.564 22.7908H384.794V20.6222H407.729C408.075 20.6222 408.476 20.6313 408.868 20.6951L408.704 18.8544L410.927 18.6357L412.066 34.0716H409.323L409.077 29.7434C408.786 24.7044 406.161 23.2647 401.387 23.2647H395.245C395.509 23.8205 395.655 24.431 395.655 25.0689V37.3884H397.013C400.403 37.3884 402.134 36.6867 402.134 32.9144V30.2901H404.357V48.1497H402.134V44.5231C402.134 40.7507 400.403 40.0035 397.013 40.0035H395.655L395.673 39.9853ZM120.106 20.6222H132.535V22.7908H129.674C129.929 23.2009 130.148 23.6383 130.339 24.021L138.276 40.5047C138.303 40.5685 138.34 40.6323 138.367 40.7052L145.256 24.7317C145.383 24.3672 145.547 23.8752 145.547 23.4925C145.547 23.4105 145.547 23.3193 145.511 23.2464C145.328 22.8273 144.044 22.7908 143.697 22.7908H140.326V20.6222H165.247V22.7908H163.881C163.58 22.7908 162.186 22.7817 161.967 23.0095C161.767 23.21 161.776 24.3399 161.776 24.595V35.0466C162.568 35.0284 163.589 34.9463 163.844 34.6456L172.583 24.6497C172.82 24.3581 173.339 23.6838 173.339 23.292C173.339 22.8637 171.589 22.7908 171.334 22.7908H169.967V20.6222H183.909V22.7908H182.342C179.581 22.7908 176.729 23.857 174.897 25.9618L166.888 35.165C172.355 36.6867 175.243 40.2951 176.401 45.9993C176.811 48.0222 176.975 50.0633 177.33 52.0861C177.521 53.1887 177.877 54.8927 178.788 55.6398C179.244 56.0134 179.799 56.1228 180.383 56.1228C181.102 56.1228 181.932 55.6763 182.497 55.2754L183.845 54.3186L185.267 55.977L183.818 57.0158C182.369 58.1821 180.665 59.0478 178.77 59.0478C171.954 59.0478 171.353 51.9677 170.286 46.8467C169.202 41.6255 167.671 37.2973 161.575 37.2244V54.0635C161.575 54.4188 161.557 55.8039 161.84 56.0772C162.104 56.3324 163.389 56.3233 163.735 56.3233H166.505V58.4919H150.367L151.087 56.3233H153.666C153.985 56.3233 155.224 56.3415 155.47 56.0955C155.734 55.8403 155.725 54.4097 155.725 54.0635V24.595C155.725 24.3308 155.725 23.2009 155.534 23.0004C155.315 22.7817 153.958 22.7908 153.666 22.7908H150.841V22.7362H150.331C149.967 22.7362 149.511 22.7635 149.21 22.9913C148.7 23.374 148.199 24.7773 147.953 25.3878L136.235 52.241C134.777 55.5852 131.952 58.8929 128.006 58.8929C125.209 58.8929 124.334 56.4964 124.334 54.0635V53.0247L125.355 53.216C126.202 53.3709 127.414 53.5532 128.262 53.5532C131.332 53.5532 133.055 52.7513 134.321 49.9721L134.768 49.0336C134.895 48.742 134.941 48.3958 134.941 48.0768C134.941 47.685 134.831 47.3205 134.64 46.9743V46.956L124.352 25.3969C124.088 24.8228 123.514 23.3831 122.986 23.0186C122.667 22.8 122.184 22.7817 121.819 22.7817H118.138C116.051 22.7817 116.079 23.046 116.079 25.0415V54.0635C116.079 56.059 116.051 56.3233 118.138 56.3233H120.963V58.4919H105.618V56.3233H107.987C110.037 56.3233 110.047 56.0408 110.047 54.0635V23.2464H98.7931V34.6548C98.7931 40.2131 98.0915 46.0722 96.1871 51.3207C95.0845 54.3642 93.1983 58.1274 90.5558 60.1321L89.9453 60.5968L85.5442 55.9861L86.2823 55.4029C92.1596 50.7558 95.6586 43.3294 95.6586 35.8576V25.652C95.6586 25.1509 95.6859 23.5563 95.3032 23.1644C94.8658 22.7271 92.7701 22.7817 92.196 22.7817H90.1276V20.6131H120.115L120.106 20.6222ZM364.747 38.172H368.109C373.267 38.172 380.055 39.6937 382.352 44.9423C382.825 46.0175 383.044 47.1565 383.044 48.332C383.044 49.5074 382.816 50.6464 382.352 51.7217C380.055 56.9702 373.267 58.4919 368.109 58.4919H353.867V56.2686H356.637C356.938 56.2686 358.332 56.2868 358.56 56.0499C358.76 55.8494 358.751 54.7195 358.751 54.4644V24.5495C358.751 24.3034 358.751 23.1827 358.569 22.9913C358.359 22.7726 356.929 22.7908 356.637 22.7908H353.867V20.6222H369.668V22.7908H366.897C366.569 22.7908 365.203 22.7817 364.948 23.0369C364.729 23.2647 364.738 24.3581 364.738 24.6497V38.172H364.747ZM333.456 44.4138V54.5191C333.456 54.7924 333.456 55.8859 333.657 56.0955C333.894 56.3415 335.297 56.3233 335.616 56.3233H337.83V58.4919H322.585V56.3233H325.356C325.656 56.3233 327.05 56.3324 327.269 56.1046C327.47 55.9041 327.46 54.7742 327.46 54.5099V24.595C327.46 24.3308 327.46 23.21 327.269 23.0095C327.05 22.7817 325.647 22.7908 325.356 22.7908H322.585V20.6222H337.374C342.359 20.6222 347.78 22.2259 350.523 26.709C351.607 28.4768 352.118 30.4814 352.118 32.5499C352.118 34.6183 351.635 36.5227 350.587 38.2631C347.862 42.8009 342.386 44.432 337.374 44.432H333.456V44.4138ZM299.55 58.902C287.75 58.902 278.173 51.995 278.173 39.5297C278.173 27.0644 287.787 20.2121 299.55 20.2121C311.314 20.2121 320.827 27.1464 320.827 39.5297C320.827 51.913 311.359 58.902 299.55 58.902ZM205.386 58.902C193.586 58.902 184.009 51.995 184.009 39.5297C184.009 27.0644 193.622 20.2121 205.386 20.2121C217.15 20.2121 226.663 27.1464 226.663 39.5297C226.663 51.913 217.195 58.902 205.386 58.902Z" fill="#4A505A"/>
<path d="M199.7 73.8003H88.3142V75.1762H199.7V73.8003Z" fill="#4A505A"/>
<path fill-rule="evenodd" clip-rule="evenodd" d="M206.944 71.8957C207.837 70.3831 209.432 69.6997 211.045 69.6997C213.796 69.6997 215.774 71.7135 216.074 74.2558H209.049V75.3492H216.074C215.81 78.1284 213.541 79.9873 210.972 79.9873C209.523 79.9873 207.864 79.2674 206.908 77.7275H205.477C206.598 79.8232 208.621 81.0807 210.972 81.0807C214.516 81.0807 217.314 78.4929 217.314 74.8207C217.314 72.0233 215.3 68.6245 211.072 68.6245C208.548 68.6245 206.534 69.8273 205.523 71.914H206.953L206.944 71.8957ZM219.191 68.825V80.862H220.394V68.825H219.191ZM221.223 74.6931L225.988 80.862H227.483L222.653 74.5656L227.291 68.825H225.861L221.223 74.6931ZM233.834 68.6063C230.253 68.6063 227.455 71.2579 227.455 74.8663C227.455 78.4746 230.289 81.0625 233.834 81.0625C237.378 81.0625 240.212 78.3744 240.212 74.766C240.212 71.1577 237.433 68.5972 233.834 68.5972V68.6063ZM233.852 79.9781C230.954 79.9781 228.667 77.8915 228.667 74.8663C228.667 71.8411 230.909 69.6906 233.852 69.6906C236.795 69.6906 239.009 71.7773 239.009 74.766C239.009 77.7548 236.777 79.969 233.852 79.969V79.9781ZM241.397 75.4221V76.5156H245.825V75.4221H241.397ZM253.37 68.6063C249.789 68.6063 246.992 71.2579 246.992 74.8663C246.992 78.4746 249.825 81.0625 253.37 81.0625C256.915 81.0625 259.749 78.3744 259.749 74.766C259.749 71.1577 256.969 68.5972 253.37 68.5972V68.6063ZM253.388 79.9781C250.491 79.9781 248.204 77.8915 248.204 74.8663C248.204 71.8411 250.445 69.6906 253.388 69.6906C256.331 69.6906 258.546 71.7773 258.546 74.766C258.546 77.7548 256.313 79.969 253.388 79.969V79.9781ZM263.311 80.8529H264.514V69.9093H267.266V68.8159H260.569V69.9093H263.32V80.8529H263.311ZM268.578 80.8529H275.184V79.7595H269.781V75.331H275.002V74.2375H269.781V69.8911H275.184V68.7976H268.578V80.8347V80.8529ZM282.374 68.8159H281.235L276.241 80.8529H277.563L281.809 70.3285L286.019 80.8529H287.34L282.383 68.8159H282.374ZM288.688 68.8159V80.8529H292.661C294.939 80.8529 296.488 79.4223 296.488 77.3265C296.488 75.2308 295.103 73.8002 292.661 73.8002H289.9V68.825H288.698L288.688 68.8159ZM289.891 74.8845H292.67C294.766 74.8845 295.276 76.3971 295.276 77.3265C295.276 78.256 294.775 79.7686 292.67 79.7686H289.891V74.8845Z" fill="#29B297"/>
<path fill-rule="evenodd" clip-rule="evenodd" d="M42.3348 15.8108C42.3348 15.6012 42.3348 15.182 42.3348 14.9269C42.3348 14.6718 42.3348 14.5898 42.2163 14.4257C42.0979 14.2617 41.8518 14.0157 41.6058 13.8426C41.3598 13.6694 41.1138 13.5692 40.9133 13.4963C40.7128 13.4325 40.5488 13.4052 40.2572 13.3961C39.9656 13.387 39.5374 13.387 39.2731 13.387C39.0089 13.387 38.9178 13.387 38.8631 13.387C38.8175 13.387 38.8175 13.3779 38.8175 13.3596C38.8175 13.3505 38.8175 13.3323 38.8175 13.1956C38.8175 13.0589 38.8175 12.7947 38.8175 12.658C38.8175 12.5213 38.8175 12.5122 38.8175 12.5122C38.8175 12.5122 38.8357 12.5122 40.6217 12.5122H48.0936C50.2167 12.5122 50.9183 12.5122 51.456 12.5487C51.9936 12.5851 52.3854 12.6671 52.8137 12.8311C53.2419 12.986 53.7158 13.2321 54.2078 13.6148C54.6999 13.9975 55.2284 14.526 55.6111 15.0727C55.9938 15.6194 56.2398 16.1753 56.4676 16.7858C56.6954 17.3963 56.905 18.0523 57.0052 18.8086C57.1054 19.5558 57.0963 20.4033 57.069 21.0867C57.0417 21.7792 56.9961 22.3168 56.8868 22.8909C56.7774 23.4649 56.5952 24.0663 56.3856 24.6586C56.176 25.2509 55.9482 25.834 55.6384 26.4992C55.3286 27.1644 54.9368 27.9025 54.4447 28.7226C53.9527 29.5427 53.3513 30.4356 52.6041 31.2922C51.8569 32.1487 50.9639 32.9597 50.0618 33.6158C49.1506 34.2718 48.2303 34.773 47.2553 35.1921C46.2803 35.6113 45.2506 35.9667 43.6469 36.4314C42.0432 36.8961 39.8563 37.4884 37.9245 37.9895C35.9928 38.4907 34.3253 38.9099 33.4414 39.1468C32.5666 39.3746 32.4755 39.411 32.4117 39.4566C32.348 39.493 32.2933 39.5386 31.8923 40.7414C31.4914 41.9442 30.7351 44.3224 30.3251 45.5981C29.9241 46.8738 29.8695 47.0652 29.8604 47.1654C29.8604 47.2656 29.8968 47.2839 30.0699 47.1289C30.2522 46.9649 30.5711 46.6278 30.9994 46.2724C31.4185 45.917 31.947 45.5526 32.4937 45.2428C33.0405 44.9421 33.6054 44.696 34.307 44.45C34.9996 44.204 35.8196 43.9397 36.6124 43.7575C37.396 43.5661 38.1523 43.4477 38.9269 43.3748C39.7014 43.3019 40.5033 43.2745 41.0773 43.2654C41.6514 43.2563 41.9885 43.2563 42.2163 43.2563C42.4441 43.2563 42.5717 43.2563 42.6355 43.2381C42.6993 43.2199 42.6993 43.1834 42.6993 42.3451C42.6993 41.5068 42.6993 39.894 42.6993 39.0648C42.6993 38.2356 42.7175 38.2082 42.7357 38.1991C42.7539 38.1991 42.7904 38.1991 43.0273 38.1627C43.2642 38.1171 43.7016 38.0169 44.1572 37.8984C44.6128 37.78 45.0866 37.6342 45.4238 37.5066C45.7609 37.379 45.9523 37.2788 46.0616 37.2059C46.171 37.133 46.1983 37.0966 46.2165 37.0966C46.2347 37.0966 46.2347 37.133 46.2347 38.1445C46.2347 39.1468 46.2347 41.1241 46.2347 42.1264C46.2347 43.1288 46.2347 43.1743 46.2439 43.1925C46.253 43.2108 46.2712 43.2199 47.6562 43.2199C49.0321 43.2199 51.7749 43.2199 53.98 43.2199C56.1851 43.2199 57.8526 43.2199 58.855 43.1561C59.8573 43.0923 60.1944 42.9556 60.65 42.6731C61.1056 42.3816 61.6706 41.9351 62.1444 41.3883C62.6182 40.8325 63.0009 40.1764 63.3199 39.6115C63.6388 39.0465 63.8939 38.5818 64.058 38.2538C64.222 37.9258 64.2858 37.7344 64.3404 37.6068C64.3951 37.4884 64.4315 37.4337 64.4771 37.4064C64.5227 37.379 64.5682 37.379 64.6776 37.379C64.7869 37.379 64.96 37.379 65.0512 37.3882C65.1423 37.3973 65.1423 37.4155 65.1058 37.5339C65.0694 37.6433 64.9965 37.8529 64.5136 39.3381C64.0306 40.8234 63.1285 43.5935 62.6729 44.9876C62.2173 46.3818 62.1991 46.4 62.0806 46.4182C61.9622 46.4364 61.7526 46.4455 58.0987 46.4547C54.4447 46.4547 47.3464 46.4547 43.3098 46.4547C39.2731 46.4547 38.3164 46.4547 37.3687 46.4911C36.421 46.5276 35.4825 46.5913 34.6351 46.7007C33.7877 46.8009 33.0314 46.9376 32.3206 47.211C31.6099 47.4843 30.9356 47.8852 30.398 48.3955C29.8604 48.8967 29.4685 49.4981 29.1587 50.145C28.8489 50.792 28.6211 51.4845 28.4206 52.0404C28.2202 52.5962 28.0562 53.0245 27.9468 53.2431C27.8375 53.4618 27.7919 53.4618 27.7281 53.4527C27.6643 53.4436 27.5732 53.4072 27.4365 53.3707C27.2999 53.3343 27.1176 53.2887 27.0356 53.2431C26.9536 53.1976 26.9718 53.1611 26.9992 53.1065C27.0265 53.0518 27.063 52.9698 27.2634 52.4777C27.4548 51.9766 27.8101 51.0654 28.2384 49.817C28.6667 48.5687 29.177 46.9923 29.6052 45.671C30.0244 44.3498 30.3615 43.2928 30.6258 42.4362C30.89 41.5797 31.0723 40.9236 31.1998 40.5136C31.3183 40.0944 31.3821 39.9122 31.4003 39.8302C31.4185 39.7391 31.3912 39.7482 31.2363 39.7755C31.0814 39.8028 30.7989 39.8484 30.2066 40.0853C29.6143 40.3313 28.7122 40.7687 28.0015 41.2608C27.2816 41.7528 26.744 42.2996 26.3066 42.8645C25.8693 43.4294 25.523 44.0308 25.277 44.5867C25.031 45.1425 24.8852 45.671 24.7667 46.2086C24.6574 46.7554 24.5754 47.3112 24.5571 47.8853C24.5389 48.4593 24.5845 49.0516 24.7211 49.6712C24.8578 50.2999 25.0765 50.9651 25.359 51.6485C25.6506 52.3319 26.006 53.0245 26.4524 53.6076C26.8989 54.1817 27.4457 54.6373 28.0106 55.02C28.5756 55.4027 29.1587 55.7125 29.7328 55.9768C30.316 56.241 30.8991 56.4688 31.619 56.6055C32.3388 56.7422 33.2136 56.7877 34.0337 56.6966C34.8629 56.6055 35.6465 56.3777 36.3755 56.0861C37.0953 55.7945 37.7605 55.4392 38.3437 55.0565C38.936 54.6737 39.4463 54.2637 39.911 53.8263C40.3757 53.3798 40.7766 52.8969 40.9953 52.6326C41.214 52.3684 41.2504 52.3228 41.2687 52.2955C41.2869 52.2682 41.296 52.2499 41.3233 52.2408C41.3507 52.2408 41.3962 52.2408 41.5876 52.2408C41.7881 52.2408 42.1343 52.2408 42.3074 52.2408C42.4806 52.2408 42.4623 52.2408 42.4532 52.259C42.4441 52.2682 42.435 52.2955 42.2892 52.496C42.1434 52.6964 41.861 53.0791 41.5147 53.4983C41.1684 53.9266 40.7675 54.3913 40.2663 54.8651C39.7652 55.3389 39.1729 55.8127 38.6079 56.241C38.0339 56.6602 37.4872 57.0247 36.9131 57.3254C36.339 57.6261 35.7559 57.863 35.2 58.0361C34.6442 58.2092 34.1157 58.3277 33.5507 58.3732C32.9858 58.4279 32.3753 58.4188 31.7739 58.3641C31.1725 58.3095 30.5893 58.2092 29.8604 57.8994C29.1314 57.5896 28.2657 57.0611 27.6097 56.5964C26.9627 56.1317 26.5253 55.7307 26.1517 55.266C25.7781 54.8013 25.4592 54.2637 25.1494 53.635C24.8396 53.0062 24.5389 52.2955 24.3111 51.603C24.0833 50.9105 23.9375 50.2544 23.8373 49.5801C23.737 48.9058 23.6824 48.2133 23.6824 47.6483C23.6824 47.0834 23.7188 46.6369 23.7917 46.1266C23.8646 45.6072 23.9648 45.0241 24.1653 44.3498C24.3567 43.6755 24.6483 42.9192 24.9763 42.2358C25.3043 41.5524 25.6688 40.951 26.0971 40.3769C26.5253 39.8028 27.0265 39.2743 27.5823 38.8187C28.1382 38.3723 28.7396 38.0078 29.4594 37.6524C30.1793 37.297 30.9994 36.9508 31.455 36.7594C31.9106 36.5772 31.9835 36.5498 32.0655 36.5316C32.1475 36.5043 32.2295 36.4861 32.2933 36.4314C32.3571 36.3767 32.4026 36.2947 32.512 35.9029C32.6122 35.5111 32.7853 34.8094 32.9402 34.1807C33.0951 33.5611 33.2409 33.0235 33.487 32.2216C33.7421 31.4197 34.0975 30.3627 34.5166 29.2237C34.9358 28.0847 35.4278 26.8728 35.8743 25.8523C36.3208 24.8408 36.7217 24.0207 37.2229 23.064C37.7332 22.1072 38.3437 21.0047 38.9815 20.0661C39.6194 19.1185 40.2937 18.3348 40.7857 17.7972C41.2778 17.2596 41.5785 16.968 41.7881 16.7767C41.9976 16.5944 42.107 16.5124 42.1981 16.4395C42.2801 16.3757 42.3348 16.3211 42.3621 16.2937C42.3895 16.2664 42.3894 16.2482 42.3803 16.2299C42.3803 16.2117 42.3803 16.1753 42.3803 16.157C42.3803 16.1297 42.3803 16.1024 42.3803 16.0932C42.3803 16.075 42.3803 16.075 42.3803 15.8563M48.5036 14.6171C48.7952 14.5989 49.3511 14.5442 49.9525 14.6171C50.5539 14.6809 51.1917 14.8631 51.8204 15.1365C52.4492 15.4007 53.0597 15.7561 53.5791 16.239C54.0985 16.7129 54.5267 17.3143 54.8821 17.8883C55.2375 18.4624 55.5108 19 55.6931 19.6287C55.8753 20.2575 55.9573 20.9682 55.9482 21.6972C55.9391 22.4261 55.8389 23.1824 55.6475 23.9205C55.4562 24.6495 55.1828 25.3693 54.7819 26.0801C54.39 26.7908 53.8798 27.5016 53.3786 28.1485C52.8774 28.7955 52.3854 29.3786 51.6929 29.9345C51.0004 30.4903 50.1074 31.0279 49.4695 31.4015C48.8317 31.766 48.4399 31.9665 48.048 32.1578C47.6471 32.3492 47.2462 32.5314 46.991 32.6408C46.7359 32.7501 46.6357 32.7957 46.5537 32.7957C46.4625 32.7957 46.3896 32.7683 46.3623 32.7137C46.3259 32.6681 46.335 32.5952 46.335 30.1167C46.335 27.6382 46.335 22.7542 46.335 20.1208C46.335 17.4874 46.335 17.1138 46.335 16.9042C46.335 16.6946 46.3259 16.6582 46.2985 16.6309C46.2803 16.6035 46.2347 16.5944 45.9978 16.7129C45.7609 16.8313 45.3144 17.0774 44.8588 17.3598C44.4032 17.6423 43.9385 17.9521 43.6014 18.2072C43.2642 18.4624 43.0455 18.6629 42.9179 18.7995C42.7904 18.9362 42.7539 19.0091 42.7266 19.0729C42.6993 19.1367 42.6901 19.1822 42.681 21.4603C42.681 23.7383 42.681 28.2396 42.681 30.6088C42.681 32.9779 42.681 33.2148 42.681 33.3788C42.681 33.5429 42.681 33.6158 42.6537 33.6795C42.6264 33.7433 42.5717 33.7798 41.8609 33.9802C41.1502 34.1716 39.7925 34.527 38.3984 34.8823C37.0042 35.2377 35.5918 35.6022 34.7809 35.8027C33.9699 36.0122 33.7603 36.0578 33.651 36.0487C33.5416 36.0487 33.5143 35.9849 33.5143 35.8938C33.5143 35.8026 33.5325 35.666 33.7239 34.8914C33.9152 34.1169 34.2888 32.7045 34.8264 31.0644C35.3732 29.4333 36.0839 27.5745 36.7491 26.071C37.4143 24.5675 38.0248 23.4102 38.6626 22.3897C39.3005 21.3691 39.9474 20.4853 40.6035 19.7016C41.2504 18.918 41.9065 18.2346 42.599 17.6241C43.3007 17.0136 44.0478 16.476 44.7586 16.0477C45.4784 15.6194 46.171 15.2914 46.6812 15.0909C47.1915 14.8813 47.5378 14.7902 47.7473 14.7356C47.966 14.6809 48.0572 14.6627 48.1209 14.6535C48.1847 14.6535 48.2212 14.6444 48.5219 14.6171H48.5036ZM38.8357 51.0289C38.8357 50.9651 38.8357 50.874 38.8357 50.7738C38.8357 50.6735 38.8357 50.5733 38.8449 50.5278C38.854 50.4822 38.8813 50.4822 39.1273 50.4913C39.3734 50.4913 39.8563 50.4913 40.2117 50.5004C40.567 50.5004 40.8131 50.5004 41.05 50.4457C41.2869 50.3911 41.5329 50.2726 41.7516 50.0904C41.9703 49.9081 42.1616 49.6621 42.2983 49.4616C42.435 49.2612 42.5079 49.1063 42.5444 48.9149C42.5808 48.7236 42.5808 48.5049 42.5717 48.3135C42.5717 48.1222 42.5717 47.9581 42.5717 47.8579C42.5717 47.7577 42.5717 47.7303 42.5717 47.7121C42.5717 47.6939 42.5717 47.6939 42.599 47.6848C42.6173 47.6848 42.6628 47.6848 43.2733 47.6848C43.8929 47.6848 45.0866 47.6848 45.688 47.6848C46.2894 47.6848 46.2985 47.6848 46.3076 47.703C46.3076 47.7121 46.3076 47.7303 46.3076 47.8032C46.3076 47.8761 46.3076 48.0128 46.3259 48.1586C46.335 48.3044 46.3623 48.4593 46.4534 48.6598C46.5446 48.8602 46.7177 49.0972 46.8999 49.2429C47.0913 49.3887 47.2917 49.4525 47.5195 49.489C47.7473 49.5254 47.9843 49.5436 49.2235 49.5528C50.4627 49.5528 52.6952 49.5528 54.4721 49.5528H61.5612C62.3084 49.5528 62.8369 49.5528 63.2288 49.5163C63.6115 49.4799 63.8575 49.407 64.1582 49.2794C64.4589 49.1518 64.8051 48.9605 65.1787 48.6962C65.5523 48.4229 65.9533 48.0766 66.2904 47.6939C66.6276 47.3112 66.9009 46.9011 67.1743 46.4547C67.4476 46.0173 67.7119 45.5434 67.8759 45.2336C68.0399 44.9238 68.0946 44.7598 68.1584 44.5411C68.2313 44.3133 68.3133 44.0217 68.3588 43.8668C68.4135 43.7028 68.4226 43.6664 68.45 43.6573C68.4682 43.639 68.5046 43.6573 68.6231 43.6573C68.7416 43.6573 68.9511 43.6573 69.0605 43.6573C69.1698 43.6573 69.188 43.6573 69.1972 43.6755C69.1972 43.6937 69.1972 43.721 69.1789 43.7939C69.1516 43.8668 69.0969 43.9762 69.0605 44.0764C69.024 44.1766 69.0058 44.2769 68.7324 45.0787C68.4591 45.8806 67.9397 47.375 67.5843 48.4502C67.2381 49.5254 67.0649 50.1815 66.9647 50.5551C66.8736 50.9287 66.8554 51.0289 66.8371 51.0836C66.8189 51.1383 66.8098 51.1474 66.7825 51.1565C66.7551 51.1565 66.7005 51.1565 62.6911 51.1565H38.8904C38.8904 51.1565 38.8631 51.1565 38.8631 51.1383C38.8631 51.12 38.8449 51.0836 38.8449 51.0198L38.8357 51.0289Z" fill="#4A505A"/>
<path fill-rule="evenodd" clip-rule="evenodd" d="M45.9419 3.13658C45.3041 2.85411 44.156 2.3165 42.9532 1.8609C41.7504 1.4144 40.5112 1.04992 39.2628 0.758335C38.0144 0.466749 36.7661 0.257172 35.5542 0.166051C34.3423 0.0749304 33.1668 0.111379 32.0916 0.193387C31.0164 0.284508 30.0323 0.430301 28.7566 0.758335C27.4718 1.09548 25.8954 1.61487 24.4921 2.3894C23.0889 3.15481 21.8679 4.17536 21.0387 5.08657C20.2095 5.99777 19.7721 6.81786 19.4441 7.63795C19.116 8.45803 18.9064 9.28723 18.8882 10.1438C18.87 11.0003 19.0522 11.8842 19.3347 12.6131C19.6172 13.3421 19.9999 13.9162 20.4737 14.4082C20.9567 14.9003 21.5307 15.3103 22.1594 15.5472C22.7882 15.7932 23.4716 15.8753 24.1823 15.8206C24.8931 15.7659 25.6311 15.5746 26.3054 15.2374C26.9797 14.9003 27.5811 14.4355 27.9821 13.8888C28.3739 13.3512 28.5561 12.7407 28.5743 12.1393C28.5926 11.5379 28.4559 10.9456 28.0641 10.5174C27.6722 10.0891 27.0344 9.82484 26.4421 9.77017C25.8498 9.7155 25.3213 9.87951 24.8566 10.1984C24.3919 10.5174 24.0092 10.9912 23.8634 11.465C23.7176 11.948 23.827 12.4309 24.0001 12.8136C24.1823 13.2054 24.4284 13.4879 24.647 13.6519C24.8566 13.8159 25.0389 13.8433 24.8566 13.8706C24.6744 13.8979 24.1368 13.9162 23.7358 13.907C23.3349 13.8979 23.0707 13.8524 22.6697 13.6337C22.2688 13.4241 21.7312 13.0414 21.3849 12.4765C21.0387 11.9115 20.8746 11.1734 20.8838 10.3898C20.8929 9.60615 21.0751 8.78607 21.3394 8.11177C21.6036 7.43748 21.9499 6.91809 22.5422 6.3167C23.1344 5.7153 23.9545 5.05012 24.8293 4.51251C25.704 3.98401 26.6153 3.59219 27.654 3.25504C28.6837 2.9179 29.8409 2.63542 31.1531 2.46229C32.4652 2.28916 33.9414 2.22538 35.217 2.2436C36.4927 2.26183 37.5862 2.38028 38.7252 2.59897C39.8733 2.81766 41.067 3.15481 41.9782 3.45551C42.8894 3.74709 43.4999 4.00223 43.8371 4.16625C44.1742 4.33027 44.2198 4.41227 44.1469 4.49428C44.074 4.5854 43.8644 4.67652 42.6343 5.45105C41.4041 6.21646 39.1443 7.66528 36.7661 9.25078C34.3878 10.8454 31.8729 12.5767 30.0049 13.8068C28.137 15.0369 26.8977 15.7568 25.8134 16.34C24.7291 16.9323 23.7905 17.397 23.1253 17.6794C22.4601 17.9619 22.0683 18.0622 21.8041 18.1077C21.5398 18.1533 21.4123 18.1533 21.3303 18.1077C21.2482 18.0622 21.2027 17.971 20.9293 17.4334C20.6468 16.8958 20.1366 15.9117 19.3985 14.8911C18.6604 13.8706 17.6945 12.8136 16.5464 11.9024C15.3983 11.0003 14.0679 10.244 12.6282 9.6426C11.1885 9.0412 9.63947 8.5856 8.16332 8.2849C6.69627 7.97509 5.30213 7.82019 4.09933 7.71084C2.89654 7.6015 1.87599 7.54683 1.21081 7.5286C0.55474 7.51038 0.254042 7.53771 0.117361 7.57416C-0.0193201 7.61061 -0.00109599 7.64706 0.144697 7.86575C0.29049 8.08444 0.55474 8.47626 1.07413 9.25078C1.59352 10.0253 2.36804 11.1734 3.13346 12.2304C3.89887 13.2874 4.64606 14.2533 5.5117 15.1736C6.37735 16.1031 7.37057 16.996 8.34556 17.7523C9.32055 18.5086 10.2773 19.1283 11.2796 19.6385C12.282 20.1488 13.339 20.5406 14.3048 20.7867C15.2707 21.0327 16.1364 21.1238 16.9838 21.1511C17.8312 21.1876 18.6422 21.1694 19.1889 21.1147C19.7356 21.0691 20.0181 20.9871 20.173 20.978C20.3279 20.9689 20.3461 21.0236 20.419 21.3789C20.4919 21.7343 20.6286 22.3904 20.738 23.7116C20.8473 25.0329 20.9293 27.0284 20.9475 28.8144C20.9658 30.6004 20.9111 32.195 20.8382 34.0083C20.7653 35.8216 20.656 37.8627 20.574 39.8035C20.4919 41.7444 20.4282 43.5759 20.3826 45.2799C20.337 46.9838 20.3097 48.542 20.3097 49.9817C20.3097 51.4214 20.337 52.7336 20.3553 53.4443C20.3735 54.155 20.3917 54.2735 20.3735 54.3555C20.3644 54.4375 20.3188 54.4831 19.8268 54.4922C19.3347 54.4922 18.3779 54.4649 17.3938 54.5195C16.4097 54.5742 15.3892 54.72 14.3686 55.0207C13.3481 55.3214 12.3366 55.7861 11.3252 56.5788C10.3138 57.3625 9.31144 58.4742 8.60981 59.7043C7.90818 60.9344 7.49813 62.2921 7.3979 63.7501C7.29767 65.208 7.49813 66.757 7.87173 68.0145C8.25444 69.272 8.81027 70.247 9.60302 71.1035C10.3958 71.96 11.4345 72.7163 12.7922 73.3633C14.1499 74.0193 15.8266 74.5752 17.3392 74.8212C18.8518 75.0672 20.2004 75.0126 21.3758 74.8394C22.5513 74.6663 23.5627 74.3747 24.2917 73.9829C25.0206 73.5911 25.4762 73.099 25.6858 72.5068C25.8954 71.9054 25.8772 71.2037 25.6038 70.6479C25.3396 70.0921 24.8293 69.6911 24.2734 69.4815C23.7267 69.2629 23.1344 69.2355 22.6424 69.3175C22.1412 69.3995 21.7403 69.6 21.4396 69.9098C21.148 70.2105 20.9658 70.6205 20.9111 70.985C20.8564 71.3495 20.9384 71.6593 21.0842 71.96C21.23 72.2607 21.4487 72.5432 21.6492 72.7072C21.8405 72.8712 22.0137 72.9168 21.9863 72.9532C21.959 72.9897 21.7403 73.0261 21.312 73.099C20.8838 73.1719 20.255 73.2813 19.4896 73.2722C18.7333 73.263 17.8403 73.1355 17.0385 72.9624C16.2275 72.7892 15.4985 72.5796 14.6238 72.1969C13.749 71.8142 12.7376 71.2584 11.8628 70.5112C10.9881 69.764 10.2591 68.8346 9.80349 67.9325C9.34788 67.0304 9.16564 66.1556 9.12919 65.1898C9.09275 64.2239 9.19298 63.1669 9.45723 62.2101C9.72148 61.2625 10.1497 60.4241 10.7967 59.6496C11.4437 58.8842 12.3002 58.1917 13.2023 57.7179C14.1044 57.244 15.0612 56.998 15.8995 56.8067C16.7469 56.6153 17.4758 56.4968 18.223 56.4331C18.9611 56.3693 19.7083 56.3693 20.1001 56.3875C20.5011 56.4057 20.5466 56.4422 20.5922 56.6335C20.6377 56.8249 20.6651 57.1711 20.7926 57.9183C20.9202 58.6655 21.148 59.8228 21.4852 60.9253C21.8223 62.0279 22.2688 63.0758 22.8702 64.1145C23.4716 65.1533 24.2279 66.1921 25.0024 67.0031C25.7769 67.814 26.5606 68.4063 27.2895 68.8346C28.0185 69.272 28.6837 69.5544 29.3671 69.7822C30.0596 70.01 30.7704 70.1741 31.6542 70.2561C32.5381 70.3381 33.6042 70.3198 34.7888 70.2378C35.9733 70.1558 37.2855 70.0009 38.3425 69.8096C39.3995 69.6182 40.2013 69.3995 40.7207 69.2537C41.2401 69.108 41.477 69.035 41.8051 69.1626C42.1331 69.2902 42.5431 69.6 43.1445 70.0283C43.7459 70.4565 44.5387 70.9941 44.9305 71.2766C45.3223 71.5682 45.3223 71.6047 44.7209 72.0238C44.1195 72.443 42.9076 73.2539 41.5044 74.1651C40.1011 75.0764 38.5156 76.0787 37.4768 76.7074C36.4381 77.3361 35.946 77.5913 35.6453 77.7006C35.3446 77.81 35.2262 77.7644 34.6065 77.4273C33.9869 77.081 32.857 76.4432 31.7818 75.9238C30.7066 75.4044 29.6769 75.0217 28.6472 74.8577C27.6176 74.7028 26.5879 74.7665 25.8043 75.131C25.0115 75.4864 24.4557 76.1333 24.1277 76.7439C23.1618 78.5025 24.2552 80.9992 25.941 81.8011C26.6061 82.12 27.4536 82.2111 28.3465 82.1929C29.2304 82.1747 30.1507 82.038 31.0346 81.8284C31.9276 81.6188 32.7841 81.3363 33.3946 81.0812C34.0051 80.8261 34.3605 80.5983 34.6339 80.4616C34.9072 80.3249 35.0986 80.2702 35.4813 80.3887C35.864 80.5071 36.4198 80.7896 37.5315 81.5095C38.6341 82.2293 40.2834 83.3866 41.4953 84.2795C42.7072 85.1725 43.4817 85.7921 44.0284 86.2569C44.5751 86.7307 44.9032 87.0496 45.0125 87.241C45.1219 87.4323 45.0307 87.487 44.6936 87.9244C44.3564 88.3618 43.7733 89.1636 43.2994 89.9564C42.8256 90.7491 42.4611 91.5236 42.0693 92.4622C41.6684 93.4007 41.2401 94.5033 41.0761 95.8428C40.9121 97.1731 41.0123 98.7313 41.2766 100.025C41.5408 101.319 41.9782 102.358 42.5249 103.324C43.0808 104.299 43.7459 105.21 44.3747 105.939C44.9943 106.668 45.5775 107.215 45.9419 107.515C46.2882 107.798 46.4522 107.843 46.5616 107.843C46.6709 107.843 46.8349 107.798 47.1812 107.515C47.5457 107.224 48.1197 106.668 48.7485 105.939C49.3681 105.21 50.0424 104.299 50.5982 103.324C51.154 102.349 51.5823 101.319 51.8466 100.025C52.1108 98.7313 52.211 97.1731 52.047 95.8428C51.883 94.5124 51.4456 93.4098 51.0538 92.4622C50.6529 91.5236 50.2975 90.7491 49.8237 89.9564C49.3499 89.1636 48.7667 88.3526 48.4295 87.9244C48.0924 87.487 47.9922 87.4323 48.1106 87.241C48.22 87.0496 48.548 86.7307 49.0947 86.2569C49.6414 85.783 50.416 85.1634 51.6279 84.2795C52.8398 83.3866 54.4891 82.2384 55.5916 81.5095C56.6942 80.7896 57.2591 80.5071 57.6418 80.3887C58.0245 80.2702 58.2159 80.3249 58.4893 80.4616C58.7626 80.5983 59.118 80.8261 59.7285 81.0812C60.339 81.3363 61.1955 81.6188 62.0885 81.8284C62.9815 82.038 63.8927 82.1747 64.7766 82.1929C65.6605 82.2111 66.517 82.12 67.1731 81.8011C68.8497 80.9992 69.9431 78.5025 68.9864 76.7439C68.6492 76.1333 68.0934 75.4864 67.3097 75.131C66.517 74.7757 65.4873 74.7028 64.4668 74.8577C63.4371 75.0126 62.4074 75.4044 61.3322 75.9238C60.257 76.4432 59.1271 77.0901 58.5075 77.4273C57.8879 77.7735 57.7694 77.81 57.4687 77.7006C57.168 77.5913 56.676 77.3453 55.6372 76.7074C54.5984 76.0787 53.0038 75.0672 51.6096 74.1651C50.2064 73.2539 49.0036 72.4521 48.3931 72.0238C47.7917 71.6047 47.7917 71.5591 48.1835 71.2766C48.5753 70.985 49.3681 70.4565 49.9695 70.0283C50.5709 69.6 50.9809 69.2811 51.309 69.1626C51.637 69.0442 51.8739 69.108 52.3933 69.2537C52.9127 69.3995 53.7145 69.6182 54.7715 69.8096C55.8285 70.0009 57.1407 70.1558 58.3252 70.2378C59.5098 70.3198 60.5668 70.3381 61.4598 70.2561C62.3437 70.1741 63.0544 70.01 63.7469 69.7822C64.4394 69.5544 65.1046 69.272 65.8245 68.8346C66.5534 68.3972 67.3371 67.814 68.1116 67.0031C68.8861 66.1921 69.6424 65.1624 70.2438 64.1145C70.8452 63.0758 71.2917 62.0279 71.6289 60.9253C71.966 59.8228 72.1938 58.6655 72.3214 57.9183C72.4489 57.1711 72.4854 56.8249 72.5218 56.6335C72.5674 56.4422 72.613 56.4057 73.0139 56.3875C73.4148 56.3693 74.1529 56.3693 74.891 56.4331C75.6291 56.4968 76.3671 56.6153 77.2146 56.8067C78.062 56.998 79.0096 57.244 79.9117 57.7179C80.8138 58.1917 81.6795 58.8842 82.3173 59.6496C82.9643 60.415 83.3834 61.2533 83.6477 62.2101C83.9119 63.1578 84.0122 64.2239 83.9757 65.1898C83.9393 66.1556 83.757 67.0304 83.3014 67.9325C82.8458 68.8346 82.1169 69.764 81.2421 70.5112C80.3673 71.2584 79.3559 71.8142 78.4811 72.1969C77.6064 72.5796 76.8774 72.7983 76.0664 72.9624C75.2555 73.1355 74.3716 73.263 73.6153 73.2722C72.859 73.2813 72.2211 73.1719 71.7929 73.099C71.3646 73.0261 71.1459 72.9988 71.1186 72.9532C71.0913 72.9168 71.2644 72.8712 71.4557 72.7072C71.6471 72.5432 71.8658 72.2607 72.0207 71.96C72.1665 71.6593 72.2485 71.3404 72.1938 70.985C72.1391 70.6205 71.9569 70.2196 71.6653 69.9098C71.3737 69.6091 70.9637 69.4086 70.4625 69.3175C69.9614 69.2355 69.3782 69.2629 68.8315 69.4815C68.2847 69.7002 67.7745 70.1012 67.5011 70.6479C67.2277 71.1946 67.2095 71.9054 67.4191 72.5068C67.6287 73.1081 68.0843 73.5911 68.8132 73.9829C69.5422 74.3747 70.5536 74.6663 71.7291 74.8394C72.9046 75.0126 74.2531 75.0764 75.7657 74.8212C77.2783 74.5752 78.955 74.0193 80.3127 73.3633C81.6704 72.7072 82.7 71.96 83.5019 71.1035C84.2946 70.247 84.8505 69.272 85.2332 68.0145C85.6159 66.757 85.8072 65.208 85.707 63.7501C85.6068 62.2921 85.1967 60.9344 84.4951 59.7043C83.7935 58.4742 82.7911 57.3716 81.7797 56.5788C80.7683 55.7952 79.7568 55.3305 78.7363 55.0207C77.7157 54.72 76.6952 54.5742 75.7111 54.5195C74.727 54.4649 73.7793 54.5013 73.2781 54.4922C72.7861 54.4922 72.7496 54.4375 72.7314 54.3555C72.7223 54.2735 72.7314 54.155 72.7496 53.4443C72.7679 52.7336 72.7952 51.4214 72.7952 49.9817C72.7952 48.542 72.7679 46.9747 72.7223 45.2799C72.6767 43.5759 72.613 41.7444 72.531 39.8035C72.4489 37.8627 72.3396 35.8216 72.2667 34.0083C72.1847 32.195 72.1391 30.6004 72.1574 28.8144C72.1756 27.0284 72.2576 25.0329 72.3669 23.7116C72.4763 22.3904 72.613 21.7343 72.6859 21.3789C72.7679 21.0236 72.7861 20.9689 72.9319 20.978C73.0868 20.9871 73.3693 21.0691 73.916 21.1147C74.4627 21.1603 75.2828 21.1785 76.1211 21.1511C76.9685 21.1147 77.8342 21.0236 78.8001 20.7867C79.7659 20.5406 80.8138 20.1488 81.8253 19.6385C82.8276 19.1283 83.7844 18.5086 84.7593 17.7523C85.7343 16.996 86.7184 16.1031 87.5932 15.1736C88.4588 14.2442 89.2151 13.2874 89.9714 12.2304C90.7369 11.1734 91.5114 10.0253 92.0308 9.25078C92.5502 8.47626 92.8144 8.08444 92.9602 7.86575C93.106 7.64706 93.1242 7.61061 92.9875 7.57416C92.8509 7.53771 92.5502 7.51949 91.8941 7.5286C91.238 7.54683 90.2175 7.6015 89.0056 7.71084C87.8028 7.82019 86.4086 7.9842 84.9416 8.2849C83.4745 8.59471 81.9164 9.0412 80.4767 9.6426C79.037 10.244 77.7066 10.9912 76.5585 11.9024C75.4104 12.8045 74.4445 13.8706 73.7064 14.8911C72.9683 15.9117 72.4489 16.8958 72.1756 17.4334C71.8931 17.971 71.8567 18.0622 71.7747 18.1077C71.6926 18.1533 71.5651 18.1533 71.3008 18.1077C71.0366 18.0622 70.6448 17.9619 69.9796 17.6794C69.3144 17.397 68.3759 16.9323 67.2915 16.34C66.2072 15.7477 64.9679 15.0278 63.1 13.8068C61.232 12.5767 58.7171 10.8363 56.3388 9.25078C53.9606 7.66528 51.7008 6.21646 50.4706 5.45105C49.2405 4.68564 49.0309 4.5854 48.958 4.49428C48.876 4.40316 48.9307 4.33027 49.2678 4.16625C49.5959 4.00223 50.2155 3.74709 51.1267 3.45551C52.0379 3.16392 53.2407 2.82677 54.3797 2.59897C55.5187 2.38028 56.6122 2.26183 57.8879 2.2436C59.1635 2.22538 60.6397 2.28916 61.9518 2.46229C63.264 2.63542 64.4121 2.9179 65.4509 3.25504C66.4897 3.59219 67.4009 3.97489 68.2756 4.51251C69.1504 5.04101 69.9796 5.7153 70.5628 6.3167C71.155 6.91809 71.5013 7.43748 71.7655 8.11177C72.0298 8.78607 72.212 9.60615 72.2211 10.3898C72.2303 11.1734 72.0662 11.9115 71.72 12.4765C71.3737 13.0414 70.8361 13.4241 70.4352 13.6337C70.0343 13.8433 69.77 13.8888 69.3691 13.907C68.9681 13.9162 68.4305 13.907 68.2483 13.8706C68.066 13.8433 68.2483 13.8159 68.4579 13.6519C68.6674 13.4879 68.9226 13.1963 69.1048 12.8136C69.2779 12.4218 69.3873 11.9388 69.2415 11.465C69.0957 10.9912 68.713 10.5174 68.2483 10.1984C67.7836 9.87951 67.246 9.7155 66.6628 9.77017C66.0705 9.82484 65.4327 10.0891 65.0408 10.5174C64.649 10.9456 64.5032 11.5379 64.5306 12.1393C64.5488 12.7407 64.731 13.3512 65.1228 13.8888C65.5147 14.4264 66.1252 14.9003 66.7995 15.2374C67.4738 15.5746 68.2118 15.7659 68.9226 15.8206C69.6333 15.8753 70.3167 15.7932 70.9455 15.5472C71.5742 15.3012 72.1482 14.8912 72.6312 14.4082C73.105 13.9162 73.4877 13.3421 73.7702 12.6131C74.0527 11.8842 74.2349 11.0003 74.2167 10.1438C74.1985 9.28723 73.9889 8.45803 73.6608 7.63795C73.3328 6.81786 72.8954 6.00689 72.0662 5.08657C71.237 4.17536 70.016 3.15481 68.6128 2.3894C67.2095 1.62398 65.624 1.09548 64.3483 0.758335C63.0635 0.421189 62.0885 0.275396 61.0133 0.193387C59.9381 0.102267 58.7626 0.0749304 57.5507 0.166051C56.3388 0.257172 55.0905 0.466749 53.8421 0.758335C52.5937 1.04992 51.3454 1.40529 50.1517 1.8609C48.9489 2.30739 47.8008 2.845 47.163 3.13658C46.8805 3.26415 46.6982 3.34616 46.5798 3.39172C46.4613 3.33705 46.2791 3.26415 45.9966 3.13658M46.5798 105.41C46.3338 105.183 45.9693 104.855 45.4955 104.262C44.9396 103.561 44.2289 102.495 43.7368 101.483C43.2448 100.463 42.9805 99.4967 42.8712 98.5946C42.7618 97.6925 42.7983 96.8633 42.9805 95.9156C43.1719 94.9771 43.4999 93.9292 43.9646 92.936C44.4202 91.9428 45.0034 90.9951 45.4955 90.2844C45.9784 89.5736 46.3702 89.0816 46.5798 88.7262C46.7985 89.0816 47.1903 89.5736 47.6732 90.2844C48.1653 91.0042 48.7393 91.9428 49.2041 92.936C49.6597 93.9292 49.9968 94.9771 50.1882 95.9156C50.3795 96.8542 50.416 97.6925 50.2975 98.5946C50.1882 99.4967 49.9148 100.463 49.4319 101.483C48.9398 102.504 48.2291 103.57 47.6732 104.262C47.1994 104.855 46.8349 105.183 46.5798 105.41ZM46.5798 85.7739C46.3702 85.6099 46.0604 85.3912 45.5775 85.0358C44.812 84.48 43.6366 83.587 42.7801 82.9765C41.9235 82.366 41.395 82.0289 40.5932 81.5095C39.7913 80.9901 38.7343 80.2702 38.1329 79.8602C37.5406 79.4501 37.413 79.3499 37.3675 79.2588C37.3219 79.1677 37.3493 79.0765 37.7137 78.8123C38.0782 78.5389 38.7799 78.0924 39.7093 77.5093C40.6387 76.9261 41.8051 76.2063 42.8985 75.4682C43.992 74.7301 45.0216 73.9738 45.6139 73.5273C46.2062 73.0717 46.3611 72.9259 46.5251 72.7892L46.5707 72.7528L46.6162 72.7892C46.7803 72.9259 46.9352 73.0717 47.5274 73.5273C48.1197 73.9829 49.1494 74.7392 50.2428 75.4682C51.3363 76.2063 52.5026 76.9261 53.4321 77.5093C54.3615 78.0924 55.0631 78.548 55.4276 78.8123C55.7921 79.0857 55.8285 79.1677 55.783 79.2588C55.7374 79.3499 55.6098 79.4501 55.0176 79.8602C54.4253 80.2702 53.3592 80.981 52.5573 81.5095C51.7554 82.0289 51.2269 82.366 50.3704 82.9765C49.5139 83.587 48.3384 84.48 47.573 85.0358C47.0992 85.3821 46.7803 85.6008 46.5707 85.7739H46.5798ZM46.5798 70.2834C46.4704 70.2014 46.352 70.1103 46.2153 70.01C45.5501 69.518 44.4567 68.7344 43.099 67.7411C41.7413 66.7479 40.1102 65.5451 38.625 64.4881C37.1397 63.422 35.8002 62.5017 34.3241 61.4994C32.8479 60.497 31.226 59.4309 29.686 58.5106C28.1461 57.5903 26.6973 56.8249 25.5491 56.2599C24.401 55.7041 23.5718 55.3487 23.1071 55.1027C22.6424 54.8567 22.5422 54.7109 22.4966 54.5833C22.451 54.4557 22.451 54.3191 22.4146 53.1345C22.3781 51.959 22.3052 49.7266 22.3417 47.1479C22.3781 44.5692 22.5057 41.6533 22.6606 38.8012C22.8064 35.9491 22.9704 33.1608 23.0342 30.8919C23.098 28.623 23.0524 26.8826 22.9704 25.4611C22.8793 24.0397 22.7335 22.9462 22.6151 22.1808C22.4875 21.4063 22.3873 20.9598 22.3508 20.6864C22.3052 20.4131 22.3326 20.3219 22.4146 20.2582C22.5057 20.1944 22.6697 20.1488 23.3076 19.8572C23.9545 19.5656 25.0753 19.028 26.2781 18.4084C27.4809 17.7888 28.7566 17.0963 30.1598 16.2215C31.5631 15.3559 33.0757 14.308 34.5336 13.3057C35.9916 12.2942 37.3857 11.3192 38.7343 10.3716C40.0829 9.4148 41.395 8.48537 42.5887 7.68351C43.7824 6.88164 44.8667 6.20735 45.5683 5.79731C46.0877 5.4875 46.3884 5.31437 46.5889 5.17769C46.7894 5.31437 47.0901 5.47839 47.6095 5.79731C48.3111 6.21646 49.3954 6.89076 50.5891 7.68351C51.7828 8.48537 53.0858 9.4148 54.4435 10.3716C55.7921 11.3283 57.1862 12.3033 58.6442 13.3057C60.1021 14.3171 61.6238 15.3559 63.018 16.2215C64.4212 17.0872 65.6969 17.7888 66.8997 18.4084C68.1025 19.028 69.2233 19.5656 69.8702 19.8572C70.5172 20.1488 70.6721 20.1944 70.7632 20.2582C70.8543 20.3219 70.8726 20.4131 70.827 20.6864C70.7814 20.9598 70.6812 21.4063 70.5628 22.1808C70.4443 22.9553 70.2985 24.0488 70.2074 25.4611C70.1163 26.8826 70.0798 28.623 70.1436 30.8919C70.2074 33.1608 70.3623 35.94 70.5172 38.8012C70.663 41.6533 70.7997 44.5783 70.8361 47.1479C70.8726 49.7266 70.7997 51.9499 70.7632 53.1345C70.7268 54.3099 70.7268 54.4466 70.6812 54.5833C70.6356 54.72 70.5354 54.8567 70.0707 55.1027C69.606 55.3487 68.7677 55.695 67.6287 56.2599C66.4805 56.8158 65.0317 57.5903 63.4918 58.5106C61.9518 59.4309 60.3299 60.5062 58.8537 61.4994C57.3776 62.5017 56.0381 63.422 54.5528 64.4881C53.0676 65.5542 51.4365 66.757 50.0788 67.7411C48.7211 68.7344 47.6277 69.518 46.9625 70.01C46.8258 70.1103 46.7074 70.2014 46.598 70.2834H46.5798ZM81.151 42.5645C80.2033 42.5645 79.4379 43.3299 79.4379 44.2776C79.4379 45.2252 80.2033 45.9906 81.151 45.9906C82.0986 45.9906 82.864 45.2252 82.864 44.2776C82.864 43.3299 82.0986 42.5645 81.151 42.5645ZM77.5608 47.2572C76.1758 47.2572 75.0459 48.378 75.0459 49.7721C75.0459 51.1663 76.1667 52.2871 77.5608 52.2871C78.955 52.2871 80.0757 51.1663 80.0757 49.7721C80.0757 48.378 78.955 47.2572 77.5608 47.2572ZM55.4549 85.4914C54.0335 85.4914 52.8853 86.6396 52.8853 88.0611C52.8853 89.4825 54.0335 90.6307 55.4549 90.6307C56.8764 90.6307 58.0245 89.4825 58.0245 88.0611C58.0245 86.6396 56.8764 85.4914 55.4549 85.4914ZM59.9199 78.9763C60.175 78.7941 60.7217 78.4569 61.4234 78.0833C62.125 77.7097 62.9724 77.3088 63.6558 77.0628C64.3392 76.8168 64.8586 76.7165 65.378 76.7256C65.8883 76.7256 66.3985 76.8259 66.7539 77.0446C67.1093 77.2541 67.3189 77.5822 67.3826 77.9649C67.4464 78.3476 67.3644 78.8032 67.1093 79.1859C66.8633 79.5777 66.4441 79.8966 65.8792 80.088C65.3142 80.2793 64.5943 80.3249 63.7925 80.2429C62.9906 80.1609 62.0976 79.9422 61.4325 79.76C60.7582 79.5777 60.3117 79.4319 60.0565 79.3408C59.8105 79.2497 59.765 79.2315 59.7194 79.2041C59.6829 79.1768 59.6465 79.1586 59.9016 78.9763H59.9199ZM69.5149 57.3807C68.6492 57.7543 66.9361 58.5926 65.0226 59.7407C63.1091 60.8889 60.9951 62.3559 59.2638 63.5405C57.5325 64.7159 56.1748 65.6089 55.2545 66.2285C54.3342 66.839 53.8512 67.1762 53.8603 67.4313C53.8786 67.6865 54.3979 67.8505 55.4276 67.9872C56.4664 68.1239 58.0245 68.2241 59.2182 68.2605C60.4119 68.297 61.2502 68.2605 62.2525 67.9872C63.264 67.7229 64.4394 67.2309 65.4418 66.5383C66.4441 65.8458 67.2642 64.9437 67.9294 64.0599C68.5945 63.176 69.0957 62.3103 69.442 61.3627C69.7882 60.415 69.9887 59.3854 70.1072 58.7202C70.2347 58.055 70.2894 57.7452 70.3258 57.5447C70.3623 57.3443 70.3805 57.2531 70.3805 57.1711C70.3805 57.0891 70.3714 57.0071 69.5058 57.3898L69.5149 57.3807ZM88.2766 9.74283C87.256 9.89774 85.2423 10.2075 83.3561 10.7543C81.4699 11.301 79.7204 12.0846 78.2716 13.0323C76.8227 13.9799 75.6837 15.0734 74.9457 16.021C74.2076 16.9687 73.8795 17.7615 73.7155 18.2079C73.5515 18.6544 73.5515 18.7638 73.9616 18.8185C74.3716 18.8822 75.1826 18.9005 76.1302 18.8731C77.0779 18.8458 78.144 18.7638 79.3741 18.3628C80.5951 17.9619 81.9802 17.233 83.183 16.3855C84.3858 15.5381 85.4245 14.5813 86.3084 13.6246C87.2014 12.6678 87.9395 11.711 88.4224 11.0823C88.9053 10.4536 89.1331 10.1438 89.2698 9.96152C89.4065 9.77017 89.4612 9.70639 89.4703 9.65171C89.4885 9.60615 89.4703 9.5697 89.443 9.56059C89.4156 9.54237 89.3792 9.54237 89.3518 9.56059C89.3245 9.56059 89.2972 9.57882 88.2766 9.74283ZM11.9539 42.5736C12.9016 42.5736 13.667 43.339 13.667 44.2867C13.667 45.2343 12.9016 45.9997 11.9539 45.9997C11.0063 45.9997 10.2409 45.2343 10.2409 44.2867C10.2409 43.339 11.0063 42.5736 11.9539 42.5736ZM15.5441 47.2663C16.9291 47.2663 18.059 48.3871 18.059 49.7813C18.059 51.1754 16.9382 52.2962 15.5441 52.2962C14.1499 52.2962 13.0292 51.1754 13.0292 49.7813C13.0292 48.3871 14.1499 47.2663 15.5441 47.2663ZM37.65 85.5006C39.0714 85.5006 40.2196 86.6487 40.2196 88.0702C40.2196 89.4916 39.0714 90.6398 37.65 90.6398C36.2285 90.6398 35.0804 89.4916 35.0804 88.0702C35.0804 86.6487 36.2285 85.5006 37.65 85.5006ZM33.185 78.9854C32.9299 78.8032 32.3832 78.466 31.6816 78.0924C30.9799 77.7189 30.1325 77.3179 29.4491 77.0719C28.7657 76.8259 28.2463 76.7256 27.7269 76.7348C27.2166 76.7348 26.7064 76.835 26.351 77.0537C25.9956 77.2632 25.7861 77.5913 25.7223 77.974C25.6585 78.3567 25.7405 78.8123 25.9956 79.195C26.2417 79.5868 26.6608 79.9057 27.2258 80.0971C27.7907 80.2884 28.5106 80.334 29.3124 80.252C30.1143 80.17 31.0073 79.9513 31.6724 79.7691C32.3467 79.5868 32.7932 79.441 33.0484 79.3499C33.2944 79.2588 33.34 79.2406 33.3855 79.2132C33.422 79.1859 33.4584 79.1677 33.2033 78.9854H33.185ZM23.59 57.3898C24.4557 57.7634 26.1688 58.6017 28.0823 59.7499C29.9958 60.898 32.1098 62.365 33.8411 63.5496C35.5724 64.725 36.9301 65.618 37.8504 66.2376C38.7707 66.8482 39.2537 67.1853 39.2446 67.4404C39.2264 67.6956 38.707 67.8596 37.6773 67.9963C36.6385 68.133 35.0804 68.2332 33.8867 68.2696C32.693 68.3061 31.8547 68.2696 30.8524 67.9963C29.8409 67.732 28.6655 67.24 27.6631 66.5475C26.6608 65.8549 25.8407 64.9528 25.1755 64.069C24.5104 63.1851 24.0092 62.3195 23.6629 61.3718C23.3167 60.4241 23.1162 59.3945 22.9978 58.7293C22.8702 58.0641 22.8155 57.7543 22.7791 57.5538C22.7426 57.3534 22.7244 57.2623 22.7244 57.1802C22.7244 57.0982 22.7335 57.0162 23.5992 57.3989L23.59 57.3898ZM4.77363 9.74283C5.79418 9.89774 7.80795 10.2075 9.69414 10.7543C11.5803 11.301 13.3299 12.0846 14.7787 13.0323C16.2275 13.9799 17.3665 15.0734 18.1046 16.021C18.8427 16.9687 19.1707 17.7615 19.3347 18.2079C19.4987 18.6544 19.4987 18.7638 19.0887 18.8185C18.6786 18.8822 17.8677 18.9005 16.92 18.8731C15.9724 18.8458 14.9062 18.7638 13.6761 18.3628C12.4551 17.9619 11.0701 17.233 9.86727 16.3855C8.66448 15.5381 7.6257 14.5813 6.74183 13.6246C5.84885 12.6678 5.11077 11.711 4.62783 11.0823C4.14489 10.4536 3.91709 10.1438 3.78041 9.96152C3.64373 9.77017 3.58906 9.70639 3.57083 9.65171C3.55261 9.60615 3.57083 9.5697 3.59817 9.56059C3.62551 9.54237 3.66195 9.54237 3.68929 9.56059C3.71663 9.56059 3.74396 9.57882 4.76451 9.74283H4.77363Z" fill="#29B297"/>
<path d="M413.624 73.8003H302.238V75.1762H413.624V73.8003Z" fill="#4A505A"/>
</svg>
