<svg width="155" height="40" viewBox="0 0 155 40" fill="none" xmlns="http://www.w3.org/2000/svg">
<g clip-path="url(#clip0_575_5930)">
<path fill-rule="evenodd" clip-rule="evenodd" d="M76.3129 20.8456C80.0571 20.8456 81.7078 18.5896 81.7078 14.984C81.7078 11.3784 80.2195 8.43232 76.164 8.43232C72.413 8.43232 70.7319 10.6715 70.7319 14.294C70.7319 17.9165 72.2405 20.8456 76.3129 20.8456ZM111.266 20.8456C115.011 20.8456 116.661 18.5896 116.661 14.984C116.661 11.3784 115.173 8.43232 111.118 8.43232C107.366 8.43232 105.685 10.6715 105.685 14.294C105.685 17.9165 107.194 20.8456 111.266 20.8456ZM123.615 8.60144C123.734 8.89571 123.778 9.2238 123.778 9.5316V15.4677H124.617C126.92 15.4677 128.273 14.4056 128.273 12.0346C128.273 9.66351 126.92 8.60144 124.617 8.60144H123.615ZM135.389 15.0787V20.0237C135.389 20.2605 135.362 20.4871 135.291 20.6934H136.249C138.173 20.6934 139.776 20.0406 139.776 17.8962C139.776 15.7518 138.18 15.0787 136.249 15.0787H135.393H135.389ZM85.9662 9.05806V8.67247C85.9662 8.63527 85.9662 8.52026 85.9425 8.48982C85.885 8.40188 85.3438 8.39512 85.2593 8.39512H84.1194V7.59011H87.6607L93.0692 18.4645C93.0861 18.5017 93.1097 18.5422 93.13 18.5896C93.1503 18.5422 93.1706 18.4983 93.1875 18.4645L98.596 7.59011H102.191V8.39512H101.18C101.018 8.39512 100.5 8.3985 100.395 8.56424C100.345 8.64541 100.341 8.80438 100.341 8.89571C100.341 9.06144 100.358 9.22718 100.358 9.39292L100.842 19.8242C100.872 20.7205 100.906 20.8423 101.83 20.8423H102.597V21.6473H96.6004V20.8423H97.6658C97.8282 20.8423 98.4911 20.8389 98.5858 20.6529C98.6163 20.5954 98.6163 20.4973 98.6163 20.4364V20.1252L98.2205 10.6173L92.8222 21.539L92.687 21.8536H92.21L92.0747 21.539L86.8726 11.0638L86.3923 20.088C86.3923 20.2368 86.3721 20.3823 86.3721 20.5277C86.3721 20.5751 86.3721 20.6664 86.3991 20.7104C86.4837 20.8592 87.2244 20.8626 87.3597 20.8626H88.4082V21.6676H83.8116V20.8423H84.4678C84.6572 20.8423 85.0665 20.8423 85.2153 20.6934C85.3776 20.5345 85.4047 20.0237 85.4182 19.8208L85.9594 9.05806H85.9662ZM146.873 14.798V20.0237C146.873 20.2605 146.819 20.4871 146.72 20.6934H150.194C151.862 20.6934 152.785 20.2064 152.937 18.4645L153.093 16.6786H154.043L153.641 22.4117L152.839 22.3237L152.883 21.6405C152.734 21.6642 152.585 21.6676 152.45 21.6676H142.834V20.8626H143.862C143.974 20.8626 144.491 20.8659 144.576 20.7814C144.65 20.707 144.647 20.2876 144.647 20.1895V9.08512C144.647 8.98703 144.647 8.571 144.576 8.49659C144.495 8.41203 143.974 8.41541 143.862 8.41541H142.834V7.61041H151.348C151.476 7.61041 151.625 7.61379 151.77 7.63746L151.709 6.95422L152.535 6.87305L152.958 12.6028H151.939L151.848 10.9962C151.74 9.12571 150.766 8.59129 148.993 8.59129H146.714C146.812 8.79762 146.866 9.02424 146.866 9.26101V13.834H147.37C148.628 13.834 149.271 13.5735 149.271 12.1732V11.1991H150.096V17.8286H149.271V16.4824C149.271 15.0821 148.628 14.8047 147.37 14.8047H146.866L146.873 14.798ZM44.5828 7.61041H49.1963V8.41541H48.1343C48.229 8.56762 48.3102 8.72997 48.3812 8.87203L51.3272 14.9908C51.3374 15.0144 51.3509 15.0381 51.3611 15.0652L53.9181 9.13586C53.9655 9.00056 54.0264 8.81791 54.0264 8.67585C54.0264 8.64541 54.0264 8.61159 54.0128 8.58453C53.9452 8.42894 53.4683 8.41541 53.3398 8.41541H52.0883V7.61041H61.3391V8.41541H60.8317C60.7201 8.41541 60.2026 8.41203 60.1214 8.49659C60.047 8.571 60.0504 8.99042 60.0504 9.08512V12.9647C60.3447 12.9579 60.7235 12.9275 60.8182 12.8159L64.0619 9.10542C64.1498 8.99718 64.3426 8.74688 64.3426 8.60144C64.3426 8.44247 63.6932 8.41541 63.5985 8.41541H63.0911V7.61041H68.2662V8.41541H67.6844C66.6596 8.41541 65.6009 8.81115 64.921 9.59248L61.9479 13.0087C63.9773 13.5735 65.0495 14.913 65.4791 17.0303C65.6313 17.7812 65.6922 18.5389 65.8241 19.2898C65.8951 19.699 66.0271 20.3315 66.3653 20.6089C66.5344 20.7476 66.7407 20.7881 66.9572 20.7881C67.2244 20.7881 67.5322 20.6224 67.7419 20.4736L68.2425 20.1184L68.7702 20.734L68.2324 21.1196C67.6946 21.5526 67.0621 21.8739 66.3585 21.8739C63.8285 21.8739 63.6053 19.2458 63.2095 17.3449C62.807 15.4068 62.2388 13.8002 59.976 13.7731V20.0237C59.976 20.1556 59.9692 20.6698 60.0741 20.7712C60.1722 20.8659 60.6491 20.8626 60.7776 20.8626H61.8058V21.6676H55.8157L56.0829 20.8626H57.0401C57.1585 20.8626 57.6185 20.8693 57.7098 20.778C57.8079 20.6833 57.8045 20.1523 57.8045 20.0237V9.08512C57.8045 8.98703 57.8045 8.56762 57.7335 8.49321C57.6523 8.41203 57.1483 8.41541 57.0401 8.41541H55.9915V8.39512H55.8021C55.6668 8.39512 55.4977 8.40526 55.3861 8.48982C55.1967 8.63188 55.0106 9.15277 54.9193 9.37939L50.5696 19.3473C50.0284 20.5886 48.9799 21.8164 47.5153 21.8164C46.4769 21.8164 46.1522 20.9268 46.1522 20.0237V19.6381L46.531 19.7092C46.8456 19.7667 47.2954 19.8343 47.61 19.8343C48.7499 19.8343 49.3891 19.5367 49.8593 18.505L50.025 18.1567C50.0724 18.0484 50.0893 17.9199 50.0893 17.8015C50.0893 17.6561 50.0487 17.5208 49.9777 17.3922V17.3855L46.159 9.38277C46.0609 9.16968 45.8478 8.63527 45.6516 8.49997C45.5332 8.41879 45.354 8.41203 45.2187 8.41203H43.8522C43.0776 8.41203 43.0878 8.51012 43.0878 9.25086V20.0237C43.0878 20.7645 43.0776 20.8626 43.8522 20.8626H44.9007V21.6676H39.2048V20.8626H40.0842C40.8453 20.8626 40.8486 20.7577 40.8486 20.0237V8.58453H36.6714V12.8193C36.6714 14.8825 36.411 17.0574 35.704 19.0056C35.2948 20.1353 34.5946 21.5323 33.6137 22.2764L33.3871 22.4489L31.7534 20.7374L32.0274 20.5209C34.209 18.7959 35.5079 16.0393 35.5079 13.2657V9.47748C35.5079 9.29145 35.518 8.69953 35.3759 8.55409C35.2136 8.39173 34.4356 8.41203 34.2226 8.41203H33.4548V7.60702H44.5862L44.5828 7.61041ZM135.393 14.1249H136.641C138.555 14.1249 141.075 14.6897 141.928 16.638C142.103 17.0371 142.185 17.4599 142.185 17.8962C142.185 18.3325 142.1 18.7553 141.928 19.1545C141.075 21.1027 138.555 21.6676 136.641 21.6676H131.354V20.8423H132.383C132.494 20.8423 133.012 20.849 133.096 20.7611C133.171 20.6867 133.167 20.2673 133.167 20.1726V9.06821C133.167 8.97689 133.167 8.56085 133.1 8.48982C133.022 8.40865 132.491 8.41541 132.383 8.41541H131.354V7.61041H137.219V8.41541H136.191C136.069 8.41541 135.562 8.41203 135.467 8.50674C135.386 8.59129 135.389 8.99718 135.389 9.10542V14.1249H135.393ZM123.778 16.4418V20.1929C123.778 20.2943 123.778 20.7002 123.852 20.778C123.94 20.8693 124.461 20.8626 124.579 20.8626H125.401V21.6676H119.743V20.8626H120.771C120.882 20.8626 121.4 20.8659 121.481 20.7814C121.556 20.707 121.552 20.2876 121.552 20.1895V9.08512C121.552 8.98703 121.552 8.571 121.481 8.49659C121.4 8.41203 120.879 8.41541 120.771 8.41541H119.743V7.61041H125.232C127.082 7.61041 129.095 8.2057 130.113 9.86983C130.515 10.526 130.705 11.2701 130.705 12.0379C130.705 12.8057 130.526 13.5127 130.137 14.1587C129.125 15.8431 127.092 16.4486 125.232 16.4486H123.778V16.4418ZM111.192 21.8198C106.812 21.8198 103.257 19.2559 103.257 14.6288C103.257 10.0017 106.825 7.4582 111.192 7.4582C115.559 7.4582 119.09 10.0322 119.09 14.6288C119.09 19.2255 115.575 21.8198 111.192 21.8198ZM76.2384 21.8198C71.8583 21.8198 68.3034 19.2559 68.3034 14.6288C68.3034 10.0017 71.8718 7.4582 76.2384 7.4582C80.6051 7.4582 84.1363 10.0322 84.1363 14.6288C84.1363 19.2255 80.622 21.8198 76.2384 21.8198Z" fill="white"/>
<path d="M74.1279 27.3496H32.7817V27.8603H74.1279V27.3496Z" fill="white"/>
<path fill-rule="evenodd" clip-rule="evenodd" d="M76.817 26.6429C77.1485 26.0814 77.7404 25.8277 78.3391 25.8277C79.3606 25.8277 80.0945 26.5752 80.2062 27.5189H77.5984V27.9248H80.2062C80.1081 28.9564 79.2659 29.6464 78.312 29.6464C77.7742 29.6464 77.1586 29.3792 76.8035 28.8076H76.2725C76.6885 29.5855 77.4394 30.0523 78.312 30.0523C79.6278 30.0523 80.6662 29.0917 80.6662 27.7286C80.6662 26.6902 79.9187 25.4286 78.3492 25.4286C77.4123 25.4286 76.6648 25.8751 76.2894 26.6496H76.8204L76.817 26.6429ZM81.3629 25.503V29.9711H81.8094V25.503H81.3629ZM82.1172 27.6813L83.8862 29.9711H84.4409L82.6482 27.6339L84.3699 25.503H83.8388L82.1172 27.6813ZM86.7984 25.4218C85.4691 25.4218 84.4308 26.4061 84.4308 27.7455C84.4308 29.085 85.4827 30.0456 86.7984 30.0456C88.1142 30.0456 89.1661 29.0477 89.1661 27.7083C89.1661 26.3689 88.1345 25.4185 86.7984 25.4185V25.4218ZM86.8052 29.643C85.7296 29.643 84.8806 28.8685 84.8806 27.7455C84.8806 26.6226 85.7127 25.8243 86.8052 25.8243C87.8977 25.8243 88.7196 26.5989 88.7196 27.7083C88.7196 28.8177 87.8909 29.6397 86.8052 29.6397V29.643ZM89.6058 27.9519V28.3577H91.2496V27.9519H89.6058ZM94.0502 25.4218C92.721 25.4218 91.6826 26.4061 91.6826 27.7455C91.6826 29.085 92.7345 30.0456 94.0502 30.0456C95.366 30.0456 96.4179 29.0477 96.4179 27.7083C96.4179 26.3689 95.3863 25.4185 94.0502 25.4185V25.4218ZM94.057 29.643C92.9814 29.643 92.1324 28.8685 92.1324 27.7455C92.1324 26.6226 92.9645 25.8243 94.057 25.8243C95.1495 25.8243 95.9714 26.5989 95.9714 27.7083C95.9714 28.8177 95.1427 29.6397 94.057 29.6397V29.643ZM97.7404 29.9678H98.1869V25.9055H99.2084V25.4996H96.7223V25.9055H97.7438V29.9678H97.7404ZM99.6954 29.9678H102.148V29.5619H100.142V27.918H102.08V27.5121H100.142V25.8988H102.148V25.4929H99.6954V29.961V29.9678ZM104.816 25.4996H104.394L102.54 29.9678H103.03L104.607 26.0611L106.169 29.9678H106.66L104.82 25.4996H104.816ZM107.16 25.4996V29.9678H108.635C109.481 29.9678 110.056 29.4367 110.056 28.6588C110.056 27.8808 109.542 27.3498 108.635 27.3498H107.61V25.503H107.164L107.16 25.4996ZM107.607 27.7523H108.638C109.416 27.7523 109.606 28.3138 109.606 28.6588C109.606 29.0038 109.42 29.5653 108.638 29.5653H107.607V27.7523Z" fill="white"/>
<path fill-rule="evenodd" clip-rule="evenodd" d="M15.7143 5.82452C15.7143 5.74672 15.7143 5.59113 15.7143 5.49643C15.7143 5.40172 15.7143 5.37128 15.6703 5.3104C15.6263 5.24951 15.535 5.15819 15.4437 5.09392C15.3523 5.02966 15.261 4.99245 15.1866 4.96539C15.1122 4.94172 15.0513 4.93157 14.9431 4.92819C14.8348 4.92481 14.6759 4.92481 14.5778 4.92481C14.4797 4.92481 14.4459 4.92481 14.4256 4.92481C14.4087 4.92481 14.4087 4.92142 14.4087 4.91466C14.4087 4.91128 14.4087 4.90451 14.4087 4.85378C14.4087 4.80304 14.4087 4.70495 14.4087 4.65422C14.4087 4.60348 14.4087 4.6001 14.4087 4.6001C14.4087 4.6001 14.4154 4.6001 15.0784 4.6001H17.8519C18.64 4.6001 18.9005 4.6001 19.1 4.61363C19.2996 4.62716 19.445 4.6576 19.604 4.71848C19.763 4.77598 19.9388 4.86731 20.1215 5.00937C20.3041 5.15143 20.5003 5.3476 20.6424 5.55055C20.7844 5.75349 20.8758 5.95981 20.9603 6.18643C21.0449 6.41305 21.1227 6.65658 21.1599 6.93732C21.1971 7.21468 21.1937 7.52924 21.1836 7.78291C21.1734 8.03998 21.1565 8.23954 21.1159 8.45263C21.0753 8.66572 21.0077 8.88895 20.9299 9.10881C20.8521 9.32866 20.7675 9.54513 20.6525 9.79205C20.5375 10.039 20.3921 10.3129 20.2094 10.6173C20.0268 10.9218 19.8035 11.2532 19.5262 11.5712C19.2488 11.8891 18.9174 12.1902 18.5825 12.4337C18.2443 12.6772 17.9027 12.8632 17.5407 13.0188C17.1788 13.1744 16.7966 13.3063 16.2013 13.4788C15.606 13.6513 14.7942 13.8712 14.0772 14.0572C13.3601 14.2433 12.7411 14.3988 12.4131 14.4868C12.0883 14.5713 12.0545 14.5849 12.0308 14.6018C12.0072 14.6153 11.9869 14.6322 11.838 15.0787C11.6892 15.5252 11.4085 16.408 11.2563 16.8815C11.1075 17.355 11.0872 17.4261 11.0838 17.4633C11.0838 17.5005 11.0973 17.5072 11.1616 17.4497C11.2292 17.3889 11.3476 17.2637 11.5066 17.1318C11.6622 16.9999 11.8583 16.8646 12.0613 16.7496C12.2642 16.638 12.4739 16.5467 12.7344 16.4553C12.9914 16.364 13.2959 16.2659 13.5901 16.1983C13.881 16.1272 14.1617 16.0833 14.4492 16.0562C14.7367 16.0292 15.0344 16.019 15.2475 16.0156C15.4606 16.0122 15.5857 16.0122 15.6703 16.0122C15.7548 16.0122 15.8022 16.0122 15.8259 16.0055C15.8496 15.9987 15.8496 15.9852 15.8496 15.674C15.8496 15.3628 15.8496 14.7641 15.8496 14.4563C15.8496 14.1486 15.8563 14.1384 15.8631 14.135C15.8698 14.135 15.8834 14.135 15.9713 14.1215C16.0593 14.1046 16.2216 14.0674 16.3907 14.0234C16.5598 13.9794 16.7357 13.9253 16.8609 13.878C16.986 13.8306 17.0571 13.7934 17.0976 13.7663C17.1382 13.7393 17.1484 13.7258 17.1551 13.7258C17.1619 13.7258 17.1619 13.7393 17.1619 14.1147C17.1619 14.4868 17.1619 15.2208 17.1619 15.5928C17.1619 15.9649 17.1619 15.9818 17.1653 15.9886C17.1687 15.9953 17.1754 15.9987 17.6896 15.9987C18.2003 15.9987 19.2184 15.9987 20.0369 15.9987C20.8555 15.9987 21.4744 15.9987 21.8465 15.975C22.2186 15.9514 22.3437 15.9006 22.5128 15.7958C22.682 15.6875 22.8917 15.5218 23.0675 15.3189C23.2434 15.1125 23.3855 14.869 23.5039 14.6593C23.6223 14.4496 23.717 14.2771 23.7778 14.1553C23.8387 14.0335 23.8624 13.9625 23.8827 13.9152C23.903 13.8712 23.9165 13.8509 23.9334 13.8408C23.9503 13.8306 23.9673 13.8306 24.0078 13.8306C24.0484 13.8306 24.1127 13.8306 24.1465 13.834C24.1803 13.8374 24.1803 13.8441 24.1668 13.8881C24.1533 13.9287 24.1262 14.0065 23.947 14.5578C23.7677 15.1091 23.4328 16.1374 23.2637 16.6549C23.0946 17.1724 23.0878 17.1792 23.0439 17.1859C22.9999 17.1927 22.9221 17.1961 21.5658 17.1995C20.2094 17.1995 17.5746 17.1995 16.0762 17.1995C14.5778 17.1995 14.2226 17.1995 13.8709 17.213C13.5191 17.2265 13.1707 17.2502 12.8561 17.2908C12.5416 17.328 12.2608 17.3787 11.997 17.4802C11.7332 17.5817 11.4829 17.7305 11.2833 17.9199C11.0838 18.1059 10.9383 18.3292 10.8233 18.5693C10.7083 18.8095 10.6238 19.0665 10.5494 19.2729C10.475 19.4792 10.4141 19.6381 10.3735 19.7193C10.3329 19.8005 10.316 19.8005 10.2923 19.7971C10.2686 19.7937 10.2348 19.7802 10.1841 19.7667C10.1333 19.7531 10.0657 19.7362 10.0352 19.7193C10.0048 19.7024 10.0116 19.6889 10.0217 19.6686C10.0319 19.6483 10.0454 19.6179 10.1198 19.4352C10.1908 19.2492 10.3227 18.9109 10.4817 18.4476C10.6407 17.9842 10.8301 17.399 10.9891 16.9086C11.1447 16.4181 11.2698 16.0258 11.3679 15.7078C11.466 15.3899 11.5336 15.1464 11.581 14.9941C11.625 14.8386 11.6486 14.7709 11.6554 14.7405C11.6622 14.7066 11.652 14.71 11.5945 14.7202C11.537 14.7303 11.4322 14.7472 11.2123 14.8352C10.9925 14.9265 10.6576 15.0889 10.3938 15.2715C10.1266 15.4541 9.92701 15.6571 9.76465 15.8668C9.6023 16.0765 9.47377 16.2997 9.38244 16.5061C9.29112 16.7124 9.237 16.9086 9.19303 17.1081C9.15244 17.3111 9.122 17.5174 9.11524 17.7305C9.10847 17.9436 9.12538 18.1634 9.17612 18.3934C9.22685 18.6268 9.30803 18.8737 9.41288 19.1274C9.52112 19.3811 9.65303 19.6381 9.81877 19.8546C9.98451 20.0677 10.1874 20.2368 10.3972 20.3789C10.6069 20.5209 10.8233 20.6359 11.0364 20.734C11.2529 20.8321 11.4694 20.9167 11.7366 20.9674C12.0038 21.0182 12.3285 21.0351 12.6329 21.0012C12.9407 20.9674 13.2316 20.8829 13.5022 20.7746C13.7694 20.6664 14.0163 20.5345 14.2328 20.3924C14.4526 20.2504 14.642 20.0982 14.8145 19.9358C14.987 19.7701 15.1359 19.5908 15.217 19.4927C15.2982 19.3946 15.3118 19.3777 15.3185 19.3676C15.3253 19.3574 15.3287 19.3506 15.3388 19.3473C15.349 19.3473 15.3659 19.3473 15.4369 19.3473C15.5113 19.3473 15.6398 19.3473 15.7041 19.3473C15.7684 19.3473 15.7616 19.3473 15.7582 19.354C15.7548 19.3574 15.7515 19.3676 15.6973 19.442C15.6432 19.5164 15.5384 19.6584 15.4098 19.814C15.2813 19.973 15.1325 20.1455 14.9465 20.3214C14.7604 20.4973 14.5406 20.6732 14.3309 20.8321C14.1178 20.9877 13.9148 21.123 13.7017 21.2346C13.4886 21.3462 13.2722 21.4342 13.0659 21.4985C12.8595 21.5627 12.6634 21.6067 12.4536 21.6236C12.2439 21.6439 12.0173 21.6405 11.7941 21.6202C11.5708 21.5999 11.3544 21.5627 11.0838 21.4477C10.8132 21.3327 10.4919 21.1365 10.2483 20.964C10.0082 20.7915 9.84583 20.6427 9.70715 20.4702C9.56847 20.2977 9.45009 20.0982 9.33509 19.8648C9.22009 19.6314 9.10847 19.3676 9.02391 19.1105C8.93935 18.8534 8.88523 18.6099 8.84803 18.3596C8.81082 18.1093 8.79053 17.8523 8.79053 17.6425C8.79053 17.4328 8.80406 17.2671 8.83112 17.0777C8.85818 16.8849 8.89538 16.6684 8.96979 16.4181C9.04082 16.1678 9.14906 15.8871 9.27083 15.6334C9.39259 15.3797 9.52789 15.1565 9.68686 14.9434C9.84583 14.7303 10.0319 14.5341 10.2382 14.365C10.4445 14.1993 10.6677 14.064 10.935 13.9321C11.2022 13.8002 11.5066 13.6716 11.6757 13.6006C11.8448 13.533 11.8719 13.5228 11.9023 13.516C11.9328 13.5059 11.9632 13.4991 11.9869 13.4788C12.0106 13.4585 12.0275 13.4281 12.0681 13.2827C12.1053 13.1372 12.1695 12.8768 12.227 12.6434C12.2845 12.4134 12.3386 12.2138 12.43 11.9162C12.5247 11.6185 12.6566 11.2262 12.8122 10.8034C12.9678 10.3806 13.1504 9.93072 13.3161 9.5519C13.4819 9.17645 13.6307 8.87204 13.8167 8.51689C14.0062 8.16174 14.2328 7.75247 14.4695 7.40409C14.7063 7.05232 14.9566 6.76144 15.1393 6.56188C15.3219 6.36232 15.4335 6.25408 15.5113 6.18305C15.5891 6.1154 15.6297 6.08496 15.6635 6.0579C15.694 6.03423 15.7143 6.01393 15.7244 6.00378C15.7345 5.99364 15.7345 5.98687 15.7312 5.98011C15.7312 5.97334 15.7312 5.95981 15.7312 5.95305C15.7312 5.9429 15.7312 5.93275 15.7312 5.92937C15.7312 5.92261 15.7312 5.92261 15.7312 5.84143M18.0041 5.38143C18.1124 5.37466 18.3187 5.35437 18.5419 5.38143C18.7652 5.4051 19.0019 5.47275 19.2353 5.57422C19.4687 5.67231 19.6953 5.80422 19.8881 5.98349C20.0809 6.15937 20.2399 6.38261 20.3718 6.5957C20.5037 6.80879 20.6052 7.00835 20.6728 7.24173C20.7405 7.47512 20.7709 7.73894 20.7675 8.00953C20.7641 8.28012 20.7269 8.56086 20.6559 8.83483C20.5849 9.10542 20.4834 9.37263 20.3346 9.63646C20.1891 9.90028 19.9997 10.1641 19.8137 10.4043C19.6277 10.6444 19.445 10.8609 19.188 11.0672C18.9309 11.2735 18.5994 11.4731 18.3627 11.6118C18.1259 11.7471 17.9804 11.8215 17.835 11.8925C17.6862 11.9635 17.5374 12.0312 17.4426 12.0718C17.3479 12.1124 17.3107 12.1293 17.2803 12.1293C17.2465 12.1293 17.2194 12.1191 17.2093 12.0988C17.1957 12.0819 17.1991 12.0549 17.1991 11.1349C17.1991 10.2148 17.1991 8.40189 17.1991 7.42438C17.1991 6.44688 17.1991 6.3082 17.1991 6.2304C17.1991 6.15261 17.1957 6.13908 17.1856 6.12893C17.1788 6.11879 17.1619 6.1154 17.074 6.15937C16.986 6.20334 16.8203 6.29467 16.6512 6.39952C16.4821 6.50438 16.3096 6.61938 16.1844 6.71408C16.0593 6.80879 15.9781 6.8832 15.9307 6.93394C15.8834 6.98467 15.8698 7.01173 15.8597 7.03541C15.8495 7.05909 15.8462 7.076 15.8428 7.92159C15.8428 8.76719 15.8428 10.4381 15.8428 11.3175C15.8428 12.1969 15.8428 12.2849 15.8428 12.3457C15.8428 12.4066 15.8428 12.4337 15.8326 12.4574C15.8225 12.481 15.8022 12.4946 15.5384 12.569C15.2745 12.64 14.7706 12.7719 14.2531 12.9038C13.7356 13.0357 13.2113 13.171 12.9103 13.2455C12.6092 13.3232 12.5314 13.3402 12.4908 13.3368C12.4503 13.3368 12.4401 13.3131 12.4401 13.2793C12.4401 13.2455 12.4469 13.1947 12.5179 12.9072C12.5889 12.6197 12.7276 12.0954 12.9272 11.4866C13.1301 10.8812 13.3939 10.1912 13.6409 9.63308C13.8878 9.07498 14.1144 8.64542 14.3512 8.2666C14.5879 7.88777 14.8281 7.55968 15.0716 7.26879C15.3118 6.97791 15.5553 6.72423 15.8123 6.49761C16.0728 6.27099 16.3501 6.07143 16.614 5.91246C16.8812 5.75349 17.1382 5.63172 17.3276 5.55731C17.5171 5.47952 17.6456 5.44569 17.7234 5.4254C17.8046 5.4051 17.8384 5.39834 17.8621 5.39496C17.8857 5.39496 17.8993 5.39157 18.0109 5.38143H18.0041ZM14.4154 18.8974C14.4154 18.8737 14.4154 18.8399 14.4154 18.8027C14.4154 18.7655 14.4154 18.7283 14.4188 18.7114C14.4222 18.6945 14.4323 18.6945 14.5237 18.6978C14.615 18.6978 14.7942 18.6978 14.9262 18.7012C15.0581 18.7012 15.1494 18.7012 15.2373 18.6809C15.3253 18.6606 15.4166 18.6167 15.4978 18.549C15.579 18.4814 15.65 18.3901 15.7007 18.3156C15.7515 18.2412 15.7785 18.1837 15.792 18.1127C15.8056 18.0417 15.8056 17.9605 15.8022 17.8895C15.8022 17.8184 15.8022 17.7575 15.8022 17.7203C15.8022 17.6831 15.8022 17.673 15.8022 17.6662C15.8022 17.6595 15.8022 17.6595 15.8123 17.6561C15.8191 17.6561 15.836 17.6561 16.0626 17.6561C16.2926 17.6561 16.7357 17.6561 16.959 17.6561C17.1822 17.6561 17.1856 17.6561 17.189 17.6628C17.189 17.6662 17.189 17.673 17.189 17.7C17.189 17.7271 17.189 17.7778 17.1957 17.832C17.1991 17.8861 17.2093 17.9436 17.2431 18.018C17.2769 18.0924 17.3412 18.1803 17.4088 18.2345C17.4799 18.2886 17.5543 18.3123 17.6388 18.3258C17.7234 18.3393 17.8113 18.3461 18.2713 18.3495C18.7313 18.3495 19.56 18.3495 20.2196 18.3495H22.8511C23.1284 18.3495 23.3246 18.3495 23.47 18.3359C23.6121 18.3224 23.7034 18.2953 23.8151 18.248C23.9267 18.2006 24.0552 18.1296 24.1939 18.0315C24.3326 17.93 24.4814 17.8015 24.6065 17.6595C24.7317 17.5174 24.8331 17.3652 24.9346 17.1995C25.0361 17.0371 25.1342 16.8612 25.1951 16.7462C25.2559 16.6312 25.2762 16.5703 25.2999 16.4892C25.327 16.4046 25.3574 16.2964 25.3743 16.2389C25.3946 16.178 25.398 16.1644 25.4082 16.1611C25.4149 16.1543 25.4284 16.1611 25.4724 16.1611C25.5164 16.1611 25.5942 16.1611 25.6348 16.1611C25.6754 16.1611 25.6821 16.1611 25.6855 16.1678C25.6855 16.1746 25.6855 16.1847 25.6787 16.2118C25.6686 16.2389 25.6483 16.2794 25.6348 16.3167C25.6212 16.3539 25.6145 16.3911 25.513 16.6887C25.4115 16.9864 25.2187 17.5411 25.0868 17.9402C24.9583 18.3393 24.894 18.5828 24.8568 18.7215C24.823 18.8602 24.8162 18.8974 24.8095 18.9177C24.8027 18.938 24.7993 18.9414 24.7892 18.9448C24.779 18.9448 24.7587 18.9448 23.2705 18.9448H14.4357C14.4357 18.9448 14.4256 18.9448 14.4256 18.938C14.4256 18.9312 14.4188 18.9177 14.4188 18.894L14.4154 18.8974Z" fill="white"/>
<path fill-rule="evenodd" clip-rule="evenodd" d="M17.0533 1.11961C16.8165 1.01475 16.3903 0.815192 15.9438 0.646073C15.4974 0.480336 15.0374 0.345041 14.574 0.236805C14.1106 0.128569 13.6472 0.0507743 13.1974 0.0169505C12.7475 -0.0168733 12.3112 -0.00334376 11.9121 0.0270976C11.5129 0.0609214 11.1476 0.115039 10.6741 0.236805C10.1972 0.361953 9.61204 0.554749 9.09115 0.842251C8.57026 1.12637 8.11703 1.5052 7.80923 1.84343C7.50143 2.18167 7.33908 2.48609 7.21731 2.7905C7.09555 3.09491 7.01775 3.40271 7.01099 3.72065C7.00422 4.0386 7.07187 4.36669 7.17672 4.63728C7.28158 4.90787 7.42364 5.12096 7.59952 5.30361C7.77879 5.48626 7.99188 5.63846 8.22526 5.7264C8.45865 5.81773 8.71233 5.84817 8.97615 5.82788C9.23998 5.80758 9.51395 5.73655 9.76424 5.6114C10.0145 5.48626 10.2378 5.31375 10.3866 5.11081C10.532 4.91125 10.5997 4.68463 10.6065 4.46139C10.6132 4.23816 10.5625 4.0183 10.417 3.85933C10.2716 3.70036 10.0348 3.60227 9.81498 3.58198C9.59513 3.56168 9.39895 3.62257 9.22645 3.74095C9.05394 3.85933 8.91189 4.03521 8.85777 4.2111C8.80365 4.39036 8.84424 4.56963 8.9085 4.71169C8.97615 4.85713 9.06747 4.96199 9.14865 5.02287C9.22645 5.08375 9.29409 5.0939 9.22645 5.10405C9.1588 5.11419 8.95924 5.12096 8.81041 5.11758C8.66159 5.11419 8.5635 5.09728 8.41467 5.0161C8.26585 4.93831 8.06629 4.79625 7.93776 4.58654C7.80923 4.37684 7.74835 4.10286 7.75173 3.81198C7.75511 3.52109 7.82276 3.21668 7.92085 2.96638C8.01894 2.71609 8.14747 2.52329 8.36732 2.30006C8.58718 2.07682 8.89159 1.8299 9.2163 1.63034C9.54101 1.43417 9.87924 1.28872 10.2648 1.16358C10.647 1.03843 11.0766 0.933575 11.5637 0.86931C12.0507 0.805044 12.5987 0.781368 13.0722 0.788133C13.5457 0.794897 13.9516 0.838868 14.3744 0.920045C14.8006 1.00122 15.2437 1.12637 15.5819 1.23799C15.9202 1.34622 16.1468 1.44093 16.2719 1.50181C16.3971 1.5627 16.414 1.59314 16.3869 1.62358C16.3599 1.6574 16.2821 1.69123 15.8255 1.97873C15.3688 2.26285 14.53 2.80065 13.6472 3.38918C12.7644 3.9811 11.8309 4.62375 11.1375 5.08037C10.4441 5.53699 9.9841 5.8042 9.5816 6.02067C9.17909 6.24053 8.83071 6.41303 8.58379 6.51788C8.33688 6.62273 8.19144 6.65994 8.09335 6.67685C7.99526 6.69376 7.94791 6.69376 7.91747 6.67685C7.88702 6.65994 7.87011 6.62612 7.76864 6.42656C7.66379 6.227 7.47437 5.8617 7.2004 5.48287C6.92643 5.10405 6.5679 4.71169 6.14172 4.37345C5.71554 4.0386 5.22171 3.75786 4.68729 3.53462C4.15288 3.31139 3.57788 3.14227 3.02993 3.03065C2.48537 2.91565 1.96786 2.85815 1.52139 2.81756C1.07492 2.77697 0.69609 2.75668 0.449176 2.74991C0.205645 2.74315 0.0940264 2.75329 0.0432907 2.76682C-0.00744497 2.78035 -0.000680207 2.79388 0.0534378 2.87506C0.107556 2.95624 0.205645 3.10168 0.39844 3.38918C0.591236 3.67668 0.878738 4.10286 1.16286 4.49522C1.44698 4.88757 1.72433 5.24611 2.04566 5.58773C2.36698 5.93273 2.73566 6.2642 3.09758 6.54494C3.45949 6.82568 3.81464 7.05568 4.1867 7.24509C4.55876 7.4345 4.95112 7.57995 5.30965 7.67127C5.66818 7.7626 5.98951 7.79642 6.30407 7.80657C6.61863 7.8201 6.91966 7.81333 7.12261 7.79304C7.32555 7.77612 7.4304 7.74568 7.4879 7.7423C7.5454 7.73892 7.55217 7.75921 7.57923 7.89113C7.60629 8.02304 7.65702 8.26657 7.69761 8.75701C7.7382 9.24746 7.76864 9.9882 7.77541 10.6511C7.78217 11.3141 7.76188 11.906 7.73482 12.5791C7.70776 13.2522 7.66717 14.0098 7.63673 14.7303C7.60629 15.4507 7.58261 16.1306 7.5657 16.7631C7.54879 17.3956 7.53864 17.974 7.53864 18.5084C7.53864 19.0428 7.54879 19.5299 7.55555 19.7937C7.56232 20.0575 7.56908 20.1015 7.56232 20.132C7.55893 20.1624 7.54202 20.1793 7.35937 20.1827C7.17672 20.1827 6.82158 20.1725 6.45628 20.1928C6.09098 20.2131 5.71216 20.2672 5.33333 20.3789C4.9545 20.4905 4.57906 20.663 4.20362 20.9572C3.82817 21.2481 3.45611 21.6608 3.19567 22.1174C2.93522 22.574 2.78302 23.078 2.74581 23.6192C2.7086 24.1604 2.78302 24.7354 2.92169 25.2021C3.06375 25.6689 3.27008 26.0308 3.56435 26.3488C3.85861 26.6667 4.2442 26.9474 4.74818 27.1876C5.25215 27.4311 5.87451 27.6374 6.43598 27.7288C6.99746 27.8201 7.49805 27.7998 7.93438 27.7355C8.3707 27.6713 8.74615 27.563 9.01674 27.4176C9.28733 27.2721 9.45645 27.0895 9.53424 26.8696C9.61204 26.6464 9.60527 26.386 9.5038 26.1796C9.40571 25.9733 9.2163 25.8245 9.00997 25.7467C8.80703 25.6655 8.58718 25.6554 8.40453 25.6858C8.2185 25.7163 8.06967 25.7907 7.95805 25.9057C7.84982 26.0173 7.78217 26.1695 7.76188 26.3048C7.74158 26.4401 7.77202 26.5551 7.82614 26.6667C7.88026 26.7783 7.96144 26.8832 8.03585 26.9441C8.10688 27.0049 8.17114 27.0219 8.161 27.0354C8.15085 27.0489 8.06967 27.0624 7.9107 27.0895C7.75173 27.1166 7.51834 27.1571 7.23422 27.1538C6.95349 27.1504 6.62201 27.103 6.32437 27.0388C6.02333 26.9745 5.75274 26.8967 5.42804 26.7546C5.10333 26.6126 4.72788 26.4063 4.40318 26.1289C4.07847 25.8516 3.80788 25.5065 3.63876 25.1717C3.46964 24.8368 3.40199 24.5121 3.38846 24.1536C3.37493 23.7951 3.41214 23.4027 3.51023 23.0476C3.60832 22.6958 3.76729 22.3846 4.00744 22.0971C4.24759 21.813 4.56553 21.5559 4.90038 21.38C5.23524 21.2042 5.59039 21.1128 5.90157 21.0418C6.21613 20.9708 6.48672 20.9268 6.76407 20.9031C7.03805 20.8795 7.3154 20.8795 7.46084 20.8862C7.60967 20.893 7.62658 20.9065 7.64349 20.9775C7.66041 21.0486 7.67055 21.1771 7.71791 21.4545C7.76526 21.7318 7.84982 22.1614 7.97497 22.5706C8.10011 22.9799 8.26585 23.3689 8.48909 23.7545C8.71232 24.1401 8.99306 24.5257 9.28056 24.8267C9.56807 25.1277 9.85895 25.3476 10.1295 25.5065C10.4001 25.6689 10.647 25.7738 10.9007 25.8583C11.1578 25.9429 11.4216 26.0038 11.7497 26.0342C12.0778 26.0646 12.4735 26.0579 12.9132 26.0274C13.3529 25.997 13.84 25.9395 14.2324 25.8685C14.6247 25.7974 14.9224 25.7163 15.1152 25.6621C15.308 25.608 15.3959 25.581 15.5177 25.6283C15.6394 25.6757 15.7916 25.7907 16.0149 25.9496C16.2381 26.1086 16.5324 26.3082 16.6778 26.413C16.8233 26.5213 16.8233 26.5348 16.6 26.6904C16.3768 26.846 15.9269 27.147 15.406 27.4852C14.8852 27.8235 14.2966 28.1955 13.911 28.4289C13.5254 28.6623 13.3428 28.757 13.2312 28.7976C13.1196 28.8382 13.0756 28.8213 12.8456 28.6961C12.6156 28.5676 12.1962 28.3308 11.7971 28.138C11.3979 27.9452 11.0157 27.8032 10.6335 27.7423C10.2513 27.6848 9.8691 27.7085 9.57821 27.8438C9.28395 27.9757 9.07762 28.2158 8.95586 28.4425C8.59732 29.0953 9.00321 30.022 9.62895 30.3197C9.87586 30.4381 10.1904 30.4719 10.5219 30.4651C10.85 30.4583 11.1916 30.4076 11.5197 30.3298C11.8512 30.252 12.1691 30.1472 12.3957 30.0525C12.6224 29.9578 12.7543 29.8732 12.8557 29.8225C12.9572 29.7717 13.0282 29.7514 13.1703 29.7954C13.3124 29.8394 13.5187 29.9442 13.9313 30.2114C14.3406 30.4786 14.9528 30.9082 15.4027 31.2397C15.8525 31.5712 16.14 31.8012 16.343 31.9737C16.5459 32.1495 16.6677 32.2679 16.7083 32.339C16.7489 32.41 16.715 32.4303 16.5899 32.5926C16.4647 32.755 16.2483 33.0526 16.0724 33.3469C15.8965 33.6412 15.7612 33.9287 15.6158 34.2771C15.4669 34.6254 15.308 35.0347 15.2471 35.5319C15.1862 36.0257 15.2234 36.6041 15.3215 37.0844C15.4196 37.5647 15.5819 37.9503 15.7849 38.3088C15.9912 38.6708 16.2381 39.009 16.4715 39.2796C16.7015 39.5502 16.918 39.7531 17.0533 39.8647C17.1818 39.9696 17.2427 39.9865 17.2833 39.9865C17.3239 39.9865 17.3847 39.9696 17.5133 39.8647C17.6486 39.7565 17.8617 39.5502 18.095 39.2796C18.325 39.009 18.5753 38.6708 18.7817 38.3088C18.988 37.9469 19.147 37.5647 19.245 37.0844C19.3431 36.6041 19.3803 36.0257 19.3195 35.5319C19.2586 35.0381 19.0962 34.6288 18.9508 34.2771C18.802 33.9287 18.67 33.6412 18.4942 33.3469C18.3183 33.0526 18.1018 32.7516 17.9767 32.5926C17.8515 32.4303 17.8143 32.41 17.8583 32.339C17.8989 32.2679 18.0206 32.1495 18.2236 31.9737C18.4265 31.7978 18.714 31.5678 19.1639 31.2397C19.6137 30.9082 20.2259 30.482 20.6352 30.2114C21.0445 29.9442 21.2542 29.8394 21.3962 29.7954C21.5383 29.7514 21.6093 29.7717 21.7108 29.8225C21.8123 29.8732 21.9442 29.9578 22.1708 30.0525C22.3974 30.1472 22.7154 30.252 23.0468 30.3298C23.3783 30.4076 23.7166 30.4583 24.0446 30.4651C24.3727 30.4719 24.6907 30.4381 24.9342 30.3197C25.5566 30.022 25.9625 29.0953 25.6073 28.4425C25.4822 28.2158 25.2758 27.9757 24.9849 27.8438C24.6907 27.7119 24.3085 27.6848 23.9296 27.7423C23.5474 27.7998 23.1652 27.9452 22.7661 28.138C22.367 28.3308 21.9476 28.571 21.7176 28.6961C21.4876 28.8247 21.4436 28.8382 21.332 28.7976C21.2204 28.757 21.0377 28.6657 20.6521 28.4289C20.2665 28.1955 19.6746 27.8201 19.1571 27.4852C18.6362 27.147 18.1897 26.8494 17.9631 26.6904C17.7399 26.5348 17.7399 26.5179 17.8853 26.413C18.0308 26.3048 18.325 26.1086 18.5483 25.9496C18.7715 25.7907 18.9237 25.6723 19.0455 25.6283C19.1673 25.5843 19.2552 25.608 19.448 25.6621C19.6408 25.7163 19.9384 25.7974 20.3308 25.8685C20.7231 25.9395 21.2102 25.997 21.6499 26.0274C22.0896 26.0579 22.482 26.0646 22.8135 26.0342C23.1415 26.0038 23.4054 25.9429 23.6624 25.8583C23.9195 25.7738 24.1664 25.6689 24.4336 25.5065C24.7042 25.3442 24.9951 25.1277 25.2826 24.8267C25.5701 24.5257 25.8508 24.1435 26.0741 23.7545C26.2973 23.3689 26.463 22.9799 26.5882 22.5706C26.7133 22.1614 26.7979 21.7318 26.8453 21.4545C26.8926 21.1771 26.9061 21.0486 26.9197 20.9775C26.9366 20.9065 26.9535 20.893 27.1023 20.8862C27.2511 20.8795 27.5251 20.8795 27.7991 20.9031C28.0731 20.9268 28.347 20.9708 28.6616 21.0418C28.9761 21.1128 29.3279 21.2042 29.6628 21.38C29.9976 21.5559 30.319 21.813 30.5557 22.0971C30.7959 22.3812 30.9515 22.6924 31.0495 23.0476C31.1476 23.3993 31.1848 23.7951 31.1713 24.1536C31.1578 24.5121 31.0901 24.8368 30.921 25.1717C30.7519 25.5065 30.4813 25.8516 30.1566 26.1289C29.8319 26.4063 29.4564 26.6126 29.1317 26.7546C28.807 26.8967 28.5364 26.9779 28.2354 27.0388C27.9344 27.103 27.6063 27.1504 27.3255 27.1538C27.0448 27.1571 26.808 27.1166 26.6491 27.0895C26.4901 27.0624 26.4089 27.0523 26.3988 27.0354C26.3886 27.0219 26.4529 27.0049 26.5239 26.9441C26.595 26.8832 26.6761 26.7783 26.7336 26.6667C26.7878 26.5551 26.8182 26.4367 26.7979 26.3048C26.7776 26.1695 26.71 26.0207 26.6017 25.9057C26.4935 25.7941 26.3413 25.7196 26.1552 25.6858C25.9692 25.6554 25.7527 25.6655 25.5498 25.7467C25.3469 25.8279 25.1574 25.9767 25.056 26.1796C24.9545 26.3826 24.9477 26.6464 25.0255 26.8696C25.1033 27.0929 25.2724 27.2721 25.543 27.4176C25.8136 27.563 26.1891 27.6713 26.6254 27.7355C27.0617 27.7998 27.5623 27.8235 28.1238 27.7288C28.6853 27.6374 29.3076 27.4311 29.8116 27.1876C30.3156 26.9441 30.6978 26.6667 30.9954 26.3488C31.2897 26.0308 31.496 25.6689 31.6381 25.2021C31.7801 24.7354 31.8512 24.1604 31.814 23.6192C31.7768 23.078 31.6246 22.574 31.3641 22.1174C31.1037 21.6608 30.7316 21.2515 30.3562 20.9572C29.9807 20.6664 29.6053 20.4939 29.2264 20.3789C28.8476 20.2672 28.4688 20.2131 28.1035 20.1928C27.7382 20.1725 27.3864 20.1861 27.2004 20.1827C27.0178 20.1827 27.0042 20.1624 26.9975 20.132C26.9941 20.1015 26.9975 20.0575 27.0042 19.7937C27.011 19.5299 27.0211 19.0428 27.0211 18.5084C27.0211 17.974 27.011 17.3922 26.9941 16.7631C26.9772 16.1306 26.9535 15.4507 26.923 14.7303C26.8926 14.0098 26.852 13.2522 26.825 12.5791C26.7945 11.906 26.7776 11.3141 26.7844 10.6511C26.7911 9.9882 26.8216 9.24746 26.8622 8.75701C26.9028 8.26657 26.9535 8.02304 26.9805 7.89113C27.011 7.75921 27.0178 7.73892 27.0719 7.7423C27.1294 7.74568 27.2342 7.77612 27.4372 7.79304C27.6401 7.80995 27.9445 7.81671 28.2557 7.80657C28.5703 7.79304 28.8916 7.75921 29.2501 7.67127C29.6087 7.57995 29.9976 7.4345 30.3731 7.24509C30.7451 7.05568 31.1003 6.82568 31.4622 6.54494C31.8241 6.2642 32.1894 5.93273 32.5141 5.58773C32.8354 5.24272 33.1162 4.88757 33.3969 4.49522C33.681 4.10286 33.9685 3.67668 34.1613 3.38918C34.3541 3.10168 34.4522 2.95624 34.5063 2.87506C34.5605 2.79388 34.5672 2.78035 34.5165 2.76682C34.4657 2.75329 34.3541 2.74653 34.1106 2.74991C33.8671 2.75668 33.4882 2.77697 33.0384 2.81756C32.5919 2.85815 32.0744 2.91903 31.5298 3.03065C30.9853 3.14565 30.4069 3.31139 29.8725 3.53462C29.3381 3.75786 28.8442 4.03522 28.4181 4.37345C27.9919 4.70831 27.6333 5.10405 27.3594 5.48287C27.0854 5.8617 26.8926 6.227 26.7911 6.42656C26.6863 6.62612 26.6727 6.65994 26.6423 6.67685C26.6119 6.69376 26.5645 6.69376 26.4664 6.67685C26.3683 6.65994 26.2229 6.62273 25.976 6.51788C25.7291 6.41303 25.3807 6.24053 24.9782 6.02067C24.5757 5.80082 24.1157 5.53361 23.4223 5.08037C22.7289 4.62375 21.7954 3.97772 20.9126 3.38918C20.0298 2.80065 19.1909 2.26285 18.7343 1.97873C18.2777 1.69461 18.1999 1.6574 18.1728 1.62358C18.1424 1.58976 18.1627 1.5627 18.2878 1.50181C18.4096 1.44093 18.6396 1.34622 18.9778 1.23799C19.3161 1.12975 19.7626 1.0046 20.1853 0.920045C20.6081 0.838868 21.014 0.794897 21.4876 0.788133C21.9611 0.781368 22.509 0.805044 22.9961 0.86931C23.4832 0.933575 23.9093 1.03843 24.2949 1.16358C24.6805 1.28872 25.0188 1.43078 25.3435 1.63034C25.6682 1.82652 25.976 2.07682 26.1925 2.30006C26.4123 2.52329 26.5408 2.71609 26.6389 2.96638C26.737 3.21668 26.8047 3.52109 26.808 3.81198C26.8114 4.10286 26.7505 4.37684 26.622 4.58654C26.4935 4.79625 26.2939 4.93831 26.1451 5.0161C25.9963 5.0939 25.8982 5.11081 25.7494 5.11758C25.6005 5.12096 25.401 5.11758 25.3333 5.10405C25.2657 5.0939 25.3333 5.08375 25.4111 5.02287C25.4889 4.96199 25.5836 4.85375 25.6513 4.71169C25.7155 4.56625 25.7561 4.38698 25.702 4.2111C25.6479 4.03521 25.5058 3.85933 25.3333 3.74095C25.1608 3.62257 24.9613 3.56168 24.7448 3.58198C24.5249 3.60227 24.2882 3.70036 24.1427 3.85933C23.9973 4.0183 23.9432 4.23816 23.9533 4.46139C23.9601 4.68463 24.0277 4.91125 24.1732 5.11081C24.3186 5.31037 24.5452 5.48626 24.7955 5.6114C25.0458 5.73655 25.3198 5.80758 25.5836 5.82788C25.8475 5.84817 26.1011 5.81773 26.3345 5.7264C26.5679 5.63508 26.781 5.48287 26.9603 5.30361C27.1361 5.12096 27.2782 4.90787 27.383 4.63728C27.4879 4.36669 27.5555 4.0386 27.5488 3.72065C27.542 3.40271 27.4642 3.09491 27.3425 2.7905C27.2207 2.48609 27.0583 2.18505 26.7505 1.84343C26.4427 1.5052 25.9895 1.12637 25.4686 0.842251C24.9477 0.558131 24.3592 0.361953 23.8857 0.236805C23.4088 0.111657 23.0468 0.057539 22.6477 0.0270976C22.2486 -0.00672614 21.8123 -0.0168733 21.3624 0.0169505C20.9126 0.0507743 20.4492 0.128569 19.9858 0.236805C19.5224 0.345041 19.059 0.476954 18.6159 0.646073C18.1695 0.811809 17.7433 1.01137 17.5065 1.11961C17.4017 1.16696 17.334 1.1974 17.29 1.21431C17.2461 1.19402 17.1784 1.16696 17.0736 1.11961M17.29 39.0834C17.1987 38.9989 17.0634 38.8771 16.8875 38.6572C16.6812 38.3968 16.4174 38.001 16.2347 37.6256C16.0521 37.2468 15.954 36.8882 15.9134 36.5534C15.8728 36.2185 15.8863 35.9107 15.954 35.559C16.025 35.2106 16.1468 34.8216 16.3193 34.4529C16.4884 34.0843 16.7049 33.7325 16.8875 33.4687C17.0668 33.2048 17.2122 33.0222 17.29 32.8903C17.3712 33.0222 17.5167 33.2048 17.6959 33.4687C17.8786 33.7359 18.0917 34.0843 18.2642 34.4529C18.4333 34.8216 18.5584 35.2106 18.6295 35.559C18.7005 35.9074 18.714 36.2185 18.67 36.5534C18.6295 36.8882 18.528 37.2468 18.3487 37.6256C18.1661 38.0044 17.9022 38.4002 17.6959 38.6572C17.52 38.8771 17.3847 38.9989 17.29 39.0834ZM17.29 31.7944C17.2122 31.7335 17.0972 31.6523 16.918 31.5204C16.6339 31.3141 16.1975 30.9826 15.8796 30.756C15.5616 30.5294 15.3655 30.4042 15.0678 30.2114C14.7702 30.0186 14.3778 29.7514 14.1546 29.5992C13.9347 29.447 13.8874 29.4098 13.8704 29.376C13.8535 29.3422 13.8637 29.3083 13.999 29.2103C14.1343 29.1088 14.3947 28.943 14.7397 28.7266C15.0847 28.5101 15.5177 28.2429 15.9236 27.9689C16.3294 27.6949 16.7116 27.4142 16.9315 27.2485C17.1514 27.0794 17.2089 27.0252 17.2697 26.9745L17.2867 26.961L17.3036 26.9745C17.3644 27.0252 17.4219 27.0794 17.6418 27.2485C17.8617 27.4176 18.2439 27.6983 18.6497 27.9689C19.0556 28.2429 19.4886 28.5101 19.8336 28.7266C20.1786 28.943 20.439 29.1122 20.5743 29.2103C20.7096 29.3117 20.7231 29.3422 20.7062 29.376C20.6893 29.4098 20.642 29.447 20.4221 29.5992C20.2023 29.7514 19.8065 30.0153 19.5089 30.2114C19.2112 30.4042 19.015 30.5294 18.6971 30.756C18.3792 30.9826 17.9428 31.3141 17.6587 31.5204C17.4828 31.6489 17.3644 31.7301 17.2867 31.7944H17.29ZM17.29 26.0443C17.2494 26.0139 17.2055 25.9801 17.1547 25.9429C16.9078 25.7602 16.5019 25.4693 15.998 25.1007C15.494 24.732 14.8885 24.2855 14.3372 23.8932C13.7859 23.4974 13.2887 23.1558 12.7407 22.7837C12.1928 22.4117 11.5907 22.0159 11.0191 21.6743C10.4475 21.3327 9.90969 21.0486 9.48351 20.8389C9.05733 20.6325 8.74953 20.5006 8.57703 20.4093C8.40453 20.318 8.36732 20.2639 8.35041 20.2165C8.3335 20.1692 8.3335 20.1184 8.31997 19.6787C8.30644 19.2424 8.27938 18.4137 8.29291 17.4565C8.30644 16.4993 8.35379 15.4169 8.41129 14.3582C8.46541 13.2995 8.52629 12.2645 8.54997 11.4223C8.57365 10.5801 8.55673 9.93408 8.52629 9.40643C8.49247 8.87878 8.43835 8.47289 8.39438 8.18878C8.34703 7.90127 8.30982 7.73554 8.29629 7.63407C8.27938 7.53259 8.28953 7.49877 8.31997 7.47509C8.35379 7.45142 8.41467 7.4345 8.65144 7.32627C8.89159 7.21803 9.30762 7.01847 9.7541 6.78847C10.2006 6.55847 10.6741 6.30141 11.195 5.9767C11.7159 5.65537 12.2774 5.2664 12.8185 4.89434C13.3597 4.5189 13.8772 4.15698 14.3778 3.80521C14.8784 3.45006 15.3655 3.10506 15.8086 2.80741C16.2516 2.50976 16.6541 2.25947 16.9146 2.10726C17.1074 1.99226 17.219 1.92799 17.2934 1.87726C17.3678 1.92799 17.4794 1.98888 17.6722 2.10726C17.9327 2.26285 18.3352 2.51315 18.7783 2.80741C19.2214 3.10506 19.7051 3.45006 20.209 3.80521C20.7096 4.16036 21.2271 4.52228 21.7683 4.89434C22.3095 5.26978 22.8743 5.65537 23.3918 5.9767C23.9127 6.29803 24.3863 6.55847 24.8327 6.78847C25.2792 7.01847 25.6952 7.21803 25.9354 7.32627C26.1755 7.4345 26.233 7.45142 26.2669 7.47509C26.3007 7.49877 26.3075 7.53259 26.2905 7.63407C26.2736 7.73554 26.2364 7.90127 26.1925 8.18878C26.1485 8.47628 26.0944 8.88216 26.0605 9.40643C26.0267 9.93408 26.0132 10.5801 26.0369 11.4223C26.0605 12.2645 26.118 13.2962 26.1755 14.3582C26.2297 15.4169 26.2804 16.5027 26.2939 17.4565C26.3075 18.4137 26.2804 19.239 26.2669 19.6787C26.2533 20.115 26.2533 20.1658 26.2364 20.2165C26.2195 20.2672 26.1823 20.318 26.0098 20.4093C25.8373 20.5006 25.5261 20.6292 25.1033 20.8389C24.6771 21.0452 24.1393 21.3327 23.5677 21.6743C22.9961 22.0159 22.394 22.4151 21.8461 22.7837C21.2982 23.1558 20.8009 23.4974 20.2496 23.8932C19.6983 24.2889 19.0928 24.7354 18.5889 25.1007C18.0849 25.4693 17.679 25.7602 17.4321 25.9429C17.3814 25.9801 17.3374 26.0139 17.2968 26.0443H17.29ZM30.1228 15.7552C29.771 15.7552 29.4869 16.0393 29.4869 16.391C29.4869 16.7428 29.771 17.0269 30.1228 17.0269C30.4745 17.0269 30.7587 16.7428 30.7587 16.391C30.7587 16.0393 30.4745 15.7552 30.1228 15.7552ZM28.7901 17.4971C28.276 17.4971 27.8566 17.9131 27.8566 18.4306C27.8566 18.9481 28.2726 19.3641 28.7901 19.3641C29.3076 19.3641 29.7237 18.9481 29.7237 18.4306C29.7237 17.9131 29.3076 17.4971 28.7901 17.4971ZM20.5845 31.6895C20.0568 31.6895 19.6306 32.1157 19.6306 32.6434C19.6306 33.171 20.0568 33.5972 20.5845 33.5972C21.1121 33.5972 21.5383 33.171 21.5383 32.6434C21.5383 32.1157 21.1121 31.6895 20.5845 31.6895ZM22.2418 29.2711C22.3365 29.2035 22.5395 29.0783 22.7999 28.9397C23.0604 28.801 23.3749 28.6522 23.6286 28.5608C23.8823 28.4695 24.0751 28.4323 24.2679 28.4357C24.4573 28.4357 24.6467 28.4729 24.7786 28.5541C24.9105 28.6319 24.9883 28.7536 25.012 28.8957C25.0357 29.0378 25.0052 29.2069 24.9105 29.3489C24.8192 29.4944 24.6636 29.6128 24.4539 29.6838C24.2442 29.7548 23.977 29.7717 23.6793 29.7413C23.3817 29.7108 23.0502 29.6297 22.8033 29.562C22.553 29.4944 22.3873 29.4403 22.2926 29.4064C22.2012 29.3726 22.1843 29.3658 22.1674 29.3557C22.1539 29.3455 22.1404 29.3388 22.2351 29.2711H22.2418ZM25.8035 21.2549C25.4822 21.3936 24.8463 21.7048 24.136 22.1309C23.4257 22.5571 22.641 23.1017 21.9983 23.5414C21.3557 23.9777 20.8517 24.3092 20.5101 24.5392C20.1684 24.7658 19.9892 24.891 19.9926 24.9857C19.9993 25.0804 20.1921 25.1413 20.5743 25.192C20.9599 25.2427 21.5383 25.2799 21.9814 25.2935C22.4245 25.307 22.7357 25.2935 23.1077 25.192C23.4832 25.0939 23.9195 24.9113 24.2916 24.6542C24.6636 24.3971 24.968 24.0623 25.2149 23.7342C25.4619 23.4061 25.6479 23.0848 25.7764 22.733C25.9049 22.3812 25.9794 21.999 26.0233 21.7521C26.0707 21.5052 26.091 21.3902 26.1045 21.3158C26.118 21.2414 26.1248 21.2075 26.1248 21.1771C26.1248 21.1467 26.1214 21.1162 25.8001 21.2583L25.8035 21.2549ZM32.7678 3.57183C32.389 3.62933 31.6415 3.74433 30.9413 3.94727C30.2412 4.15022 29.5917 4.4411 29.0539 4.79287C28.5161 5.14463 28.0933 5.55052 27.8194 5.90229C27.5454 6.25406 27.4236 6.54832 27.3628 6.71406C27.3019 6.8798 27.3019 6.92038 27.4541 6.94068C27.6063 6.96435 27.9073 6.97112 28.2591 6.96097C28.6109 6.95082 29.0066 6.92038 29.4632 6.77156C29.9165 6.62273 30.4306 6.35214 30.877 6.03758C31.3235 5.72302 31.7091 5.36787 32.0372 5.01272C32.3687 4.65757 32.6426 4.30242 32.8219 4.06904C33.0012 3.83565 33.0857 3.72065 33.1365 3.65301C33.1872 3.58198 33.2075 3.5583 33.2109 3.53801C33.2177 3.52109 33.2109 3.50756 33.2007 3.50418C33.1906 3.49742 33.1771 3.49742 33.1669 3.50418C33.1568 3.50418 33.1466 3.51095 32.7678 3.57183ZM4.437 15.7585C4.78877 15.7585 5.07289 16.0427 5.07289 16.3944C5.07289 16.7462 4.78877 17.0303 4.437 17.0303C4.08523 17.0303 3.80111 16.7462 3.80111 16.3944C3.80111 16.0427 4.08523 15.7585 4.437 15.7585ZM5.76966 17.5005C6.28378 17.5005 6.70319 17.9165 6.70319 18.434C6.70319 18.9515 6.28716 19.3675 5.76966 19.3675C5.25215 19.3675 4.83612 18.9515 4.83612 18.434C4.83612 17.9165 5.25215 17.5005 5.76966 17.5005ZM13.9753 31.6929C14.503 31.6929 14.9291 32.1191 14.9291 32.6467C14.9291 33.1744 14.503 33.6006 13.9753 33.6006C13.4477 33.6006 13.0215 33.1744 13.0215 32.6467C13.0215 32.1191 13.4477 31.6929 13.9753 31.6929ZM12.3179 29.2745C12.2232 29.2069 12.0203 29.0817 11.7598 28.943C11.4994 28.8044 11.1848 28.6555 10.9312 28.5642C10.6775 28.4729 10.4847 28.4357 10.2919 28.4391C10.1025 28.4391 9.91307 28.4763 9.78116 28.5575C9.64924 28.6352 9.57145 28.757 9.54777 28.8991C9.52409 29.0411 9.55454 29.2103 9.64924 29.3523C9.74057 29.4978 9.89616 29.6161 10.1059 29.6872C10.3156 29.7582 10.5828 29.7751 10.8804 29.7447C11.1781 29.7142 11.5096 29.6331 11.7565 29.5654C12.0068 29.4978 12.1725 29.4436 12.2672 29.4098C12.3585 29.376 12.3754 29.3692 12.3924 29.3591C12.4059 29.3489 12.4194 29.3422 12.3247 29.2745H12.3179ZM8.7563 21.2583C9.07762 21.397 9.71351 21.7081 10.4238 22.1343C11.1341 22.5605 11.9188 23.1051 12.5615 23.5448C13.2041 23.9811 13.7081 24.3126 14.0497 24.5426C14.3913 24.7692 14.5706 24.8943 14.5672 24.989C14.5605 25.0838 14.3677 25.1446 13.9854 25.1954C13.5999 25.2461 13.0215 25.2833 12.5784 25.2968C12.1353 25.3104 11.8241 25.2968 11.4521 25.1954C11.0766 25.0973 10.6403 24.9146 10.2682 24.6576C9.89616 24.4005 9.59174 24.0657 9.34483 23.7376C9.09791 23.4095 8.91188 23.0881 8.78335 22.7364C8.65482 22.3846 8.58041 22.0024 8.53644 21.7555C8.48909 21.5086 8.46879 21.3936 8.45526 21.3192C8.44173 21.2448 8.43497 21.2109 8.43497 21.1805C8.43497 21.15 8.43835 21.1196 8.75968 21.2617L8.7563 21.2583ZM1.77169 3.57183C2.15051 3.62933 2.89802 3.74433 3.59817 3.94727C4.29832 4.15022 4.94774 4.4411 5.48554 4.79287C6.02333 5.14463 6.44613 5.55052 6.7201 5.90229C6.99408 6.25406 7.11584 6.54832 7.17672 6.71406C7.23761 6.8798 7.23761 6.92038 7.0854 6.94068C6.93319 6.96435 6.63216 6.97112 6.28039 6.96097C5.92863 6.95082 5.53289 6.92038 5.07627 6.77156C4.62303 6.62273 4.10891 6.35214 3.66243 6.03758C3.21596 5.72302 2.83037 5.36787 2.50228 5.01272C2.17081 4.65757 1.89683 4.30242 1.71757 4.06904C1.5383 3.83565 1.45374 3.72065 1.40301 3.65301C1.35227 3.58198 1.33198 3.5583 1.32521 3.53801C1.31845 3.52109 1.32521 3.50756 1.33536 3.50418C1.34551 3.49742 1.35904 3.49742 1.36918 3.50418C1.37933 3.50418 1.38948 3.51095 1.7683 3.57183H1.77169Z" fill="white"/>
<path d="M153.536 27.3496H112.19V27.8603H153.536V27.3496Z" fill="white"/>
</g>
<defs>
<clipPath id="clip0_575_5930">
<rect width="154.047" height="40" fill="white"/>
</clipPath>
</defs>
</svg>
