<svg width="281" height="130" viewBox="0 0 281 130" fill="none" xmlns="http://www.w3.org/2000/svg">
<path fill-rule="evenodd" clip-rule="evenodd" d="M137.248 13.2164C137.248 13.0332 137.248 12.6851 137.248 12.4744C137.248 12.2637 137.248 12.1904 137.147 12.053C137.045 11.9156 136.832 11.7049 136.619 11.5583C136.407 11.4117 136.203 11.3201 136.028 11.2652C135.852 11.2102 135.713 11.1919 135.463 11.1736C135.214 11.1644 134.853 11.1644 134.631 11.1644C134.409 11.1644 134.326 11.1644 134.289 11.1644C134.252 11.1644 134.252 11.1552 134.252 11.1461C134.252 11.1369 134.252 11.1278 134.252 11.0087C134.252 10.8896 134.252 10.6697 134.252 10.5506C134.252 10.4315 134.252 10.4315 134.252 10.4224C134.252 10.4224 134.271 10.4224 135.787 10.4224H142.149C143.962 10.4224 144.554 10.4224 145.007 10.459C145.469 10.4957 145.802 10.5598 146.163 10.6972C146.533 10.8346 146.93 11.0361 147.356 11.3568C147.781 11.6774 148.225 12.1263 148.548 12.5843C148.872 13.0424 149.085 13.5188 149.279 14.0318C149.473 14.5448 149.649 15.1036 149.741 15.7357C149.825 16.3678 149.815 17.0732 149.797 17.6595C149.778 18.2366 149.732 18.6947 149.64 19.1802C149.547 19.6566 149.39 20.1696 149.214 20.6643C149.039 21.1681 148.844 21.6536 148.576 22.2216C148.308 22.7804 147.975 23.4125 147.559 24.0996C147.134 24.7867 146.625 25.547 145.987 26.2616C145.349 26.9853 144.591 27.6724 143.823 28.222C143.046 28.7717 142.26 29.1931 141.437 29.5504C140.605 29.9076 139.736 30.2008 138.367 30.5947C136.999 30.9886 135.14 31.4833 133.503 31.9139C131.857 32.3353 130.433 32.6925 129.693 32.8849C128.944 33.0773 128.87 33.1139 128.815 33.1414C128.759 33.1781 128.713 33.2056 128.371 34.2224C128.029 35.2393 127.381 37.2364 127.039 38.3173C126.697 39.3983 126.651 39.5541 126.642 39.6457C126.642 39.7373 126.669 39.7465 126.826 39.609C126.984 39.4716 127.252 39.1876 127.613 38.8853C127.973 38.583 128.417 38.2715 128.879 38.015C129.342 37.7585 129.832 37.557 130.424 37.3463C131.016 37.1356 131.709 36.9157 132.384 36.76C133.05 36.6043 133.697 36.5035 134.354 36.4394C135.02 36.3752 135.695 36.3569 136.185 36.3477C136.675 36.3386 136.962 36.3386 137.156 36.3386C137.35 36.3386 137.461 36.3386 137.507 36.3203C137.563 36.3019 137.563 36.2745 137.563 35.5691C137.563 34.8637 137.563 33.4987 137.563 32.8025C137.563 32.1062 137.572 32.0788 137.59 32.0788C137.609 32.0788 137.637 32.0788 137.84 32.0421C138.044 32.0055 138.413 31.923 138.802 31.8131C139.19 31.7123 139.597 31.5841 139.884 31.4833C140.17 31.3825 140.337 31.2909 140.429 31.236C140.522 31.1718 140.54 31.1444 140.559 31.1444C140.577 31.1444 140.577 31.181 140.577 32.0238C140.577 32.8666 140.577 34.5339 140.577 35.3767C140.577 36.2195 140.577 36.2561 140.577 36.2745C140.577 36.2928 140.605 36.2928 141.779 36.2928C142.954 36.2928 145.284 36.2928 147.161 36.2928C149.039 36.2928 150.463 36.2928 151.313 36.2378C152.164 36.1829 152.451 36.0729 152.839 35.8256C153.228 35.5782 153.709 35.2026 154.115 34.7354C154.522 34.2682 154.846 33.7094 155.114 33.2422C155.382 32.7658 155.604 32.3719 155.743 32.0971C155.882 31.8223 155.937 31.6574 155.983 31.5474C156.03 31.4467 156.057 31.4009 156.094 31.3825C156.131 31.3642 156.168 31.3642 156.261 31.3642C156.353 31.3642 156.501 31.3642 156.575 31.3642C156.649 31.3642 156.649 31.3917 156.621 31.4833C156.594 31.5749 156.529 31.749 156.122 33.004C155.706 34.2591 154.948 36.5859 154.55 37.7677C154.162 38.9403 154.143 38.9586 154.041 38.9678C153.94 38.9769 153.764 38.9953 150.648 38.9953C147.531 38.9953 141.493 38.9953 138.062 38.9953C134.631 38.9953 133.808 38.9953 133.004 39.0227C132.199 39.0502 131.395 39.1143 130.673 39.1968C129.952 39.2792 129.305 39.3983 128.704 39.6274C128.093 39.8564 127.52 40.1953 127.067 40.6259C126.614 41.0473 126.281 41.5603 126.013 42.1008C125.745 42.6413 125.56 43.2276 125.384 43.704C125.217 44.1712 125.069 44.5376 124.986 44.7208C124.894 44.904 124.857 44.9132 124.801 44.8949C124.746 44.8857 124.663 44.8582 124.552 44.8216C124.441 44.785 124.283 44.7483 124.209 44.7117C124.135 44.675 124.154 44.6475 124.182 44.5926C124.209 44.5468 124.237 44.4826 124.404 44.0612C124.57 43.6398 124.866 42.8703 125.236 41.8168C125.606 40.7633 126.04 39.435 126.392 38.3265C126.752 37.218 127.039 36.3203 127.261 35.5966C127.483 34.8728 127.64 34.3232 127.751 33.9751C127.853 33.627 127.908 33.4712 127.918 33.3979C127.927 33.3247 127.918 33.3338 127.779 33.3521C127.649 33.3705 127.409 33.4163 126.9 33.6178C126.401 33.8193 125.634 34.1949 125.023 34.6072C124.413 35.0194 123.96 35.4775 123.581 35.963C123.211 36.4394 122.915 36.9432 122.702 37.4196C122.489 37.8868 122.369 38.3357 122.268 38.7937C122.175 39.2518 122.101 39.7281 122.092 40.2137C122.083 40.6992 122.12 41.1939 122.231 41.7252C122.342 42.2565 122.526 42.8154 122.776 43.3925C123.026 43.9696 123.322 44.5559 123.71 45.0415C124.089 45.527 124.552 45.9117 125.032 46.2324C125.513 46.553 126.003 46.8187 126.503 47.0385C127.002 47.2676 127.492 47.4508 128.112 47.5699C128.731 47.6798 129.462 47.7256 130.165 47.6432C130.868 47.5699 131.543 47.3775 132.153 47.1301C132.773 46.8828 133.327 46.5897 133.827 46.2599C134.326 45.9392 134.77 45.5911 135.158 45.2155C135.547 44.8399 135.898 44.4277 136.083 44.2078C136.268 43.988 136.296 43.9422 136.314 43.9238C136.333 43.8963 136.342 43.8872 136.36 43.878C136.379 43.878 136.416 43.878 136.592 43.878C136.758 43.878 137.054 43.878 137.202 43.878C137.35 43.878 137.341 43.878 137.331 43.8963C137.331 43.9055 137.313 43.9238 137.193 44.0979C137.073 44.2628 136.832 44.5834 136.536 44.9407C136.24 45.298 135.898 45.6919 135.473 46.095C135.047 46.498 134.548 46.9011 134.058 47.2492C133.568 47.6065 133.105 47.9088 132.615 48.1562C132.134 48.4127 131.626 48.6051 131.154 48.7516C130.683 48.8982 130.23 48.9898 129.749 49.0356C129.268 49.0814 128.741 49.0723 128.232 49.0265C127.723 48.9807 127.224 48.8982 126.605 48.6325C125.985 48.3669 125.245 47.9272 124.69 47.5332C124.136 47.1393 123.766 46.8004 123.451 46.4064C123.128 46.0125 122.859 45.5636 122.6 45.0323C122.342 44.501 122.083 43.9055 121.888 43.3192C121.694 42.7421 121.574 42.1833 121.482 41.6153C121.398 41.0473 121.352 40.4702 121.352 39.9846C121.352 39.5083 121.38 39.1327 121.445 38.7021C121.509 38.2715 121.592 37.7677 121.759 37.1997C121.925 36.6317 122.166 35.9905 122.452 35.4133C122.73 34.8362 123.044 34.3323 123.405 33.8468C123.775 33.3705 124.191 32.9124 124.663 32.5368C125.134 32.1612 125.652 31.8497 126.262 31.5566C126.873 31.2543 127.576 30.9611 127.964 30.8054C128.352 30.6497 128.417 30.6313 128.482 30.613C128.546 30.5947 128.62 30.5764 128.676 30.5306C128.731 30.4848 128.768 30.4206 128.861 30.0908C128.953 29.7611 129.092 29.1656 129.222 28.6434C129.351 28.1213 129.48 27.6724 129.693 26.9945C129.906 26.3257 130.211 25.4279 130.572 24.466C130.932 23.5041 131.348 22.4781 131.728 21.6262C132.107 20.7742 132.449 20.0871 132.874 19.281C133.309 18.4748 133.827 17.5496 134.372 16.7526C134.918 15.9556 135.491 15.296 135.907 14.8379C136.323 14.3799 136.582 14.1325 136.767 13.9768C136.943 13.8211 137.045 13.7478 137.11 13.6928C137.183 13.6378 137.23 13.592 137.248 13.5737C137.267 13.5462 137.267 13.5371 137.267 13.5188C137.267 13.5004 137.267 13.4729 137.267 13.4546C137.267 13.4363 137.267 13.4088 137.267 13.3997C137.267 13.3905 137.267 13.3813 137.267 13.2073M142.482 12.1629C142.732 12.1446 143.204 12.108 143.712 12.1629C144.221 12.2179 144.766 12.3736 145.303 12.6027C145.839 12.8317 146.357 13.1248 146.801 13.5279C147.245 13.931 147.605 14.4348 147.91 14.9204C148.206 15.4059 148.447 15.8639 148.604 16.3861C148.761 16.9175 148.826 17.5129 148.817 18.1359C148.817 18.7496 148.724 19.3909 148.558 20.0138C148.391 20.6368 148.16 21.2322 147.827 21.8277C147.494 22.4232 147.06 23.0278 146.634 23.5683C146.209 24.1088 145.793 24.6035 145.201 25.0707C144.609 25.5379 143.851 25.9959 143.305 26.3074C142.76 26.6189 142.427 26.7838 142.094 26.9487C141.752 27.1136 141.41 27.2601 141.197 27.3517C140.984 27.4433 140.892 27.48 140.818 27.4891C140.744 27.4891 140.679 27.4617 140.651 27.425C140.624 27.3792 140.624 27.3242 140.633 25.2356C140.633 23.1469 140.633 19.0245 140.633 16.8075C140.633 14.5906 140.633 14.2699 140.633 14.0959C140.633 13.9218 140.633 13.8852 140.605 13.8669C140.587 13.8485 140.55 13.8394 140.346 13.9402C140.143 14.0409 139.764 14.2425 139.375 14.4806C138.987 14.7188 138.589 14.9845 138.302 15.1952C138.016 15.4059 137.831 15.58 137.72 15.6899C137.609 15.7998 137.581 15.8639 137.553 15.9189C137.535 15.9739 137.516 16.0105 137.516 17.9252C137.516 19.8398 137.516 23.6416 137.516 25.6386C137.516 27.6357 137.516 27.8373 137.516 27.9747C137.516 28.1121 137.516 28.1762 137.498 28.2312C137.47 28.2861 137.424 28.3228 136.823 28.4877C136.222 28.6526 135.057 28.9457 133.873 29.248C132.689 29.5504 131.478 29.8527 130.794 30.0267C130.1 30.2008 129.924 30.2374 129.832 30.2374C129.739 30.2374 129.721 30.1825 129.721 30.1C129.721 30.0176 129.73 29.9076 129.897 29.2572C130.063 28.6068 130.377 27.4067 130.84 26.0326C131.302 24.6493 131.913 23.0919 132.477 21.8185C133.041 20.5452 133.568 19.5741 134.104 18.713C134.64 17.8519 135.195 17.1098 135.75 16.4502C136.305 15.7907 136.86 15.2135 137.452 14.7005C138.044 14.1875 138.682 13.7295 139.292 13.3722C139.902 13.0057 140.494 12.7401 140.929 12.566C141.363 12.392 141.65 12.3095 141.835 12.2637C142.02 12.2179 142.094 12.2087 142.149 12.1996C142.205 12.1996 142.233 12.1996 142.491 12.1721L142.482 12.1629ZM134.252 42.8612C134.252 42.8062 134.252 42.7329 134.252 42.6505C134.252 42.568 134.252 42.4764 134.261 42.4398C134.271 42.4031 134.289 42.4031 134.502 42.4123C134.714 42.4123 135.121 42.4123 135.427 42.4123C135.732 42.4123 135.935 42.4123 136.139 42.3665C136.342 42.3207 136.545 42.2199 136.74 42.0642C136.925 41.9084 137.091 41.7069 137.202 41.5328C137.313 41.3679 137.378 41.2305 137.405 41.0748C137.433 40.919 137.433 40.7267 137.433 40.5618C137.433 40.3969 137.433 40.2595 137.433 40.177C137.433 40.0946 137.433 40.0671 137.433 40.0579C137.433 40.0396 137.433 40.0396 137.461 40.0396C137.479 40.0396 137.507 40.0396 138.034 40.0396C138.561 40.0396 139.579 40.0396 140.087 40.0396C140.596 40.0396 140.605 40.0396 140.614 40.0488C140.614 40.0488 140.614 40.0671 140.614 40.1312C140.614 40.1953 140.614 40.3053 140.633 40.4335C140.651 40.5618 140.661 40.69 140.744 40.8549C140.827 41.0198 140.966 41.2214 141.123 41.3496C141.28 41.4779 141.456 41.5237 141.65 41.5511C141.844 41.5786 142.048 41.597 143.102 41.6061C144.156 41.6061 146.061 41.6061 147.568 41.6061H153.598C154.236 41.6061 154.689 41.6061 155.012 41.5786C155.345 41.5512 155.549 41.487 155.808 41.3771C156.057 41.2672 156.353 41.1114 156.677 40.8824C157.001 40.6534 157.333 40.3602 157.62 40.0304C157.907 39.7098 158.138 39.3617 158.369 38.9861C158.6 38.6105 158.832 38.2166 158.97 37.9509C159.109 37.6852 159.155 37.557 159.211 37.3646C159.266 37.1722 159.34 36.934 159.386 36.7966C159.433 36.6592 159.442 36.6317 159.46 36.6134C159.479 36.6043 159.507 36.6134 159.608 36.6134C159.71 36.6134 159.886 36.6134 159.978 36.6134C160.071 36.6134 160.089 36.6134 160.089 36.6317C160.089 36.6409 160.089 36.6684 160.071 36.7325C160.043 36.7966 159.997 36.8882 159.969 36.9707C159.941 37.0623 159.923 37.1448 159.692 37.8135C159.46 38.4822 159.016 39.7465 158.721 40.6534C158.425 41.5603 158.277 42.11 158.193 42.4214C158.11 42.7421 158.101 42.8154 158.083 42.8612C158.073 42.907 158.055 42.9161 158.036 42.9253C158.009 42.9253 157.972 42.9253 154.55 42.9253H134.298C134.298 42.9253 134.28 42.9253 134.271 42.907C134.271 42.8886 134.261 42.8612 134.252 42.8062V42.8612Z" fill="#4A505A"/>
<path fill-rule="evenodd" clip-rule="evenodd" d="M140.32 2.53488C139.775 2.2967 138.804 1.83865 137.777 1.46306C136.76 1.08746 135.696 0.775987 134.633 0.537803C133.57 0.299619 132.506 0.116401 131.48 0.0431134C130.453 -0.0301739 129.455 -0.00269113 128.539 0.0705962C127.624 0.143884 126.791 0.272136 125.7 0.546964C124.609 0.830952 123.259 1.27068 122.066 1.9211C120.873 2.57153 119.828 3.42349 119.125 4.19301C118.422 4.96253 118.043 5.64959 117.766 6.34582C117.488 7.04205 117.304 7.73828 117.294 8.45283C117.285 9.17655 117.433 9.91858 117.673 10.5415C117.914 11.1553 118.237 11.6408 118.644 12.0531C119.051 12.4653 119.541 12.8134 120.078 13.015C120.614 13.2257 121.197 13.2898 121.798 13.244C122.399 13.1982 123.028 13.0333 123.601 12.7493C124.174 12.4653 124.692 12.0714 125.025 11.6133C125.358 11.1553 125.515 10.6423 125.534 10.1384C125.552 9.63459 125.432 9.13074 125.099 8.76431C124.766 8.39787 124.221 8.17801 123.721 8.1322C123.222 8.0864 122.759 8.22381 122.371 8.48948C121.973 8.75514 121.65 9.15822 121.53 9.56131C121.409 9.96439 121.493 10.3766 121.65 10.6973C121.798 11.0271 122.02 11.2652 122.195 11.4026C122.38 11.5401 122.528 11.5675 122.371 11.5859C122.214 11.6042 121.761 11.6225 121.419 11.6133C121.076 11.6042 120.854 11.5675 120.512 11.3843C120.17 11.2011 119.717 10.8805 119.421 10.4133C119.125 9.9369 118.987 9.31396 118.996 8.65437C118.996 7.99479 119.162 7.30772 119.384 6.73974C119.606 6.17177 119.902 5.73204 120.411 5.22819C120.91 4.72434 121.613 4.15636 122.362 3.70748C123.102 3.25859 123.888 2.93796 124.766 2.65397C125.645 2.36999 126.625 2.1318 127.744 1.98523C128.863 1.83865 130.111 1.78369 131.202 1.80201C132.293 1.82033 133.218 1.91194 134.189 2.10432C135.16 2.2967 136.187 2.57153 136.954 2.81887C137.731 3.06622 138.249 3.27692 138.535 3.41433C138.822 3.55174 138.859 3.61587 138.794 3.68916C138.73 3.76245 138.554 3.84489 137.509 4.49532C136.464 5.14574 134.541 6.35498 132.515 7.70164C130.49 9.03913 128.354 10.5049 126.764 11.5401C125.173 12.5752 124.119 13.1799 123.194 13.6746C122.269 14.1692 121.474 14.5632 120.91 14.8013C120.346 15.0395 120.004 15.122 119.782 15.1586C119.56 15.1953 119.449 15.1953 119.375 15.1586C119.301 15.122 119.273 15.0487 119.033 14.5906C118.792 14.1418 118.358 13.3081 117.729 12.447C117.1 11.5859 116.277 10.6881 115.306 9.92774C114.326 9.16739 113.198 8.53528 111.968 8.02227C110.738 7.51842 109.425 7.13366 108.167 6.87716C106.919 6.62065 105.735 6.48324 104.709 6.39163C103.682 6.30002 102.813 6.25421 102.249 6.23589C101.685 6.21757 101.435 6.23589 101.315 6.27254C101.195 6.30002 101.213 6.33666 101.333 6.51072C101.454 6.69394 101.675 7.02373 102.119 7.67416C102.563 8.32458 103.22 9.29564 103.867 10.1842C104.514 11.0729 105.152 11.8882 105.892 12.6669C106.632 13.4455 107.474 14.1967 108.297 14.838C109.129 15.4793 109.943 16.0014 110.793 16.4228C111.644 16.8534 112.541 17.1832 113.364 17.3847C114.187 17.5863 114.927 17.6687 115.648 17.6962C116.37 17.7237 117.063 17.7054 117.525 17.6687C117.997 17.6321 118.237 17.5588 118.367 17.5588C118.496 17.5588 118.515 17.5954 118.58 17.8977C118.644 18.2 118.765 18.7497 118.857 19.8582C118.95 20.9758 119.024 22.6523 119.033 24.1638C119.051 25.6754 119.005 27.0128 118.94 28.5427C118.876 30.0726 118.783 31.7948 118.718 33.4346C118.644 35.0653 118.589 36.6135 118.552 38.0518C118.515 39.4809 118.487 40.8 118.487 42.0184C118.487 43.2368 118.506 44.3361 118.524 44.9408C118.543 45.5454 118.552 45.637 118.543 45.7103C118.533 45.7744 118.496 45.8202 118.08 45.8202C117.664 45.8202 116.85 45.8019 116.009 45.8477C115.167 45.8935 114.298 46.0126 113.438 46.2691C112.569 46.5256 111.709 46.9195 110.849 47.5791C109.989 48.2387 109.138 49.1731 108.537 50.2083C107.936 51.2435 107.594 52.3886 107.501 53.6161C107.409 54.8437 107.585 56.1537 107.908 57.2164C108.232 58.2791 108.703 59.0944 109.379 59.8181C110.054 60.5418 110.932 61.1739 112.088 61.7236C113.244 62.2732 114.677 62.7404 115.963 62.9511C117.248 63.1618 118.395 63.116 119.393 62.9603C120.392 62.8137 121.252 62.5664 121.872 62.2366C122.491 61.9068 122.88 61.4945 123.055 60.9907C123.24 60.4868 123.213 59.8914 122.991 59.4242C122.759 58.957 122.325 58.618 121.862 58.4348C121.391 58.2516 120.891 58.2241 120.475 58.2974C120.05 58.3707 119.708 58.5356 119.458 58.7921C119.208 59.0486 119.051 59.3875 119.014 59.699C118.968 60.0013 119.033 60.267 119.162 60.5235C119.292 60.78 119.477 61.0182 119.643 61.1556C119.81 61.293 119.948 61.3296 119.93 61.3663C119.911 61.4029 119.717 61.4304 119.356 61.4854C118.996 61.5495 118.45 61.6411 117.812 61.6319C117.165 61.6319 116.416 61.5129 115.722 61.3663C115.038 61.2197 114.409 61.0457 113.669 60.7159C112.93 60.3952 112.06 59.9189 111.32 59.2959C110.581 58.673 109.961 57.8851 109.573 57.1248C109.184 56.3644 109.027 55.6315 108.999 54.8162C108.962 54.0009 109.055 53.1123 109.277 52.3061C109.499 51.5091 109.869 50.7946 110.414 50.1533C110.96 49.5121 111.69 48.9258 112.467 48.5227C113.235 48.1288 114.048 47.9089 114.76 47.7532C115.482 47.5974 116.101 47.4875 116.739 47.4417C117.368 47.3867 117.997 47.3867 118.339 47.405C118.681 47.4234 118.718 47.4509 118.755 47.6157C118.792 47.7806 118.82 48.0646 118.931 48.6967C119.042 49.3288 119.236 50.2999 119.523 51.2343C119.81 52.1596 120.189 53.0482 120.697 53.9276C121.206 54.8071 121.853 55.6774 122.51 56.3644C123.166 57.0515 123.841 57.5462 124.461 57.9126C125.081 58.2791 125.645 58.5172 126.236 58.7096C126.819 58.902 127.429 59.0394 128.178 59.1035C128.927 59.1677 129.834 59.1585 130.842 59.0852C131.85 59.0119 132.969 58.8837 133.866 58.7279C134.762 58.5722 135.447 58.389 135.891 58.2607C136.335 58.1416 136.538 58.0775 136.815 58.1783C137.093 58.2791 137.444 58.5447 137.953 58.9112C138.461 59.2684 139.136 59.7265 139.469 59.9647C139.802 60.2028 139.802 60.2395 139.294 60.5968C138.776 60.954 137.749 61.6319 136.556 62.4015C135.364 63.171 134.013 64.0138 133.126 64.5451C132.238 65.0765 131.822 65.2871 131.563 65.3788C131.304 65.4704 131.202 65.4337 130.675 65.1497C130.148 64.8566 129.186 64.3161 128.271 63.8764C127.355 63.4366 126.477 63.116 125.608 62.9786C124.729 62.8412 123.86 62.9053 123.185 63.2076C122.51 63.5099 122.038 64.0504 121.751 64.5634C120.928 66.0475 121.862 68.1454 123.296 68.8233C123.86 69.0889 124.581 69.1714 125.339 69.1531C126.088 69.1347 126.875 69.0248 127.633 68.8416C128.391 68.6675 129.122 68.4293 129.639 68.2095C130.157 67.9988 130.462 67.8064 130.694 67.6873C130.925 67.5682 131.091 67.5224 131.415 67.6232C131.739 67.724 132.219 67.9621 133.153 68.5668C134.097 69.1714 135.493 70.1516 136.529 70.9028C137.564 71.654 138.221 72.1762 138.683 72.5701C139.155 72.964 139.423 73.2388 139.525 73.4037C139.617 73.5686 139.534 73.6144 139.247 73.9809C138.961 74.3473 138.461 75.0252 138.064 75.694C137.666 76.3627 137.352 77.0131 137.019 77.8101C136.677 78.6071 136.316 79.5324 136.168 80.6592C136.029 81.786 136.113 83.096 136.335 84.1861C136.566 85.2763 136.926 86.1466 137.398 86.971C137.87 87.7864 138.443 88.5559 138.97 89.1788C139.497 89.7926 139.987 90.2598 140.302 90.5071C140.598 90.7453 140.736 90.782 140.829 90.782C140.921 90.782 141.06 90.7453 141.356 90.5071C141.67 90.2598 142.16 89.7926 142.687 89.1788C143.215 88.565 143.788 87.7955 144.26 86.971C144.731 86.1466 145.101 85.2763 145.323 84.1861C145.554 83.096 145.637 81.7768 145.489 80.6592C145.351 79.5324 144.981 78.6071 144.639 77.8101C144.297 77.0131 143.991 76.3627 143.594 75.694C143.196 75.0252 142.697 74.3473 142.41 73.9809C142.123 73.6144 142.04 73.5686 142.133 73.4037C142.225 73.2388 142.503 72.9732 142.974 72.5701C143.446 72.1762 144.102 71.6448 145.129 70.9028C146.155 70.1516 147.561 69.1805 148.504 68.5668C149.447 67.9621 149.919 67.724 150.243 67.6232C150.566 67.5224 150.733 67.5682 150.964 67.6873C151.195 67.8064 151.5 67.9988 152.018 68.2095C152.536 68.4293 153.266 68.6675 154.025 68.8416C154.783 69.0156 155.56 69.1347 156.318 69.1531C157.067 69.1714 157.798 69.0889 158.362 68.8233C159.795 68.1454 160.72 66.0475 159.906 64.5634C159.619 64.0504 159.148 63.5099 158.473 63.2076C157.798 62.9053 156.928 62.8412 156.05 62.9786C155.171 63.116 154.302 63.4366 153.387 63.8764C152.471 64.3161 151.509 64.8566 150.982 65.1497C150.455 65.4429 150.354 65.4704 150.095 65.3788C149.836 65.2871 149.42 65.0765 148.532 64.5451C147.644 64.0138 146.294 63.1618 145.101 62.4015C143.908 61.6319 142.882 60.954 142.364 60.5968C141.846 60.2395 141.846 60.2028 142.188 59.9647C142.521 59.7265 143.196 59.2684 143.705 58.9112C144.213 58.5539 144.565 58.2882 144.842 58.1783C145.12 58.0775 145.323 58.1325 145.767 58.2607C146.211 58.3798 146.895 58.5722 147.792 58.7279C148.689 58.8837 149.808 59.0211 150.816 59.0852C151.824 59.1585 152.73 59.1677 153.479 59.1035C154.237 59.0394 154.838 58.8928 155.421 58.7096C156.004 58.5172 156.577 58.2791 157.197 57.9126C157.816 57.5462 158.482 57.0515 159.148 56.3644C159.804 55.6774 160.452 54.8071 160.96 53.9276C161.469 53.0482 161.848 52.1687 162.135 51.2343C162.421 50.3091 162.615 49.3288 162.726 48.6967C162.837 48.0646 162.865 47.7715 162.902 47.6157C162.939 47.4509 162.985 47.4234 163.318 47.405C163.66 47.3867 164.289 47.3867 164.918 47.4417C165.547 47.4967 166.176 47.5974 166.897 47.7532C167.618 47.9089 168.423 48.1196 169.19 48.5227C169.958 48.9166 170.688 49.5029 171.243 50.1533C171.789 50.7946 172.15 51.5091 172.381 52.3061C172.603 53.1031 172.695 54.0009 172.658 54.8162C172.621 55.6315 172.473 56.3644 172.085 57.1248C171.696 57.8851 171.077 58.673 170.337 59.2959C169.597 59.9189 168.728 60.3952 167.988 60.7159C167.248 61.0365 166.629 61.2197 165.935 61.3663C165.251 61.5129 164.493 61.6228 163.845 61.6319C163.198 61.6319 162.662 61.5495 162.301 61.4854C161.94 61.4212 161.755 61.3938 161.728 61.3663C161.709 61.3296 161.848 61.293 162.014 61.1556C162.181 61.0182 162.366 60.78 162.495 60.5235C162.625 60.267 162.689 60.0013 162.643 59.699C162.597 59.3967 162.449 59.0486 162.199 58.7921C161.95 58.5356 161.598 58.3707 161.182 58.2974C160.757 58.2241 160.257 58.2516 159.795 58.4348C159.323 58.618 158.889 58.957 158.667 59.4242C158.436 59.8914 158.417 60.4868 158.602 60.9907C158.787 61.4945 159.166 61.9068 159.786 62.2366C160.405 62.5664 161.265 62.8137 162.264 62.9603C163.263 63.1069 164.409 63.1527 165.695 62.9511C166.98 62.7404 168.414 62.2732 169.569 61.7236C170.725 61.1739 171.604 60.5418 172.279 59.8181C172.954 59.0944 173.426 58.2791 173.749 57.2164C174.073 56.1537 174.239 54.8437 174.156 53.6161C174.064 52.3886 173.722 51.2435 173.12 50.2083C172.519 49.1731 171.669 48.2387 170.809 47.5791C169.949 46.9195 169.089 46.5256 168.219 46.2691C167.35 46.0126 166.481 45.8935 165.649 45.8477C164.807 45.8019 164.003 45.8294 163.577 45.8202C163.161 45.8202 163.124 45.7744 163.115 45.7103C163.106 45.6461 163.115 45.5454 163.133 44.9408C163.152 44.3361 163.17 43.2368 163.17 42.0184C163.17 40.8 163.152 39.49 163.106 38.0518C163.069 36.6226 163.013 35.0745 162.939 33.4346C162.865 31.804 162.782 30.0818 162.717 28.5427C162.652 27.0128 162.606 25.6754 162.625 24.1638C162.643 22.6523 162.708 20.9758 162.8 19.8582C162.893 18.7405 163.013 18.1909 163.078 17.8977C163.143 17.5954 163.161 17.5496 163.291 17.5588C163.42 17.5588 163.66 17.6321 164.132 17.6687C164.604 17.7054 165.288 17.7237 166.009 17.6962C166.731 17.6687 167.47 17.5863 168.284 17.3847C169.107 17.1832 170.004 16.8442 170.855 16.4228C171.706 15.9923 172.529 15.4701 173.352 14.838C174.184 14.1967 175.016 13.4455 175.765 12.6669C176.505 11.8882 177.143 11.0729 177.79 10.1842C178.438 9.29564 179.104 8.32458 179.538 7.67416C179.982 7.02373 180.204 6.69394 180.324 6.51072C180.444 6.3275 180.463 6.29086 180.343 6.27254C180.222 6.24505 179.973 6.22673 179.409 6.23589C178.845 6.24505 177.975 6.30002 176.949 6.39163C175.922 6.48324 174.739 6.62065 173.49 6.87716C172.242 7.13366 170.92 7.51842 169.69 8.02227C168.46 8.52612 167.332 9.15823 166.351 9.92774C165.371 10.6881 164.557 11.5859 163.929 12.447C163.3 13.3081 162.856 14.1326 162.625 14.5906C162.384 15.0395 162.357 15.122 162.283 15.1586C162.209 15.1953 162.098 15.1953 161.876 15.1586C161.654 15.1128 161.321 15.0395 160.748 14.8013C160.183 14.5632 159.388 14.1692 158.463 13.6746C157.539 13.1799 156.485 12.5752 154.894 11.5401C153.303 10.5049 151.167 9.03913 149.142 7.70164C147.117 6.36415 145.193 5.14574 144.149 4.49532C143.104 3.84489 142.928 3.76245 142.854 3.68916C142.789 3.61587 142.835 3.55174 143.113 3.41433C143.4 3.27692 143.917 3.06622 144.694 2.81887C145.471 2.57153 146.488 2.28754 147.459 2.10432C148.43 1.91194 149.355 1.82033 150.446 1.80201C151.537 1.78369 152.786 1.83865 153.904 1.98523C155.023 2.1318 156.004 2.36999 156.882 2.65397C157.761 2.93796 158.547 3.26776 159.286 3.70748C160.026 4.15636 160.729 4.72434 161.228 5.22819C161.728 5.73204 162.024 6.17177 162.255 6.73974C162.477 7.30772 162.634 7.99479 162.643 8.65437C162.643 9.31396 162.514 9.9369 162.218 10.4133C161.922 10.8896 161.469 11.2103 161.127 11.3843C160.785 11.5675 160.563 11.6042 160.22 11.6133C159.878 11.6225 159.425 11.6133 159.268 11.5859C159.111 11.5675 159.268 11.5401 159.444 11.4026C159.629 11.2652 159.841 11.0179 159.989 10.6973C160.137 10.3675 160.23 9.96439 160.109 9.56131C159.989 9.15822 159.656 8.76431 159.268 8.48948C158.87 8.22381 158.417 8.0864 157.918 8.1322C157.418 8.17801 156.873 8.39787 156.54 8.76431C156.207 9.13074 156.087 9.62543 156.105 10.1384C156.124 10.6423 156.272 11.1553 156.614 11.6133C156.947 12.0714 157.465 12.4653 158.038 12.7493C158.611 13.0333 159.24 13.189 159.841 13.244C160.442 13.2898 161.034 13.2165 161.561 13.015C162.098 12.8043 162.588 12.4653 162.995 12.0531C163.402 11.6408 163.725 11.1553 163.966 10.5415C164.206 9.92774 164.363 9.17655 164.345 8.45283C164.335 7.72912 164.151 7.03289 163.873 6.34582C163.596 5.64959 163.226 4.97169 162.514 4.19301C161.811 3.42349 160.766 2.56237 159.573 1.9211C158.38 1.27068 157.03 0.830952 155.939 0.546964C154.848 0.262975 154.015 0.143884 153.1 0.0705962C152.184 -0.00269113 151.186 -0.0301739 150.159 0.0431134C149.133 0.116401 148.069 0.299619 147.006 0.537803C145.943 0.775987 144.879 1.08746 143.862 1.46306C142.845 1.83865 141.864 2.2967 141.319 2.53488C141.078 2.64481 140.921 2.70894 140.82 2.75474C140.718 2.70894 140.561 2.64481 140.32 2.53488ZM140.82 88.7574C140.607 88.565 140.302 88.2902 139.895 87.7864C139.423 87.2001 138.813 86.3023 138.397 85.4412C137.981 84.58 137.759 83.7647 137.657 83.0044C137.564 82.244 137.592 81.5386 137.749 80.7508C137.907 79.9538 138.193 79.0743 138.582 78.2407C138.97 77.3979 139.469 76.61 139.886 76.0054C140.292 75.41 140.625 74.9977 140.81 74.6954C140.995 74.9977 141.328 75.41 141.735 76.0054C142.151 76.61 142.641 77.407 143.039 78.2407C143.427 79.0835 143.714 79.9629 143.871 80.7508C144.028 81.5478 144.065 82.244 143.964 83.0044C143.871 83.7647 143.64 84.58 143.224 85.4412C142.808 86.3023 142.207 87.2001 141.726 87.7864C141.319 88.2902 141.014 88.565 140.801 88.7574H140.82ZM140.82 72.2036C140.644 72.0662 140.376 71.8739 139.969 71.5807C139.321 71.1135 138.323 70.3531 137.592 69.8401C136.862 69.3271 136.409 69.0431 135.733 68.6034C135.058 68.1637 134.152 67.5591 133.644 67.2201C133.135 66.8811 133.033 66.7895 132.987 66.7163C132.95 66.6338 132.978 66.5605 133.283 66.3315C133.597 66.1025 134.189 65.7269 134.975 65.2322C135.77 64.7375 136.76 64.1329 137.694 63.5099C138.628 62.887 139.497 62.2549 140.006 61.8701C140.505 61.4854 140.644 61.3663 140.783 61.2472L140.82 61.2105L140.856 61.2472C140.995 61.3571 141.125 61.4854 141.633 61.8701C142.133 62.2549 143.011 62.887 143.945 63.5099C144.879 64.1329 145.869 64.7375 146.655 65.2322C147.45 65.7269 148.042 66.1025 148.347 66.3315C148.661 66.5605 148.689 66.6338 148.643 66.7163C148.606 66.7987 148.495 66.8811 147.986 67.2201C147.478 67.5591 146.571 68.1637 145.896 68.6034C145.221 69.0431 144.759 69.3271 144.038 69.8401C143.307 70.3531 142.308 71.1043 141.661 71.5807C141.254 71.8739 140.986 72.0571 140.81 72.2036H140.82ZM140.82 59.1493C140.727 59.0852 140.625 59.0028 140.514 58.9203C139.95 58.5081 139.016 57.8485 137.86 57.0148C136.704 56.1812 135.317 55.1643 134.05 54.2666C132.793 53.3688 131.646 52.5901 130.389 51.7473C129.131 50.9045 127.753 49.9976 126.44 49.2281C125.127 48.4494 123.897 47.799 122.917 47.3318C121.946 46.8646 121.234 46.5622 120.836 46.3607C120.438 46.15 120.355 46.0309 120.318 45.921C120.281 45.811 120.281 45.7011 120.244 44.7026C120.216 43.704 120.152 41.826 120.179 39.6549C120.207 37.4838 120.318 35.0195 120.448 32.6193C120.577 30.21 120.716 27.8648 120.762 25.9593C120.817 24.0539 120.781 22.579 120.707 21.3789C120.633 20.1788 120.512 19.2627 120.401 18.6123C120.3 17.9619 120.207 17.5771 120.17 17.3481C120.133 17.1191 120.152 17.0458 120.226 16.9816C120.3 16.9267 120.438 16.89 120.984 16.6427C121.53 16.3953 122.491 15.9465 123.508 15.4243C124.535 14.9021 125.617 14.3158 126.81 13.5829C128.003 12.8501 129.297 11.9706 130.536 11.1187C131.776 10.2667 132.969 9.44221 134.115 8.64521C135.262 7.83905 136.372 7.06037 137.389 6.38247C138.406 5.70456 139.331 5.13658 139.923 4.78847C140.366 4.5228 140.625 4.38539 140.792 4.2663C140.958 4.38539 141.217 4.5228 141.661 4.78847C142.253 5.13658 143.178 5.70456 144.195 6.38247C145.212 7.06037 146.322 7.83905 147.468 8.64521C148.615 9.45137 149.808 10.2759 151.047 11.1187C152.286 11.9706 153.581 12.8501 154.774 13.5829C155.967 14.3158 157.058 14.9021 158.075 15.4243C159.101 15.9465 160.054 16.3953 160.6 16.6427C161.145 16.89 161.284 16.9267 161.358 16.9816C161.432 17.0366 161.45 17.1191 161.413 17.3481C161.376 17.5771 161.293 17.9619 161.182 18.6123C161.08 19.2627 160.96 20.188 160.877 21.3789C160.803 22.579 160.766 24.0447 160.822 25.9593C160.877 27.8648 161.016 30.2192 161.136 32.6193C161.265 35.0286 161.376 37.4838 161.404 39.6549C161.432 41.826 161.367 43.704 161.339 44.7026C161.312 45.7011 161.312 45.8019 161.265 45.921C161.228 46.0309 161.145 46.1592 160.748 46.3607C160.35 46.5714 159.638 46.8646 158.667 47.3318C157.696 47.799 156.457 48.4494 155.144 49.2281C153.831 50.0067 152.453 50.9137 151.195 51.7473C149.937 52.5901 148.8 53.3688 147.533 54.2666C146.266 55.1643 144.888 56.1812 143.723 57.0148C142.567 57.8485 141.633 58.5081 141.069 58.9203C140.949 59.0028 140.847 59.0852 140.755 59.1493H140.82ZM170.235 35.7798C169.431 35.7798 168.774 36.4303 168.774 37.2273C168.774 38.0243 169.431 38.6747 170.235 38.6747C171.04 38.6747 171.696 38.0243 171.696 37.2273C171.696 36.4303 171.04 35.7798 170.235 35.7798ZM167.184 39.7374C166 39.7374 165.048 40.6809 165.048 41.8535C165.048 43.0261 166 43.9697 167.184 43.9697C168.367 43.9697 169.32 43.0261 169.32 41.8535C169.32 40.6809 168.367 39.7374 167.184 39.7374ZM148.375 71.9746C147.163 71.9746 146.192 72.9457 146.192 74.1366C146.192 75.3275 147.172 76.2986 148.375 76.2986C149.577 76.2986 150.557 75.3275 150.557 74.1366C150.557 72.9457 149.577 71.9746 148.375 71.9746ZM152.175 66.4781C152.397 66.3223 152.86 66.0384 153.451 65.7269C154.043 65.4154 154.764 65.0765 155.347 64.8658C155.93 64.6551 156.374 64.5726 156.808 64.5818C157.243 64.5818 157.677 64.6642 157.983 64.8474C158.288 65.0215 158.463 65.2963 158.519 65.6261C158.574 65.9559 158.5 66.3315 158.288 66.6613C158.075 66.9911 157.724 67.2659 157.243 67.4216C156.762 67.5774 156.152 67.6232 155.467 67.5591C154.783 67.4858 154.025 67.3026 153.461 67.156C152.887 67.0002 152.508 66.8811 152.295 66.7987C152.083 66.7254 152.046 66.7071 152.009 66.6796C151.972 66.6613 151.944 66.643 152.166 66.4872L152.175 66.4781ZM160.341 48.2753C159.61 48.596 158.149 49.3014 156.521 50.2633C154.894 51.2343 153.091 52.471 151.62 53.4604C150.141 54.459 148.985 55.2101 148.208 55.7232C147.422 56.2453 147.015 56.5202 147.024 56.74C147.034 56.9507 147.478 57.0973 148.365 57.2072C149.244 57.3172 150.575 57.4088 151.593 57.4362C152.61 57.4637 153.322 57.4362 154.182 57.2072C155.042 56.9874 156.05 56.566 156.901 55.9797C157.751 55.3934 158.454 54.633 159.018 53.891C159.582 53.1489 160.008 52.4161 160.304 51.6191C160.6 50.8221 160.766 49.9518 160.877 49.393C160.979 48.825 161.034 48.5685 161.062 48.3944C161.09 48.2295 161.108 48.1471 161.108 48.083C161.108 48.0097 161.099 47.9455 160.368 48.2662L160.341 48.2753ZM176.357 8.11388C175.488 8.25129 173.777 8.5078 172.168 8.96585C170.568 9.42389 169.07 10.0926 167.84 10.8896C166.61 11.6866 165.63 12.6119 165.011 13.4089C164.382 14.2059 164.104 14.8746 163.966 15.2594C163.827 15.635 163.827 15.7266 164.169 15.7724C164.511 15.8274 165.205 15.8365 166.009 15.8182C166.814 15.7907 167.729 15.7266 168.765 15.3876C169.81 15.0487 170.975 14.4349 172.002 13.7204C173.028 13.0058 173.907 12.1996 174.665 11.3935C175.423 10.5873 176.052 9.78117 176.468 9.24983C176.884 8.7185 177.069 8.462 177.189 8.30626C177.31 8.15052 177.347 8.0864 177.365 8.04975C177.374 8.00395 177.365 7.98563 177.337 7.96731C177.319 7.95814 177.282 7.95814 177.263 7.96731C177.236 7.96731 177.217 7.98563 176.348 8.12304L176.357 8.11388ZM111.404 35.789C112.208 35.789 112.865 36.4394 112.865 37.2364C112.865 38.0334 112.208 38.6839 111.404 38.6839C110.599 38.6839 109.943 38.0334 109.943 37.2364C109.943 36.4394 110.599 35.789 111.404 35.789ZM114.455 39.7465C115.639 39.7465 116.591 40.6901 116.591 41.8627C116.591 43.0353 115.639 43.9789 114.455 43.9789C113.272 43.9789 112.319 43.0353 112.319 41.8627C112.319 40.6901 113.272 39.7465 114.455 39.7465ZM133.264 71.9838C134.476 71.9838 135.447 72.9548 135.447 74.1458C135.447 75.3367 134.467 76.3077 133.264 76.3077C132.062 76.3077 131.082 75.3367 131.082 74.1458C131.082 72.9548 132.062 71.9838 133.264 71.9838ZM129.464 66.4872C129.242 66.3315 128.779 66.0475 128.188 65.736C127.596 65.4246 126.875 65.0856 126.283 64.8749C125.7 64.6642 125.256 64.5818 124.822 64.5909C124.387 64.5909 123.952 64.6734 123.647 64.8566C123.342 65.0306 123.166 65.3055 123.111 65.6353C123.055 65.9651 123.129 66.3407 123.342 66.6704C123.555 67.0002 123.906 67.2751 124.387 67.4308C124.868 67.5865 125.478 67.6323 126.162 67.5682C126.847 67.4949 127.605 67.3117 128.169 67.1651C128.742 67.0094 129.122 66.8903 129.334 66.8079C129.547 66.7346 129.584 66.7163 129.621 66.6888C129.658 66.6704 129.686 66.6521 129.464 66.4964V66.4872ZM121.298 48.2845C122.029 48.6051 123.49 49.3105 125.118 50.2724C126.745 51.2435 128.548 52.4802 130.019 53.4696C131.498 54.4681 132.654 55.2193 133.431 55.7323C134.217 56.2545 134.624 56.5293 134.615 56.7492C134.605 56.9599 134.161 57.1065 133.274 57.2164C132.395 57.3263 131.064 57.4179 130.046 57.4454C129.029 57.4729 128.317 57.4454 127.457 57.2164C126.597 56.9965 125.589 56.5751 124.738 55.9888C123.888 55.4025 123.185 54.6422 122.621 53.9001C122.057 53.1581 121.631 52.4252 121.335 51.6282C121.039 50.8312 120.873 49.9609 120.771 49.4021C120.66 48.8341 120.614 48.5776 120.586 48.4036C120.559 48.2387 120.54 48.1562 120.54 48.0921C120.54 48.0188 120.549 47.9547 121.289 48.2753L121.298 48.2845ZM105.282 8.10472C106.151 8.24213 107.871 8.49864 109.471 8.95668C111.071 9.41473 112.569 10.0835 113.799 10.8805C115.029 11.6775 116.009 12.6027 116.628 13.3997C117.257 14.1967 117.535 14.8655 117.673 15.2502C117.812 15.6258 117.812 15.7174 117.47 15.7632C117.128 15.8182 116.434 15.8274 115.63 15.809C114.825 15.7816 113.91 15.7174 112.874 15.3785C111.829 15.0395 110.664 14.4258 109.637 13.7112C108.611 12.9966 107.733 12.1905 106.974 11.3843C106.216 10.5782 105.587 9.77201 105.171 9.24067C104.755 8.70934 104.57 8.45283 104.45 8.2971C104.329 8.14136 104.292 8.07724 104.274 8.04059C104.265 7.99479 104.274 7.97647 104.302 7.95814C104.32 7.94898 104.357 7.94898 104.376 7.95814C104.403 7.95814 104.422 7.97647 105.291 8.11388L105.282 8.10472Z" fill="#4A505A"/>
<path fill-rule="evenodd" clip-rule="evenodd" d="M102.795 108.875C111.376 108.875 115.158 103.754 115.158 95.5641C115.158 87.3742 111.746 80.6868 102.452 80.6868C93.8524 80.6868 90.0055 85.7711 90.0055 93.9976C90.0055 102.224 93.464 108.875 102.795 108.875ZM182.932 108.875C191.514 108.875 195.296 103.754 195.296 95.5641C195.296 87.3742 191.883 80.6868 182.59 80.6868C173.99 80.6868 170.143 85.7711 170.143 93.9976C170.143 102.224 173.601 108.875 182.932 108.875ZM211.247 81.0715C211.516 81.7403 211.617 82.4823 211.617 83.1877V96.6634H213.541C218.821 96.6634 221.928 94.2541 221.928 88.8675C221.928 83.4808 218.83 81.0715 213.541 81.0715H211.247ZM238.24 95.7839V107.015C238.24 107.556 238.185 108.069 238.009 108.536H240.201C244.612 108.536 248.283 107.052 248.283 102.178C248.283 97.3047 244.621 95.7839 240.201 95.7839H238.24ZM124.933 82.1067V81.2364C124.933 81.154 124.933 80.8975 124.877 80.815C124.748 80.6135 123.509 80.5951 123.305 80.5951H120.688V78.763H128.807L141.208 103.461C141.245 103.543 141.3 103.644 141.347 103.745C141.393 103.635 141.439 103.543 141.476 103.461L153.877 78.763H162.125V80.5951H159.814C159.444 80.5951 158.26 80.6043 158.02 80.9799C157.899 81.1631 157.899 81.5296 157.899 81.7311C157.899 82.1067 157.936 82.4823 157.946 82.8579L159.055 106.548C159.129 108.582 159.203 108.857 161.321 108.857H163.078V110.689H149.336V108.857H151.778C152.148 108.857 153.664 108.847 153.886 108.426C153.951 108.298 153.96 108.078 153.96 107.931V107.226L153.054 85.6337L140.681 110.441L140.366 111.156H139.275L138.961 110.441L127.041 86.6505L125.941 107.143C125.941 107.482 125.894 107.812 125.894 108.142C125.894 108.252 125.894 108.463 125.95 108.554C126.144 108.893 127.846 108.902 128.16 108.902H130.564V110.735H120.032V108.866H121.53C121.964 108.866 122.898 108.866 123.24 108.527C123.61 108.16 123.675 107.006 123.712 106.548L124.951 82.1067H124.933ZM264.558 95.1427V107.006C264.558 107.547 264.429 108.06 264.207 108.527H272.169C275.988 108.527 278.106 107.418 278.457 103.461L278.818 99.4117H281L280.075 112.429L278.235 112.228L278.337 110.68C277.995 110.735 277.653 110.744 277.338 110.744H255.292V108.912H257.651C257.9 108.912 259.093 108.921 259.287 108.728C259.454 108.554 259.445 107.611 259.445 107.391V82.1617C259.445 81.9418 259.445 80.9891 259.287 80.8242C259.102 80.6318 257.909 80.641 257.651 80.641H255.292V78.8088H274.814C275.11 78.8088 275.452 78.8179 275.785 78.8729L275.646 77.3155L277.542 77.1323L278.513 90.1408H276.182L275.97 86.4856C275.72 82.235 273.491 81.0257 269.422 81.0257H264.198C264.42 81.4929 264.549 82.0151 264.549 82.5464V92.9257H265.705C268.59 92.9257 270.07 92.3303 270.07 89.1606V86.9528H271.956V102.013H270.07V98.9536C270.07 95.7748 268.59 95.1427 265.705 95.1427H264.549H264.558ZM30.0549 78.8179H40.6339V80.6501H38.2018C38.4238 80.9982 38.5995 81.3647 38.7659 81.6853L45.5257 95.5824C45.5535 95.6374 45.5812 95.6923 45.5997 95.7473L51.4625 82.2808C51.5735 81.9785 51.7122 81.557 51.7122 81.2364C51.7122 81.1723 51.7122 81.0898 51.6752 81.0257C51.518 80.6684 50.4268 80.641 50.1309 80.641H47.255V78.8088H68.4591V80.641H67.3032C67.0536 80.641 65.8606 80.6318 65.6665 80.8242C65.5 80.9982 65.5092 81.9418 65.5092 82.1617V90.9745C66.1843 90.9561 67.0536 90.892 67.2662 90.6355L74.7011 82.2075C74.9045 81.9601 75.3392 81.3922 75.3392 81.0624C75.3392 80.6959 73.8503 80.641 73.6284 80.641H72.4725V78.8088H84.3368V80.641H83.0052C80.6564 80.641 78.2336 81.5387 76.6708 83.3159L69.8555 91.0752C74.5069 92.3578 76.9667 95.3992 77.9469 100.209C78.2983 101.913 78.437 103.635 78.7422 105.339C78.9086 106.264 79.2046 107.702 79.9906 108.334C80.379 108.646 80.8506 108.747 81.3407 108.747C81.951 108.747 82.6631 108.371 83.1439 108.032L84.2906 107.226L85.502 108.628L84.2721 109.498C83.0422 110.478 81.5904 111.211 79.9813 111.211C74.1833 111.211 73.6654 105.238 72.7592 100.923C71.8344 96.526 70.5305 92.8708 65.352 92.8067V107.006C65.352 107.308 65.3428 108.481 65.574 108.71C65.8052 108.93 66.8871 108.912 67.183 108.912H69.5411V110.744H55.8088L56.4284 108.912H58.62C58.8881 108.912 59.9516 108.921 60.155 108.719C60.3862 108.499 60.3677 107.29 60.3677 107.006V82.1617C60.3677 81.9418 60.3677 80.9891 60.2105 80.815C60.0256 80.6318 58.8697 80.641 58.62 80.641H56.2157V80.5951H55.781C55.4666 80.5951 55.0782 80.6226 54.8286 80.815C54.3939 81.1356 53.9686 82.3266 53.7559 82.8304L43.7872 105.476C42.5481 108.298 40.1438 111.083 36.787 111.083C34.4012 111.083 33.6614 109.058 33.6614 107.006V106.136L34.5306 106.301C35.2519 106.438 36.2876 106.585 37.0089 106.585C39.6259 106.585 41.087 105.907 42.1689 103.562L42.5481 102.774C42.6498 102.526 42.696 102.233 42.696 101.968C42.696 101.638 42.6036 101.335 42.4464 101.042V101.024L33.6891 82.8487C33.4672 82.3632 32.9771 81.154 32.524 80.8425C32.2558 80.6593 31.8397 80.641 31.5253 80.641H28.3904C26.6149 80.641 26.6427 80.8608 26.6427 82.5464V107.006C26.6427 108.692 26.6242 108.912 28.3904 108.912H30.7947V110.744H17.7375V108.912H19.7534C21.5011 108.912 21.5011 108.673 21.5011 107.006V81.0166H11.9024V90.6355C11.9024 95.3259 11.3013 100.264 9.68303 104.688C8.7398 107.253 7.14001 110.432 4.89291 112.118L4.37506 112.512L0.629883 108.628L1.2587 108.133C6.26151 104.221 9.23916 97.9551 9.23916 91.6524V83.0411C9.23916 82.6197 9.2669 81.2731 8.934 80.9433C8.5641 80.5768 6.77937 80.6226 6.28926 80.6226H4.53226V78.7904H30.0549V78.8179ZM238.231 93.6128H241.098C245.49 93.6128 251.261 94.8953 253.221 99.3201C253.619 100.227 253.813 101.189 253.813 102.178C253.813 103.168 253.619 104.13 253.221 105.036C251.27 109.461 245.49 110.744 241.098 110.744H228.984V108.875H231.342C231.592 108.875 232.784 108.884 232.979 108.692C233.145 108.518 233.136 107.574 233.136 107.354V82.125C233.136 81.9143 233.136 80.9708 232.988 80.815C232.812 80.6318 231.592 80.6501 231.351 80.6501H228.993V78.8179H242.439V80.6501H240.081C239.803 80.6501 238.638 80.641 238.425 80.8517C238.24 81.044 238.24 81.9693 238.24 82.2075V93.6128H238.231ZM211.608 98.8803V107.4C211.608 107.629 211.608 108.554 211.784 108.728C211.987 108.93 213.18 108.921 213.448 108.921H215.335V110.753H202.361V108.921H204.719C204.968 108.921 206.161 108.93 206.356 108.737C206.522 108.563 206.513 107.62 206.513 107.4V82.1708C206.513 81.951 206.513 80.9982 206.356 80.8333C206.171 80.641 204.978 80.6501 204.719 80.6501H202.361V78.8179H214.946C219.182 78.8179 223.796 80.1738 226.136 83.948C227.06 85.4413 227.486 87.1269 227.486 88.8766C227.486 90.6264 227.07 92.2295 226.182 93.6861C223.861 97.5062 219.209 98.8803 214.937 98.8803H211.599H211.608ZM182.756 111.092C172.714 111.092 164.567 105.275 164.567 94.7671C164.567 84.2595 172.751 78.479 182.756 78.479C192.762 78.479 200.863 84.3236 200.863 94.7671C200.863 105.211 192.808 111.092 182.756 111.092ZM102.628 111.092C92.5855 111.092 84.4386 105.275 84.4386 94.7671C84.4386 84.2595 92.6225 78.479 102.628 78.479C112.634 78.479 120.734 84.3236 120.734 94.7671C120.734 105.211 112.68 111.092 102.628 111.092Z" fill="#4A505A"/>
<path d="M97.7838 123.642H2.99854V124.796H97.7838V123.642Z" fill="#4A505A"/>
<path fill-rule="evenodd" clip-rule="evenodd" d="M103.949 122.039C104.707 120.765 106.067 120.188 107.435 120.188C109.775 120.188 111.467 121.892 111.717 124.027H105.734V124.943H111.717C111.495 127.288 109.562 128.854 107.371 128.854C106.141 128.854 104.726 128.25 103.912 126.949H102.691C103.644 128.717 105.364 129.771 107.371 129.771C110.385 129.771 112.771 127.59 112.771 124.494C112.771 122.139 111.051 119.272 107.454 119.272C105.308 119.272 103.588 120.289 102.738 122.039H103.958H103.949ZM114.371 119.446V129.596H115.397V119.446H114.371ZM116.1 124.393L120.16 129.587H121.436L117.321 124.283L121.269 119.446H120.049L116.1 124.393ZM126.827 119.263C123.785 119.263 121.399 121.498 121.399 124.54C121.399 127.581 123.803 129.761 126.827 129.761C129.851 129.761 132.255 127.499 132.255 124.457C132.255 121.416 129.888 119.263 126.827 119.263ZM126.836 128.845C124.376 128.845 122.425 127.086 122.425 124.54C122.425 121.993 124.339 120.179 126.836 120.179C129.333 120.179 131.229 121.938 131.229 124.457C131.229 126.976 129.333 128.845 126.836 128.845ZM133.263 125.007V125.923H137.027V125.007H133.263ZM143.454 119.263C140.411 119.263 138.026 121.498 138.026 124.54C138.026 127.581 140.43 129.761 143.454 129.761C146.478 129.761 148.882 127.499 148.882 124.457C148.882 121.416 146.515 119.263 143.454 119.263ZM143.472 128.845C141.012 128.845 139.052 127.086 139.052 124.54C139.052 121.993 140.966 120.179 143.472 120.179C145.978 120.179 147.865 121.938 147.865 124.457C147.865 126.976 145.969 128.845 143.472 128.845ZM151.915 129.587H152.941V120.362H155.281V119.446H149.575V120.362H151.915V129.587ZM156.4 129.587H162.022V128.671H157.426V124.943H161.865V124.027H157.426V120.362H162.022V119.446H156.4V129.596V129.587ZM168.135 119.437H167.164L162.91 129.587H164.029L167.645 120.72L171.233 129.587H172.352L168.126 119.437H168.135ZM173.508 119.437V129.587H176.883C178.825 129.587 180.138 128.378 180.138 126.61C180.138 124.842 178.963 123.633 176.883 123.633H174.534V119.437H173.508ZM174.534 124.549H176.901C178.686 124.549 179.121 125.822 179.121 126.61C179.121 127.398 178.695 128.671 176.901 128.671H174.534V124.558V124.549Z" fill="#4A505A"/>
<path d="M279.826 123.642H185.041V124.796H279.826V123.642Z" fill="#4A505A"/>
</svg>
