<svg width="32" height="24" viewBox="0 0 32 24" fill="none" xmlns="http://www.w3.org/2000/svg">
<path d="M5.79969 23.9473V22.3545C5.79969 21.7453 5.41538 21.3463 4.75566 21.3463C4.42579 21.3463 4.0671 21.4514 3.82051 21.7978C3.62835 21.5071 3.35293 21.3463 2.9398 21.3463C2.66438 21.3463 2.38896 21.4267 2.17119 21.7174V21.3989H1.59473V23.9473H2.17119V22.5401C2.17119 22.0886 2.41779 21.8752 2.80209 21.8752C3.1864 21.8752 3.37855 22.1133 3.37855 22.5401V23.9473H3.95501V22.5401C3.95501 22.0886 4.23043 21.8752 4.58592 21.8752C4.97023 21.8752 5.16238 22.1133 5.16238 22.5401V23.9473H5.79969ZM14.3505 21.3989H13.4154V20.6288H12.8389V21.3989H12.3169V21.903H12.8389V23.0721C12.8389 23.6566 13.0855 23.9999 13.7452 23.9999C13.9918 23.9999 14.2673 23.9195 14.4594 23.8143L14.2929 23.335C14.1264 23.4401 13.9342 23.4679 13.7965 23.4679C13.5211 23.4679 13.4122 23.3071 13.4122 23.0442V21.903H14.3473V21.3989H14.3505ZM19.244 21.3432C18.9142 21.3432 18.6932 21.504 18.5555 21.7143V21.3958H17.979V23.9442H18.5555V22.5092C18.5555 22.0855 18.7476 21.8442 19.1063 21.8442C19.2152 21.8442 19.3529 21.8721 19.465 21.8968L19.6316 21.3649C19.5163 21.3432 19.3529 21.3432 19.244 21.3432ZM11.8493 21.6092C11.5739 21.4236 11.1896 21.3432 10.7765 21.3432C10.1167 21.3432 9.67799 21.6618 9.67799 22.1659C9.67799 22.5896 10.0079 22.8308 10.5843 22.9082L10.8597 22.936C11.1608 22.9886 11.3273 23.069 11.3273 23.202C11.3273 23.3875 11.1063 23.5205 10.722 23.5205C10.3377 23.5205 10.0335 23.3875 9.84132 23.2545L9.5659 23.6783C9.86694 23.8917 10.2801 23.9968 10.6932 23.9968C11.4618 23.9968 11.9038 23.6504 11.9038 23.1741C11.9038 22.7226 11.5451 22.4844 10.9974 22.404L10.722 22.3762C10.4754 22.3484 10.2833 22.2958 10.2833 22.138C10.2833 21.9525 10.4754 21.8473 10.7797 21.8473C11.1095 21.8473 11.4394 21.9803 11.6059 22.0607L11.8493 21.6092ZM27.1864 21.3432C26.8565 21.3432 26.6356 21.504 26.4979 21.7143V21.3958H25.9214V23.9442H26.4979V22.5092C26.4979 22.0855 26.69 21.8442 27.0487 21.8442C27.1576 21.8442 27.2953 21.8721 27.4074 21.8968L27.5739 21.371C27.4618 21.3432 27.2985 21.3432 27.1864 21.3432ZM19.8205 22.6731C19.8205 23.4432 20.3713 23.9999 21.2232 23.9999C21.6075 23.9999 21.883 23.9195 22.1584 23.7092L21.883 23.2576C21.662 23.4185 21.4442 23.4958 21.1944 23.4958C20.7268 23.4958 20.397 23.1772 20.397 22.6731C20.397 22.1937 20.7268 21.8752 21.1944 21.8504C21.441 21.8504 21.662 21.9308 21.883 22.0886L22.1584 21.637C21.883 21.4236 21.6075 21.3463 21.2232 21.3463C20.3713 21.3432 19.8205 21.903 19.8205 22.6731ZM25.1528 22.6731V21.3989H24.5763V21.7174C24.3842 21.4793 24.1087 21.3463 23.75 21.3463C23.0071 21.3463 22.4306 21.903 22.4306 22.6731C22.4306 23.4432 23.0071 23.9999 23.75 23.9999C24.1344 23.9999 24.4098 23.8669 24.5763 23.6288V23.9473H25.1528V22.6731ZM23.0359 22.6731C23.0359 22.2216 23.3369 21.8504 23.8333 21.8504C24.3009 21.8504 24.6308 22.1968 24.6308 22.6731C24.6308 23.1246 24.3009 23.4958 23.8333 23.4958C23.3401 23.4679 23.0359 23.1216 23.0359 22.6731ZM16.1376 21.3432C15.3689 21.3432 14.8181 21.8752 14.8181 22.67C14.8181 23.4679 15.3689 23.9968 16.1664 23.9968C16.5507 23.9968 16.935 23.8917 17.2392 23.6504L16.9638 23.2514C16.7428 23.4123 16.4674 23.5174 16.1952 23.5174C15.8365 23.5174 15.481 23.3566 15.3978 22.9082H17.3481C17.3481 22.8277 17.3481 22.7752 17.3481 22.6947C17.3738 21.8752 16.8774 21.3432 16.1376 21.3432ZM16.1376 21.8226C16.4962 21.8226 16.7428 22.036 16.7973 22.4319H15.4234C15.4778 22.0886 15.7244 21.8226 16.1376 21.8226ZM30.4594 22.6731V20.3906H29.883V21.7174C29.6908 21.4793 29.4154 21.3463 29.0567 21.3463C28.3137 21.3463 27.7372 21.903 27.7372 22.6731C27.7372 23.4432 28.3137 23.9999 29.0567 23.9999C29.441 23.9999 29.7164 23.8669 29.883 23.6288V23.9473H30.4594V22.6731ZM28.3425 22.6731C28.3425 22.2216 28.6436 21.8504 29.14 21.8504C29.6075 21.8504 29.9374 22.1968 29.9374 22.6731C29.9374 23.1246 29.6075 23.4958 29.14 23.4958C28.6436 23.4679 28.3425 23.1216 28.3425 22.6731ZM9.04389 22.6731V21.3989H8.46742V21.7174C8.27527 21.4793 7.99985 21.3463 7.64116 21.3463C6.89817 21.3463 6.32171 21.903 6.32171 22.6731C6.32171 23.4432 6.89817 23.9999 7.64116 23.9999C8.02547 23.9999 8.30089 23.8669 8.46742 23.6288V23.9473H9.04389V22.6731ZM6.90137 22.6731C6.90137 22.2216 7.20241 21.8504 7.69881 21.8504C8.16638 21.8504 8.49625 22.1968 8.49625 22.6731C8.49625 23.1246 8.16638 23.4958 7.69881 23.4958C7.20241 23.4679 6.90137 23.1216 6.90137 22.6731Z" fill="#7E7E7E"/>
<path d="M20.317 2.04443H11.6572V17.0692H20.317V2.04443Z" fill="#ABABAB"/>
<path d="M12.2338 9.5567C12.2338 6.50412 13.7198 3.79485 16 2.04433C14.3219 0.770103 12.205 0 9.89592 0C4.42594 0 0 4.27423 0 9.5567C0 14.8392 4.42594 19.1134 9.89592 19.1134C12.205 19.1134 14.3219 18.3433 16 17.0691C13.7166 15.3433 12.2338 12.6093 12.2338 9.5567Z" fill="#707070"/>
<path d="M32 9.5567C32 14.8392 27.5741 19.1134 22.1041 19.1134C19.795 19.1134 17.6781 18.3433 16 17.0691C18.309 15.3155 19.7662 12.6093 19.7662 9.5567C19.7662 6.50412 18.2802 3.79485 16 2.04433C17.6749 0.770103 19.7918 0 22.1009 0C27.5741 0 32 4.30206 32 9.5567Z" fill="#F9F9F9"/>
</svg>
