<svg width="84" height="24" viewBox="0 0 84 24" fill="none" xmlns="http://www.w3.org/2000/svg">
<path fill-rule="evenodd" clip-rule="evenodd" d="M74.5713 0H58.6284C59.4856 5.31429 64.6284 10.2857 70.2856 10.2857H82.9713C83.1427 9.77143 83.1427 9.08571 83.1427 8.57143C83.1427 3.77143 79.3713 0 74.5713 0Z" fill="#ABABAB"/>
<path fill-rule="evenodd" clip-rule="evenodd" d="M60 11.1431V24.0002H67.7143V17.1431H74.5714C78.3429 17.1431 81.6 14.5716 82.6286 11.1431H60Z" fill="#707070"/>
<path fill-rule="evenodd" clip-rule="evenodd" d="M32.5713 0V24H39.4284C39.4284 24 41.1427 24 41.9999 22.2857C46.6284 13.0286 47.9999 10.2857 47.9999 10.2857H48.857V24H56.5713V0H49.7141C49.7141 0 47.9999 0.171429 47.1427 1.71429C43.1999 9.6 41.1427 13.7143 41.1427 13.7143H40.2856V0H32.5713Z" fill="#707070"/>
<path fill-rule="evenodd" clip-rule="evenodd" d="M0 24V0H7.71429C7.71429 0 9.94286 0 11.1429 3.42857C14.2286 12.5143 14.5714 13.7143 14.5714 13.7143C14.5714 13.7143 15.2571 11.4857 18 3.42857C19.2 0 21.4286 0 21.4286 0H29.1429V24H21.4286V11.1429H20.5714L16.2857 24H12.8571L8.57143 11.1429H7.71429V24H0Z" fill="#707070"/>
</svg>
