<svg width="153" height="25" viewBox="0 0 153 25" fill="none" xmlns="http://www.w3.org/2000/svg">
<path fill-rule="evenodd" clip-rule="evenodd" d="M13.8967 6.69522L11.97 3.353L13.9075 0L15.8396 3.34222L13.9129 6.68445L13.9021 6.70061L13.8967 6.69522Z" fill="#0072BC"/>
<path fill-rule="evenodd" clip-rule="evenodd" d="M14.1547 20.7638L12.2441 24.0953H0L11.4206 4.31104L13.3528 7.64787L5.78027 20.7638H14.1547Z" fill="#0072BC"/>
<path fill-rule="evenodd" clip-rule="evenodd" d="M15.2468 20.7638H22.0443L14.4664 7.63707L16.3932 4.3056L27.8246 24.0952H13.3254L15.2468 20.7638Z" fill="#0072BC"/>
<path fill-rule="evenodd" clip-rule="evenodd" d="M20.3869 19.8112H7.43237L13.9069 8.6059L20.3869 19.8112Z" fill="#0072BC"/>
<path fill-rule="evenodd" clip-rule="evenodd" d="M13.9121 6.68435L13.9015 6.70022L13.8962 6.69493L13.9068 6.67908L13.9121 6.68435Z" fill="#0072BC"/>
<path d="M33.1489 20.1988C32.6268 20.1988 32.164 20.1342 31.7603 19.9996C31.3567 19.8651 31.0284 19.6821 30.7647 19.4507C30.5009 19.2138 30.291 18.9232 30.1242 18.5788C29.9573 18.2343 29.8443 17.8576 29.7797 17.4593C29.7151 17.061 29.6829 16.609 29.6829 16.1138V11.8728C29.6829 11.3454 29.7152 10.8771 29.7851 10.4681C29.8551 10.0591 29.9681 9.68231 30.1296 9.33248C30.291 8.98265 30.5009 8.6974 30.7647 8.47135C31.0284 8.24531 31.3567 8.06771 31.7549 7.94393C32.1532 7.81476 32.6161 7.75555 33.1435 7.75555C33.7517 7.75555 34.2683 7.83627 34.6989 7.99773C35.1295 8.1592 35.4685 8.39601 35.7215 8.70816C35.969 9.02032 36.152 9.3863 36.2651 9.8061C36.3781 10.2259 36.4319 10.7103 36.4319 11.27V12.3141H34.2952V11.2808C34.2952 10.6726 34.263 10.2636 34.1984 10.0537C34.0692 9.64463 33.7624 9.42398 33.2673 9.39169C33.2296 9.39169 33.1866 9.39169 33.1489 9.39169C32.9605 9.39169 32.799 9.41322 32.6591 9.45627C32.5192 9.49933 32.4062 9.56929 32.32 9.66616C32.2339 9.76304 32.1586 9.8653 32.1048 9.97294C32.0509 10.0806 32.0133 10.2205 31.9864 10.3927C31.9595 10.565 31.9433 10.7264 31.9325 10.8717C31.9272 11.0171 31.9218 11.2054 31.9218 11.4315V16.5874C31.9218 17.3032 32.0133 17.8091 32.1909 18.1159C32.3685 18.4173 32.686 18.5734 33.1489 18.5734C33.305 18.5734 33.4449 18.5572 33.5633 18.5196C33.6817 18.4819 33.784 18.4388 33.8647 18.3796C33.9454 18.3258 34.0154 18.2451 34.0692 18.1375C34.123 18.0298 34.1661 17.9329 34.1984 17.8414C34.2253 17.7499 34.2522 17.6262 34.263 17.4647C34.2737 17.3032 34.2845 17.1687 34.2899 17.0557C34.2899 16.9426 34.2952 16.7866 34.2952 16.5928V15.5056H36.4319V16.5013C36.4319 16.9588 36.3996 17.3678 36.335 17.7284C36.2705 18.089 36.1628 18.4281 36.0067 18.751C35.8506 19.0739 35.6515 19.3323 35.4093 19.5422C35.1671 19.7521 34.8496 19.9189 34.4675 20.0373C34.0961 20.1396 33.6548 20.1988 33.1489 20.1988Z" fill="#0072BC"/>
<path d="M37.9711 20.0534V7.8847H43.0678V9.45087H40.1885V12.9438H42.4651V14.51H40.1885V18.5249H43.1001V20.0588H37.9711V20.0534Z" fill="#0072BC"/>
<path d="M44.4021 20.0534V7.8847H47.3837C47.9488 7.8847 48.4386 7.93314 48.8584 8.0354C49.2782 8.13766 49.6549 8.3045 49.9779 8.53592C50.3008 8.76735 50.5484 9.09027 50.7098 9.49931C50.8713 9.90834 50.952 10.4089 50.9466 10.9901C50.9412 12.4917 50.3492 13.3313 49.1652 13.5089C50.5914 13.778 51.3018 14.7844 51.3072 16.5282C51.3126 17.6853 51.022 18.5626 50.4407 19.16C49.8595 19.7574 49.0091 20.0588 47.895 20.0588H44.4021V20.0534ZM46.6195 12.8469H47.3084C47.965 12.8469 48.4117 12.707 48.6593 12.4271C48.9015 12.1473 49.0252 11.679 49.0252 11.017C49.0252 10.6726 48.9876 10.3981 48.9068 10.1828C48.8261 9.96754 48.6916 9.81147 48.4978 9.70383C48.3094 9.59619 48.0942 9.52622 47.8627 9.48855C47.6313 9.45626 47.3192 9.43473 46.9317 9.43473H46.6141V12.8469H46.6195ZM46.6195 18.4873H47.4322C48.0995 18.4873 48.557 18.3312 48.81 18.0244C49.0629 17.7176 49.1867 17.2063 49.1867 16.4959C49.1867 15.764 49.0414 15.2311 48.7561 14.8975C48.4709 14.5692 47.9865 14.4023 47.3138 14.4023H46.6141V18.4873H46.6195Z" fill="#0072BC"/>
<path d="M52.734 20.0534V7.8847H57.8308V9.45087H54.9514V12.9438H57.228V14.51H54.9514V18.5249H57.8631V20.0588H52.734V20.0534Z" fill="#0072BC"/>
<path d="M59.1443 20.0534V7.8847H62.648C64.7201 7.8847 65.7588 9.03646 65.7588 11.34C65.7588 12.4702 65.4735 13.299 64.9084 13.8264C64.3433 14.3539 63.5414 14.6176 62.508 14.6176H61.3617V20.0588H59.1443V20.0534ZM61.3617 13.0568H62.0721C62.6964 13.0568 63.1216 12.933 63.3423 12.6855C63.5629 12.4379 63.6706 11.9858 63.6706 11.3238C63.6706 10.9471 63.6544 10.6564 63.6275 10.4519C63.6006 10.2474 63.5306 10.059 63.423 9.8922C63.3154 9.72536 63.1539 9.60696 62.944 9.54237C62.7341 9.47779 62.4435 9.44548 62.0829 9.44548H61.3617V13.0568Z" fill="#0072BC"/>
<path d="M66.9429 20.0534V7.8847H69.1603V12.9707H71.636V7.8847H73.8534V20.0534H71.636V14.5476H69.1603V20.0534H66.9429Z" fill="#0072BC"/>
<path d="M75.7092 20.0534V7.8847H77.9266V12.9815H78.3572C79.0138 12.9815 79.5681 13.0407 80.031 13.1537C80.4885 13.2667 80.8867 13.4605 81.2204 13.7296C81.5541 13.9987 81.8017 14.3593 81.9577 14.8167C82.1138 15.2742 82.1945 15.8339 82.1945 16.4959C82.1945 17.1687 82.1084 17.7445 81.9362 18.2074C81.764 18.6756 81.5057 19.0416 81.1558 19.3107C80.806 19.5798 80.4023 19.7682 79.9449 19.8812C79.482 19.9942 78.9384 20.0534 78.298 20.0534H75.7092ZM77.9266 18.5411H78.3141C78.6478 18.5411 78.9223 18.5142 79.1376 18.455C79.3582 18.3958 79.5412 18.2935 79.6973 18.1374C79.8534 17.9867 79.9664 17.7715 80.0364 17.5024C80.1063 17.2333 80.1386 16.8834 80.1332 16.4636C80.1278 15.7801 79.9933 15.285 79.7242 14.9836C79.4551 14.6822 78.9761 14.5261 78.2872 14.5261H77.9266V18.5411ZM83.3248 20.0534V7.8847H85.5422V20.0534H83.3248Z" fill="#0072BC"/>
<path d="M87.4049 20.0535V7.88472H89.2456V15.4895L92.5501 7.88472H94.0625V20.0535H92.2003V12.3033L88.8903 20.0535H87.4049ZM90.731 6.84599C89.999 6.84599 89.4555 6.65762 89.1056 6.2755C88.7558 5.89338 88.5836 5.3767 88.5836 4.72009H89.6169C89.6169 5.12374 89.7084 5.41437 89.886 5.59198C90.069 5.77496 90.3489 5.86108 90.731 5.86108C91.1131 5.86108 91.393 5.76958 91.576 5.59198C91.759 5.40899 91.8451 5.11836 91.8451 4.72009H92.8892C92.8892 5.3767 92.7116 5.89338 92.3617 6.2755C92.0119 6.65762 91.4683 6.84599 90.731 6.84599Z" fill="#0072BC"/>
<path d="M99.6002 20.0534V7.8847H101.818V13.0084H102.248L104.218 7.8847H106.419L104.137 13.6273L106.602 20.0588H104.358L102.259 14.3916H101.818V20.0588H99.6002V20.0534Z" fill="#0072BC"/>
<path d="M107.571 22.1793V20.6078C108.513 20.6831 109.132 20.5809 109.412 20.301C109.692 20.0212 109.751 19.5153 109.579 18.7725L107.066 7.87933H109.138L110.133 12.9384L110.661 16.5282L111.102 12.9546L111.969 7.88472H114.078L111.775 18.9609C111.613 19.7305 111.473 20.2795 111.36 20.6186C111.247 20.9522 111.043 21.2752 110.747 21.5819C110.451 21.8887 110.063 22.0771 109.579 22.1417C109.095 22.2062 108.427 22.2224 107.571 22.1793Z" fill="#0072BC"/>
<path d="M118.017 20.2203C116.93 20.2203 116.128 19.9189 115.612 19.3161C115.095 18.7133 114.831 17.863 114.831 16.7704V16.3399H116.914C116.914 16.582 116.914 16.7327 116.919 16.8027C116.936 17.3786 117.022 17.8038 117.178 18.0782C117.334 18.3527 117.619 18.4873 118.028 18.4873C118.217 18.4873 118.373 18.455 118.507 18.3958C118.642 18.3366 118.749 18.2505 118.825 18.1482C118.905 18.046 118.965 17.906 119.002 17.7392C119.04 17.5723 119.072 17.3947 119.088 17.2225C119.105 17.0503 119.11 16.835 119.11 16.582C119.11 15.9308 118.986 15.4357 118.733 15.0966C118.48 14.7575 118.028 14.5638 117.377 14.5207C117.318 14.5154 117.146 14.5154 116.855 14.5154V12.9976C117.119 12.9976 117.28 12.9976 117.334 12.9922C118.001 12.9653 118.464 12.7931 118.722 12.481C118.981 12.1688 119.11 11.6952 119.11 11.0547C119.11 10.5273 119.018 10.1236 118.83 9.84915C118.642 9.57467 118.34 9.43474 117.921 9.43474C117.156 9.43474 116.753 9.97832 116.704 11.0655C116.699 11.1247 116.699 11.2969 116.699 11.5875H114.605V11.0224C114.605 9.99447 114.896 9.19255 115.482 8.61668C116.069 8.0408 116.871 7.75555 117.888 7.75555C118.922 7.75555 119.729 8.04079 120.31 8.6059C120.891 9.17102 121.182 9.96755 121.182 10.9955C121.182 11.6844 121.031 12.2657 120.735 12.7393C120.439 13.2129 120.041 13.5197 119.551 13.6596C120.638 14.0364 121.182 15.0051 121.182 16.5659C121.182 17.7284 120.929 18.6272 120.418 19.2731C119.912 19.8974 119.11 20.2203 118.017 20.2203Z" fill="#0072BC"/>
<path d="M122.716 20.0534V7.8847H128.346V9.5316H124.934V12.9815H125.294C125.951 12.9815 126.511 13.0407 126.974 13.1537C127.436 13.2667 127.835 13.4605 128.168 13.7296C128.502 13.9987 128.75 14.3593 128.906 14.8167C129.062 15.2742 129.143 15.8339 129.143 16.4959C129.143 17.0395 129.083 17.5131 128.97 17.9222C128.857 18.3312 128.69 18.6703 128.481 18.9394C128.271 19.2085 127.996 19.4291 127.673 19.5906C127.35 19.7574 126.99 19.8758 126.597 19.9458C126.204 20.0158 125.757 20.0534 125.251 20.0534H122.716ZM124.928 18.5411H125.246C125.58 18.5411 125.854 18.5142 126.075 18.455C126.29 18.3958 126.478 18.2935 126.635 18.1374C126.791 17.9867 126.904 17.7715 126.974 17.5024C127.044 17.2333 127.076 16.8834 127.07 16.4636C127.065 15.7801 126.931 15.285 126.661 14.9836C126.392 14.6822 125.913 14.5261 125.224 14.5261H124.939V18.5411H124.928Z" fill="#0072BC"/>
<path d="M129.917 20.0534L132.393 7.8847H134.707L137.172 20.0534H135.111L134.621 17.2279H132.517L132.016 20.0534H129.917ZM132.743 15.7801H134.374L133.561 10.7802L132.743 15.7801Z" fill="#0072BC"/>
<path d="M141.628 20.1988C141.106 20.1988 140.643 20.1342 140.24 19.9996C139.836 19.8651 139.508 19.6821 139.244 19.4507C138.98 19.2192 138.77 18.9232 138.603 18.5788C138.437 18.2343 138.324 17.8576 138.259 17.4593C138.194 17.061 138.162 16.609 138.162 16.1138V11.8728C138.162 11.3454 138.194 10.8771 138.264 10.4681C138.334 10.0591 138.447 9.68231 138.609 9.33248C138.77 8.98265 138.98 8.6974 139.244 8.47135C139.508 8.24531 139.836 8.06771 140.234 7.94393C140.632 7.81476 141.095 7.75555 141.623 7.75555C142.231 7.75555 142.748 7.83627 143.178 7.99773C143.609 8.1592 143.948 8.39601 144.201 8.70816C144.448 9.02032 144.631 9.3863 144.744 9.8061C144.857 10.2259 144.911 10.7103 144.911 11.27V12.3141H142.774V11.2808C142.774 10.6726 142.742 10.2636 142.678 10.0537C142.548 9.64463 142.242 9.42398 141.747 9.39169C141.709 9.39169 141.666 9.39169 141.628 9.39169C141.44 9.39169 141.278 9.41322 141.138 9.45627C140.998 9.49933 140.885 9.56929 140.799 9.66616C140.713 9.76304 140.638 9.8653 140.584 9.97294C140.53 10.0806 140.493 10.2205 140.466 10.3927C140.439 10.565 140.423 10.7264 140.412 10.8717C140.406 11.0171 140.401 11.2054 140.401 11.4315V16.5874C140.401 17.3032 140.493 17.8091 140.67 18.1159C140.848 18.4173 141.165 18.5734 141.628 18.5734C141.784 18.5734 141.924 18.5572 142.043 18.5196C142.161 18.4819 142.263 18.4388 142.344 18.3796C142.425 18.3204 142.495 18.2451 142.548 18.1375C142.602 18.0298 142.645 17.9329 142.678 17.8414C142.705 17.7499 142.731 17.6262 142.742 17.4647C142.753 17.3032 142.764 17.1687 142.769 17.0557C142.774 16.9426 142.774 16.7866 142.774 16.5928V15.5056H144.911V16.5013C144.911 16.9588 144.879 17.3678 144.814 17.7284C144.75 18.089 144.642 18.4281 144.486 18.751C144.33 19.0685 144.131 19.3323 143.889 19.5422C143.641 19.7521 143.329 19.9189 142.947 20.0373C142.565 20.1557 142.134 20.1988 141.628 20.1988Z" fill="#0072BC"/>
<path d="M149.718 20.1988C149.196 20.1988 148.733 20.1342 148.329 19.9996C147.926 19.8651 147.597 19.6821 147.334 19.4507C147.07 19.2192 146.86 18.9232 146.693 18.5788C146.526 18.2343 146.413 17.8576 146.349 17.4593C146.284 17.061 146.252 16.609 146.252 16.1138V11.8728C146.252 11.3454 146.284 10.8771 146.354 10.4681C146.424 10.0591 146.537 9.68231 146.699 9.33248C146.86 8.98265 147.07 8.6974 147.334 8.47135C147.597 8.24531 147.926 8.06771 148.324 7.94393C148.722 7.81476 149.185 7.75555 149.712 7.75555C150.321 7.75555 150.837 7.83627 151.268 7.99773C151.698 8.1592 152.037 8.39601 152.29 8.70816C152.538 9.02032 152.721 9.3863 152.834 9.8061C152.947 10.2259 153.001 10.7103 153.001 11.27V12.3141H150.864V11.2808C150.864 10.6726 150.832 10.2636 150.767 10.0537C150.638 9.64463 150.331 9.42398 149.836 9.39169C149.799 9.39169 149.756 9.39169 149.718 9.39169C149.529 9.39169 149.368 9.41322 149.228 9.45627C149.088 9.49933 148.975 9.56929 148.889 9.66616C148.803 9.76304 148.728 9.8653 148.674 9.97294C148.62 10.0806 148.582 10.2205 148.555 10.3927C148.528 10.565 148.512 10.7264 148.502 10.8717C148.496 11.0171 148.491 11.2054 148.491 11.4315V16.5874C148.491 17.3032 148.582 17.8091 148.76 18.1159C148.937 18.4173 149.255 18.5734 149.718 18.5734C149.874 18.5734 150.014 18.5572 150.132 18.5196C150.251 18.4819 150.353 18.4388 150.434 18.3796C150.514 18.3204 150.584 18.2451 150.638 18.1375C150.692 18.0298 150.735 17.9329 150.767 17.8414C150.794 17.7499 150.821 17.6262 150.832 17.4647C150.843 17.3032 150.853 17.1687 150.859 17.0557C150.864 16.9426 150.864 16.7866 150.864 16.5928V15.5056H153.001V16.5013C153.001 16.9588 152.969 17.3678 152.904 17.7284C152.839 18.089 152.732 18.4281 152.576 18.751C152.42 19.0685 152.22 19.3323 151.978 19.5422C151.731 19.7521 151.419 19.9189 151.036 20.0373C150.654 20.1557 150.224 20.1988 149.718 20.1988Z" fill="#0072BC"/>
</svg>
