<svg width="153" height="25" viewBox="0 0 153 25" fill="none" xmlns="http://www.w3.org/2000/svg">
<path fill-rule="evenodd" clip-rule="evenodd" d="M13.8967 6.69522L11.97 3.353L13.9075 0L15.8396 3.34222L13.9129 6.68445L13.9021 6.70061L13.8967 6.69522Z" fill="white"/>
<path fill-rule="evenodd" clip-rule="evenodd" d="M14.1547 20.7638L12.2441 24.0953H0L11.4206 4.31104L13.3528 7.64787L5.78027 20.7638H14.1547Z" fill="white"/>
<path fill-rule="evenodd" clip-rule="evenodd" d="M15.2468 20.7638H22.0443L14.4664 7.63713L16.3932 4.30566L27.8246 24.0953H13.3254L15.2468 20.7638Z" fill="white"/>
<path fill-rule="evenodd" clip-rule="evenodd" d="M20.3869 19.8112H7.43237L13.9069 8.60583L20.3869 19.8112Z" fill="white"/>
<path fill-rule="evenodd" clip-rule="evenodd" d="M13.9121 6.68435L13.9015 6.70022L13.8962 6.69493L13.9068 6.67908L13.9121 6.68435Z" fill="white"/>
<path d="M33.1489 20.1987C32.6268 20.1987 32.164 20.1341 31.7603 19.9996C31.3567 19.865 31.0284 19.682 30.7647 19.4506C30.5009 19.2138 30.291 18.9232 30.1242 18.5787C29.9573 18.2343 29.8443 17.8575 29.7797 17.4593C29.7151 17.061 29.6829 16.6089 29.6829 16.1138V11.8727C29.6829 11.3453 29.7152 10.8771 29.7851 10.468C29.8551 10.059 29.9681 9.68225 30.1296 9.33242C30.291 8.98259 30.5009 8.69734 30.7647 8.47129C31.0284 8.24525 31.3567 8.06765 31.7549 7.94387C32.1532 7.8147 32.6161 7.75549 33.1435 7.75549C33.7517 7.75549 34.2683 7.83621 34.6989 7.99767C35.1295 8.15913 35.4685 8.39595 35.7215 8.7081C35.969 9.02026 36.152 9.38624 36.2651 9.80604C36.3781 10.2258 36.4319 10.7102 36.4319 11.2699V12.3141H34.2952V11.2807C34.2952 10.6725 34.263 10.2635 34.1984 10.0536C34.0692 9.64457 33.7624 9.42392 33.2673 9.39163C33.2296 9.39163 33.1866 9.39163 33.1489 9.39163C32.9605 9.39163 32.799 9.41315 32.6591 9.45621C32.5192 9.49927 32.4062 9.56922 32.32 9.6661C32.2339 9.76298 32.1586 9.86524 32.1048 9.97288C32.0509 10.0805 32.0133 10.2205 31.9864 10.3927C31.9595 10.5649 31.9433 10.7264 31.9325 10.8717C31.9272 11.017 31.9218 11.2054 31.9218 11.4314V16.5874C31.9218 17.3032 32.0133 17.8091 32.1909 18.1159C32.3685 18.4173 32.686 18.5733 33.1489 18.5733C33.305 18.5733 33.4449 18.5572 33.5633 18.5195C33.6817 18.4818 33.784 18.4388 33.8647 18.3796C33.9454 18.3258 34.0154 18.245 34.0692 18.1374C34.123 18.0298 34.1661 17.9329 34.1984 17.8414C34.2253 17.7499 34.2522 17.6261 34.263 17.4646C34.2737 17.3032 34.2845 17.1686 34.2899 17.0556C34.2899 16.9426 34.2952 16.7865 34.2952 16.5927V15.5056H36.4319V16.5013C36.4319 16.9587 36.3996 17.3678 36.335 17.7284C36.2705 18.089 36.1628 18.428 36.0067 18.7509C35.8506 19.0739 35.6515 19.3322 35.4093 19.5421C35.1671 19.752 34.8496 19.9188 34.4675 20.0372C34.0961 20.1395 33.6548 20.1987 33.1489 20.1987Z" fill="white"/>
<path d="M37.9711 20.0534V7.88464H43.0678V9.45081H40.1885V12.9437H42.4651V14.5099H40.1885V18.5249H43.1001V20.0587H37.9711V20.0534Z" fill="white"/>
<path d="M44.4021 20.0534V7.88464H47.3837C47.9488 7.88464 48.4386 7.93308 48.8584 8.03534C49.2782 8.1376 49.6549 8.30444 49.9779 8.53586C50.3008 8.76729 50.5484 9.09021 50.7098 9.49925C50.8713 9.90828 50.952 10.4088 50.9466 10.9901C50.9412 12.4916 50.3492 13.3312 49.1652 13.5089C50.5914 13.778 51.3018 14.7844 51.3072 16.5282C51.3126 17.6853 51.022 18.5626 50.4407 19.16C49.8595 19.7574 49.0091 20.0587 47.895 20.0587H44.4021V20.0534ZM46.6195 12.8469H47.3084C47.965 12.8469 48.4117 12.7069 48.6593 12.4271C48.9015 12.1472 49.0252 11.679 49.0252 11.017C49.0252 10.6725 48.9876 10.398 48.9068 10.1828C48.8261 9.96748 48.6916 9.81141 48.4978 9.70377C48.3094 9.59613 48.0942 9.52616 47.8627 9.48849C47.6313 9.4562 47.3192 9.43467 46.9317 9.43467H46.6141V12.8469H46.6195ZM46.6195 18.4872H47.4322C48.0995 18.4872 48.557 18.3311 48.81 18.0243C49.0629 17.7176 49.1867 17.2063 49.1867 16.4959C49.1867 15.7639 49.0414 15.2311 48.7561 14.8974C48.4709 14.5691 47.9865 14.4023 47.3138 14.4023H46.6141V18.4872H46.6195Z" fill="white"/>
<path d="M52.734 20.0534V7.88464H57.8308V9.45081H54.9514V12.9437H57.228V14.5099H54.9514V18.5249H57.8631V20.0587H52.734V20.0534Z" fill="white"/>
<path d="M59.1443 20.0534V7.88464H62.648C64.7201 7.88464 65.7588 9.0364 65.7588 11.3399C65.7588 12.4701 65.4735 13.299 64.9084 13.8264C64.3433 14.3538 63.5414 14.6175 62.508 14.6175H61.3617V20.0587H59.1443V20.0534ZM61.3617 13.0568H62.0721C62.6964 13.0568 63.1216 12.933 63.3423 12.6854C63.5629 12.4378 63.6706 11.9857 63.6706 11.3238C63.6706 10.947 63.6544 10.6564 63.6275 10.4519C63.6006 10.2473 63.5306 10.059 63.423 9.89214C63.3154 9.7253 63.1539 9.6069 62.944 9.54231C62.7341 9.47773 62.4435 9.44542 62.0829 9.44542H61.3617V13.0568Z" fill="white"/>
<path d="M66.9429 20.0534V7.88464H69.1603V12.9706H71.636V7.88464H73.8534V20.0534H71.636V14.5476H69.1603V20.0534H66.9429Z" fill="white"/>
<path d="M75.7092 20.0534V7.88464H77.9266V12.9814H78.3572C79.0138 12.9814 79.5681 13.0406 80.031 13.1536C80.4885 13.2667 80.8867 13.4604 81.2204 13.7295C81.5541 13.9986 81.8017 14.3592 81.9577 14.8167C82.1138 15.2741 82.1945 15.8339 82.1945 16.4959C82.1945 17.1686 82.1084 17.7445 81.9362 18.2073C81.764 18.6756 81.5057 19.0416 81.1558 19.3107C80.806 19.5798 80.4023 19.7681 79.9449 19.8811C79.482 19.9942 78.9384 20.0534 78.298 20.0534H75.7092ZM77.9266 18.541H78.3141C78.6478 18.541 78.9223 18.5141 79.1376 18.4549C79.3582 18.3957 79.5412 18.2935 79.6973 18.1374C79.8534 17.9867 79.9664 17.7714 80.0364 17.5023C80.1063 17.2332 80.1386 16.8834 80.1332 16.4636C80.1278 15.7801 79.9933 15.2849 79.7242 14.9835C79.4551 14.6821 78.9761 14.526 78.2872 14.526H77.9266V18.541ZM83.3248 20.0534V7.88464H85.5422V20.0534H83.3248Z" fill="white"/>
<path d="M87.4049 20.0535V7.88472H89.2456V15.4895L92.5501 7.88472H94.0625V20.0535H92.2003V12.3033L88.8903 20.0535H87.4049ZM90.731 6.84599C89.999 6.84599 89.4555 6.65762 89.1056 6.2755C88.7558 5.89338 88.5836 5.3767 88.5836 4.72009H89.6169C89.6169 5.12374 89.7084 5.41437 89.886 5.59198C90.069 5.77496 90.3489 5.86108 90.731 5.86108C91.1131 5.86108 91.393 5.76958 91.576 5.59198C91.759 5.40899 91.8451 5.11836 91.8451 4.72009H92.8892C92.8892 5.3767 92.7116 5.89338 92.3617 6.2755C92.0119 6.65762 91.4683 6.84599 90.731 6.84599Z" fill="white"/>
<path d="M99.6002 20.0534V7.88464H101.818V13.0083H102.248L104.218 7.88464H106.419L104.137 13.6273L106.602 20.0587H104.358L102.259 14.3915H101.818V20.0587H99.6002V20.0534Z" fill="white"/>
<path d="M107.571 22.1794V20.6079C108.513 20.6832 109.132 20.5809 109.412 20.3011C109.692 20.0212 109.751 19.5153 109.579 18.7726L107.066 7.87939H109.138L110.133 12.9385L110.661 16.5283L111.102 12.9546L111.969 7.88478H114.078L111.775 18.961C111.613 19.7306 111.473 20.2796 111.36 20.6186C111.247 20.9523 111.043 21.2752 110.747 21.582C110.451 21.8888 110.063 22.0771 109.579 22.1417C109.095 22.2063 108.427 22.2225 107.571 22.1794Z" fill="white"/>
<path d="M118.017 20.2202C116.93 20.2202 116.128 19.9188 115.612 19.316C115.095 18.7133 114.831 17.8629 114.831 16.7704V16.3398H116.914C116.914 16.582 116.914 16.7327 116.919 16.8027C116.936 17.3785 117.022 17.8037 117.178 18.0782C117.334 18.3527 117.619 18.4872 118.028 18.4872C118.217 18.4872 118.373 18.4549 118.507 18.3957C118.642 18.3365 118.749 18.2504 118.825 18.1482C118.905 18.0459 118.965 17.906 119.002 17.7391C119.04 17.5723 119.072 17.3947 119.088 17.2224C119.105 17.0502 119.11 16.8349 119.11 16.582C119.11 15.9308 118.986 15.4356 118.733 15.0965C118.48 14.7575 118.028 14.5637 117.377 14.5207C117.318 14.5153 117.146 14.5153 116.855 14.5153V12.9976C117.119 12.9976 117.28 12.9976 117.334 12.9922C118.001 12.9653 118.464 12.7931 118.722 12.4809C118.981 12.1687 119.11 11.6951 119.11 11.0547C119.11 10.5272 119.018 10.1236 118.83 9.84909C118.642 9.5746 118.34 9.43468 117.921 9.43468C117.156 9.43468 116.753 9.97826 116.704 11.0654C116.699 11.1246 116.699 11.2969 116.699 11.5875H114.605V11.0224C114.605 9.99441 114.896 9.19249 115.482 8.61662C116.069 8.04074 116.871 7.75549 117.888 7.75549C118.922 7.75549 119.729 8.04073 120.31 8.60584C120.891 9.17095 121.182 9.96749 121.182 10.9955C121.182 11.6844 121.031 12.2656 120.735 12.7392C120.439 13.2128 120.041 13.5196 119.551 13.6596C120.638 14.0363 121.182 15.0051 121.182 16.5658C121.182 17.7284 120.929 18.6272 120.418 19.273C119.912 19.8973 119.11 20.2202 118.017 20.2202Z" fill="white"/>
<path d="M122.716 20.0534V7.88464H128.346V9.53154H124.934V12.9814H125.294C125.951 12.9814 126.511 13.0406 126.974 13.1536C127.436 13.2667 127.835 13.4604 128.168 13.7295C128.502 13.9986 128.75 14.3592 128.906 14.8167C129.062 15.2741 129.143 15.8339 129.143 16.4959C129.143 17.0394 129.083 17.5131 128.97 17.9221C128.857 18.3311 128.69 18.6702 128.481 18.9393C128.271 19.2084 127.996 19.4291 127.673 19.5905C127.35 19.7574 126.99 19.8758 126.597 19.9457C126.204 20.0157 125.757 20.0534 125.251 20.0534H122.716ZM124.928 18.541H125.246C125.58 18.541 125.854 18.5141 126.075 18.4549C126.29 18.3957 126.478 18.2935 126.635 18.1374C126.791 17.9867 126.904 17.7714 126.974 17.5023C127.044 17.2332 127.076 16.8834 127.07 16.4636C127.065 15.7801 126.931 15.2849 126.661 14.9835C126.392 14.6821 125.913 14.526 125.224 14.526H124.939V18.541H124.928Z" fill="white"/>
<path d="M129.917 20.0534L132.393 7.88464H134.707L137.172 20.0534H135.111L134.621 17.2278H132.517L132.016 20.0534H129.917ZM132.743 15.7801H134.374L133.561 10.7802L132.743 15.7801Z" fill="white"/>
<path d="M141.628 20.1987C141.106 20.1987 140.643 20.1341 140.24 19.9996C139.836 19.865 139.508 19.682 139.244 19.4506C138.98 19.2192 138.77 18.9232 138.603 18.5787C138.437 18.2343 138.324 17.8575 138.259 17.4593C138.194 17.061 138.162 16.6089 138.162 16.1138V11.8727C138.162 11.3453 138.194 10.8771 138.264 10.468C138.334 10.059 138.447 9.68225 138.609 9.33242C138.77 8.98259 138.98 8.69734 139.244 8.47129C139.508 8.24525 139.836 8.06765 140.234 7.94387C140.632 7.8147 141.095 7.75549 141.623 7.75549C142.231 7.75549 142.748 7.83621 143.178 7.99767C143.609 8.15913 143.948 8.39595 144.201 8.7081C144.448 9.02026 144.631 9.38624 144.744 9.80604C144.857 10.2258 144.911 10.7102 144.911 11.2699V12.3141H142.774V11.2807C142.774 10.6725 142.742 10.2635 142.678 10.0536C142.548 9.64457 142.242 9.42392 141.747 9.39163C141.709 9.39163 141.666 9.39163 141.628 9.39163C141.44 9.39163 141.278 9.41315 141.138 9.45621C140.998 9.49927 140.885 9.56922 140.799 9.6661C140.713 9.76298 140.638 9.86524 140.584 9.97288C140.53 10.0805 140.493 10.2205 140.466 10.3927C140.439 10.5649 140.423 10.7264 140.412 10.8717C140.406 11.017 140.401 11.2054 140.401 11.4314V16.5874C140.401 17.3032 140.493 17.8091 140.67 18.1159C140.848 18.4173 141.165 18.5733 141.628 18.5733C141.784 18.5733 141.924 18.5572 142.043 18.5195C142.161 18.4818 142.263 18.4388 142.344 18.3796C142.425 18.3204 142.495 18.245 142.548 18.1374C142.602 18.0298 142.645 17.9329 142.678 17.8414C142.705 17.7499 142.731 17.6261 142.742 17.4646C142.753 17.3032 142.764 17.1686 142.769 17.0556C142.774 16.9426 142.774 16.7865 142.774 16.5927V15.5056H144.911V16.5013C144.911 16.9587 144.879 17.3678 144.814 17.7284C144.75 18.089 144.642 18.428 144.486 18.7509C144.33 19.0685 144.131 19.3322 143.889 19.5421C143.641 19.752 143.329 19.9188 142.947 20.0372C142.565 20.1556 142.134 20.1987 141.628 20.1987Z" fill="white"/>
<path d="M149.718 20.1987C149.196 20.1987 148.733 20.1341 148.329 19.9996C147.926 19.865 147.597 19.682 147.334 19.4506C147.07 19.2192 146.86 18.9232 146.693 18.5787C146.526 18.2343 146.413 17.8575 146.349 17.4593C146.284 17.061 146.252 16.6089 146.252 16.1138V11.8727C146.252 11.3453 146.284 10.8771 146.354 10.468C146.424 10.059 146.537 9.68225 146.699 9.33242C146.86 8.98259 147.07 8.69734 147.334 8.47129C147.597 8.24525 147.926 8.06765 148.324 7.94387C148.722 7.8147 149.185 7.75549 149.712 7.75549C150.321 7.75549 150.837 7.83621 151.268 7.99767C151.698 8.15913 152.037 8.39595 152.29 8.7081C152.538 9.02026 152.721 9.38624 152.834 9.80604C152.947 10.2258 153.001 10.7102 153.001 11.2699V12.3141H150.864V11.2807C150.864 10.6725 150.832 10.2635 150.767 10.0536C150.638 9.64457 150.331 9.42392 149.836 9.39163C149.799 9.39163 149.756 9.39163 149.718 9.39163C149.529 9.39163 149.368 9.41315 149.228 9.45621C149.088 9.49927 148.975 9.56922 148.889 9.6661C148.803 9.76298 148.728 9.86524 148.674 9.97288C148.62 10.0805 148.582 10.2205 148.555 10.3927C148.528 10.5649 148.512 10.7264 148.502 10.8717C148.496 11.017 148.491 11.2054 148.491 11.4314V16.5874C148.491 17.3032 148.582 17.8091 148.76 18.1159C148.937 18.4173 149.255 18.5733 149.718 18.5733C149.874 18.5733 150.014 18.5572 150.132 18.5195C150.251 18.4818 150.353 18.4388 150.434 18.3796C150.514 18.3204 150.584 18.245 150.638 18.1374C150.692 18.0298 150.735 17.9329 150.767 17.8414C150.794 17.7499 150.821 17.6261 150.832 17.4646C150.843 17.3032 150.853 17.1686 150.859 17.0556C150.864 16.9426 150.864 16.7865 150.864 16.5927V15.5056H153.001V16.5013C153.001 16.9587 152.969 17.3678 152.904 17.7284C152.839 18.089 152.732 18.428 152.576 18.7509C152.42 19.0685 152.22 19.3322 151.978 19.5421C151.731 19.752 151.419 19.9188 151.036 20.0372C150.654 20.1556 150.224 20.1987 149.718 20.1987Z" fill="white"/>
</svg>
